<svg width="244" height="160" viewBox="0 0 244 160" fill="none" xmlns="http://www.w3.org/2000/svg">
<path d="M0.274658 40.1743C0.274658 40.1743 1.86973 50.8515 9.2917 59.0222C16.7137 67.1928 27.1956 69.7645 27.1956 69.7645C27.1956 69.7645 25.6331 59.0873 18.1785 50.9166C10.724 42.7459 0.274658 40.1743 0.274658 40.1743Z" fill="#26D444"/>
<path d="M28.628 39.3929H26.5771V85.3571H28.628V39.3929Z" fill="#535461"/>
<path d="M13.719 85.0315C13.719 83.4039 15.0211 82.1018 16.6162 82.0692H38.4914C38.5566 82.0692 38.5891 82.0692 38.6542 82.0692C40.2818 82.1669 41.5188 83.5341 41.4212 85.1617L41.291 87.2451L41.0956 90.1748L41.0305 91.3793L40.8352 94.309L40.7701 95.5134L40.5748 98.4431L38.524 131.679C38.3612 134.642 35.8872 136.985 32.925 136.985H22.2477C19.2855 136.985 16.8115 134.674 16.6487 131.712L14.5979 98.4757L14.4026 95.546L14.3375 94.3415L14.1422 91.4118L14.0771 90.2074L13.8818 87.2776L13.7515 85.1943C13.719 85.1292 13.719 85.0966 13.719 85.0315Z" fill="#3F3D56"/>
<path d="M70.6207 47.5311C70.6207 47.5311 65.6727 60.9752 53.7585 69.5691C41.8443 78.163 27.5537 78.6513 27.5537 78.6513C27.5537 78.6513 32.5017 65.2071 44.3834 56.6132C56.2976 48.0194 70.6207 47.5311 70.6207 47.5311Z" fill="#26D444"/>
<path d="M51.0242 34.3473C51.0242 34.3473 48.3224 41.6716 41.8444 46.3592C35.3665 51.0467 27.5864 51.3072 27.5864 51.3072C27.5864 51.3072 30.2883 43.9828 36.7662 39.2953C43.2116 34.6077 51.0242 34.3473 51.0242 34.3473Z" fill="#26D444"/>
<path d="M218.116 60.5196H124.886V63.254H218.116V60.5196Z" fill="#E6E6E6"/>
<path d="M156.201 37.6352H132.568V61.2683H156.201V37.6352Z" fill="#E6E6E6"/>
<path d="M151.481 42.3878H137.321V56.5482H151.481V42.3878Z" fill="#CCCCCC"/>
<path d="M191.488 37.6352H185.531V61.2683H191.488V37.6352Z" fill="#E6E6E6"/>
<path d="M191.488 41.3787H185.531V44.1131H191.488V41.3787Z" fill="#CCCCCC"/>
<path d="M191.488 53.3255H185.531V56.0599H191.488V53.3255Z" fill="#CCCCCC"/>
<path d="M182.308 37.6352H176.351V61.2683H182.308V37.6352Z" fill="#E6E6E6"/>
<path d="M182.308 41.3787H176.351V44.1131H182.308V41.3787Z" fill="#CCCCCC"/>
<path d="M182.308 53.3255H176.351V56.0599H182.308V53.3255Z" fill="#CCCCCC"/>
<path d="M196.647 37.5412L191.308 40.1843L201.794 61.3643L207.133 58.7212L196.647 37.5412Z" fill="#E6E6E6"/>
<path d="M198.288 40.8913L192.949 43.5344L194.162 45.985L199.501 43.3419L198.288 40.8913Z" fill="#CCCCCC"/>
<path d="M203.599 51.5952L198.26 54.2383L199.473 56.6889L204.812 54.0457L203.599 51.5952Z" fill="#CCCCCC"/>
<path d="M141.422 47.1405L144.417 52.3489L147.412 57.5247H141.422H135.4L138.395 52.3489L141.422 47.1405Z" fill="#E6E6E6"/>
<path d="M146.631 48.1171L149.625 53.3255L152.653 58.5339H146.631H140.608L143.636 53.3255L146.631 48.1171Z" fill="#E6E6E6"/>
<path d="M148.747 46.5871C149.699 46.5871 150.472 45.8147 150.472 44.8618C150.472 43.909 149.699 43.1366 148.747 43.1366C147.794 43.1366 147.021 43.909 147.021 44.8618C147.021 45.8147 147.794 46.5871 148.747 46.5871Z" fill="#E6E6E6"/>
<path d="M218.116 22.9865H124.886V25.721H218.116V22.9865Z" fill="#E6E6E6"/>
<path d="M210.434 0.102127H186.801V23.7352H210.434V0.102127Z" fill="#E6E6E6"/>
<path d="M205.681 4.82224H191.521V18.9826H205.681V4.82224Z" fill="#CCCCCC"/>
<path d="M157.438 0.102127H151.481V23.7352H157.438V0.102127Z" fill="#E6E6E6"/>
<path d="M157.438 3.84566H151.481V6.58007H157.438V3.84566Z" fill="#CCCCCC"/>
<path d="M157.438 15.7599H151.481V18.4943H157.438V15.7599Z" fill="#CCCCCC"/>
<path d="M166.65 0.102127H160.693V23.7352H166.65V0.102127Z" fill="#E6E6E6"/>
<path d="M166.65 3.84566H160.693V6.58007H166.65V3.84566Z" fill="#CCCCCC"/>
<path d="M166.65 15.7599H160.693V18.4943H166.65V15.7599Z" fill="#CCCCCC"/>
<path d="M146.336 -3.99582e-06L135.85 21.18L141.188 23.8232L151.674 2.64316L146.336 -3.99582e-06Z" fill="#E6E6E6"/>
<path d="M144.68 3.33109L143.467 5.78168L148.805 8.42485L150.019 5.97426L144.68 3.33109Z" fill="#CCCCCC"/>
<path d="M139.392 14.0429L138.179 16.4935L143.517 19.1367L144.731 16.6861L139.392 14.0429Z" fill="#CCCCCC"/>
<path d="M201.579 9.57489L198.584 14.7833L195.59 19.9917H201.579H207.601L204.574 14.7833L201.579 9.57489Z" fill="#E6E6E6"/>
<path d="M196.371 10.584L193.343 15.7924L190.349 21.0008H196.371H202.36L199.366 15.7924L196.371 10.584Z" fill="#E6E6E6"/>
<path d="M194.255 9.05406C195.208 9.05406 195.98 8.28163 195.98 7.32878C195.98 6.37594 195.208 5.6035 194.255 5.6035C193.302 5.6035 192.53 6.37594 192.53 7.32878C192.53 8.28163 193.302 9.05406 194.255 9.05406Z" fill="#E6E6E6"/>
<path d="M218.116 98.0851H124.886V100.82H218.116V98.0851Z" fill="#E6E6E6"/>
<path d="M210.434 75.2007H186.801V98.8338H210.434V75.2007Z" fill="#E6E6E6"/>
<path d="M205.681 79.9208H191.521V94.0812H205.681V79.9208Z" fill="#CCCCCC"/>
<path d="M157.438 75.2007H151.481V98.8338H157.438V75.2007Z" fill="#E6E6E6"/>
<path d="M157.438 78.9117H151.481V81.6462H157.438V78.9117Z" fill="#CCCCCC"/>
<path d="M157.438 90.8585H151.481V93.5929H157.438V90.8585Z" fill="#CCCCCC"/>
<path d="M166.65 75.2007H160.693V98.8338H166.65V75.2007Z" fill="#E6E6E6"/>
<path d="M166.65 78.9117H160.693V81.6462H166.65V78.9117Z" fill="#CCCCCC"/>
<path d="M166.65 90.8585H160.693V93.5929H166.65V90.8585Z" fill="#CCCCCC"/>
<path d="M146.343 75.0958L135.857 96.2758L141.195 98.919L151.681 77.739L146.343 75.0958Z" fill="#E6E6E6"/>
<path d="M144.687 78.4269L143.474 80.8775L148.813 83.5207L150.026 81.0701L144.687 78.4269Z" fill="#CCCCCC"/>
<path d="M139.399 89.1387L138.186 91.5893L143.525 94.2324L144.738 91.7819L139.399 89.1387Z" fill="#CCCCCC"/>
<path d="M201.579 84.6735L198.584 89.8819L195.59 95.0903H201.579H207.601L204.574 89.8819L201.579 84.6735Z" fill="#E6E6E6"/>
<path d="M196.371 85.6827L193.343 90.8911L190.349 96.0669H196.371H202.36L199.366 90.8911L196.371 85.6827Z" fill="#E6E6E6"/>
<path d="M194.255 84.1201C195.208 84.1201 195.98 83.3477 195.98 82.3948C195.98 81.442 195.208 80.6696 194.255 80.6696C193.302 80.6696 192.53 81.442 192.53 82.3948C192.53 83.3477 193.302 84.1201 194.255 84.1201Z" fill="#E6E6E6"/>
<path d="M91.7472 74.9729L86.4412 104.01L122.965 99.6152L129.508 73.4104L91.7472 74.9729Z" fill="#3F3D56"/>
<path d="M202.36 160C184.457 156.81 164.86 157.331 144.319 160C153.694 152.09 161.767 144.179 152.392 136.269C170.654 140.045 173.226 139.655 193.539 136.269C188.851 144.212 197.64 152.122 202.36 160Z" fill="#EC0000"/>
<path opacity="0.2" d="M202.36 160C184.457 156.81 164.86 157.331 144.319 160C153.694 152.09 161.767 144.179 152.392 136.269C170.654 140.045 173.226 139.655 193.539 136.269C188.851 144.212 197.64 152.122 202.36 160Z" fill="black"/>
<path d="M197.999 156.647C182.797 154.108 166.162 154.531 148.682 156.647C156.624 150.332 163.493 144.017 155.55 137.702C171.078 140.696 173.226 140.403 190.512 137.702C186.508 144.017 193.995 150.332 197.999 156.647Z" fill="#EC0000"/>
<path d="M192.204 146.458C196.681 146.458 200.31 142.829 200.31 138.353C200.31 133.876 196.681 130.247 192.204 130.247C187.728 130.247 184.099 133.876 184.099 138.353C184.099 142.829 187.728 146.458 192.204 146.458Z" fill="#2F2E41"/>
<path d="M155.42 128.977L161.019 129.889L163.819 138.027L155.713 143.008L146.37 128.977H155.094H155.42Z" fill="#FFBDA8"/>
<path d="M171.305 141.445C178.551 141.445 184.424 135.572 184.424 128.326C184.424 121.081 178.551 115.208 171.305 115.208C164.06 115.208 158.187 121.081 158.187 128.326C158.187 135.572 164.06 141.445 171.305 141.445Z" fill="#FFBDA8"/>
<path d="M98.9088 80.6044C98.9088 80.6044 67.0724 84.0224 61.4734 83.4039C55.8418 82.7855 53.3678 82.1669 53.3678 82.1669C53.3678 82.1669 49.6243 87.1475 51.4798 89.3285C52.5215 90.598 53.791 91.6397 55.2233 92.4535C55.2233 92.4535 58.6413 91.5095 61.1479 92.4535C63.6544 93.3976 88.9152 97.4341 93.2772 93.6905C97.6392 89.947 98.9088 80.6044 98.9088 80.6044Z" fill="#2F2E41"/>
<path d="M101.122 150.169C101.122 150.169 80.2236 144.245 76.48 118.04V115.533C76.48 115.533 72.3459 122.793 70.8484 124.257C69.1232 125.983 63.0358 141.413 63.3614 142.975C63.6869 144.538 63.3614 145.156 63.3614 145.156L54.3118 144.212V141.413C54.3118 141.413 59.1621 126.894 59.4551 123.476C59.748 120.058 71.4669 96.1646 71.4669 96.1646C71.4669 96.1646 75.829 87.115 83.316 96.1646C90.8031 105.214 91.4216 111.464 91.4216 111.464L101.09 130.182V150.169H101.122Z" fill="#2F2E41"/>
<path d="M54.3118 81.2229L44.3182 77.8049C44.3182 77.8049 34.943 70.9364 37.1566 77.8049C39.3376 84.6735 49.3312 99.6477 52.1308 98.0851C54.9303 96.5226 58.3157 92.6489 57.567 92.0955C56.7858 91.5095 51.8052 87.473 54.3118 81.2229Z" fill="#E6E6E6"/>
<path d="M55.5164 139.59L47.4434 143.528C47.4434 143.528 37.7102 145.026 43.1464 147.825C48.5827 150.625 63.5894 153.652 64.3381 151.015C65.0868 148.379 64.7938 144.049 64.0126 144.147C63.1988 144.277 57.7625 144.863 55.5164 139.59Z" fill="#E6E6E6"/>
<path d="M97.0534 129.596C97.0534 129.596 92.9843 147.077 99.8529 150.82C106.721 154.564 154.769 155.182 158.512 148.314C162.256 141.445 160.401 141.445 160.401 141.445L150.407 130.214L158.512 129.596C158.512 129.596 158.512 127.089 155.713 126.796C152.913 126.471 144.157 123.378 136.67 125.559C129.183 127.74 124.821 121.197 124.821 121.197L97.0534 129.596Z" fill="#575A89"/>
<path d="M92.8541 76.0797L88.4595 101.959L121.696 98.0852L128.108 74.5172L92.8541 76.0797Z" fill="white"/>
<path d="M87.6783 104.303L86.4413 104.01L85.8228 105.247L95.8164 133.014L96.7278 132.656L97.0534 130.833L87.6783 104.303Z" fill="#B3B3B3"/>
<path d="M86.4412 103.684L96.4348 132.721L134.196 127.089L122.965 99.6151L86.4412 103.684Z" fill="#D0CDE1"/>
<path d="M91.4216 102.74V104.303L119.221 101.178L118.896 99.6151L91.4216 102.74Z" fill="#3F3D56"/>
<path d="M92.0728 105.865L96.4348 118.04L124.821 114.622L119.84 103.066L92.0728 105.865Z" fill="#3F3D56"/>
<path d="M127.62 123.02L126.676 120.514C126.676 120.514 119.514 108.046 115.738 110.52C111.995 113.027 123.551 125.201 123.551 125.201H127.294L127.62 123.02Z" fill="#FFBDA8"/>
<path d="M103.922 124.908L102.978 121.165C102.978 121.165 100.471 109.609 104.866 110.227C109.228 110.846 110.497 121.783 110.497 121.783L110.172 124.29L103.922 124.908Z" fill="#FFBDA8"/>
<path d="M111.409 123.346C111.409 123.346 103.303 122.109 102.978 123.964C102.652 125.852 101.09 153.913 108.902 154.857C116.715 155.801 155.387 159.837 151.351 150.169C147.282 140.501 141.064 141.738 141.064 141.738L114.534 144.538L111.409 123.346Z" fill="#575A89"/>
<path d="M135.888 126.927L127.62 121.165L122.184 125.364L129.02 132.851L135.888 126.927Z" fill="#575A89"/>
<path opacity="0.2" d="M113.753 132.558L114.99 144.407L136.539 143.17L117.789 142.845L113.753 132.558Z" fill="black"/>
<path d="M177.784 146.328C186.395 146.328 193.376 139.347 193.376 130.735C193.376 122.124 186.395 115.143 177.784 115.143C169.172 115.143 162.191 122.124 162.191 130.735C162.191 139.347 169.172 146.328 177.784 146.328Z" fill="#2F2E41"/>
<path d="M97.509 85.1293L116.878 84.4457L118.733 77.3167L98.7786 77.9352L97.509 85.1293Z" fill="#EC0000"/>
<path d="M92.5286 89.1658L121.858 88.2543L122.184 86.9848L92.8541 88.0264L92.5286 89.1658Z" fill="#E6E6E6"/>
<path d="M91.9099 92.2908L121.24 91.3468L121.533 90.1098L92.2029 91.1515L91.9099 92.2908Z" fill="#E6E6E6"/>
<path d="M91.5845 94.7974L120.914 93.8534L121.24 92.6164L91.91 93.658L91.5845 94.7974Z" fill="#E6E6E6"/>
<path d="M240.707 134.283H222.478L220.525 118.658H242.661L240.707 134.283Z" fill="#E6E6E6"/>
<path d="M217.79 112.864C222.478 119.147 232.244 119.798 232.244 119.798C232.244 119.798 234.392 110.26 229.672 103.977C224.984 97.6945 215.219 97.0435 215.219 97.0435C215.219 97.0435 213.103 106.581 217.79 112.864Z" fill="#00BF20"/>
<path d="M241.716 115.24C238.624 119.375 232.179 119.83 232.179 119.83C232.179 119.83 230.779 113.548 233.871 109.381C236.964 105.247 243.409 104.791 243.409 104.791C243.409 104.791 244.809 111.074 241.716 115.24Z" fill="#00BF20"/>
</svg>
