<svg width="204" height="126" viewBox="0 0 204 126" fill="none" xmlns="http://www.w3.org/2000/svg">
<g clip-path="url(#clip0)">
<path d="M54.5568 31.5639H29.1968V31.9269H54.5568V31.5639Z" fill="#AEAEAE"/>
<path d="M36.4429 28.297H36.0806V31.6547H36.4429V28.297Z" fill="#AEAEAE"/>
<path d="M47.4922 28.297H47.1299V31.6547H47.4922V28.297Z" fill="#AEAEAE"/>
<path d="M45.862 13.4141H20.502V13.7771H45.862V13.4141Z" fill="#AEAEAE"/>
<path d="M38.9785 13.6864H38.6162V17.0441H38.9785V13.6864Z" fill="#AEAEAE"/>
<path d="M27.9287 13.6864H27.5664V17.0441H27.9287V13.6864Z" fill="#AEAEAE"/>
<path d="M86.0758 38.8239H60.7158V39.1869H86.0758V38.8239Z" fill="#AEAEAE"/>
<path d="M67.9614 35.5569H67.5991V38.9146H67.9614V35.5569Z" fill="#AEAEAE"/>
<path d="M79.0112 35.5569H78.6489V38.9146H79.0112V35.5569Z" fill="#AEAEAE"/>
<path d="M77.381 20.674H52.021V21.037H77.381V20.674Z" fill="#AEAEAE"/>
<path d="M70.4975 20.9463H70.1353V24.304H70.4975V20.9463Z" fill="#AEAEAE"/>
<path d="M59.4477 20.9463H59.0854V24.304H59.4477V20.9463Z" fill="#AEAEAE"/>
<path d="M76.1129 100.533H50.7529V100.896H76.1129V100.533Z" fill="#AEAEAE"/>
<path d="M57.9985 97.2662H57.6362V100.624H57.9985V97.2662Z" fill="#AEAEAE"/>
<path d="M69.0483 97.2662H68.686V100.624H69.0483V97.2662Z" fill="#AEAEAE"/>
<path d="M67.4181 82.3834H42.0581V82.7464H67.4181V82.3834Z" fill="#AEAEAE"/>
<path d="M60.5347 82.6556H60.1724V86.0134H60.5347V82.6556Z" fill="#AEAEAE"/>
<path d="M49.4848 82.6556H49.1226V86.0134H49.4848V82.6556Z" fill="#AEAEAE"/>
<path d="M64.5197 61.3296H39.1597V61.6926H64.5197V61.3296Z" fill="#AEAEAE"/>
<path d="M46.4052 58.0627H46.043V61.4204H46.4052V58.0627Z" fill="#AEAEAE"/>
<path d="M57.4551 58.0627H57.0928V61.4204H57.4551V58.0627Z" fill="#AEAEAE"/>
<path d="M55.8249 43.1798H30.4648V43.5428H55.8249V43.1798Z" fill="#AEAEAE"/>
<path d="M48.9414 43.4521H48.5791V46.8098H48.9414V43.4521Z" fill="#AEAEAE"/>
<path d="M37.8916 43.4521H37.5293V46.8098H37.8916V43.4521Z" fill="#AEAEAE"/>
<path d="M46.2243 88.9173H20.8643V89.2803H46.2243V88.9173Z" fill="#AEAEAE"/>
<path d="M28.1098 85.6504H27.7476V89.0081H28.1098V85.6504Z" fill="#AEAEAE"/>
<path d="M39.1596 85.6504H38.7974V89.0081H39.1596V85.6504Z" fill="#AEAEAE"/>
<path d="M37.5294 70.7675H12.1694V71.1305H37.5294V70.7675Z" fill="#AEAEAE"/>
<path d="M30.646 71.0398H30.2837V74.3975H30.646V71.0398Z" fill="#AEAEAE"/>
<path d="M19.5962 71.0398H19.2339V74.3975H19.5962V71.0398Z" fill="#AEAEAE"/>
<path d="M172.481 31.5639H147.121V31.9269H172.481V31.5639Z" fill="#AEAEAE"/>
<path d="M154.367 28.297H154.004V31.6547H154.367V28.297Z" fill="#AEAEAE"/>
<path d="M165.417 28.297H165.054V31.6547H165.417V28.297Z" fill="#AEAEAE"/>
<path d="M163.786 13.4141H138.426V13.7771H163.786V13.4141Z" fill="#AEAEAE"/>
<path d="M156.903 13.6864H156.541V17.0441H156.903V13.6864Z" fill="#AEAEAE"/>
<path d="M145.853 13.6864H145.491V17.0441H145.853V13.6864Z" fill="#AEAEAE"/>
<path d="M204 38.8239H178.64V39.1869H204V38.8239Z" fill="#AEAEAE"/>
<path d="M185.886 35.5569H185.523V38.9146H185.886V35.5569Z" fill="#AEAEAE"/>
<path d="M196.935 35.5569H196.573V38.9146H196.935V35.5569Z" fill="#AEAEAE"/>
<path d="M195.305 20.674H169.945V21.037H195.305V20.674Z" fill="#AEAEAE"/>
<path d="M188.421 20.9463H188.059V24.304H188.421V20.9463Z" fill="#AEAEAE"/>
<path d="M177.372 20.9463H177.009V24.304H177.372V20.9463Z" fill="#AEAEAE"/>
<path d="M194.037 100.533H168.677V100.896H194.037V100.533Z" fill="#AEAEAE"/>
<path d="M175.923 97.2662H175.561V100.624H175.923V97.2662Z" fill="#AEAEAE"/>
<path d="M186.972 97.2662H186.61V100.624H186.972V97.2662Z" fill="#AEAEAE"/>
<path d="M185.342 82.3834H159.982V82.7464H185.342V82.3834Z" fill="#AEAEAE"/>
<path d="M178.458 82.6556H178.096V86.0134H178.458V82.6556Z" fill="#AEAEAE"/>
<path d="M167.409 82.6556H167.047V86.0134H167.409V82.6556Z" fill="#AEAEAE"/>
<path d="M182.444 61.3296H157.084V61.6926H182.444V61.3296Z" fill="#AEAEAE"/>
<path d="M164.33 58.0627H163.967V61.4204H164.33V58.0627Z" fill="#AEAEAE"/>
<path d="M175.379 58.0627H175.017V61.4204H175.379V58.0627Z" fill="#AEAEAE"/>
<path d="M173.749 43.1798H148.389V43.5428H173.749V43.1798Z" fill="#AEAEAE"/>
<path d="M166.866 43.4521H166.503V46.8098H166.866V43.4521Z" fill="#AEAEAE"/>
<path d="M155.816 43.4521H155.454V46.8098H155.816V43.4521Z" fill="#AEAEAE"/>
<path d="M164.149 88.9173H138.789V89.2803H164.149V88.9173Z" fill="#AEAEAE"/>
<path d="M146.034 85.6504H145.672V89.0081H146.034V85.6504Z" fill="#AEAEAE"/>
<path d="M157.084 85.6504H156.722V89.0081H157.084V85.6504Z" fill="#AEAEAE"/>
<path d="M155.454 70.7675H130.094V71.1305H155.454V70.7675Z" fill="#AEAEAE"/>
<path d="M148.57 71.0398H148.208V74.3975H148.57V71.0398Z" fill="#AEAEAE"/>
<path d="M137.52 71.0398H137.158V74.3975H137.52V71.0398Z" fill="#AEAEAE"/>
<path d="M100.975 0H65.7427V50.0935H100.975V0Z" fill="#3F3D56"/>
<path d="M146.17 60.0759H110.938V110.169H146.17V60.0759Z" fill="#3F3D56"/>
<path d="M146.17 0H110.938V50.0935H146.17V0Z" fill="#3F3D56"/>
<path d="M100.975 60.0759H65.7427V110.169H100.975V60.0759Z" fill="#3F3D56"/>
<path d="M191.819 110.012H17.2856V110.418H191.819V110.012Z" fill="#2F2E41"/>
<path d="M20.6381 107.265H18.6455V124.145C18.6455 124.145 31.5067 128.319 44.0055 124.145V107.265H20.6381Z" fill="#3F3D56"/>
<path d="M31.1444 109.262C38.0473 109.262 43.6432 108.409 43.6432 107.356C43.6432 106.304 38.0473 105.45 31.1444 105.45C24.2414 105.45 18.6455 106.304 18.6455 107.356C18.6455 108.409 24.2414 109.262 31.1444 109.262Z" fill="#3F3D56"/>
<path opacity="0.1" d="M31.1444 109.262C38.0473 109.262 43.6432 108.409 43.6432 107.356C43.6432 106.304 38.0473 105.45 31.1444 105.45C24.2414 105.45 18.6455 106.304 18.6455 107.356C18.6455 108.409 24.2414 109.262 31.1444 109.262Z" fill="black"/>
<path d="M45.6738 87.0984C42.5207 98.7768 31.7208 106.01 31.7208 106.01C31.7208 106.01 26.033 94.3078 29.1861 82.6294C32.3391 70.951 43.139 63.7183 43.139 63.7183C43.139 63.7183 48.8268 75.42 45.6738 87.0984Z" fill="#6EC974"/>
<path d="M16.9898 87.0984C20.1428 98.7768 30.9427 106.01 30.9427 106.01C30.9427 106.01 36.6305 94.3078 33.4775 82.6294C30.3244 70.951 19.5245 63.7183 19.5245 63.7183C19.5245 63.7183 13.8367 75.42 16.9898 87.0984Z" fill="#268548"/>
<path d="M21.6229 84.5886C30.275 93.0275 31.3317 106 31.3317 106C31.3317 106 18.3608 105.29 9.70881 96.8516C1.05679 88.4126 0 75.4401 0 75.4401C0 75.4401 12.9709 76.1497 21.6229 84.5886Z" fill="#6EC974"/>
<path d="M41.0408 84.5886C32.3888 93.0275 31.332 106 31.332 106C31.332 106 44.3029 105.29 52.955 96.8516C61.607 88.4126 62.6638 75.4401 62.6638 75.4401C62.6638 75.4401 49.6928 76.1497 41.0408 84.5886Z" fill="#0DAB28"/>
<path d="M31.3255 67.6988C33.5264 67.6988 35.3106 65.9111 35.3106 63.7058C35.3106 61.5006 33.5264 59.7129 31.3255 59.7129C29.1245 59.7129 27.3403 61.5006 27.3403 63.7058C27.3403 65.9111 29.1245 67.6988 31.3255 67.6988Z" fill="#EC0000"/>
<path d="M79.6909 27.4062C79.991 27.4062 80.2343 27.1624 80.2343 26.8617C80.2343 26.561 79.991 26.3172 79.6909 26.3172C79.3908 26.3172 79.1475 26.561 79.1475 26.8617C79.1475 27.1624 79.3908 27.4062 79.6909 27.4062Z" fill="white"/>
<path d="M77.1549 20.3278C80.6564 20.3278 83.495 17.4837 83.495 13.9754C83.495 10.467 80.6564 7.62292 77.1549 7.62292C73.6535 7.62292 70.8149 10.467 70.8149 13.9754C70.8149 17.4837 73.6535 20.3278 77.1549 20.3278Z" fill="white"/>
<path d="M87.2988 22.8688C87.3989 22.8688 87.48 22.7875 87.48 22.6873C87.48 22.587 87.3989 22.5058 87.2988 22.5058C87.1988 22.5058 87.1177 22.587 87.1177 22.6873C87.1177 22.7875 87.1988 22.8688 87.2988 22.8688Z" fill="white"/>
<path d="M119.18 31.9437C119.28 31.9437 119.361 31.8624 119.361 31.7622C119.361 31.6619 119.28 31.5807 119.18 31.5807C119.08 31.5807 118.999 31.6619 118.999 31.7622C118.999 31.8624 119.08 31.9437 119.18 31.9437Z" fill="white"/>
<path d="M117.187 86.2116C117.288 86.2116 117.369 86.1303 117.369 86.0301C117.369 85.9298 117.288 85.8486 117.187 85.8486C117.087 85.8486 117.006 85.9298 117.006 86.0301C117.006 86.1303 117.087 86.2116 117.187 86.2116Z" fill="white"/>
<path d="M78.9663 98.735C79.0663 98.735 79.1474 98.6537 79.1474 98.5535C79.1474 98.4532 79.0663 98.3719 78.9663 98.3719C78.8663 98.3719 78.7852 98.4532 78.7852 98.5535C78.7852 98.6537 78.8663 98.735 78.9663 98.735Z" fill="white"/>
<path d="M132.403 38.2961C132.503 38.2961 132.584 38.2148 132.584 38.1146C132.584 38.0144 132.503 37.9331 132.403 37.9331C132.303 37.9331 132.222 38.0144 132.222 38.1146C132.222 38.2148 132.303 38.2961 132.403 38.2961Z" fill="white"/>
<path d="M130.592 23.0502C130.692 23.0502 130.773 22.969 130.773 22.8688C130.773 22.7685 130.692 22.6873 130.592 22.6873C130.492 22.6873 130.411 22.7685 130.411 22.8688C130.411 22.969 130.492 23.0502 130.592 23.0502Z" fill="white"/>
<path d="M124.433 72.0547C124.533 72.0547 124.614 71.9735 124.614 71.8732C124.614 71.773 124.533 71.6917 124.433 71.6917C124.333 71.6917 124.252 71.773 124.252 71.8732C124.252 71.9735 124.333 72.0547 124.433 72.0547Z" fill="white"/>
<path d="M114.651 44.83C114.751 44.83 114.833 44.7488 114.833 44.6485C114.833 44.5483 114.751 44.467 114.651 44.467C114.551 44.467 114.47 44.5483 114.47 44.6485C114.47 44.7488 114.551 44.83 114.651 44.83Z" fill="white"/>
<path d="M116.101 19.2388C116.201 19.2388 116.282 19.1575 116.282 19.0573C116.282 18.9571 116.201 18.8758 116.101 18.8758C116.001 18.8758 115.919 18.9571 115.919 19.0573C115.919 19.1575 116.001 19.2388 116.101 19.2388Z" fill="white"/>
<path d="M132.584 8.89341C132.685 8.89341 132.766 8.81215 132.766 8.71191C132.766 8.61167 132.685 8.53041 132.584 8.53041C132.484 8.53041 132.403 8.61167 132.403 8.71191C132.403 8.81215 132.484 8.89341 132.584 8.89341Z" fill="white"/>
<path d="M79.3286 82.4001C79.4286 82.4001 79.5097 82.3189 79.5097 82.2186C79.5097 82.1184 79.4286 82.0371 79.3286 82.0371C79.2286 82.0371 79.1475 82.1184 79.1475 82.2186C79.1475 82.3189 79.2286 82.4001 79.3286 82.4001Z" fill="white"/>
<path d="M94.9067 96.194C95.0068 96.194 95.0879 96.1127 95.0879 96.0125C95.0879 95.9123 95.0068 95.831 94.9067 95.831C94.8067 95.831 94.7256 95.9123 94.7256 96.0125C94.7256 96.1127 94.8067 96.194 94.9067 96.194Z" fill="white"/>
<path d="M74.9809 68.7878C75.081 68.7878 75.1621 68.7065 75.1621 68.6063C75.1621 68.5061 75.081 68.4248 74.9809 68.4248C74.8809 68.4248 74.7998 68.5061 74.7998 68.6063C74.7998 68.7065 74.8809 68.7878 74.9809 68.7878Z" fill="white"/>
<path d="M79.5098 44.83C79.6098 44.83 79.6909 44.7488 79.6909 44.6485C79.6909 44.5483 79.6098 44.467 79.5098 44.467C79.4097 44.467 79.3286 44.5483 79.3286 44.6485C79.3286 44.7488 79.4097 44.83 79.5098 44.83Z" fill="white"/>
<path opacity="0.1" d="M79.5098 44.83L100.975 35.5609V38.0148L79.5098 44.83Z" fill="white"/>
<path opacity="0.1" d="M146.17 16.0462V23.6637L110.938 34.8513V31.2594L146.17 16.0462Z" fill="white"/>
<path opacity="0.1" d="M90.0234 71.6881L100.975 65.6424V66.4827C94.8509 69.4539 90.2372 71.5901 90.0234 71.6881Z" fill="white"/>
<path opacity="0.1" d="M111.061 60.0759H113.824C112.865 60.5714 111.903 61.0632 110.938 61.5514V60.1448L111.061 60.0759Z" fill="white"/>
<path opacity="0.1" d="M132.766 48.097C132.683 48.578 132.05 49.2604 130.998 50.0935H129.148L132.766 48.097Z" fill="white"/>
<path opacity="0.1" d="M146.171 80.6505V81.9319C136.766 86.6345 128.174 90.6111 127.882 90.7454L146.171 80.6505Z" fill="white"/>
<path d="M124.977 82.4342C124.976 82.0741 124.873 81.7217 124.68 81.4185C124.486 81.1153 124.209 80.8741 123.883 80.7234L123.941 79.9821H119.894L120.364 84.792H123.565L123.607 84.2476C124.001 84.1358 124.348 83.8982 124.595 83.571C124.842 83.2437 124.976 82.8446 124.977 82.4342ZM123.63 83.9606L123.854 81.0968C124.048 81.289 124.198 81.5214 124.294 81.7777C124.389 82.0341 124.427 82.3082 124.406 82.5809C124.385 82.8537 124.304 83.1185 124.17 83.3568C124.036 83.5951 123.852 83.8012 123.63 83.9606Z" fill="#EC0000"/>
<path d="M120.613 78.5192C120.613 78.5192 125.399 81.9444 123.803 83.3144C122.208 84.6845 119.018 79.2043 119.018 79.2043L120.613 78.5192Z" fill="#FFB9B9"/>
<path d="M98.5073 83.7711C98.5073 83.7711 99.4189 95.1882 99.6468 96.7866C99.8747 98.385 100.103 112.771 100.558 114.369C101.014 115.967 101.47 119.849 101.47 119.849H104.205C104.205 119.849 103.977 112.771 104.66 110.03C105.344 107.29 105.116 99.755 105.116 99.755C105.116 99.755 106.484 86.2828 105.8 84.4561C105.116 82.6294 98.5073 83.7711 98.5073 83.7711Z" fill="#FFB9B9"/>
<path d="M102.153 119.164C102.153 119.164 101.014 119.849 101.014 120.306C101.014 120.763 101.242 121.904 101.014 122.361C100.786 122.818 99.1906 124.644 100.102 125.101C101.014 125.558 105.116 125.101 105.116 125.101C105.116 125.101 104.888 121.904 104.66 121.676C104.432 121.448 104.888 119.164 104.888 119.164H102.153Z" fill="#2F2E41"/>
<path d="M115.928 83.4913C115.928 83.4913 116.218 94.9412 116.159 96.5548C116.099 98.1683 117.38 112.498 117.094 114.136C116.808 115.773 116.762 119.682 116.762 119.682L114.042 119.969C114.042 119.969 113.527 112.906 112.56 110.253C111.593 107.6 111.03 100.082 111.03 100.082C111.03 100.082 108.259 86.8281 108.748 84.9395C109.236 83.051 115.928 83.4913 115.928 83.4913Z" fill="#FFB9B9"/>
<path d="M116.01 119.072C116.01 119.072 117.215 119.634 117.262 120.088C117.31 120.542 117.203 121.701 117.478 122.132C117.752 122.562 119.53 124.211 118.671 124.761C117.813 125.311 113.685 125.288 113.685 125.288C113.685 125.288 113.577 122.085 113.78 121.834C113.983 121.583 113.29 119.36 113.29 119.36L116.01 119.072Z" fill="#2F2E41"/>
<path d="M101.698 66.6454C101.698 66.6454 99.8744 66.8738 99.1907 70.7556C98.507 74.6374 96.0001 84.4561 98.0512 85.1411C100.102 85.8262 106.255 87.1962 106.483 86.7395C106.711 86.2829 107.167 85.1411 107.167 85.1411C107.167 85.1411 106.483 87.1962 107.395 87.1962C108.307 87.1962 117.194 85.8262 116.967 85.1412C116.739 84.4561 116.283 79.4326 116.283 79.4326C116.283 79.4326 114.915 70.9839 113.548 69.6139C113.152 69.2332 112.845 68.7699 112.648 68.2569C112.451 67.7438 112.369 67.1937 112.409 66.6454H101.698Z" fill="#2F2E41"/>
<path d="M98.2792 64.8187C98.2792 64.8187 101.242 64.1337 101.698 65.047C102.153 65.9604 100.558 67.3305 99.8744 67.3305C99.1907 67.3305 98.0513 66.6454 98.0513 66.6454L98.2792 64.8187Z" fill="#FFB9B9"/>
<path d="M108.768 45.11C111.033 45.11 112.87 43.2698 112.87 40.9998C112.87 38.7298 111.033 36.8897 108.768 36.8897C106.502 36.8897 104.666 38.7298 104.666 40.9998C104.666 43.2698 106.502 45.11 108.768 45.11Z" fill="#FFB9B9"/>
<path d="M106.289 43.8159C106.289 43.8159 105.8 47.4646 105.344 47.4646C104.888 47.4646 108.762 49.5197 108.762 49.5197L111.725 49.063L112.637 47.693C112.637 47.693 111.223 45.4929 111.223 43.6661C111.223 41.8394 106.289 43.8159 106.289 43.8159Z" fill="#FFB9B9"/>
<path d="M107.167 47.4647C107.167 47.4647 106.483 47.008 106.255 47.008H104.432C104.204 47.008 101.242 47.693 101.242 47.693L99.4185 57.9684C99.4185 57.9684 102.609 63.2203 100.33 67.3305C100.33 67.3305 101.014 66.8738 104.204 67.1021C107.395 67.3305 113.092 68.0155 113.32 68.0155C113.548 68.0155 113.548 66.1887 113.32 65.7321C113.092 65.2754 113.548 65.5037 113.548 64.362C113.548 63.2203 114.232 61.1652 114.232 61.1652L117.422 49.5197C117.422 49.5197 113.32 47.2363 112.636 47.4646C111.953 47.693 109.902 48.378 109.446 48.1497C108.99 47.9213 107.167 47.4647 107.167 47.4647Z" fill="#FF6584"/>
<path d="M101.925 47.9213L101.242 47.693C101.242 47.693 99.8742 47.4646 98.2789 48.8347C96.6837 50.2048 90.7584 54.3149 90.7584 54.3149C90.7584 54.3149 88.4794 56.1417 89.1631 58.1968C89.8468 60.2518 90.9863 65.2754 94.4047 65.047C94.4047 65.047 96.4558 67.7872 97.5952 67.3305C98.7347 66.8738 99.6463 65.047 98.9626 64.8187C98.2789 64.5904 96.4558 62.3069 96.4558 62.3069L98.7347 57.9684H99.4184L101.925 56.5984L101.925 47.9213Z" fill="#FF6584"/>
<path d="M115.599 49.2914L117.422 49.5197C117.422 49.5197 119.017 50.2048 118.79 53.1732C118.562 56.1417 120.157 69.6139 119.473 71.2123C119.473 71.2123 121.752 78.9759 121.296 79.2042C120.841 79.4326 118.106 80.8026 118.334 79.8893C118.562 78.9759 115.827 72.5823 115.827 72.5823C115.827 72.5823 112.636 69.1572 114.004 64.362V60.4802L115.599 49.2914Z" fill="#FF6584"/>
<path d="M119.404 44.6904C118.895 43.9699 118.27 43.3403 117.733 42.6407C116.496 41.0276 116.068 38.8782 114.408 37.6412C112.766 36.4171 110.159 35.2124 108.103 35.3089C105.394 35.4361 103.245 37.5419 101.378 39.5123C99.9505 41.0181 98.5234 42.5239 97.0962 44.0296C96.0638 45.119 94.9932 46.2755 94.6211 47.7307C94.2635 49.1294 94.6125 50.6319 95.2672 51.9181C95.9476 53.2227 96.902 54.3642 98.0647 55.2641C99.4978 53.2867 101.506 50.5565 101.506 50.5565L101.973 57.3476C104.401 58.1539 107.009 58.3124 109.568 58.1342L110.326 55.3498L111.121 57.98C114.179 57.5738 117.251 56.516 119.144 54.1252C121.237 51.4819 121.348 47.4452 119.404 44.6904Z" fill="#2F2E41"/>
<path d="M102.328 44.0046C101.905 41.877 102.362 39.6728 103.783 37.9847C106.407 34.8661 111.32 34.6909 114.756 37.5935C116.127 38.7388 117.11 40.281 117.572 42.0086C117.178 40.0962 116.147 38.3748 114.648 37.1261C111.212 34.2236 106.299 34.3988 103.675 37.5174C102.15 39.3295 101.736 41.7363 102.328 44.0046Z" fill="#2F2E41"/>
<path d="M94.2555 54.0406C93.8326 51.913 94.2895 49.7088 95.7099 48.0207C98.3342 44.902 103.247 44.7269 106.683 47.6294C108.054 48.7747 109.038 50.317 109.499 52.0446C109.105 50.1322 108.074 48.4107 106.575 47.1621C103.139 44.2595 98.2265 44.4347 95.6023 47.5534C94.0775 49.3655 93.6629 51.7723 94.2555 54.0406Z" fill="#2F2E41"/>
<path d="M112.564 42.8637C114.719 42.6512 116.864 43.3235 118.4 44.9058C121.24 47.829 120.931 52.7448 117.71 55.8854C116.438 57.1398 114.809 57.9692 113.048 58.2597C114.986 58.0542 116.798 57.1955 118.185 55.824C121.406 52.6834 121.715 47.7677 118.875 44.8444C117.225 43.1459 114.876 42.4959 112.564 42.8637Z" fill="#2F2E41"/>
<path opacity="0.1" d="M122.755 71.9468C122.546 71.898 122.327 71.9141 122.126 71.9929C121.926 72.0717 121.754 72.2096 121.634 72.3883C121.549 72.5263 121.488 72.6776 121.453 72.8359C121.353 73.2692 121.373 73.7214 121.51 74.1443C121.648 74.5671 121.897 74.9447 122.232 75.2367C122.407 75.3661 122.574 75.5076 122.73 75.6602C122.874 75.8355 122.974 76.0431 123.022 76.2654C123.07 76.4877 123.064 76.7182 123.004 76.9376C122.878 77.377 122.617 77.7649 122.256 78.0452C122.181 78.0964 122.118 78.1637 122.072 78.2423C121.95 78.5051 122.266 78.7551 122.346 79.0337" fill="white"/>
</g>
<defs>
<clipPath id="clip0">
<rect width="204" height="126" fill="white"/>
</clipPath>
</defs>
</svg>
