<svg width="179" height="136" viewBox="0 0 179 136" fill="none" xmlns="http://www.w3.org/2000/svg">
<g clip-path="url(#clip0)">
<path d="M178.752 122.809H0V122.368H178.832L178.752 122.809Z" fill="#48465F"/>
<path d="M140.398 50.8166V89.8983H38.647V50.8166C38.6468 37.847 43.6115 25.3681 52.524 15.936C61.4365 6.50397 73.6223 0.832682 86.5853 0.0838119C87.5566 0.0272422 88.5357 -0.000695901 89.5224 -2.67025e-06C90.0847 -2.67025e-06 90.6448 0.00837408 91.2008 0.0293308C104.11 0.437352 116.376 5.75056 125.496 14.8846C125.771 15.1591 126.042 15.4357 126.312 15.7165C135.356 25.1692 140.401 37.7417 140.398 50.8166Z" fill="#D9E2F8"/>
<path d="M91.2005 0.0293401V89.8983H86.585V0.0838119C87.5563 0.0272422 88.5354 -0.0006959 89.5221 -2.67025e-06C90.0843 -2.67025e-06 90.6445 0.00837525 91.2005 0.0293401Z" fill="#48465F"/>
<path d="M130.225 20.3267H48.8198C50.0316 18.714 51.3381 17.1746 52.7325 15.7165H126.312C127.706 17.1746 129.013 18.714 130.225 20.3267Z" fill="#48465F"/>
<path d="M133 34H97V91H133V34Z" fill="#6B6B6B"/>
<path d="M109.168 43.8305H103.713V49.279H109.168V43.8305Z" fill="#E6E6E6"/>
<path d="M117.956 43.8305H112.501V49.279H117.956V43.8305Z" fill="#E6E6E6"/>
<path d="M126.744 43.8305H121.29V49.279H126.744V43.8305Z" fill="#E6E6E6"/>
<path d="M109.32 56.241H103.865V61.6895H109.32V56.241Z" fill="#E6E6E6"/>
<path d="M118.108 56.241H112.653V61.6895H118.108V56.241Z" fill="#E6E6E6"/>
<path d="M126.896 56.241H121.441V61.6895H126.896V56.241Z" fill="#E6E6E6"/>
<path d="M109.471 68.6515H104.016V74.1H109.471V68.6515Z" fill="#E6E6E6"/>
<path d="M118.259 68.6515H112.805V74.1H118.259V68.6515Z" fill="#E6E6E6"/>
<path d="M127.048 68.6515H121.593V74.1H127.048V68.6515Z" fill="#E6E6E6"/>
<path d="M109.622 81.0619H104.167V86.5104H109.622V81.0619Z" fill="#E6E6E6"/>
<path d="M118.411 81.0619H112.956V86.5104H118.411V81.0619Z" fill="#E6E6E6"/>
<path d="M127.199 81.0619H121.744V86.5104H127.199V81.0619Z" fill="#E6E6E6"/>
<path d="M109.622 81.0619H104.167V86.5104H109.622V81.0619Z" fill="#E6E6E6"/>
<path d="M118.411 81.0619H112.956V86.5104H118.411V81.0619Z" fill="#E6E6E6"/>
<path d="M127.199 81.0619H121.744V86.5104H127.199V81.0619Z" fill="#E6E6E6"/>
<path d="M50.7417 77.499C54.8938 77.499 58.2598 74.137 58.2598 69.9896C58.2598 65.8423 54.8938 62.4803 50.7417 62.4803C46.5896 62.4803 43.2236 65.8423 43.2236 69.9896C43.2236 74.137 46.5896 77.499 50.7417 77.499Z" fill="#6EC974"/>
<path d="M50.7624 69.9897H50.7831L51.155 91.28H50.3701L50.7624 69.9897Z" fill="#7E7056"/>
<path d="M52.1312 81.5864L51.958 81.2578L50.7153 81.9114L50.8884 82.2399L52.1312 81.5864Z" fill="#7E7056"/>
<path d="M72.8447 70.3236C79.1587 70.3236 84.2773 65.211 84.2773 58.9042C84.2773 52.5975 79.1587 47.4849 72.8447 47.4849C66.5306 47.4849 61.4121 52.5975 61.4121 58.9042C61.4121 65.211 66.5306 70.3236 72.8447 70.3236Z" fill="#6EC974"/>
<path d="M72.876 58.9042H72.9074L73.4727 91.28H72.2793L72.876 58.9042Z" fill="#7E7056"/>
<path d="M74.9577 76.5391L74.6943 76.0395L72.8045 77.0333L73.0679 77.5329L74.9577 76.5391Z" fill="#7E7056"/>
<path d="M49.2644 48.0001L51.1957 46.4572C49.6953 46.2919 49.0789 47.1092 48.8266 47.7561C47.6544 47.27 46.3784 47.9071 46.3784 47.9071L50.2426 49.3083C50.0477 48.7882 49.7083 48.3344 49.2644 48.0001Z" fill="white"/>
<path d="M69.6145 35.427L71.5458 33.8841C70.0454 33.7187 69.429 34.536 69.1767 35.1829C68.0045 34.6968 66.7285 35.3339 66.7285 35.3339L70.5927 36.7351C70.3978 36.2151 70.0584 35.7613 69.6145 35.427Z" fill="white"/>
<path d="M61.8523 47.3715L63.7836 45.8286C62.2832 45.6632 61.6668 46.4806 61.4145 47.1275C60.2423 46.6413 58.9663 47.2784 58.9663 47.2784L62.8305 48.6797C62.6356 48.1596 62.2962 47.7058 61.8523 47.3715Z" fill="white"/>
<path d="M146 88H33V92H146V88Z" fill="#48465F"/>
<path d="M16.5016 109.289C16.5016 109.289 -6.24471 98.83 1.74605 91.577C9.73682 84.324 16.5016 109.289 16.5016 109.289Z" fill="#6EC974"/>
<path d="M16.1058 111.73C16.1058 111.73 5.65075 77.4176 21.0462 79.0586C36.4417 80.6995 16.1058 111.73 16.1058 111.73Z" fill="#50A555"/>
<path d="M8.48291 108.687L8.92173 114.426L8.92869 114.526C8.92828 115.422 8.97361 116.318 9.06452 117.209C9.66004 123.064 12.2198 125.732 15.2114 125.732C18.203 125.732 20.6512 123.064 21.2468 117.209C21.3377 116.318 21.383 115.422 21.3826 114.526L21.3861 114.446L21.3878 114.426L21.8284 108.687H8.48291Z" fill="#ADA08A"/>
<path d="M21.3875 114.426L21.3857 114.446L21.3823 114.526C21.3827 115.422 21.3373 116.318 21.2464 117.209H9.06418C8.97327 116.318 8.92794 115.422 8.92835 114.526L8.92139 114.426H21.3875Z" fill="white"/>
<path d="M168.693 109.289C168.693 109.289 145.947 98.83 153.938 91.577C161.929 84.324 168.693 109.289 168.693 109.289Z" fill="#50A555"/>
<path d="M168.298 111.73C168.298 111.73 157.843 77.4176 173.238 79.0586C188.634 80.6995 168.298 111.73 168.298 111.73Z" fill="#6EC974"/>
<path d="M160.675 108.687L161.114 114.426L161.121 114.526C161.12 115.422 161.166 116.318 161.256 117.209C161.852 123.064 164.412 125.732 167.403 125.732C170.395 125.732 172.843 123.064 173.439 117.209C173.53 116.318 173.575 115.422 173.574 114.526L173.578 114.446L173.58 114.426L174.02 108.687H160.675Z" fill="#ADA08A"/>
<path d="M173.58 114.426L173.578 114.446L173.575 114.526C173.575 115.422 173.53 116.318 173.439 117.209H161.257C161.166 116.318 161.12 115.422 161.121 114.526L161.114 114.426H173.58Z" fill="white"/>
<path d="M138.492 130.068L137.001 130.243C135.823 130.952 134.441 131.219 132.909 131.165C132.696 131.159 132.487 131.097 132.305 130.985C132.123 130.873 131.973 130.716 131.87 130.529C131.781 130.364 131.731 130.182 131.724 129.995C131.717 129.808 131.753 129.622 131.83 129.452C131.907 129.281 132.022 129.131 132.167 129.012C132.311 128.893 132.481 128.81 132.663 128.767L133.796 128.504L136.531 125.832L138.18 122.851L140.576 123.125L141.075 126.913C141.138 127.67 140.904 128.423 140.422 129.012C139.941 129.601 139.249 129.979 138.492 130.068Z" fill="#FFB8B8"/>
<path d="M115.267 128.152L113.805 128.495C112.716 129.334 111.373 129.757 109.845 129.877C109.632 129.895 109.418 129.857 109.224 129.767C109.03 129.677 108.863 129.538 108.74 129.363C108.633 129.21 108.562 129.034 108.534 128.85C108.506 128.665 108.521 128.476 108.577 128.298C108.634 128.12 108.731 127.957 108.861 127.823C108.992 127.688 109.151 127.586 109.327 127.523L110.423 127.132L112.835 124.167L114.133 121.017H116.545L117.473 124.723C117.622 125.469 117.475 126.243 117.064 126.883C116.652 127.523 116.008 127.978 115.267 128.152Z" fill="#FFB8B8"/>
<path d="M114.068 121.227L116.796 121.646L121.096 99.9569L128.544 87.2789L137.565 124.16L140.922 124.789C140.546 104.02 142.383 77.872 138.195 74.7057L119.942 76.8012L111.97 98.1757L114.068 121.227Z" fill="#2F2E41"/>
<path d="M127.286 42.4345C130.762 42.4345 133.579 39.6199 133.579 36.1479C133.579 32.6759 130.762 29.8613 127.286 29.8613C123.81 29.8613 120.992 32.6759 120.992 36.1479C120.992 39.6199 123.81 42.4345 127.286 42.4345Z" fill="#FFB8B8"/>
<path d="M136.097 45.7874L128.544 47.0447L126.656 40.3389L132.111 38.6626L136.097 45.7874Z" fill="#FFB8B8"/>
<path d="M139.244 75.5439L119.104 77.4299C120.718 71.8219 122.197 66.2337 120.992 60.6656C119.46 55.6947 120.938 52.7386 124.978 50.3975L127.705 44.3205L135.048 43.4823C136.993 46.6051 137.788 50.3067 137.298 53.9516C136.251 61.8775 136.534 69.2323 139.244 75.5439Z" fill="white"/>
<path d="M127.144 28.7231C125.043 29.2025 122.652 29.8816 122.518 30.5129C120.358 31.0568 118.727 32.3595 118.394 34.3455C118.366 34.5172 118.376 34.6928 118.424 34.8601C118.471 35.0274 118.555 35.1823 118.669 35.3138C118.783 35.4453 118.924 35.5502 119.083 35.6213C119.242 35.6923 119.414 35.7277 119.588 35.7249C120.763 35.7097 122.527 35.5973 123.692 35.1114C127.076 37.2891 127.644 42.9533 126.166 46.8088L128.492 46.5959L130.897 39.5614L131.512 46.3194L136.818 45.6186L136.135 37.0009C135.925 34.9698 135.233 33.0181 134.116 31.3076C134 31.1359 133.874 30.9717 133.737 30.8162C132.929 29.9052 131.89 29.2296 130.729 28.861C129.568 28.4925 128.329 28.4449 127.144 28.7231Z" fill="#2F2E41"/>
<path d="M113.816 132.229C113.804 132.332 113.814 132.436 113.846 132.534C113.877 132.633 113.928 132.723 113.997 132.801C114.065 132.878 114.149 132.94 114.243 132.983C114.337 133.026 114.439 133.048 114.543 133.049L116.903 133.074C117.03 133.065 117.149 133.008 117.236 132.915C117.323 132.822 117.371 132.699 117.371 132.572C117.371 132.472 117.341 132.373 117.284 132.29C117.228 132.207 117.148 132.143 117.055 132.105L116.358 131.827L115.346 130.411H114.535C114.138 130.941 113.889 131.567 113.816 132.225L113.816 132.229H113.816Z" fill="#FFB8B8"/>
<path d="M108.167 132.229C108.178 132.332 108.168 132.436 108.137 132.534C108.105 132.633 108.054 132.723 107.985 132.801C107.917 132.878 107.833 132.94 107.739 132.983C107.645 133.026 107.543 133.048 107.44 133.049L105.08 133.074C104.952 133.065 104.833 133.008 104.747 132.915C104.66 132.822 104.611 132.699 104.611 132.572C104.611 132.472 104.641 132.373 104.698 132.29C104.754 132.207 104.834 132.143 104.928 132.105L105.624 131.827L106.637 130.411H107.447C107.845 130.941 108.093 131.567 108.166 132.225L108.167 132.229Z" fill="#FFB8B8"/>
<path d="M106.434 130.411H107.649L111.903 112.001L114.131 130.613H115.548L117.472 106.64L107.649 106.539L106.434 130.411Z" fill="#3F3D56"/>
<path d="M100.965 96.6261H102.586V92.7823L102.954 92.0459C103.028 91.8982 103.066 91.735 103.065 91.5698C103.064 91.4046 103.024 91.242 102.948 91.0953C102.872 90.9485 102.762 90.8218 102.628 90.7254C102.494 90.629 102.338 90.5656 102.175 90.5405C102.025 90.5175 101.872 90.5271 101.727 90.5686C101.581 90.6102 101.446 90.6826 101.332 90.7811C101.217 90.8795 101.125 91.0016 101.061 91.139C100.998 91.2764 100.965 91.4258 100.965 91.577V96.6261Z" fill="#FFB8B8"/>
<path d="M110.586 87.1178C112.656 87.1178 114.333 85.4421 114.333 83.3751C114.333 81.3081 112.656 79.6325 110.586 79.6325C108.517 79.6325 106.839 81.3081 106.839 83.3751C106.839 85.4421 108.517 87.1178 110.586 87.1178Z" fill="#FFB8B8"/>
<path d="M109.067 89.7477H112.915V85.2971H109.067V89.7477Z" fill="#FFB8B8"/>
<path d="M107.244 107.146C110.65 109.246 114.252 109.04 117.979 107.348L117.169 88.5339L112.915 88.3316L108.459 88.9385L106.231 90.7593L107.244 107.146Z" fill="#EC0000"/>
<path d="M103.193 100.47L107.649 97.0307L106.232 90.7593L103.599 95.6146L102.788 94.8054L100.358 96.6261L103.193 100.47Z" fill="#EC0000"/>
<path d="M122.973 88.857L121.556 89.6416L119.69 86.2796L119.01 85.814C118.874 85.7206 118.762 85.5963 118.682 85.4513C118.603 85.3062 118.559 85.1446 118.555 84.9794C118.55 84.8143 118.584 84.6503 118.655 84.501C118.726 84.3516 118.831 84.2211 118.961 84.1199C119.081 84.0274 119.219 83.9618 119.367 83.9276C119.514 83.8935 119.667 83.8916 119.816 83.922C119.964 83.9525 120.104 84.0147 120.226 84.1042C120.348 84.1938 120.449 84.3086 120.522 84.4408L121.107 85.4951L122.973 88.857Z" fill="#FFB8B8"/>
<path d="M115.042 94.5019L120.42 91.6504L123.245 90.1524L123.65 87.7247L121.827 85.904L119.599 87.3201L119.802 88.9386L117.169 88.5339L115.042 94.5019Z" fill="#EC0000"/>
<path d="M111.396 86.4097C113.857 86.4097 115.852 84.4171 115.852 81.959C115.852 79.501 113.857 77.5083 111.396 77.5083C108.935 77.5083 106.94 79.501 106.94 81.959C106.94 84.4171 108.935 86.4097 111.396 86.4097Z" fill="#2F2E41"/>
<path d="M113.827 78.9244C114.945 78.9244 115.852 78.0187 115.852 76.9014C115.852 75.7841 114.945 74.8784 113.827 74.8784C112.708 74.8784 111.801 75.7841 111.801 76.9014C111.801 78.0187 112.708 78.9244 113.827 78.9244Z" fill="#2F2E41"/>
<path d="M113.729 78.5927C114.13 78.8021 114.59 78.871 115.036 78.7883C115.481 78.7056 115.886 78.4762 116.185 78.1367C116.484 77.7972 116.661 77.3673 116.687 76.9156C116.713 76.4639 116.587 76.0166 116.328 75.6452C116.562 75.8211 116.755 76.0458 116.894 76.3036C117.033 76.5615 117.114 76.8463 117.132 77.1385C117.149 77.4307 117.103 77.7232 116.997 77.9959C116.89 78.2686 116.726 78.5149 116.515 78.7179C116.303 78.9208 116.051 79.0756 115.774 79.1714C115.497 79.2672 115.202 79.3018 114.911 79.2728C114.619 79.2439 114.337 79.152 114.085 79.0035C113.832 78.8551 113.615 78.6537 113.448 78.4131C113.536 78.4806 113.63 78.5407 113.729 78.5927Z" fill="#2F2E41"/>
<path d="M126.236 81.8305L126.376 86.6955C126.395 87.3661 126.159 88.0191 125.715 88.5229C125.272 89.0267 124.654 89.3439 123.985 89.4107C123.557 89.4534 123.125 89.3917 122.726 89.2307C122.327 89.0698 121.974 88.8144 121.695 88.4867C121.417 88.159 121.223 87.7686 121.129 87.3492C121.036 86.9299 121.045 86.494 121.157 86.0792L122.25 82.0401L125.397 64.8567L125.187 54.7982L131.901 54.5886L130.642 65.9045L126.236 81.8305Z" fill="#FFB8B8"/>
<path d="M132.32 55.6364C129.888 54.711 127.2 54.711 124.768 55.6364L125.187 47.2542C125.187 46.365 125.541 45.5122 126.17 44.8834C126.8 44.2546 127.654 43.9014 128.544 43.9014C129.434 43.9014 130.288 44.2546 130.917 44.8834C131.547 45.5122 131.901 46.365 131.901 47.2542L132.32 55.6364Z" fill="white"/>
</g>
<defs>
<clipPath id="clip0">
<rect width="179" height="136" fill="white"/>
</clipPath>
</defs>
</svg>
