<svg width="254" height="180" viewBox="0 0 254 180" fill="none" xmlns="http://www.w3.org/2000/svg">
<g clip-path="url(#clip0)">
<path opacity="0.1" d="M84.2674 179.439C96.6111 179.439 106.618 177.832 106.618 175.849C106.618 173.867 96.6111 172.26 84.2674 172.26C71.9238 172.26 61.9172 173.867 61.9172 175.849C61.9172 177.832 71.9238 179.439 84.2674 179.439Z" fill="#00B140"/>
<path opacity="0.1" d="M205.76 179.54C221.163 179.54 233.649 177.933 233.649 175.95C233.649 173.968 221.163 172.361 205.76 172.361C190.357 172.361 177.87 173.968 177.87 175.95C177.87 177.933 190.357 179.54 205.76 179.54Z" fill="#00B140"/>
<path opacity="0.1" d="M3.17461 77.5742H26.4538V109.303H4.87885C4.82151 109.629 4.76646 109.957 4.70682 110.285H26.4538V135.874C26.4148 135.863 26.3804 135.849 26.3437 135.835C25.7289 135.592 25.1188 135.335 24.5087 135.06L24.1187 134.883C23.5071 134.594 22.8954 134.288 22.2837 133.966C22.0704 133.853 21.8571 133.736 21.6461 133.617C18.2504 131.715 15.1656 129.305 12.4987 126.47C12.4207 126.394 12.3473 126.314 12.2693 126.24C11.8977 125.837 11.533 125.428 11.1798 125.011L10.7898 124.552C10.3724 124.041 9.96866 123.515 9.57643 122.983C9.51909 122.905 9.46404 122.827 9.4044 122.754C7.80921 120.542 6.4847 118.147 5.45917 115.62C5.42706 115.545 5.39953 115.462 5.36971 115.391C5.05471 114.581 4.77564 113.763 4.5325 112.937C4.42699 112.59 4.32606 112.249 4.2389 111.889C4.20679 111.783 4.17926 111.68 4.15403 111.577C2.85119 106.491 2.69751 101.209 2.69751 95.9631C2.69751 95.3507 2.69751 94.736 2.69751 94.1281C2.69751 92.0064 2.72274 89.871 2.75944 87.7378C2.75944 87.185 2.78238 86.6345 2.79385 86.0794C2.82596 84.671 2.87183 83.2627 2.93147 81.8543C2.94523 81.4621 2.96358 81.0722 2.98423 80.6822C2.98423 80.4575 2.9957 80.2327 3.01863 80.0079C3.07368 79.1913 3.11956 78.3816 3.17461 77.5742Z" fill="#00B140"/>
<path opacity="0.1" d="M26.4538 42.2461H13.6846C15.7603 38.9972 18.0282 35.8752 20.4763 32.8968C22.3732 30.5663 24.3757 28.2955 26.4538 26.1073V42.2461Z" fill="#00B140"/>
<path opacity="0.1" d="M26.4538 43.2278V76.5925H3.24805C3.24805 76.4961 3.2641 76.3975 3.27098 76.3012C3.29163 76.0374 3.31227 75.7736 3.33521 75.5121C3.36044 75.2048 3.38796 74.8951 3.41778 74.5946C3.4476 74.2941 3.47971 73.9272 3.51412 73.5946C3.54853 73.262 3.58064 72.9248 3.61963 72.5922C3.65863 72.2596 3.69303 71.927 3.73432 71.5967C3.77561 71.2664 3.81231 70.9315 3.85589 70.6012C3.89029 70.326 3.92699 70.053 3.96369 69.7778C4.01645 69.3901 4.0715 69.0002 4.13114 68.6148C4.13114 68.5575 4.14719 68.4979 4.15637 68.4428C4.57502 65.6219 5.14546 62.8256 5.8652 60.0661C6.6186 57.1714 7.58066 54.335 8.74384 51.5793C9.98009 48.6964 11.4275 45.9088 13.0744 43.2392L26.4538 43.2278Z" fill="#00B140"/>
<path opacity="0.1" d="M32.0112 77.5719V109.303H81.7326V77.5719H32.0112ZM32.0112 110.283V137.532C32.2957 137.592 32.5778 137.649 32.8576 137.698C33.2384 137.771 33.6168 137.838 34.0045 137.895C34.0779 137.906 34.1536 137.918 34.2339 137.925C34.3853 137.95 34.5412 137.971 34.6926 137.991C35.0757 138.044 35.4564 138.088 35.8395 138.122C36.0207 138.14 36.2042 138.156 36.3877 138.17L36.8304 138.205C37.0712 138.223 37.3098 138.237 37.546 138.244C37.6928 138.244 37.8396 138.257 37.991 138.262C38.1057 138.262 38.2204 138.262 38.3397 138.262C38.4589 138.262 38.6287 138.262 38.7732 138.262C38.9704 138.262 39.1677 138.262 39.3627 138.262H39.6264C39.8237 138.262 40.021 138.262 40.2159 138.244H40.2297C40.365 138.244 40.5027 138.244 40.6403 138.225C40.6785 138.227 40.7168 138.227 40.755 138.225C40.8696 138.225 40.9843 138.225 41.0944 138.209H41.1747L41.9431 138.15C42.1954 138.127 42.45 138.097 42.7069 138.069L43.2299 138.007C45.3575 137.709 47.4615 137.262 49.5262 136.668C54.1642 135.374 58.7012 133.564 63.3368 132.239C69.3304 130.53 75.9524 129.69 81.7441 131.78V110.283H32.0112ZM81.7326 42.2461V0.0022863C76.289 -0.0566911 70.8601 0.580005 65.5778 1.89691C52.9875 5.05998 41.6908 11.9205 32.0112 20.6826V42.2438H34.5068V43.2232H32.0112V76.5925H81.7326V43.2255H44.753V42.2461H81.7326ZM145.597 27.9767C142.482 27.8666 139.386 26.8803 136.585 25.3573C131.229 22.4442 126.951 17.9462 122.171 14.1501C112.239 6.24355 99.922 1.47257 87.2857 0.289003V42.2461H158.265L158.442 42.0603L145.597 27.9767ZM152.063 26.8298L158.919 34.3533V24.8572C156.623 25.1417 154.612 25.8183 152.072 26.8207L152.063 26.8298ZM158.919 144.299V110.283H144.31C144.271 110.138 144.232 109.992 144.187 109.845C144.23 109.992 144.267 110.138 144.308 110.283H87.2949V134.883C87.8362 135.285 88.3707 135.707 88.9005 136.136C89.4717 136.594 90.0359 137.078 90.6025 137.553L91.1736 138.026C91.4466 138.255 91.7218 138.484 91.9994 138.7C92.5499 139.147 93.1057 139.587 93.6669 140.021C93.9445 140.251 94.2289 140.457 94.511 140.673C98.99 144.097 103.715 147.187 108.647 149.919C109.753 150.53 110.868 151.127 111.994 151.71C112.744 152.093 113.499 152.474 114.256 152.843C115.393 153.398 116.54 153.933 117.696 154.449C128.354 159.233 139.625 162.516 151.185 164.204C153.752 164.583 156.33 164.881 158.917 165.099V144.297H159.146L158.919 144.299ZM87.2949 43.2255V76.5925H158.928V43.2255H87.2949ZM87.2949 77.5719V109.303H158.928V77.5719H87.2949ZM164.488 24.8159V35.4084L173.239 25.8068C170.34 25.3389 167.423 25.0048 164.488 24.8045V24.8159ZM164.488 77.5834V109.303H234.161V77.5719L164.488 77.5834ZM233.906 146.818L234.152 110.283H164.488V165.463C168.976 165.652 173.471 165.598 177.953 165.303H178.031C180.171 165.168 182.302 164.972 184.423 164.716H184.471C195.787 163.399 206.851 160.446 217.318 155.951L233.906 146.818ZM247.595 82.797C247.334 82.18 247.061 81.5676 246.783 80.962C246.265 79.8152 245.717 78.7004 245.152 77.5857H239.716V109.303H253.46C253.453 100.321 251.18 91.1462 247.602 82.7856L247.595 82.797ZM239.716 110.294V141.719C243.588 138.007 246.859 133.762 249.215 128.908C252.047 123.064 253.343 116.735 253.449 110.29L239.716 110.294ZM239.716 68.3373V76.5948H244.643C243.153 73.7522 241.51 70.9919 239.723 68.3258L239.716 68.3373ZM192.465 31.0411C192.103 30.9035 191.74 30.7636 191.376 30.6283C187.529 29.2078 183.599 28.0266 179.606 27.0913L166.216 41.7873L165.959 42.0603L166.131 42.2483H213.79C207.152 37.6793 199.996 33.9135 192.472 31.0297L192.465 31.0411ZM215.187 43.2369H165.466L164.488 44.1315V76.5925H173.053H173.067H234.17V60.8689C228.643 54.184 222.263 48.2523 215.194 43.2255L215.187 43.2369Z" fill="#00B140"/>
<path opacity="0.1" d="M26.4538 60.0569V76.5925H3.24805C3.24805 76.4961 3.2641 76.3975 3.27098 76.3012C3.29163 76.0374 3.31227 75.7736 3.33521 75.5121C3.36044 75.2048 3.38796 74.8951 3.41778 74.5946C3.4476 74.2941 3.47971 73.9272 3.51412 73.5946C3.54853 73.262 3.58064 72.9248 3.61963 72.5922C3.65863 72.2596 3.69303 71.927 3.73432 71.5967C3.77561 71.2664 3.81231 70.9315 3.85589 70.6012C3.89029 70.326 3.92699 70.053 3.96369 69.7778C4.01645 69.3901 4.0715 69.0002 4.13114 68.6149C4.13114 68.5575 4.14719 68.4979 4.15637 68.4428C4.57502 65.6219 5.14546 62.8256 5.8652 60.0661L26.4538 60.0569Z" fill="#00B140"/>
<path opacity="0.1" d="M3.17461 77.5742H26.4538V109.303H4.87885C4.82151 109.629 4.76646 109.957 4.70682 110.285H26.4538V135.874C26.4148 135.863 26.3804 135.849 26.3437 135.835C25.7289 135.592 25.1188 135.335 24.5087 135.06L24.1187 134.883C23.5071 134.594 22.8954 134.288 22.2837 133.966C22.0704 133.853 21.8571 133.736 21.6461 133.617C18.2504 131.715 15.1656 129.305 12.4987 126.47C12.4207 126.394 12.3473 126.314 12.2693 126.24C11.8977 125.837 11.533 125.428 11.1798 125.011L10.7898 124.552C10.3724 124.041 9.96866 123.515 9.57643 122.983C9.51909 122.905 9.46404 122.827 9.4044 122.754C7.80921 120.542 6.4847 118.147 5.45917 115.62C5.42706 115.545 5.39953 115.462 5.36971 115.391C5.05471 114.581 4.77564 113.763 4.5325 112.937C4.42699 112.59 4.32606 112.249 4.2389 111.889C4.20679 111.783 4.17926 111.68 4.15403 111.577C2.85119 106.491 2.69751 101.209 2.69751 95.9631C2.69751 95.3507 2.69751 94.736 2.69751 94.1281C2.69751 92.0064 2.72274 89.871 2.75944 87.7378C2.75944 87.185 2.78238 86.6345 2.79385 86.0794C2.82596 84.671 2.87183 83.2627 2.93147 81.8543C2.94523 81.4621 2.96358 81.0722 2.98423 80.6822C2.98423 80.4575 2.9957 80.2327 3.01863 80.0079C3.07368 79.1913 3.11956 78.3816 3.17461 77.5742Z" fill="#00B140"/>
<path opacity="0.1" d="M49.5147 48.0033V76.5925H32.0112V48.0033H34.5068V38.3238H44.7506V48.0033H49.5147Z" fill="#00B140"/>
<path opacity="0.1" d="M49.5149 77.5719H32.0137V109.301H49.5149V77.5719Z" fill="#00B140"/>
<path opacity="0.1" d="M32.0112 110.285H49.5147V136.663C47.45 137.256 45.346 137.703 43.2184 138L42.6955 138.065C42.4386 138.094 42.184 138.12 41.9316 138.145C41.6793 138.17 41.4178 138.189 41.1632 138.205H41.083C40.9729 138.205 40.8536 138.218 40.7458 138.221H40.6288C40.4912 138.221 40.3536 138.234 40.2159 138.239C40.021 138.25 39.826 138.253 39.6264 138.255C39.5416 138.255 39.4613 138.255 39.3764 138.255C39.1792 138.255 38.9842 138.255 38.7869 138.255H38.3534C38.2364 138.255 38.124 138.255 38.0025 138.255L37.5598 138.239C37.3304 138.239 37.0827 138.214 36.8441 138.198L36.4037 138.166L35.8555 138.115C35.4702 138.081 35.0871 138.037 34.7087 137.984L34.2499 137.92L34.0205 137.888C33.6375 137.828 33.259 137.764 32.8737 137.691C32.5915 137.643 32.3117 137.583 32.0273 137.526L32.0112 110.285Z" fill="#00B140"/>
<path opacity="0.1" d="M158.929 44.627H144.497V76.5902H158.929V44.627Z" fill="#00B140"/>
<path opacity="0.1" d="M158.931 77.5719V109.303H87.2949V95.6167H125.451V103.691H144.496V77.5719H158.931Z" fill="#00B140"/>
<path opacity="0.1" d="M159.158 144.306H158.928V165.122C156.344 164.903 153.767 164.605 151.198 164.229C139.633 162.536 128.358 159.246 117.696 154.453C114.618 153.068 111.602 151.556 108.65 149.916C103.717 147.184 98.9917 144.094 94.511 140.67C93.3856 139.808 92.2746 138.926 91.1782 138.023C90.419 137.397 89.6644 136.755 88.9005 136.131C88.3707 135.702 87.8362 135.28 87.2949 134.876V110.285H144.306C144.267 110.138 144.228 109.992 144.186 109.847C144.23 109.992 144.271 110.138 144.31 110.285H158.928V144.292C159.006 144.294 159.082 144.301 159.158 144.306Z" fill="#00B140"/>
<path opacity="0.1" d="M196.569 42.246H187.165V39.3238H191.38V30.6191C191.746 30.7521 192.11 30.889 192.472 31.0297V39.3238H196.569V42.246Z" fill="#00B140"/>
<path opacity="0.1" d="M219.226 76.5925H173.058C173.058 76.5925 173.058 76.5925 173.074 76.6039L173.053 76.5925H164.488V44.6292H166.915V68.2547H178.005V54.2629H187.166V43.2278H196.571V54.2721H205.732V68.2639H219.226V76.5925Z" fill="#00B140"/>
<path opacity="0.1" d="M164.488 77.5719V109.303H219.226V77.5719H164.488ZM234.085 146.655L234.161 121.538H219.226V110.299H164.488V165.463C168.976 165.652 173.471 165.598 177.953 165.303H178.031C180.171 165.168 182.302 164.972 184.423 164.716H184.471C195.786 163.399 206.851 160.446 217.318 155.951" fill="#00B140"/>
<path opacity="0.1" d="M240.689 110.285H253.458C253.346 116.728 252.052 123.057 249.222 128.901C246.866 133.757 243.593 138.003 239.726 141.712V121.527H240.689V110.285Z" fill="#00B140"/>
<path opacity="0.1" d="M253.465 109.303H240.689V82.7856H247.602C251.181 91.1462 253.454 100.321 253.465 109.303Z" fill="#00B140"/>
<path opacity="0.1" d="M158.931 53.5129H151.199V63.5342H158.931V53.5129Z" fill="#00B140"/>
<path opacity="0.1" d="M158.931 74.285H151.199V76.5925H158.931V74.285Z" fill="#00B140"/>
<path opacity="0.1" d="M158.931 77.5719H151.199V84.304H158.931V77.5719Z" fill="#00B140"/>
<path opacity="0.1" d="M158.931 95.0571H151.199V105.078H158.931V95.0571Z" fill="#00B140"/>
<path opacity="0.1" d="M158.931 115.829H151.199V125.85H158.931V115.829Z" fill="#00B140"/>
<path opacity="0.1" d="M158.929 144.292C159.007 144.292 159.082 144.292 159.158 144.306H158.929V146.634H151.199V136.601H158.929V144.292Z" fill="#00B140"/>
<path opacity="0.1" d="M158.929 157.369V165.11C156.344 164.891 153.768 164.594 151.199 164.218V157.369H158.929Z" fill="#00B140"/>
<path opacity="0.1" d="M120.433 108.567H87.2949V109.303H120.433V108.567Z" fill="#00B140"/>
<path opacity="0.1" d="M120.433 110.283H87.2949V113.104H120.433V110.283Z" fill="#00B140"/>
<path opacity="0.1" d="M120.433 122.353H87.2949V126.89H120.433V122.353Z" fill="#00B140"/>
<path opacity="0.1" d="M120.43 136.138V140.675H94.5112C93.3858 139.815 92.2741 138.933 91.1761 138.028C90.4169 137.402 89.6645 136.759 88.8984 136.138H120.43Z" fill="#00B140"/>
<path opacity="0.1" d="M120.431 149.921V154.453H117.694C114.619 153.066 111.604 151.553 108.65 149.914L120.431 149.921Z" fill="#00B140"/>
<path opacity="0.1" d="M184.478 80.6478H177.955V87.1712H184.478V80.6478Z" fill="#00B140"/>
<path opacity="0.1" d="M43.2346 50.2535H36.7112V56.7769H43.2346V50.2535Z" fill="#00B140"/>
<path opacity="0.1" d="M43.2346 65.4059H36.7112V71.9293H43.2346V65.4059Z" fill="#00B140"/>
<path opacity="0.1" d="M43.2346 80.5583H36.7112V87.0817H43.2346V80.5583Z" fill="#00B140"/>
<path opacity="0.1" d="M43.2346 95.7085H36.7112V102.232H43.2346V95.7085Z" fill="#00B140"/>
<path opacity="0.1" d="M43.2346 110.861H36.7112V117.384H43.2346V110.861Z" fill="#00B140"/>
<path opacity="0.1" d="M43.2346 126.013H36.7112V132.537H43.2346V126.013Z" fill="#00B140"/>
<path opacity="0.1" d="M209.382 80.6478H202.858V87.1712H209.382V80.6478Z" fill="#00B140"/>
<path opacity="0.1" d="M184.478 96.7384H177.955V103.262H184.478V96.7384Z" fill="#00B140"/>
<path opacity="0.1" d="M209.382 96.7384H202.858V103.262H209.382V96.7384Z" fill="#00B140"/>
<path opacity="0.1" d="M184.478 112.827H177.955V119.35H184.478V112.827Z" fill="#00B140"/>
<path opacity="0.1" d="M209.382 112.827H202.858V119.35H209.382V112.827Z" fill="#00B140"/>
<path opacity="0.1" d="M184.478 128.917H177.955V135.441H184.478V128.917Z" fill="#00B140"/>
<path opacity="0.1" d="M209.382 128.917H202.858V135.441H209.382V128.917Z" fill="#00B140"/>
<path opacity="0.1" d="M184.478 145.008H177.955V151.531H184.478V145.008Z" fill="#00B140"/>
<path opacity="0.1" d="M209.382 145.008H202.858V151.531H209.382V145.008Z" fill="#00B140"/>
<path opacity="0.1" d="M177.955 165.303V161.096H184.476V164.704L177.955 165.303Z" fill="#00B140"/>
<path opacity="0.1" d="M4.12866 68.4382V72.1701H26.4536V68.4382H4.12866ZM6.35359 71.9362H4.53236V68.6676H6.36735L6.35359 71.9362ZM8.57622 71.9362H6.74123V68.6676H8.57622V71.9362ZM10.7943 71.9362H8.95927V68.6676H10.7943V71.9362ZM13.0169 71.9362H11.1842V68.6676H13.0192L13.0169 71.9362ZM15.2372 71.9362H13.4022V68.6676H15.2372V71.9362ZM17.4599 71.9362H15.6249V68.6676H17.4599V71.9362ZM19.6825 71.9362H17.8475V68.6676H19.6825V71.9362ZM21.9028 71.9362H20.0678V68.6676H21.9028V71.9362ZM24.1232 71.9362H22.2882V68.6676H24.1232V71.9362ZM26.3435 71.9362H24.5085V68.6676H26.3435V71.9362Z" fill="#00B140"/>
<path opacity="0.1" d="M4.12866 79.2968V83.0287H26.4536V79.2968H4.12866ZM6.35359 82.7924H4.53236V79.533H6.36735L6.35359 82.7924ZM8.57622 82.7924H6.74123V79.533H8.57622V82.7924ZM10.7943 82.7924H8.95927V79.533H10.7943V82.7924ZM13.0169 82.7924H11.1842V79.533H13.0192L13.0169 82.7924ZM15.2372 82.7924H13.4022V79.533H15.2372V82.7924ZM17.4599 82.7924H15.6249V79.533H17.4599V82.7924ZM19.6825 82.7924H17.8475V79.533H19.6825V82.7924ZM21.9028 82.7924H20.0678V79.533H21.9028V82.7924ZM24.1232 82.7924H22.2882V79.533H24.1232V82.7924ZM26.3435 82.7924H24.5085V79.533H26.3435V82.7924Z" fill="#00B140"/>
<path opacity="0.1" d="M4.12866 90.1599V93.8987H26.4536V90.1599H4.12866ZM6.35359 93.6556H4.53236V90.3939H6.36735L6.35359 93.6556ZM8.57622 93.6556H6.74123V90.3939H8.57622V93.6556ZM10.7943 93.6556H8.95927V90.3939H10.7943V93.6556ZM13.0169 93.6556H11.1842V90.3939H13.0192L13.0169 93.6556ZM15.2372 93.6556H13.4022V90.3939H15.2372V93.6556ZM17.4599 93.6556H15.6249V90.3939H17.4599V93.6556ZM19.6825 93.6556H17.8475V90.3939H19.6825V93.6556ZM21.9028 93.6556H20.0678V90.3939H21.9028V93.6556ZM24.1232 93.6556H22.2882V90.3939H24.1232V93.6556ZM26.3435 93.6556H24.5085V90.3939H26.3435V93.6556Z" fill="#00B140"/>
<path opacity="0.1" d="M4.12866 101.023V104.75H26.4536V101.023H4.12866ZM6.35359 104.519H4.53236V101.255H6.36735L6.35359 104.519ZM8.57622 104.519H6.74123V101.255H8.57622V104.519ZM10.7943 104.519H8.95927V101.255H10.7943V104.519ZM13.0169 104.519H11.1842V101.255H13.0192L13.0169 104.519ZM15.2372 104.519H13.4022V101.255H15.2372V104.519ZM17.4599 104.519H15.6249V101.255H17.4599V104.519ZM19.6825 104.519H17.8475V101.255H19.6825V104.519ZM21.9028 104.519H20.0678V101.255H21.9028V104.519ZM24.1232 104.519H22.2882V101.255H24.1232V104.519ZM26.3435 104.519H24.5085V101.255H26.3435V104.519Z" fill="#00B140"/>
<path opacity="0.1" d="M4.2251 111.884C4.31455 112.235 4.41548 112.586 4.52099 112.932V112.118H6.35598V115.38H5.37426C5.40408 115.455 5.4339 115.538 5.46371 115.609H26.4537V111.884H4.2251ZM8.5832 115.38H6.74821V112.118H8.5832V115.38ZM10.8012 115.38H8.96625V112.118H10.8012V115.38ZM13.0239 115.38H11.1843V112.118H13.0193L13.0239 115.38ZM15.2442 115.38H13.4092V112.118H15.2442V115.38ZM17.4668 115.38H15.6319V112.118H17.4668V115.38ZM19.6895 115.38H17.8545V112.118H19.6895V115.38ZM21.9098 115.38H20.0748V112.118H21.9098V115.38ZM24.1302 115.38H22.2952V112.118H24.1302V115.38ZM26.3505 115.38H24.5155V112.118H26.3505V115.38Z" fill="#00B140"/>
<path opacity="0.1" d="M9.40894 122.747C9.46628 122.82 9.52133 122.903 9.58097 122.976H10.7944V124.543C10.9251 124.699 11.0535 124.855 11.1866 125.002V122.967H13.0216V126.24H12.2784C12.3518 126.316 12.4229 126.396 12.5078 126.47H26.4606V122.747H9.40894ZM15.2373 126.24H13.4023V122.981H15.2373V126.24ZM17.46 126.24H15.625V122.981H17.46V126.24ZM19.6826 126.24H17.8476V122.981H19.6826V126.24ZM21.9029 126.24H20.0679V122.981H21.9029V126.24ZM24.1233 126.24H22.2883V122.981H24.1233V126.24ZM26.3436 126.24H24.5086V122.981H26.3436V126.24Z" fill="#00B140"/>
<path opacity="0.1" d="M21.6553 133.608C21.864 133.727 22.0773 133.837 22.2929 133.957V133.842H24.1279V134.874L24.5179 135.055V133.842H26.3528V135.826C26.388 135.843 26.4249 135.857 26.4629 135.867V133.608H21.6553Z" fill="#00B140"/>
<path opacity="0.1" d="M173.058 76.5925H173.072H173.058ZM158.928 144.29H159.158H158.928ZM144.187 109.845C144.23 109.992 144.267 110.138 144.308 110.283C144.271 110.138 144.232 109.992 144.187 109.845ZM173.058 76.5856H173.072H173.058ZM34.5161 42.2392V43.2186H44.7622V42.2392H34.5161ZM158.928 144.29H159.158H158.928ZM144.187 109.845C144.23 109.992 144.267 110.138 144.308 110.283C144.271 110.138 144.232 109.992 144.187 109.845ZM173.058 76.5856H173.072H173.058ZM158.928 144.283H159.158H158.928ZM144.187 109.845C144.23 109.992 144.267 110.138 144.308 110.283C144.271 110.138 144.232 109.992 144.187 109.845Z" fill="#00B140"/>
<path d="M105.879 87.0863C105.879 87.0863 104.975 86.9602 104.975 85.6436C104.975 84.327 104.328 81.8681 104.328 81.8681C104.328 81.8566 103.769 77.5857 102.996 76.9067C102.223 76.2278 101.23 72.2413 101.23 72.2413C101.23 72.2413 101.06 70.0783 100.713 69.6126C100.367 69.147 99.8992 68.007 99.2088 66.3808C98.5184 64.7545 95.6397 63.6283 95.6397 63.6283C95.6397 63.6283 90.4353 60.6097 88.9604 59.6257C88.8263 59.5448 88.701 59.4503 88.5865 59.3436C88.3296 59.0064 87.2103 58.9995 87.2103 58.9995C87.0933 58.2609 86.9809 57.4122 86.9442 56.6438C86.9442 56.5613 86.9442 56.4787 86.9327 56.3961C88.5773 55.424 89.816 53.8912 90.4215 52.0793C90.449 51.9921 90.472 51.9004 90.4972 51.8132C90.5957 51.7808 90.6864 51.7281 90.7634 51.6586C90.8404 51.5891 90.9021 51.5042 90.9445 51.4095C91.0775 51.1136 91.0798 50.7673 91.2449 50.492C91.4376 50.1663 91.8046 49.992 92.0936 49.7466C92.823 49.1273 93.0111 48.0836 92.9767 47.134C92.9538 46.3656 92.8299 45.5903 92.8781 44.8265L92.8918 44.6338C92.9056 44.5191 92.9217 44.4045 92.9423 44.2944C93.0547 43.7255 93.3001 43.1888 93.4378 42.6245C93.5754 42.0603 93.5891 41.4249 93.268 40.9386C92.7978 40.2253 91.8184 40.0831 90.9582 40.0097C89.9834 39.9271 89.1118 40.0349 88.4879 39.2252C88.1959 38.802 87.8674 38.4052 87.5062 38.0393C87.3777 37.9201 86.1299 37.1585 86.1299 37.1081C84.9121 36.544 83.5316 36.4382 82.242 36.8099C81.5952 36.998 80.9851 37.3053 80.3291 37.459C78.9138 37.7939 77.2853 37.4315 76.0833 38.2412C75.4136 38.6999 75.0122 39.4293 74.636 40.1404C74.3302 40.7261 74.0197 41.311 73.7047 41.8951C73.1978 42.8562 72.6817 43.8333 72.4684 44.8976C72.4236 45.1292 72.396 45.3638 72.3858 45.5995V45.611C72.3858 45.6958 72.3858 45.7807 72.3858 45.8656V45.9734C72.3858 46.0537 72.3858 46.1316 72.3996 46.2027C72.4134 46.2739 72.4111 46.2968 72.4179 46.345C72.4248 46.3931 72.4363 46.5009 72.4501 46.5743C72.4638 46.6477 72.4913 46.7762 72.5189 46.8771C72.5303 46.9207 72.5464 46.962 72.5602 47.0033C72.5831 47.0812 72.6106 47.1569 72.6404 47.2326C72.6565 47.2716 72.6726 47.3129 72.6909 47.3519C72.7253 47.4322 72.7666 47.5102 72.8079 47.5813C72.8262 47.6134 72.84 47.6432 72.8583 47.673C72.9223 47.7797 72.9928 47.8823 73.0694 47.9804C73.5602 48.5928 74.2828 48.9828 74.8172 49.5562C74.8172 49.5791 74.8172 49.6021 74.8172 49.6227C74.8172 49.6869 74.8172 49.7489 74.8172 49.8131C74.8456 51.092 75.1859 52.3446 75.8088 53.4619C76.4316 54.5792 77.318 55.5274 78.3908 56.2241C78.3908 56.3113 78.4023 56.4007 78.4069 56.4879C78.4516 57.1687 78.4432 57.852 78.3817 58.5316C78.2883 58.4216 78.1713 58.334 78.0395 58.2752C77.9077 58.2164 77.7644 58.188 77.6201 58.1921C77.5216 58.1873 77.4228 58.1958 77.3265 58.2173L77.3059 58.2013V58.2219C76.8013 58.3458 76.1797 58.8711 75.5856 60.3643C75.5856 60.3643 73.7781 62.4011 72.4019 62.3163C71.0257 62.2314 67.5415 64.4357 67.5415 64.4357C67.5415 64.4357 64.1421 66.6422 63.4127 68.8901C63.005 70.1648 62.5162 71.412 61.9493 72.6243L57.7472 81.2832L56.9719 88.1529C56.9719 88.1529 57.4009 91.2082 57.316 91.6738C57.2311 92.1394 59.0799 96.3393 59.0799 96.3393C59.0799 96.3393 65.1881 107.072 67.6837 107.622L67.8626 107.496C67.9694 107.552 68.0826 107.594 68.1998 107.622L68.7136 107.26C68.7444 107.664 68.7313 108.07 68.6746 108.471C68.3305 109.531 68.803 116.446 69.404 117.802C70.0049 119.157 69.7916 136.932 69.7916 136.932L69.7068 138.5C69.7068 138.5 69.7068 138.551 69.7274 138.638L69.7068 139.01L69.7687 139.042C69.833 139.539 69.8121 140.044 69.7068 140.535C69.4911 141.223 69.404 143.168 69.404 143.168C69.404 143.168 67.686 154.151 68.5002 156.357C69.3145 158.564 70.0072 160.981 70.0072 160.981C70.0072 160.981 70.8674 163.734 70.0485 164.204C69.2297 164.674 66.9015 165.463 67.3809 166.61C67.8167 167.67 69.4705 170.51 69.7159 170.925L69.6953 171.143L69.3581 174.797C69.4127 175.279 69.5435 175.75 69.7457 176.191C70.115 176.987 70.833 177.813 72.1978 177.723C72.4271 177.707 72.6932 177.68 72.9501 177.645C75.448 177.31 78.5239 176.196 78.5239 176.196C78.3642 176.094 78.2178 175.973 78.0881 175.836C77.9653 175.717 77.868 175.574 77.8022 175.416C77.7363 175.259 77.7033 175.089 77.705 174.918C77.7417 174.253 76.4962 171.083 76.1866 170.303C76.1384 170.191 76.1132 170.127 76.1132 170.127C76.1132 170.127 78.9528 167.158 78.4803 164.527C78.4803 164.527 75.3379 162.693 76.3724 161.686C77.4068 160.679 79.2556 157.786 79.2556 157.786C79.2556 157.786 79.3404 146.971 79.2556 145.356C79.1671 144.236 79.2202 143.108 79.4138 142.001C79.4483 141.833 79.4895 141.67 79.5331 141.51C80.9638 141.723 82.408 141.833 83.8545 141.838C84.3821 141.838 84.9188 141.838 85.4601 141.806C85.4601 141.959 85.467 142.124 85.4808 142.301C85.6001 144.98 85.8225 149.678 86.0038 151.423C86.2607 153.926 87.6805 160.669 87.6805 160.669C87.6805 160.669 84.9716 162.408 88.153 166.693C88.153 166.693 88.153 168.246 87.942 168.47C87.7167 169.205 87.5352 169.953 87.3983 170.709C87.2653 171.517 87.2103 172.333 87.4259 172.757C87.942 173.771 91.0385 173.689 91.0385 173.689L91.1142 173.675C91.6988 173.614 92.2896 173.671 92.8522 173.84C93.4149 174.01 93.9383 174.29 94.392 174.664C95.5686 175.609 100.035 175.193 102.452 174.893C103.399 174.774 104.033 174.664 104.033 174.664C104.063 174.556 104.074 174.444 104.065 174.333C104.039 173.739 103.574 172.436 100.418 171.273C100.418 171.273 97.4495 169.278 97.4908 167.539H97.4289H97.0848C97.3348 167.525 97.4954 167.539 97.4954 167.539C97.4954 167.539 96.3325 163.296 96.8073 162.952C97.2821 162.608 95.8599 157.905 95.8599 157.905C95.8599 157.905 95.0457 150.015 95.0021 149.462C95.0039 148.988 95.0758 148.516 95.2154 148.063L95.0021 143.737C95.0021 143.737 94.9608 142.299 95.0021 141.831C94.9951 141.425 94.9622 141.02 94.9035 140.618C94.8828 140.457 94.8622 140.29 94.8392 140.124C95.9517 139.842 96.6742 139.581 96.6742 139.581L96.5458 124.522C97.4908 122.687 97.6651 118.662 97.6605 115.806C97.6605 113.971 97.5779 112.613 97.5779 112.613L98.8693 110.505C98.8693 110.505 99.1675 107.982 98.695 107.429C98.4863 107.179 98.5803 106.92 98.7523 106.707C98.8417 106.636 98.936 106.572 99.0345 106.514C99.0345 106.514 99.0207 106.494 99.0047 106.464C99.0948 106.388 99.1907 106.32 99.2914 106.26C99.2914 106.26 98.8326 105.549 99.2432 105.248C99.6286 105.51 99.9726 105.707 100.234 105.867C100.216 106.035 100.197 106.131 100.197 106.131L100.307 105.902C100.56 106.044 100.713 106.131 100.713 106.131C100.713 106.131 102.737 102.101 102.693 101.507C102.649 100.913 104.069 98.4105 104.069 98.4105C104.069 98.4105 104.241 97.0962 105.017 96.5457C105.792 95.9952 105.618 92.0064 105.618 92.0064C105.618 92.0064 105.833 89.9283 106.349 89.0796C106.865 88.2309 105.879 87.0863 105.879 87.0863ZM67.1699 85.3179L67.2089 86.2789C66.9795 85.9096 66.8144 85.6436 66.8144 85.6436L67.1699 85.3179Z" fill="url(#paint0_linear)"/>
<path d="M100.823 104.39L100.328 106.501C100.328 106.501 96.3598 104.475 95.6442 101.902C94.9285 99.328 96.8415 98.3509 96.8415 98.3509L100.539 99.9175L100.823 104.39Z" fill="white"/>
<path opacity="0.1" d="M100.823 104.39L100.328 106.501C100.328 106.501 96.3598 104.475 95.6442 101.902C94.9285 99.328 96.8415 98.3509 96.8415 98.3509L100.539 99.9175L100.823 104.39Z" fill="black"/>
<path d="M78.5534 176.21C78.5534 176.21 74.8834 177.558 72.3603 177.728C71.0207 177.817 70.3166 176.996 69.9541 176.205C69.7562 175.765 69.6285 175.297 69.5757 174.817L69.9037 171.182L70.078 169.246L75.4385 167.853L76.1977 170.175L76.2688 170.351C76.5739 171.127 77.7964 174.28 77.7597 174.939C77.7582 175.107 77.7908 175.274 77.8554 175.43C77.92 175.586 78.0154 175.727 78.1359 175.845C78.259 175.984 78.3993 176.106 78.5534 176.21Z" fill="white"/>
<path d="M103.622 174.361C103.631 174.471 103.62 174.582 103.59 174.689C103.59 174.689 95.7404 175.998 94.1348 174.689C93.6821 174.306 93.1544 174.022 92.5856 173.856C92.0168 173.689 91.4194 173.643 90.8318 173.721C90.8318 173.721 87.7949 173.803 87.288 172.803C87.077 172.383 87.132 171.569 87.2628 170.766C87.3961 170.014 87.5738 169.27 87.7949 168.539L87.9165 168.443L88.639 167.863L97.0983 167.613H97.1625C97.1213 169.342 100.034 171.326 100.034 171.326C103.129 172.473 103.585 173.769 103.622 174.361Z" fill="white"/>
<path opacity="0.1" d="M103.622 174.361C103.63 174.471 103.618 174.582 103.588 174.689C103.588 174.689 95.7407 175.998 94.1351 174.689C93.6826 174.306 93.1553 174.023 92.5869 173.856C92.0186 173.689 91.4216 173.643 90.8344 173.721C90.8344 173.721 87.7952 173.803 87.2905 172.803C87.0795 172.381 87.1323 171.569 87.263 170.766C88.4328 170.883 90.2793 171.175 91.0041 171.87C92.1005 172.927 93.9584 173.982 95.0984 174.065C95.9907 174.122 101.328 174.292 103.622 174.361Z" fill="black"/>
<path opacity="0.1" d="M78.554 176.209C78.554 176.209 74.884 177.558 72.3609 177.728C71.0213 177.817 70.3171 176.996 69.957 176.203C70.8906 176.517 72.1865 176.847 72.8678 176.544C73.6752 176.187 76.5378 175.955 78.1434 175.856C78.2656 175.99 78.4034 176.109 78.554 176.209Z" fill="black"/>
<path d="M83.999 67.5207C80.9712 66.344 77.0765 62.4562 78.049 60.6395C78.265 60.1811 78.3934 59.6863 78.4275 59.1807C78.49 58.4943 78.4992 57.8041 78.455 57.1163C78.3868 55.9899 78.2512 54.8686 78.049 53.7583C78.049 53.7583 87.5015 53.9716 86.951 55.3639C86.7905 55.7722 86.7652 56.481 86.8088 57.2746C86.8524 58.0682 86.9671 58.9651 87.0864 59.7243C87.2515 60.7657 87.4167 61.5593 87.4167 61.5593C87.4167 61.5593 86.8386 62.369 86.4992 62.4126C86.1597 62.4562 88.3433 69.1974 83.999 67.5207Z" fill="#CF6F80"/>
<path opacity="0.1" d="M76.2621 170.351L76.191 170.429C73.3651 167.012 69.9474 171.271 69.9474 171.271L69.897 171.182L70.0713 169.246L75.4317 167.853L76.191 170.175L76.2621 170.351Z" fill="black"/>
<path opacity="0.1" d="M97.165 167.853C97.165 167.853 95.1006 167.81 93.9996 168.782C92.8986 169.755 87.5771 168.993 87.8065 168.782C87.8745 168.678 87.9155 168.558 87.9258 168.434L88.6483 167.853L97.1076 167.603C97.1397 167.757 97.165 167.853 97.165 167.853Z" fill="black"/>
<path d="M79.7786 141.014C79.6248 141.395 79.5081 141.789 79.4299 142.191C79.2387 143.293 79.1855 144.415 79.2717 145.531C79.3565 147.136 79.2717 157.896 79.2717 157.896C79.2717 157.896 77.4573 160.766 76.4458 161.777C75.4343 162.789 78.5102 164.605 78.5102 164.605C78.9689 167.22 76.1889 170.175 76.1889 170.175C73.363 166.757 69.9453 171.019 69.9453 171.019C69.9453 171.019 68.0874 167.808 67.6241 166.661C67.1607 165.514 69.4384 164.72 70.2389 164.255C71.0395 163.789 70.1999 161.043 70.1999 161.043C70.1999 161.043 69.5233 158.637 68.7205 156.442C67.9177 154.247 69.6059 143.32 69.6059 143.32C69.6059 143.32 69.693 141.379 69.9018 140.702C70.0071 140.214 70.028 139.711 69.9637 139.216C69.9499 139.049 69.9339 138.909 69.9224 138.815C69.9109 138.721 69.9018 138.677 69.9018 138.677L69.9339 138.622L71.0807 136.484C71.0807 136.484 80.3291 139.668 79.7786 141.014Z" fill="#EC0000"/>
<path d="M97.1651 167.601C97.1651 167.601 95.1008 167.558 93.9998 168.519C92.8988 169.48 87.5773 168.73 87.8067 168.519C88.0361 168.308 88.0177 166.746 88.0177 166.746C84.896 162.484 87.559 160.754 87.559 160.754C87.559 160.754 86.1644 154.045 85.9121 151.556C85.7355 149.818 85.5176 145.145 85.4006 142.478C85.3501 141.331 85.3203 140.542 85.3203 140.542L87.8709 140.028L88.1989 139.962L94.3507 138.728C94.3507 138.728 94.5205 139.874 94.6352 140.813C94.6923 141.213 94.7245 141.617 94.7315 142.021C94.6902 142.48 94.7315 143.916 94.7315 143.916L94.9402 148.221C94.8039 148.673 94.7336 149.142 94.7315 149.614C94.7728 150.162 95.5733 158.011 95.5733 158.011C95.5733 158.011 96.9656 162.695 96.4908 163.032C96.016 163.369 97.1651 167.601 97.1651 167.601Z" fill="#EC0000"/>
<path opacity="0.1" d="M86.9508 55.3639C86.7903 55.7722 86.765 56.481 86.8086 57.2746C85.5425 58.037 84.087 58.4269 82.6093 58.3993C81.1316 58.3717 79.6916 57.9278 78.4548 57.1186C78.3867 55.9914 78.2512 54.8693 78.0488 53.7583C78.0488 53.7583 87.5013 53.967 86.9508 55.3639Z" fill="black"/>
<path d="M90.605 50.2948C90.6069 51.1213 90.4768 51.9429 90.2197 52.7284C89.645 54.4886 88.4666 55.9889 86.8928 56.9642C85.3189 57.9395 83.4509 58.3271 81.619 58.0584C79.787 57.7896 78.109 56.8819 76.8816 55.4957C75.6541 54.1094 74.9563 52.3339 74.9113 50.4829C74.9113 50.4186 74.9113 50.359 74.9113 50.2948C74.8935 49.2529 75.0833 48.2179 75.4697 47.2501C75.8561 46.2823 76.4314 45.4012 77.1619 44.6581C77.8924 43.9149 78.7636 43.3247 79.7246 42.9218C80.6856 42.5189 81.7173 42.3114 82.7593 42.3114C83.8014 42.3114 84.833 42.5189 85.794 42.9218C86.7551 43.3247 87.6262 43.9149 88.3568 44.6581C89.0873 45.4012 89.6625 46.2823 90.0489 47.2501C90.4353 48.2179 90.6252 49.2529 90.6073 50.2948H90.605Z" fill="#CF6F80"/>
<path opacity="0.1" d="M83.999 67.5208C80.9712 66.3441 77.0765 62.4562 78.049 60.6395C78.265 60.1811 78.3934 59.6863 78.4275 59.1807L82.5723 62.5869L85.1367 64.6903L87.0864 59.7266C87.2515 60.768 87.4167 61.5616 87.4167 61.5616C87.4167 61.5616 86.8386 62.3713 86.4992 62.4149C86.1597 62.4585 88.3433 69.1975 83.999 67.5208Z" fill="black"/>
<path d="M94.7175 82.5745L91.2562 140.721L86.7421 141.017L75.0532 107.301L76.9708 67.273L77.3745 58.816L82.5721 63.0847L85.1388 65.188L87.1458 60.0799L90.8777 63.3324L94.7175 82.5745Z" fill="#EC0000"/>
<path opacity="0.1" d="M79.7784 141.014C79.6246 141.394 79.5078 141.789 79.4297 142.191C76.145 141.684 72.9549 140.687 69.9657 139.234L69.9038 139.202L69.9245 138.833L69.9359 138.64L71.0828 136.503C71.0828 136.503 80.3289 139.668 79.7784 141.014Z" fill="black"/>
<path opacity="0.1" d="M87.9238 142.2C87.0841 142.343 86.2372 142.44 85.3869 142.489C85.3365 141.342 85.3066 140.553 85.3066 140.553L87.8572 140.04L87.9238 142.2Z" fill="black"/>
<path opacity="0.1" d="M94.6213 140.824C92.9904 141.248 90.4719 141.725 88.2172 141.427L88.1851 139.973L94.3369 138.739C94.3369 138.739 94.5066 139.874 94.6213 140.824Z" fill="black"/>
<path opacity="0.1" d="M88.1759 141.693C78.7716 143.299 70.1586 138.695 70.1586 138.695L70.2412 137.136C70.2412 137.136 70.4545 119.453 69.8627 118.098C69.2709 116.742 68.8099 109.868 69.1448 108.813C69.4797 107.757 67.9222 91.9353 67.9222 91.9353L67.6699 85.5128L58.4353 81.7717L62.564 73.1656C63.1217 71.959 63.6013 70.7178 63.9999 69.4498C64.7179 67.2157 68.0507 65.0206 68.0507 65.0206C68.0507 65.0206 71.4683 62.8278 72.8193 62.9103C74.1703 62.9929 75.9411 60.9698 75.9411 60.9698C77.2485 57.637 78.4321 59.1463 78.4321 59.1463C78.4321 59.3046 78.4321 59.1463 78.3679 59.6395C77.9091 63.298 85.7858 74.8584 85.8982 75.0625L86.6483 93.3344L87.4075 116.458L88.1759 141.693Z" fill="black"/>
<path d="M87.9238 141.693C78.5194 143.299 69.9042 138.695 69.9042 138.695L69.989 137.136C69.989 137.136 70.2023 119.453 69.6083 118.098C69.0142 116.742 68.5554 109.868 68.8926 108.813C69.2298 107.757 67.6701 91.9353 67.6701 91.9353L67.4154 85.5128L58.1763 81.758L62.305 73.1519C62.8614 71.9447 63.341 70.7036 63.7409 69.436C64.4565 67.2019 67.7916 65.0068 67.7916 65.0068C67.7916 65.0068 71.2093 62.814 72.558 62.8966C73.9067 62.9791 75.6798 60.9561 75.6798 60.9561C76.9895 57.6233 78.4323 59.1325 78.4323 59.1325C78.4323 59.2908 78.2947 59.3619 78.3681 59.6257C79.3773 63.1741 85.5337 74.8446 85.6461 75.0488L86.4053 93.3207L87.1645 116.444L87.9238 141.693Z" fill="white"/>
<path opacity="0.1" d="M85.3891 75.5695C84.3775 75.1474 79.0193 69.03 79.0193 69.03V67.6377C78.8244 67.179 77.666 67.4588 76.7256 67.7799L77.1293 59.3229L77.588 59.7037C78.5927 63.2498 85.2721 75.3653 85.3891 75.5695Z" fill="black"/>
<path d="M85.6433 75.0625C84.6295 74.6405 79.2713 68.5231 79.2713 68.5231V67.1308C79.0763 66.6721 77.918 66.9519 76.9775 67.273L77.3835 58.816L77.8423 59.1968C78.8492 62.7429 85.5309 74.8607 85.6433 75.0625Z" fill="white"/>
<path opacity="0.1" d="M70.1582 105.572C70.2843 105.572 76.6977 104.897 76.6977 104.897C76.6977 104.897 80.581 112.533 80.3264 114.391C80.0718 116.249 79.6107 117.894 78.0487 117.602C76.4866 117.311 69.6421 117.832 69.6421 117.832L70.1582 105.572Z" fill="black"/>
<path d="M69.9038 105.065C70.0299 105.065 76.4432 104.39 76.4432 104.39C76.4432 104.39 80.3242 112.028 80.0719 113.884C79.8196 115.74 79.354 117.387 77.7943 117.095C76.2345 116.804 69.3877 117.325 69.3877 117.325L69.9038 105.065Z" fill="white"/>
<path d="M74.7366 101.48C74.7366 101.48 80.6223 104.643 80.7485 105.608C80.8747 106.574 77.7529 105.186 77.0785 105.019C76.6347 104.912 76.1828 104.841 75.7275 104.808L71.2295 104.929L74.7366 101.48Z" fill="#CF6F80"/>
<path opacity="0.1" d="M83.7468 75.964C84.0888 75.964 84.3661 75.6867 84.3661 75.3447C84.3661 75.0027 84.0888 74.7254 83.7468 74.7254C83.4047 74.7254 83.1274 75.0027 83.1274 75.3447C83.1274 75.6867 83.4047 75.964 83.7468 75.964Z" fill="black"/>
<path d="M83.7468 75.7117C84.0888 75.7117 84.3661 75.4344 84.3661 75.0924C84.3661 74.7503 84.0888 74.4731 83.7468 74.4731C83.4047 74.4731 83.1274 74.7503 83.1274 75.0924C83.1274 75.4344 83.4047 75.7117 83.7468 75.7117Z" fill="#3F3D56"/>
<path opacity="0.1" d="M84.8869 102.773C85.2289 102.773 85.5062 102.496 85.5062 102.154C85.5062 101.812 85.2289 101.535 84.8869 101.535C84.5448 101.535 84.2676 101.812 84.2676 102.154C84.2676 102.496 84.5448 102.773 84.8869 102.773Z" fill="black"/>
<path d="M84.8869 102.519C85.2289 102.519 85.5062 102.241 85.5062 101.899C85.5062 101.557 85.2289 101.28 84.8869 101.28C84.5448 101.28 84.2676 101.557 84.2676 101.899C84.2676 102.241 84.5448 102.519 84.8869 102.519Z" fill="#3F3D56"/>
<path opacity="0.1" d="M84.3635 89.3686C84.7055 89.3686 84.9828 89.0913 84.9828 88.7493C84.9828 88.4073 84.7055 88.13 84.3635 88.13C84.0214 88.13 83.7441 88.4073 83.7441 88.7493C83.7441 89.0913 84.0214 89.3686 84.3635 89.3686Z" fill="black"/>
<path d="M84.3635 89.1163C84.7055 89.1163 84.9828 88.839 84.9828 88.497C84.9828 88.1549 84.7055 87.8777 84.3635 87.8777C84.0214 87.8777 83.7441 88.1549 83.7441 88.497C83.7441 88.839 84.0214 89.1163 84.3635 89.1163Z" fill="#3F3D56"/>
<path d="M98.6398 104.679C98.6398 104.679 99.0619 105.312 98.6398 105.608C98.2178 105.904 98.6811 106.62 98.6811 106.62C98.6811 106.62 97.6283 107.237 98.0916 107.792C98.555 108.347 98.2614 110.854 98.2614 110.854L96.9952 112.951C96.9952 112.951 97.0709 114.302 97.0755 116.127C97.0755 118.976 96.9081 122.981 95.9814 124.807L96.1098 139.787C96.1098 139.787 91.676 141.407 87.9648 140.913L87.4143 116.875C87.4143 116.875 88.2171 103.243 88.513 100.629C88.6861 99.271 88.7567 97.9024 88.724 96.5342C88.724 96.5342 88.5978 92.4422 88.1735 90.543C88.1735 90.543 87.7148 82.3154 87.6689 80.0377C87.6482 78.9482 87.7056 75.769 87.7698 72.7459C87.8409 69.4406 87.9212 66.3234 87.9212 66.3234L87.084 59.6991C87.084 59.6991 87.9212 59.6142 88.1735 59.9514C88.2865 60.057 88.4094 60.1515 88.5405 60.2336C89.9856 61.2107 95.0914 64.2155 95.0914 64.2155C95.0914 64.2155 97.9173 65.3394 98.5939 66.9496C99.2706 68.5598 99.7408 69.7021 100.069 70.1608C100.397 70.6196 100.576 72.7757 100.576 72.7757C100.576 72.7757 101.548 76.7439 102.308 77.4159C103.067 78.088 103.622 82.3635 103.622 82.3635L96.9126 87.6391C96.9126 87.6391 96.3232 96.415 96.197 96.7544C96.0708 97.0939 98.6398 104.679 98.6398 104.679Z" fill="white"/>
<path d="M98.8944 104.679C98.8944 104.679 99.3141 105.312 98.8944 105.608C98.4746 105.904 98.9334 106.62 98.9334 106.62C98.9334 106.62 97.8874 107.244 98.3462 107.799C98.8049 108.354 98.5159 110.861 98.5159 110.861L97.2498 112.957C97.2498 112.957 97.3255 114.308 97.3323 116.134C97.3323 118.983 97.1649 122.988 96.2382 124.814L96.3644 139.794C96.3644 139.794 91.9237 141.414 88.217 140.92L87.6688 116.882C87.6688 116.882 88.4716 103.25 88.7675 100.635C88.9409 99.2779 89.0107 97.9092 88.9763 96.5411C88.9763 96.5411 88.8501 92.4491 88.4281 90.5499C88.4281 90.5499 87.9693 82.3222 87.9211 80.0446C87.9005 78.955 87.9601 75.7759 88.0221 72.7528C88.0932 69.4475 88.1735 66.3303 88.1735 66.3303L87.0679 59.6165C87.0679 59.6165 88.1735 59.6165 88.4281 59.9583C88.54 60.0651 88.663 60.1597 88.7951 60.2404C90.2401 61.2176 95.3483 64.2224 95.3483 64.2224C95.3483 64.2224 98.1718 65.3463 98.8485 66.9565C99.5252 68.5667 99.9954 69.709 100.326 70.1677C100.656 70.6265 100.83 72.7826 100.83 72.7826C100.83 72.7826 101.803 76.7508 102.562 77.4228C103.321 78.0949 103.869 82.3612 103.869 82.3612L97.1603 87.6368C97.1603 87.6368 96.5708 96.4127 96.4424 96.7521C96.3139 97.0916 98.8944 104.679 98.8944 104.679Z" fill="white"/>
<path opacity="0.1" d="M90.8597 68.2777L91.4653 70.0439L88.277 73.2551C88.3481 69.9521 88.4283 66.8326 88.4283 66.8326L87.3228 60.1189C87.3228 60.1189 88.4283 60.1189 88.6829 60.4606C88.7946 60.5672 88.9177 60.661 89.0499 60.7405L91.7611 68.5621L90.8597 68.2777Z" fill="black"/>
<path d="M90.6048 67.7708L91.2127 69.537L88.0244 72.7482C88.0955 69.4429 88.1757 66.3257 88.1757 66.3257L87.0679 59.6119C87.0679 59.6119 88.1758 59.6119 88.4281 59.9537C88.5406 60.0599 88.6635 60.1544 88.7951 60.2358L91.5085 68.0552L90.6048 67.7708Z" fill="white"/>
<path opacity="0.1" d="M90.605 50.2948C90.6069 51.1213 90.4768 51.9429 90.2197 52.7285C90.1764 52.7352 90.1321 52.7332 90.0896 52.7226C90.047 52.7119 90.007 52.6929 89.972 52.6665C89.9123 50.6022 88.8962 48.6639 87.6461 47.0147C87.2952 46.5168 86.8697 46.0758 86.3846 45.7073C85.8941 45.339 85.2841 45.1664 84.6734 45.2233C83.9853 45.3174 83.3775 45.7853 82.6825 45.8449C81.765 45.9206 80.9438 45.2853 80.0332 45.2532C79.663 45.2567 79.2978 45.3391 78.962 45.4949C78.6262 45.6508 78.3275 45.8764 78.0858 46.1569C77.6075 46.7228 77.252 47.3821 77.0422 48.0928C76.6815 49.1705 76.4851 50.2963 76.4596 51.4325C76.4481 52.0747 76.3862 52.8798 75.7898 53.1138C75.8347 52.6415 75.781 52.165 75.6322 51.7144C75.4833 51.2639 75.2425 50.8492 74.9251 50.4966L74.9113 50.4829C74.9113 50.4187 74.9113 50.359 74.9113 50.2948C74.8935 49.2529 75.0833 48.2179 75.4697 47.2501C75.8561 46.2823 76.4314 45.4012 77.1619 44.6581C77.8924 43.9149 78.7636 43.3247 79.7246 42.9218C80.6856 42.5189 81.7173 42.3114 82.7593 42.3114C83.8014 42.3114 84.833 42.5189 85.794 42.9218C86.7551 43.3247 87.6262 43.9149 88.3568 44.6581C89.0873 45.4012 89.6625 46.2823 90.0489 47.2501C90.4353 48.2179 90.6252 49.2529 90.6073 50.2948H90.605Z" fill="black"/>
<path d="M86.0081 37.8329C84.8162 37.2722 83.4605 37.1662 82.1959 37.5347C81.5605 37.7228 80.9619 38.0279 80.3173 38.1816C78.9411 38.5141 77.3354 38.154 76.1542 38.9591C75.4982 39.4179 75.1036 40.1427 74.7366 40.8469L73.8191 42.5947C73.3191 43.5512 72.8145 44.5237 72.6058 45.5765C72.397 46.6294 72.5232 47.8084 73.1907 48.6547C73.6769 49.2718 74.3949 49.6594 74.9224 50.2397C75.2385 50.5927 75.4782 51.0071 75.6266 51.4571C75.775 51.9071 75.8289 52.3828 75.7849 52.8546C76.3836 52.6252 76.4409 51.8178 76.4547 51.1756C76.4802 50.0394 76.6766 48.9136 77.0373 47.8359C77.2466 47.125 77.6021 46.4656 78.0809 45.9C78.3228 45.6198 78.6215 45.3942 78.9573 45.2384C79.2931 45.0826 79.6582 45 80.0283 44.9962C80.9458 45.0284 81.7692 45.6614 82.6776 45.5857C83.3657 45.5284 83.9758 45.0582 84.6685 44.9664C85.2793 44.9086 85.8896 45.0813 86.3797 45.4504C86.8646 45.8184 87.2894 46.2594 87.6389 46.7578C88.8913 48.407 89.9074 50.3406 89.9671 52.4096C90.2263 52.6 90.6001 52.3522 90.7286 52.0586C90.857 51.765 90.8616 51.421 91.0245 51.1411C91.2126 50.8177 91.5727 50.6457 91.8548 50.4026C92.5705 49.7856 92.7494 48.7465 92.7219 47.8038C92.6943 46.861 92.5108 45.9046 92.6897 44.9779C92.7976 44.409 93.0407 43.8769 93.1737 43.3149C93.3068 42.753 93.3228 42.1222 93.0086 41.6382C92.5498 40.9272 91.5842 40.7872 90.7424 40.7207C89.7859 40.6381 88.9303 40.7437 88.3202 39.9386C88.0338 39.5184 87.7114 39.124 87.3568 38.7596C87.2352 38.6403 86.0081 37.8834 86.0081 37.8329Z" fill="#512E4E"/>
<path opacity="0.1" d="M61.0776 86.2032L58.6806 81.7717L57.9214 88.6094C57.9214 88.6094 58.3434 91.6463 58.2586 92.1119C58.1737 92.5775 59.988 96.7521 59.988 96.7521C59.988 96.7521 65.9816 107.427 68.429 107.978L76.6979 102.069L74.5051 99.2844C74.5051 99.2844 73.7459 98.9885 73.5555 99.2844C73.5555 99.2844 69.4841 92.2793 69.0621 91.7724C68.64 91.2655 68.7226 90.254 68.7226 90.254C68.7226 90.254 68.0895 89.5796 68.3006 88.9465C68.5116 88.3135 67.078 86.1184 67.078 86.1184L68.3854 84.8958L61.0776 86.2032Z" fill="black"/>
<path d="M58.8069 81.2671L58.1738 81.7717L57.4146 88.6093C57.4146 88.6093 57.8366 91.6463 57.7517 92.1119C57.6669 92.5775 59.4835 96.7521 59.4835 96.7521C59.4835 96.7521 65.4747 107.427 67.9222 107.978L76.1934 102.069L73.9983 99.2844C73.9983 99.2844 73.239 98.9885 73.0487 99.2844C73.0487 99.2844 68.9773 92.2793 68.5552 91.7724C68.1332 91.2655 68.2181 90.254 68.2181 90.254C68.2181 90.254 67.585 89.5796 67.796 88.9465C68.007 88.3135 66.5712 86.1183 66.5712 86.1183L67.8786 84.8958L58.8069 81.2671Z" fill="white"/>
<path opacity="0.1" d="M98.0915 108.053C98.5502 108.611 98.2612 111.113 98.2612 111.113L96.9951 113.21C96.9951 113.21 97.0708 114.563 97.0754 116.387L94.9468 117.052C94.7544 117.112 94.5505 117.125 94.3519 117.09C94.1534 117.055 93.9661 116.974 93.8056 116.852C93.6451 116.73 93.5161 116.571 93.4293 116.39C93.3425 116.208 93.3005 116.008 93.3068 115.806L93.6738 103.968L98.6397 105.867C98.2176 106.161 98.681 106.881 98.681 106.881C98.681 106.881 97.6281 107.496 98.0915 108.053Z" fill="black"/>
<path d="M98.3462 107.799C98.8049 108.356 98.5159 110.861 98.5159 110.861L97.2498 112.957C97.2498 112.957 97.3255 114.308 97.3324 116.134L95.1648 116.811C94.9764 116.869 94.7767 116.882 94.5824 116.848C94.3881 116.814 94.2048 116.734 94.0477 116.614C93.8907 116.495 93.7644 116.34 93.6794 116.162C93.5944 115.984 93.5532 115.788 93.5592 115.591L93.9284 103.716L98.8967 105.615C98.4723 105.909 98.9357 106.627 98.9357 106.627C98.9357 106.627 97.8874 107.244 98.3462 107.799Z" fill="white"/>
<path d="M99.9908 102.156C99.9908 102.156 99.6537 104.31 98.8096 104.436C97.9655 104.562 97.587 107.92 96.7452 107.801C95.9034 107.682 96.4608 104.679 96.4906 104.097C96.5204 103.514 95.5731 101.101 96.2818 100.553C96.9906 100.005 99.2339 100.553 99.2339 100.553L99.9908 102.156Z" fill="#CF6F80"/>
<path opacity="0.1" d="M101.787 85.5702L103.379 82.3589C103.379 82.3589 104.012 84.8064 104.012 86.1138C104.012 87.4212 104.897 87.5497 104.897 87.5497C104.897 87.5497 105.868 88.6965 105.356 89.5315C104.845 90.3664 104.638 92.4445 104.638 92.4445C104.638 92.4445 104.806 96.4104 104.046 96.9586C103.287 97.5068 103.129 98.8165 103.129 98.8165C103.129 98.8165 101.734 101.305 101.778 101.897C101.821 102.489 99.8374 106.496 99.8374 106.496C99.8374 106.496 100.808 101.516 95.1536 99.3647C95.1536 99.3647 95.11 97.6742 95.5321 97.2109C95.9541 96.7476 96.6124 96.5365 96.1996 94.1946C95.7867 91.8527 96.0803 89.0544 96.0803 88.4924C96.0803 87.9304 97.3464 84.4256 97.3464 84.4256L101.787 85.5702Z" fill="black"/>
<path d="M102.475 81.9002L103.865 82.3589C103.865 82.3589 104.5 84.8063 104.5 86.1138C104.5 87.4212 105.386 87.5497 105.386 87.5497C105.386 87.5497 106.356 88.6965 105.845 89.5314C105.333 90.3664 105.129 92.4445 105.129 92.4445C105.129 92.4445 105.296 96.4104 104.537 96.9586C103.778 97.5068 103.608 98.8165 103.608 98.8165C103.608 98.8165 102.216 101.305 102.26 101.897C102.303 102.489 100.317 106.496 100.317 106.496C100.317 106.496 101.289 101.516 95.6329 99.3647C95.6329 99.3647 95.5916 97.6742 96.0137 97.2109C96.4357 96.7475 97.094 96.5365 96.6812 94.1946C96.2683 91.8527 96.5619 89.0543 96.5619 88.4924C96.5619 87.9304 97.828 84.4256 97.828 84.4256L102.475 81.9002Z" fill="white"/>
<path opacity="0.1" d="M71.7734 165.133C71.7734 165.133 73.9892 163.741 75.4434 164.752C76.8977 165.764 71.7734 165.133 71.7734 165.133Z" fill="black"/>
<path opacity="0.1" d="M88.9902 160.828C88.9902 160.828 90.9514 160.575 92.5983 162.348C94.2452 164.121 88.9902 160.828 88.9902 160.828Z" fill="black"/>
<g opacity="0.1">
<path opacity="0.1" d="M91.8598 49.9002C91.5777 50.1434 91.2152 50.3177 91.0272 50.6411C90.8666 50.9187 90.862 51.2604 90.7336 51.5586C90.6051 51.8568 90.2312 52.0999 89.972 51.9119C89.9124 49.8475 88.894 47.9093 87.6439 46.2578C87.2944 45.7594 86.8696 45.3183 86.3846 44.9504C85.8937 44.5813 85.2827 44.4087 84.6712 44.4664C83.9831 44.5604 83.3775 45.0284 82.6825 45.0857C81.765 45.1637 80.9416 44.5283 80.031 44.4962C79.6609 44.4999 79.2959 44.5826 78.9605 44.7389C78.625 44.8952 78.3268 45.1213 78.0859 45.4022C77.607 45.967 77.2516 46.6256 77.0422 47.3359C76.6818 48.4136 76.4854 49.5394 76.4596 50.6755C76.4459 51.3155 76.3862 52.1137 75.7944 52.3523C75.8082 52.5217 75.8082 52.692 75.7944 52.8615C76.3908 52.6321 76.4504 51.8247 76.4642 51.1824C76.4898 50.0463 76.6862 48.9205 77.0468 47.8428C77.2562 47.1319 77.6116 46.4725 78.0905 45.9068C78.3319 45.6267 78.6302 45.4012 78.9656 45.2454C79.301 45.0895 79.6658 45.007 80.0356 45.0031C80.9531 45.0352 81.7788 45.6683 82.6871 45.5926C83.3752 45.5353 83.9854 45.065 84.6758 44.9733C85.2873 44.9156 85.8983 45.0882 86.3892 45.4573C86.8742 45.8252 87.299 46.2663 87.6485 46.7647C88.8986 48.4139 89.917 50.3475 89.9766 52.4165C90.2358 52.6069 90.6097 52.3591 90.7381 52.0655C90.8666 51.7719 90.8712 51.4279 91.0317 51.148C91.2198 50.8246 91.5822 50.6526 91.8644 50.4095C92.58 49.7924 92.7589 48.7534 92.7314 47.8107C92.7314 47.7808 92.7314 47.751 92.7314 47.7235C92.6878 48.5401 92.4699 49.3727 91.8598 49.9002Z" fill="black"/>
<path opacity="0.1" d="M74.9276 49.7374C74.4 49.1571 73.6798 48.7694 73.1958 48.1547C72.7883 47.6105 72.5555 46.9555 72.5283 46.2762C72.4561 47.1251 72.6932 47.9714 73.1958 48.6593C73.6798 49.2764 74.4 49.664 74.9276 50.2443C75.4341 50.812 75.7382 51.5315 75.7923 52.2903C75.8275 51.8285 75.769 51.3643 75.6204 50.9257C75.4718 50.487 75.2361 50.0828 74.9276 49.7374Z" fill="black"/>
<path opacity="0.1" d="M93.1789 42.8126C93.0436 43.3746 92.8027 43.909 92.6926 44.4756C92.6274 44.8541 92.6036 45.2387 92.6215 45.6224C92.6292 45.4038 92.6529 45.1861 92.6926 44.971C92.8027 44.4022 93.0436 43.87 93.1789 43.3081C93.2578 42.9981 93.2834 42.677 93.2546 42.3584C93.2403 42.5115 93.215 42.6632 93.1789 42.8126Z" fill="black"/>
</g>
<path opacity="0.1" d="M30.4447 174.459C42.7883 174.459 52.7948 172.852 52.7948 170.87C52.7948 168.887 42.7883 167.28 30.4447 167.28C18.101 167.28 8.09448 168.887 8.09448 170.87C8.09448 172.852 18.101 174.459 30.4447 174.459Z" fill="#00B140"/>
<path d="M31.165 102.103H29.7268V134.484H31.165V102.103Z" fill="#535461"/>
<path d="M40.2022 134.385L40.1128 135.844L39.9843 137.909L39.9316 138.767L39.8054 140.831L39.7504 141.689L39.6219 143.753L38.1723 167.165C38.1093 168.173 37.6648 169.118 36.9293 169.809C36.1938 170.5 35.2226 170.885 34.2133 170.886H26.6761C25.667 170.885 24.696 170.5 23.9609 169.809C23.2258 169.118 22.7818 168.172 22.7194 167.165L21.2766 143.737L21.1482 141.673L21.0954 140.815L20.9669 138.75L20.9142 137.893L20.7857 135.828L20.694 134.369C20.6781 134.089 20.7197 133.808 20.8162 133.543C20.9128 133.279 21.0624 133.038 21.2557 132.833C21.449 132.629 21.682 132.467 21.9404 132.356C22.1988 132.245 22.4771 132.188 22.7584 132.188H38.1746C38.4547 132.19 38.7314 132.25 38.9876 132.364C39.2437 132.477 39.4739 132.642 39.6639 132.848C39.8539 133.054 39.9997 133.297 40.0923 133.561C40.1849 133.825 40.2223 134.106 40.2022 134.385Z" fill="#3F3D56"/>
<path d="M40.1128 135.844L39.9844 137.902H20.9051L20.7766 135.844H40.1128Z" fill="#9D9CB5"/>
<path d="M39.9316 138.76L39.8054 140.819H21.0862L20.9578 138.76H39.9316Z" fill="#9D9CB5"/>
<path d="M39.7505 141.68L39.6244 143.737H21.2676L21.1392 141.68H39.7505Z" fill="#9D9CB5"/>
<path d="M18.5815 114.24C26.956 120.3 30.4516 129.777 30.4516 129.777C30.4516 129.777 20.3592 129.431 11.9825 123.371C3.60572 117.311 0.116943 107.835 0.116943 107.835C0.116943 107.835 10.2048 108.18 18.5815 114.24Z" fill="#00B140"/>
<path d="M0.110107 107.835C0.110107 107.835 10.5879 113.65 13.9482 118.465C17.3086 123.279 30.4517 129.777 30.4517 129.777" stroke="#535461" stroke-width="2" stroke-miterlimit="10"/>
<path d="M23.9879 102.032C28.5456 105.328 30.4517 110.487 30.4517 110.487C30.4517 110.487 24.9582 110.299 20.3982 107.003C15.8383 103.707 13.9368 98.5459 13.9368 98.5459C13.9368 98.5459 19.428 98.7339 23.9879 102.032Z" fill="#00B140"/>
<path d="M13.9368 98.5459C13.9368 98.5459 19.639 101.711 21.4671 104.331C23.2952 106.95 30.4517 110.487 30.4517 110.487" stroke="#535461" stroke-width="2" stroke-miterlimit="10"/>
<path d="M37.0691 110.226C31.8325 115.981 30.7246 123.502 30.7246 123.502C30.7246 123.502 38.1081 121.69 43.3402 115.932C48.5722 110.175 49.6846 102.656 49.6846 102.656C49.6846 102.656 42.3057 104.471 37.0691 110.226Z" fill="#00B140"/>
<path d="M49.6892 102.659C49.6892 102.659 42.8677 108.558 41.1336 112.623C39.3995 116.687 30.7246 123.502 30.7246 123.502" stroke="#535461" stroke-width="2" stroke-miterlimit="10"/>
<path d="M229.298 108.2C229.298 108.2 225.511 89.3594 226.961 87.0152C226.961 87.0152 227.013 84.8362 226.926 82.0585C226.926 81.9529 226.926 81.8474 226.926 81.7396C227.181 81.9097 227.447 82.0629 227.722 82.1984C229.058 82.8846 230.591 83.0825 232.057 82.758L230.911 81.4804C230.635 81.1754 230.349 80.8451 230.289 80.4414C230.229 80.0377 230.394 79.6776 230.537 79.3174C231.626 76.5649 231.684 73.1037 229.585 71.0026C227.812 69.2365 227.38 66.9565 225.456 65.344C224.05 64.1627 223.277 62.4309 222.548 60.7565C221.931 59.3413 221.309 57.9146 220.956 56.4145C220.68 55.2424 220.57 54.029 220.192 52.8844C219.813 51.7398 219.105 50.6274 217.997 50.1159C217.602 49.9347 217.164 49.8314 216.804 49.5906C216.332 49.2718 216.047 48.7534 215.705 48.2992C213.969 46.0055 208.154 47.3565 205.402 48.2878C204.654 48.5223 203.961 48.9062 203.365 49.4163L203.39 49.375C203.411 49.3406 203.436 49.3062 203.459 49.2718C203.158 49.5154 202.898 49.8058 202.688 50.1319C202.287 50.7673 202.12 51.5082 201.785 52.1963C201.381 53.0106 199.135 55.2837 200.101 56.1989C200.169 56.2603 200.246 56.3099 200.33 56.3457C200.693 56.4965 201.092 56.5364 201.477 56.4603L201.436 56.559C201.106 57.3664 200.937 58.2305 200.938 59.1027C200.938 62.8713 204.046 65.9266 207.884 65.9266C208.605 65.9273 209.322 65.8167 210.01 65.5986C210.026 65.6858 210.04 65.7729 210.056 65.8601C210.056 65.8945 210.067 65.9289 210.072 65.9633L209.95 66.133C209.944 66.1226 209.937 66.1126 209.93 66.1032L206.329 71.1357C205.778 71.5233 202.608 73.8171 202.429 75.5374C202.241 77.4205 202.053 79.6248 202.053 79.6248L202.028 80.0973C201.87 80.2288 201.686 80.3246 201.488 80.3781C201.29 80.4315 201.083 80.4414 200.881 80.407C199.757 80.2235 199.757 84.5357 199.757 84.5357C199.757 84.5357 199.009 85.2238 198.495 84.6274C197.982 84.0311 196.624 86.0519 196.624 86.0519L188.114 86.4188L187.919 86.4303L187.46 85.0105C187.411 84.8607 187.304 84.7365 187.164 84.6648C187.024 84.5931 186.86 84.5796 186.71 84.6274C186.675 84.6391 186.64 84.6537 186.607 84.671L186.575 84.6894L186.515 84.7307L186.485 84.7582C186.469 84.7731 186.454 84.7892 186.44 84.8063L186.412 84.8385L186.398 84.8522C186.345 84.9254 186.31 85.0101 186.296 85.0993C186.282 85.1885 186.288 85.2799 186.316 85.366L186.71 86.584C185.068 86.9143 183.389 87.8456 184.758 90.41L177.817 89.1278L180.063 91.0132L191.656 93.4056C191.502 93.6808 191.603 94.0799 192.082 94.6419C194.146 97.0664 197.908 97.7247 199.422 97.8944C199.822 98.7887 200.321 99.6351 200.911 100.418L200.78 102.833C200.78 102.833 196.947 121.242 196.245 122.176C196.6 121.774 196.924 121.347 197.216 120.898C196.103 124.681 194.548 129.858 194.14 130.633C193.484 131.872 192.876 136.883 193.624 137.204C193.853 137.303 194.509 137.255 195.445 137.184V137.599L195.403 153.332C195.403 153.332 195.592 162.982 195.075 163.901C194.559 164.821 194.422 166.75 194.422 166.75C194.422 166.75 192.357 170.555 190.722 172.085C190.711 172.097 190.699 172.108 190.685 172.117L190.635 171.76C190.635 171.76 188.669 174.241 184.32 174.102C184.32 174.102 181.703 175.803 185.584 175.895C189.465 175.987 194.422 175.758 194.422 175.758C194.422 175.758 197.883 170.482 200.782 171.17V175.168H201.67V171.106C202.082 170.835 202.434 170.483 202.706 170.072C202.977 169.661 203.163 169.199 203.25 168.714C203.326 168.214 203.271 167.703 203.089 167.231C202.907 166.759 202.605 166.343 202.214 166.023C202.038 165.864 201.896 165.67 201.799 165.454C201.701 165.237 201.65 165.003 201.647 164.766L201.615 164.794C201.615 164.713 201.594 164.631 201.585 164.546C201.33 162.481 201.012 158.222 202.138 155.07C203.682 150.749 204.149 144.73 203.026 141.147C202.663 140.002 202.365 138.837 202.133 137.659C202.106 137.51 202.081 137.367 202.058 137.234C202.826 137.338 203.587 137.491 204.335 137.693C206.939 138.411 212.634 138.544 217.497 138.505C217.508 138.638 217.522 138.778 217.538 138.918C217.625 139.89 217.806 140.852 218.079 141.79C218.689 143.625 218.969 151.715 218.969 151.715C218.969 151.715 219.756 158.367 219.327 161.073C219.098 162.578 218.868 164.089 218.738 165.608V165.638C218.738 165.638 217.449 169.308 216.506 171.301C216.483 171.351 216.458 171.402 216.435 171.45C216.183 171.473 215.936 171.528 215.698 171.613C215.698 171.613 214.435 174.136 213.175 174.553C211.916 174.971 212.334 176.345 215.185 175.84C218.036 175.336 222.341 174.923 222.341 174.923L222.527 172.349L223.403 171.253L223.174 173.819L224.107 173.636L223.983 170.514L225.417 168.72C225.417 168.72 227.149 167.179 224.575 164.147V164.213C224.548 164.17 224.522 164.124 224.493 164.08V164.066C224.066 163.406 223.727 162.174 224.348 159.988C225.472 156.038 226.126 152.453 226.126 152.453C226.126 152.453 228.635 142.849 225.619 138.305H225.752C225.443 137.666 225.224 136.987 225.103 136.287C225.087 136.204 225.074 136.12 225.061 136.032C227.293 135.904 229.484 135.5 231.271 134.629C231.264 134.619 230.188 111.829 229.298 108.2ZM200.963 92.3046V92.3505L200.505 92.3734L200.963 92.3046ZM199.39 92.5225C199.315 92.5392 199.244 92.5729 199.184 92.6211C198.986 92.9002 198.862 93.2244 198.823 93.5638L198.108 93.4033C198.108 93.4033 197.605 93.2955 196.883 93.1739L196.541 92.8298C197.482 92.7519 198.459 92.6372 199.39 92.5225Z" fill="url(#paint1_linear)"/>
<path d="M223.068 170.546L222.795 173.797L223.711 173.613L223.573 170.088L223.068 170.546Z" fill="#1D2366"/>
<path d="M202.188 155.114C201.085 158.256 201.397 162.498 201.645 164.557C201.737 165.319 201.821 165.782 201.821 165.782C201.821 165.782 200.172 169.539 200.035 169.682C199.897 169.824 195.181 172.702 195.181 172.702L191.885 174.627C191.885 174.627 188.541 173.161 190.144 172.656C190.472 172.525 190.767 172.324 191.009 172.067C192.614 170.542 194.631 166.75 194.631 166.75C194.631 166.75 194.768 164.826 195.273 163.91C195.777 162.995 195.594 153.378 195.594 153.378L195.633 137.7V135.656L201.906 135.702C201.946 136.396 202.036 137.086 202.177 137.766C202.402 138.941 202.694 140.102 203.051 141.244C204.156 144.82 203.698 150.809 202.188 155.114Z" fill="#FFB0B1"/>
<path opacity="0.1" d="M201.821 165.782C201.821 165.782 200.172 169.539 200.035 169.682C199.897 169.824 195.181 172.702 195.181 172.702L191.885 174.627C191.885 174.627 188.541 173.161 190.144 172.656C190.472 172.525 190.767 172.324 191.009 172.067L191.151 173.069L192.25 173.023L201.654 164.562C201.737 165.319 201.821 165.782 201.821 165.782Z" fill="black"/>
<path d="M201.707 164.775L192.249 173.294L191.151 173.34L190.921 171.734C190.921 171.734 188.999 174.207 184.728 174.069C184.728 174.069 182.164 175.765 185.965 175.856C189.765 175.948 194.619 175.719 194.619 175.719C194.619 175.719 198.009 170.443 200.846 171.131V175.115H201.718V171.094C202.123 170.822 202.469 170.47 202.735 170.06C203.001 169.65 203.181 169.19 203.264 168.709C203.34 168.213 203.286 167.706 203.109 167.237C202.932 166.768 202.637 166.352 202.253 166.03C202.081 165.869 201.944 165.675 201.85 165.459C201.756 165.243 201.707 165.01 201.707 164.775Z" fill="#1D2366"/>
<path d="M223.94 160.013C223.329 162.192 223.662 163.42 224.08 164.078V164.092C224.615 164.904 224.987 165.814 225.176 166.768L225.213 166.975L220.91 173.248L218.575 174.166C218.575 174.166 214.82 172.884 215.506 172.517C215.678 172.427 215.946 171.95 216.253 171.292C217.171 169.308 218.437 165.647 218.437 165.647V165.617C218.57 164.105 218.781 162.598 219.015 161.098C219.435 158.399 218.664 151.772 218.664 151.772C218.664 151.772 218.389 143.714 217.792 141.881C217.523 140.95 217.344 139.994 217.258 139.028C217.134 137.881 217.107 136.936 217.107 136.936C217.107 136.936 219.579 133.496 224.112 137.211C224.474 137.508 224.793 137.854 225.059 138.239C228.19 142.693 225.669 152.506 225.669 152.506C225.669 152.506 225.038 156.075 223.94 160.013Z" fill="#FFB0B1"/>
<path opacity="0.1" d="M225.22 166.975L220.917 173.248L218.582 174.166C218.582 174.166 214.827 172.884 215.513 172.517C215.685 172.427 215.953 171.95 216.261 171.292C217.85 171.278 218.674 172.792 218.674 172.792L220.688 172.471C220.688 172.471 223.344 167.25 223.94 166.931C224.536 166.612 224.032 164.548 224.032 164.548V164.023C224.048 164.041 224.062 164.062 224.08 164.08V164.094C224.615 164.907 224.988 165.816 225.176 166.771L225.22 166.975Z" fill="black"/>
<path d="M218.811 172.927C218.811 172.927 217.664 170.822 215.467 171.599C215.467 171.599 214.231 174.122 212.994 174.531C211.758 174.939 212.171 176.315 214.965 175.813C217.758 175.31 221.97 174.895 221.97 174.895L222.153 172.328L224.993 168.711C224.993 168.711 226.686 167.177 224.167 164.156V164.681C224.167 164.681 224.672 166.746 224.075 167.064C223.479 167.383 220.832 172.606 220.832 172.606L218.811 172.927Z" fill="#1D2366"/>
<path opacity="0.1" d="M201.913 135.697C201.953 136.391 202.043 137.081 202.184 137.762C199.601 137.383 197.204 137.571 195.633 137.695V135.652L201.913 135.697Z" fill="black"/>
<path opacity="0.1" d="M225.314 138.81C225.314 138.81 221.644 138.989 217.268 139.026C217.144 137.879 217.116 136.934 217.116 136.934C217.116 136.934 219.589 133.493 224.121 137.209C224.484 137.505 224.803 137.851 225.069 138.237C225.14 138.432 225.222 138.624 225.314 138.81Z" fill="black"/>
<path d="M225.314 138.397C225.314 138.397 209.239 139.175 204.34 137.801C199.44 136.427 194.585 137.617 193.853 137.299C193.121 136.98 193.715 131.986 194.357 130.75C195 129.514 198.523 117.01 198.523 117.01L201.913 99.3348L205.484 98.3508L205.737 98.2797L211.96 96.564L216.52 95.3047C216.52 95.3047 225.587 130.704 224.809 133.314C224.527 134.314 224.481 135.365 224.676 136.386C224.795 137.082 225.009 137.759 225.314 138.397Z" fill="#1D2366"/>
<path d="M190.096 87.2469C190.096 87.2469 186.885 90.6875 189.316 92.605C191.747 94.5226 193.346 92.7885 193.346 92.7885L190.096 87.2469Z" fill="#C7DAF5"/>
<path opacity="0.1" d="M190.096 87.2469C190.096 87.2469 186.885 90.6875 189.316 92.605C191.747 94.5226 193.346 92.7885 193.346 92.7885L190.096 87.2469Z" fill="black"/>
<path d="M216.04 64.626C216.04 64.626 215.664 64.9839 215.097 65.5114C214.29 66.2661 213.095 67.3694 212.035 68.2937C210.567 69.5713 209.356 70.5095 209.79 69.709C210.223 68.9085 210.141 67.5139 209.925 66.2087C209.909 66.1216 209.895 66.0344 209.879 65.9495C209.701 64.991 209.464 64.0442 209.17 63.1145C209.17 63.1145 211.542 60.05 212.854 58.8412C213.343 58.3825 213.684 58.1944 213.705 58.5132C213.728 58.9422 214.049 59.8895 214.448 60.8941C214.46 60.9262 214.471 60.9561 214.485 60.9882C214.751 61.6763 215.052 62.3828 215.315 62.9929C215.719 63.9287 216.04 64.626 216.04 64.626Z" fill="#FFB0B1"/>
<path opacity="0.1" d="M214.485 60.9882C214.262 62.187 213.721 63.3039 212.919 64.2223C212.117 65.1406 211.083 65.8267 209.925 66.2087C209.743 65.1617 209.491 64.128 209.17 63.1145C209.17 63.1145 213.636 57.3457 213.705 58.5133C213.721 58.9559 214.07 59.9377 214.485 60.9882Z" fill="black"/>
<path opacity="0.1" d="M209.48 67.7501L210.058 66.9359C210.058 66.9359 210.441 69.2709 211.85 68.241C213.258 67.2111 213.327 75.9915 213.327 75.9915L211.815 98.5917L200.893 97.938L201.202 87.0175L202.439 81.5126L205.496 73.5097L207.315 70.865L209.48 67.7501Z" fill="black"/>
<path d="M213.327 76.1314L211.951 96.5663L211.806 98.7316L205.716 98.3669L205.487 98.3532L200.899 98.0779L201.209 87.1551L202.445 81.6502L205.503 73.6473L207.322 71.0026L209.487 67.8763L210.065 67.0643C210.065 67.0643 210.448 69.3993 211.857 68.3694L211.886 68.3488C213.263 67.4772 213.327 76.1314 213.327 76.1314Z" fill="#1D2366"/>
<path d="M202.599 79.7372C202.599 79.7372 202.051 80.8841 200.95 80.6983C199.849 80.5125 199.851 84.827 199.851 84.827C199.851 84.827 199.119 85.5151 198.615 84.9187C198.11 84.3224 196.78 86.3386 196.78 86.3386L188.444 86.7056C188.444 86.7056 192.153 88.4006 191.426 93.5294C191.426 93.5294 204.019 92.7495 204.432 91.5591C204.845 90.3687 202.599 79.7372 202.599 79.7372Z" fill="white"/>
<path opacity="0.03" d="M202.599 79.7372C202.599 79.7372 202.051 80.8841 200.95 80.6983C199.849 80.5125 199.851 84.827 199.851 84.827C199.851 84.827 199.119 85.5151 198.615 84.9187C198.11 84.3224 196.78 86.3386 196.78 86.3386L188.444 86.7056C188.444 86.7056 192.153 88.4006 191.426 93.5294C191.426 93.5294 204.019 92.7495 204.432 91.5591C204.845 90.3687 202.599 79.7372 202.599 79.7372Z" fill="black"/>
<path d="M178.375 89.4007L180.572 91.277L198.661 95.0777L196.418 92.7885L178.375 89.4007Z" fill="white"/>
<path d="M209.514 68.4726C209.214 68.9314 208.354 71.2802 207.636 73.3308C207.037 75.0396 206.537 76.542 206.537 76.542C206.537 76.542 205.37 84.1435 204.773 85.5174C204.177 86.8914 204.5 92.2495 204.5 92.2495L202.278 105.482C202.278 105.482 201.271 112.306 199.716 116.382C198.181 120.394 196.472 122.275 196.419 122.334C197.108 121.403 200.858 103.067 200.858 103.067L202.096 79.9413C202.096 79.9413 202.278 77.7439 202.461 75.8654C202.645 73.9868 206.36 71.4224 206.36 71.4224L209.943 66.328C210.303 66.8097 210.063 67.6492 209.514 68.4726Z" fill="white"/>
<path d="M200.172 98.1926C200.172 98.1926 194.896 97.9632 192.341 94.8942C189.786 91.8252 198.248 93.6694 198.248 93.6694L200.447 94.174L200.172 98.1926Z" fill="#FFB0B1"/>
<path opacity="0.1" d="M224.809 133.317C224.527 134.316 224.481 135.368 224.676 136.388C218.921 136.796 212.765 135.241 212.765 135.241C211.618 136.296 208.597 137.851 208.597 137.851L206.95 117.437C205.897 114.685 205.484 100.264 205.484 100.264C205.484 100.264 205.578 99.5092 205.714 98.3784C205.714 98.3509 205.714 98.3211 205.725 98.2935C206.136 95.1351 206.95 89.2057 207.349 88.4052C207.9 87.3042 205.656 84.3751 205.656 84.3751L206.677 75.6704L206.801 74.6199C208.952 73.6588 210.602 70.5898 210.602 70.5898L211.868 68.3717C213.244 67.4886 213.315 76.1429 213.315 76.1429L211.939 96.5778L216.499 95.3186C216.499 95.3186 225.587 130.706 224.809 133.317Z" fill="black"/>
<path d="M230.716 134.727C224.442 137.842 213.04 134.957 213.04 134.957C211.893 136.012 208.872 137.567 208.872 137.567L207.223 117.153C206.173 114.4 205.76 99.9794 205.76 99.9794C205.76 99.9794 207.086 89.2195 207.636 88.1208C207.797 87.7997 207.719 87.3226 207.528 86.8088C206.592 84.3633 206.248 81.731 206.524 79.1271L206.964 75.386L207.086 74.3377C209.239 73.3744 210.889 70.3053 210.889 70.3053L212.035 68.296L214.146 64.5939L215.146 62.8415L215.315 62.9952L216.611 64.1696C216.611 64.1696 217.162 64.6283 217.988 65.3165C219.784 66.8303 222.887 69.4957 224.488 71.1265C225.896 72.5624 226.341 78.1476 226.47 82.352C226.555 85.1206 226.504 87.2905 226.504 87.2905C225.085 89.6278 228.798 108.393 228.798 108.393C229.663 112.019 230.716 134.727 230.716 134.727Z" fill="white"/>
<path opacity="0.03" d="M218.674 70.2595C218.674 70.2595 214.368 78.455 214.868 81.5699C215.368 84.6848 216.79 88.2103 216.105 89.0337C215.869 89.3457 215.564 89.5989 215.215 89.7736C214.865 89.9483 214.479 90.0397 214.088 90.0407C213.4 90.0866 211.565 91.3688 211.565 91.5064C211.565 91.644 209.87 91.644 208.354 92.2862C206.838 92.9285 204.599 93.2932 204.599 93.2932C204.599 93.2932 200.241 93.1556 199.835 93.5684C199.429 93.9813 199.012 96.4517 199.881 98.422C200.75 100.392 201.716 101.863 202.445 102.131C203.175 102.399 207.804 100.849 211.558 100.482C215.313 100.115 219.389 97.1398 219.389 97.1398C219.389 97.1398 223.878 95.5342 224.665 92.8344C225.452 90.1347 223.704 75.2965 223.704 75.2965C223.704 75.2965 222.383 68.3809 218.674 70.2595Z" fill="black"/>
<path opacity="0.03" d="M218.123 69.5714C218.123 69.5714 213.818 77.7692 214.322 80.8818C214.827 83.9944 216.244 87.5222 215.556 88.3479C215.322 88.6602 215.017 88.9137 214.668 89.0885C214.318 89.2632 213.933 89.3544 213.542 89.3548C212.854 89.4007 211.019 90.6829 211.019 90.8205C211.019 90.9582 209.324 90.9582 207.808 91.5981C206.292 92.2381 204.053 92.6051 204.053 92.6051C204.053 92.6051 199.695 92.4675 199.291 92.8803C198.888 93.2932 198.466 95.7658 199.337 97.7339C200.209 99.7019 201.172 101.174 201.902 101.443C202.631 101.711 207.26 100.161 211.015 99.7959C214.77 99.4312 218.846 96.4517 218.846 96.4517C218.846 96.4517 223.332 94.8461 224.11 92.1486C224.887 89.4512 223.149 74.6084 223.149 74.6084C223.149 74.6084 221.832 67.6951 218.123 69.5714Z" fill="black"/>
<path d="M218.538 69.8466C218.538 69.8466 214.233 78.0444 214.737 81.157C215.242 84.2696 216.66 87.7974 215.974 88.6208C215.739 88.9339 215.435 89.188 215.085 89.3632C214.735 89.5383 214.349 89.6297 213.958 89.6301C213.269 89.6759 211.434 90.9581 211.434 91.0935C211.434 91.2288 209.742 91.2311 208.223 91.8733C206.705 92.5156 204.468 92.8803 204.468 92.8803C204.468 92.8803 200.11 92.7427 199.704 93.1555C199.298 93.5684 198.881 96.0411 199.75 98.0091C200.619 99.9771 201.585 101.45 202.315 101.718C203.044 101.986 207.673 100.436 211.428 100.069C215.182 99.7019 219.258 96.7269 219.258 96.7269C219.258 96.7269 223.747 95.1213 224.534 92.4215C225.321 89.7218 223.584 74.8836 223.584 74.8836C223.584 74.8836 222.245 67.9795 218.538 69.8466Z" fill="white"/>
<path opacity="0.1" d="M218.444 91.8344C218.444 91.8344 215.003 91.1463 216.201 92.2931C217.398 93.44 217.391 94.4446 218.857 94.3987C220.323 94.3529 218.444 91.8344 218.444 91.8344Z" fill="black"/>
<path opacity="0.1" d="M224.259 116.51C224.259 116.51 222.704 117.563 225.679 119.99C228.654 122.417 224.259 116.51 224.259 116.51Z" fill="black"/>
<path opacity="0.1" d="M221.291 125.165C221.291 125.302 220.74 130.211 222.8 131.438C224.86 132.665 221.291 125.165 221.291 125.165Z" fill="black"/>
<path d="M188.587 86.6941C186.926 86.7514 183.339 87.2583 185.199 90.7288C186.843 93.8001 189.607 91.7472 191.162 90.1897C190.783 88.7377 189.861 87.4865 188.587 86.6941Z" fill="#FFB0B1"/>
<path d="M191.183 90.1622L191.252 90.0912L191.183 90.1622Z" fill="#FFB0B1"/>
<path opacity="0.1" d="M217.988 65.4564C216.226 66.6606 214.749 67.6767 214.46 67.8877C213.671 68.4727 212.166 71.9064 211.196 73.6588C210.423 75.0694 207.911 75.4319 206.964 75.5213L207.085 74.4731C209.239 73.5097 210.888 70.4407 210.888 70.4407L215.146 62.9769L216.611 64.3095C216.611 64.3095 217.162 64.7683 217.988 65.4564Z" fill="black"/>
<path d="M217.988 65.3188C216.226 66.523 214.749 67.5391 214.46 67.7524C213.671 68.335 212.166 71.7688 211.196 73.5212C210.423 74.9318 207.911 75.2942 206.964 75.3837L207.085 74.3354C209.239 73.3721 210.888 70.3031 210.888 70.3031L215.146 62.8392L216.611 64.1673C216.611 64.1673 217.162 64.6215 217.988 65.3188Z" fill="#DCE7FF"/>
<path d="M214.598 59.4743C214.599 60.8512 214.181 62.1959 213.4 63.3301C212.478 64.6711 211.106 65.6371 209.533 66.0529C207.959 66.4687 206.289 66.3067 204.825 65.5963C203.361 64.8859 202.2 63.6742 201.552 62.181C200.905 60.6878 200.815 59.0121 201.297 57.4579C201.78 55.9037 202.804 54.574 204.183 53.7101C205.562 52.8461 207.205 52.5052 208.814 52.7491C210.423 52.9931 211.891 53.8057 212.953 55.0396C214.014 56.2735 214.597 57.8469 214.598 59.4743Z" fill="#FFB0B1"/>
<path opacity="0.1" d="M226.47 82.3544C225.539 81.7813 224.78 80.9664 224.275 79.9964C223.892 79.2395 223.637 78.3655 222.984 77.8288C222.394 77.3471 221.607 77.2301 220.873 77.0145C218.46 76.3012 216.437 74.0992 216.362 71.5852C216.325 70.4017 216.694 69.2204 216.527 68.0483C216.431 67.3849 216.168 66.7571 215.761 66.2248C215.558 65.9702 215.337 65.7317 215.098 65.5114C214.777 65.2087 214.439 64.9151 214.146 64.5939C213.961 64.3951 213.799 64.1758 213.664 63.9402C213.555 63.7475 213.467 63.5437 213.4 63.3324C212.942 61.9286 213.359 60.2634 212.854 58.8435L212.827 58.7655C212.637 58.2609 212.249 57.7563 211.71 57.7173C211.171 57.6783 210.71 58.1256 210.196 58.3251C209.12 58.7426 207.96 58.0315 207.063 57.3067C206.166 56.5819 205.154 55.7539 204.014 55.9144C203.26 56.0222 202.663 56.536 201.968 56.8021C201.811 56.8629 201.649 56.9097 201.484 56.942C202.073 55.4752 203.153 54.259 204.541 53.5024C205.928 52.7457 207.536 52.4959 209.087 52.7958C210.639 53.0957 212.038 53.9266 213.043 55.1458C214.049 56.365 214.598 57.8962 214.598 59.4766C214.598 59.9538 214.548 60.4298 214.449 60.8964C214.46 60.9285 214.472 60.9584 214.485 60.9905C214.751 61.6786 215.052 62.3851 215.316 62.9952L216.612 64.1696C216.612 64.1696 217.162 64.6283 217.988 65.3165C219.784 66.8303 222.887 69.4957 224.488 71.1265C225.897 72.567 226.337 78.1499 226.47 82.3544Z" fill="black"/>
<path d="M201.888 52.6115C202.216 51.944 202.379 51.1962 202.771 50.5631C203.347 49.6456 204.351 49.0584 205.384 48.7029C208.079 47.774 213.774 46.4252 215.476 48.7029C215.811 49.1617 216.089 49.6709 216.552 49.9874C216.905 50.2283 217.332 50.3315 217.719 50.5127C218.804 51.0219 219.497 52.1321 219.866 53.2652C220.236 54.3983 220.346 55.614 220.616 56.7815C220.963 58.2793 221.571 59.6991 222.176 61.1097C222.889 62.775 223.646 64.5022 225.023 65.6789C226.901 67.2845 227.316 69.5576 229.06 71.3192C231.124 73.4111 231.057 76.8631 229.993 79.6042C229.853 79.9643 229.695 80.3405 229.75 80.7235C229.805 81.1066 230.09 81.4552 230.358 81.7603L231.486 83.0333C228.816 83.6778 225.796 82.2833 224.552 79.8358C224.169 79.0789 223.915 78.2073 223.259 77.6682C222.672 77.1866 221.883 77.0719 221.151 76.8563C218.738 76.1406 216.715 73.9363 216.639 71.4224C216.602 70.2411 216.972 69.0598 216.804 67.89C216.711 67.2222 216.446 66.59 216.036 66.055C215.405 65.2316 214.453 64.6788 213.939 63.7613C213.07 62.2268 213.731 60.2335 213.104 58.5866C212.912 58.082 212.526 57.5774 211.987 57.5384C211.448 57.4994 210.987 57.9467 210.471 58.1462C209.398 58.5637 208.237 57.8549 207.34 57.1278C206.443 56.4007 205.432 55.575 204.29 55.7378C203.535 55.8433 202.941 56.3571 202.246 56.6255C201.732 56.8228 200.691 56.9994 200.241 56.5659C199.292 55.6919 201.491 53.428 201.888 52.6115Z" fill="#591D4B"/>
<path opacity="0.1" d="M225.19 79.0789C224.805 78.3219 224.553 77.4503 223.897 76.9136C223.309 76.4319 222.52 76.3149 221.786 76.0993C219.376 75.386 217.353 73.1817 217.275 70.6677C217.238 69.4865 217.607 68.3029 217.442 67.1331C217.346 66.4696 217.081 65.8417 216.674 65.3096C216.041 64.4861 215.089 63.9333 214.577 63.0158C213.708 61.4836 214.368 59.4904 213.74 57.8412C213.55 57.3388 213.162 56.8342 212.625 56.7929C212.088 56.7516 211.623 57.2035 211.109 57.4031C210.036 57.8205 208.873 57.1095 207.978 56.3846C207.083 55.6598 206.067 54.8318 204.927 54.9923C204.173 55.1001 203.576 55.6139 202.884 55.88C202.37 56.0773 201.326 56.2562 200.877 55.8227C199.932 54.9052 202.131 52.6458 202.526 51.8339C202.854 51.1641 203.017 50.4186 203.411 49.7856C203.432 49.7512 203.455 49.7167 203.478 49.6823C203.183 49.9268 202.928 50.2163 202.723 50.5402C202.331 51.1733 202.168 51.9164 201.84 52.5885C201.443 53.4005 199.243 55.6667 200.191 56.5773C200.65 57.0131 201.682 56.8342 202.196 56.6369C202.884 56.3686 203.485 55.8548 204.239 55.7493C205.386 55.5864 206.395 56.4145 207.29 57.1393C208.184 57.8641 209.354 58.5752 210.423 58.1577C210.937 57.9581 211.387 57.5086 211.937 57.5499C212.488 57.5911 212.855 58.0935 213.054 58.5981C213.68 60.245 213.02 62.2383 213.889 63.7728C214.403 64.6742 215.355 65.2385 215.985 66.0665C216.396 66.6014 216.661 67.2337 216.754 67.9015C216.921 69.0713 216.552 70.2526 216.589 71.4339C216.664 73.957 218.687 76.1521 221.101 76.8677C221.828 77.0833 222.621 77.198 223.208 77.6797C223.867 78.2187 224.126 79.0903 224.502 79.8473C225.745 82.2947 228.766 83.6893 231.436 83.0448L230.904 82.4438C228.59 82.4782 226.248 81.1616 225.19 79.0789Z" fill="black"/>
<path opacity="0.1" d="M209.377 68.6103C209.077 69.069 208.216 71.4178 207.498 73.4684C206.826 73.2069 206.216 71.5394 206.216 71.5394L209.799 66.4427C210.166 66.9473 209.925 67.7845 209.377 68.6103Z" fill="black"/>
<path d="M209.515 68.4726C209.214 68.9314 208.354 71.2802 207.636 73.3308C206.964 73.0716 206.354 71.4017 206.354 71.4017L209.937 66.3074C210.304 66.8097 210.063 67.6492 209.515 68.4726Z" fill="#DCE7FF"/>
<path d="M188.683 91.9055L186.696 85.6413C186.673 85.5679 186.664 85.4907 186.67 85.4139C186.677 85.3372 186.698 85.2624 186.734 85.194C186.769 85.1256 186.818 85.0649 186.877 85.0153C186.936 84.9657 187.004 84.9282 187.077 84.905C187.225 84.8588 187.385 84.8729 187.523 84.9443C187.66 85.0156 187.764 85.1383 187.811 85.2857L189.797 91.5431L189.6 92.8528L188.683 91.9055Z" fill="#BE8B87"/>
<path opacity="0.1" d="M186.885 85.0908C187.033 85.0439 187.194 85.0577 187.332 85.1291C187.47 85.2004 187.574 85.3236 187.621 85.4715L189.607 91.7288L189.458 92.7106L189.603 92.862L189.8 91.5522L187.802 85.2949C187.755 85.1475 187.651 85.0248 187.514 84.9534C187.376 84.8821 187.216 84.868 187.068 84.9142C186.944 84.9545 186.836 85.0352 186.763 85.1435C186.802 85.1226 186.843 85.105 186.885 85.0908Z" fill="white"/>
<path d="M188.683 91.9055L189.798 91.5522L189.635 92.6257L189.601 92.862L189.275 92.5225L188.683 91.9055Z" fill="#EFC8C4"/>
<path d="M189.275 92.5225C189.294 92.498 189.318 92.4777 189.346 92.4629C189.362 92.4527 189.381 92.4473 189.4 92.4473C189.419 92.4473 189.438 92.4527 189.454 92.4629C189.469 92.4817 189.483 92.5026 189.493 92.5248C189.508 92.5501 189.529 92.5717 189.553 92.588C189.578 92.6042 189.606 92.6148 189.635 92.6188L189.601 92.8482L189.275 92.5225Z" fill="#727A9C"/>
<path d="M186.685 87.8662C186.685 87.8662 190.669 87.8433 189.731 89.5383C188.793 91.2334 187.327 91.4375 187.327 91.4375L186.685 87.8662Z" fill="#FFB0B1"/>
<path d="M161.906 11.7944H161.734C154.889 11.7944 148.836 15.4162 145.354 20.7606C141.872 15.4162 135.819 11.7944 128.975 11.7944H128.803C123.666 11.8433 118.756 13.9175 115.14 17.5661C111.524 21.2146 109.494 26.1428 109.492 31.2797C109.492 37.6586 112.285 46.7097 117.733 54.1574C128.112 68.3488 145.354 80.7648 145.354 80.7648C145.354 80.7648 162.596 68.3511 172.973 54.1574C178.423 46.7097 181.215 37.6586 181.215 31.2797C181.212 26.1432 179.182 21.2154 175.567 17.5669C171.951 13.9183 167.042 11.8439 161.906 11.7944ZM159.445 55.2492C158.665 55.2463 157.905 55.0077 157.263 54.5648C156.622 54.1218 156.129 53.4953 155.85 52.7674H151.758C151.489 52.7657 151.227 52.68 151.008 52.5221C150.79 52.3641 150.626 52.142 150.54 51.8866L149.283 48.0997L145.306 61.9974C145.229 62.265 145.067 62.5001 144.844 62.6676C144.621 62.8352 144.351 62.9259 144.072 62.9264H143.992C143.701 62.9123 143.424 62.799 143.207 62.6053C142.99 62.4116 142.846 62.1492 142.799 61.8621L138.7 37.209L135.705 51.7972C135.636 52.0743 135.476 52.3204 135.251 52.4963C135.026 52.6721 134.749 52.7676 134.464 52.7674H128.699C128.527 52.7747 128.354 52.747 128.192 52.6859C128.031 52.6248 127.883 52.5317 127.758 52.412C127.633 52.2923 127.534 52.1486 127.466 51.9895C127.398 51.8305 127.363 51.6593 127.363 51.4864C127.363 51.3134 127.398 51.1423 127.466 50.9832C127.534 50.8241 127.633 50.6804 127.758 50.5607C127.883 50.4411 128.031 50.3479 128.192 50.2868C128.354 50.2257 128.527 50.198 128.699 50.2053H133.454L137.698 30.5916C137.767 30.3016 137.936 30.0448 138.174 29.8651C138.412 29.6854 138.705 29.594 139.003 29.6065C139.301 29.6189 139.585 29.7345 139.807 29.9334C140.029 30.1324 140.176 30.4023 140.221 30.6971L144.407 55.8456L147.971 43.4113C148.046 43.1494 148.203 42.9185 148.419 42.7532C148.635 42.5878 148.899 42.4968 149.171 42.4938H149.196C149.466 42.4939 149.729 42.5791 149.947 42.7372C150.165 42.8954 150.328 43.1184 150.412 43.3746L152.685 50.2122H155.8C156.021 49.5394 156.424 48.9408 156.965 48.4826C157.505 48.0243 158.161 47.7242 158.861 47.6154C159.561 47.5066 160.277 47.5933 160.931 47.866C161.585 48.1386 162.151 48.5866 162.566 49.1604C162.981 49.7343 163.23 50.4117 163.284 51.118C163.339 51.8242 163.197 52.5318 162.875 53.1626C162.553 53.7935 162.063 54.323 161.459 54.6929C160.855 55.0627 160.16 55.2584 159.452 55.2584L159.445 55.2492Z" fill="#EC0000"/>
</g>
<defs>
<linearGradient id="paint0_linear" x1="81.7328" y1="177.735" x2="81.7328" y2="36.592" gradientUnits="userSpaceOnUse">
<stop stop-color="#808080" stop-opacity="0.25"/>
<stop offset="0.54" stop-color="#808080" stop-opacity="0.12"/>
<stop offset="1" stop-color="#808080" stop-opacity="0.1"/>
</linearGradient>
<linearGradient id="paint1_linear" x1="51199.7" y1="106494" x2="51199.7" y2="34044.3" gradientUnits="userSpaceOnUse">
<stop stop-color="#808080" stop-opacity="0.25"/>
<stop offset="0.54" stop-color="#808080" stop-opacity="0.12"/>
<stop offset="1" stop-color="#808080" stop-opacity="0.1"/>
</linearGradient>
<clipPath id="clip0">
<rect width="253.467" height="179.54" fill="white"/>
</clipPath>
</defs>
</svg>
