<svg width="140" height="160" viewBox="0 0 140 160" fill="none" xmlns="http://www.w3.org/2000/svg">
<path d="M46.4487 82.6021C39.8896 89.8228 38.48 99.2587 38.48 99.2587C38.48 99.2587 47.7432 96.986 54.3023 89.7653C60.8614 82.5446 62.271 73.1087 62.271 73.1087C62.271 73.1087 53.0365 75.3814 46.4487 82.6021Z" fill="#26D444"/>
<path d="M39.0553 72.4184H37.2429V113.039H39.0553V72.4184Z" fill="#535461"/>
<path d="M50.39 112.924L50.275 114.765L50.1024 117.354L50.0448 118.418L49.8722 121.007L49.8147 122.072L49.6421 124.661L47.8297 154.033C47.6571 156.651 45.4995 158.693 42.8816 158.693H33.417C30.7704 158.693 28.6128 156.651 28.4689 154.004L26.6566 124.632L26.4839 122.043L26.4264 120.979L26.2538 118.389L26.1963 117.325L26.0237 114.736L25.9086 112.895C25.8223 111.456 26.9155 110.248 28.3539 110.162C28.4114 110.162 28.4402 110.162 28.4977 110.162H47.8297C49.2681 110.162 50.4188 111.341 50.39 112.78C50.39 112.808 50.39 112.866 50.39 112.924Z" fill="#3F3D56"/>
<path d="M23.2907 87.6365C33.7909 95.2312 38.1636 107.112 38.1636 107.112C38.1636 107.112 25.5058 106.681 15.0055 99.0861C4.50524 91.4914 0.10376 79.6103 0.10376 79.6103C0.10376 79.6103 12.7616 80.0418 23.2907 87.6365Z" fill="#26D444"/>
<path d="M30.0513 72.332C35.7761 76.4746 38.1638 82.9473 38.1638 82.9473C38.1638 82.9473 31.2595 82.7172 25.5635 78.5746C19.8674 74.4321 17.4509 67.9593 17.4509 67.9593C17.4509 67.9593 24.3264 68.1894 30.0513 72.332Z" fill="#26D444"/>
<path d="M106.833 71.2388H75.188V106.623H106.833V71.2388Z" fill="#CCCCCC"/>
<path d="M91.4127 149.833L90.8661 157.255C90.7798 158.549 91.7579 159.7 93.0525 159.786C93.1676 159.786 93.2539 159.786 93.3689 159.786L97.1951 159.556C97.8567 159.527 98.3745 158.952 98.317 158.29C98.317 158.204 98.2882 158.147 98.2882 158.06L96.1594 149.574L91.4127 149.833Z" fill="#E6E6E6"/>
<path d="M123.345 154.234C127.833 155.299 131.055 156.766 133.155 158.808C133.903 159.527 134.881 159.93 135.917 159.988C137.24 160.045 138.333 159.901 139.139 159.556C139.57 159.384 139.858 158.981 139.887 158.492C139.944 158.031 139.743 157.571 139.34 157.284L128.696 149.689L124.179 151.501L123.115 152.566C122.712 152.968 122.712 153.63 123.115 154.033C123.201 154.119 123.259 154.177 123.345 154.234Z" fill="#E6E6E6"/>
<path d="M109.537 32.8625L79.0715 32.5748C79.1578 28.1446 80.1935 23.7719 82.4374 19.8882C83.9333 17.3279 83.8758 14.5374 83.5306 12.2072C82.984 8.58245 84.2497 4.87139 87.0978 2.56996C89.2841 0.815124 92.0171 -0.105447 94.8076 0.0096241L95.4117 0.038392C99.3241 0.210999 102.891 2.33982 104.876 5.73443C105.854 7.51804 106.257 9.56055 106.027 11.5743C105.826 13.473 106.286 15.4004 107.379 17.3279C109.22 21.5855 109.623 27.0226 109.537 32.8625Z" fill="#2F2E41"/>
<path d="M129.904 150.092L123.921 151.645L94.8077 88.2406L96.62 150.092H90.6363C84.2499 120.978 72.714 87.4063 77.8922 76.791L108.818 74.9786L129.904 150.092Z" fill="#284940"/>
<path d="M94.5487 22.2184C98.9973 22.2184 102.604 18.612 102.604 14.1634C102.604 9.7147 98.9973 6.10835 94.5487 6.10835C90.1 6.10835 86.4937 9.7147 86.4937 14.1634C86.4937 18.612 90.1 22.2184 94.5487 22.2184Z" fill="#FFB9B9"/>
<path d="M101.568 28.9788L88.3059 28.2021C89.6005 25.2102 90.1183 22.3622 89.6005 19.6292H99.4678C99.4678 21.7293 100.503 25.354 101.568 28.9788Z" fill="#FFB9B9"/>
<path d="M109.882 77.3376L80.7688 79.4089L83.7607 27.8282L88.8238 26.3898L94.5486 27.6843L100.273 24.8363L103.898 26.1309L109.882 77.3376Z" fill="#EC0000"/>
<path d="M85.7167 114.506L65.8381 109.96C71.7643 90.3695 82.4084 45.4916 78.9563 29.5255L89.3415 24.8363L85.7167 114.506Z" fill="#E6E6E6"/>
<path d="M76.1085 57.833L68.5713 53.1726L74.9865 34.3585C75.7057 32.4022 77.0866 30.7912 78.8702 29.7556L81.0278 28.4898L79.7332 47.4478L76.1085 57.833Z" fill="#E6E6E6"/>
<path d="M127.171 110.219C120.9 113.844 105.221 115.886 98.3171 113.326C97.7993 95.6051 96.8212 45.5203 100.014 24.3184L111.464 29.0076L110.428 43.0463C104.934 55.0425 120.814 96.8422 127.171 110.219Z" fill="#E6E6E6"/>
<path d="M126.251 55.5028L119.231 53.1726L109.882 42.4997L111.435 28.9788L127.027 50.8136L126.251 55.5028Z" fill="#E6E6E6"/>
<path d="M104.272 65.6003C104.502 66.6359 105.567 67.2976 106.602 67.0674L112.557 65.7154L111.694 61.918L105.739 63.2701C104.704 63.529 104.042 64.5646 104.272 65.6003Z" fill="#FFB9B9"/>
<path d="M101.568 12.0921C97.0802 10.2509 92.6787 10.1071 88.306 11.8332L86.4937 5.33162H103.121L101.568 12.0921Z" fill="#2F2E41"/>
<path d="M109.623 61.2276L112.989 67.4702C118.685 65.888 123.604 60.8824 128.322 54.985L127.028 50.8136L118.973 52.8849L109.623 61.2276Z" fill="#E6E6E6"/>
<path d="M107.149 48.3396H106.113C106.113 33.6392 103.093 23.3979 100.13 23.3979L99.8706 22.3622C102.517 22.3622 104.215 26.6199 105.164 30.2159C106.458 35.0489 107.149 41.4929 107.149 48.3396Z" fill="#3F3D56"/>
<path d="M83.2427 44.7148H82.207C82.207 31.2515 85.2564 22.88 89.7442 22.88L89.4853 23.9157C86.3784 23.9157 83.2427 30.3597 83.2427 44.7148Z" fill="#3F3D56"/>
<path d="M109.185 49.0312C109.414 47.6197 108.455 46.2898 107.044 46.0607C105.632 45.8316 104.303 46.7901 104.073 48.2016C103.844 49.6131 104.803 50.943 106.214 51.1721C107.626 51.4012 108.956 50.4426 109.185 49.0312Z" fill="#3F3D56"/>
<path d="M79.1003 50.9575H78.0647C78.0647 47.2177 80.1647 44.1971 82.7539 44.1971V45.2327C80.7113 45.2327 79.1003 47.793 79.1003 50.9575Z" fill="#3F3D56"/>
<path d="M87.4141 50.9575H86.3784C86.3784 47.793 84.7386 45.2327 82.7537 45.2327V44.1971C85.314 44.1971 87.4141 47.2177 87.4141 50.9575Z" fill="#3F3D56"/>
<path d="M86.8962 52.252C87.4682 52.252 87.9319 51.7884 87.9319 51.2164C87.9319 50.6444 87.4682 50.1807 86.8962 50.1807C86.3243 50.1807 85.8606 50.6444 85.8606 51.2164C85.8606 51.7884 86.3243 52.252 86.8962 52.252Z" fill="#3F3D56"/>
<path d="M78.5825 52.252C79.1545 52.252 79.6182 51.7884 79.6182 51.2164C79.6182 50.6444 79.1545 50.1807 78.5825 50.1807C78.0105 50.1807 77.5469 50.6444 77.5469 51.2164C77.5469 51.7884 78.0105 52.252 78.5825 52.252Z" fill="#3F3D56"/>
<path d="M65.5793 41.6367L72.0521 42.8162L86.8963 63.8743L79.0139 62.0331L65.5793 41.6367Z" fill="#00BF20"/>
<path d="M64.4287 41.3778C64.1122 41.3778 63.8821 41.6367 63.8821 41.9244C63.8821 42.0395 63.9108 42.1258 63.9684 42.2121L77.8345 63.2414C77.9208 63.3565 78.0359 63.4428 78.1797 63.4715L84.6237 64.9962C84.9114 65.0538 85.2278 64.8811 85.2854 64.5935C85.3141 64.4496 85.2854 64.277 85.1991 64.1619L69.9809 42.5285C69.8946 42.4135 69.7795 42.3271 69.6357 42.2984L64.5437 41.3778C64.4862 41.4066 64.4574 41.3778 64.4287 41.3778Z" fill="#3F3D56"/>
<path d="M73.0591 56.4234L73.4331 60.307L79.5031 59.7029C80.5675 59.5878 81.3442 58.6385 81.2579 57.5741C81.1428 56.5097 80.1935 55.7329 79.1291 55.8192L73.0591 56.4234Z" fill="#FFB9B9"/>
<path d="M67.7947 55.963C67.8234 58.7247 70.0386 60.9399 72.8003 60.9399H73.8072L74.5264 54.8698L68.5139 52.7122L67.7947 55.963Z" fill="#E6E6E6"/>
<path d="M60.5451 159.844H44.4351L42.709 146.035H62.2711L60.5451 159.844Z" fill="#E6E6E6"/>
<path d="M40.2925 140.915C44.435 146.467 53.0654 147.042 53.0654 147.042C53.0654 147.042 54.9641 138.613 50.7927 133.061C46.6214 127.509 38.0198 126.933 38.0198 126.933C38.0198 126.933 36.1499 135.362 40.2925 140.915Z" fill="#00BF20"/>
<path d="M61.4082 143.015C58.6753 146.668 52.9792 147.071 52.9792 147.071C52.9792 147.071 51.7422 141.519 54.4751 137.836C57.2081 134.183 62.9041 133.78 62.9041 133.78C62.9041 133.78 64.1411 139.332 61.4082 143.015Z" fill="#00BF20"/>
</svg>
