<svg width="160" height="160" viewBox="0 0 160 160" fill="none" xmlns="http://www.w3.org/2000/svg">
<path d="M47.1005 82.4754C40.5423 89.6952 39.1328 99.1298 39.1328 99.1298C39.1328 99.1298 48.3949 96.8575 54.9531 89.6377C61.5113 82.4179 62.9207 72.9832 62.9207 72.9832C62.9207 72.9832 53.6875 75.2556 47.1005 82.4754Z" fill="#26D444"/>
<path d="M39.7086 72.2928H37.8965V112.908H39.7086V72.2928Z" fill="#535461"/>
<path d="M51.0416 112.764L50.9266 114.605L50.754 117.194L50.6965 118.258L50.5239 120.847L50.4664 121.911L50.2938 124.5L48.4816 153.868C48.309 156.485 46.1517 158.528 43.5342 158.528H34.0708C31.4245 158.528 29.2672 156.485 29.1234 153.839L27.3112 124.471L27.1387 121.882L27.0811 120.818L26.9085 118.229L26.851 117.165L26.6784 114.576L26.5634 112.735C26.4771 111.297 27.5701 110.089 29.0083 110.003C29.0658 110.003 29.0946 110.003 29.1521 110.003H48.4816C49.9198 110.003 51.0704 111.182 51.0416 112.62C51.0416 112.678 51.0416 112.706 51.0416 112.764Z" fill="#3F3D56"/>
<path d="M23.9456 87.5091C34.4445 95.1028 38.8166 106.982 38.8166 106.982C38.8166 106.982 26.1604 106.551 15.6615 98.9572C5.16263 91.3635 0.761719 79.4839 0.761719 79.4839C0.761719 79.4839 13.4179 79.9153 23.9456 87.5091Z" fill="#26D444"/>
<path d="M30.7046 72.2066C36.4287 76.3487 38.8161 82.8206 38.8161 82.8206C38.8161 82.8206 31.9127 82.5905 26.2174 78.4484C20.5221 74.3064 18.106 67.8345 18.106 67.8345C18.106 67.8345 24.9806 68.0646 30.7046 72.2066Z" fill="#26D444"/>
<path d="M43.1311 159.678H27.0232L25.2974 145.872H44.857L43.1311 159.678Z" fill="#E6E6E6"/>
<path d="M22.8812 140.751C27.0233 146.303 35.6525 146.878 35.6525 146.878C35.6525 146.878 37.5509 138.45 33.3801 132.899C29.2093 127.347 20.6089 126.772 20.6089 126.772C20.6089 126.772 18.7392 135.2 22.8812 140.751Z" fill="#00BF20"/>
<path d="M44.023 142.851C41.2904 146.504 35.5951 146.907 35.5951 146.907C35.5951 146.907 34.3583 141.356 37.0909 137.674C39.8235 133.992 45.5188 133.618 45.5188 133.618C45.5188 133.618 46.7556 139.198 44.023 142.851Z" fill="#00BF20"/>
<path d="M90.0465 18.7054L73.4784 21.4955C72.6442 21.6393 71.81 21.1215 71.5799 20.2874C70.3718 15.9728 67.8693 10.335 70.3143 7.51611C70.5732 5.0424 72.7305 3.20149 75.2042 3.34532C78.1669 -1.28571 83.0856 -0.595369 86.4222 2.30981C89.7876 3.46037 91.0245 5.53139 90.593 8.32151C92.0312 9.58713 92.8078 11.0253 92.9517 12.5786C93.0955 14.3332 92.4914 16.0878 91.2546 17.3534L90.0465 18.7054Z" fill="#2F2E41"/>
<path d="M87.4572 31.7643L74.6284 31.0164C75.894 28.14 76.383 25.3499 75.894 22.7036H85.4725C85.4437 24.7171 86.4505 28.2263 87.4572 31.7643Z" fill="#9F616A"/>
<path d="M72.011 150.359L71.4932 157.55C71.4069 158.815 72.3562 159.908 73.6218 159.995C73.7368 159.995 73.8231 159.995 73.9382 159.995L77.6488 159.765C78.2816 159.736 78.7706 159.161 78.7418 158.528C78.7418 158.47 78.713 158.384 78.713 158.326L76.6708 150.129L72.011 150.359Z" fill="#E6E6E6"/>
<path d="M83.9767 150.129L81.9345 158.326C81.7907 158.959 82.1646 159.592 82.7974 159.736C82.855 159.765 82.9412 159.765 82.9988 159.765L86.7093 159.995C87.975 160.081 89.068 159.103 89.1255 157.837C89.1255 157.722 89.1255 157.636 89.1255 157.521L88.6078 150.33L83.9767 150.129Z" fill="#E6E6E6"/>
<path d="M88.8378 151.365L83.8329 150.876L78.8854 97.7779L76.987 150.704L72.0971 150.531L63.8418 77.2116H95.396L88.8378 151.365Z" fill="#EC0000"/>
<path d="M80.9277 25.7238C86.1859 25.7238 90.4486 21.4611 90.4486 16.2029C90.4486 10.9446 86.1859 6.68196 80.9277 6.68196C75.6694 6.68196 71.4067 10.9446 71.4067 16.2029C71.4067 21.4611 75.6694 25.7238 80.9277 25.7238Z" fill="#9F616A"/>
<path d="M91.6858 11.6581C87.8027 10.9965 84.0058 10.8815 80.324 11.7444C77.9654 12.521 75.1465 12.4347 71.9824 11.8019V5.38753L88.9533 5.70393L91.6858 11.6581Z" fill="#2F2E41"/>
<path d="M87.2848 23.8542C83.114 25.5801 78.7419 25.5225 74.1971 23.8542C75.5203 21.5818 73.5356 19.8272 72.5288 17.5549L89.5284 17.0371C88.2053 19.0218 86.2781 21.3805 87.2848 23.8542Z" fill="#99DDD0"/>
<path d="M71.3225 16.2464L71.1567 16.4453L72.8361 17.8448L73.0018 17.646L71.3225 16.2464Z" fill="white"/>
<path d="M89.7958 19.0689L86.8765 23.6551L87.0949 23.7941L90.0142 19.208L89.7958 19.0689Z" fill="white"/>
<path d="M71.6496 19.0553L71.4312 19.1943L74.35 23.781L74.5684 23.642L71.6496 19.0553Z" fill="white"/>
<path d="M62.8066 59.6941L55.5005 55.1494L61.7135 36.9129C62.4039 35.0433 63.727 33.4613 65.4816 32.4545L67.5814 31.2464L67.754 49.6267L62.8066 59.6941Z" fill="#E6E6E6"/>
<path d="M94.3606 68.5536L93.2676 59.2915C93.2101 54.4016 94.0442 49.6843 96.029 45.3409L97.0357 31.7355L85.9615 27.1908C85.9328 27.4209 85.904 27.651 85.8752 27.8811L80.6977 30.4699L75.6352 29.3193L75.664 27.7085L65.5965 32.2532C68.9332 47.7283 67.121 63.8075 61.397 82.7918L74.6572 86.4161L74.7723 80.0592L86.5943 79.225C86.7094 81.2961 86.8244 83.3095 86.882 85.2943C93.5553 87.7392 93.7854 87.7105 99.8546 84.2012C97.3809 79.11 95.4824 73.8174 94.3606 68.5536Z" fill="#E6E6E6"/>
<path d="M111.389 57.4219L104.601 55.1496L93.728 42.4933L97.0359 31.7643L112.137 52.906L111.389 57.4219Z" fill="#E6E6E6"/>
<path d="M90.0751 67.2304C90.3052 68.2371 91.3119 68.8699 92.3474 68.6686L98.129 67.3742L97.2949 63.6924L91.5133 64.9868C90.5065 65.1881 89.845 66.1949 90.0751 67.2304Z" fill="#99DDD0"/>
<path d="M95.2812 62.9734L98.5604 69.0138C104.054 67.4893 108.829 62.6282 113.403 56.9329L112.137 52.9059L104.342 54.9194L95.2812 62.9734Z" fill="#E6E6E6"/>
<path d="M52.6235 44.0177L58.8941 45.1395L73.2474 65.5621L65.6249 63.7499L52.6235 44.0177Z" fill="#E6E6E6"/>
<path d="M51.5021 43.759C51.2145 43.759 50.9844 44.0178 50.9844 44.3055C50.9844 44.4205 51.0131 44.5068 51.0707 44.5931L64.5035 64.9581C64.5898 65.0732 64.7049 65.1595 64.8199 65.1882L71.0617 66.6552C71.3494 66.7127 71.637 66.5401 71.6945 66.2525C71.7233 66.1087 71.6945 65.9361 71.6082 65.821L56.881 44.8808C56.7947 44.7657 56.6797 44.6794 56.5358 44.6506L51.6172 43.759C51.5597 43.759 51.5309 43.759 51.5021 43.759Z" fill="#3F3D56"/>
<path d="M59.8726 58.3135L60.2465 62.0816L66.1431 61.5063C67.1786 61.3913 67.9265 60.4708 67.8402 59.4353C67.7252 58.3998 66.8047 57.6519 65.7692 57.7382L59.8726 58.3135Z" fill="#99DDD0"/>
<path d="M54.7524 57.882C54.7812 60.5571 56.9385 62.7144 59.6136 62.7144H60.5916L61.2819 56.8465L55.4428 54.7467L54.7524 57.882Z" fill="#E6E6E6"/>
<path d="M89.0392 17.6986L88.8379 17.4972L89.1255 17.2384L90.7938 15.2824L90.9952 15.455L89.3269 17.4109L89.0392 17.6986Z" fill="white"/>
<path d="M140.441 24.6595L122.866 24.8321C122.06 20.7476 119.27 10.1049 121.773 7.19969C122.003 4.92732 123.988 3.23024 126.289 3.37406C129.021 -0.883028 133.537 -0.250217 136.615 2.42485C139.693 3.48912 140.872 5.38755 140.469 7.94756C142.742 9.96104 143.173 12.3772 142.138 15.1386L140.441 24.6595Z" fill="#2F2E41"/>
<path d="M138.744 35.4749L126.087 33.7203L123.556 30.0097C127.037 27.7086 128.273 24.4582 126.663 20.0573L135.436 19.856C135.033 23.7679 136.327 26.7881 139.923 28.629L138.744 35.4749Z" fill="#FFB9B9"/>
<path d="M123.067 149.755L122.578 156.37C122.491 157.521 123.354 158.528 124.534 158.614C124.62 158.614 124.735 158.614 124.821 158.614L128.215 158.413C128.82 158.384 129.251 157.866 129.222 157.262C129.222 157.205 129.222 157.118 129.193 157.061L127.295 149.496L123.067 149.755Z" fill="#E6E6E6"/>
<path d="M134.083 149.553L132.214 157.09C132.07 157.665 132.415 158.24 132.99 158.384C133.048 158.413 133.134 158.413 133.192 158.413L136.586 158.614C137.736 158.672 138.743 157.809 138.829 156.629C138.829 156.543 138.829 156.428 138.829 156.342L138.341 149.726L134.083 149.553Z" fill="#E6E6E6"/>
<path d="M138.542 150.675L133.969 150.215L129.395 101.345L127.669 150.042L123.153 149.899L115.56 82.4467H144.583L138.542 150.675Z" fill="#EC0000"/>
<path d="M131.524 23.1926C136.369 23.1926 140.297 19.2648 140.297 14.4196C140.297 9.57435 136.369 5.64651 131.524 5.64651C126.679 5.64651 122.751 9.57435 122.751 14.4196C122.751 19.2648 126.679 23.1926 131.524 23.1926Z" fill="#FFB9B9"/>
<path d="M148.869 83.9999L113.403 84.4026C118.667 64.354 121.831 45.7437 116.337 32.9436L125.11 28.6578C129.338 33.0587 134.055 32.6272 139.147 28.2551L147.517 30.4124C146.079 47.1819 146.712 65.1594 148.869 83.9999Z" fill="#E6E6E6"/>
<path d="M103.651 63.3474L125.685 72.1204L130.603 73.5586C131.495 73.8175 132.444 73.2997 132.732 72.4081C132.732 72.3793 132.732 72.3505 132.761 72.3505C132.962 71.5451 132.559 70.711 131.783 70.3658L126.663 68.8125L111.274 59.8381L114.495 51.3527L107.765 47.7572L103.651 63.3474Z" fill="#FFB9B9"/>
<path d="M103.853 47.3544C108.052 48.9939 111.389 51.7841 113.978 55.5522L122.175 43.6726L116.336 32.9436L103.853 47.3544Z" fill="#E6E6E6"/>
<path d="M141.419 13.0101C137.852 12.0897 134.372 11.9746 130.949 13.1252C128.791 14.1607 126.174 14.0744 123.297 13.2115V4.46716L138.916 4.86986L141.419 13.0101Z" fill="#2F2E41"/>
<path d="M125.598 53.1361C124.16 53.1361 123.009 54.2867 123.009 55.7249L124.045 77.1829C124.045 78.6211 125.195 79.7717 126.634 79.7717H138.369C139.808 79.7717 140.958 78.6211 140.958 77.1829L141.994 55.7249C141.994 54.2867 140.843 53.1361 139.405 53.1361H125.598Z" fill="#3F3D56"/>
<path d="M158.879 61.7366L139.664 69.3591L138.226 69.9343C138.168 69.9631 138.14 69.9631 138.082 69.9919L133.221 71.4301C132.588 71.6027 131.754 70.7685 131.236 70.1932C130.718 69.6179 130.718 68.755 131.207 68.151C131.265 68.0647 131.351 68.0072 131.438 67.9496C131.639 67.8058 131.84 67.7195 132.07 67.662L136.932 66.7128C137.104 66.684 137.277 66.6265 137.421 66.5402L139.693 65.217L151.429 58.3712C152.09 57.9685 152.407 57.1631 152.119 56.4152L149.875 50.5186C149.588 49.7707 149.904 48.9365 150.623 48.5626L154.334 46.5779C155.11 46.1752 156.06 46.4628 156.491 47.2395C156.549 47.3545 156.606 47.4696 156.635 47.5846L159.857 59.8669C160.029 60.6148 159.626 61.4202 158.879 61.7366Z" fill="#FFB9B9"/>
<path d="M160 45.2259C155.8 46.8654 152.464 49.6556 149.875 53.4237L141.677 41.5441L147.516 30.4411L160 45.2259Z" fill="#E6E6E6"/>
<path d="M137.363 22.2146C133.537 23.7966 129.51 23.7391 125.311 22.2146C126.519 20.1436 124.707 18.5041 123.786 16.4043L139.434 15.944C138.226 17.7849 136.471 19.9423 137.363 22.2146Z" fill="#99DDD0"/>
<path d="M139.261 16.2893L139.089 16.1167L139.319 15.8578L140.872 14.0744L141.045 14.247L139.52 16.0304L139.261 16.2893Z" fill="white"/>
<path d="M122.725 15.2253L122.559 15.4242L124.106 16.7132L124.272 16.5144L122.725 15.2253Z" fill="white"/>
<path d="M139.688 17.8081L137 22.0303L137.219 22.1693L139.907 17.9471L139.688 17.8081Z" fill="white"/>
<path d="M123.008 17.8153L122.79 17.9543L125.477 22.177L125.695 22.038L123.008 17.8153Z" fill="white"/>
<path d="M140.182 64.843V69.474L138.571 70.1068C138.513 70.1356 138.456 70.1356 138.427 70.1643L133.019 71.7463C132.329 71.9477 131.38 71.0272 130.805 70.3657C130.229 69.7329 130.201 68.7549 130.747 68.0933C130.833 68.007 130.891 67.9207 131.006 67.8632C131.207 67.6906 131.466 67.6043 131.725 67.5468L137.133 66.4825C137.334 66.4537 137.507 66.3675 137.679 66.2812L140.182 64.843Z" fill="#99DDD0"/>
<path d="M142.541 48.2749H141.62C141.62 35.1585 138.917 26.0403 136.299 26.0403L136.069 25.1198C138.428 25.1198 139.923 28.9167 140.786 32.1095C141.908 36.4241 142.541 42.1769 142.541 48.2749Z" fill="#3F3D56"/>
<path d="M121.226 45.0245H120.306C120.306 33.0299 123.009 25.58 127.036 25.58L126.806 26.5004C124.016 26.5004 121.226 32.2245 121.226 45.0245Z" fill="#3F3D56"/>
<path d="M142.08 50.835C143.367 50.835 144.41 49.7918 144.41 48.5051C144.41 47.2183 143.367 46.1752 142.08 46.1752C140.794 46.1752 139.75 47.2183 139.75 48.5051C139.75 49.7918 140.794 50.835 142.08 50.835Z" fill="#3F3D56"/>
<path d="M117.516 50.6048H116.595C116.595 47.297 118.465 44.5931 120.766 44.5931V45.5136C118.983 45.5136 117.516 47.786 117.516 50.6048Z" fill="#3F3D56"/>
<path d="M124.937 50.6047H124.016C124.016 47.7859 122.549 45.5135 120.766 45.5135V44.593C123.067 44.5643 124.937 47.2681 124.937 50.6047Z" fill="#3F3D56"/>
<path d="M124.477 51.7553C124.985 51.7553 125.397 51.3432 125.397 50.8349C125.397 50.3265 124.985 49.9144 124.477 49.9144C123.968 49.9144 123.556 50.3265 123.556 50.8349C123.556 51.3432 123.968 51.7553 124.477 51.7553Z" fill="#3F3D56"/>
<path d="M117.056 51.7553C117.564 51.7553 117.976 51.3432 117.976 50.8349C117.976 50.3265 117.564 49.9144 117.056 49.9144C116.547 49.9144 116.135 50.3265 116.135 50.8349C116.135 51.3432 116.547 51.7553 117.056 51.7553Z" fill="#3F3D56"/>
</svg>
