<svg width="180" height="207" viewBox="0 0 180 207" fill="none" xmlns="http://www.w3.org/2000/svg">
<path d="M59.6747 106.36C51.2291 115.658 49.4141 127.808 49.4141 127.808C49.4141 127.808 61.3416 124.881 69.7872 115.584C78.2328 106.286 80.0479 94.1364 80.0479 94.1364C80.0479 94.1364 68.1574 97.0627 59.6747 106.36Z" fill="#26D444"/>
<path d="M50.1549 93.2474H47.8213V145.551H50.1549V93.2474Z" fill="#535461"/>
<path d="M64.7497 145.403L64.6015 147.773L64.3793 151.107L64.3052 152.478L64.0829 155.812L64.0088 157.182L63.7866 160.516L61.4529 198.336C61.2307 201.707 58.4525 204.337 55.0817 204.337H42.8948C39.487 204.337 36.7088 201.707 36.5236 198.299L34.19 160.479L33.9677 157.145L33.8936 155.775L33.6714 152.441L33.5973 151.07L33.375 147.736L33.2269 145.366C33.1157 143.514 34.5233 141.958 36.3754 141.847C36.4495 141.847 36.4866 141.847 36.5606 141.847H61.4529C63.305 141.847 64.7867 143.365 64.7497 145.218C64.7497 145.255 64.7497 145.329 64.7497 145.403Z" fill="#3F3D56"/>
<path d="M29.8559 112.843C43.3763 122.622 49.0067 137.92 49.0067 137.92C49.0067 137.92 32.7082 137.365 19.1878 127.585C5.66744 117.806 0 102.508 0 102.508C0 102.508 16.2985 103.064 29.8559 112.843Z" fill="#26D444"/>
<path d="M38.5609 93.1363C45.9322 98.4703 49.0067 106.805 49.0067 106.805C49.0067 106.805 40.1166 106.508 32.7823 101.174C25.448 95.8403 22.3364 87.5059 22.3364 87.5059C22.3364 87.5059 31.1895 87.8022 38.5609 93.1363Z" fill="#26D444"/>
<path d="M137.426 91.7286H96.6799V137.29H137.426V91.7286Z" fill="#CCCCCC"/>
<path d="M117.571 192.928L116.868 202.484C116.757 204.151 118.016 205.633 119.683 205.744C119.831 205.744 119.942 205.744 120.09 205.744L125.017 205.448C125.869 205.411 126.536 204.67 126.462 203.818C126.462 203.707 126.425 203.633 126.425 203.522L123.683 192.594L117.571 192.928Z" fill="#E6E6E6"/>
<path d="M158.688 198.595C164.467 199.966 168.615 201.855 171.32 204.485C172.283 205.411 173.542 205.929 174.876 206.003C176.58 206.078 177.987 205.892 179.024 205.448C179.58 205.226 179.95 204.707 179.987 204.077C180.061 203.485 179.802 202.892 179.284 202.522L165.578 192.742L159.762 195.076L158.392 196.447C157.873 196.965 157.873 197.817 158.392 198.336C158.503 198.447 158.577 198.521 158.688 198.595Z" fill="#E6E6E6"/>
<path d="M140.908 42.3145L101.681 41.944C101.792 36.2396 103.125 30.6092 106.015 25.6085C107.941 22.3117 107.867 18.7187 107.422 15.7182C106.718 11.0509 108.348 6.27251 112.015 3.30914C114.831 1.04957 118.35 -0.135776 121.943 0.0123922L122.721 0.0494343C127.758 0.271687 132.352 3.0128 134.907 7.38377C136.167 9.68038 136.685 12.3104 136.389 14.9033C136.13 17.3481 136.722 19.8299 138.13 22.3117C140.501 27.794 141.019 34.7949 140.908 42.3145Z" fill="#2F2E41"/>
<path d="M167.134 193.261L159.429 195.261L121.943 113.62L124.276 193.261H116.572C108.348 155.774 93.4943 112.546 100.162 98.8777L139.982 96.5441L167.134 193.261Z" fill="#284940"/>
<path d="M121.609 28.6088C127.338 28.6088 131.981 23.9652 131.981 18.237C131.981 12.5088 127.338 7.86523 121.609 7.86523C115.881 7.86523 111.238 12.5088 111.238 18.237C111.238 23.9652 115.881 28.6088 121.609 28.6088Z" fill="#FFB9B9"/>
<path d="M130.647 37.3137L113.571 36.3136C115.238 32.4612 115.905 28.794 115.238 25.275H127.943C127.943 27.9791 129.277 32.6464 130.647 37.3137Z" fill="#FFB9B9"/>
<path d="M141.353 99.5816L103.866 102.249L107.718 35.8321L114.238 33.98L121.609 35.6469L128.981 31.9797L133.648 33.6466L141.353 99.5816Z" fill="#00BF20"/>
<path d="M110.237 147.44L84.6411 141.587C92.2718 116.362 105.977 58.576 101.532 38.0176L114.905 31.9797L110.237 147.44Z" fill="#E6E6E6"/>
<path d="M97.8652 74.467L88.1602 68.4662L96.4205 44.2407C97.3466 41.7218 99.1246 39.6475 101.421 38.3139L104.199 36.6841L102.532 61.0948L97.8652 74.467Z" fill="#E6E6E6"/>
<path d="M163.615 141.921C155.54 146.588 135.352 149.218 126.462 145.921C125.795 123.103 124.535 58.6129 128.647 31.3129L143.39 37.3507L142.056 55.4273C134.981 70.8738 155.429 124.696 163.615 141.921Z" fill="#E6E6E6"/>
<path d="M162.429 71.4665L153.391 68.4661L141.353 54.7235L143.353 37.3137L163.43 65.4287L162.429 71.4665Z" fill="#E6E6E6"/>
<path d="M134.129 84.4683C134.426 85.8018 135.796 86.6538 137.13 86.3575L144.798 84.6165L143.686 79.7269L136.019 81.4679C134.685 81.8013 133.833 83.1348 134.129 84.4683Z" fill="#FFB9B9"/>
<path d="M130.648 15.57C124.869 13.1993 119.202 13.0141 113.571 15.2366L111.238 6.86511H132.648L130.648 15.57Z" fill="#2F2E41"/>
<path d="M141.019 78.8379L145.353 86.8761C152.688 84.8388 159.022 78.3934 165.097 70.7998L163.43 65.4287L153.058 68.0957L141.019 78.8379Z" fill="#E6E6E6"/>
<path d="M137.834 62.2431H136.5C136.5 43.3146 132.611 30.1276 128.795 30.1276L128.462 28.7941C131.87 28.7941 134.055 34.2763 135.278 38.9066C136.945 45.1296 137.834 53.4271 137.834 62.2431Z" fill="#3F3D56"/>
<path d="M107.052 57.5758H105.718C105.718 40.2401 109.644 29.4608 115.423 29.4608L115.09 30.7943C111.089 30.7943 107.052 39.0918 107.052 57.5758Z" fill="#3F3D56"/>
<path d="M140.455 63.1336C140.75 61.3161 139.516 59.6037 137.698 59.3087C135.881 59.0137 134.168 60.248 133.873 62.0654C133.578 63.8829 134.813 65.5953 136.63 65.8903C138.448 66.1852 140.16 64.951 140.455 63.1336Z" fill="#3F3D56"/>
<path d="M101.718 65.614H100.384C100.384 60.7985 103.088 56.9091 106.422 56.9091V58.2426C103.792 58.2426 101.718 61.5393 101.718 65.614Z" fill="#3F3D56"/>
<path d="M112.423 65.614H111.089C111.089 61.5393 108.978 58.2426 106.422 58.2426V56.9091C109.719 56.9091 112.423 60.7985 112.423 65.614Z" fill="#3F3D56"/>
<path d="M111.756 67.2808C112.492 67.2808 113.089 66.6838 113.089 65.9473C113.089 65.2108 112.492 64.6138 111.756 64.6138C111.019 64.6138 110.422 65.2108 110.422 65.9473C110.422 66.6838 111.019 67.2808 111.756 67.2808Z" fill="#3F3D56"/>
<path d="M101.051 67.2808C101.787 67.2808 102.384 66.6838 102.384 65.9473C102.384 65.2108 101.787 64.6138 101.051 64.6138C100.314 64.6138 99.7173 65.2108 99.7173 65.9473C99.7173 66.6838 100.314 67.2808 101.051 67.2808Z" fill="#3F3D56"/>
<path d="M84.3079 53.6123L92.6423 55.131L111.756 82.2458L101.607 79.8752L84.3079 53.6123Z" fill="#00BF20"/>
<path d="M82.8261 53.2789C82.4187 53.2789 82.1223 53.6123 82.1223 53.9827C82.1223 54.1309 82.1594 54.242 82.2334 54.3531L100.088 81.4309C100.199 81.5791 100.347 81.6902 100.532 81.7273L108.83 83.6905C109.2 83.7646 109.608 83.5423 109.682 83.1719C109.719 82.9867 109.682 82.7644 109.571 82.6163L89.9752 54.7606C89.8641 54.6124 89.7159 54.5013 89.5307 54.4643L82.9743 53.2789C82.9002 53.316 82.8632 53.2789 82.8261 53.2789Z" fill="#3F3D56"/>
<path d="M93.9387 72.6519L94.4203 77.6526L102.236 76.8747C103.607 76.7265 104.607 75.5042 104.496 74.1336C104.348 72.763 103.125 71.7629 101.755 71.874L93.9387 72.6519Z" fill="#FFB9B9"/>
<path d="M87.1602 72.0592C87.1972 75.6152 90.0494 78.4675 93.6055 78.4675H94.902L95.828 70.6516L88.0862 67.8734L87.1602 72.0592Z" fill="#E6E6E6"/>
<path d="M77.8255 205.818H57.0819L54.8594 188.038H80.048L77.8255 205.818Z" fill="#E6E6E6"/>
<path d="M51.7479 181.445C57.0819 188.594 68.1946 189.335 68.1946 189.335C68.1946 189.335 70.6393 178.481 65.2682 171.332C59.8971 164.183 48.8215 163.442 48.8215 163.442C48.8215 163.442 46.4138 174.295 51.7479 181.445Z" fill="#00BF20"/>
<path d="M78.9368 184.149C75.4178 188.853 68.0835 189.372 68.0835 189.372C68.0835 189.372 66.4907 182.223 70.0097 177.481C73.5287 172.777 80.863 172.258 80.863 172.258C80.863 172.258 82.4558 179.407 78.9368 184.149Z" fill="#00BF20"/>
</svg>
