<svg width="375" height="23" viewBox="0 0 375 23" fill="none" xmlns="http://www.w3.org/2000/svg">
<path fill-rule="evenodd" clip-rule="evenodd" d="M11.3239 0L22.6478 11.5L11.3239 23L0 11.5L11.3239 0ZM34.3446 0L45.6685 11.5L34.3446 23L23.0207 11.5L34.3446 0ZM195.49 0L206.814 11.5L195.49 23L184.166 11.5L195.49 0ZM57.3653 0L68.6892 11.5L57.3653 23L46.0414 11.5L57.3653 0ZM218.51 0L229.834 11.5L218.51 23L207.186 11.5L218.51 0ZM80.3861 0L91.71 11.5L80.3861 23L69.0622 11.5L80.3861 0ZM241.531 0L252.855 11.5L241.531 23L230.207 11.5L241.531 0ZM264.552 0L275.876 11.5L264.552 23L253.228 11.5L264.552 0ZM126.427 0L137.751 11.5L126.427 23L115.104 11.5L126.427 0ZM287.573 0L298.896 11.5L287.573 23L276.249 11.5L287.573 0ZM149.448 0L160.772 11.5L149.448 23L138.124 11.5L149.448 0ZM310.593 0L321.917 11.5L310.593 23L299.269 11.5L310.593 0ZM333.614 0L344.938 11.5L333.614 23L322.29 11.5L333.614 0ZM356.635 0L367.959 11.5L356.635 23L345.311 11.5L356.635 0ZM379.655 0L390.979 11.5L379.655 23L368.331 11.5L379.655 0ZM424.324 0L435.648 11.5L424.324 23L413.499 12.007L402.676 23L391.352 11.5L402.676 0L413.499 10.992L424.324 0ZM815.676 0L827 11.5L815.676 23L804.352 11.5L815.676 0ZM792.655 0L803.979 11.5L792.655 23L781.331 11.5L792.655 0ZM447.345 0L458.669 11.5L447.345 23L436.021 11.5L447.345 0ZM608.49 0L619.814 11.5L608.49 23L597.166 11.5L608.49 0ZM470.365 0L481.689 11.5L470.365 23L459.041 11.5L470.365 0ZM631.51 0L642.834 11.5L631.51 23L620.186 11.5L631.51 0ZM493.386 0L504.71 11.5L493.386 23L482.062 11.5L493.386 0ZM654.531 0L665.855 11.5L654.531 23L643.207 11.5L654.531 0ZM677.552 0L688.876 11.5L677.552 23L666.228 11.5L677.552 0ZM539.427 0L550.751 11.5L539.427 23L528.104 11.5L539.427 0ZM700.573 0L711.896 11.5L700.573 23L689.249 11.5L700.573 0ZM562.448 0L573.772 11.5L562.448 23L551.124 11.5L562.448 0ZM723.593 0L734.917 11.5L723.593 23L712.269 11.5L723.593 0ZM746.614 0L757.938 11.5L746.614 23L735.29 11.5L746.614 0ZM769.635 0L780.959 11.5L769.635 23L758.311 11.5L769.635 0ZM103.407 0L114.731 11.5L103.407 23L92.0829 11.5L103.407 0ZM172.469 0L183.793 11.5L172.469 23L161.145 11.5L172.469 0ZM585.469 0L596.793 11.5L585.469 23L574.145 11.5L585.469 0ZM516.407 0L527.731 11.5L516.407 23L505.083 11.5L516.407 0Z" fill="white"/>
</svg>
