<svg width="170" height="118" viewBox="0 0 170 118" fill="none" xmlns="http://www.w3.org/2000/svg">
<path d="M142.041 18.1443L128.927 18.2717C128.311 15.2456 126.24 7.30553 128.105 5.1398C128.19 4.32468 128.587 3.57366 129.213 3.04308C129.839 2.5125 130.647 2.24325 131.467 2.29138C133.5 -0.881442 136.885 -0.405064 139.174 1.5765C141.477 2.3689 142.345 3.77665 142.041 5.68704C143.747 7.17572 144.061 8.98691 143.296 11.0486L142.041 18.1443Z" fill="#2F2E41"/>
<path d="M140.779 26.2003L131.317 24.8939L129.425 22.136C132.032 20.4118 132.954 18.0035 131.754 14.7332L138.304 14.588C137.997 17.5003 138.963 19.7552 141.652 21.1199L140.779 26.2003Z" fill="#FFB9B9"/>
<path d="M129.08 111.302L128.719 116.234C128.702 116.457 128.734 116.681 128.811 116.891C128.889 117.101 129.011 117.292 129.169 117.452C129.326 117.611 129.516 117.735 129.726 117.815C129.936 117.895 130.16 117.929 130.384 117.916L132.924 117.762C133.042 117.755 133.157 117.722 133.26 117.666C133.364 117.609 133.454 117.531 133.523 117.436C133.593 117.341 133.641 117.232 133.664 117.117C133.687 117.002 133.683 116.883 133.655 116.769L132.245 111.144L129.08 111.302Z" fill="#E6E6E6"/>
<path d="M137.305 111.144L135.895 116.769C135.866 116.883 135.863 117.002 135.886 117.117C135.908 117.232 135.956 117.341 136.026 117.436C136.096 117.531 136.186 117.609 136.289 117.666C136.393 117.722 136.507 117.755 136.625 117.762L139.165 117.916C139.389 117.929 139.614 117.895 139.823 117.815C140.033 117.735 140.223 117.611 140.381 117.452C140.539 117.292 140.66 117.101 140.738 116.891C140.816 116.681 140.847 116.457 140.831 116.234L140.469 111.302L137.305 111.144Z" fill="#E6E6E6"/>
<path d="M140.633 111.986L137.205 111.643L133.792 75.2625L132.502 111.526L129.134 111.406L123.457 61.1824H145.146L140.633 111.986Z" fill="#029636"/>
<path d="M135.393 17.0556C139.011 17.0556 141.943 14.1312 141.943 10.5237C141.943 6.91619 139.011 3.99174 135.393 3.99174C131.775 3.99174 128.843 6.91619 128.843 10.5237C128.843 14.1312 131.775 17.0556 135.393 17.0556Z" fill="#FFB9B9"/>
<path d="M148.348 62.3437L121.856 62.634C125.787 47.7088 128.139 33.8446 124.039 24.3133L130.589 21.1199C133.748 24.405 137.265 24.0663 141.07 20.8296L147.329 22.4263C146.257 34.9251 146.737 48.3115 148.348 62.3437Z" fill="#029636"/>
<path d="M114.578 46.9574L131.026 53.4893L134.704 54.5679C134.868 54.6162 135.041 54.6307 135.211 54.6108C135.381 54.5909 135.546 54.5368 135.694 54.4519C135.843 54.3669 135.973 54.2529 136.077 54.1165C136.18 53.9802 136.255 53.8244 136.297 53.6586C136.37 53.3677 136.337 53.0605 136.204 52.7914C136.072 52.5224 135.848 52.3088 135.572 52.1887L131.754 51.0217L120.255 44.3446L122.656 38.0304L117.634 35.3451L114.578 46.9574Z" fill="#FFB9B9"/>
<path d="M114.723 35.0547C117.853 36.2722 120.342 38.35 122.292 41.1512L128.406 32.2968L124.039 24.3133L114.723 35.0547Z" fill="#029636"/>
<path d="M142.776 9.46506C140.117 8.78198 137.503 8.68819 134.962 9.55462C133.344 10.3363 131.4 10.2643 129.238 9.62023V3.1033L140.908 3.41363L142.776 9.46506Z" fill="#2F2E41"/>
<path d="M130.972 39.3468C130.457 39.3474 129.964 39.5514 129.6 39.9141C129.237 40.2768 129.032 40.7685 129.031 41.2814L129.797 57.2664C129.798 57.7794 130.002 58.2711 130.366 58.6338C130.73 58.9965 131.223 59.2005 131.737 59.201H140.492C141.007 59.2005 141.5 58.9965 141.864 58.6338C142.227 58.2711 142.432 57.7794 142.432 57.2664L143.198 41.2814C143.198 40.7685 142.993 40.2768 142.629 39.9141C142.266 39.5514 141.772 39.3474 141.258 39.3468H130.972Z" fill="#3F3D56"/>
<path d="M155.812 45.7498L141.475 51.4426L140.393 51.8721C140.359 51.8855 140.325 51.897 140.288 51.9084L136.664 52.9718C136.201 53.1073 135.56 52.485 135.184 52.0554C134.999 51.8484 134.893 51.5819 134.888 51.3041C134.882 51.0264 134.976 50.7558 135.154 50.5415C135.204 50.484 135.259 50.4309 135.318 50.3831C135.458 50.2747 135.622 50.2025 135.797 50.1731L139.417 49.4629C139.547 49.4375 139.672 49.3911 139.787 49.3255L141.475 48.3442L150.241 43.2547C150.485 43.1134 150.671 42.8903 150.765 42.6253C150.859 42.3603 150.856 42.0705 150.756 41.8076L149.083 37.4072C148.98 37.138 148.98 36.8407 149.081 36.5709C149.182 36.3011 149.378 36.0772 149.632 35.9411L152.404 34.4596C152.563 34.3748 152.739 34.327 152.918 34.3197C153.098 34.3124 153.277 34.3459 153.442 34.4176C153.606 34.4892 153.753 34.5973 153.869 34.7335C153.986 34.8698 154.071 35.0307 154.116 35.2042L156.522 44.3447C156.596 44.625 156.565 44.9226 156.434 45.1814C156.303 45.4403 156.082 45.6424 155.812 45.7498Z" fill="#FFB9B9"/>
<path d="M156.645 33.458C153.515 34.6755 151.026 36.7533 149.076 39.5545L142.962 30.7001L147.329 22.4263L156.645 33.458Z" fill="#029636"/>
<path d="M139.752 16.3374C136.887 17.5261 133.882 17.4778 130.755 16.3374C131.665 14.7884 130.304 13.5753 129.606 12.0116L141.284 11.6655C140.391 13.0239 139.073 14.6288 139.752 16.3374Z" fill="white"/>
<path d="M141.16 11.924L141.025 11.789L141.216 11.5981L142.36 10.2671L142.505 10.3912L141.357 11.7275L141.16 11.924Z" fill="white"/>
<path d="M128.806 11.1149L128.683 11.2616L129.832 12.2162L129.954 12.0694L128.806 11.1149Z" fill="white"/>
<path d="M141.49 13.0463L139.479 16.196L139.641 16.2985L141.652 13.1488L141.49 13.0463Z" fill="white"/>
<path d="M129.017 13.0461L128.855 13.1486L130.865 16.2985L131.027 16.196L129.017 13.0461Z" fill="white"/>
<path d="M141.858 48.0742V51.5327L140.651 52.0122C140.612 52.0271 140.574 52.0399 140.533 52.0527L136.488 53.2396C135.971 53.3909 135.255 52.6962 134.836 52.2168C134.629 51.9857 134.511 51.6882 134.505 51.3782C134.499 51.0681 134.604 50.7661 134.802 50.5269C134.858 50.4626 134.919 50.4035 134.986 50.35C135.142 50.229 135.325 50.1485 135.52 50.1156L139.561 49.3229C139.706 49.2945 139.845 49.2427 139.973 49.1695L141.858 48.0742Z" fill="white"/>
<path d="M143.608 35.7379H142.916C142.916 25.9806 140.901 19.1809 138.938 19.1809L138.765 18.491C140.526 18.491 141.648 21.321 142.28 23.6952C143.136 26.9137 143.608 31.1906 143.608 35.7379Z" fill="#3F3D56"/>
<path d="M127.696 33.3234H127.004C127.004 24.3872 129.033 18.836 132.02 18.836L131.847 19.5258C129.781 19.5258 127.696 23.7922 127.696 33.3234Z" fill="#3F3D56"/>
<path d="M143.262 37.6351C144.217 37.6351 144.991 36.8629 144.991 35.9104C144.991 34.9579 144.217 34.1857 143.262 34.1857C142.307 34.1857 141.532 34.9579 141.532 35.9104C141.532 36.8629 142.307 37.6351 143.262 37.6351Z" fill="#3F3D56"/>
<path d="M124.929 37.4626H124.237C124.237 34.99 125.634 32.9784 127.35 32.9784V33.6683C126.015 33.6683 124.929 35.3704 124.929 37.4626Z" fill="#3F3D56"/>
<path d="M130.464 37.4626H129.772C129.772 35.3704 128.686 33.6683 127.35 33.6683V32.9784C129.067 32.9784 130.464 34.99 130.464 37.4626Z" fill="#3F3D56"/>
<path d="M130.118 38.325C130.5 38.325 130.809 38.0161 130.809 37.6351C130.809 37.2541 130.5 36.9452 130.118 36.9452C129.736 36.9452 129.426 37.2541 129.426 37.6351C129.426 38.0161 129.736 38.325 130.118 38.325Z" fill="#3F3D56"/>
<path d="M124.583 38.325C124.965 38.325 125.275 38.0161 125.275 37.6351C125.275 37.2541 124.965 36.9452 124.583 36.9452C124.201 36.9452 123.891 37.2541 123.891 37.6351C123.891 38.0161 124.201 38.325 124.583 38.325Z" fill="#3F3D56"/>
<path d="M41.2118 14.4511L29.0618 16.5029C28.7617 16.5539 28.4532 16.4921 28.1961 16.3295C27.939 16.1668 27.7515 15.9148 27.67 15.6223C26.7922 12.4629 24.9569 8.34135 26.7388 6.27235C26.8296 5.40194 27.2535 4.59997 27.9223 4.03339C28.5911 3.46682 29.4533 3.1793 30.3294 3.23069C32.4999 -0.157382 36.1152 0.351315 38.5586 2.46731C41.0178 3.31347 41.9449 4.81673 41.6207 6.85671C42.6831 7.78402 43.24 8.82852 43.3575 9.97495C43.4132 10.6129 43.3318 11.2554 43.1187 11.8595C42.9057 12.4636 42.5658 13.0154 42.122 13.4782L41.2118 14.4511Z" fill="#2F2E41"/>
<path d="M39.3226 23.9897L29.9036 23.4372C30.8266 21.3245 31.1954 19.29 30.827 17.3596H37.8451C37.8292 18.8418 38.5688 21.4056 39.3226 23.9897Z" fill="#9F616A"/>
<path d="M27.9848 110.781L27.5985 116.047C27.581 116.286 27.6148 116.525 27.6977 116.749C27.7806 116.973 27.9106 117.177 28.079 117.348C28.2475 117.518 28.4504 117.65 28.6743 117.735C28.8981 117.821 29.1377 117.857 29.377 117.843L32.0897 117.679C32.2154 117.672 32.3379 117.636 32.4485 117.576C32.559 117.516 32.6549 117.432 32.7294 117.331C32.8038 117.23 32.855 117.113 32.8792 116.99C32.9035 116.867 32.9002 116.74 32.8697 116.618L31.3639 110.612L27.9848 110.781Z" fill="#E6E6E6"/>
<path d="M36.7672 110.612L35.2614 116.618C35.2309 116.74 35.2276 116.867 35.2519 116.99C35.2762 117.113 35.3273 117.23 35.4018 117.331C35.4762 117.432 35.5721 117.516 35.6827 117.576C35.7932 117.636 35.9157 117.672 36.0414 117.679L38.7542 117.843C38.9934 117.857 39.233 117.821 39.4569 117.735C39.6807 117.65 39.8837 117.518 40.0521 117.348C40.2205 117.177 40.3506 116.973 40.4334 116.749C40.5163 116.525 40.5501 116.286 40.5327 116.047L40.1463 110.781L36.7672 110.612Z" fill="#E6E6E6"/>
<path d="M40.3214 111.512L36.6607 111.145L33.016 72.2962L31.6386 111.02L28.042 110.892L21.98 57.261H45.14L40.3214 111.512Z" fill="#029636"/>
<path d="M34.5213 19.5953C38.3843 19.5953 41.5159 16.4725 41.5159 12.6202C41.5159 8.768 38.3843 5.64515 34.5213 5.64515C30.6582 5.64515 27.5266 8.768 27.5266 12.6202C27.5266 16.4725 30.6582 19.5953 34.5213 19.5953Z" fill="#9F616A"/>
<path d="M42.4046 9.28815C39.5657 8.79512 36.7745 8.72743 34.0612 9.35279C32.3329 9.91701 30.2573 9.86502 27.949 9.40013V4.69644L40.4107 4.92043L42.4046 9.28815Z" fill="#2F2E41"/>
<path d="M39.1763 18.2168C36.1163 19.4861 32.9078 19.4345 29.5681 18.2168C30.5399 16.5627 29.0873 15.2673 28.3416 13.5975L40.8117 13.2279C39.8581 14.6785 38.451 16.3923 39.1763 18.2168Z" fill="white"/>
<path d="M27.483 12.6449L27.3604 12.7917L28.5869 13.8109L28.7095 13.6642L27.483 12.6449Z" fill="white"/>
<path d="M41.0377 14.7057L38.8906 18.0691L39.0522 18.1716L41.1992 14.8083L41.0377 14.7057Z" fill="white"/>
<path d="M27.7067 14.7056L27.5452 14.8081L29.6917 18.1718L29.8532 18.0693L27.7067 14.7056Z" fill="white"/>
<path d="M21.2233 44.4325L15.8674 41.1175L20.4351 27.7772C20.9445 26.4006 21.9203 25.2448 23.1937 24.5097L24.7324 23.6214L24.8662 37.0792L21.2233 44.4325Z" fill="#029636"/>
<path d="M44.374 50.9115L43.5816 44.1435C43.5392 40.5711 44.1487 37.1173 45.6019 33.9348L46.3407 23.9897L38.2145 20.6746C38.1896 20.8398 38.1684 21.0048 38.1446 21.1699L34.3361 23.0688L30.6218 22.2271L30.6423 21.043L23.2549 24.358C25.6979 35.6841 24.3654 47.4457 20.1643 61.3382L29.8966 63.9919L29.9775 59.3318L38.6511 58.714C38.7404 60.2259 38.8122 61.711 38.8539 63.1632C43.7481 64.96 43.9162 64.9302 48.3755 62.3575C46.5997 58.6343 45.1936 54.7599 44.374 50.9115Z" fill="#029636"/>
<path d="M56.868 42.7749L51.8815 41.1175L43.9053 31.858L46.3408 23.9898L57.422 39.46L56.868 42.7749Z" fill="#029636"/>
<path d="M41.2402 49.9435C41.3218 50.3005 41.5421 50.6108 41.8527 50.8061C42.1633 51.0015 42.5389 51.066 42.8972 50.9857L47.1301 50.0297L46.5183 47.3354L42.2853 48.2912C41.927 48.3721 41.6157 48.5917 41.4197 48.9015C41.2237 49.2114 41.1591 49.5862 41.2402 49.9435V49.9435Z" fill="#E6E6E6"/>
<path d="M45.0479 46.8267L47.4488 51.2468C51.4871 50.1236 54.9869 46.5828 58.3453 42.4067L57.4218 39.4599L51.6966 40.9333L45.0479 46.8267Z" fill="#029636"/>
<path d="M13.7437 32.962L18.3528 33.7827L28.888 48.7205L23.2912 47.4072L13.7437 32.962Z" fill="#E6E6E6"/>
<path d="M12.9262 32.7791C12.8559 32.7802 12.7873 32.8 12.7274 32.8366C12.6675 32.8732 12.6185 32.9251 12.5856 32.987C12.5528 33.0489 12.5372 33.1185 12.5405 33.1885C12.5438 33.2585 12.5659 33.3262 12.6045 33.3848L22.4521 48.2843C22.5071 48.3676 22.592 48.4267 22.6893 48.4495L27.2711 49.5244C27.3484 49.5426 27.4293 49.5369 27.5032 49.5081C27.5771 49.4792 27.6405 49.4287 27.685 49.3631C27.7294 49.2976 27.7529 49.2201 27.7521 49.1409C27.7514 49.0618 27.7265 48.9848 27.6809 48.92L16.8688 33.5896C16.8395 33.5479 16.8022 33.5123 16.7591 33.4849C16.7159 33.4575 16.6678 33.4388 16.6175 33.43L13 32.7858C12.9756 32.7814 12.9509 32.7792 12.9262 32.7791Z" fill="#3F3D56"/>
<path d="M19.0691 43.4321L19.3428 46.1811L23.6616 45.7536C24.0272 45.7174 24.3634 45.5379 24.5962 45.2546C24.8291 44.9712 24.9395 44.6072 24.9032 44.2427C24.8669 43.8781 24.6869 43.5429 24.4028 43.3107C24.1186 43.0785 23.7536 42.9684 23.388 43.0046L19.0691 43.4321Z" fill="#E6E6E6"/>
<path d="M15.3135 43.1137C15.3197 44.051 15.6973 44.9479 16.3638 45.6089C17.0303 46.2699 17.9318 46.6415 18.8718 46.6425H19.582L20.099 42.3461L15.8183 40.8094L15.3135 43.1137Z" fill="#029636"/>
<path d="M40.4706 13.7032L40.3352 13.5683L40.5397 13.3644L41.7613 11.9427L41.9066 12.0668L40.68 13.4938L40.4706 13.7032Z" fill="white"/>
<path d="M170 117.618H0V118H170V117.618Z" fill="#3F3D56"/>
<path d="M64.8987 117.427H105.101V68.8005C105.101 66.2256 102.558 64.1308 99.432 64.1308H70.5681C67.4419 64.1308 64.8987 66.2256 64.8987 68.8005V117.427Z" fill="#E6E6E6"/>
<path d="M67.9617 115.416H102.038V74.1994C102.038 72.0169 99.8825 70.2414 97.2328 70.2414H72.7672C70.1174 70.2414 67.9617 72.0169 67.9617 74.1994V115.416Z" fill="white"/>
<path d="M64.5949 60.3465C63.6012 60.3465 62.7927 61.0124 62.7927 61.8308V66.1155C62.7927 66.9339 63.6012 67.5998 64.5949 67.5998H105.405C106.399 67.5998 107.207 66.9339 107.207 66.1155V61.8308C107.207 61.0124 106.399 60.3465 105.405 60.3465H64.5949Z" fill="#3F3D56"/>
<path d="M72.9738 110.131C72.5072 110.133 72.0602 110.318 71.7303 110.647C71.4004 110.976 71.2145 111.422 71.2131 111.887C71.2145 112.352 71.4004 112.798 71.7303 113.127C72.0602 113.456 72.5072 113.641 72.9738 113.643H76.2693V110.131H72.9738Z" fill="#3F3D56"/>
<path d="M79.2941 110.131H76.0889V113.643H79.2941C79.7606 113.641 80.2077 113.456 80.5375 113.127C80.8674 112.798 81.0534 112.352 81.0547 111.887C81.0534 111.422 80.8674 110.976 80.5375 110.647C80.2077 110.318 79.7606 110.133 79.2941 110.131Z" fill="#029636"/>
<path opacity="0.2" d="M80.443 110.561C80.7206 110.879 80.8738 111.286 80.8742 111.707C80.8728 112.172 80.6869 112.618 80.357 112.947C80.0271 113.276 79.5801 113.461 79.1135 113.463H76.0889V113.643H79.2941C79.7606 113.641 80.2077 113.456 80.5375 113.127C80.8674 112.798 81.0534 112.352 81.0547 111.887C81.0543 111.635 80.9994 111.386 80.8939 111.158C80.7883 110.929 80.6345 110.725 80.443 110.561Z" fill="black"/>
<path d="M87.8451 83.6859C87.5241 83.3483 87.0821 83.1511 86.6158 83.1374C86.1495 83.1237 85.6967 83.2945 85.3562 83.6127C85.0177 83.9328 84.82 84.3734 84.8062 84.8385C84.7924 85.3035 84.9638 85.755 85.2828 86.0945L87.5433 88.4858L90.1056 86.0773L87.8451 83.6859Z" fill="#3F3D56"/>
<path d="M92.1803 88.272L89.9817 85.9462L87.4194 88.3548L89.618 90.6806C89.939 91.0182 90.3809 91.2154 90.8473 91.2291C91.3136 91.2429 91.7664 91.072 92.1068 90.7539C92.4454 90.4338 92.6431 89.9931 92.6569 89.5281C92.6707 89.0631 92.4993 88.6115 92.1803 88.272Z" fill="#029636"/>
<path opacity="0.2" d="M92.6546 89.4006C92.6134 89.8199 92.4215 90.2101 92.1144 90.4993C91.774 90.8175 91.3211 90.9883 90.8548 90.9746C90.3885 90.9609 89.9466 90.7637 89.6256 90.4261L87.5508 88.2313L87.4194 88.3548L89.618 90.6806C89.939 91.0182 90.3809 91.2154 90.8473 91.2291C91.3136 91.2429 91.7664 91.072 92.1068 90.7539C92.2903 90.5809 92.4342 90.3704 92.5287 90.1369C92.6233 89.9033 92.6662 89.6522 92.6546 89.4006Z" fill="black"/>
<path d="M78.4644 89.2222C78.1434 88.8846 77.7015 88.6874 77.2352 88.6737C76.7689 88.66 76.316 88.8308 75.9756 89.1489C75.6371 89.469 75.4393 89.9097 75.4256 90.3747C75.4118 90.8398 75.5831 91.2913 75.9022 91.6308L78.1627 94.0221L80.725 91.6135L78.4644 89.2222Z" fill="#3F3D56"/>
<path d="M82.7997 93.8083L80.6011 91.4825L78.0388 93.8911L80.2374 96.2169C80.5584 96.5545 81.0003 96.7517 81.4666 96.7654C81.933 96.7792 82.3858 96.6083 82.7262 96.2902C83.0648 95.9701 83.2625 95.5294 83.2763 95.0644C83.29 94.5994 83.1187 94.1478 82.7997 93.8083Z" fill="#029636"/>
<path opacity="0.2" d="M83.274 94.9369C83.2327 95.3562 83.0409 95.7464 82.7337 96.0356C82.3933 96.3537 81.9405 96.5246 81.4742 96.5109C81.0079 96.4971 80.5659 96.2999 80.2449 95.9623L78.1702 93.7676L78.0388 93.8911L80.2374 96.2169C80.5584 96.5545 81.0003 96.7517 81.4666 96.7654C81.933 96.7792 82.3858 96.6083 82.7262 96.2902C82.9097 96.1171 83.0536 95.9067 83.1481 95.6731C83.2427 95.4396 83.2856 95.1885 83.274 94.9369Z" fill="black"/>
<path d="M87.8451 94.3766C87.5241 94.0391 87.0821 93.8419 86.6158 93.8281C86.1495 93.8144 85.6967 93.9853 85.3562 94.3034C85.0177 94.6235 84.82 95.0642 84.8062 95.5292C84.7924 95.9942 84.9638 96.4458 85.2828 96.7852L87.5433 99.1766L90.1056 96.768L87.8451 94.3766Z" fill="#3F3D56"/>
<path d="M92.1803 98.9628L89.9817 96.637L87.4194 99.0455L89.618 101.371C89.939 101.709 90.3809 101.906 90.8473 101.92C91.3136 101.934 91.7664 101.763 92.1068 101.445C92.4454 101.125 92.6431 100.684 92.6569 100.219C92.6707 99.7538 92.4993 99.3022 92.1803 98.9628Z" fill="#029636"/>
<path opacity="0.2" d="M92.6546 100.091C92.6134 100.511 92.4215 100.901 92.1144 101.19C91.774 101.508 91.3211 101.679 90.8548 101.665C90.3885 101.652 89.9466 101.454 89.6256 101.117L87.5508 98.922L87.4194 99.0455L89.618 101.371C89.939 101.709 90.3809 101.906 90.8473 101.92C91.3136 101.934 91.7664 101.763 92.1068 101.445C92.2903 101.272 92.4342 101.061 92.5287 100.828C92.6233 100.594 92.6662 100.343 92.6546 100.091Z" fill="black"/>
<path d="M93.5677 105.347C93.9023 105.023 94.0946 104.58 94.1027 104.115C94.1108 103.65 93.934 103.2 93.6109 102.865C93.2858 102.531 92.8415 102.339 92.3751 102.331C91.9086 102.323 91.4579 102.5 91.1214 102.822L88.751 105.105L91.1973 107.631L93.5677 105.347Z" fill="#3F3D56"/>
<path d="M89.0219 109.726L91.3274 107.505L88.8811 104.98L86.5756 107.2C86.241 107.524 86.0486 107.968 86.0405 108.433C86.0325 108.898 86.2093 109.347 86.5324 109.683C86.8575 110.016 87.3018 110.208 87.7682 110.216C88.2347 110.224 88.6854 110.048 89.0219 109.726Z" fill="#029636"/>
<path opacity="0.2" d="M87.896 110.213C87.4751 110.177 87.0815 109.99 86.7877 109.687C86.4646 109.352 86.2878 108.902 86.2959 108.437C86.304 107.972 86.4964 107.529 86.831 107.205L89.0065 105.109L88.8811 104.98L86.5756 107.2C86.241 107.524 86.0486 107.968 86.0405 108.433C86.0325 108.898 86.2093 109.347 86.5324 109.683C86.7082 109.864 86.9209 110.005 87.1563 110.096C87.3916 110.187 87.6439 110.227 87.896 110.213Z" fill="black"/>
<path d="M80.9327 99.8112C81.2673 99.487 81.4597 99.0439 81.4678 98.5788C81.4759 98.1136 81.299 97.6642 80.9759 97.3286C80.6508 96.9949 80.2065 96.8031 79.7401 96.795C79.2736 96.787 78.8229 96.9633 78.4864 97.2855L76.116 99.5686L78.5623 102.094L80.9327 99.8112Z" fill="#3F3D56"/>
<path d="M76.3867 104.19L78.6921 101.969L76.2458 99.4435L73.9404 101.664C73.6058 101.988 73.4134 102.431 73.4053 102.896C73.3972 103.362 73.574 103.811 73.8972 104.147C74.2222 104.48 74.6665 104.672 75.133 104.68C75.5994 104.688 76.0502 104.512 76.3867 104.19Z" fill="#029636"/>
<path opacity="0.2" d="M75.2608 104.676C74.8399 104.64 74.4462 104.454 74.1525 104.151C73.8294 103.815 73.6525 103.366 73.6606 102.901C73.6687 102.436 73.8611 101.993 74.1957 101.668L76.3713 99.573L76.2458 99.4435L73.9404 101.664C73.6058 101.988 73.4134 102.431 73.4053 102.896C73.3972 103.362 73.574 103.811 73.8971 104.147C74.0729 104.327 74.2857 104.468 74.521 104.56C74.7563 104.651 75.0086 104.691 75.2608 104.676Z" fill="black"/>
<path d="M98.9283 93.1295C99.2629 92.8053 99.4552 92.3622 99.4633 91.8971C99.4714 91.4319 99.2946 90.9825 98.9715 90.6469C98.6464 90.3132 98.2021 90.1214 97.7356 90.1133C97.2692 90.1053 96.8185 90.2816 96.482 90.6038L94.1116 92.8869L96.5579 95.4125L98.9283 93.1295Z" fill="#3F3D56"/>
<path d="M94.3823 97.508L96.6877 95.2874L94.2414 92.7618L91.936 94.9823C91.6014 95.3065 91.409 95.7495 91.4009 96.2147C91.3928 96.6798 91.5696 97.1293 91.8928 97.4649C92.2178 97.7985 92.6621 97.9904 93.1286 97.9984C93.595 98.0065 94.0458 97.8302 94.3823 97.508Z" fill="#029636"/>
<path opacity="0.2" d="M93.2564 97.9946C92.8355 97.9586 92.4418 97.772 92.1481 97.4693C91.825 97.1337 91.6481 96.6842 91.6562 96.2191C91.6643 95.7539 91.8567 95.3109 92.1913 94.9867L94.3669 92.8913L94.2414 92.7618L91.936 94.9823C91.6014 95.3065 91.409 95.7495 91.4009 96.2147C91.3928 96.6798 91.5696 97.1293 91.8928 97.4648C92.0685 97.6457 92.2813 97.7866 92.5166 97.878C92.7519 97.9695 93.0042 98.0092 93.2564 97.9946Z" fill="black"/>
<path d="M94.9283 106.976C94.6073 106.639 94.1654 106.442 93.6991 106.428C93.2327 106.414 92.7799 106.585 92.4395 106.903C92.101 107.223 91.9032 107.664 91.8894 108.129C91.8757 108.594 92.047 109.046 92.366 109.385L94.6265 111.776L97.1888 109.368L94.9283 106.976Z" fill="#3F3D56"/>
<path d="M99.2636 111.563L97.065 109.237L94.5027 111.645L96.7013 113.971C97.0223 114.309 97.4642 114.506 97.9305 114.52C98.3968 114.533 98.8497 114.363 99.1901 114.044C99.5286 113.724 99.7264 113.284 99.7401 112.819C99.7539 112.354 99.5826 111.902 99.2636 111.563Z" fill="#029636"/>
<path opacity="0.2" d="M99.7378 112.691C99.6966 113.11 99.5047 113.501 99.1976 113.79C98.8572 114.108 98.4044 114.279 97.9381 114.265C97.4717 114.251 97.0298 114.054 96.7088 113.717L94.6341 111.522L94.5027 111.645L96.7013 113.971C97.0223 114.309 97.4642 114.506 97.9305 114.52C98.3968 114.533 98.8496 114.363 99.1901 114.044C99.3735 113.871 99.5175 113.661 99.612 113.427C99.7065 113.194 99.7494 112.943 99.7378 112.691Z" fill="black"/>
<path d="M82.4847 106.786C82.1637 106.448 81.7218 106.251 81.2555 106.237C80.7891 106.223 80.3363 106.394 79.9959 106.712C79.6574 107.032 79.4596 107.473 79.4458 107.938C79.4321 108.403 79.6034 108.855 79.9224 109.194L82.1829 111.585L84.7452 109.177L82.4847 106.786Z" fill="#3F3D56"/>
<path d="M86.8199 111.372L84.6214 109.046L82.0591 111.454L84.2577 113.78C84.5787 114.118 85.0206 114.315 85.4869 114.329C85.9532 114.342 86.4061 114.172 86.7465 113.854C87.085 113.533 87.2828 113.093 87.2965 112.628C87.3103 112.163 87.139 111.711 86.8199 111.372Z" fill="#029636"/>
<path opacity="0.2" d="M87.2942 112.5C87.253 112.919 87.0611 113.31 86.754 113.599C86.4136 113.917 85.9608 114.088 85.4944 114.074C85.0281 114.06 84.5862 113.863 84.2652 113.526L82.1905 111.331L82.0591 111.454L84.2577 113.78C84.5787 114.118 85.0206 114.315 85.4869 114.329C85.9532 114.342 86.406 114.172 86.7465 113.853C86.9299 113.68 87.0738 113.47 87.1684 113.236C87.2629 113.003 87.3058 112.752 87.2942 112.5Z" fill="black"/>
<path d="M85.9874 100.487C85.9875 101.071 85.7854 101.636 85.4152 102.089C85.0451 102.541 84.5296 102.852 83.9561 102.968C83.6209 103.036 83.2756 103.036 82.9405 102.968C82.367 102.851 81.8516 102.541 81.4815 102.088C81.1113 101.636 80.9092 101.071 80.9092 100.487C80.9092 99.9032 81.1113 99.3375 81.4815 98.8853C81.8516 98.4332 82.367 98.1224 82.9405 98.0055C83.2756 97.938 83.6209 97.938 83.9561 98.0055C84.5296 98.1223 85.0451 98.433 85.4152 98.8852C85.7854 99.3374 85.9875 99.9032 85.9874 100.487Z" fill="#029636"/>
<path opacity="0.2" d="M83.9561 98.0055V102.968C83.6209 103.036 83.2756 103.036 82.9404 102.968V98.0055C83.2756 97.938 83.6209 97.938 83.9561 98.0055Z" fill="black"/>
<path d="M87.1361 90.3689C87.1362 90.9526 86.9341 91.5184 86.5639 91.9706C86.1938 92.4228 85.6783 92.7335 85.1048 92.8503C84.7696 92.9178 84.4243 92.9178 84.0892 92.8503C83.5157 92.7334 83.0003 92.4226 82.6302 91.9705C82.26 91.5183 82.0579 90.9526 82.0579 90.3689C82.0579 89.7852 82.26 89.2194 82.6302 88.7673C83.0003 88.3151 83.5157 88.0044 84.0892 87.8875C84.4243 87.82 84.7696 87.82 85.1048 87.8875C85.6783 88.0043 86.1938 88.315 86.5639 88.7672C86.9341 89.2194 87.1362 89.7852 87.1361 90.3689Z" fill="#029636"/>
<path opacity="0.2" d="M85.1047 87.8875V92.8503C84.7696 92.9178 84.4243 92.9178 84.0891 92.8503V87.8875C84.4243 87.82 84.7696 87.82 85.1047 87.8875Z" fill="black"/>
<path d="M87.1361 104.878C87.1362 105.461 86.9341 106.027 86.5639 106.479C86.1938 106.932 85.6783 107.242 85.1048 107.359C84.7696 107.427 84.4243 107.427 84.0892 107.359C83.5157 107.242 83.0003 106.931 82.6302 106.479C82.26 106.027 82.0579 105.461 82.0579 104.878C82.0579 104.294 82.26 103.728 82.6302 103.276C83.0003 102.824 83.5157 102.513 84.0892 102.396C84.4243 102.329 84.7696 102.329 85.1048 102.396C85.6783 102.513 86.1938 102.824 86.5639 103.276C86.9341 103.728 87.1362 104.294 87.1361 104.878Z" fill="#029636"/>
<path opacity="0.2" d="M85.1047 102.396V107.359C84.7696 107.427 84.4243 107.427 84.0891 107.359V102.396C84.4243 102.329 84.7696 102.329 85.1047 102.396Z" fill="black"/>
<path d="M93.4537 111.941C93.4538 112.525 93.2517 113.091 92.8816 113.543C92.5114 113.995 91.9959 114.306 91.4224 114.423C91.0873 114.49 90.7419 114.49 90.4068 114.423C89.8333 114.306 89.3179 113.995 88.9478 113.543C88.5777 113.091 88.3755 112.525 88.3755 111.941C88.3755 111.358 88.5777 110.792 88.9478 110.34C89.3179 109.888 89.8333 109.577 90.4068 109.46C90.7419 109.392 91.0873 109.392 91.4224 109.46C91.9959 109.577 92.5114 109.887 92.8816 110.34C93.2517 110.792 93.4538 111.358 93.4537 111.941Z" fill="#029636"/>
<path opacity="0.2" d="M91.4224 109.46V114.423C91.0872 114.49 90.7419 114.49 90.4067 114.423V109.46C90.7419 109.392 91.0872 109.392 91.4224 109.46Z" fill="black"/>
<path d="M99.0344 98.9452C99.4559 99.3502 99.7241 99.888 99.7937 100.468C99.8633 101.047 99.73 101.633 99.4163 102.126C99.2324 102.413 98.9928 102.661 98.7114 102.855C98.2291 103.186 97.647 103.34 97.0637 103.292C96.4804 103.244 95.9316 102.996 95.5101 102.591C95.0887 102.186 94.8205 101.648 94.7509 101.069C94.6813 100.489 94.8146 99.9037 95.1282 99.4108C95.3121 99.1233 95.5517 98.8754 95.8331 98.6816C96.3154 98.3509 96.8974 98.1964 97.4808 98.2445C98.0642 98.2925 98.613 98.54 99.0344 98.9452Z" fill="#029636"/>
<path opacity="0.2" d="M95.8333 98.6816L99.4165 102.126C99.2326 102.413 98.993 102.661 98.7116 102.855L95.1284 99.4109C95.3123 99.1234 95.5519 98.8754 95.8333 98.6816Z" fill="black"/>
<path d="M99.8002 104.481C100.222 104.886 100.49 105.424 100.56 106.004C100.629 106.583 100.496 107.169 100.182 107.662C99.9983 107.949 99.7587 108.197 99.4773 108.391C98.995 108.722 98.4129 108.876 97.8296 108.828C97.2462 108.78 96.6974 108.533 96.276 108.128C95.8546 107.723 95.5864 107.185 95.5168 106.605C95.4472 106.026 95.5805 105.44 95.8941 104.947C96.0779 104.66 96.3176 104.412 96.5989 104.218C97.0812 103.887 97.6633 103.733 98.2467 103.781C98.83 103.829 99.3789 104.076 99.8002 104.481Z" fill="#029636"/>
<path opacity="0.2" d="M96.5991 104.218L100.182 107.662C99.9985 107.949 99.7588 108.197 99.4775 108.391L95.8943 104.947C96.0781 104.66 96.3178 104.412 96.5991 104.218Z" fill="black"/>
<path d="M77.0187 105.818C77.4402 106.223 77.7085 106.761 77.7781 107.34C77.8477 107.92 77.7143 108.505 77.4006 108.998C77.2168 109.286 76.9771 109.534 76.6958 109.727C76.2135 110.058 75.6314 110.212 75.0481 110.164C74.4647 110.116 73.9159 109.869 73.4945 109.464C73.0731 109.059 72.8049 108.521 72.7353 107.942C72.6657 107.362 72.799 106.776 73.1126 106.283C73.2964 105.996 73.5361 105.748 73.8174 105.554C74.2997 105.223 74.8818 105.069 75.4652 105.117C76.0485 105.165 76.5973 105.413 77.0187 105.818Z" fill="#029636"/>
<path opacity="0.2" d="M73.8176 105.554L77.4008 108.998C77.217 109.286 76.9774 109.534 76.696 109.727L73.1128 106.283C73.2966 105.996 73.5363 105.748 73.8176 105.554Z" fill="black"/>
<path opacity="0.2" d="M68.8232 60.3465H67.866V67.41H68.8232V60.3465Z" fill="black"/>
<path opacity="0.2" d="M74.3749 60.3465H73.4177V67.41H74.3749V60.3465Z" fill="black"/>
<path opacity="0.2" d="M79.9269 60.3465H78.9697V67.41H79.9269V60.3465Z" fill="black"/>
<path opacity="0.2" d="M85.4787 60.3465H84.5215V67.41H85.4787V60.3465Z" fill="black"/>
<path opacity="0.2" d="M91.0304 60.3465H90.0732V67.41H91.0304V60.3465Z" fill="black"/>
<path opacity="0.2" d="M96.5822 60.3465H95.625V67.41H96.5822V60.3465Z" fill="black"/>
<path opacity="0.2" d="M102.134 60.3465H101.177V67.41H102.134V60.3465Z" fill="black"/>
</svg>
