<svg width="34" height="31" viewBox="0 0 34 31" fill="none" xmlns="http://www.w3.org/2000/svg">
<path fill-rule="evenodd" clip-rule="evenodd" d="M19.2478 13.983C20.9375 13.753 21.9966 14.3229 22.5868 14.8407C22.7271 14.9636 22.8445 15.1064 22.9616 15.249C23.4792 15.0183 24.0848 14.8912 24.8148 14.8912C24.8775 14.8912 24.9402 14.8978 25.0013 14.9118C25.802 15.093 26.8033 15.2477 27.0997 15.2857C27.3605 15.2832 28.3676 15.0905 29.1502 14.9118C29.2121 14.8986 29.2748 14.8912 29.3375 14.8912C32.0666 14.8912 33.0348 16.5082 33.0348 17.8936V18.1649C33.0348 21.7051 32.2878 25.0726 30.8296 28.4313C31.5535 28.5751 32.2519 28.6971 33.0026 28.8628C33.4591 28.9637 33.7472 29.4153 33.6465 29.8719C33.5598 30.2673 33.2098 30.5369 32.8219 30.5369C32.7616 30.5369 32.7005 30.5303 32.6394 30.5171C26.7414 29.2152 21.7465 28.6089 16.9191 28.6089C12.1768 28.6089 7.23217 29.2053 1.35892 30.4856C0.899132 30.5841 0.45255 30.2946 0.352668 29.838C0.253611 29.3806 0.543353 28.9298 0.999014 28.8297C1.77094 28.6615 2.48796 28.5371 3.23048 28.3918C1.6951 25.0613 0.909038 21.7034 0.909038 18.155V17.8936C0.909038 16.5082 1.87732 14.8912 4.60716 14.8912C4.6699 14.8912 4.73263 14.8986 4.79372 14.9118C5.57792 15.0905 6.58417 15.2832 6.8442 15.2857C7.12403 15.2857 8.14679 15.0922 8.94255 14.9118C9.00364 14.8978 9.06637 14.8912 9.12911 14.8912C9.86811 14.8912 10.4799 15.0216 11.0012 15.2576C11.1247 15.1017 11.2527 14.9488 11.4033 14.8167C11.977 14.3138 13.0097 13.7621 14.6755 13.983C14.9454 14.0194 15.3144 14.1087 15.704 14.2063C16.1605 14.3213 16.7747 14.4958 17.0157 14.4611C17.2831 14.4586 17.8057 14.3229 18.225 14.2129C18.6097 14.112 18.9762 14.0194 19.2478 13.983ZM29.4275 16.5859C28.9149 16.7009 27.6371 16.9755 27.1129 16.9796C26.5433 17.04 25.2481 16.7026 24.724 16.5859C24.2377 16.5941 23.9181 16.6697 23.6885 16.7646C23.7342 16.9925 23.7623 17.2255 23.7623 17.4627C23.7623 22.6481 22.9091 25.7484 22.3789 27.1895C24.5412 27.3808 26.7736 27.6695 29.1414 28.0961C30.6067 24.8406 31.3443 21.5864 31.3443 18.1649V17.8936C31.3443 16.7679 30.0697 16.5992 29.4275 16.5859ZM9.21991 16.5859C8.69656 16.7025 7.40965 17.0466 6.83099 16.9796C6.30764 16.9755 5.0298 16.7009 4.51719 16.5859C3.87497 16.5992 2.59961 16.7679 2.59961 17.8936V18.155C2.59961 21.585 3.37844 24.8297 4.92776 28.0588C7.27664 27.6423 9.48251 27.363 11.6169 27.1776C11.0864 25.7315 10.2377 22.6347 10.2377 17.4627C10.2377 17.233 10.2663 17.0086 10.3072 16.7884C10.0739 16.6819 9.74388 16.5945 9.21991 16.5859ZM21.4741 16.1161C21.0044 15.7042 20.3102 15.5462 19.474 15.662C19.2552 15.6918 18.9613 15.7712 18.6518 15.8523C18.0888 15.9995 17.5068 16.1509 17.0289 16.155C16.5204 16.1591 15.8988 16.002 15.2937 15.8498C14.9743 15.7696 14.6738 15.6918 14.4518 15.662C13.6296 15.5562 12.9618 15.7017 12.5169 16.0913C12.1429 16.4197 11.9283 16.9193 11.9283 17.4627C11.9283 23.1008 12.9855 26.1125 13.3703 27.0258C14.5703 26.9545 15.7514 26.915 16.9191 26.915C18.1418 26.915 19.3747 26.9542 20.628 27.031C21.0087 26.1285 22.0717 23.1154 22.0717 17.4627C22.0717 16.9399 21.8538 16.4486 21.4741 16.1161ZM6.84089 3.47198C8.09314 3.47198 9.34951 4.03773 10.1205 4.94921C10.7561 5.70106 11.0203 6.63405 10.8643 7.57531L10.4705 10.6613C10.1824 12.5107 8.72545 13.7382 6.84089 13.7382C4.95881 13.7382 3.50433 12.5107 3.21954 10.6844L2.81753 7.54388C2.66565 6.63322 2.9298 5.70023 3.56541 4.94756C4.33475 4.03773 5.5903 3.47198 6.84089 3.47198ZM27.103 3.47198C28.3536 3.47198 29.6091 4.03773 30.3785 4.94756C31.0141 5.70023 31.2782 6.63322 31.1214 7.57531L30.7285 10.6613C30.4396 12.5107 28.9842 13.7382 27.103 13.7382C25.2184 13.7382 23.7615 12.5107 23.4767 10.6844L23.0747 7.54388C22.9236 6.63405 23.1878 5.70106 23.8234 4.94921C24.5944 4.03773 25.8507 3.47198 27.103 3.47198ZM6.84089 5.16591C6.08476 5.16591 5.30551 5.51 4.85563 6.04183C4.537 6.419 4.414 6.84165 4.48994 7.29657L4.8936 10.4462C5.04549 11.4231 5.79337 12.0442 6.84089 12.0442C7.87604 12.0442 8.64373 11.4082 8.79644 10.4231L9.19184 7.32883C9.27192 6.84248 9.14892 6.42065 8.83029 6.04431C8.37958 5.51082 7.59868 5.16591 6.84089 5.16591ZM27.103 5.16591C26.3452 5.16591 25.5643 5.51082 25.1136 6.04431C24.795 6.42065 24.672 6.84248 24.7471 7.2974L25.1507 10.4462C25.3001 11.4082 26.0678 12.0442 27.103 12.0442C28.1505 12.0442 28.8984 11.4231 29.0544 10.4231L29.449 7.32883C29.5299 6.84165 29.4069 6.419 29.0882 6.04183C28.6384 5.51 27.8591 5.16591 27.103 5.16591ZM17.0206 0.0766602C18.4578 0.0766602 19.8982 0.72512 20.7807 1.76894C21.503 2.62336 21.8026 3.68124 21.6251 4.74739L21.1596 8.4016C20.831 10.5066 19.1693 11.9053 17.0206 11.9053C14.8761 11.9053 13.2169 10.5066 12.8916 8.42476L12.4178 4.71596C12.2444 3.67958 12.5441 2.62087 13.2664 1.76646C14.1472 0.724293 15.586 0.0766602 17.0206 0.0766602ZM17.0206 1.7706C16.0837 1.7706 15.1163 2.19904 14.5566 2.86156C14.2768 3.19241 13.9689 3.73996 14.0902 4.46865L14.5657 8.18655C14.7564 9.40737 15.7213 10.2113 17.0206 10.2113C18.3241 10.2113 19.2915 9.40737 19.4855 8.16339L19.9527 4.50091C20.0782 3.74162 19.7703 3.19489 19.4905 2.86405C18.9291 2.19987 17.96 1.7706 17.0206 1.7706Z" fill="#284940"/>
</svg>
