<svg width="34" height="36" viewBox="0 0 34 36" fill="none" xmlns="http://www.w3.org/2000/svg">
<path fill-rule="evenodd" clip-rule="evenodd" d="M24.8359 24.7157C29.9611 24.7157 33.6811 27.167 33.6811 30.5456V31.8713C33.6811 33.6084 32.2895 35.0204 30.5796 35.0204L3.43384 35.0167C1.72395 35.0167 0.333252 33.6047 0.333252 31.8677V30.5419C0.333252 27.3286 4.29828 24.7157 9.17295 24.7157C10.1016 24.7157 11.2228 24.9103 12.212 25.0811L12.8269 25.1839C13.5973 25.3106 14.3614 25.4759 15.1164 25.6779L15.4881 25.7807C16.0179 25.9276 16.5189 26.0671 17.0044 26.0671C17.4656 26.0671 18.274 25.8523 18.9865 25.665L19.7904 25.4575C21.1874 25.1196 23.1966 24.7157 24.8359 24.7157ZM24.8359 26.5959C23.6975 26.5959 22.0582 26.842 20.2208 27.2864L19.454 27.4847C18.5932 27.7124 17.7034 27.9474 17.0044 27.9474C16.2693 27.9474 15.6228 27.7674 14.998 27.593L14.6453 27.4957C13.9473 27.3084 13.2429 27.1578 12.5321 27.0403L11.901 26.9338C10.9841 26.7759 9.94516 26.5959 9.17295 26.5959C5.45026 26.5959 2.1851 28.4395 2.1851 30.5419V31.8677C2.1851 32.5673 2.74572 33.1365 3.43384 33.1365L30.5796 33.1401C31.2686 33.1401 31.8292 32.5709 31.8292 31.8713V30.5456C31.8292 28.2944 28.8227 26.5959 24.8359 26.5959ZM16.999 0.384277C19.4332 0.384277 21.8873 1.50895 23.4036 3.31943C24.656 4.8141 25.1804 6.66957 24.8802 8.54341L24.0158 15.8561C23.4633 19.5339 20.6448 21.9853 16.999 21.9853C13.3586 21.9853 10.5456 19.5339 9.99851 15.8854L9.12322 8.50485C8.82844 6.66682 9.35289 4.80951 10.6052 3.31393C12.1189 1.50711 14.5685 0.384277 16.999 0.384277ZM16.999 2.26454C15.0965 2.26454 13.1877 3.13306 12.0158 4.53224C11.3829 5.28783 10.6848 6.54563 10.957 8.24227L11.8332 15.632C12.2392 18.3377 14.2683 20.105 16.999 20.105C19.7361 20.105 21.7697 18.3377 22.1811 15.6027L23.0465 8.28083C23.3232 6.54838 22.626 5.29242 21.993 4.53775C20.8194 3.13581 18.9051 2.26454 16.999 2.26454Z" fill="#284940"/>
</svg>
