<svg width="35" height="42" viewBox="0 0 35 42" fill="none" xmlns="http://www.w3.org/2000/svg">
<path d="M34.1427 22.9931C34.0278 22.8373 33.8884 22.7011 33.7374 22.5764C33.4503 22.0711 33.1124 21.5445 32.7646 21.0096C32.1952 20.1302 31.0091 18.2993 31.1879 17.8432C31.8343 16.3601 32.0919 15.671 31.9377 13.5268C31.708 10.3342 30.4119 7.17602 28.3825 4.86098C26.1775 2.34589 22.0266 0.844727 17.2785 0.844727C12.8635 0.844727 8.74413 2.13261 6.25689 4.29003C4.27336 6.01106 0.929609 9.64335 0.826289 14.6392C0.796758 16.0207 0.931289 17.2889 1.18066 18.4619C1.19215 18.5144 1.20527 18.5653 1.2184 18.6178C1.97146 22.004 3.68426 24.6192 5.24611 26.998L5.71861 27.7133C6.34042 28.6452 7.04258 29.7002 7.16892 30.6501C7.49704 33.1274 7.14923 35.1583 6.13534 36.6876C5.44301 37.7327 4.69486 38.8319 3.91392 39.8015C3.71048 40.0541 3.67111 40.4003 3.81056 40.6907C3.95001 40.9827 4.24534 41.1681 4.56853 41.1681H22.5055C22.8008 41.1681 23.0764 41.0123 23.2274 40.758C23.3783 40.5037 23.3849 40.1887 23.2438 39.9278C22.8369 39.178 22.6351 38.3331 22.5793 37.7015H27.818C30.0919 37.7015 30.8286 35.7803 31.0812 35.1224L34.4494 25.3658C34.7217 24.4733 34.6134 23.63 34.1426 22.9935L34.1427 22.9931ZM2.5066 14.6733C2.59191 10.5439 5.19229 7.43675 7.3597 5.55809C9.54828 3.65826 13.2578 2.52455 17.2788 2.52455C21.5494 2.52455 25.2278 3.81244 27.1194 5.96822C28.9126 8.01244 30.0578 10.8112 30.2613 13.6462C30.3925 15.464 30.2038 15.8939 29.6477 17.1703C29.6428 17.1801 29.628 17.2162 29.6231 17.2261C29.1358 18.473 30.1809 20.1119 31.3063 21.8511C31.262 21.8495 31.221 21.8462 31.1751 21.8462H19.1362C18.2864 21.8462 17.512 22.1267 16.9247 22.5828L2.74798 17.7133C2.57571 16.7683 2.48383 15.7627 2.5068 14.6733L2.5066 14.6733ZM7.11526 26.7811L6.64931 26.0756C5.35323 24.102 4.02923 22.0856 3.23681 19.6576L15.9288 24.0168C15.8664 24.2366 15.8287 24.4647 15.8287 24.7009L16.485 32.6499H8.96108C8.97585 31.9444 8.93648 31.2061 8.83476 30.4317C8.65757 29.093 7.8389 27.8642 7.11536 26.7814L7.11526 26.7811ZM6.25556 39.4878C6.70017 38.866 7.12836 38.2311 7.5369 37.6142C8.17181 36.6577 8.59345 35.5569 8.80509 34.328H16.6225L16.6685 34.8858C16.6931 36.4412 18.168 37.7011 19.9776 37.7011H20.9046C20.9374 38.2819 21.0571 38.9021 21.2458 39.4894L6.25556 39.4878ZM22.6272 36.8611H22.6337H22.6272ZM32.85 24.8454L32.151 26.8683L31.6687 28.2644L29.4998 34.5464C29.0306 35.7703 28.4875 36.0213 27.8149 36.0213H19.9777C19.0934 36.0213 18.3485 35.4848 18.3485 34.8482L17.5085 24.6716C17.5315 24.0482 18.2682 23.5264 19.1377 23.5264H31.1766C31.7229 23.5264 32.1659 23.6052 32.4644 23.7479C32.6072 23.8152 32.7204 23.8972 32.7909 23.9924C32.9878 24.2582 32.9074 24.6585 32.85 24.8455L32.85 24.8454Z" fill="#284940"/>
</svg>
