<svg width="36" height="30" viewBox="0 0 36 30" fill="none" xmlns="http://www.w3.org/2000/svg">
<path d="M35.3627 16.0025L35.3742 15.9943L30.1242 7.24484L30.1258 7.2432C29.9667 6.9807 29.6829 6.81829 29.3744 6.81829H25.9685L26.7363 2.60023H26.7346C26.7953 2.27374 26.6657 1.94234 26.3999 1.7438C22.5035 -1.17814 20.2868 0.300053 18.3347 1.60763C16.4135 2.89224 14.5957 4.1063 10.576 1.69458L10.5744 1.69294C10.2807 1.5174 9.90994 1.52888 9.62774 1.72412C9.34391 1.91935 9.20282 2.26222 9.26516 2.60019L10.033 6.81825H6.62538C6.31694 6.81825 6.03309 6.98068 5.87395 7.24317L0.623955 15.9926L0.630518 16.009V16.0107C0.548487 16.1403 0.50419 16.2896 0.499268 16.4438V28.6943C0.499268 28.9256 0.592785 29.1488 0.756845 29.3129C0.920909 29.4769 1.14239 29.5688 1.37538 29.5688H34.6243C34.8572 29.5688 35.0803 29.4769 35.2444 29.3129C35.4085 29.1488 35.5004 28.9257 35.5004 28.6943V16.4438C35.4954 16.2863 35.4479 16.1337 35.3626 16.0024L35.3627 16.0025ZM19.3061 3.06144C21.0993 1.8605 22.3134 1.05002 24.9152 2.83175L23.3943 11.194H12.6054L11.306 4.04723C15.2369 5.78301 17.4699 4.29169 19.3057 3.0612L19.3061 3.06144ZM7.12107 8.5689H10.3498L10.8272 11.1939H9.2506C8.76663 11.1939 8.37452 11.586 8.37452 12.0683C8.37452 12.5523 8.76663 12.9444 9.2506 12.9444H26.7495C27.2334 12.9444 27.6256 12.5523 27.6256 12.0683C27.6256 11.586 27.2334 11.1939 26.7495 11.1939H25.1728L25.6503 8.5689H28.879L33.079 15.5695H2.9209L7.12107 8.5689ZM33.7499 27.8183H2.24991V17.3183H33.7499V27.8183Z" fill="#284940"/>
</svg>
