<svg width="34" height="35" viewBox="0 0 34 35" fill="none" xmlns="http://www.w3.org/2000/svg">
<path fill-rule="evenodd" clip-rule="evenodd" d="M17.0079 0.384277C19.3912 0.384277 21.6112 1.68727 22.8028 3.78222L33.5559 22.6926C33.7859 23.097 33.6493 23.6131 33.2493 23.8484C32.851 24.0785 32.3426 23.9431 32.111 23.5387L28.6716 17.4894L28.6722 31.1509C28.6722 32.8482 27.3105 34.229 25.6389 34.229H8.3714C6.6981 34.229 5.33813 32.8482 5.33813 31.1509L5.33659 17.4809L1.8899 23.5387C1.73491 23.8111 1.45491 23.9617 1.16659 23.9617C1.02492 23.9617 0.881592 23.9262 0.749928 23.8484C0.351602 23.6148 0.214938 23.097 0.444934 22.6926L11.2131 3.77884C12.4064 1.68558 14.6263 0.384277 17.0079 0.384277ZM17.0079 2.07648C15.2196 2.07648 13.5513 3.05457 12.658 4.62494L7.00325 14.5534L7.00476 31.1509C7.00476 31.9141 7.61808 32.5368 8.3714 32.5368L12.6483 32.5368L12.6484 21.7676C12.6484 20.8115 13.415 20.0331 14.3567 20.0331H19.6432C20.5849 20.0331 21.3515 20.8115 21.3515 21.7676L21.3499 32.5368L25.6389 32.5368C26.3922 32.5368 27.0055 31.9141 27.0055 31.1509L27.0049 14.5585L21.3595 4.62832C20.4645 3.05457 18.7979 2.07648 17.0079 2.07648ZM14.3567 21.7253L14.3183 32.5368H19.6849V21.7676L14.3567 21.7253Z" fill="#284940"/>
</svg>
