<svg width="301" height="301" viewBox="0 0 301 301" fill="none" xmlns="http://www.w3.org/2000/svg">
<path opacity="0.1" d="M9.52216 137H35V172.92H11.3874C11.3246 173.289 11.2644 173.66 11.1991 174.031H35V203C34.9573 202.987 34.9197 202.971 34.8795 202.956C34.2067 202.681 33.539 202.39 32.8712 202.078L32.4444 201.878C31.775 201.551 31.1056 201.205 30.4361 200.84C30.2027 200.712 29.9692 200.58 29.7382 200.445C26.0218 198.291 22.6457 195.563 19.7269 192.354C19.6415 192.268 19.5612 192.177 19.4758 192.094C19.0691 191.637 18.67 191.175 18.2834 190.702L17.8566 190.183C17.3997 189.604 16.9579 189.009 16.5286 188.407C16.4659 188.318 16.4056 188.23 16.3403 188.147C14.5945 185.643 13.1449 182.932 12.0225 180.071C11.9874 179.986 11.9572 179.892 11.9246 179.812C11.5798 178.894 11.2744 177.968 11.0083 177.033C10.8928 176.641 10.7824 176.254 10.687 175.846C10.6518 175.727 10.6217 175.61 10.5941 175.493C9.1682 169.736 9 163.756 9 157.818C9 157.124 9 156.428 9 155.74C9 153.338 9.02761 150.921 9.06778 148.506C9.06778 147.88 9.09288 147.257 9.10544 146.629C9.14058 145.034 9.19079 143.44 9.25606 141.845C9.27112 141.401 9.2912 140.96 9.3138 140.519C9.3138 140.264 9.32635 140.01 9.35145 139.755C9.4117 138.831 9.46191 137.914 9.52216 137Z" fill="#284940"/>
<path opacity="0.1" d="M35 97H21C23.2758 93.1751 25.7623 89.4996 28.4464 85.9932C30.5261 83.2496 32.7216 80.5762 35 78V97Z" fill="#284940"/>
<path opacity="0.1" d="M35 99V136H9C9 135.893 9.01799 135.784 9.0257 135.677C9.04883 135.384 9.07196 135.092 9.09766 134.802C9.12593 134.461 9.15677 134.118 9.19017 133.784C9.22358 133.451 9.25956 133.044 9.29811 132.675C9.33666 132.307 9.37264 131.933 9.41633 131.564C9.46002 131.195 9.49857 130.826 9.54483 130.46C9.59108 130.094 9.6322 129.722 9.68103 129.356C9.71958 129.051 9.7607 128.748 9.80182 128.443C9.86093 128.013 9.92261 127.581 9.98942 127.153C9.98942 127.09 10.0074 127.023 10.0177 126.962C10.4868 123.834 11.1259 120.733 11.9323 117.673C12.7764 114.463 13.8543 111.317 15.1576 108.261C16.5427 105.065 18.1644 101.973 20.0096 99.0127L35 99Z" fill="#284940"/>
<path opacity="0.1" d="M42 137.08V173.109H98.5809V137.08H42ZM42 174.221V205.161C42.3237 205.229 42.6447 205.294 42.9632 205.349C43.3964 205.432 43.8271 205.508 44.2682 205.573C44.3518 205.586 44.4379 205.599 44.5293 205.607C44.7015 205.635 44.879 205.659 45.0513 205.682C45.4872 205.742 45.9205 205.792 46.3564 205.831C46.5626 205.851 46.7714 205.87 46.9802 205.885L47.484 205.924C47.7581 205.945 48.0295 205.961 48.2984 205.969C48.4654 205.969 48.6325 205.984 48.8047 205.989C48.9353 205.989 49.0658 205.989 49.2015 205.989C49.3372 205.989 49.5304 205.989 49.6948 205.989C49.9193 205.989 50.1438 205.989 50.3656 205.989H50.6658C50.8903 205.989 51.1148 205.989 51.3366 205.969H51.3523C51.5063 205.969 51.6629 205.969 51.8195 205.948C51.863 205.95 51.9065 205.95 51.95 205.948C52.0805 205.948 52.211 205.948 52.3363 205.93H52.4277L53.3021 205.862C53.5892 205.836 53.8789 205.802 54.1713 205.771L54.7664 205.7C57.1875 205.362 59.5818 204.854 61.9313 204.179C67.2091 202.711 72.3721 200.656 77.6473 199.15C84.4677 197.21 92.0033 196.257 98.594 198.629V174.221H42ZM98.5809 96.9694V49.0043C92.3863 48.9373 86.2084 49.6602 80.1974 51.1555C65.8701 54.747 53.015 62.5367 42 72.4855V96.9668H44.8399V98.0789H42V135.968H98.5809V98.0815H56.4996V96.9694H98.5809ZM171.256 80.7675C167.712 80.6425 164.188 79.5226 161.001 77.7933C154.906 74.4857 150.038 69.3784 144.598 65.0682C133.296 56.0908 119.28 50.6737 104.9 49.3298V96.9694H185.672L185.873 96.7585L171.256 80.7675ZM178.614 79.4653L186.416 88.0077V77.2255C183.803 77.5484 181.514 78.3167 178.625 79.4549L178.614 79.4653ZM186.416 212.844V174.221H169.792C169.748 174.057 169.703 173.89 169.651 173.724C169.701 173.89 169.742 174.057 169.789 174.221H104.911V202.153C105.527 202.609 106.135 203.088 106.738 203.575C107.388 204.096 108.03 204.646 108.674 205.185L109.324 205.721C109.635 205.982 109.948 206.242 110.264 206.487C110.891 206.994 111.523 207.494 112.162 207.987C112.478 208.247 112.801 208.482 113.122 208.727C118.219 212.615 123.596 216.124 129.209 219.225C130.467 219.919 131.736 220.597 133.017 221.259C133.871 221.694 134.729 222.126 135.591 222.546C136.885 223.176 138.19 223.784 139.506 224.369C151.635 229.801 164.46 233.529 177.615 235.445C180.536 235.876 183.469 236.214 186.414 236.461V212.842H186.675L186.416 212.844ZM104.911 98.0815V135.968H186.427V98.0815H104.911ZM104.911 137.08V173.109H186.427V137.08H104.911ZM192.754 77.1786V89.2057L202.712 78.3037C199.412 77.7724 196.093 77.393 192.754 77.1656V77.1786ZM192.754 137.093V173.109H272.038V137.08L192.754 137.093ZM271.748 215.704L272.027 174.221H192.754V236.875C197.86 237.089 202.975 237.028 208.075 236.693H208.164C210.6 236.54 213.025 236.318 215.439 236.026H215.494C228.37 234.531 240.96 231.179 252.871 226.075L271.748 215.704ZM287.326 143.013C287.028 142.312 286.718 141.617 286.402 140.929C285.812 139.627 285.188 138.361 284.546 137.095H278.36V173.109H294C293.992 162.91 291.405 152.493 287.334 143L287.326 143.013ZM278.36 174.234V209.914C282.766 205.7 286.488 200.88 289.169 195.369C292.392 188.733 293.867 181.547 293.987 174.229L278.36 174.234ZM278.36 126.594V135.97H283.966C282.27 132.743 280.401 129.609 278.368 126.581L278.36 126.594ZM224.59 84.2469C224.178 84.0907 223.765 83.9318 223.35 83.7782C218.973 82.1653 214.5 80.8241 209.957 79.7622L194.719 96.4485L194.427 96.7585L194.623 96.972H248.857C241.304 91.7842 233.16 87.5083 224.598 84.2339L224.59 84.2469ZM250.447 98.0945H193.866L192.754 99.1102V135.968H202.5H202.516H272.048V118.115C265.758 110.524 258.499 103.789 250.454 98.0815L250.447 98.0945Z" fill="#284940"/>
<path opacity="0.1" d="M35 117V136H9C9 135.889 9.01799 135.776 9.0257 135.665C9.04883 135.362 9.07196 135.059 9.09766 134.759C9.12593 134.405 9.15677 134.05 9.19017 133.704C9.22358 133.359 9.25956 132.937 9.29811 132.555C9.33666 132.173 9.37264 131.786 9.41633 131.404C9.46002 131.021 9.49857 130.639 9.54483 130.26C9.59108 129.88 9.6322 129.495 9.68103 129.116C9.71958 128.8 9.7607 128.486 9.80182 128.17C9.86093 127.724 9.92261 127.276 9.98942 126.833C9.98942 126.768 10.0074 126.699 10.0177 126.636C10.4868 123.394 11.1259 120.181 11.9323 117.011L35 117Z" fill="#284940"/>
<path opacity="0.1" d="M9.52216 137H35V172.92H11.3874C11.3246 173.289 11.2644 173.66 11.1991 174.031H35V203C34.9573 202.987 34.9197 202.971 34.8795 202.956C34.2067 202.681 33.539 202.39 32.8712 202.078L32.4444 201.878C31.775 201.551 31.1056 201.205 30.4361 200.84C30.2027 200.712 29.9692 200.58 29.7382 200.445C26.0218 198.291 22.6457 195.563 19.7269 192.354C19.6415 192.268 19.5612 192.177 19.4758 192.094C19.0691 191.637 18.67 191.175 18.2834 190.702L17.8566 190.183C17.3997 189.604 16.9579 189.009 16.5286 188.407C16.4659 188.318 16.4056 188.23 16.3403 188.147C14.5945 185.643 13.1449 182.932 12.0225 180.071C11.9874 179.986 11.9572 179.892 11.9246 179.812C11.5798 178.894 11.2744 177.968 11.0083 177.033C10.8928 176.641 10.7824 176.254 10.687 175.846C10.6518 175.727 10.6217 175.61 10.5941 175.493C9.1682 169.736 9 163.756 9 157.818C9 157.124 9 156.428 9 155.74C9 153.338 9.02761 150.921 9.06778 148.506C9.06778 147.88 9.09288 147.257 9.10544 146.629C9.14058 145.034 9.19079 143.44 9.25606 141.845C9.27112 141.401 9.2912 140.96 9.3138 140.519C9.3138 140.264 9.32635 140.01 9.35145 139.755C9.4117 138.831 9.46191 137.914 9.52216 137Z" fill="#284940"/>
<path opacity="0.1" d="M62 103.876V136H42V103.876H44.8515V93H56.5564V103.876H62Z" fill="#284940"/>
<path opacity="0.1" d="M62 137H42V173H62V137Z" fill="#284940"/>
<path opacity="0.1" d="M42 174H62V204.179C59.6408 204.858 57.2367 205.369 54.8057 205.709L54.2081 205.782C53.9146 205.816 53.6236 205.845 53.3353 205.874C53.047 205.903 52.7483 205.924 52.4573 205.942H52.3656C52.2398 205.942 52.1035 205.958 51.9803 205.961H51.8467C51.6894 205.961 51.5322 205.976 51.3749 205.982C51.1521 205.995 50.9294 205.997 50.7014 206C50.6044 206 50.5126 206 50.4157 206C50.1903 206 49.9675 206 49.7421 206H49.2468C49.1131 206 48.9847 206 48.8458 206L48.3399 205.982C48.0778 205.982 47.7948 205.953 47.5222 205.934L47.019 205.898L46.3926 205.84C45.9523 205.801 45.5146 205.751 45.0822 205.69L44.558 205.617L44.2959 205.58C43.8582 205.512 43.4258 205.438 42.9855 205.354C42.6631 205.299 42.3433 205.231 42.0183 205.165L42 174Z" fill="#284940"/>
<path opacity="0.1" d="M187 100H171V136H187V100Z" fill="#284940"/>
<path opacity="0.1" d="M187 137V173H105V157.472H148.677V166.632H170.477V137H187Z" fill="#284940"/>
<path opacity="0.1" d="M187 212.652H186.738V236C183.789 235.755 180.849 235.421 177.918 234.999C164.721 233.1 151.855 229.41 139.69 224.034C136.177 222.48 132.736 220.783 129.367 218.945C123.739 215.88 118.347 212.413 113.234 208.574C111.95 207.606 110.682 206.617 109.431 205.605C108.565 204.902 107.704 204.182 106.832 203.482C106.228 203.001 105.618 202.528 105 202.075V174.491H170.053C170.008 174.327 169.964 174.162 169.917 174C169.967 174.162 170.014 174.327 170.058 174.491H186.738V212.636C186.827 212.639 186.914 212.646 187 212.652Z" fill="#284940"/>
<path opacity="0.1" d="M230 97H219V93.7327H223.931V84C224.359 84.1487 224.784 84.3018 225.208 84.4591V93.7327H230V97Z" fill="#284940"/>
<path opacity="0.1" d="M255 135.987H202.706C202.706 135.987 202.706 135.987 202.725 136L202.701 135.987H193V100.554H195.749V126.744H208.31V111.233H218.687V99H229.339V111.243H239.716V126.754H255V135.987Z" fill="#284940"/>
<path opacity="0.1" d="M193 137V173.058H255.066V137H193ZM271.914 215.502L272 186.961H255.066V174.189H193V236.875C198.089 237.089 203.185 237.028 208.267 236.692H208.355C210.783 236.54 213.199 236.317 215.604 236.025H215.658C228.488 234.529 241.034 231.174 252.902 226.066" fill="#284940"/>
<path opacity="0.1" d="M280.052 174H294C293.877 181.381 292.464 188.63 289.372 195.325C286.799 200.888 283.224 205.751 279 210V186.878H280.052V174Z" fill="#284940"/>
<path opacity="0.1" d="M294 173H279V143H287.117C291.318 152.459 293.987 162.838 294 173Z" fill="#284940"/>
<path opacity="0.1" d="M187 110H177V121H187V110Z" fill="#284940"/>
<path opacity="0.1" d="M187 134H177V136H187V134Z" fill="#284940"/>
<path opacity="0.1" d="M187 137H177V145H187V137Z" fill="#284940"/>
<path opacity="0.1" d="M187 157H177V168H187V157Z" fill="#284940"/>
<path opacity="0.1" d="M187 180H177V192H187V180Z" fill="#284940"/>
<path opacity="0.1" d="M186.712 212.432C186.81 212.432 186.905 212.432 187 212.447H186.712V215H177V204H186.712V212.432Z" fill="#284940"/>
<path opacity="0.1" d="M187 227V236C183.657 235.746 180.323 235.4 177 234.963V227H187Z" fill="#284940"/>
<path opacity="0.1" d="M142 172H105V173H142V172Z" fill="#284940"/>
<path opacity="0.1" d="M142 174H105V178H142V174Z" fill="#284940"/>
<path opacity="0.1" d="M142 188H105V193H142V188Z" fill="#284940"/>
<path opacity="0.1" d="M142 203V208H112.408C111.123 207.053 109.854 206.081 108.6 205.083C107.734 204.393 106.875 203.685 106 203H142Z" fill="#284940"/>
<path opacity="0.1" d="M142 220.006V224H138.98C135.587 222.778 132.26 221.445 129 220L142 220.006Z" fill="#284940"/>
<path opacity="0.1" d="M215 141H208V148H215V141Z" fill="#284940"/>
<path opacity="0.1" d="M55 106H48V113H55V106Z" fill="#284940"/>
<path opacity="0.1" d="M55 124H48V131H55V124Z" fill="#284940"/>
<path opacity="0.1" d="M55 141H48V148H55V141Z" fill="#284940"/>
<path opacity="0.1" d="M55 158H48V165H55V158Z" fill="#284940"/>
<path opacity="0.1" d="M55 175H48V183H55V175Z" fill="#284940"/>
<path opacity="0.1" d="M55 192H48V199H55V192Z" fill="#284940"/>
<path opacity="0.1" d="M243 141H237V148H243V141Z" fill="#284940"/>
<path opacity="0.1" d="M215 159H208V166H215V159Z" fill="#284940"/>
<path opacity="0.1" d="M243 159H237V166H243V159Z" fill="#284940"/>
<path opacity="0.1" d="M215 178H208V184H215V178Z" fill="#284940"/>
<path opacity="0.1" d="M243 178H237V184H243V178Z" fill="#284940"/>
<path opacity="0.1" d="M215 196H208V203H215V196Z" fill="#284940"/>
<path opacity="0.1" d="M243 196H237V203H243V196Z" fill="#284940"/>
<path opacity="0.1" d="M215 214H208V221H215V214Z" fill="#284940"/>
<path opacity="0.1" d="M243 214H237V221H243V214Z" fill="#284940"/>
<path opacity="0.1" d="M208 237V232H215V236.288L208 237Z" fill="#284940"/>
<path opacity="0.1" d="M10 127V131H35V127H10ZM12.4915 130.749H10.4521V127.246H12.5069L12.4915 130.749ZM14.9805 130.749H12.9256V127.246H14.9805V130.749ZM17.4643 130.749H15.4094V127.246H17.4643V130.749ZM19.9533 130.749H17.901V127.246H19.9558L19.9533 130.749ZM22.4396 130.749H20.3848V127.246H22.4396V130.749ZM24.9286 130.749H22.8737V127.246H24.9286V130.749ZM27.4175 130.749H25.3627V127.246H27.4175V130.749ZM29.9039 130.749H27.8491V127.246H29.9039V130.749ZM32.3903 130.749H30.3355V127.246H32.3903V130.749ZM34.8767 130.749H32.8218V127.246H34.8767V130.749Z" fill="#284940"/>
<path opacity="0.1" d="M10 139V143H35V139H10ZM12.4915 142.747H10.4521V139.253H12.5069L12.4915 142.747ZM14.9805 142.747H12.9256V139.253H14.9805V142.747ZM17.4643 142.747H15.4094V139.253H17.4643V142.747ZM19.9533 142.747H17.901V139.253H19.9558L19.9533 142.747ZM22.4396 142.747H20.3848V139.253H22.4396V142.747ZM24.9286 142.747H22.8737V139.253H24.9286V142.747ZM27.4175 142.747H25.3627V139.253H27.4175V142.747ZM29.9039 142.747H27.8491V139.253H29.9039V142.747ZM32.3903 142.747H30.3355V139.253H32.3903V142.747ZM34.8767 142.747H32.8218V139.253H34.8767V142.747Z" fill="#284940"/>
<path opacity="0.1" d="M10 151V155H35V151H10ZM12.4915 154.74H10.4521V151.25H12.5069L12.4915 154.74ZM14.9805 154.74H12.9256V151.25H14.9805V154.74ZM17.4643 154.74H15.4094V151.25H17.4643V154.74ZM19.9533 154.74H17.901V151.25H19.9558L19.9533 154.74ZM22.4396 154.74H20.3848V151.25H22.4396V154.74ZM24.9286 154.74H22.8737V151.25H24.9286V154.74ZM27.4175 154.74H25.3627V151.25H27.4175V154.74ZM29.9039 154.74H27.8491V151.25H29.9039V154.74ZM32.3903 154.74H30.3355V151.25H32.3903V154.74ZM34.8767 154.74H32.8218V151.25H34.8767V154.74Z" fill="#284940"/>
<path opacity="0.1" d="M10 164V168H35V164H10ZM12.4915 167.751H10.4521V164.249H12.5069L12.4915 167.751ZM14.9805 167.751H12.9256V164.249H14.9805V167.751ZM17.4643 167.751H15.4094V164.249H17.4643V167.751ZM19.9533 167.751H17.901V164.249H19.9558L19.9533 167.751ZM22.4396 167.751H20.3848V164.249H22.4396V167.751ZM24.9286 167.751H22.8737V164.249H24.9286V167.751ZM27.4175 167.751H25.3627V164.249H27.4175V167.751ZM29.9039 167.751H27.8491V164.249H29.9039V167.751ZM32.3903 167.751H30.3355V164.249H32.3903V167.751ZM34.8767 167.751H32.8218V164.249H34.8767V167.751Z" fill="#284940"/>
<path opacity="0.1" d="M10 176C10.1006 176.377 10.2141 176.754 10.3328 177.126V176.251H12.3966V179.754H11.2924C11.326 179.835 11.3595 179.924 11.393 180H35V176H10ZM14.9015 179.754H12.8377V176.251H14.9015V179.754ZM17.396 179.754H15.3323V176.251H17.396V179.754ZM19.8958 179.754H17.8268V176.251H19.8906L19.8958 179.754ZM22.3929 179.754H20.3292V176.251H22.3929V179.754ZM24.8927 179.754H22.8289V176.251H24.8927V179.754ZM27.3924 179.754H25.3287V176.251H27.3924V179.754ZM29.8896 179.754H27.8258V176.251H29.8896V179.754ZM32.3868 179.754H30.323V176.251H32.3868V179.754ZM34.8839 179.754H32.8201V176.251H34.8839V179.754Z" fill="#284940"/>
<path opacity="0.1" d="M17 189C17.0605 189.079 17.1186 189.168 17.1816 189.246H18.4625V190.93C18.6005 191.097 18.7361 191.265 18.8765 191.423V189.237H20.8136V192.754H20.0291C20.1065 192.835 20.1816 192.921 20.2712 193H35V189H17ZM23.1525 192.754H21.2155V189.251H23.1525V192.754ZM25.4988 192.754H23.5617V189.251H25.4988V192.754ZM27.845 192.754H25.908V189.251H27.845V192.754ZM30.1889 192.754H28.2518V189.251H30.1889V192.754ZM32.5327 192.754H30.5956V189.251H32.5327V192.754ZM34.8765 192.754H32.9395V189.251H34.8765V192.754Z" fill="#284940"/>
<path opacity="0.1" d="M31 201C31.1737 201.106 31.3511 201.203 31.5305 201.309V201.207H33.0573V202.121L33.3817 202.281V201.207H34.9084V202.963C34.9377 202.979 34.9684 202.991 35 203V201H31Z" fill="#284940"/>
<path opacity="0.1" d="M201.984 136.049H202H201.984ZM185.974 213H186.234H185.974ZM169.27 173.847C169.319 174.014 169.361 174.18 169.408 174.345C169.366 174.18 169.322 174.014 169.27 173.847ZM201.984 136.041H202H201.984ZM45 97V98.1133H56.6101V97H45ZM185.974 213H186.234H185.974ZM169.27 173.847C169.319 174.014 169.361 174.18 169.408 174.345C169.366 174.18 169.322 174.014 169.27 173.847ZM201.984 136.041H202H201.984ZM185.974 212.992H186.234H185.974ZM169.27 173.847C169.319 174.014 169.361 174.18 169.408 174.345C169.366 174.18 169.322 174.014 169.27 173.847Z" fill="#284940"/>
<path d="M134.187 156.114C134.187 156.114 133.001 155.951 133.001 154.253C133.001 152.555 132.152 149.385 132.152 149.385C132.152 149.37 131.417 143.862 130.403 142.987C129.388 142.111 128.085 136.971 128.085 136.971C128.085 136.971 127.862 134.181 127.407 133.581C126.953 132.981 126.339 131.51 125.433 129.413C124.527 127.316 120.749 125.864 120.749 125.864C120.749 125.864 113.918 121.972 111.982 120.703C111.806 120.598 111.642 120.476 111.492 120.339C111.155 119.904 109.685 119.895 109.685 119.895C109.532 118.943 109.384 117.848 109.336 116.857C109.336 116.751 109.336 116.645 109.321 116.538C111.48 115.284 113.105 113.308 113.9 110.971C113.936 110.859 113.966 110.741 113.999 110.628C114.129 110.586 114.248 110.519 114.349 110.429C114.45 110.339 114.531 110.23 114.586 110.108C114.761 109.726 114.764 109.28 114.981 108.925C115.234 108.505 115.715 108.28 116.095 107.963C117.052 107.165 117.299 105.819 117.254 104.594C117.223 103.604 117.061 102.604 117.124 101.619L117.142 101.37C117.16 101.223 117.181 101.075 117.208 100.933C117.356 100.199 117.678 99.507 117.859 98.7794C118.039 98.0517 118.057 97.2324 117.636 96.6054C117.019 95.6855 115.733 95.5021 114.604 95.4075C113.325 95.301 112.181 95.44 111.362 94.3959C110.979 93.8502 110.548 93.3385 110.074 92.8667C109.905 92.7129 108.268 91.7309 108.268 91.6658C106.669 90.9385 104.858 90.802 103.165 91.2813C102.316 91.5239 101.515 91.9202 100.654 92.1184C98.797 92.5502 96.6597 92.0829 95.0823 93.127C94.2032 93.7186 93.6764 94.6591 93.1827 95.5761C92.7813 96.3313 92.3739 97.0855 91.9605 97.8388C91.2952 99.0781 90.6179 100.338 90.3379 101.711C90.2791 102.009 90.2429 102.312 90.2296 102.616V102.63C90.2296 102.74 90.2296 102.849 90.2296 102.959V103.098C90.2296 103.201 90.2296 103.302 90.2476 103.394C90.2657 103.485 90.2627 103.515 90.2717 103.577C90.2807 103.639 90.2958 103.778 90.3139 103.873C90.3319 103.967 90.368 104.133 90.4042 104.263C90.4192 104.319 90.4403 104.373 90.4584 104.426C90.4885 104.526 90.5246 104.624 90.5637 104.722C90.5848 104.772 90.6059 104.825 90.6299 104.875C90.6751 104.979 90.7293 105.08 90.7835 105.171C90.8076 105.213 90.8256 105.251 90.8497 105.29C90.9337 105.427 91.0262 105.559 91.1267 105.686C91.7709 106.476 92.7191 106.978 93.4206 107.718C93.4206 107.747 93.4206 107.777 93.4206 107.804C93.4206 107.886 93.4206 107.966 93.4206 108.049C93.4578 109.698 93.9045 111.313 94.7219 112.754C95.5393 114.195 96.7026 115.418 98.1107 116.316C98.1107 116.429 98.1257 116.544 98.1318 116.656C98.1905 117.534 98.1794 118.415 98.0986 119.292C97.976 119.15 97.8226 119.037 97.6496 118.961C97.4766 118.885 97.2885 118.849 97.0992 118.854C96.9699 118.848 96.8402 118.859 96.7139 118.887L96.6868 118.866V118.892C96.0245 119.052 95.2087 119.73 94.429 121.655C94.429 121.655 92.0569 124.282 90.2507 124.172C88.4444 124.063 83.8717 126.905 83.8717 126.905C83.8717 126.905 79.4104 129.751 78.4531 132.649C77.918 134.293 77.2765 135.901 76.5325 137.465L71.0175 148.63L70 157.489C70 157.489 70.5629 161.429 70.4516 162.029C70.3402 162.63 72.7665 168.045 72.7665 168.045C72.7665 168.045 80.7831 181.885 84.0584 182.595L84.2932 182.432C84.4333 182.504 84.5819 182.559 84.7357 182.595L85.41 182.127C85.4505 182.648 85.4333 183.172 85.3588 183.689C84.9073 185.056 85.5274 193.974 86.3161 195.722C87.1048 197.47 86.8249 220.39 86.8249 220.39L86.7135 222.413C86.7135 222.413 86.7135 222.478 86.7406 222.59L86.7135 223.069L86.7948 223.111C86.8792 223.753 86.8517 224.404 86.7135 225.036C86.4305 225.924 86.3161 228.432 86.3161 228.432C86.3161 228.432 84.0614 242.594 85.13 245.439C86.1987 248.285 87.1078 251.402 87.1078 251.402C87.1078 251.402 88.2367 254.952 87.162 255.558C86.0873 256.164 83.0318 257.182 83.661 258.661C84.233 260.027 86.4034 263.689 86.7255 264.224L86.6984 264.505L86.2559 269.217C86.3276 269.839 86.4993 270.446 86.7647 271.016C87.2493 272.042 88.1916 273.107 89.9827 272.991C90.2838 272.971 90.633 272.935 90.9701 272.891C94.2484 272.459 98.2853 271.021 98.2853 271.021C98.0757 270.891 97.8836 270.735 97.7133 270.557C97.5522 270.404 97.4245 270.22 97.3381 270.016C97.2516 269.813 97.2083 269.594 97.2106 269.374C97.2587 268.516 95.6241 264.429 95.2177 263.423C95.1545 263.278 95.1214 263.195 95.1214 263.195C95.1214 263.195 98.8482 259.368 98.2281 255.975C98.2281 255.975 94.1039 253.609 95.4616 252.31C96.8192 251.012 99.2456 247.282 99.2456 247.282C99.2456 247.282 99.357 233.336 99.2456 231.254C99.1294 229.808 99.1992 228.355 99.4533 226.926C99.4984 226.711 99.5526 226.501 99.6098 226.293C101.487 226.569 103.383 226.71 105.281 226.716C105.974 226.716 106.678 226.716 107.389 226.675C107.389 226.872 107.398 227.085 107.416 227.314C107.572 230.769 107.864 236.826 108.102 239.077C108.439 242.304 110.303 251 110.303 251C110.303 251 106.747 253.242 110.923 258.767C110.923 258.767 110.923 260.77 110.646 261.06C110.35 262.007 110.112 262.971 109.932 263.946C109.758 264.988 109.685 266.041 109.968 266.588C110.646 267.895 114.71 267.789 114.71 267.789L114.809 267.771C115.576 267.693 116.352 267.766 117.09 267.984C117.829 268.203 118.515 268.564 119.111 269.046C120.655 270.264 126.516 269.729 129.689 269.341C130.933 269.188 131.763 269.046 131.763 269.046C131.804 268.907 131.818 268.763 131.806 268.62C131.772 267.854 131.161 266.174 127.019 264.674C127.019 264.674 123.124 262.101 123.178 259.859H123.097H122.645C122.973 259.841 123.184 259.859 123.184 259.859C123.184 259.859 121.658 254.387 122.281 253.943C122.904 253.499 121.038 247.436 121.038 247.436C121.038 247.436 119.969 237.261 119.912 236.548C119.914 235.937 120.008 235.329 120.192 234.744L119.912 229.166C119.912 229.166 119.857 227.311 119.912 226.708C119.903 226.184 119.859 225.661 119.782 225.143C119.755 224.936 119.728 224.72 119.698 224.507C121.158 224.143 122.106 223.806 122.106 223.806L121.938 204.388C123.178 202.022 123.407 196.831 123.401 193.148C123.401 190.782 123.292 189.031 123.292 189.031L124.987 186.313C124.987 186.313 125.378 183.059 124.758 182.346C124.484 182.024 124.608 181.69 124.834 181.415C124.951 181.323 125.075 181.24 125.204 181.166C125.204 181.166 125.186 181.14 125.165 181.101C125.283 181.004 125.409 180.916 125.541 180.838C125.541 180.838 124.939 179.921 125.478 179.533C125.984 179.871 126.435 180.125 126.778 180.332C126.754 180.548 126.73 180.672 126.73 180.672L126.875 180.376C127.206 180.56 127.407 180.672 127.407 180.672C127.407 180.672 130.063 175.475 130.005 174.709C129.948 173.943 131.812 170.716 131.812 170.716C131.812 170.716 132.037 169.021 133.055 168.312C134.072 167.602 133.844 162.458 133.844 162.458C133.844 162.458 134.127 159.778 134.804 158.684C135.481 157.589 134.187 156.114 134.187 156.114ZM83.384 153.833L83.4352 155.072C83.1342 154.596 82.9174 154.253 82.9174 154.253L83.384 153.833Z" fill="url(#paint0_linear)"/>
<path d="M127 178.411L126.35 181C126.35 181 121.148 178.515 120.21 175.357C119.272 172.199 121.78 171 121.78 171L126.627 172.922L127 178.411Z" fill="white"/>
<path opacity="0.1" d="M127 178.411L126.35 181C126.35 181 121.148 178.515 120.21 175.357C119.272 172.199 121.78 171 121.78 171L126.627 172.922L127 178.411Z" fill="black"/>
<path d="M99 270.993C99 270.993 94.0945 272.768 90.722 272.991C88.9315 273.109 87.9903 272.029 87.5059 270.987C87.2412 270.409 87.0705 269.793 87 269.162L87.4384 264.379L87.6714 261.832L94.8365 260L95.8513 263.054L95.9463 263.286C96.3541 264.306 97.9882 268.456 97.9392 269.322C97.9372 269.543 97.9807 269.763 98.0671 269.968C98.1535 270.173 98.281 270.359 98.442 270.514C98.6065 270.696 98.794 270.858 99 270.993Z" fill="white"/>
<path d="M131.996 268.812C132.008 268.956 131.994 269.101 131.953 269.24C131.953 269.24 121.473 270.95 119.33 269.24C118.725 268.74 118.021 268.37 117.261 268.152C116.502 267.934 115.704 267.874 114.92 267.976C114.92 267.976 110.865 268.084 110.188 266.778C109.907 266.23 109.98 265.167 110.155 264.118C110.333 263.136 110.57 262.165 110.865 261.21L111.027 261.084L111.992 260.326L123.286 260H123.372C123.317 262.258 127.206 264.849 127.206 264.849C131.337 266.347 131.947 268.039 131.996 268.812Z" fill="white"/>
<path opacity="0.1" d="M131.997 268.788C132.007 268.935 131.992 269.083 131.951 269.225C131.951 269.225 121.473 270.969 119.329 269.225C118.725 268.715 118.021 268.338 117.262 268.116C116.503 267.894 115.706 267.832 114.922 267.935C114.922 267.935 110.864 268.045 110.19 266.713C109.908 266.151 109.978 265.069 110.153 264C111.715 264.156 114.181 264.544 115.148 265.47C116.612 266.878 119.093 268.284 120.615 268.394C121.807 268.47 128.934 268.696 131.997 268.788Z" fill="black"/>
<path opacity="0.1" d="M99 271.376C99 271.376 94.3042 272.812 91.0758 272.993C89.3618 273.088 88.4608 272.214 88 271.369C89.1945 271.703 90.8527 272.055 91.7244 271.733C92.7575 271.352 96.4202 271.105 98.4747 271C98.631 271.142 98.8074 271.269 99 271.376Z" fill="black"/>
<path d="M105.333 130.656C101.198 129.147 95.8795 124.159 97.2076 121.828C97.5026 121.24 97.6779 120.605 97.7245 119.957C97.8099 119.076 97.8225 118.191 97.762 117.308C97.6689 115.863 97.4838 114.424 97.2076 113C97.2076 113 110.116 113.274 109.364 115.06C109.145 115.584 109.11 116.493 109.17 117.511C109.229 118.529 109.386 119.68 109.549 120.654C109.774 121.99 110 123.008 110 123.008C110 123.008 109.211 124.047 108.747 124.103C108.283 124.159 111.265 132.807 105.333 130.656Z" fill="#CF6F80"/>
<path opacity="0.1" d="M96 263.654L95.8995 263.768C91.9038 258.768 87.0714 265 87.0714 265L87 264.869L87.2465 262.037L94.8259 260L95.8995 263.396L96 263.654Z" fill="black"/>
<path opacity="0.1" d="M122 260.451C122 260.451 119.575 260.373 118.282 262.128C116.989 263.884 110.739 262.509 111.008 262.128C111.088 261.939 111.136 261.723 111.149 261.499L111.997 260.451L121.933 260C121.97 260.277 122 260.451 122 260.451Z" fill="black"/>
<path d="M100.967 225.903C100.754 226.398 100.591 226.912 100.483 227.436C100.217 228.873 100.143 230.334 100.263 231.788C100.381 233.88 100.263 247.901 100.263 247.901C100.263 247.901 97.7431 251.64 96.3382 252.958C94.9332 254.276 99.2054 256.643 99.2054 256.643C99.8426 260.05 95.9814 263.9 95.9814 263.9C92.0564 259.447 87.3096 265 87.3096 265C87.3096 265 84.7291 260.816 84.0855 259.321C83.442 257.827 86.6055 256.793 87.7174 256.186C88.8292 255.579 87.6632 252.002 87.6632 252.002C87.6632 252.002 86.7234 248.866 85.6083 246.006C84.4933 243.146 86.8381 228.907 86.8381 228.907C86.8381 228.907 86.9591 226.378 87.249 225.496C87.3953 224.86 87.4244 224.205 87.3351 223.56C87.3159 223.342 87.2936 223.159 87.2777 223.037C87.2618 222.914 87.249 222.857 87.249 222.857L87.2936 222.786L88.8866 220C88.8866 220 101.732 224.149 100.967 225.903Z" fill="#284940"/>
<path d="M122 260.202C122 260.202 119.56 260.146 118.259 261.384C116.957 262.622 110.668 261.656 110.939 261.384C111.21 261.112 111.188 259.1 111.188 259.1C107.498 253.609 110.646 251.38 110.646 251.38C110.646 251.38 108.998 242.736 108.699 239.529C108.491 237.289 108.233 231.269 108.095 227.832C108.035 226.354 108 225.338 108 225.338L111.015 224.676L111.402 224.59L118.674 223C118.674 223 118.874 224.478 119.01 225.686C119.077 226.202 119.115 226.723 119.124 227.244C119.075 227.835 119.124 229.685 119.124 229.685L119.37 235.232C119.209 235.814 119.126 236.418 119.124 237.026C119.172 237.732 120.119 247.846 120.119 247.846C120.119 247.846 121.764 253.88 121.203 254.315C120.642 254.749 122 260.202 122 260.202Z" fill="#284940"/>
<path opacity="0.1" d="M109.966 115.421C109.732 116.037 109.696 117.105 109.759 118.302C107.915 119.452 105.795 120.04 103.643 119.998C101.49 119.956 99.3928 119.287 97.5913 118.067C97.4922 116.367 97.2947 114.675 97 113C97 113 110.768 113.315 109.966 115.421Z" fill="black"/>
<path d="M113.996 108.086C113.998 109.131 113.832 110.169 113.505 111.161C112.773 113.385 111.271 115.28 109.266 116.513C107.261 117.745 104.881 118.234 102.547 117.895C100.213 117.555 98.0754 116.409 96.5116 114.657C94.9478 112.906 94.0587 110.663 94.0015 108.324C94.0015 108.243 94.0015 108.167 94.0015 108.086C93.9788 106.77 94.2206 105.462 94.7129 104.24C95.2052 103.017 95.9381 101.904 96.8688 100.965C97.7995 100.026 98.9094 99.2802 100.134 98.7712C101.358 98.2622 102.672 98 104 98C105.328 98 106.642 98.2622 107.866 98.7712C109.091 99.2802 110.201 100.026 111.131 100.965C112.062 101.904 112.795 103.017 113.287 104.24C113.779 105.462 114.021 106.77 113.999 108.086H113.996Z" fill="#CF6F80"/>
<path opacity="0.1" d="M105.333 130.658C101.198 129.154 95.8795 124.186 97.2076 121.864C97.5026 121.278 97.6779 120.646 97.7245 120L103.385 124.353L106.886 127.041L109.549 120.698C109.774 122.028 110 123.043 110 123.043C110 123.043 109.211 124.077 108.747 124.133C108.283 124.189 111.265 132.8 105.333 130.658Z" fill="black"/>
<path d="M119 150.637L114.6 225.618L108.861 226L94 182.523L96.4379 130.906L96.9511 120L103.559 125.505L106.822 128.217L109.374 121.63L114.118 125.824L119 150.637Z" fill="#284940"/>
<path opacity="0.1" d="M100.967 226.345C100.749 226.88 100.584 227.434 100.473 228C95.8276 227.287 91.3155 225.885 87.0876 223.842L87 223.797L87.0292 223.277L87.0454 223.006L88.6676 220C88.6676 220 101.745 224.452 100.967 226.345Z" fill="black"/>
<path opacity="0.1" d="M111 227.528C110.037 227.761 109.067 227.919 108.092 228C108.034 226.127 108 224.839 108 224.839L110.924 224L111 227.528Z" fill="black"/>
<path opacity="0.1" d="M119 225.249C116.973 225.707 113.842 226.221 111.04 225.9L111 224.331L118.646 223C118.646 223 118.857 224.225 119 225.249Z" fill="black"/>
<path opacity="0.1" d="M111 226.563C98.984 228.627 87.979 222.709 87.979 222.709L88.0845 220.704C88.0845 220.704 88.3571 197.971 87.601 196.228C86.8448 194.485 86.2557 185.647 86.6836 184.291C87.1115 182.934 85.1215 162.593 85.1215 162.593L84.7992 154.336L73 149.526L78.2753 138.462C78.9879 136.911 79.6007 135.315 80.11 133.685C81.0273 130.812 85.2857 127.99 85.2857 127.99C85.2857 127.99 89.6525 125.171 91.3787 125.277C93.1049 125.384 95.3674 122.783 95.3674 122.783C97.0379 118.498 98.5502 120.438 98.5502 120.438C98.5502 120.642 98.5502 120.438 98.4681 121.072C97.882 125.776 107.946 140.638 108.09 140.901L109.048 164.391L110.018 194.119L111 226.563Z" fill="black"/>
<path d="M111 226.563C98.6706 228.627 87.3757 222.709 87.3757 222.709L87.4869 220.705C87.4869 220.705 87.7666 197.975 86.9877 196.233C86.2089 194.49 85.6074 185.654 86.0495 184.298C86.4916 182.941 84.4467 162.603 84.4467 162.603L84.1129 154.348L72 149.521L77.4129 138.459C78.1424 136.907 78.7712 135.312 79.2954 133.682C80.2336 130.811 84.6061 127.989 84.6061 127.989C84.6061 127.989 89.0867 125.17 90.855 125.277C92.6232 125.383 94.9477 122.782 94.9477 122.782C96.6648 118.498 98.5563 120.438 98.5563 120.438C98.5563 120.642 98.3759 120.733 98.4721 121.072C99.7953 125.633 107.867 140.635 108.014 140.897L109.009 164.384L110.005 194.107L111 226.563Z" fill="white"/>
<path opacity="0.1" d="M108 141C106.599 140.48 99.1771 132.95 99.1771 132.95V131.236C98.9071 130.671 97.3026 131.016 96 131.411L96.5592 121L97.1946 121.469C98.5862 125.834 107.838 140.749 108 141Z" fill="black"/>
<path d="M109 140C107.479 139.48 99.441 131.95 99.441 131.95V130.236C99.1485 129.671 97.4108 130.016 96 130.411L96.609 120L97.2972 120.469C98.8078 124.834 108.831 139.752 109 140Z" fill="white"/>
<path opacity="0.1" d="M87.6755 179.938C87.8406 179.938 96.2348 179 96.2348 179C96.2348 179 101.318 189.626 100.984 192.212C100.651 194.797 100.048 197.086 98.0031 196.681C95.9586 196.275 87 197 87 197L87.6755 179.938Z" fill="black"/>
<path d="M87.6755 178.938C87.8406 178.938 96.235 178 96.235 178C96.235 178 101.315 188.63 100.985 191.212C100.654 193.794 100.045 196.086 98.0033 195.681C95.9618 195.275 87 196 87 196L87.6755 178.938Z" fill="white"/>
<path d="M93.7878 175C93.7878 175 101.823 178.54 101.995 179.621C102.167 180.701 97.9054 179.148 96.9848 178.961C96.3789 178.841 95.7621 178.762 95.1405 178.725L89 178.861L93.7878 175Z" fill="#CF6F80"/>
<path opacity="0.1" d="M105 141C105.552 141 106 140.776 106 140.5C106 140.224 105.552 140 105 140C104.448 140 104 140.224 104 140.5C104 140.776 104.448 141 105 141Z" fill="black"/>
<path d="M105 141C105.552 141 106 140.776 106 140.5C106 140.224 105.552 140 105 140C104.448 140 104 140.224 104 140.5C104 140.776 104.448 141 105 141Z" fill="#3F3D56"/>
<path opacity="0.1" d="M107.5 177C108.328 177 109 176.552 109 176C109 175.448 108.328 175 107.5 175C106.672 175 106 175.448 106 176C106 176.552 106.672 177 107.5 177Z" fill="black"/>
<path d="M107.5 175C108.328 175 109 174.776 109 174.5C109 174.224 108.328 174 107.5 174C106.672 174 106 174.224 106 174.5C106 174.776 106.672 175 107.5 175Z" fill="#3F3D56"/>
<path opacity="0.1" d="M105.5 159C105.776 159 106 158.552 106 158C106 157.448 105.776 157 105.5 157C105.224 157 105 157.448 105 158C105 158.552 105.224 159 105.5 159Z" fill="black"/>
<path d="M105.5 158C105.776 158 106 157.776 106 157.5C106 157.224 105.776 157 105.5 157C105.224 157 105 157.224 105 157.5C105 157.776 105.224 158 105.5 158Z" fill="#3F3D56"/>
<path d="M123.975 179.092C123.975 179.092 124.485 179.91 123.975 180.292C123.465 180.674 124.025 181.598 124.025 181.598C124.025 181.598 122.752 182.395 123.312 183.112C123.872 183.828 123.517 187.065 123.517 187.065L121.986 189.773C121.986 189.773 122.078 191.517 122.083 193.875C122.083 197.553 121.881 202.724 120.76 205.082L120.915 224.425C120.915 224.425 115.553 226.516 111.065 225.879L110.399 194.84C110.399 194.84 111.37 177.238 111.728 173.862C111.938 172.109 112.023 170.342 111.983 168.575C111.983 168.575 111.831 163.291 111.318 160.839C111.318 160.839 110.763 150.215 110.707 147.274C110.682 145.867 110.752 141.762 110.829 137.859C110.915 133.591 111.012 129.566 111.012 129.566L110 121.012C110 121.012 111.012 120.903 111.318 121.338C111.454 121.474 111.603 121.596 111.761 121.702C113.509 122.964 119.684 126.844 119.684 126.844C119.684 126.844 123.101 128.295 123.92 130.374C124.738 132.454 125.307 133.929 125.703 134.521C126.1 135.113 126.316 137.897 126.316 137.897C126.316 137.897 127.492 143.021 128.411 143.889C129.329 144.757 130 150.277 130 150.277L121.886 157.089C121.886 157.089 121.173 168.421 121.021 168.86C120.868 169.298 123.975 179.092 123.975 179.092Z" fill="white"/>
<path d="M125.486 179.13C125.486 179.13 126.035 179.946 125.486 180.328C124.936 180.71 125.537 181.633 125.537 181.633C125.537 181.633 124.167 182.438 124.768 183.154C125.368 183.87 124.99 187.104 124.99 187.104L123.332 189.808C123.332 189.808 123.431 191.551 123.44 193.906C123.44 197.581 123.221 202.747 122.008 205.102L122.173 224.427C122.173 224.427 116.358 226.516 111.505 225.879L110.787 194.871C110.787 194.871 111.838 177.286 112.226 173.913C112.453 172.162 112.544 170.396 112.499 168.632C112.499 168.632 112.334 163.353 111.781 160.903C111.781 160.903 111.18 150.29 111.117 147.352C111.09 145.946 111.168 141.845 111.249 137.945C111.343 133.682 111.448 129.661 111.448 129.661L110 121C110 121 111.448 121 111.781 121.441C111.928 121.579 112.089 121.701 112.262 121.805C114.154 123.065 120.842 126.941 120.842 126.941C120.842 126.941 124.54 128.391 125.426 130.468C126.312 132.545 126.927 134.019 127.36 134.611C127.792 135.202 128.02 137.984 128.02 137.984C128.02 137.984 129.294 143.103 130.288 143.97C131.282 144.837 132 150.34 132 150.34L123.215 157.145C123.215 157.145 122.443 168.466 122.275 168.904C122.107 169.342 125.486 179.13 125.486 179.13Z" fill="white"/>
<path opacity="0.1" d="M114.781 131.937L115.6 134.089L111.29 138C111.386 133.977 111.495 130.177 111.495 130.177L110 122C110 122 111.495 122 111.839 122.416C111.99 122.546 112.156 122.66 112.335 122.757L116 132.284L114.781 131.937Z" fill="black"/>
<path d="M114.779 130.937L115.6 133.089L111.292 137C111.388 132.974 111.497 129.177 111.497 129.177L110 121C110 121 111.497 121 111.838 121.416C111.99 121.546 112.156 121.661 112.334 121.76L116 131.284L114.779 130.937Z" fill="white"/>
<path opacity="0.1" d="M113.996 108.347C113.998 109.418 113.832 110.482 113.505 111.501C113.449 111.509 113.393 111.507 113.339 111.493C113.285 111.479 113.234 111.454 113.189 111.42C113.113 108.745 111.819 106.233 110.226 104.096C109.779 103.45 109.237 102.879 108.619 102.401C107.994 101.924 107.217 101.7 106.439 101.774C105.562 101.896 104.788 102.502 103.902 102.579C102.733 102.678 101.687 101.854 100.527 101.812C100.055 101.817 99.59 101.924 99.1622 102.126C98.7343 102.328 98.3538 102.62 98.0459 102.984C97.4364 103.717 96.9836 104.572 96.7162 105.493C96.2568 106.889 96.0066 108.349 95.974 109.821C95.9594 110.653 95.8805 111.697 95.1207 112C95.1779 111.388 95.1095 110.77 94.9199 110.186C94.7302 109.603 94.4235 109.065 94.019 108.608L94.0015 108.59C94.0015 108.507 94.0015 108.43 94.0015 108.347C93.9788 106.996 94.2206 105.655 94.7129 104.401C95.2052 103.146 95.9381 102.004 96.8688 101.041C97.7995 100.078 98.9094 99.3132 100.134 98.7911C101.358 98.2689 102.672 98 104 98C105.328 98 106.642 98.2689 107.866 98.7911C109.091 99.3132 110.201 100.078 111.131 101.041C112.062 102.004 112.795 103.146 113.287 104.401C113.779 105.655 114.021 106.996 113.999 108.347H113.996Z" fill="black"/>
<path d="M108.559 91.6948C107.008 90.9369 105.244 90.7936 103.599 91.2917C102.772 91.546 101.993 91.9583 101.154 92.1661C99.3634 92.6156 97.2741 92.1289 95.737 93.2171C94.8834 93.8372 94.3701 94.817 93.8925 95.7689L92.6987 98.1314C92.048 99.4244 91.3914 100.739 91.1198 102.162C90.8482 103.585 91.0124 105.179 91.8809 106.323C92.5136 107.157 93.4478 107.681 94.1343 108.465C94.5455 108.943 94.8575 109.503 95.0506 110.111C95.2437 110.719 95.3138 111.362 95.2565 112C96.0355 111.69 96.1101 110.599 96.128 109.73C96.1613 108.195 96.4168 106.673 96.8861 105.216C97.1585 104.255 97.6211 103.364 98.2441 102.599C98.5588 102.22 98.9476 101.916 99.3845 101.705C99.8214 101.494 100.296 101.383 100.778 101.378C101.972 101.421 103.043 102.277 104.225 102.174C105.121 102.097 105.915 101.461 106.816 101.337C107.611 101.259 108.405 101.493 109.042 101.992C109.673 102.489 110.226 103.085 110.681 103.759C112.311 105.988 113.633 108.602 113.71 111.399C114.048 111.656 114.534 111.321 114.701 110.924C114.868 110.527 114.874 110.062 115.086 109.684C115.331 109.247 115.8 109.014 116.167 108.686C117.098 107.852 117.331 106.447 117.295 105.173C117.259 103.898 117.02 102.605 117.253 101.353C117.393 100.584 117.71 99.8646 117.883 99.105C118.056 98.3454 118.077 97.4927 117.668 96.8385C117.071 95.8774 115.815 95.6882 114.719 95.5983C113.475 95.4867 112.361 95.6293 111.567 94.5411C111.195 93.9732 110.775 93.4399 110.314 92.9474C110.156 92.7862 108.559 91.763 108.559 91.6948Z" fill="#512E4E"/>
<path opacity="0.1" d="M76.0342 154.749L72.9704 149L72 157.871C72 157.871 72.5395 161.811 72.431 162.415C72.3225 163.02 74.6416 168.436 74.6416 168.436C74.6416 168.436 82.3025 182.286 85.4307 183L96 175.334L93.1972 171.721C93.1972 171.721 92.2267 171.337 91.9834 171.721C91.9834 171.721 86.7794 162.633 86.2399 161.975C85.7005 161.317 85.806 160.005 85.806 160.005C85.806 160.005 84.9968 159.13 85.2666 158.309C85.5363 157.487 83.7039 154.639 83.7039 154.639L85.375 153.053L76.0342 154.749Z" fill="black"/>
<path d="M72.8536 148L72.0107 148.661L71 157.621C71 157.621 71.5619 161.6 71.4489 162.21C71.3359 162.821 73.7544 168.291 73.7544 168.291C73.7544 168.291 81.7304 182.279 84.9886 183L96 175.258L93.0777 171.609C93.0777 171.609 92.0669 171.221 91.8135 171.609C91.8135 171.609 86.3933 162.43 85.8314 161.766C85.2696 161.101 85.3826 159.776 85.3826 159.776C85.3826 159.776 84.5398 158.892 84.8207 158.063C85.1016 157.233 83.1901 154.357 83.1901 154.357L84.9306 152.755L72.8536 148Z" fill="white"/>
<path opacity="0.1" d="M124.232 183.285C124.83 184.006 124.453 187.243 124.453 187.243L122.804 189.955C122.804 189.955 122.903 191.706 122.909 194.065L120.137 194.926C119.886 195.003 119.621 195.02 119.362 194.975C119.103 194.931 118.86 194.825 118.65 194.667C118.441 194.509 118.273 194.304 118.16 194.069C118.047 193.834 117.993 193.575 118.001 193.314L118.479 178L124.946 180.457C124.397 180.837 125 181.769 125 181.769C125 181.769 123.629 182.564 124.232 183.285Z" fill="black"/>
<path d="M124.233 183.278C124.83 183.998 124.454 187.236 124.454 187.236L122.805 189.946C122.805 189.946 122.904 191.693 122.913 194.053L120.091 194.928C119.846 195.004 119.586 195.02 119.333 194.976C119.08 194.932 118.841 194.828 118.637 194.674C118.432 194.519 118.268 194.319 118.157 194.089C118.047 193.858 117.993 193.605 118.001 193.35L118.481 178L124.949 180.455C124.397 180.835 125 181.763 125 181.763C125 181.763 123.635 182.56 124.233 183.278Z" fill="white"/>
<path d="M126 175.218C126 175.218 125.576 177.804 124.513 177.956C123.451 178.107 122.975 182.139 121.915 181.996C120.856 181.853 121.557 178.248 121.595 177.548C121.632 176.848 120.44 173.951 121.332 173.293C122.224 172.634 125.047 173.293 125.047 173.293L126 175.218Z" fill="#CF6F80"/>
<path opacity="0.1" d="M128.972 154.124L131.125 150C131.125 150 131.981 153.143 131.981 154.822C131.981 156.502 133.178 156.667 133.178 156.667C133.178 156.667 134.49 158.14 133.799 159.212C133.107 160.284 132.828 162.953 132.828 162.953C132.828 162.953 133.054 168.047 132.027 168.751C131.001 169.455 130.787 171.137 130.787 171.137C130.787 171.137 128.901 174.333 128.96 175.093C129.019 175.853 126.336 181 126.336 181C126.336 181 127.648 174.604 120.002 171.841C120.002 171.841 119.943 169.67 120.514 169.075C121.084 168.48 121.974 168.209 121.416 165.201C120.858 162.193 121.255 158.599 121.255 157.877C121.255 157.156 122.967 152.654 122.967 152.654L128.972 154.124Z" fill="black"/>
<path d="M129.246 149L131.124 149.597C131.124 149.597 131.983 152.781 131.983 154.482C131.983 156.183 133.179 156.35 133.179 156.35C133.179 156.35 134.49 157.842 133.799 158.929C133.108 160.015 132.832 162.719 132.832 162.719C132.832 162.719 133.058 167.878 132.032 168.592C131.006 169.305 130.777 171.009 130.777 171.009C130.777 171.009 128.896 174.247 128.955 175.017C129.014 175.787 126.33 181 126.33 181C126.33 181 127.644 174.521 120.001 171.722C120.001 171.722 119.946 169.523 120.516 168.92C121.086 168.317 121.976 168.042 121.418 164.996C120.86 161.949 121.257 158.308 121.257 157.577C121.257 156.846 122.967 152.286 122.967 152.286L129.246 149Z" fill="white"/>
<path opacity="0.1" d="M91 256.794C91 256.794 93.2553 255.318 94.7355 256.39C96.2157 257.463 91 256.794 91 256.794Z" fill="black"/>
<path opacity="0.1" d="M111 252.006C111 252.006 113.996 251.883 116.512 252.745C119.028 253.607 111 252.006 111 252.006Z" fill="black"/>
<g opacity="0.1">
<path opacity="0.1" d="M115.897 107.764C115.532 108.079 115.062 108.305 114.818 108.724C114.61 109.083 114.604 109.526 114.438 109.913C114.271 110.299 113.787 110.614 113.451 110.37C113.374 107.695 112.054 105.184 110.435 103.044C109.982 102.398 109.431 101.827 108.803 101.35C108.167 100.872 107.375 100.648 106.583 100.723C105.691 100.845 104.907 101.451 104.006 101.526C102.817 101.627 101.75 100.803 100.571 100.762C100.091 100.767 99.6182 100.874 99.1835 101.076C98.7488 101.279 98.3625 101.572 98.0503 101.936C97.4299 102.667 96.9693 103.521 96.6981 104.441C96.231 105.838 95.9766 107.296 95.9432 108.768C95.9253 109.597 95.8481 110.632 95.0813 110.941C95.0991 111.16 95.0991 111.381 95.0813 111.601C95.854 111.303 95.9313 110.257 95.9491 109.425C95.9822 107.953 96.2367 106.494 96.704 105.098C96.9753 104.177 97.4358 103.322 98.0563 102.59C98.3691 102.227 98.7556 101.934 99.1902 101.732C99.6248 101.531 100.097 101.424 100.577 101.419C101.765 101.46 102.835 102.28 104.012 102.182C104.904 102.108 105.694 101.499 106.589 101.38C107.381 101.305 108.173 101.529 108.809 102.007C109.437 102.484 109.988 103.055 110.441 103.701C112.06 105.838 113.38 108.343 113.457 111.024C113.793 111.271 114.277 110.95 114.444 110.569C114.61 110.189 114.616 109.743 114.824 109.381C115.068 108.961 115.537 108.739 115.903 108.424C116.83 107.624 117.062 106.278 117.026 105.056C117.026 105.018 117.026 104.979 117.026 104.943C116.97 106.001 116.688 107.08 115.897 107.764Z" fill="black"/>
<path opacity="0.1" d="M93.9579 107.551C93.2744 106.799 92.3412 106.297 91.7141 105.5C91.186 104.795 90.8845 103.947 90.8492 103.066C90.7557 104.166 91.0628 105.263 91.7141 106.154C92.3412 106.954 93.2744 107.456 93.9579 108.208C94.6142 108.943 95.0083 109.876 95.0784 110.859C95.1239 110.261 95.0481 109.659 94.8556 109.091C94.663 108.522 94.3577 107.999 93.9579 107.551Z" fill="black"/>
<path opacity="0.1" d="M117.606 98.5797C117.431 99.3078 117.119 100 116.976 100.734C116.892 101.225 116.861 101.723 116.884 102.22C116.894 101.937 116.925 101.655 116.976 101.376C117.119 100.639 117.431 99.9498 117.606 99.2216C117.708 98.82 117.742 98.4039 117.704 97.9912C117.686 98.1895 117.653 98.3861 117.606 98.5797Z" fill="black"/>
</g>
<path d="M41 165H39V202H41V165Z" fill="#535461"/>
<path d="M50.9941 201.498L50.8932 203.157L50.7484 205.504L50.689 206.48L50.5468 208.827L50.4847 209.802L50.3399 212.15L48.7058 238.77C48.6348 239.915 48.1338 240.99 47.3047 241.776C46.4756 242.562 45.3808 243 44.2431 243H35.7469C34.6095 243 33.515 242.562 32.6863 241.776C31.8577 240.99 31.3572 239.915 31.2868 238.77L29.6605 212.131L29.5157 209.784L29.4562 208.809L29.3114 206.462L29.252 205.486L29.1072 203.139L29.0037 201.48C28.9858 201.161 29.0327 200.841 29.1415 200.541C29.2504 200.241 29.419 199.966 29.6369 199.734C29.8548 199.502 30.1174 199.317 30.4087 199.191C30.7 199.064 31.0138 198.999 31.3308 199H48.7084C49.0242 199.003 49.3361 199.071 49.6249 199.2C49.9136 199.329 50.1731 199.516 50.3873 199.75C50.6014 199.984 50.7658 200.26 50.8702 200.561C50.9745 200.862 51.0167 201.181 50.9941 201.498Z" fill="#3F3D56"/>
<path d="M51 203L50.8539 205H29.1461L29 203H51Z" fill="#9D9CB5"/>
<path d="M51 207L50.8537 209H29.1489L29 207H51Z" fill="#9D9CB5"/>
<path d="M51 210L50.8509 212H29.1518L29 210H51Z" fill="#9D9CB5"/>
<path d="M26.6957 178.297C36.082 185.201 40 196 40 196C40 196 28.6881 195.605 19.2992 188.701C9.91032 181.796 6 171 6 171C6 171 17.3068 171.392 26.6957 178.297Z" fill="#284940"/>
<path d="M6 171C6 171 17.7412 177.625 21.5067 183.111C25.2722 188.596 40 196 40 196" stroke="#535461" stroke-width="2" stroke-miterlimit="10"/>
<path d="M32.5636 164.796C37.8071 168.384 40 174 40 174C40 174 33.6799 173.795 28.4337 170.207C23.1876 166.619 21 161 21 161C21 161 27.3175 161.205 32.5636 164.796Z" fill="#284940"/>
<path d="M21 161C21 161 27.5603 164.446 29.6635 167.298C31.7667 170.149 40 174 40 174" stroke="#535461" stroke-width="2" stroke-miterlimit="10"/>
<path d="M48.3617 174.715C42.2855 181.341 41 190 41 190C41 190 49.5674 187.914 55.6383 181.285C61.7092 174.657 63 166 63 166C63 166 54.4379 168.089 48.3617 174.715Z" fill="#284940"/>
<path d="M63 166C63 166 55.0866 172.793 53.075 177.473C51.0634 182.153 41 190 41 190" stroke="#535461" stroke-width="2" stroke-miterlimit="10"/>
<path d="M266.388 182.234C266.388 182.234 261.431 157.827 263.328 154.791C263.328 154.791 263.398 151.968 263.283 148.37C263.283 148.233 263.283 148.096 263.283 147.957C263.617 148.177 263.965 148.375 264.325 148.551C266.074 149.44 268.081 149.696 270 149.276L268.499 147.621C268.138 147.226 267.763 146.798 267.685 146.275C267.607 145.752 267.823 145.285 268.009 144.819C269.436 141.253 269.511 136.769 266.763 134.047C264.442 131.76 263.878 128.806 261.359 126.717C259.518 125.187 258.506 122.943 257.552 120.774C256.744 118.941 255.93 117.093 255.468 115.149C255.108 113.631 254.964 112.059 254.468 110.576C253.973 109.094 253.045 107.653 251.595 106.99C251.078 106.755 250.505 106.622 250.033 106.31C249.415 105.897 249.043 105.225 248.595 104.637C246.322 101.665 238.711 103.415 235.108 104.622C234.128 104.926 233.221 105.423 232.442 106.084L232.475 106.03C232.502 105.986 232.535 105.941 232.565 105.897C232.171 106.212 231.83 106.588 231.556 107.011C231.031 107.834 230.811 108.794 230.373 109.685C229.845 110.74 226.905 113.685 228.169 114.87C228.258 114.95 228.359 115.014 228.469 115.06C228.944 115.256 229.467 115.307 229.971 115.209L229.917 115.337C229.485 116.383 229.264 117.502 229.265 118.632C229.265 123.514 233.334 127.472 238.357 127.472C239.301 127.473 240.24 127.329 241.14 127.047C241.161 127.16 241.179 127.273 241.2 127.386C241.2 127.43 241.215 127.475 241.221 127.519L241.062 127.739C241.054 127.726 241.045 127.713 241.035 127.701L236.321 134.22C235.6 134.722 231.451 137.693 231.217 139.922C230.971 142.361 230.724 145.217 230.724 145.217L230.691 145.829C230.485 145.999 230.244 146.123 229.985 146.193C229.726 146.262 229.455 146.275 229.19 146.23C227.719 145.992 227.719 151.579 227.719 151.579C227.719 151.579 226.74 152.47 226.068 151.698C225.395 150.925 223.617 153.543 223.617 153.543L212.478 154.018L212.223 154.033L211.623 152.194C211.558 152 211.419 151.839 211.235 151.746C211.051 151.653 210.837 151.636 210.641 151.698C210.594 151.713 210.549 151.732 210.506 151.754L210.464 151.778L210.385 151.831L210.346 151.867C210.325 151.886 210.305 151.907 210.286 151.929L210.25 151.971L210.232 151.989C210.163 152.084 210.117 152.193 210.098 152.309C210.08 152.424 210.088 152.543 210.124 152.654L210.641 154.232C208.491 154.66 206.293 155.866 208.086 159.188L199 157.527L201.939 159.97L217.114 163.069C216.913 163.426 217.045 163.943 217.673 164.671C220.375 167.811 225.299 168.664 227.281 168.884C227.804 170.043 228.458 171.139 229.229 172.153L229.058 175.281C229.058 175.281 224.041 199.13 223.122 200.339C223.586 199.819 224.01 199.266 224.392 198.684C222.936 203.584 220.9 210.29 220.366 211.295C219.507 212.899 218.711 219.392 219.69 219.808C219.99 219.935 220.849 219.873 222.074 219.781V220.319L222.02 240.699C222.02 240.699 222.266 253.2 221.591 254.392C220.915 255.583 220.735 258.082 220.735 258.082C220.735 258.082 218.033 263.012 215.892 264.994C215.877 265.009 215.861 265.023 215.844 265.035L215.778 264.572C215.778 264.572 213.205 267.787 207.512 267.605C207.512 267.605 204.086 269.81 209.166 269.929C214.247 270.048 220.735 269.751 220.735 269.751C220.735 269.751 225.266 262.917 229.061 263.808V268.987H230.223V263.725C230.762 263.374 231.223 262.918 231.579 262.385C231.934 261.852 232.177 261.254 232.292 260.626C232.391 259.978 232.318 259.316 232.08 258.705C231.842 258.094 231.447 257.554 230.935 257.14C230.704 256.934 230.519 256.683 230.392 256.403C230.264 256.122 230.196 255.819 230.193 255.512L230.151 255.547C230.151 255.443 230.124 255.337 230.112 255.227C229.779 252.552 229.361 247.034 230.835 242.952C232.856 237.354 233.469 229.557 231.997 224.915C231.523 223.432 231.133 221.923 230.829 220.396C230.793 220.203 230.76 220.019 230.73 219.846C231.736 219.981 232.732 220.179 233.712 220.441C237.12 221.371 244.575 221.543 250.94 221.492C250.955 221.665 250.973 221.846 250.994 222.027C251.108 223.287 251.345 224.533 251.703 225.747C252.501 228.125 252.868 238.605 252.868 238.605C252.868 238.605 253.898 247.222 253.336 250.728C253.036 252.677 252.736 254.635 252.565 256.602V256.641C252.565 256.641 250.877 261.395 249.643 263.977C249.613 264.043 249.58 264.108 249.55 264.17C249.221 264.2 248.897 264.271 248.586 264.381C248.586 264.381 246.932 267.65 245.283 268.191C243.635 268.732 244.182 270.511 247.914 269.858C251.646 269.204 257.281 268.669 257.281 268.669L257.525 265.335L258.672 263.915L258.371 267.24L259.593 267.002L259.431 262.958L261.308 260.635C261.308 260.635 263.575 258.638 260.206 254.71V254.796C260.17 254.739 260.137 254.68 260.098 254.623V254.606C259.539 253.75 259.095 252.154 259.909 249.322C261.38 244.206 262.236 239.561 262.236 239.561C262.236 239.561 265.52 227.12 261.572 221.234H261.746C261.342 220.406 261.056 219.526 260.896 218.619C260.876 218.512 260.858 218.402 260.842 218.289C263.764 218.123 266.631 217.6 268.97 216.471C268.961 216.459 267.553 186.935 266.388 182.234ZM229.298 161.643V161.702L228.698 161.732L229.298 161.643ZM227.238 161.925C227.14 161.947 227.047 161.99 226.968 162.053C226.71 162.414 226.548 162.834 226.497 163.274L225.56 163.066C225.56 163.066 224.903 162.926 223.957 162.769L223.509 162.323C224.74 162.222 226.019 162.074 227.238 161.925Z" fill="url(#paint1_linear)"/>
<path d="M257.596 262.618L257 267L259 266.753L258.699 262L257.596 262.618Z" fill="#1D2366"/>
<path d="M230.099 243.464C228.676 247.576 229.078 253.127 229.398 255.822C229.516 256.819 229.626 257.425 229.626 257.425C229.626 257.425 227.498 262.342 227.321 262.528C227.143 262.714 221.059 266.482 221.059 266.482L216.807 269C216.807 269 212.493 267.082 214.561 266.421C214.984 266.249 215.364 265.986 215.677 265.65C217.748 263.654 220.349 258.692 220.349 258.692C220.349 258.692 220.527 256.173 221.178 254.976C221.829 253.778 221.592 241.192 221.592 241.192L221.642 220.675V218L229.735 218.06C229.786 218.968 229.903 219.871 230.084 220.762C230.375 222.299 230.751 223.818 231.212 225.312C232.638 229.992 232.046 237.83 230.099 243.464Z" fill="#FFB0B1"/>
<path opacity="0.1" d="M231 256.697C231 256.697 228.685 261.923 228.492 262.121C228.299 262.319 221.68 266.323 221.68 266.323L217.054 269C217.054 269 212.36 266.961 214.611 266.259C215.07 266.076 215.484 265.797 215.824 265.439L216.024 266.834L217.566 266.77L230.765 255C230.881 256.053 231 256.697 231 256.697Z" fill="black"/>
<path d="M229.952 255L217.774 266.509L216.359 266.571L216.064 264.402C216.064 264.402 213.589 267.743 208.089 267.557C208.089 267.557 204.787 269.847 209.681 269.971C214.575 270.095 220.825 269.785 220.825 269.785C220.825 269.785 225.191 262.657 228.844 263.587V268.97H229.966V263.537C230.488 263.169 230.934 262.693 231.276 262.139C231.618 261.586 231.85 260.965 231.957 260.315C232.054 259.645 231.986 258.96 231.757 258.326C231.529 257.692 231.15 257.13 230.655 256.695C230.434 256.478 230.257 256.215 230.136 255.924C230.015 255.632 229.953 255.318 229.952 255Z" fill="#1D2366"/>
<path d="M259.401 249.706C258.584 252.523 259.03 254.109 259.588 254.96V254.978C260.305 256.028 260.803 257.204 261.056 258.438L261.105 258.705L255.345 266.814L252.22 268C252.22 268 247.194 266.343 248.112 265.868C248.342 265.753 248.701 265.136 249.113 264.285C250.341 261.72 252.036 256.988 252.036 256.988V256.949C252.214 254.996 252.496 253.048 252.809 251.108C253.371 247.619 252.34 239.053 252.34 239.053C252.34 239.053 251.971 228.637 251.173 226.268C250.813 225.063 250.573 223.828 250.458 222.579C250.292 221.097 250.255 219.875 250.255 219.875C250.255 219.875 253.565 215.428 259.631 220.231C260.116 220.614 260.543 221.061 260.899 221.559C265.09 227.317 261.716 240.002 261.716 240.002C261.716 240.002 260.872 244.615 259.401 249.706Z" fill="#FFB0B1"/>
<path opacity="0.1" d="M260 258.784L254.726 266.824L251.864 268C251.864 268 247.262 266.357 248.103 265.886C248.313 265.772 248.642 265.16 249.019 264.316C250.967 264.299 251.977 266.239 251.977 266.239L254.445 265.827C254.445 265.827 257.7 259.136 258.431 258.728C259.162 258.319 258.544 255.673 258.544 255.673V255C258.563 255.024 258.58 255.05 258.603 255.073V255.091C259.259 256.133 259.715 257.298 259.947 258.522L260 258.784Z" fill="black"/>
<path d="M252.842 266.182C252.842 266.182 251.454 263.498 248.793 264.489C248.793 264.489 247.297 267.706 245.8 268.227C244.303 268.747 244.803 270.502 248.185 269.861C251.568 269.221 256.666 268.692 256.666 268.692L256.888 265.419L260.326 260.808C260.326 260.808 262.376 258.851 259.326 255V255.67C259.326 255.67 259.937 258.302 259.215 258.708C258.493 259.114 255.289 265.773 255.289 265.773L252.842 266.182Z" fill="#1D2366"/>
<path opacity="0.1" d="M230.628 218.043C230.683 218.701 230.807 219.355 231 220C227.452 219.641 224.159 219.82 222 219.937V218L230.628 218.043Z" fill="black"/>
<path opacity="0.1" d="M260 222.696C260 222.696 255.971 222.948 251.166 223C251.03 221.381 251 220.048 251 220.048C251 220.048 253.715 215.192 258.691 220.436C259.088 220.854 259.439 221.343 259.731 221.886C259.809 222.162 259.899 222.433 260 222.696Z" fill="black"/>
<path d="M260 221.712C260 221.712 238.768 222.735 232.297 220.927C225.826 219.119 219.412 220.685 218.445 220.266C217.479 219.846 218.264 213.274 219.112 211.647C219.96 210.02 224.614 193.566 224.614 193.566L229.092 170.304L233.809 169.009L234.142 168.915L242.361 166.657L248.384 165C248.384 165 260.361 211.587 259.333 215.022C258.96 216.338 258.9 217.722 259.158 219.064C259.315 219.981 259.598 220.872 260 221.712Z" fill="#1D2366"/>
<path d="M214.71 155C214.71 155 211.46 159.396 213.921 161.847C216.382 164.297 218 162.081 218 162.081L214.71 155Z" fill="#C7DAF5"/>
<path opacity="0.1" d="M214.71 155C214.71 155 211.46 159.396 213.921 161.847C216.382 164.297 218 162.081 218 162.081L214.71 155Z" fill="black"/>
<path d="M249 126.074C249 126.074 248.452 126.535 247.628 127.214C246.452 128.186 244.713 129.606 243.17 130.796C241.033 132.441 239.27 133.649 239.902 132.618C240.533 131.588 240.412 129.792 240.099 128.112C240.075 128 240.055 127.887 240.032 127.778C239.772 126.544 239.427 125.325 239 124.128C239 124.128 242.452 120.183 244.362 118.627C245.073 118.036 245.571 117.794 245.601 118.204C245.634 118.757 246.102 119.976 246.683 121.27C246.699 121.311 246.716 121.349 246.736 121.391C247.124 122.277 247.561 123.186 247.945 123.972C248.533 125.177 249 126.074 249 126.074Z" fill="#FFB0B1"/>
<path opacity="0.1" d="M246 121.016C245.706 122.39 244.994 123.67 243.938 124.723C242.881 125.776 241.519 126.562 239.994 127C239.754 125.8 239.422 124.615 239 123.453C239 123.453 244.882 116.841 244.973 118.179C244.994 118.686 245.453 119.812 246 121.016Z" fill="black"/>
<path opacity="0.1" d="M240.741 128.08L241.531 127C241.531 127 242.055 130.098 243.98 128.732C245.906 127.365 246 139.015 246 139.015L243.933 169L229 168.133L229.423 153.644L231.114 146.34L235.294 135.722L237.781 132.213L240.741 128.08Z" fill="black"/>
<path d="M246 139.026L244.117 166.128L243.92 169L235.589 168.516L235.275 168.498L229 168.133L229.424 153.646L231.115 146.345L235.297 135.731L237.786 132.223L240.747 128.077L241.538 127C241.538 127 242.062 130.097 243.989 128.731L244.03 128.704C245.912 127.548 246 139.026 246 139.026Z" fill="#1D2366"/>
<path d="M230.651 145C230.651 145 229.968 146.497 228.595 146.254C227.222 146.012 227.225 151.643 227.225 151.643C227.225 151.643 226.312 152.541 225.683 151.762C225.054 150.984 223.395 153.615 223.395 153.615L213 154.094C213 154.094 217.625 156.307 216.718 163C216.718 163 232.422 161.982 232.937 160.429C233.452 158.875 230.651 145 230.651 145Z" fill="white"/>
<path opacity="0.03" d="M230.651 145C230.651 145 229.968 146.497 228.595 146.254C227.222 146.012 227.225 151.643 227.225 151.643C227.225 151.643 226.312 152.541 225.683 151.762C225.054 150.984 223.395 153.615 223.395 153.615L213 154.094C213 154.094 217.625 156.307 216.718 163C216.718 163 232.422 161.982 232.937 160.429C233.452 158.875 230.651 145 230.651 145Z" fill="black"/>
<path d="M199 158L201.816 160.314L225 165L222.125 162.177L199 158Z" fill="white"/>
<path d="M240.256 129.795C239.883 130.393 238.815 133.455 237.924 136.128C237.18 138.355 236.56 140.313 236.56 140.313C236.56 140.313 235.11 150.221 234.37 152.012C233.63 153.803 234.031 160.787 234.031 160.787L231.272 178.035C231.272 178.035 230.022 186.929 228.092 192.242C226.187 197.471 224.065 199.922 224 200C224.854 198.786 229.51 174.886 229.51 174.886L231.047 144.744C231.047 144.744 231.272 141.88 231.5 139.431C231.728 136.983 236.34 133.64 236.34 133.64L240.788 127C241.235 127.628 240.936 128.722 240.256 129.795Z" fill="white"/>
<path d="M227.647 169C227.647 169 220.889 168.729 217.616 165.099C214.343 161.469 225.182 163.65 225.182 163.65L228 164.247L227.647 169Z" fill="#FFB0B1"/>
<path opacity="0.1" d="M259.939 214.131C259.575 215.425 259.516 216.786 259.767 218.106C252.34 218.634 244.395 216.622 244.395 216.622C242.915 217.987 239.017 220 239.017 220L236.892 193.581C235.533 190.018 235 171.356 235 171.356C235 171.356 235.121 170.379 235.296 168.915C235.296 168.88 235.296 168.841 235.311 168.806C235.841 164.718 236.892 157.045 237.407 156.009C238.117 154.584 235.222 150.793 235.222 150.793L236.539 139.528L236.699 138.168C239.476 136.924 241.604 132.952 241.604 132.952L243.238 130.082C245.014 128.939 245.106 140.139 245.106 140.139L243.33 166.585L249.215 164.956C249.215 164.956 260.943 210.753 259.939 214.131Z" fill="black"/>
<path d="M267 216.352C258.956 220.354 244.335 216.647 244.335 216.647C242.865 218.002 238.991 220 238.991 220L236.876 193.774C235.529 190.238 235 171.711 235 171.711C235 171.711 236.7 157.888 237.406 156.476C237.612 156.064 237.512 155.451 237.268 154.791C236.067 151.649 235.626 148.267 235.979 144.922L236.544 140.116L236.7 138.769C239.462 137.532 241.576 133.589 241.576 133.589L243.047 131.007L245.753 126.251L247.035 124L247.253 124.197L248.915 125.706C248.915 125.706 249.621 126.296 250.679 127.18C252.982 129.124 256.962 132.549 259.015 134.644C260.821 136.488 261.391 143.664 261.556 149.065C261.665 152.622 261.6 155.41 261.6 155.41C259.779 158.412 264.541 182.52 264.541 182.52C265.65 187.179 267 216.352 267 216.352Z" fill="white"/>
<path opacity="0.03" d="M251.74 133.412C251.74 133.412 245.999 143.838 246.666 147.801C247.332 151.764 249.229 156.25 248.314 157.297C248 157.694 247.594 158.016 247.127 158.239C246.661 158.461 246.147 158.577 245.626 158.578C244.708 158.637 242.261 160.268 242.261 160.443C242.261 160.618 240.001 160.618 237.979 161.435C235.958 162.253 232.973 162.717 232.973 162.717C232.973 162.717 227.161 162.541 226.62 163.067C226.079 163.592 225.522 166.735 226.681 169.242C227.84 171.748 229.128 173.619 230.101 173.961C231.073 174.302 237.245 172.329 242.252 171.862C247.259 171.395 252.694 167.61 252.694 167.61C252.694 167.61 258.68 165.568 259.729 162.133C260.778 158.698 258.447 139.82 258.447 139.82C258.447 139.82 256.685 131.022 251.74 133.412Z" fill="black"/>
<path opacity="0.03" d="M251.503 132.421C251.503 132.421 245.59 143.105 246.283 147.162C246.976 151.219 248.923 155.816 247.978 156.893C247.655 157.3 247.237 157.63 246.757 157.858C246.278 158.086 245.748 158.204 245.212 158.205C244.267 158.265 241.746 159.936 241.746 160.115C241.746 160.295 239.418 160.295 237.336 161.129C235.254 161.963 232.179 162.441 232.179 162.441C232.179 162.441 226.193 162.262 225.639 162.8C225.085 163.338 224.505 166.561 225.702 169.126C226.899 171.691 228.222 173.61 229.224 173.96C230.226 174.309 236.583 172.288 241.74 171.813C246.897 171.338 252.495 167.454 252.495 167.454C252.495 167.454 258.657 165.362 259.725 161.846C260.793 158.331 258.405 138.986 258.405 138.986C258.405 138.986 256.597 129.975 251.503 132.421Z" fill="black"/>
<path d="M251.733 132.418C251.733 132.418 245.992 143.103 246.665 147.16C247.338 151.217 249.228 155.815 248.313 156.888C248 157.296 247.594 157.628 247.128 157.856C246.661 158.084 246.147 158.203 245.625 158.204C244.707 158.264 242.261 159.935 242.261 160.111C242.261 160.288 240.004 160.291 237.979 161.128C235.954 161.965 232.972 162.44 232.972 162.44C232.972 162.44 227.161 162.261 226.62 162.799C226.079 163.337 225.522 166.56 226.681 169.125C227.84 171.69 229.128 173.61 230.1 173.96C231.073 174.309 237.245 172.288 242.252 171.81C247.258 171.332 252.693 167.454 252.693 167.454C252.693 167.454 258.678 165.361 259.727 161.842C260.776 158.323 258.461 138.983 258.461 138.983C258.461 138.983 256.675 129.984 251.733 132.418Z" fill="white"/>
<path opacity="0.1" d="M251.879 160.296C251.879 160.296 247.911 159.302 249.292 160.958C250.673 162.614 250.665 164.064 252.355 163.998C254.045 163.932 251.879 160.296 251.879 160.296Z" fill="black"/>
<path opacity="0.1" d="M260.426 192C260.426 192 258.795 193.554 261.916 197.136C265.037 200.718 260.426 192 260.426 192Z" fill="black"/>
<path opacity="0.1" d="M256.09 204C256.09 204.193 255.345 211.086 258.133 212.809C260.921 214.533 256.09 204 256.09 204Z" fill="black"/>
<path d="M213.028 155C210.467 155.061 204.936 155.602 207.804 159.304C210.34 162.58 214.602 160.39 217 158.729C216.415 157.18 214.993 155.845 213.028 155Z" fill="#FFB0B1"/>
<path opacity="0.1" d="M252 127.163C249.763 128.698 247.887 129.995 247.52 130.264C246.518 131.01 244.607 135.389 243.375 137.624C242.393 139.424 239.203 139.886 238 140L238.154 138.663C240.89 137.434 242.984 133.52 242.984 133.52L248.391 124L250.252 125.7C250.252 125.7 250.951 126.285 252 127.163Z" fill="black"/>
<path d="M252 127.163C249.763 128.698 247.887 129.995 247.52 130.267C246.518 131.01 244.607 135.389 243.375 137.624C242.393 139.424 239.203 139.886 238 140L238.154 138.663C240.89 137.434 242.984 133.52 242.984 133.52L248.391 124L250.252 125.694C250.252 125.694 250.951 126.273 252 127.163Z" fill="#DCE7FF"/>
<path d="M246 118.499C246.001 120.219 245.479 121.899 244.504 123.316C243.352 124.991 241.638 126.198 239.672 126.718C237.706 127.237 235.619 127.035 233.79 126.147C231.96 125.26 230.51 123.746 229.701 121.88C228.892 120.015 228.779 117.921 229.382 115.979C229.985 114.037 231.264 112.376 232.988 111.297C234.711 110.217 236.764 109.791 238.774 110.096C240.784 110.401 242.619 111.416 243.945 112.958C245.27 114.499 246 116.465 246 118.499Z" fill="#FFB0B1"/>
<path opacity="0.1" d="M263 149C261.77 148.247 260.768 147.176 260.101 145.902C259.595 144.907 259.259 143.759 258.395 143.054C257.617 142.421 256.578 142.267 255.608 141.984C252.421 141.047 249.749 138.153 249.649 134.85C249.601 133.295 250.088 131.743 249.867 130.203C249.742 129.331 249.393 128.506 248.855 127.807C248.588 127.472 248.296 127.159 247.98 126.87C247.556 126.472 247.11 126.086 246.723 125.664C246.478 125.403 246.265 125.115 246.086 124.805C245.942 124.552 245.826 124.284 245.738 124.007C245.132 122.162 245.684 119.974 245.017 118.109L244.981 118.006C244.729 117.343 244.217 116.68 243.505 116.629C242.793 116.578 242.185 117.165 241.506 117.427C240.085 117.976 238.552 117.042 237.368 116.089C236.183 115.137 234.847 114.049 233.341 114.26C232.345 114.402 231.557 115.077 230.639 115.426C230.432 115.506 230.218 115.568 230 115.61C230.777 113.683 232.204 112.085 234.037 111.091C235.869 110.097 237.992 109.768 240.042 110.162C242.091 110.556 243.938 111.648 245.267 113.25C246.595 114.852 247.321 116.864 247.319 118.94C247.32 119.567 247.254 120.193 247.123 120.806C247.138 120.848 247.153 120.887 247.171 120.93C247.522 121.834 247.919 122.762 248.268 123.564L249.979 125.107C249.979 125.107 250.706 125.709 251.797 126.614C254.169 128.603 258.268 132.105 260.383 134.247C262.243 136.14 262.824 143.476 263 149Z" fill="black"/>
<path d="M230.452 109.642C230.879 108.783 231.091 107.82 231.602 107.005C232.352 105.824 233.66 105.069 235.005 104.611C238.515 103.415 245.932 101.679 248.149 104.611C248.585 105.202 248.946 105.857 249.55 106.264C250.01 106.574 250.565 106.707 251.07 106.94C252.483 107.596 253.385 109.025 253.866 110.483C254.347 111.942 254.491 113.506 254.843 115.009C255.294 116.937 256.086 118.764 256.875 120.58C257.804 122.723 258.789 124.946 260.582 126.461C263.028 128.528 263.569 131.453 265.839 133.721C268.528 136.413 268.441 140.856 267.055 144.384C266.873 144.848 266.667 145.332 266.739 145.825C266.81 146.318 267.181 146.767 267.53 147.159L269 148.798C265.523 149.628 261.589 147.833 259.969 144.683C259.471 143.708 259.139 142.586 258.285 141.893C257.52 141.273 256.492 141.125 255.539 140.847C252.397 139.926 249.762 137.089 249.663 133.854C249.615 132.333 250.096 130.813 249.878 129.307C249.757 128.447 249.412 127.634 248.878 126.945C248.056 125.885 246.816 125.174 246.147 123.993C245.015 122.018 245.875 119.452 245.06 117.333C244.809 116.683 244.307 116.034 243.605 115.983C242.903 115.933 242.303 116.509 241.63 116.766C240.232 117.303 238.721 116.391 237.553 115.455C236.385 114.519 235.067 113.456 233.58 113.666C232.597 113.802 231.823 114.463 230.918 114.808C230.249 115.062 228.893 115.29 228.307 114.732C227.07 113.607 229.935 110.693 230.452 109.642Z" fill="#591D4B"/>
<path opacity="0.1" d="M260.865 143.711C260.363 142.74 260.035 141.622 259.18 140.933C258.416 140.315 257.388 140.165 256.432 139.889C253.292 138.974 250.657 136.146 250.556 132.921C250.508 131.406 250.989 129.887 250.774 128.387C250.649 127.535 250.304 126.73 249.773 126.047C248.949 124.991 247.709 124.282 247.043 123.105C245.91 121.139 246.771 118.582 245.952 116.466C245.704 115.822 245.199 115.175 244.5 115.122C243.801 115.069 243.195 115.648 242.526 115.904C241.128 116.44 239.613 115.528 238.448 114.598C237.283 113.668 235.959 112.606 234.475 112.812C233.492 112.95 232.715 113.609 231.813 113.951C231.144 114.204 229.784 114.433 229.199 113.877C227.968 112.7 230.833 109.802 231.347 108.76C231.774 107.901 231.986 106.945 232.5 106.132C232.527 106.088 232.557 106.044 232.587 106C232.202 106.314 231.871 106.685 231.604 107.1C231.093 107.913 230.881 108.866 230.454 109.728C229.937 110.77 227.072 113.677 228.306 114.845C228.903 115.404 230.248 115.175 230.917 114.922C231.813 114.577 232.596 113.918 233.578 113.783C235.072 113.574 236.387 114.636 237.552 115.566C238.717 116.496 240.24 117.408 241.632 116.873C242.302 116.617 242.887 116.04 243.604 116.093C244.321 116.146 244.799 116.79 245.059 117.438C245.875 119.55 245.014 122.107 246.146 124.076C246.816 125.232 248.055 125.956 248.877 127.018C249.412 127.705 249.756 128.516 249.878 129.372C250.096 130.873 249.615 132.388 249.663 133.904C249.761 137.14 252.396 139.956 255.539 140.875C256.486 141.151 257.519 141.298 258.284 141.916C259.142 142.608 259.479 143.726 259.969 144.697C261.588 147.836 265.523 149.626 269 148.799L268.307 148.028C265.293 148.072 262.243 146.383 260.865 143.711Z" fill="black"/>
<path opacity="0.1" d="M239.364 130.085C239.044 130.738 238.129 134.081 237.365 137C236.649 136.628 236 134.254 236 134.254L239.813 127C240.204 127.718 239.947 128.91 239.364 130.085Z" fill="black"/>
<path d="M240.205 129.775C239.805 130.363 238.661 133.372 237.706 136C236.812 135.668 236 133.528 236 133.528L240.766 127C241.255 127.644 240.934 128.719 240.205 129.775Z" fill="#DCE7FF"/>
<path d="M212.575 159.812L210.036 151.957C210.006 151.865 209.994 151.768 210.003 151.672C210.011 151.575 210.038 151.482 210.084 151.396C210.129 151.31 210.191 151.234 210.266 151.172C210.341 151.11 210.429 151.063 210.522 151.033C210.711 150.976 210.916 150.993 211.092 151.083C211.268 151.172 211.4 151.326 211.461 151.511L214 159.358L213.748 161L212.575 159.812Z" fill="#BE8B87"/>
<path opacity="0.1" d="M210.16 151.255C210.355 151.196 210.567 151.213 210.749 151.303C210.93 151.392 211.068 151.547 211.13 151.732L213.746 159.579L213.55 160.81L213.74 161L214 159.358L211.369 151.511C211.306 151.326 211.17 151.172 210.988 151.083C210.807 150.993 210.597 150.976 210.402 151.033C210.238 151.084 210.097 151.185 210 151.321C210.051 151.295 210.105 151.273 210.16 151.255Z" fill="white"/>
<path d="M213 160.27L214 160L213.854 160.82L213.823 161L213.531 160.741L213 160.27Z" fill="#EFC8C4"/>
<path d="M210 156C210 156 214.997 155.974 213.821 157.873C212.644 159.771 210.806 160 210.806 160L210 156Z" fill="#FFB0B1"/>
<path d="M189.925 39H189.728C181.903 39 174.982 43.096 171.001 49.1401C167.02 43.096 160.1 39 152.275 39H152.078C146.205 39.0554 140.592 41.401 136.458 45.5273C132.324 49.6536 130.003 55.227 130 61.0363C130 68.2503 133.194 78.4864 139.422 86.9092C151.289 102.958 171.001 117 171.001 117C171.001 117 190.714 102.961 202.578 86.9092C208.809 78.4864 212 68.2503 212 61.0363C211.997 55.2274 209.676 49.6544 205.543 45.5282C201.409 41.402 195.797 39.056 189.925 39ZM187.111 88.144C186.22 88.1406 185.35 87.8708 184.617 87.3699C183.883 86.869 183.32 86.1604 183.001 85.3372H178.323C178.015 85.3353 177.715 85.2383 177.466 85.0597C177.216 84.8812 177.029 84.6299 176.931 84.3411L175.493 80.0584L170.946 95.7756C170.858 96.0782 170.672 96.3442 170.418 96.5336C170.163 96.723 169.854 96.8257 169.535 96.8262H169.444C169.111 96.8103 168.795 96.6821 168.546 96.4631C168.298 96.244 168.134 95.9473 168.08 95.6226L163.394 67.7419L159.969 84.24C159.89 84.5534 159.708 84.8317 159.451 85.0306C159.194 85.2295 158.877 85.3374 158.55 85.3372H151.96C151.762 85.3455 151.565 85.3141 151.38 85.2451C151.195 85.176 151.026 85.0706 150.884 84.9353C150.741 84.7999 150.627 84.6374 150.55 84.4575C150.472 84.2776 150.432 84.084 150.432 83.8885C150.432 83.6929 150.472 83.4993 150.55 83.3194C150.627 83.1395 150.741 82.977 150.884 82.8417C151.026 82.7063 151.195 82.6009 151.38 82.5318C151.565 82.4628 151.762 82.4314 151.96 82.4397H157.396L162.248 60.2581C162.327 59.9302 162.52 59.6398 162.792 59.4365C163.064 59.2333 163.399 59.1299 163.74 59.144C164.08 59.1581 164.405 59.2888 164.659 59.5138C164.914 59.7388 165.081 60.0441 165.132 60.3774L169.918 88.8184L173.993 74.7562C174.078 74.46 174.258 74.1989 174.505 74.0119C174.752 73.8249 175.054 73.722 175.365 73.7185H175.394C175.702 73.7186 176.002 73.815 176.252 73.9939C176.501 74.1727 176.688 74.425 176.784 74.7147L179.383 82.4475H182.944C183.197 81.6865 183.658 81.0096 184.275 80.4914C184.893 79.9732 185.643 79.6338 186.443 79.5107C187.244 79.3877 188.063 79.4857 188.81 79.7941C189.558 80.1024 190.204 80.609 190.679 81.258C191.154 81.907 191.438 82.6731 191.501 83.4718C191.563 84.2705 191.401 85.0708 191.033 85.7842C190.664 86.4976 190.104 87.0965 189.413 87.5147C188.723 87.933 187.928 88.1543 187.119 88.1543L187.111 88.144Z" fill="#284940"/>
<defs>
<linearGradient id="paint0_linear" x1="102.497" y1="273.006" x2="102.497" y2="91.0003" gradientUnits="userSpaceOnUse">
<stop stop-color="#808080" stop-opacity="0.25"/>
<stop offset="0.54" stop-color="#808080" stop-opacity="0.12"/>
<stop offset="1" stop-color="#808080" stop-opacity="0.1"/>
</linearGradient>
<linearGradient id="paint1_linear" x1="66986.6" y1="137998" x2="66986.6" y2="44144.2" gradientUnits="userSpaceOnUse">
<stop stop-color="#808080" stop-opacity="0.25"/>
<stop offset="0.54" stop-color="#808080" stop-opacity="0.12"/>
<stop offset="1" stop-color="#808080" stop-opacity="0.1"/>
</linearGradient>
</defs>
</svg>
