<svg width="301" height="301" viewBox="0 0 301 301" fill="none" xmlns="http://www.w3.org/2000/svg">
<path d="M220 105.143L240.386 110L249 93.0859L231.568 86L220 105.143Z" fill="#2F2E41"/>
<path d="M231 192.267C231 192.267 224.143 206.933 224.143 211.2C224.143 211.2 226.857 222.8 226 226L223 232L216.714 229.6L215 213.6L215.286 188L231 192.267Z" fill="#FFB9B9"/>
<path d="M234.673 102.444C234.673 102.444 235.199 111.407 234.146 114.123C233.092 116.839 238.097 122 238.097 122L246 111.407C246 111.407 240.731 105.975 242.049 100L234.673 102.444Z" fill="#FFB9B9"/>
<path d="M216.682 164.435C216.682 164.435 208.587 180.099 216.403 178.939C224.218 177.778 221.567 164 221.567 164" fill="#E6E6E6"/>
<path d="M222.537 164.59L225 138.733L224.871 123L219.167 124.094V138.596L218 165" fill="#FFB9B9"/>
<path d="M215.723 228.624L227.752 224L229.15 247.12C229.15 247.12 231.668 254.192 230.829 256.912C230.829 256.912 231.388 261.537 229.99 261.809C228.591 262.081 224.675 262.625 224.395 262.353C224.115 262.081 224.115 261.265 224.115 261.265C224.115 261.265 221.318 263.169 221.038 265.345C221.038 265.345 209.289 268.881 209.009 265.617C208.73 262.353 214.884 259.633 214.884 259.633L219.639 252.56L215.723 228.624Z" fill="#2F2E41"/>
<path d="M256 192.267C256 192.267 249.143 206.933 249.143 211.2C249.143 211.2 251.857 222.8 251 226L248 232L241.714 229.6L240 213.6L240.286 188L256 192.267Z" fill="#FFB9B9"/>
<path d="M240.723 228.624L252.752 224L254.15 247.12C254.15 247.12 256.668 254.192 255.829 256.912C255.829 256.912 256.388 261.537 254.989 261.809C253.591 262.081 249.675 262.625 249.395 262.353C249.115 262.081 249.115 261.265 249.115 261.265C249.115 261.265 246.318 263.169 246.038 265.345C246.038 265.345 234.289 268.881 234.009 265.617C233.73 262.353 239.884 259.633 239.884 259.633L244.639 252.56L240.723 228.624Z" fill="#2F2E41"/>
<path d="M246 96.4993C245.999 98.8383 245.182 101.095 243.704 102.837C242.226 104.579 240.192 105.685 237.991 105.942C235.79 106.2 233.576 105.591 231.774 104.232C229.971 102.874 228.706 100.861 228.22 98.5787C228.072 97.8967 227.998 97.199 228 96.4993C228.002 93.9793 228.951 91.5632 230.638 89.7819C232.326 88.0006 234.614 87 237 87C239.386 87 241.674 88.0006 243.362 89.7819C245.05 91.5632 245.998 93.9793 246 96.4993Z" fill="#FFB9B9"/>
<path d="M238.328 113.475L244.97 110L247.957 112.397C247.957 112.397 255.179 112.128 257.854 115.362C260.529 118.596 262 126.816 262 126.816C262 126.816 253.173 124.929 254.243 132.475L252.638 128.163L251.167 131.801L233.246 138L225.222 124.255C225.222 124.255 219.872 122.638 218 126.411C218 126.411 218.401 112.802 223.617 112.397C227.125 112.126 229.769 112.128 229.769 112.128L232.711 111.589L234.595 110.915L238.328 113.475Z" fill="#575A89"/>
<path d="M249.168 142.82C249.168 142.82 263.316 187.034 259.274 193.21C259.274 193.21 244.182 201.071 214 190.403L226.262 140.855C233.793 139.25 241.429 139.905 249.168 142.82Z" fill="#2F2E41"/>
<path d="M249.968 144L254 129.86C249.163 124.492 253.338 112.589 253.338 112.589L247.502 111.313C247.502 111.313 241.645 127.43 235.642 125.481C229.639 123.532 232.913 111 232.913 111L227.456 111.557L225 121.304L226.774 142.051C234.171 141.403 241.929 142.157 249.968 144Z" fill="#575A89"/>
<path d="M256.623 164.59L258.472 138.596L259 123L253.189 124.094V138.596L252 165" fill="#FFB9B9"/>
<path d="M252.682 164.435C252.682 164.435 244.587 180.099 252.403 178.939C260.218 177.778 257.567 164 257.567 164" fill="white"/>
<path d="M262 127.649C262 127.649 261.039 112.949 253 113V130C253 130 259.025 126.218 262 127.649Z" fill="#575A89"/>
<path d="M239.273 99C239.216 99 239.161 98.9857 239.115 98.9591C239.069 98.9325 239.034 98.8948 239.015 98.8514C238.997 98.8079 238.995 98.7608 239.011 98.7165C239.026 98.6722 239.058 98.633 239.102 98.6043L244.555 95.0496C244.583 95.0312 244.616 95.0174 244.65 95.0091C244.685 95.0008 244.721 94.9981 244.756 95.0013C244.792 95.0044 244.827 95.0133 244.858 95.0274C244.89 95.0415 244.918 95.0605 244.94 95.0834C244.963 95.1063 244.979 95.1326 244.989 95.1608C244.999 95.1889 245.002 95.2184 244.998 95.2476C244.994 95.2767 244.983 95.3049 244.966 95.3305C244.948 95.3561 244.924 95.3786 244.896 95.3968L239.443 98.9514C239.395 98.9829 239.335 99 239.273 99Z" fill="white"/>
<path d="M240 104.66C239.898 104.802 239.795 104.944 239.688 105.076C238.452 105.711 237.106 106.026 235.749 105.998C234.391 105.97 233.057 105.6 231.842 104.915C230.627 104.23 229.562 103.246 228.724 102.036C227.887 100.826 227.298 99.4201 227 97.92L231.415 97L240 97.92C238.034 100.633 238.271 101.572 240 104.66Z" fill="white"/>
<path d="M231.99 84.2263C231.99 84.2263 227.601 85.08 226.586 90.7407C226.427 91.6953 226.398 92.6682 226.5 93.631C226.601 94.7207 226.454 97.022 224.166 99.7319C222.673 101.489 221.282 103.337 220 105.264L224.586 106.527L226.636 98.6693C227.629 94.8597 229.16 91.2222 231.178 87.8737L231.22 87.8038C231.22 87.8038 232.743 92.0126 236.826 92.5896L235.567 90.8757C235.567 90.8757 240.34 93.7288 243.044 94.6003C243.353 94.6998 243.629 94.8845 243.844 95.1345C244.058 95.3845 244.203 95.6903 244.262 96.0189C244.321 96.3476 244.292 96.6867 244.178 96.9996C244.065 97.3126 243.871 97.5876 243.617 97.795C243.598 97.8106 243.579 97.8262 243.559 97.8418C241.57 99.4039 237.512 103.131 239.115 106.737C240.718 110.343 238.849 111 238.849 111L242.296 109.644L243.874 108.945L243.714 110.152L251.416 110.318C251.416 110.318 253.497 110.305 249.801 104.561C249.801 104.561 248.909 102.407 249.641 100.761C250.229 99.5147 250.521 98.1417 250.495 96.7555C250.262 90.9637 247.902 79.1808 231.99 84.2263Z" fill="#2F2E41"/>
<path opacity="0.1" d="M120.84 34.0171C133.259 29.4066 148.377 33.3718 161.288 39.1547C201.838 57.3218 231.379 91.808 254.85 126.942C263.349 139.664 271.421 152.946 274.615 167.148C281.12 196.055 264.154 225.98 235.3 236.467C225.488 240.036 214.708 241.5 203.911 242.315C184.712 243.768 164.835 243.191 145.79 237.812C132.208 233.968 119.361 227.784 107.038 220.952C72.625 201.862 41.1975 177.072 18.5678 146.79C8.64268 133.508 0.246234 118.534 0.004293 103.209C-0.237648 87.884 9.76166 72.4848 26.2136 69.879C33.0155 68.8026 40.2105 69.9229 47.2295 71.0762C57.5642 72.7759 68.0392 74.5635 78.2557 73.8221C88.8103 73.0505 102.538 68.9316 104.462 58.8678C106.499 48.0625 108.438 38.622 120.84 34.0171Z" fill="#284940"/>
<path d="M36.333 276.024C36.333 276.024 53.9016 274.923 51.8302 287.714C51.8302 287.714 52.2416 289.983 50.2685 291C50.2685 291 50.2394 290.051 48.4665 290.372C47.8368 290.485 47.1963 290.518 46.5589 290.471C45.697 290.409 44.8779 290.057 44.2254 289.468C44.2254 289.468 39.2854 287.35 37.3669 278.962C37.3669 278.962 35.9435 277.136 36.0017 276.663L38.965 277.979C38.965 277.979 37.953 280.203 38.7503 282.048C38.7503 282.048 38.8449 278.062 39.4164 278.153C39.5293 278.172 40.9563 278.909 40.9563 278.909C40.9563 278.909 39.2126 282.778 40.5268 285.592C40.5268 285.592 40.028 280.823 41.4988 279.189L43.5883 280.456C43.5883 280.456 41.5497 284.454 42.9331 287.714C42.9331 287.714 42.569 282.71 44.0252 280.762L45.9182 282.275C45.9182 282.275 44.0034 286.216 45.1719 288.924C45.1719 288.924 45.3212 283.096 46.3259 282.657C46.3259 282.657 47.9823 284.17 48.2335 284.798C48.2335 284.798 46.923 287.657 47.7348 289.166C47.7348 289.166 48.2335 285.286 48.6449 285.267C48.6449 285.267 50.2903 287.838 50.4651 289.601C50.4651 289.601 50.3923 286.98 49.0417 285.021C49.0417 285.021 50.6362 285.304 51.5681 286.379C51.5681 286.379 51.3097 284.559 48.6376 284.401C48.6376 284.401 47.2761 282.453 46.9084 282.332C46.9084 282.332 49.5695 282.101 51.1822 282.846C51.1822 282.846 49.7625 281.129 46.4206 281.908L44.5531 280.328C44.5531 280.328 48.0588 279.828 49.5404 280.38C49.5404 280.38 47.8331 278.868 44.0507 279.968L42.0193 278.705C42.0193 278.705 45.0045 278.036 46.7846 278.278C46.7846 278.278 44.9062 277.226 41.4223 278.365L39.9662 277.688C39.9662 277.688 42.1504 277.242 42.7947 277.17C43.4391 277.098 43.4682 276.916 43.4682 276.916C42.0825 276.675 40.6595 276.839 39.3582 277.389C39.3582 277.389 36.2784 276.243 36.333 276.024Z" fill="#284940"/>
<path d="M12.1931 268.013C12.1931 268.013 22.0696 267.426 20.9045 274.247C20.966 274.593 20.9144 274.949 20.7572 275.264C20.6 275.579 20.3452 275.837 20.0297 276C20.0297 276 20.0115 275.496 19.017 275.667C18.6635 275.727 18.3039 275.744 17.9462 275.717C17.4605 275.688 16.9984 275.5 16.6323 275.184C16.6323 275.184 13.8592 274.051 12.7703 269.579C12.7703 269.579 11.9717 268.603 12.0008 268.352L13.6704 269.068C13.6704 269.068 13.1006 270.255 13.547 271.239C13.547 271.239 13.6015 269.111 13.91 269.161C13.9753 269.161 14.7775 269.572 14.7775 269.572C14.7775 269.572 13.7975 271.636 14.5379 273.149C14.5379 273.149 14.2548 270.606 15.0824 269.733L16.2548 270.409C16.2548 270.409 15.1114 272.555 15.8918 274.279C15.8918 274.279 15.6922 271.611 16.5052 270.574L17.5688 271.389C17.5688 271.389 16.4798 273.489 17.1513 274.934C17.1513 274.934 17.2348 271.826 17.801 271.593C17.801 271.593 18.7303 272.402 18.8718 272.734C18.8718 272.734 18.1459 274.258 18.5923 275.063C18.5923 275.063 18.8718 272.995 19.1041 272.985C19.1041 272.985 20.0297 274.355 20.1241 275.295C20.0778 274.426 19.8026 273.584 19.3255 272.852C19.8595 272.949 20.3531 273.197 20.7448 273.568C20.7448 273.568 20.6032 272.598 19.0969 272.512C19.0969 272.512 18.331 271.472 18.1277 271.411C18.1277 271.411 19.6232 271.286 20.5306 271.683C20.5306 271.683 19.7321 270.767 17.8519 271.182L16.8029 270.338C16.8029 270.338 18.7738 270.073 19.6087 270.366C19.6087 270.366 18.6468 269.558 16.5198 270.148L15.38 269.472C16.2581 269.283 17.1573 269.207 18.0551 269.247C18.0551 269.247 17.0025 268.685 15.0425 269.293L14.2258 268.935C14.2258 268.935 15.4563 268.696 15.8156 268.66C16.1749 268.624 16.1967 268.524 16.1967 268.524C15.417 268.397 14.6167 268.485 13.8846 268.778C13.8846 268.778 12.1641 268.131 12.1931 268.013Z" fill="#284940"/>
<path d="M259.222 275.016C259.222 275.016 271.3 274.275 269.885 282.804C269.957 283.238 269.892 283.683 269.7 284.077C269.507 284.471 269.196 284.794 268.811 285C268.811 285 268.789 284.366 267.572 284.581C267.139 284.655 266.698 284.676 266.259 284.644C265.667 284.605 265.103 284.371 264.656 283.976C264.656 283.976 261.259 282.563 259.939 276.963C259.939 276.963 258.961 275.743 259.001 275.432L261.038 276.307C261.038 276.307 260.343 277.79 260.891 279.025C260.891 279.025 260.957 276.363 261.347 276.429C261.428 276.429 262.406 276.941 262.406 276.941C262.406 276.941 261.207 279.537 262.112 281.391C262.112 281.391 261.77 278.209 262.781 277.119L264.215 277.961C264.215 277.961 262.814 280.631 263.766 282.808C263.766 282.808 263.52 279.47 264.502 278.169L265.803 279.192C265.803 279.192 264.487 281.822 265.289 283.643C265.289 283.643 265.395 279.756 266.086 279.459C266.086 279.459 267.223 280.472 267.395 280.887C267.395 280.887 266.495 282.797 267.053 283.806C267.053 283.806 267.395 281.21 267.679 281.21C267.679 281.21 268.811 282.927 268.929 284.103C268.874 283.016 268.538 281.962 267.954 281.047C268.608 281.171 269.211 281.486 269.69 281.951C269.69 281.951 269.513 280.739 267.671 280.631C267.671 280.631 266.737 279.329 266.487 279.252C266.487 279.252 268.326 279.096 269.429 279.593C269.429 279.593 268.451 278.45 266.153 278.97L264.869 277.913C264.869 277.913 267.278 277.579 268.3 277.946C268.3 277.946 267.123 276.934 264.524 277.672L263.127 276.83C263.127 276.83 265.178 276.385 266.403 276.544C266.403 276.544 265.112 275.843 262.726 276.604L261.726 276.151C261.726 276.151 263.23 275.851 263.671 275.806C264.112 275.762 264.134 275.636 264.134 275.636C263.182 275.475 262.205 275.585 261.31 275.951C261.31 275.951 259.185 275.157 259.222 275.016Z" fill="#284940"/>
<path d="M175.634 157H150.384V131.949H175.652L175.634 157ZM175.269 119.229H150.749C150.749 80.3005 187.502 82.5755 187.502 57.9475C187.502 44.382 176.474 33.5142 163 33.5142C149.526 33.5142 138.502 45.231 138.502 58.3334H114C113.989 51.8517 115.249 45.4316 117.707 39.4412C120.166 33.4508 123.775 28.0079 128.327 23.4246C132.879 18.8414 138.286 15.208 144.235 12.7327C150.185 10.2574 156.562 8.98894 163 9.00007C190.064 9.00007 212 30.7394 212 57.9475C212 88.7427 175.251 92.2489 175.251 119.229H175.269Z" fill="#284940"/>
<path opacity="0.1" d="M49.7058 134H43.2617V127.526H49.7058V134ZM49.6083 124.263H43.3592C43.3592 114.233 52.7328 114.817 52.7328 108.464C52.7295 107.633 52.5652 106.81 52.2493 106.044C51.9335 105.277 51.4722 104.581 50.8918 103.996C50.3115 103.411 49.6235 102.948 48.8671 102.633C48.1108 102.319 47.3009 102.159 46.4837 102.163C44.8335 102.201 43.2622 102.889 42.0996 104.081C40.9371 105.273 40.2739 106.877 40.2491 108.556H34C34.0415 105.22 35.3701 102.034 37.6994 99.6854C40.0287 97.3367 43.1722 96.0131 46.452 96.0001C49.7319 95.9871 52.8854 97.2856 55.2326 99.6158C57.5799 101.946 58.9329 105.121 59 108.457C58.9819 116.393 49.6083 117.297 49.6083 124.249V124.263Z" fill="#284940"/>
<path opacity="0.1" d="M99.3641 179H92.6622V172.542H99.3641V179ZM99.2664 169.263H92.7674C92.7674 159.225 102.516 159.813 102.516 153.458C102.513 152.626 102.342 151.804 102.013 151.037C101.685 150.271 101.205 149.575 100.601 148.99C99.9975 148.405 99.282 147.942 98.4954 147.627C97.7088 147.313 96.8666 147.153 96.0169 147.158C94.2934 147.188 92.6496 147.873 91.4332 149.068C90.2168 150.263 89.5232 151.874 89.4991 153.561H83C83.0431 150.223 84.4249 147.036 86.8474 144.687C89.2699 142.337 92.5391 141.013 95.9501 141C99.3611 140.987 102.641 142.286 105.082 144.617C107.523 146.948 108.93 150.125 109 153.461C109.011 161.401 99.2664 162.309 99.2664 169.263Z" fill="#284940"/>
<path opacity="0.1" d="M129.947 99H125.049V94.2764H129.947V99ZM129.875 91.8607H125.125C125.125 84.5095 132.25 84.9369 132.25 80.2838C132.247 79.6747 132.122 79.0722 131.881 78.5106C131.641 77.949 131.29 77.4393 130.849 77.0107C130.408 76.5821 129.885 76.2429 129.311 76.0125C128.736 75.7821 128.121 75.665 127.5 75.668C126.243 75.6929 125.045 76.196 124.159 77.071C123.273 77.9461 122.767 79.1247 122.75 80.3582H118C117.99 77.8861 118.981 75.5114 120.756 73.7564C122.53 72.0014 124.943 71.0099 127.462 71.0001C129.982 70.9902 132.402 71.9628 134.191 73.7038C135.979 75.4449 136.99 77.8118 137 80.2838C136.992 86.1001 129.875 86.7654 129.875 91.8607Z" fill="#284940"/>
<path opacity="0.1" d="M210.934 106H208.097V103.27H210.934V106ZM210.891 101.886H208.125C208.125 97.6459 212.249 97.8924 212.249 95.2076C212.249 94.8564 212.178 94.5087 212.039 94.1847C211.901 93.8606 211.698 93.5666 211.443 93.3197C211.187 93.0729 210.884 92.878 210.551 92.7464C210.218 92.6148 209.861 92.5491 209.502 92.5531C208.774 92.5677 208.081 92.8578 207.568 93.3621C207.055 93.8664 206.762 94.5457 206.751 95.2569H204C204.032 93.8555 204.623 92.5219 205.646 91.5399C206.67 90.558 208.045 90.0055 209.479 90C210.913 89.9946 212.293 90.5367 213.324 91.5108C214.355 92.4849 214.957 93.8141 215 95.2151C215.015 98.5484 210.891 98.9466 210.891 101.886Z" fill="#284940"/>
</svg>
