<svg width="375" height="206" viewBox="0 0 375 206" fill="none" xmlns="http://www.w3.org/2000/svg">
<path d="M-36.2282 140.138C-37.2552 170.116 -21.5572 193.953 4.58352 202.118C30.7352 210.273 66.6352 202.541 97.9316 182.003C137.129 156.275 166.235 114.178 205.39 88.3388C227.881 73.4939 252.017 65.1521 275.606 57.0609C299.196 48.9696 323.325 40.6204 345.815 25.7756C368.306 10.9308 389.209 -11.9148 394.781 -34.6828C398.956 -51.7412 394.03 -66.4741 385.3 -77.1055C368.338 -97.7908 338.45 -104.824 308.45 -108.837C278.45 -112.849 246.745 -114.577 221.959 -126.872C203.412 -136.075 189.063 -151.068 167.558 -155.835C139.638 -162.016 102.528 -149.342 71.3591 -126.888C27.0304 -94.9631 -26.7063 -27.1323 -21.5135 17.5348C-19.5176 34.6692 -10.6733 44.0387 -16.1144 64.6626C-22.8574 90.2194 -35.3689 115.406 -36.2282 140.138Z" fill="url(#paint0_linear)"/>
<defs>
<linearGradient id="paint0_linear" x1="36.3132" y1="40.1381" x2="427.532" y2="20.8366" gradientUnits="userSpaceOnUse">
<stop stop-color="#D8D8D8" stop-opacity="0"/>
<stop offset="0.637482" stop-color="#D8D8D8" stop-opacity="0.42"/>
</linearGradient>
</defs>
</svg>
