<svg width="34" height="35" viewBox="0 0 34 35" fill="none" xmlns="http://www.w3.org/2000/svg">
<path fill-rule="evenodd" clip-rule="evenodd" d="M20.4278 2.68601L2.60091 20.7864C-0.422634 23.8573 -0.422634 28.855 2.60091 31.9259C4.11316 33.4604 6.09981 34.2276 8.08647 34.2276C10.0731 34.2276 12.0598 33.4604 13.572 31.9259L31.3989 13.8255C34.4225 10.7546 34.4225 5.75691 31.3989 2.68601C28.3744 -0.382967 23.4523 -0.382967 20.4278 2.68601ZM12.2009 30.5337C9.93204 32.8335 6.24091 32.8335 3.97206 30.5337C1.70417 28.23 1.70417 24.4823 3.97206 22.1786L12.1996 13.8249L20.4291 22.1792L12.2009 30.5337ZM30.0278 12.4333L21.8003 20.787L13.5707 12.4327L21.799 4.0782C24.0678 1.77839 27.7589 1.77839 30.0278 4.0782C32.2957 6.38186 32.2957 10.1296 30.0278 12.4333Z" fill="#61A64C"/>
</svg>
