<svg width="30" height="35" viewBox="0 0 30 35" fill="none" xmlns="http://www.w3.org/2000/svg">
<path fill-rule="evenodd" clip-rule="evenodd" d="M7.5 18.8275C7.96061 18.8275 8.33333 19.2059 8.33333 19.6736C8.33333 22.9391 10.9505 25.5964 14.1667 25.5964C14.6273 25.5964 15 25.9748 15 26.4425C15 26.9102 14.6273 27.2886 14.1667 27.2886C10.9505 27.2886 8.33333 29.946 8.33333 33.2115C8.33333 33.6791 7.96061 34.0576 7.5 34.0576C7.03939 34.0576 6.66667 33.6791 6.66667 33.2115C6.66667 29.946 4.04948 27.2886 0.833333 27.2886C0.372721 27.2886 0 26.9102 0 26.4425C0 25.9748 0.372721 25.5964 0.833333 25.5964C4.04948 25.5964 6.66667 22.9391 6.66667 19.6736C6.66667 19.2059 7.03939 18.8275 7.5 18.8275ZM7.5 23.089C6.77724 24.5366 5.62286 25.7087 4.19718 26.4425C5.62286 27.1764 6.77724 28.3484 7.5 29.796C8.22276 28.3484 9.37714 27.1764 10.8028 26.4425C9.37714 25.7087 8.22276 24.5366 7.5 23.089ZM19.6094 6.94878C20.07 6.94878 20.4427 7.32721 20.4427 7.79489C20.4427 12.4502 24.1715 16.2362 28.7565 16.2362C29.2171 16.2362 29.5898 16.6147 29.5898 17.0823C29.5898 17.55 29.2171 17.9285 28.7565 17.9285C24.1715 17.9285 20.4427 21.7145 20.4427 26.3698C20.4427 26.8375 20.07 27.2159 19.6094 27.2159C19.1488 27.2159 18.776 26.8375 18.776 26.3698C18.776 21.7145 15.0472 17.9285 10.4622 17.9285C10.0016 17.9285 9.62891 17.55 9.62891 17.0823C9.62891 16.6147 10.0016 16.2362 10.4622 16.2362C15.0472 16.2362 18.776 12.4502 18.776 7.79489C18.776 7.32721 19.1488 6.94878 19.6094 6.94878ZM19.6094 11.8358C18.6018 14.1778 16.7488 16.0593 14.4421 17.0823C16.7488 18.1054 18.6018 19.9868 19.6094 22.3289C20.617 19.9868 22.47 18.1054 24.7766 17.0823C22.47 16.0593 20.617 14.1778 19.6094 11.8358ZM7.5 0.212891C7.96061 0.212891 8.33333 0.59133 8.33333 1.05901C8.33333 4.32449 10.9505 6.98183 14.1667 6.98183C14.6273 6.98183 15 7.36027 15 7.82794C15 8.29562 14.6273 8.67406 14.1667 8.67406C10.9505 8.67406 8.33333 11.3314 8.33333 14.5969C8.33333 15.0646 7.96061 15.443 7.5 15.443C7.03939 15.443 6.66667 15.0646 6.66667 14.5969C6.66667 11.3314 4.04948 8.67406 0.833333 8.67406C0.372721 8.67406 0 8.29562 0 7.82794C0 7.36027 0.372721 6.98183 0.833333 6.98183C4.04948 6.98183 6.66667 4.32449 6.66667 1.05901C6.66667 0.59133 7.03939 0.212891 7.5 0.212891ZM7.5 4.47446C6.77724 5.92201 5.62286 7.0941 4.19718 7.82794C5.62286 8.56179 6.77724 9.73388 7.5 11.1814C8.22276 9.73388 9.37714 8.56179 10.8028 7.82794C9.37714 7.0941 8.22276 5.92201 7.5 4.47446Z" fill="#61A64C"/>
</svg>
