<svg width="24" height="24" viewBox="0 0 24 24" fill="none" xmlns="http://www.w3.org/2000/svg">
<path fill-rule="evenodd" clip-rule="evenodd" d="M12.1217 12.4754C13.9049 12.4754 14.8601 13.189 15.2686 14.0695L15.6631 14.1793C16.0406 14.2711 16.6834 14.3883 16.8736 14.3883C17.209 14.3883 17.5735 14.3102 17.9589 14.2268C18.4315 14.1255 18.9672 14.0093 19.573 14.0093C21.0248 14.0093 22 15.0218 22 16.5293C22 18.2681 21.5625 19.6901 20.7464 20.806C20.9897 20.8598 21.216 20.8989 21.4643 20.9559C21.7347 21.0192 21.9059 21.3011 21.8458 21.5851C21.7947 21.8321 21.5875 22 21.3582 22C21.3222 22 21.2861 21.9958 21.2501 21.9873C17.7567 21.1755 14.798 20.7986 11.9394 20.7986C9.13091 20.7986 6.20225 21.1702 2.7239 21.9673C2.44956 22.0306 2.18723 21.849 2.12716 21.564C2.06909 21.279 2.2403 20.9981 2.51064 20.9358C2.82703 20.863 3.1184 20.8123 3.42578 20.7469C2.16821 19.0525 2 16.7964 2 15.1822C2 13.5881 3.39775 12.4754 5.39825 12.4754C5.80476 12.4754 6.29036 12.563 6.7179 12.6401L6.98323 12.6865C7.31765 12.7435 7.64906 12.8174 7.97547 12.9082L8.13667 12.9547C8.36696 13.0212 8.56621 13.0793 8.75945 13.0793C8.94568 13.0793 9.28711 12.9853 9.58849 12.9019L9.93091 12.81C10.5357 12.657 11.4068 12.4754 12.1217 12.4754ZM19.573 15.065C19.0683 15.065 18.6058 15.1653 18.1592 15.2614C17.7227 15.3554 17.3111 15.444 16.8736 15.444C16.5502 15.444 15.8663 15.3068 15.5179 15.2255C15.5169 16.524 15.4068 18.3156 14.6418 19.8622C16.2208 19.9868 17.8728 20.2243 19.639 20.5748C20.5462 19.594 20.9987 18.2744 20.9987 16.5293C20.9987 15.1717 19.9074 15.065 19.573 15.065ZM12.1217 13.5311C11.64 13.5311 10.9452 13.6398 10.1642 13.8362L9.8418 13.9228C9.46433 14.0273 9.07384 14.135 8.75945 14.135C8.43104 14.135 8.13367 14.0484 7.87134 13.9724L7.72115 13.9302C7.42478 13.8478 7.12541 13.7802 6.82403 13.7285L6.54969 13.68C6.1612 13.6103 5.72065 13.5311 5.39825 13.5311C3.96446 13.5311 3.00125 14.1951 3.00125 15.1822C3.00125 16.77 3.16045 19.0493 4.53417 20.4977C4.53917 20.503 4.54017 20.5104 4.54518 20.5157C7.22954 19.9994 9.62854 19.7429 11.9394 19.7429C12.4591 19.7429 12.9877 19.7693 13.5144 19.7946C14.4025 18.3652 14.5176 16.4934 14.5176 15.1843C14.5176 14.1339 13.6446 13.5311 12.1217 13.5311ZM16.7399 5.09988C17.591 5.09988 18.4501 5.5095 18.9817 6.16826C19.3877 6.67212 19.5793 7.28766 19.5303 7.91811L19.5084 8.1076L19.228 10.7965C19.0308 12.1605 18.0325 13.0631 16.7399 13.0631C15.5089 13.0631 14.5443 12.2407 14.2911 10.998L14.2598 10.8176L13.9725 8.08121C13.8683 7.41083 14.0556 6.7204 14.5021 6.1672C15.0328 5.50844 15.8909 5.09988 16.7399 5.09988ZM16.7399 6.15559C16.1762 6.15559 15.6105 6.42163 15.2651 6.85025C15.1058 7.04825 14.9314 7.3622 14.9488 7.77801L14.9647 7.93868L15.2521 10.6804C15.3672 11.4774 15.9529 12.0074 16.7399 12.0074C17.4805 12.0074 18.0425 11.5416 18.2072 10.8092L18.2348 10.6592L18.5161 7.96613C18.5962 7.44356 18.398 7.07406 18.2188 6.85236C17.8723 6.42269 17.3056 6.15559 16.7399 6.15559ZM8.75785 2C9.83219 2 10.9155 2.51624 11.5854 3.34603C12.1431 4.03752 12.3764 4.89581 12.2432 5.76361L11.8717 9.1007C11.6264 10.8004 10.3759 11.93 8.75785 11.93C7.14183 11.93 5.89327 10.8004 5.65096 9.11865L5.27449 5.74038C5.14333 4.89476 5.37662 4.03541 5.93432 3.34392C6.60315 2.51519 7.68551 2 8.75785 2ZM8.75785 3.05571C7.97086 3.05571 7.18088 3.42838 6.69727 4.02802C6.43995 4.3479 6.15559 4.87892 6.26573 5.59364L6.6422 8.97824C6.80841 10.1226 7.63945 10.8743 8.75785 10.8743C9.87825 10.8743 10.7113 10.1226 10.8805 8.95924L11.251 5.61686C11.3641 4.87998 11.0808 4.35001 10.8234 4.03013C10.3378 3.42943 9.54683 3.05571 8.75785 3.05571Z" fill="#63B468"/>
</svg>
