<svg width="120" height="122" viewBox="0 0 120 122" fill="none" xmlns="http://www.w3.org/2000/svg">
<path fill-rule="evenodd" clip-rule="evenodd" d="M60 9.99817C79.3538 9.99817 95 26.3344 95 46.4282C95 57.9342 90.7252 66.8635 81.4843 78.922C80.9374 79.6356 80.3793 80.3556 79.6422 81.3002C78.7344 82.4621 78.2495 83.0829 77.8483 83.5987C76.4363 85.4141 75.4465 86.7207 74.5393 87.9825C72.2913 91.1093 70.8173 93.6319 69.937 95.9803C69.3118 97.6481 69 99.2071 69 100.713C69 105.82 64.996 109.998 60 109.998C55.004 109.998 51 105.82 51 100.713C51 99.2071 50.6882 97.6481 50.063 95.9803C49.1826 93.6319 47.7087 91.1093 45.4607 87.9825C44.5535 86.7207 43.5637 85.4141 42.1517 83.5987C41.7505 83.0829 41.2656 82.4621 40.3578 81.3002C39.6207 80.3556 39.0626 79.6356 38.5157 78.922C29.2748 66.8635 25 57.9342 25 46.4282C25 26.3344 40.6462 9.99817 60 9.99817ZM60 14.9982C43.457 14.9982 30 29.0487 30 46.4282C30 56.5685 33.854 64.6189 42.4843 75.8806C43.0208 76.5807 43.5709 77.2902 44.2998 78.2243C45.2045 79.3824 45.6935 80.0083 46.0985 80.5291C47.5458 82.3899 48.5691 83.7405 49.5204 85.0638C52.0039 88.5181 53.6822 91.3904 54.7448 94.2252C55.5709 96.4288 56 98.5743 56 100.713C56 103.105 57.8143 104.998 60 104.998C62.1857 104.998 64 103.105 64 100.713C64 98.5743 64.4291 96.4288 65.2551 94.2252C66.3178 91.3904 67.9961 88.5181 70.4796 85.0638C71.4309 83.7405 72.4542 82.3899 73.9015 80.5291C74.3065 80.0083 74.7955 79.3824 75.7002 78.2243C76.4291 77.2902 76.9792 76.5807 77.5157 75.8806C86.1459 64.6189 90 56.5685 90 46.4282C90 29.0487 76.543 14.9982 60 14.9982ZM60.001 32.5002C66.9017 32.5002 72.501 38.0995 72.501 45.0002C72.501 51.9009 66.9017 57.5002 60.001 57.5002C53.1003 57.5002 47.501 51.9009 47.501 45.0002C47.501 38.0995 53.1003 32.5002 60.001 32.5002ZM60.001 37.5002C55.8617 37.5002 52.501 40.8609 52.501 45.0002C52.501 49.1395 55.8617 52.5002 60.001 52.5002C64.1403 52.5002 67.501 49.1395 67.501 45.0002C67.501 40.8609 64.1403 37.5002 60.001 37.5002Z" fill="#284940"/>
<g opacity="0.2" filter="url(#filter0_f)">
<ellipse cx="60" cy="114" rx="43" ry="4" fill="#1BB3BC"/>
</g>
<defs>
<filter id="filter0_f" x="13" y="106" width="94" height="16" filterUnits="userSpaceOnUse" color-interpolation-filters="sRGB">
<feFlood flood-opacity="0" result="BackgroundImageFix"/>
<feBlend mode="normal" in="SourceGraphic" in2="BackgroundImageFix" result="shape"/>
<feGaussianBlur stdDeviation="2" result="effect1_foregroundBlur"/>
</filter>
</defs>
</svg>
