<svg width="273" height="184" viewBox="0 0 273 184" fill="none" xmlns="http://www.w3.org/2000/svg">
<path d="M145.296 66.6764L109.62 31V80.363L91.2835 63.5512L85.5507 69.8038L108.833 91.145L85.4175 114.563L91.4145 120.56L109.62 102.355V148.999L145.427 113.189L121.094 90.8785L145.296 66.6764ZM118.1 51.4742L133.302 66.6764L118.1 81.8786V51.4742ZM133.169 113.454L118.1 128.525V99.6404L133.169 113.454Z" fill="#284940"/>
<path opacity="0.8" d="M164.167 69.7252C162.512 68.0698 159.83 68.0698 158.17 69.7252C156.515 71.3806 156.515 74.0646 158.17 75.7222C162.407 79.9612 164.744 85.5978 164.744 91.5927C164.744 97.5919 162.411 103.224 158.172 107.457C156.515 109.112 156.513 111.796 158.168 113.454C158.998 114.284 160.083 114.696 161.169 114.696C162.252 114.696 163.337 114.284 164.165 113.458C170.007 107.625 173.222 99.8588 173.222 91.5927C173.222 83.3331 170.007 75.5693 164.167 69.7252Z" fill="#284940"/>
<path opacity="0.3" d="M176.218 55.5712C174.563 53.9202 171.881 53.9158 170.221 55.5756C168.566 57.2332 168.568 59.9172 170.226 61.5726C178.245 69.5832 182.661 80.2451 182.661 91.5905C182.661 102.934 178.245 113.596 170.226 121.611C168.568 123.266 168.566 125.95 170.223 127.605C171.051 128.435 172.136 128.848 173.222 128.848C174.307 128.848 175.39 128.435 176.218 127.608C185.841 117.994 191.141 105.201 191.141 91.5905C191.141 77.9782 185.843 65.187 176.218 55.5712Z" fill="#284940"/>
<path opacity="0.1" d="M190.604 41.4195C188.944 39.7641 186.262 39.7641 184.607 41.4195C182.951 43.0771 182.951 45.7611 184.607 47.4165C196.406 59.214 202.906 74.9032 202.906 91.5927C202.906 108.28 196.406 123.965 184.607 135.767C182.951 137.424 182.951 140.106 184.607 141.764C185.434 142.591 186.52 143.004 187.605 143.004C188.691 143.004 189.776 142.591 190.604 141.764C204.006 128.361 211.386 110.545 211.386 91.5927C211.386 72.6363 204.006 54.82 190.604 41.4195Z" fill="#284940"/>
<path opacity="0.8" d="M70.2178 69.7273C68.5646 68.0719 65.8783 68.0719 64.2207 69.723C58.3788 75.554 55.1641 83.3222 55.1641 91.5927C55.1641 99.8588 58.381 107.625 64.2207 113.458C65.0485 114.284 66.1339 114.696 67.2171 114.696C68.3025 114.696 69.3879 114.284 70.2178 113.454C71.8732 111.796 71.871 109.112 70.2134 107.457C65.9766 103.224 63.642 97.5919 63.642 91.5927C63.642 85.5891 65.9744 79.9546 70.2134 75.7244C71.871 74.069 71.8732 71.3871 70.2178 69.7273Z" fill="#284940"/>
<path opacity="0.3" d="M45.7184 91.5927C45.7184 80.2495 50.1365 69.5876 58.158 61.5748C59.8156 59.9194 59.8178 57.2354 58.1624 55.5778C56.5069 53.9202 53.8251 53.9202 52.1653 55.5734C42.5386 65.1892 37.2383 77.9826 37.2383 91.5927C37.2383 105.201 42.5386 117.994 52.1653 127.61C52.993 128.438 54.0763 128.85 55.1617 128.85C56.2471 128.85 57.3325 128.438 58.1602 127.608C59.8178 125.952 59.8156 123.268 58.158 121.613C50.1387 113.596 45.7184 102.934 45.7184 91.5927Z" fill="#284940"/>
<path opacity="0.1" d="M25.4801 91.5927C25.4801 74.9032 31.9795 59.2162 43.7748 47.4165C45.4302 45.7589 45.4302 43.0749 43.7748 41.4195C42.115 39.7641 39.4332 39.7641 37.7778 41.4195C24.3794 54.8221 17 72.6385 17 91.5927C17 110.543 24.3794 128.359 37.7778 141.764C38.6055 142.591 39.6909 143.004 40.7763 143.004C41.8617 143.004 42.9449 142.591 43.7748 141.764C45.4302 140.108 45.4302 137.424 43.7748 135.767C31.9773 123.965 25.4801 108.276 25.4801 91.5927Z" fill="#284940"/>
<g filter="url(#filter0_d)">
<circle cx="31" cy="143" r="19" fill="#284940"/>
</g>
<path fill-rule="evenodd" clip-rule="evenodd" d="M34.9357 145.917C37.4477 145.917 39.3332 147.215 39.3332 148.994V149.715C39.3332 150.601 38.6657 151.334 37.8223 151.334L24.1765 151.331C23.3338 151.331 22.6665 150.598 22.6665 149.713V148.992C22.6665 147.262 24.6996 145.917 27.0615 145.917C27.322 145.917 27.6231 145.949 27.9963 146.01C28.1192 146.029 28.246 146.052 28.4018 146.08C28.3662 146.074 28.795 146.154 28.8975 146.172C29.2735 146.238 29.6555 146.328 30.0474 146.44C30.0959 146.454 30.1335 146.465 30.2165 146.49C30.2866 146.512 30.2866 146.512 30.3545 146.532C30.6414 146.617 30.8201 146.653 30.9982 146.653C31.1698 146.653 31.4208 146.597 31.8848 146.465L31.9573 146.445C32.2156 146.371 32.284 146.351 32.4012 146.321C33.3425 146.073 34.2375 145.917 34.9357 145.917ZM34.9357 146.75C34.3244 146.75 33.4914 146.895 32.6126 147.127C32.5034 147.155 32.4376 147.174 32.1867 147.246L32.1131 147.267C31.5687 147.422 31.277 147.486 30.9982 147.486C30.7209 147.486 30.475 147.437 30.1171 147.331C30.0446 147.309 30.0446 147.309 29.9741 147.287C29.8929 147.263 29.8586 147.253 29.8163 147.24C29.4535 147.137 29.0992 147.054 28.7525 146.992C28.6457 146.974 28.2115 146.893 28.251 146.9L27.9818 146.852C27.941 146.845 27.9017 146.838 27.863 146.832C27.5302 146.778 27.2684 146.75 27.0615 146.75C25.1049 146.75 23.4998 147.812 23.4998 148.992V149.713C23.4998 150.154 23.8125 150.498 24.1766 150.498L37.8223 150.5C38.1871 150.5 38.4998 150.157 38.4998 149.715V148.994C38.4998 147.756 37.0393 146.75 34.9357 146.75ZM30.9958 134.667C33.2325 134.667 35.1708 136.449 34.8294 138.55L34.4002 142.116C34.1356 143.857 32.77 145.032 30.9958 145.032C29.2231 145.032 27.8618 143.858 27.5954 142.103L27.1703 138.567C26.8256 136.449 28.7597 134.667 30.9958 134.667ZM30.9958 135.5C29.2314 135.5 27.7392 136.875 27.9953 138.45L28.421 141.991C28.6239 143.326 29.6357 144.199 30.9958 144.199C32.3578 144.199 33.3736 143.325 33.5746 142.004L34.0045 138.433C34.2573 136.876 32.7612 135.5 30.9958 135.5Z" fill="white"/>
<g filter="url(#filter1_d)">
<circle cx="207" cy="34" r="34" fill="#284940"/>
</g>
<path fill-rule="evenodd" clip-rule="evenodd" d="M214.872 39.834C219.896 39.834 223.667 42.4306 223.667 45.9873V47.4307C223.667 49.2012 222.332 50.6673 220.645 50.6673L193.353 50.6623C191.668 50.6623 190.333 49.1958 190.333 47.4257V45.984C190.333 42.5238 194.4 39.834 199.123 39.834C199.644 39.834 200.247 39.8982 200.993 40.0191C201.239 40.0589 201.492 40.1035 201.804 40.1608C201.733 40.1477 202.59 40.3073 202.796 40.3435C203.548 40.4767 204.311 40.6553 205.095 40.879C205.192 40.9074 205.267 40.93 205.434 40.9804C205.574 41.023 205.574 41.023 205.709 41.0638C206.283 41.2343 206.641 41.3057 206.997 41.3057C207.34 41.3057 207.842 41.1948 208.77 40.9305L208.915 40.8891C209.432 40.7412 209.568 40.7027 209.803 40.6415C211.686 40.1455 213.475 39.834 214.872 39.834ZM214.872 41.5007C213.649 41.5007 211.983 41.7906 210.226 42.2536C210.007 42.3106 209.876 42.3477 209.374 42.4914L209.227 42.5334C208.138 42.8435 207.554 42.9723 206.997 42.9723C206.442 42.9723 205.951 42.8741 205.235 42.6614C205.09 42.618 205.09 42.618 204.949 42.575C204.786 42.5256 204.718 42.505 204.633 42.4804C203.907 42.2732 203.199 42.1075 202.505 41.9847C202.292 41.9471 201.424 41.7854 201.503 41.8L200.964 41.7039C200.883 41.69 200.804 41.6769 200.726 41.6643C200.061 41.5565 199.537 41.5007 199.123 41.5007C195.21 41.5007 192 43.6242 192 45.984V47.4257C192 48.3086 192.625 48.9957 193.354 48.9957L220.645 49.0007C221.375 49.0007 222 48.3138 222 47.4307V45.9873C222 43.512 219.079 41.5007 214.872 41.5007ZM206.992 17.3333C211.466 17.3333 215.342 20.8981 214.659 25.0996L213.801 32.2319C213.272 35.7141 210.54 38.065 206.992 38.065C203.447 38.065 200.724 35.7156 200.191 32.2062L199.341 25.1339C198.652 20.8976 202.52 17.3333 206.992 17.3333ZM206.992 19C203.463 19 200.479 21.7499 200.991 24.9005L201.843 31.9815C202.248 34.6521 204.272 36.3983 206.992 36.3983C209.716 36.3983 211.748 34.6497 212.15 32.0071L213.009 24.8665C213.515 21.7516 210.523 19 206.992 19Z" fill="white"/>
<defs>
<filter id="filter0_d" x="0" y="122" width="62" height="62" filterUnits="userSpaceOnUse" color-interpolation-filters="sRGB">
<feFlood flood-opacity="0" result="BackgroundImageFix"/>
<feColorMatrix in="SourceAlpha" type="matrix" values="0 0 0 0 0 0 0 0 0 0 0 0 0 0 0 0 0 0 127 0"/>
<feOffset dy="10"/>
<feGaussianBlur stdDeviation="6"/>
<feColorMatrix type="matrix" values="0 0 0 0 0 0 0 0 0 0 0 0 0 0 0 0 0 0 0.12 0"/>
<feBlend mode="normal" in2="BackgroundImageFix" result="effect1_dropShadow"/>
<feBlend mode="normal" in="SourceGraphic" in2="effect1_dropShadow" result="shape"/>
</filter>
<filter id="filter1_d" x="141" y="0" width="132" height="132" filterUnits="userSpaceOnUse" color-interpolation-filters="sRGB">
<feFlood flood-opacity="0" result="BackgroundImageFix"/>
<feColorMatrix in="SourceAlpha" type="matrix" values="0 0 0 0 0 0 0 0 0 0 0 0 0 0 0 0 0 0 127 0"/>
<feOffset dy="32"/>
<feGaussianBlur stdDeviation="16"/>
<feColorMatrix type="matrix" values="0 0 0 0 0 0 0 0 0 0 0 0 0 0 0 0 0 0 0.12 0"/>
<feBlend mode="normal" in2="BackgroundImageFix" result="effect1_dropShadow"/>
<feBlend mode="normal" in="SourceGraphic" in2="effect1_dropShadow" result="shape"/>
</filter>
</defs>
</svg>
