<svg width="40" height="41" viewBox="0 0 40 41" fill="none" xmlns="http://www.w3.org/2000/svg">
<path fill-rule="evenodd" clip-rule="evenodd" d="M23.8583 3.38477C25.7211 3.38477 27.2499 4.85789 27.2499 6.6956L27.2545 15.8688H32.1583C34.9986 15.8688 37.1481 18.4039 36.5732 21.1377L33.9248 33.6997C33.4927 35.7471 31.6465 37.2039 29.5133 37.206L25.63 37.2075C25.5634 37.2075 25.5007 37.2075 25.4418 37.2076L24.6333 37.2077C21.9068 37.2077 19.2867 36.6546 16.8632 35.7334C16.1872 35.4764 15.5644 35.2045 15.0006 34.929L14.9999 36.3839C14.9999 36.8509 14.6268 37.2295 14.1666 37.2295H7.88159C5.36968 37.2295 3.33325 35.1632 3.33325 32.6144V15.2446C3.33325 14.7776 3.70635 14.399 4.16659 14.399H14.1666C14.6268 14.399 14.9999 14.7776 14.9999 15.2446L15.0003 16.5657C15.4174 16.2404 17.0856 14.9726 17.7733 14.3351C19.4954 12.7386 20.4671 11.1059 20.4671 9.38157L20.4666 6.7117V6.69603C20.4666 4.94144 21.8596 3.51944 23.6064 3.39379L23.8583 3.38477ZM13.3333 16.0902H4.99992V32.6144C4.99992 34.2292 6.29016 35.5383 7.88159 35.5383H13.3333V16.0902ZM23.8583 5.07591C22.8972 5.07591 22.1333 5.81199 22.1333 6.69603L22.1316 6.68293L22.1338 6.69603V9.38157C22.1338 11.6778 20.9314 13.6981 18.8975 15.5836C18.0332 16.3849 16.0282 17.8922 16.054 17.8673C15.4084 18.4887 15.0488 19.3272 15.0488 20.1998C15.0488 20.2993 15.0318 20.3947 15.0008 20.4834L14.9987 33.0304C15.0976 33.0846 15.2114 33.1455 15.3396 33.212C15.9544 33.5308 16.6612 33.8507 17.4479 34.1497C19.6958 35.0042 22.1229 35.5165 24.6333 35.5165L27.7928 35.5154C27.8875 35.5153 27.9771 35.5153 28.062 35.5152L29.5125 35.5148C30.8727 35.5135 32.0303 34.6 32.295 33.3458L34.9433 20.7844C35.2916 19.1282 33.9618 17.5599 32.1583 17.5599H26.4216C25.9615 17.5599 25.5885 17.1816 25.5883 16.7148L25.5833 6.69603C25.5833 5.81199 24.8193 5.07591 23.8583 5.07591Z" fill="#61A64C"/>
</svg>
