<svg width="28" height="35" viewBox="0 0 28 35" fill="none" xmlns="http://www.w3.org/2000/svg">
<path fill-rule="evenodd" clip-rule="evenodd" d="M14.0036 0.384277C15.0744 0.384277 16.0914 0.840757 16.7735 1.61528C16.8584 1.70758 17.0141 1.88029 17.2305 2.126C17.589 2.53317 17.988 2.99845 18.4173 3.51443C19.6435 4.98799 20.8695 6.57494 22.0152 8.21701C23.3952 10.1948 24.5642 12.1195 25.4558 13.9457C26.67 16.4327 27.3334 18.6604 27.3334 20.5811C27.3334 28.1816 21.417 34.229 14.0001 34.229C6.58196 34.229 0.666748 28.1822 0.666748 20.5879C0.666748 18.6603 1.33067 16.4326 2.54573 13.9455C3.43791 12.1192 4.60775 10.1946 5.98867 8.21678C7.13517 6.57472 8.36205 4.98777 9.58902 3.51421C10.0187 2.99822 10.4179 2.53295 10.7767 2.12578C10.9932 1.88007 11.149 1.70736 11.2212 1.62932C11.9158 0.840757 12.9329 0.384277 14.0036 0.384277ZM14.0036 2.07651C13.4613 2.07651 12.942 2.30959 12.5706 2.73088C12.494 2.81405 12.3466 2.97734 12.1388 3.21325C11.7903 3.60879 11.4014 4.06199 10.9823 4.56534C9.78422 6.00414 8.58611 7.55388 7.46927 9.15346C6.13451 11.0652 5.00817 12.9183 4.15773 14.659C3.04227 16.9423 2.44453 18.9479 2.44453 20.5811C2.44453 27.2735 7.59325 32.5368 14.0001 32.5368C20.4058 32.5368 25.5556 27.2728 25.5556 20.5845C25.5556 18.9479 24.9583 16.9421 23.8436 14.6588C22.9937 12.918 21.8681 11.0649 20.5343 9.15324C19.4182 7.55366 18.2209 6.00392 17.0237 4.56512C16.6049 4.06177 16.2163 3.60857 15.868 3.21303C15.6603 2.97713 15.5131 2.81383 15.4238 2.71663C15.0653 2.30959 14.546 2.07651 14.0036 2.07651ZM22.889 21.5379C23.3799 21.5379 23.7779 21.9167 23.7779 22.384C23.7779 27.2477 18.8989 31.2547 14.0445 31.2547C13.5536 31.2547 13.1556 30.8759 13.1556 30.4086C13.1556 29.9413 13.5536 29.5625 14.0445 29.5625C17.9706 29.5625 22.0001 26.2531 22.0001 22.384C22.0001 21.9167 22.3981 21.5379 22.889 21.5379Z" fill="#61A64C"/>
</svg>
