<svg width="28" height="28" viewBox="0 0 28 28" fill="none" xmlns="http://www.w3.org/2000/svg">
<path fill-rule="evenodd" clip-rule="evenodd" d="M11.2074 2.27507C12.4463 0.130606 15.5435 0.130606 16.8015 2.31065L26.8879 22.506C28.1271 24.6511 26.5785 27.3334 24.1011 27.3334H3.89003C1.41253 27.3334 -0.137296 24.651 1.08273 22.5416L11.1883 2.31065L11.2074 2.27507ZM15.6284 2.94223C14.9058 1.69142 13.1028 1.68602 12.3708 2.92604L2.25585 23.1732C1.53046 24.4288 2.43828 26.0001 3.89003 26.0001H24.1011C25.5525 26.0001 26.4595 24.4291 25.7148 23.1376L15.6284 2.94223ZM13.9952 20.6667C14.3632 20.6667 14.6616 20.9652 14.6616 21.3334V22.6667C14.6616 23.0349 14.3632 23.3334 13.9952 23.3334C13.6271 23.3334 13.3287 23.0349 13.3287 22.6667V21.3334C13.3287 20.9652 13.6271 20.6667 13.9952 20.6667ZM13.9952 10.6667C14.3632 10.6667 14.6616 10.9652 14.6616 11.3334V18.0001C14.6616 18.3682 14.3632 18.6667 13.9952 18.6667C13.6271 18.6667 13.3287 18.3682 13.3287 18.0001V11.3334C13.3287 10.9652 13.6271 10.6667 13.9952 10.6667Z" fill="white"/>
</svg>
