<svg width="24" height="24" viewBox="0 0 24 24" fill="none" xmlns="http://www.w3.org/2000/svg">
<path fill-rule="evenodd" clip-rule="evenodd" d="M12 0.333496C11.6776 0.333496 11.4167 0.594401 11.4167 0.916829V11.0127C11.0744 11.2164 10.8334 11.5739 10.8334 12.0002C10.8334 12.6433 11.3563 13.1668 12 13.1668C12.6438 13.1668 13.1667 12.6433 13.1667 12.0002C13.1667 11.5739 12.9257 11.2164 12.5834 11.0127V8.55912C14.2353 8.83883 15.5 10.2699 15.5 12.0002C15.5 13.9302 13.9301 15.5002 12 15.5002C10.07 15.5002 8.50004 13.9302 8.50004 12.0002C8.50004 11.6777 8.23914 11.4168 7.91671 11.4168C7.59428 11.4168 7.33337 11.6777 7.33337 12.0002C7.33337 14.5733 9.42631 16.6668 12 16.6668C14.5738 16.6668 16.6667 14.5733 16.6667 12.0002C16.6667 9.62674 14.8795 7.68327 12.5834 7.39246V5.02971C16.1708 5.32772 19 8.33703 19 12.0002C19 15.8602 15.8601 19.0002 12 19.0002C8.14002 19.0002 5.00004 15.8602 5.00004 12.0002C5.00004 11.6777 4.73914 11.4168 4.41671 11.4168C4.09428 11.4168 3.83337 11.6777 3.83337 12.0002C3.83337 16.5033 7.49744 20.1668 12 20.1668C16.5026 20.1668 20.1667 16.5033 20.1667 12.0002C20.1667 7.69395 16.8138 4.16433 12.5834 3.86305V1.51611C18.1023 1.81974 22.5 6.40609 22.5 12.0002C22.5 17.7896 17.7901 22.5002 12 22.5002C6.21 22.5002 1.50004 17.7896 1.50004 12.0002C1.50004 11.6777 1.23914 11.4168 0.916707 11.4168C0.594279 11.4168 0.333374 11.6777 0.333374 12.0002C0.333374 18.4334 5.56742 23.6668 12 23.6668C18.4327 23.6668 23.6667 18.4334 23.6667 12.0002C23.6667 5.56698 18.4327 0.333496 12 0.333496Z" fill="#00843D"/>
</svg>
