<svg width="32" height="40" viewBox="0 0 32 40" fill="none" xmlns="http://www.w3.org/2000/svg">
<path d="M31.3813 9.76611L14.5528 0.17253C14.1593 -0.051332 13.6685 -0.0582552 13.2673 0.157086C12.8675 0.372249 12.6211 0.774881 12.6211 1.21142V20.3998C12.6211 20.8364 12.8675 21.2388 13.2673 21.4542C13.4631 21.5596 13.6797 21.6118 13.8964 21.6118C14.123 21.6118 14.3512 21.5539 14.5526 21.4394L31.3811 11.8446C31.7647 11.6255 32.0001 11.2316 32.0001 10.8054C32.0003 10.3791 31.7649 9.98518 31.3813 9.76611ZM15.1721 18.2587V3.3524L28.2466 10.8048L15.1721 18.2587Z" fill="#284940"/>
<path d="M31.3813 28.156L14.5528 18.5612C14.1593 18.3373 13.6685 18.3304 13.2673 18.5458C12.8675 18.7609 12.6211 19.1636 12.6211 19.6001V38.7885C12.6211 39.225 12.8675 39.6275 13.2673 39.8428C13.4631 39.9483 13.6797 40.0003 13.8964 40.0003C14.123 40.0003 14.3512 39.9424 14.5526 39.8279L31.3811 30.2343C31.7647 30.0153 32.0001 29.6213 32.0001 29.1951C32.0003 28.7688 31.7649 28.3749 31.3813 28.156ZM15.1721 36.6475V21.7412L28.2466 29.1949L15.1721 36.6475Z" fill="#284940"/>
<path d="M14.6738 18.9505L2.00165 10.6092C1.42135 10.2272 0.626754 10.3669 0.226932 10.9158C-0.174197 11.466 -0.0294026 12.221 0.549591 12.6022L13.2217 20.9435C13.4433 21.0892 13.6961 21.1588 13.9464 21.1588C14.3513 21.1588 14.7487 20.9765 14.9964 20.6367C15.3975 20.0867 15.2528 19.3317 14.6738 18.9505Z" fill="#284940"/>
<path d="M14.8482 19.617C14.3947 19.108 13.5878 19.0416 13.0509 19.476L1.29163 28.9478C0.753364 29.3812 0.687412 30.1454 1.14328 30.6556C1.39495 30.9386 1.75479 31.084 2.11743 31.084C2.40758 31.084 2.70165 30.9892 2.9408 30.7964L14.7 21.3246C15.2383 20.8916 15.3042 20.1272 14.8482 19.617Z" fill="#284940"/>
</svg>
