<svg width="301" height="301" viewBox="0 0 301 301" fill="none" xmlns="http://www.w3.org/2000/svg">
<path d="M202.148 112.896H201.035V82.694C201.035 80.3985 200.578 78.1254 199.69 76.0046C198.803 73.8838 197.502 71.9568 195.862 70.3337C194.223 68.7105 192.276 67.4229 190.133 66.5444C187.991 65.666 185.695 65.2139 183.375 65.2139H118.733C116.414 65.2139 114.118 65.666 111.975 66.5444C109.833 67.4229 107.886 68.7105 106.246 70.3337C104.607 71.9568 103.306 73.8838 102.418 76.0046C101.531 78.1254 101.074 80.3985 101.074 82.694V248.385C101.074 250.68 101.531 252.953 102.418 255.074C103.306 257.195 104.607 259.122 106.246 260.745C107.886 262.368 109.833 263.656 111.975 264.534C114.118 265.413 116.414 265.865 118.733 265.865H183.375C185.695 265.865 187.991 265.413 190.133 264.534C192.276 263.656 194.223 262.368 195.862 260.745C197.502 259.122 198.803 257.195 199.69 255.074C200.578 252.953 201.035 250.68 201.035 248.385V134.394H202.148V112.896Z" fill="#3F3D56"/>
<path d="M197.396 83.2425V248.15C197.395 251.601 196.002 254.911 193.523 257.351C191.043 259.791 187.68 261.162 184.173 261.162H119.05C115.543 261.162 112.179 259.791 109.7 257.351C107.22 254.911 105.827 251.601 105.827 248.15V83.2425C105.827 79.7915 107.22 76.4819 109.7 74.0417C112.179 71.6015 115.543 70.2305 119.05 70.2305H126.95C126.562 71.1692 126.414 72.1874 126.519 73.1956C126.625 74.2037 126.981 75.1709 127.555 76.012C128.13 76.8531 128.905 77.5424 129.814 78.0193C130.723 78.4961 131.737 78.7459 132.767 78.7467H169.897C170.927 78.7459 171.941 78.4961 172.85 78.0193C173.758 77.5424 174.534 76.8531 175.109 76.012C175.683 75.1709 176.039 74.2037 176.144 73.1956C176.25 72.1874 176.102 71.1692 175.714 70.2305H184.173C187.68 70.2305 191.043 71.6015 193.523 74.0417C196.002 76.4819 197.395 79.7915 197.396 83.2425Z" fill="white"/>
<path d="M198.98 212.05V249.118C198.98 252.728 197.529 256.191 194.946 258.743C192.363 261.296 188.861 262.731 185.208 262.731H117.381C113.728 262.731 110.226 261.296 107.643 258.743C105.06 256.191 103.609 252.728 103.609 249.118V215.664C109.426 208.915 116.595 203.432 124.665 199.561C132.735 195.69 141.529 193.517 150.492 193.177C159.456 192.837 168.392 194.339 176.738 197.588C185.084 200.836 192.658 205.761 198.98 212.05Z" fill="#3F3D56" fill-opacity="0.8"/>
<path opacity="0.2" d="M151.136 248.308C161.635 248.308 170.147 239.886 170.147 229.497C170.147 219.108 161.635 210.686 151.136 210.686C140.637 210.686 132.125 219.108 132.125 229.497C132.125 239.886 140.637 248.308 151.136 248.308Z" fill="#EC0000"/>
<path d="M151.136 245.173C159.885 245.173 166.978 238.155 166.978 229.497C166.978 220.84 159.885 213.821 151.136 213.821C142.386 213.821 135.294 220.84 135.294 229.497C135.294 238.155 142.386 245.173 151.136 245.173Z" fill="#EC0000"/>
<path d="M142 234.751L147.763 229.062L142 223.374L145.419 220L151.182 225.688L156.945 220L160.364 223.374L154.601 229.063L160.364 234.751L156.945 238.125L151.182 232.437L145.419 238.125L142 234.751Z" fill="white"/>
<path d="M171.098 126.171L150.867 114.116C150.394 113.835 149.804 113.826 149.321 114.097C148.841 114.367 148.545 114.873 148.545 115.422V139.532C148.545 140.081 148.841 140.586 149.321 140.857C149.557 140.989 149.817 141.055 150.078 141.055C150.35 141.055 150.624 140.982 150.867 140.838L171.098 128.782C171.559 128.507 171.842 128.012 171.842 127.477C171.842 126.941 171.559 126.446 171.098 126.171ZM151.611 136.842V118.112L167.329 127.476L151.611 136.842Z" fill="#EC0000"/>
<path d="M171.098 149.277L150.867 137.221C150.394 136.939 149.804 136.931 149.321 137.201C148.841 137.472 148.545 137.978 148.545 138.526V162.637C148.545 163.185 148.841 163.691 149.321 163.961C149.557 164.094 149.817 164.159 150.078 164.159C150.35 164.159 150.624 164.087 150.867 163.943L171.098 151.888C171.559 151.613 171.842 151.118 171.842 150.582C171.842 150.047 171.559 149.552 171.098 149.277ZM151.611 159.946V141.216L167.329 150.582L151.611 159.946Z" fill="#EC0000"/>
<path d="M151.012 137.71L135.778 127.229C135.08 126.749 134.125 126.925 133.644 127.614C133.162 128.306 133.336 129.254 134.032 129.733L149.266 140.214C149.533 140.397 149.837 140.485 150.138 140.485C150.624 140.485 151.102 140.256 151.4 139.829C151.882 139.138 151.708 138.189 151.012 137.71Z" fill="#EC0000"/>
<path d="M151.222 138.547C150.677 137.908 149.707 137.824 149.061 138.37L134.925 150.272C134.278 150.816 134.198 151.776 134.746 152.417C135.049 152.773 135.481 152.956 135.917 152.956C136.266 152.956 136.62 152.837 136.907 152.594L151.044 140.693C151.691 140.149 151.77 139.188 151.222 138.547Z" fill="#EC0000"/>
</svg>
