<svg width="301" height="301" viewBox="0 0 301 301" fill="none" xmlns="http://www.w3.org/2000/svg">
<path d="M202.148 112.896H201.035V82.694C201.035 80.3985 200.578 78.1254 199.69 76.0046C198.803 73.8838 197.502 71.9568 195.862 70.3337C194.223 68.7105 192.276 67.4229 190.133 66.5444C187.991 65.666 185.695 65.2139 183.375 65.2139H118.733C116.414 65.2139 114.118 65.666 111.975 66.5444C109.833 67.4229 107.886 68.7105 106.246 70.3337C104.607 71.9568 103.306 73.8838 102.418 76.0046C101.531 78.1254 101.074 80.3985 101.074 82.694V248.385C101.074 250.68 101.531 252.953 102.418 255.074C103.306 257.195 104.607 259.122 106.246 260.745C107.886 262.368 109.833 263.656 111.975 264.534C114.118 265.413 116.414 265.865 118.733 265.865H183.375C185.695 265.865 187.991 265.413 190.133 264.534C192.276 263.656 194.223 262.368 195.862 260.745C197.502 259.122 198.803 257.195 199.69 255.074C200.578 252.953 201.035 250.68 201.035 248.385V134.394H202.148V112.896Z" fill="#3F3D56"/>
<path d="M197.395 83.2415V248.149C197.395 251.6 196.002 254.91 193.522 257.35C191.043 259.79 187.679 261.161 184.173 261.161H119.05C115.543 261.161 112.179 259.79 109.7 257.35C107.22 254.91 105.827 251.6 105.827 248.149V83.2415C105.827 79.7905 107.22 76.4809 109.7 74.0407C112.179 71.6005 115.543 70.2296 119.05 70.2295H126.95C126.562 71.1682 126.414 72.1864 126.519 73.1946C126.625 74.2027 126.98 75.1699 127.555 76.011C128.13 76.8522 128.905 77.5415 129.814 78.0183C130.723 78.4952 131.737 78.745 132.767 78.7457H169.897C170.927 78.745 171.941 78.4952 172.849 78.0183C173.758 77.5415 174.534 76.8521 175.109 76.011C175.683 75.1699 176.039 74.2027 176.144 73.1946C176.25 72.1864 176.102 71.1682 175.714 70.2295H184.173C187.679 70.2296 191.043 71.6005 193.522 74.0407C196.002 76.4809 197.395 79.7905 197.395 83.2415Z" fill="white"/>
<path d="M198.98 212.05V249.118C198.98 252.728 197.529 256.191 194.946 258.743C192.363 261.296 188.86 262.731 185.208 262.731H117.381C113.728 262.731 110.225 261.296 107.643 258.743C105.06 256.191 103.609 252.728 103.609 249.118V215.664C109.425 208.915 116.595 203.432 124.665 199.561C132.735 195.69 141.529 193.517 150.492 193.177C159.455 192.837 168.392 194.339 176.738 197.588C185.084 200.836 192.658 205.761 198.98 212.05Z" fill="#3F3D56" fill-opacity="0.8"/>
<path opacity="0.2" d="M151.136 248.308C161.635 248.308 170.147 239.886 170.147 229.497C170.147 219.108 161.635 210.686 151.136 210.686C140.637 210.686 132.125 219.108 132.125 229.497C132.125 239.886 140.637 248.308 151.136 248.308Z" fill="#284940"/>
<path d="M151.136 245.173C159.885 245.173 166.978 238.155 166.978 229.497C166.978 220.84 159.885 213.821 151.136 213.821C142.386 213.821 135.293 220.84 135.293 229.497C135.293 238.155 142.386 245.173 151.136 245.173Z" fill="#284940"/>
<path d="M171.098 126.171L150.867 114.116C150.394 113.835 149.804 113.826 149.322 114.097C148.841 114.367 148.545 114.873 148.545 115.422V139.532C148.545 140.081 148.841 140.586 149.322 140.857C149.557 140.989 149.817 141.055 150.078 141.055C150.35 141.055 150.625 140.982 150.867 140.838L171.098 128.782C171.559 128.507 171.842 128.012 171.842 127.477C171.842 126.941 171.559 126.446 171.098 126.171ZM151.611 136.842V118.112L167.329 127.476L151.611 136.842Z" fill="#284940"/>
<path d="M171.098 149.277L150.867 137.221C150.394 136.939 149.804 136.931 149.322 137.201C148.841 137.472 148.545 137.978 148.545 138.526V162.637C148.545 163.185 148.841 163.691 149.322 163.961C149.557 164.094 149.817 164.159 150.078 164.159C150.35 164.159 150.625 164.087 150.867 163.943L171.098 151.888C171.559 151.613 171.842 151.118 171.842 150.582C171.842 150.047 171.559 149.552 171.098 149.277ZM151.611 159.946V141.216L167.329 150.582L151.611 159.946Z" fill="#284940"/>
<path d="M151.012 137.71L135.778 127.229C135.08 126.749 134.125 126.925 133.644 127.614C133.162 128.306 133.336 129.254 134.032 129.733L149.266 140.214C149.533 140.397 149.837 140.485 150.138 140.485C150.624 140.485 151.102 140.256 151.4 139.829C151.882 139.138 151.708 138.189 151.012 137.71Z" fill="#284940"/>
<path d="M151.222 138.547C150.677 137.908 149.707 137.824 149.061 138.37L134.925 150.272C134.278 150.816 134.198 151.776 134.746 152.417C135.049 152.773 135.481 152.956 135.917 152.956C136.266 152.956 136.62 152.837 136.907 152.594L151.044 140.693C151.691 140.149 151.77 139.188 151.222 138.547Z" fill="#284940"/>
<path d="M33.9026 194.382C48.9518 194.382 61.1515 169.678 61.1515 139.203C61.1515 108.729 48.9518 84.0244 33.9026 84.0244C18.8535 84.0244 6.65381 108.729 6.65381 139.203C6.65381 169.678 18.8535 194.382 33.9026 194.382Z" fill="#284940"/>
<path d="M58.2209 127.963L33.54 141.034L33.825 141.561L58.5058 128.49L58.2209 127.963Z" fill="#3F3D56"/>
<path d="M7.76991 134.514L7.48511 135.041L32.1695 148.106L32.4543 147.579L7.76991 134.514Z" fill="white"/>
<path d="M261.797 193.416C283.448 193.416 301 157.98 301 114.266C301 70.5529 283.448 35.1162 261.797 35.1162C240.145 35.1162 222.594 70.5529 222.594 114.266C222.594 157.98 240.145 193.416 261.797 193.416Z" fill="#284940"/>
<path d="M296.89 98.3164L261.444 117.089L261.743 117.642L297.189 98.8693L296.89 98.3164Z" fill="white"/>
<path d="M224.324 107.725L224.025 108.278L259.477 127.041L259.775 126.488L224.324 107.725Z" fill="white"/>
<path d="M278.944 229.726L291.985 248.859L279.844 260.873L278.27 257.758L280.968 251.529C280.968 251.529 280.518 245.744 278.944 244.187C277.371 242.629 270.4 233.285 270.4 233.285L278.944 229.726Z" fill="#FFB8B8"/>
<path d="M262.306 167.877C262.306 167.877 264.779 171.75 259.608 188.436C259.608 188.436 283.729 228.719 279.907 231.389C276.084 234.058 265.741 239.967 263.043 238.187C260.345 236.407 240.721 176.109 240.721 176.109L262.306 167.877Z" fill="#2F2E41"/>
<path d="M289.624 245.41L293.559 249.304C295.583 251.306 296.932 254.198 293.109 256.645C289.287 259.093 276.021 268.214 271.525 265.322C267.028 262.43 276.921 259.76 276.921 259.76C276.921 259.76 278.557 253.758 279.425 255.091C280.293 256.423 280.293 259.093 280.293 259.093L289.624 245.41Z" fill="#2F2E41"/>
<path d="M242.07 240.182C242.07 240.182 234.875 253.308 234.875 254.866C234.875 256.423 235.325 260.873 235.325 260.873L221.609 264.21L216.888 261.985L218.462 257.98C218.462 257.98 227.006 255.088 228.804 249.526C230.603 243.964 232.627 238.18 232.627 238.18L242.07 240.182Z" fill="#FFB8B8"/>
<path d="M250.389 109.587C255.605 109.587 259.833 105.403 259.833 100.243C259.833 95.082 255.605 90.8984 250.389 90.8984C245.174 90.8984 240.946 95.082 240.946 100.243C240.946 105.403 245.174 109.587 250.389 109.587Z" fill="#FFB8B8"/>
<path d="M247.916 108.251L252.425 121.07L262.306 116.706C262.306 116.706 255.561 106.472 255.561 105.137L247.916 108.251Z" fill="#FFB8B8"/>
<path d="M246.567 153.859H258.484C258.484 153.859 267.028 166.763 262.081 180.335C261.324 182.413 260.572 185.324 259.821 188.766C258.095 196.681 256.376 207.403 254.615 217.256C252.142 231.095 249.584 243.219 246.803 243.439C241.182 243.884 230.251 243.81 230.251 241.585C230.251 239.36 237.573 174.995 237.573 174.995L239.147 172.325L239.445 160.696C239.491 158.861 240.264 157.117 241.595 155.839C242.927 154.561 244.712 153.85 246.567 153.859Z" fill="#2F2E41"/>
<path d="M234.763 254.755C234.763 254.755 237.348 259.093 236.674 262.208C235.999 265.323 234.875 264.878 229.929 265.323C224.982 265.768 208.119 265.768 208.119 262.653C208.119 259.538 221.274 255.493 221.329 256.737C221.385 257.981 221.834 260.428 220.485 260.873C219.136 261.318 220.373 260.984 220.373 260.984L234.763 254.755Z" fill="#2F2E41"/>
<path d="M247.918 181.629C247.918 181.629 246.94 197.433 240.416 192.728C233.893 188.023 242.959 179.524 242.959 179.524L247.918 181.629Z" fill="white"/>
<path d="M260.938 160.815C261.251 160.955 261.598 161.007 261.939 160.967C262.281 160.927 262.605 160.796 262.877 160.588C263.271 160.281 263.534 159.838 263.612 159.348C264.555 153.968 265.704 139.053 266.365 131.511C267.195 122.047 263.049 114.717 263.015 114.672L260.572 111.348C260.318 111.001 259.953 110.749 259.536 110.633C259.119 110.517 258.675 110.545 258.275 110.71C258.275 110.71 250.648 118.54 250.62 118.843C250.5 120.141 249.593 123.018 244.861 127.699C239.685 132.822 239.656 137.293 239.77 138.541C239.778 138.623 239.782 138.705 239.782 138.787C239.772 139.347 239.849 139.905 240.01 140.442C242.178 147.206 240.48 155.305 237.753 163.758C237.65 164.14 237.669 164.544 237.808 164.915C237.947 165.286 238.2 165.604 238.53 165.827C239.326 166.363 238.371 165.568 238.655 165.912C240.535 168.191 243.239 165.015 246.333 161.55C247.41 160.342 248.632 158.974 250.071 157.55C252.051 155.591 255.832 160.06 257.591 160.06C258.748 160.074 259.889 160.331 260.938 160.815Z" fill="#575A89"/>
<path d="M261.986 118.123C261.986 118.123 266.926 122.245 264.12 127.59C261.314 132.936 261.687 136.878 261.687 136.878C261.687 136.878 260.94 173.599 252.172 171.815L248.183 182.71L240.98 180.138L245.145 170.527C245.145 170.527 241.809 170.322 242.784 168.073C243.469 166.493 247.157 149.35 249.293 139.285C250.197 135.02 250.823 132.026 250.823 132.026C250.823 132.026 253.661 117.011 261.986 118.123Z" fill="#575A89"/>
<path opacity="0.2" d="M263.023 136.784L260.246 154.814L261.744 135.535L263.023 136.784Z" fill="black"/>
<path d="M240.086 96.1021C240.086 96.1021 238.499 83.8764 251.453 87.8855C251.453 87.8855 260.704 86.2057 263.738 97.6566L266.811 109.66L265.313 108.854L264.615 110.363L262.189 110.971L261.151 108.932L260.649 111.408L240.777 113.369C240.777 113.369 249.677 108.161 249.818 98.8262L248.123 100.599L240.086 96.1021Z" fill="#2F2E41"/>
<path opacity="0.2" d="M254.864 217.96L259.295 188.744L255.692 220.283L254.864 217.96Z" fill="black"/>
<path d="M262.106 92.95C264.865 92.95 267.103 90.7364 267.103 88.0057C267.103 85.2751 264.865 83.0615 262.106 83.0615C259.346 83.0615 257.109 85.2751 257.109 88.0057C257.109 90.7364 259.346 92.95 262.106 92.95Z" fill="#2F2E41"/>
<path d="M256.957 86.7947C257.039 85.5403 257.601 84.3641 258.529 83.5055C259.457 82.6469 260.681 82.1706 261.951 82.1737C261.848 82.1607 261.746 82.145 261.641 82.1383C260.986 82.0963 260.329 82.1824 259.707 82.3917C259.086 82.601 258.512 82.9294 258.019 83.3581C257.526 83.7868 257.123 84.3075 256.834 84.8903C256.544 85.4732 256.373 86.1068 256.331 86.7549C256.289 87.4031 256.376 88.0531 256.588 88.6679C256.8 89.2826 257.132 89.85 257.566 90.3377C257.999 90.8254 258.526 91.2238 259.115 91.5101C259.704 91.7964 260.344 91.965 261 92.0064C261.105 92.013 261.208 92.0104 261.312 92.0106C260.052 91.8526 258.9 91.2252 258.091 90.2562C257.282 89.2871 256.876 88.0492 256.957 86.7947Z" fill="#2F2E41"/>
<path opacity="0.2" d="M247.846 142.402L243.45 165.716L249.148 139.965L247.846 142.402Z" fill="black"/>
<path d="M248.12 106.976L245.558 108.887C242.919 107.573 240.94 104.533 240.221 101.631L243.013 100.237C243.232 103.197 245.355 105.165 248.12 106.976Z" fill="white"/>
<path d="M249.185 100.658H242.8C242.744 100.658 242.69 100.636 242.65 100.596C242.61 100.557 242.587 100.503 242.587 100.448C242.587 100.392 242.61 100.338 242.65 100.299C242.69 100.259 242.744 100.237 242.8 100.237H249.185C249.241 100.237 249.295 100.259 249.335 100.299C249.375 100.338 249.397 100.392 249.397 100.448C249.397 100.503 249.375 100.557 249.335 100.596C249.295 100.636 249.241 100.658 249.185 100.658Z" fill="white"/>
<path d="M247.907 106.976C247.873 106.976 247.838 106.968 247.808 106.951C247.777 106.935 247.751 106.912 247.731 106.883C247.712 106.855 247.7 106.822 247.696 106.788C247.692 106.754 247.697 106.719 247.71 106.687L249.411 102.476C249.422 102.45 249.437 102.426 249.456 102.407C249.476 102.387 249.499 102.371 249.525 102.36C249.55 102.349 249.578 102.343 249.606 102.343C249.634 102.342 249.662 102.348 249.688 102.358C249.714 102.368 249.737 102.383 249.757 102.403C249.777 102.422 249.793 102.445 249.804 102.471C249.815 102.496 249.821 102.523 249.821 102.551C249.822 102.579 249.816 102.606 249.806 102.632L248.105 106.844C248.089 106.883 248.062 106.916 248.027 106.94C247.991 106.963 247.95 106.976 247.907 106.976Z" fill="white"/>
<path d="M249.614 103.147C250.476 103.147 251.175 102.179 251.175 100.984C251.175 99.7897 250.476 98.8213 249.614 98.8213C248.751 98.8213 248.052 99.7897 248.052 100.984C248.052 102.179 248.751 103.147 249.614 103.147Z" fill="#FFB8B8"/>
<path d="M39.7616 215.335C39.7616 215.335 39.7616 242.38 33.5078 249.473C33.5078 249.473 32.1677 253.02 31.721 254.35C31.4712 255.107 31.1728 255.848 30.8276 256.567V258.34C30.8276 258.34 18.7666 257.01 17.4265 253.907L19.66 251.247C19.66 251.247 20.1067 250.803 19.66 249.473C19.2133 248.143 20.5534 248.143 20.5534 248.143L23.6803 241.05L23.2336 211.788L25.4672 171.442L44.6753 170.556L39.7616 215.335Z" fill="#2F2E41"/>
<path d="M29.9762 255.738C29.9762 255.738 33.1074 265.12 29.9762 265.567C26.8449 266.014 -0.441886 266.461 0.00543871 262.886C0.452763 259.312 9.39925 259.759 9.39925 259.759L18.7931 253.951L29.9762 255.738Z" fill="#2F2E41"/>
<path d="M57.8411 171.496C57.8411 171.496 58.7349 177.267 55.1597 183.482C51.5845 189.697 53.819 210.561 53.819 210.561L85.5486 238.084C85.5486 238.084 79.2921 248.738 77.0576 248.294C74.8231 247.85 39.5183 219.439 39.5183 219.439L25.6646 173.272L57.8411 171.496Z" fill="#2F2E41"/>
<path d="M85.0053 236.708C85.0053 236.708 94.652 239.08 93.3486 241.95C92.0453 244.82 77.7618 267.989 74.9683 265.707C72.1747 263.425 77.3614 256.145 77.3614 256.145L77.4791 245.153L85.0053 236.708Z" fill="#2F2E41"/>
<path d="M50.6954 89.1981C50.6989 91.5319 49.8881 93.7954 48.4 95.6061C47.2233 97.0491 45.67 98.1461 43.9084 98.7784C42.1468 99.4106 40.2439 99.5539 38.4059 99.1928C37.4856 99.0168 36.5948 98.7135 35.7599 98.2919C34.4339 97.6306 33.2683 96.6931 32.343 95.544C31.4177 94.3948 30.7547 93.0611 30.3996 91.6344C30.1995 90.8375 30.099 90.0192 30.1004 89.1981C30.1004 86.4957 31.1853 83.904 33.1164 81.9932C35.0476 80.0823 37.6668 79.0088 40.3979 79.0088C43.1289 79.0088 45.7481 80.0823 47.6793 81.9932C49.6105 83.904 50.6954 86.4957 50.6954 89.1981Z" fill="#A0616A"/>
<path d="M48.4775 92.8037L48.0158 105.759L39.2316 109.107C39.2316 109.107 38.3701 95.8408 37.1541 95.1054C35.9381 94.3699 48.4775 92.8037 48.4775 92.8037Z" fill="#A0616A"/>
<path d="M37.1931 110.879C37.1931 110.879 49.3317 98.9581 52.4788 99.3997C55.6258 99.8412 55.6258 101.166 55.6258 102.049C55.6258 102.932 54.7266 103.373 55.6258 103.815C56.525 104.256 57.4241 103.815 57.4241 105.139C57.4241 106.464 65.5165 119.71 62.819 134.28C60.1216 148.85 56.9745 155.914 58.3233 163.862C59.672 171.809 58.7728 173.575 58.7728 173.575C58.7728 173.575 25.0545 176.224 24.6049 173.134C24.1554 170.043 25.9537 171.809 23.7058 169.601C21.4579 167.394 22.3571 167.394 22.3571 166.069C22.3571 164.745 32.2478 110.879 37.1931 110.879Z" fill="#575A89"/>
<path d="M43.408 171.064C43.408 171.064 38.0604 183.814 34.0497 180.736C30.0389 177.659 35.8322 167.107 35.8322 167.107L43.408 171.064Z" fill="white"/>
<path d="M56.5003 111.695C56.5003 111.695 67.0567 112.889 63.1264 132.039C59.1961 151.189 43.9199 173.377 43.9199 173.377L33.5859 168.496L47.065 142.314L43.9199 125.895C43.9199 125.895 42.1227 110.364 56.5003 111.695Z" fill="#575A89"/>
<path opacity="0.2" d="M47.2102 142.339L32.6353 166.717L33.9603 168.047L47.2102 142.339Z" fill="black"/>
<path opacity="0.2" d="M55.1315 153.939L43.0913 173.064H47.1856L55.1315 153.939Z" fill="black"/>
<path opacity="0.2" d="M28.3047 188.753L27.7092 188.978L39.496 219.557L40.0915 219.332L28.3047 188.753Z" fill="black"/>
<path d="M37.3873 113.182C37.737 113.182 38.0205 112.901 38.0205 112.555C38.0205 112.208 37.737 111.928 37.3873 111.928C37.0376 111.928 36.7542 112.208 36.7542 112.555C36.7542 112.901 37.0376 113.182 37.3873 113.182Z" fill="#D0CDE1"/>
<path d="M31.7012 130.112C31.7725 130.112 31.8418 130.09 31.8992 130.05C31.9565 130.011 31.9988 129.955 32.0198 129.891L37.6898 112.648C37.7028 112.608 37.7075 112.567 37.7035 112.526C37.6995 112.485 37.6869 112.445 37.6665 112.409C37.6461 112.372 37.6182 112.34 37.5845 112.314C37.5508 112.287 37.5118 112.267 37.4699 112.255C37.4281 112.243 37.384 112.239 37.3404 112.243C37.2967 112.246 37.2543 112.258 37.2156 112.278C37.1768 112.297 37.1425 112.323 37.1145 112.355C37.0866 112.387 37.0656 112.423 37.0527 112.463L31.3827 129.706C31.3673 129.753 31.3639 129.802 31.3727 129.851C31.3814 129.899 31.4021 129.945 31.4331 129.984C31.4641 130.024 31.5045 130.056 31.551 130.078C31.5976 130.1 31.649 130.112 31.7012 130.112V130.112Z" fill="#D0CDE1"/>
<path d="M38.3386 96.9078L35.7504 99.387C33.0849 98.0363 30.5103 94.397 29.7837 91.4143L33.1795 89.9814C33.4012 93.0236 35.5457 95.046 38.3386 96.9078Z" fill="white"/>
<path d="M38.7613 91.2355C38.7512 91.2355 38.7412 91.2349 38.7312 91.2335L32.8168 90.3974C32.7893 90.3936 32.7629 90.3844 32.739 90.3704C32.7151 90.3565 32.6943 90.338 32.6776 90.316C32.6609 90.2941 32.6488 90.2691 32.6419 90.2425C32.635 90.2159 32.6335 90.1883 32.6374 90.1611C32.6413 90.1339 32.6505 90.1078 32.6646 90.0841C32.6788 90.0605 32.6974 90.0398 32.7196 90.0234C32.7418 90.0069 32.767 89.9949 32.7939 89.988C32.8208 89.9812 32.8488 89.9797 32.8762 89.9835L38.7906 90.8195C38.8435 90.827 38.8916 90.8539 38.9252 90.895C38.9588 90.9361 38.9754 90.9883 38.9717 91.041C38.968 91.0938 38.9442 91.1431 38.9052 91.1792C38.8661 91.2153 38.8147 91.2354 38.7613 91.2355Z" fill="white"/>
<path d="M37.9295 96.8794C37.8903 96.8795 37.8517 96.8694 37.8177 96.8503C37.7836 96.8312 37.7553 96.8037 37.7355 96.7705C37.7157 96.7373 37.7051 96.6996 37.7048 96.6612C37.7045 96.6228 37.7145 96.5849 37.7338 96.5514L39.8181 92.9164C39.8326 92.8911 39.8519 92.8689 39.8751 92.851C39.8983 92.833 39.9249 92.8198 39.9534 92.8119C39.9818 92.8041 40.0115 92.8018 40.0409 92.8053C40.0702 92.8087 40.0986 92.8178 40.1243 92.832C40.1501 92.8462 40.1727 92.8652 40.1909 92.888C40.2092 92.9108 40.2226 92.9369 40.2305 92.9648C40.2385 92.9927 40.2407 93.0218 40.2371 93.0505C40.2335 93.0793 40.2241 93.107 40.2096 93.1322L38.1252 96.7672C38.1058 96.8013 38.0773 96.8296 38.0429 96.8494C38.0085 96.8691 37.9694 96.8795 37.9295 96.8794Z" fill="white"/>
<path d="M44.9216 95.1366C44.0882 94.6986 43.12 94.6083 42.2179 94.3361C38.9904 93.3622 36.8283 89.736 37.5186 86.4546C37.6461 86.0337 37.7034 85.5949 37.6881 85.1557C37.5674 84.1838 36.5668 83.5567 35.6074 83.3341C34.6479 83.1114 33.6271 83.1437 32.7101 82.7857C31.2942 82.2328 30.3536 80.7866 30.1497 79.2884C29.9459 77.7901 30.3932 76.262 31.1207 74.9342L31.4673 75.9253C31.9958 75.4806 32.3882 74.8975 32.5997 74.2421C32.9935 74.3079 33.3638 74.4731 33.675 74.7218C33.9863 74.9705 34.228 75.2945 34.3772 75.6627C34.9335 75.9888 35.0136 74.6499 35.6281 74.4524C35.8854 74.3697 36.15 74.5268 36.395 74.6404C37.6332 75.2144 39.0717 74.7236 40.3999 74.4055C42.6998 73.8572 45.0973 73.8544 47.3985 74.3973C48.9273 74.7597 50.4406 75.3908 51.5346 76.5124C52.433 77.4335 52.9928 78.6246 53.4694 79.8167C54.6428 82.7516 55.4179 85.9272 55.0306 89.0617C54.708 91.6267 53.6283 94.0393 51.9276 95.9951C51.0417 97.0096 48.1513 100.549 46.5664 99.9454C44.575 99.1872 47.268 96.3696 44.9216 95.1366Z" fill="#2F2E41"/>
<path d="M146.703 238.589L140.046 230.292L143.917 227.373L147.069 231.301L157.715 220.405L161.275 223.675L146.703 238.589Z" fill="white"/>
</svg>
