<svg width="18" height="18" viewBox="0 0 18 18" fill="none" xmlns="http://www.w3.org/2000/svg">
<path fill-rule="evenodd" clip-rule="evenodd" d="M10.7139 1.79998L1.80046 10.7134C0.288683 12.2257 0.288683 14.6867 1.80046 16.199C2.55658 16.9546 3.54991 17.3325 4.54324 17.3325C5.53657 17.3325 6.52989 16.9546 7.28602 16.199L16.1995 7.28554C17.7112 5.77329 17.7112 3.31222 16.1995 1.79998C14.6872 0.288679 12.2261 0.288679 10.7139 1.79998ZM6.60044 15.5134C5.46602 16.6459 3.62045 16.6459 2.48603 15.5134C1.35208 14.379 1.35208 12.5334 2.48603 11.399L6.59979 7.28524L10.7146 11.3993L6.60044 15.5134ZM15.5139 6.59996L11.4001 10.7137L7.28537 6.59967L11.3995 2.48556C12.5339 1.35303 14.3795 1.35303 15.5139 2.48556C16.6478 3.61998 16.6478 5.46554 15.5139 6.59996Z" fill="#EC0000"/>
</svg>
