<svg width="20" height="13" viewBox="0 0 20 13" fill="none" xmlns="http://www.w3.org/2000/svg">
<path fill-rule="evenodd" clip-rule="evenodd" d="M10 0C14.3358 0 18.125 2.45704 19.9513 6.28469C20.0162 6.42088 20.0162 6.57912 19.9513 6.71531C18.125 10.543 14.3358 13 10 13C5.66422 13 1.87498 10.543 0.0487325 6.71531C-0.0162442 6.57912 -0.0162442 6.42088 0.0487325 6.28469C1.87498 2.45704 5.66422 0 10 0ZM10 1C6.13648 1 2.75664 3.13958 1.05706 6.5C2.75664 9.86042 6.13648 12 10 12C13.8635 12 17.2434 9.86042 18.9429 6.5C17.2434 3.13958 13.8635 1 10 1ZM10 2.503C12.2091 2.503 14 4.29386 14 6.503C14 8.71214 12.2091 10.503 10 10.503C7.79086 10.503 6 8.71214 6 6.503C6 4.29386 7.79086 2.503 10 2.503ZM10 3.503C8.34314 3.503 7 4.84614 7 6.503C7 8.15986 8.34314 9.503 10 9.503C11.6569 9.503 13 8.15986 13 6.503C13 4.84614 11.6569 3.503 10 3.503Z" fill="#6F7779"/>
</svg>
