<svg width="16" height="21" viewBox="0 0 16 21" fill="none" xmlns="http://www.w3.org/2000/svg">
<path fill-rule="evenodd" clip-rule="evenodd" d="M8 0C12.4132 0 16 3.51085 16 7.84V10.1C16 13.0141 14.4723 15.5913 12 16.9342V19.542C12 19.8181 11.7761 20.042 11.5 20.042H4.5C4.22386 20.042 4 19.8181 4 19.542V16.9342C1.52766 15.5913 0 13.0141 0 10.1V7.84C0 3.51085 3.58682 0 8 0ZM8 1C4.13437 1 1 4.06799 1 7.84V10.1C1 12.4535 2.13253 14.5441 4.00005 15.7699L4 15.5402C4 15.2641 4.22386 15.0402 4.5 15.0402C4.77614 15.0402 5 15.2641 5 15.5402V16.5402C5 16.5552 4.99934 16.57 4.99805 16.5847C4.99928 16.599 5 16.6145 5 16.63V19.042H6.497L6.4971 16.0402C6.4971 15.7947 6.67398 15.5906 6.90722 15.5483L6.9971 15.5402C7.27324 15.5402 7.4971 15.7641 7.4971 16.0402L7.497 19.042H8.491L8.4912 16.0402C8.4912 15.7947 8.66807 15.5906 8.90132 15.5483L8.9912 15.5402C9.26734 15.5402 9.4912 15.7641 9.4912 16.0402L9.491 19.042H11V16.63L11.004 16.584L11 16.5402V15.5402C11 15.2641 11.2239 15.0402 11.5 15.0402C11.7761 15.0402 12 15.2641 12 15.5402L12.001 15.7693C13.8679 14.5434 15 12.453 15 10.1V7.84C15 4.06799 11.8656 1 8 1ZM7.64645 12.1866C7.84171 11.9914 8.15829 11.9914 8.35355 12.1866L9.35355 13.1866C9.54882 13.3819 9.54882 13.6985 9.35355 13.8938C9.15829 14.089 8.84171 14.089 8.64645 13.8938L8 13.2473L7.35355 13.8938C7.15829 14.089 6.84171 14.089 6.64645 13.8938C6.45118 13.6985 6.45118 13.3819 6.64645 13.1866L7.64645 12.1866ZM11.5 7.0402C12.8801 7.0402 14 8.16006 14 9.5402C14 10.9203 12.8801 12.0402 11.5 12.0402C10.1199 12.0402 9 10.9203 9 9.5402C9 8.16006 10.1199 7.0402 11.5 7.0402ZM4.5 7.0402C5.88014 7.0402 7 8.16006 7 9.5402C7 10.9203 5.88014 12.0402 4.5 12.0402C3.11986 12.0402 2 10.9203 2 9.5402C2 8.16006 3.11986 7.0402 4.5 7.0402ZM11.5 8.0402C10.6721 8.0402 10 8.71234 10 9.5402C10 10.3681 10.6721 11.0402 11.5 11.0402C12.3279 11.0402 13 10.3681 13 9.5402C13 8.71234 12.3279 8.0402 11.5 8.0402ZM4.5 8.0402C3.67214 8.0402 3 8.71234 3 9.5402C3 10.3681 3.67214 11.0402 4.5 11.0402C5.32786 11.0402 6 10.3681 6 9.5402C6 8.71234 5.32786 8.0402 4.5 8.0402Z" fill="#6F7779"/>
</svg>
