<svg width="8" height="14" viewBox="0 0 8 14" fill="none" xmlns="http://www.w3.org/2000/svg">
<path fill-rule="evenodd" clip-rule="evenodd" d="M1.00434 13.6666C0.738924 13.668 0.483816 13.5687 0.29537 13.3905C0.106331 13.2117 0 12.9683 0 12.7145C0 12.4606 0.106331 12.2172 0.29537 12.0385L5.5877 7.00186L0.29537 1.96524C-0.0961845 1.5919 -0.0961845 0.986597 0.29537 0.613257C0.686925 0.239917 1.32176 0.239917 1.71331 0.613257L7.70463 6.32587C7.89367 6.50464 8 6.74799 8 7.00186C8 7.25572 7.89367 7.49908 7.70463 7.67785L1.71331 13.3905C1.52487 13.5687 1.26976 13.668 1.00434 13.6666Z" fill="#EC0000"/>
</svg>
