<svg width="16" height="16" viewBox="0 0 16 16" fill="none" xmlns="http://www.w3.org/2000/svg">
<path fill-rule="evenodd" clip-rule="evenodd" d="M8.00004 1.33301C11.6819 1.33301 14.6667 4.31802 14.6667 7.99967C14.6667 8.18377 14.5175 8.33301 14.3334 8.33301C14.1493 8.33301 14 8.18377 14 7.99967C14 4.6862 11.3137 1.99967 8.00004 1.99967C4.68637 1.99967 2.00004 4.6862 2.00004 7.99967C2.00004 11.3136 4.68614 13.9997 8.00004 13.9997C8.18414 13.9997 8.33337 14.1489 8.33337 14.333C8.33337 14.5171 8.18414 14.6663 8.00004 14.6663C4.31795 14.6663 1.33337 11.6818 1.33337 7.99967C1.33337 4.31802 4.31817 1.33301 8.00004 1.33301ZM9.5398 9.54031C10.7113 8.36804 12.6112 8.36804 13.7825 9.54016C14.9541 10.711 14.9541 12.6108 13.7826 13.7823C12.6111 14.9538 10.7114 14.9538 9.53987 13.7823C8.36835 12.6108 8.36835 10.711 9.5398 9.54031ZM13.3111 10.0116C12.4 9.09984 10.9225 9.09984 10.0112 10.0117C9.10013 10.9222 9.10013 12.3998 10.0113 13.3109C10.9224 14.2221 12.4 14.2221 13.3112 13.3109C14.2224 12.3998 14.2224 10.9222 13.3111 10.0116ZM10.4828 10.4828C10.613 10.3527 10.824 10.3527 10.9542 10.4828L11.6614 11.1897L12.3681 10.4828C12.4838 10.3671 12.6635 10.3542 12.7934 10.4442L12.8395 10.4828C12.9697 10.6129 12.9697 10.824 12.8395 10.9542L12.1327 11.661L12.8395 12.3682C12.9553 12.4839 12.9681 12.6635 12.8781 12.7934L12.8395 12.8396C12.7094 12.9698 12.4983 12.9698 12.3681 12.8396L11.6614 12.1323L10.9542 12.8395C10.8385 12.9552 10.6589 12.9681 10.529 12.8781L10.4828 12.8395C10.3526 12.7093 10.3526 12.4983 10.4828 12.3681L11.19 11.661L10.4828 10.9542C10.3671 10.8385 10.3542 10.6589 10.4442 10.529L10.4828 10.4828ZM8.32784 4.66114C8.51194 4.66114 8.66117 4.81038 8.66117 4.99447V8.32781C8.66117 8.5119 8.51194 8.66114 8.32784 8.66114H4.99451C4.81041 8.66114 4.66117 8.5119 4.66117 8.32781C4.66117 8.14371 4.81041 7.99447 4.99451 7.99447H7.99451V4.99447C7.99451 4.81038 8.14375 4.66114 8.32784 4.66114Z" fill="#494D4D"/>
</svg>
