<svg width="26" height="27" viewBox="0 0 26 27" fill="none" xmlns="http://www.w3.org/2000/svg">
<path fill-rule="evenodd" clip-rule="evenodd" d="M19.4946 5.71667C19.7832 5.71667 20.0599 5.83199 20.2631 6.03699C20.6828 6.45935 20.6828 7.14149 20.2631 7.56386L14.5318 13.2978L20.2631 19.0316C20.4681 19.2349 20.5833 19.5117 20.5833 19.8004C20.5833 20.0892 20.4681 20.366 20.2631 20.5693C20.0589 20.772 19.7823 20.885 19.4946 20.8833C19.2069 20.885 18.9304 20.772 18.7261 20.5693L12.9946 14.8351L7.27391 20.5585C7.07141 20.7651 6.79465 20.8821 6.50538 20.8833C6.21766 20.885 5.94112 20.772 5.73685 20.5693C5.53193 20.366 5.41666 20.0892 5.41666 19.8004C5.41666 19.5117 5.53193 19.2349 5.73685 19.0316L11.4617 13.3033L5.73685 7.57468C5.3124 7.15006 5.3124 6.46161 5.73685 6.03699C6.16129 5.61237 6.84946 5.61237 7.27391 6.03699L13 11.7649L18.7261 6.03699C18.9293 5.83199 19.206 5.71667 19.4946 5.71667Z" fill="#EC0000"/>
</svg>
