<svg width="24" height="24" viewBox="0 0 24 24" fill="none" xmlns="http://www.w3.org/2000/svg">
<path fill-rule="evenodd" clip-rule="evenodd" d="M15.3145 4.03584C15.4663 3.97383 15.6426 3.99336 15.7803 4.08613C15.9175 4.17939 16 4.33418 16 4.50019V16.5002C16 16.6662 15.9175 16.821 15.7803 16.9143C15.6963 16.9709 15.5986 17.0002 15.5 17.0002C15.437 17.0002 15.374 16.9885 15.3145 16.9646L11 15.2388V18.0002C11 19.1032 10.103 20.0002 9 20.0002C7.89697 20.0002 7 19.1032 7 18.0002V13.6387L5.40356 13.0002H2.5C2.22363 13.0002 2 12.7766 2 12.5002V8.50019C2 8.22383 2.22363 8.00019 2.5 8.00019H5.40356L15.3145 4.03584ZM8 14.0388V18.0002C8 18.5515 8.44873 19.0002 9 19.0002C9.55127 19.0002 10 18.5515 10 18.0002V14.8388L8 14.0388ZM17.1157 12.6804C17.2915 12.4685 17.6074 12.4392 17.8198 12.6159L20.8198 15.1115C21.0322 15.2878 21.061 15.6032 20.8843 15.8156C20.7856 15.9343 20.6431 15.9958 20.4995 15.9958C20.3872 15.9958 20.2734 15.9577 20.1802 15.8801L17.1802 13.3845C16.9678 13.2082 16.939 12.8928 17.1157 12.6804ZM15 5.23848L6 8.83876V12.1616L15 15.7619V5.23848ZM5 9.00019H3V12.0002H5V9.00019ZM21.5 10.0061C21.7764 10.0061 22 10.2297 22 10.5061C22 10.7824 21.7764 11.0061 21.5 11.0061H17.5C17.2236 11.0061 17 10.7824 17 10.5061C17 10.2297 17.2236 10.0061 17.5 10.0061H21.5ZM20.1797 5.11201C20.3916 4.93428 20.7075 4.96406 20.8838 5.17549C21.061 5.3874 21.0322 5.70283 20.8203 5.87959L17.8203 8.38398C17.7271 8.46211 17.6133 8.50019 17.5005 8.50019C17.3569 8.50019 17.2148 8.43916 17.1162 8.32051C16.939 8.10859 16.9678 7.79316 17.1797 7.61641L20.1797 5.11201Z" fill="white"/>
</svg>
