<svg width="22" height="28" viewBox="0 0 22 28" fill="none" xmlns="http://www.w3.org/2000/svg">
<path fill-rule="evenodd" clip-rule="evenodd" d="M16.9997 0.666656C17.3682 0.666656 17.6663 0.980527 17.6663 1.36841V4.87718H20.9997C21.3682 4.87718 21.6663 5.19105 21.6663 5.57894V26.6316C21.6663 27.0195 21.3682 27.3333 20.9997 27.3333H4.99967C4.63118 27.3333 4.33301 27.0195 4.33301 26.6316V23.1228H0.999674C0.631185 23.1228 0.333008 22.8089 0.333008 22.421V1.36841C0.333008 0.980527 0.631185 0.666656 0.999674 0.666656H16.9997ZM20.333 6.28069H5.66634V25.9298H20.333V6.28069ZM16.333 2.07017H1.66634V21.7193H4.33301V5.57894C4.33301 5.19105 4.63118 4.87718 4.99967 4.87718H16.333V2.07017ZM16.9997 17.5088C17.3682 17.5088 17.6663 17.8226 17.6663 18.2105C17.6663 18.5984 17.3682 18.9123 16.9997 18.9123H8.99967C8.63118 18.9123 8.33301 18.5984 8.33301 18.2105C8.33301 17.8226 8.63118 17.5088 8.99967 17.5088H16.9997ZM16.9997 13.2982C17.3682 13.2982 17.6663 13.6121 17.6663 14C17.6663 14.3879 17.3682 14.7017 16.9997 14.7017H8.99967C8.63118 14.7017 8.33301 14.3879 8.33301 14C8.33301 13.6121 8.63118 13.2982 8.99967 13.2982H16.9997ZM16.9997 9.08771C17.3682 9.08771 17.6663 9.40158 17.6663 9.78946C17.6663 10.1773 17.3682 10.4912 16.9997 10.4912H8.99967C8.63118 10.4912 8.33301 10.1773 8.33301 9.78946C8.33301 9.40158 8.63118 9.08771 8.99967 9.08771H16.9997Z" fill="#990000"/>
</svg>
