<svg width="28" height="28" viewBox="0 0 28 28" fill="none" xmlns="http://www.w3.org/2000/svg">
<path fill-rule="evenodd" clip-rule="evenodd" d="M14.0003 0.666656C21.3525 0.666656 27.3337 6.64843 27.3337 14C27.3337 21.3516 21.3525 27.3333 14.0003 27.3333C6.64811 27.3333 0.666992 21.3516 0.666992 14C0.666992 6.64843 6.64811 0.666656 14.0003 0.666656ZM14.0003 1.99999C7.38379 1.99999 2.00033 7.3828 2.00033 14C2.00033 20.6172 7.38379 26 14.0003 26C20.6169 26 26.0003 20.6172 26.0003 14C26.0003 7.3828 20.6169 1.99999 14.0003 1.99999ZM9.66634 7.29035C9.87272 7.17056 10.126 7.17186 10.3324 7.28905L20.999 13.4219C21.2061 13.5404 21.3337 13.7617 21.3337 14C21.3337 14.2383 21.2061 14.4596 20.999 14.5781L10.3324 20.7109C10.2295 20.7695 10.1149 20.7995 10.0003 20.7995C9.88509 20.7995 9.76986 20.7695 9.66634 20.7096C9.46061 20.5911 9.33366 20.3711 9.33366 20.1328V7.86718C9.33366 7.6289 9.46061 7.40884 9.66634 7.29035ZM10.667 9.01952V18.9805L19.3298 14L10.667 9.01952Z" fill="#990000"/>
</svg>
