<svg width="30" height="43" viewBox="0 0 30 43" fill="none" xmlns="http://www.w3.org/2000/svg">
<path fill-rule="evenodd" clip-rule="evenodd" d="M11.5223 3.97301C11.5223 6.16724 13.3773 7.94601 15.6655 7.94601C17.9538 7.94601 19.8088 6.16724 19.8088 3.97301C19.8088 1.77878 17.9538 0 15.6655 0C13.3773 0 11.5223 1.77878 11.5223 3.97301ZM27.9226 16.6646L21.9379 14.5677C21.4776 14.016 21.0029 13.4642 20.5282 12.9124L20.5281 12.9123L20.5281 12.9123C20.0533 12.3605 19.5786 11.8087 19.1182 11.2569C18.962 11.075 18.8079 10.8786 18.651 10.6785C17.9987 9.84672 17.2967 8.9517 16.1834 8.77377C15.6655 8.71859 13.6514 8.55305 13.1335 8.60823C12.6731 8.66341 12.2128 8.82895 11.81 9.04968L6.28561 11.3121C6.20522 11.3451 6.12312 11.3782 6.03992 11.4116C5.28933 11.7136 4.45003 12.0513 3.9838 12.7468L0.3009 18.8718C-0.332098 19.9203 0.0707188 21.2998 1.16408 21.9068C1.50935 22.1275 1.91217 22.1827 2.31499 22.1827C3.12062 22.1827 3.86871 21.7964 4.32907 21.0791L7.60915 15.561L10.0836 14.5126L8.2997 22.1827L12.5581 25.1072L18.9456 29.5217V40.1164C18.9456 41.3303 19.9814 42.3236 21.2474 42.3236C22.5134 42.3236 23.5492 41.3303 23.5492 40.1164V28.4181C23.5492 27.7007 23.2039 27.0386 22.6285 26.6523L15.6655 21.7964L17.1617 15.8369L18.8305 17.8234C19.1182 18.1545 19.4635 18.3752 19.8088 18.4856L26.3689 20.8032C27.5774 21.2446 28.9009 20.6376 29.3037 19.4788C29.7641 18.32 29.1311 17.0509 27.9226 16.6646ZM8.06952 23.3415L7.20634 29.4114L0.991447 39.1232C0.300903 40.1716 0.646177 41.4959 1.73954 42.1581C2.14235 42.3788 2.54517 42.4892 2.94799 42.4892C3.69608 42.4892 4.50171 42.1029 4.90453 41.4408L11.4647 31.2875C11.6373 31.0116 11.7524 30.7357 11.81 30.4046L12.3854 26.3213L8.06952 23.3415Z" fill="url(#paint0_linear)"/>
<defs>
<linearGradient id="paint0_linear" x1="15.2272" y1="13" x2="-17.7728" y2="76" gradientUnits="userSpaceOnUse">
<stop stop-color="#EC0000"/>
<stop offset="1" stop-color="#284940"/>
</linearGradient>
</defs>
</svg>
