<svg width="176" height="357" viewBox="0 0 176 357" fill="none" xmlns="http://www.w3.org/2000/svg">
<path fill-rule="evenodd" clip-rule="evenodd" d="M96.626 33.318C96.626 51.719 112.182 66.636 131.372 66.636C150.561 66.636 166.118 51.719 166.118 33.318C166.118 14.917 150.561 0 131.372 0C112.182 0 96.626 14.917 96.626 33.318ZM234.161 139.751L183.973 122.167C180.112 117.539 176.131 112.912 172.15 108.285V108.284L172.149 108.283C168.168 103.656 164.187 99.0288 160.326 94.4016C159.016 92.8761 157.724 91.2288 156.408 89.5509C150.938 82.5756 145.051 75.0699 135.715 73.5778C131.372 73.1151 114.481 71.7268 110.138 72.1896C106.277 72.6523 102.417 74.0406 99.0387 75.8916L52.711 94.8643C52.0369 95.1413 51.3483 95.4184 50.6506 95.6991C44.3561 98.2318 37.3176 101.064 33.4078 106.896L2.52265 158.261C-2.78573 167.053 0.592326 178.622 9.76136 183.712C12.6568 185.563 16.0349 186.026 19.413 186.026C26.1691 186.026 32.4426 182.787 36.3033 176.771L63.8103 130.496L84.5613 121.704L69.6013 186.026L105.312 210.552L158.879 247.572V336.42C158.879 346.6 167.565 354.93 178.182 354.93C188.799 354.93 197.485 346.6 197.485 336.42V238.317C197.485 232.301 194.59 226.748 189.764 223.509L131.372 182.787L143.919 132.81L157.914 149.469C160.326 152.245 163.222 154.096 166.117 155.022L221.132 174.457C231.266 178.159 242.365 173.069 245.743 163.351C249.604 153.634 244.295 142.99 234.161 139.751ZM67.6712 195.744L60.4325 246.647L8.31382 328.091C2.52285 336.883 5.41836 347.989 14.5874 353.542C17.9654 355.393 21.3435 356.319 24.7216 356.319C30.9951 356.319 37.7512 353.079 41.1293 347.526L96.1435 262.38C97.5912 260.067 98.5564 257.753 99.039 254.976L103.865 220.733L67.6712 195.744Z" fill="#1BB3BC" fill-opacity="0.2"/>
</svg>
