<svg width="38" height="55" viewBox="0 0 38 55" fill="none" xmlns="http://www.w3.org/2000/svg">
<path fill-rule="evenodd" clip-rule="evenodd" d="M15.1975 5.0694C15.1975 7.86915 17.5563 10.1388 20.4661 10.1388C23.3759 10.1388 25.7347 7.86915 25.7347 5.0694C25.7347 2.26965 23.3759 0 20.4661 0C17.5563 0 15.1975 2.26965 15.1975 5.0694ZM36.0523 21.2634L28.4421 18.5879C27.8567 17.8838 27.253 17.1797 26.6493 16.4756C26.0456 15.7715 25.4419 15.0675 24.8565 14.3634C24.6579 14.1313 24.462 13.8807 24.2624 13.6254L24.2624 13.6253C23.4329 12.564 22.5402 11.422 21.1246 11.195C20.466 11.1246 17.9049 10.9134 17.2463 10.9838C16.6609 11.0542 16.0755 11.2654 15.5633 11.547L8.53852 14.4338C8.43629 14.4759 8.33188 14.5181 8.22609 14.5608C7.27164 14.9461 6.20438 15.377 5.61152 16.2644L0.928322 24.0797C0.123398 25.4175 0.635624 27.1777 2.02595 27.9522C2.465 28.2338 2.97722 28.3042 3.48944 28.3042C4.51389 28.3042 5.46517 27.8114 6.05057 26.896L10.2215 19.8552L13.3681 18.5175L11.0996 28.3042L16.5146 32.0359L24.637 37.6685V51.1869C24.637 52.7359 25.9541 54.0032 27.564 54.0032C29.1738 54.0032 30.491 52.7359 30.491 51.1869V36.2604C30.491 35.345 30.0519 34.5001 29.3202 34.0073L20.466 27.8114L22.3686 20.2073L24.4906 22.742C24.8565 23.1644 25.2956 23.446 25.7346 23.5869L34.0766 26.544C35.6132 27.1073 37.2963 26.3328 37.8085 24.8542C38.3939 23.3756 37.589 21.7562 36.0523 21.2634ZM10.807 29.7829L9.70937 37.5278L1.80647 49.9196C0.928375 51.2574 1.36742 52.9472 2.75775 53.7921C3.26997 54.0737 3.7822 54.2145 4.29442 54.2145C5.2457 54.2145 6.27015 53.7217 6.78237 52.8768L15.1243 39.9216C15.3438 39.5696 15.4902 39.2176 15.5634 38.7951L16.2951 33.5849L10.807 29.7829Z" fill="#284940"/>
</svg>
