<svg width="40" height="40" viewBox="0 0 40 40" fill="none" xmlns="http://www.w3.org/2000/svg">
<path fill-rule="evenodd" clip-rule="evenodd" d="M32.6949 21.0614C33.2776 21.0614 33.7491 21.532 33.7491 22.1135V23.9979L34.6715 24.5322L36.3103 23.589C36.8127 23.2972 37.4592 23.4698 37.7495 23.9733L39.8578 27.6167C40.1501 28.1202 39.9772 28.7634 39.4728 29.0532L37.8504 29.9902V31.0691L39.4728 32.0062C39.9772 32.2959 40.1501 32.9391 39.8578 33.4426L37.7495 37.0861C37.4612 37.5916 36.8148 37.7642 36.3103 37.4703L34.6735 36.5292L33.7491 37.0634V38.9479C33.7491 39.5294 33.2776 40 32.6949 40H28.4784C27.8957 40 27.4242 39.5294 27.4242 38.9479V37.0634L26.5018 36.5292L24.865 37.4703C24.3586 37.7621 23.7141 37.5895 23.4259 37.0861L21.3176 33.4426C21.0252 32.9391 21.1982 32.2959 21.7026 32.0062L23.325 31.0691V29.9902L21.7026 29.0532C21.1982 28.7634 21.0252 28.1202 21.3176 27.6167L23.4259 23.9733C23.7162 23.4698 24.3647 23.2993 24.865 23.589L26.5018 24.5322L27.4242 23.9979V22.1135C27.4242 21.532 27.8957 21.0614 28.4784 21.0614H32.6949ZM31.6408 23.1657H29.5325V24.6042C29.5325 24.9802 29.3328 25.3255 29.0075 25.5145L27.033 26.6571C26.7036 26.8441 26.3021 26.8482 25.9768 26.6571L24.723 25.9358L23.6688 27.7585L24.9062 28.4716C25.2315 28.6586 25.4333 29.0059 25.4333 29.382V31.6774C25.4333 32.0534 25.2315 32.4007 24.9062 32.5877L23.6688 33.3008L24.723 35.1236L25.9768 34.4023C26.3042 34.2132 26.7098 34.2153 27.033 34.4023L29.0075 35.5469C29.3328 35.7359 29.5325 36.0832 29.5325 36.4572V37.8957H31.6408V36.4572C31.6408 36.0812 31.8405 35.7359 32.1658 35.5469L34.1423 34.4023C34.4656 34.2132 34.8712 34.2111 35.1985 34.4023L36.4524 35.1236L37.5065 33.3008L36.2691 32.5877C35.9438 32.4007 35.7421 32.0534 35.7421 31.6774V29.382C35.7421 29.0059 35.9438 28.6586 36.2691 28.4716L37.5065 27.7585L36.4524 25.9358L35.1985 26.6571C34.8732 26.8482 34.4717 26.8461 34.1423 26.6571L32.1658 25.5145C31.8405 25.3275 31.6408 24.9802 31.6408 24.6042V23.1657ZM1.05414 0C1.20985 0 1.35487 0.0377601 1.48779 0.098125L1.51945 0.103776L5.6475 2.0786L9.77348 0.180838C10.0535 0.0513746 10.3747 0.0513746 10.6547 0.180838L14.7889 2.08271L18.9231 0.180838C19.2031 0.0513746 19.5243 0.0513746 19.8043 0.180838L23.9303 2.0786L28.0584 0.103776C28.7213 -0.218854 29.5778 0.313383 29.5778 1.05215V15.8613C29.5778 16.4428 29.1063 16.9134 28.5237 16.9134C27.941 16.9134 27.4695 16.4428 27.4695 15.8613V2.71873L24.3936 4.18906C24.1115 4.32366 23.7841 4.32777 23.4979 4.19625L19.3637 2.29437L15.2295 4.19625C14.9495 4.32571 14.6283 4.32571 14.3483 4.19625L10.2141 2.29437L6.07986 4.19625C5.79367 4.32777 5.46837 4.32366 5.18425 4.18906L2.10829 2.71796V33.159L5.19248 31.7411C5.47249 31.6137 5.79368 31.6137 6.07368 31.7411L10.21 33.6419L14.3483 31.7411C14.6283 31.6137 14.9495 31.6137 15.2295 31.7411L19.8084 33.8454C20.3376 34.0878 20.5682 34.7126 20.3252 35.2407C20.1482 35.627 19.7652 35.8531 19.3678 35.8531C19.2196 35.8531 19.0693 35.8222 18.9272 35.7565L14.7889 33.8556L10.6506 35.7565C10.3706 35.8839 10.0494 35.8839 9.76936 35.7565L5.63308 33.8556L1.49474 35.7565C1.1715 35.9044 0.788549 35.8818 0.485895 35.6866C0.18324 35.4935 0 35.1605 0 34.8009V1.05215C0 0.470588 0.471483 0 1.05414 0ZM30.5867 28.3956C31.7396 28.3956 32.6764 29.3306 32.6764 30.4814C32.6764 31.6301 31.7396 32.5651 30.5867 32.5651C29.4357 32.5651 28.499 31.6301 28.499 30.4814C28.499 29.3306 29.4357 28.3956 30.5867 28.3956ZM17.9513 21.0429C18.534 21.0429 19.0055 21.5135 19.0055 22.095C19.0055 22.6766 18.534 23.1472 17.9513 23.1472H7.40989C6.82723 23.1472 6.35575 22.6766 6.35575 22.095C6.35575 21.5135 6.82723 21.0429 7.40989 21.0429H17.9513ZM22.1679 14.73C22.7506 14.73 23.2221 15.2006 23.2221 15.7822C23.2221 16.3637 22.7506 16.8343 22.1679 16.8343H7.40989C6.82723 16.8343 6.35575 16.3637 6.35575 15.7822C6.35575 15.2006 6.82723 14.73 7.40989 14.73H22.1679ZM22.1679 8.41716C22.7506 8.41716 23.2221 8.88775 23.2221 9.4693C23.2221 10.0509 22.7506 10.5214 22.1679 10.5214H7.40989C6.82723 10.5214 6.35575 10.0509 6.35575 9.4693C6.35575 8.88775 6.82723 8.41716 7.40989 8.41716H22.1679Z" fill="#284940"/>
</svg>
