<svg width="223" height="322" viewBox="0 0 223 322" fill="none" xmlns="http://www.w3.org/2000/svg">
<path d="M186.747 49.5123L154.733 49.86C153.229 41.6023 148.173 19.9354 152.726 14.0255C152.934 11.8012 153.903 9.75183 155.432 8.30398C156.961 6.85614 158.932 6.1214 160.934 6.25273V6.25273C165.896 -2.40531 174.161 -1.10536 179.747 4.30196C185.369 6.46428 187.489 10.3058 186.747 15.5188C190.911 19.5812 191.679 24.5236 189.81 30.1495L186.747 49.5123Z" fill="#2F2E41"/>
<path d="M183.666 71.4958L160.569 67.9309L155.949 60.4051C162.313 55.6999 164.564 49.1282 161.635 40.204L177.625 39.8079C176.876 47.755 179.233 53.9082 185.798 57.6324L183.666 71.4958Z" fill="#FFB9B9"/>
<path d="M155.107 303.722L154.224 317.18C154.184 317.79 154.261 318.401 154.451 318.974C154.64 319.548 154.938 320.069 155.323 320.504C155.708 320.938 156.172 321.276 156.683 321.494C157.195 321.713 157.743 321.807 158.29 321.77L164.492 321.351C164.779 321.331 165.059 321.242 165.312 321.088C165.564 320.934 165.784 320.72 165.954 320.462C166.124 320.203 166.241 319.905 166.296 319.591C166.352 319.276 166.344 318.951 166.275 318.64L162.832 303.291L155.107 303.722Z" fill="#F1F1F1"/>
<path d="M175.185 303.291L171.743 318.64C171.673 318.951 171.666 319.276 171.721 319.591C171.777 319.905 171.894 320.203 172.064 320.462C172.234 320.72 172.453 320.934 172.706 321.088C172.959 321.242 173.239 321.331 173.526 321.351L179.728 321.77C180.275 321.807 180.822 321.713 181.334 321.494C181.846 321.276 182.31 320.938 182.695 320.504C183.08 320.069 183.377 319.548 183.567 318.974C183.756 318.401 183.834 317.79 183.794 317.18L182.91 303.722L175.185 303.291Z" fill="#F1F1F1"/>
<path d="M183.31 305.59L174.941 304.654L166.609 205.377L163.46 304.334L155.238 304.006L141.38 166.955H194.326L183.31 305.59Z" fill="#EC0000"/>
<path d="M170.519 46.5416C179.35 46.5416 186.509 38.5613 186.509 28.7171C186.509 18.873 179.35 10.8927 170.519 10.8927C161.687 10.8927 154.528 18.873 154.528 28.7171C154.528 38.5613 161.687 46.5416 170.519 46.5416Z" fill="#FFB9B9"/>
<path d="M202.144 170.124L137.472 170.917C147.069 130.189 152.811 92.3557 142.802 66.3466L158.792 57.6324C166.502 66.5968 175.089 65.6726 184.377 56.8402L199.656 61.1973C197.039 95.3042 198.212 131.833 202.144 170.124Z" fill="#EC0000"/>
<path d="M119.704 128.138L159.858 145.962L168.835 148.906C169.237 149.037 169.658 149.077 170.074 149.023C170.489 148.968 170.891 148.821 171.254 148.589C171.617 148.357 171.935 148.046 172.187 147.674C172.44 147.302 172.623 146.877 172.724 146.424C172.902 145.631 172.822 144.792 172.498 144.058C172.175 143.324 171.628 142.741 170.956 142.413L161.634 139.229L133.562 121.008L139.426 103.778L127.166 96.4501L119.704 128.138Z" fill="#FFB9B9"/>
<path d="M120.06 95.6578C127.699 98.9801 133.775 104.65 138.537 112.294L153.462 88.132L142.801 66.3465L120.06 95.6578Z" fill="#EC0000"/>
<path d="M188.54 25.8284C182.05 23.9644 175.669 23.7084 169.466 26.0728C165.515 28.2059 160.77 28.0094 155.493 26.2518V8.46832L183.982 9.31515L188.54 25.8284Z" fill="#2F2E41"/>
<path d="M159.724 107.37C158.469 107.372 157.265 107.928 156.377 108.918C155.489 109.908 154.99 111.25 154.988 112.649L156.858 156.269C156.859 157.669 157.358 159.011 158.246 160.001C159.134 160.99 160.338 161.547 161.594 161.549H182.966C184.222 161.547 185.426 160.99 186.314 160.001C187.201 159.011 187.701 157.669 187.702 156.269L189.572 112.649C189.57 111.25 189.071 109.908 188.183 108.918C187.295 107.928 186.091 107.372 184.836 107.37H159.724Z" fill="#3F3D56"/>
<path d="M220.365 124.843L185.366 140.377L182.725 141.549C182.641 141.586 182.557 141.617 182.468 141.648L173.621 144.55C172.491 144.92 170.925 143.222 170.009 142.05C169.555 141.485 169.298 140.757 169.285 139.999C169.271 139.242 169.501 138.503 169.934 137.918C170.056 137.761 170.191 137.617 170.336 137.486C170.677 137.19 171.078 136.993 171.504 136.913L180.342 134.975C180.659 134.906 180.964 134.779 181.244 134.6L185.366 131.922L206.765 118.034C207.361 117.648 207.814 117.04 208.044 116.317C208.274 115.593 208.267 114.803 208.023 114.085L203.938 102.077C203.687 101.343 203.685 100.531 203.932 99.7952C204.179 99.0589 204.658 98.448 205.279 98.0765L212.046 94.0339C212.433 93.8025 212.862 93.672 213.3 93.6521C213.739 93.6322 214.176 93.7235 214.578 93.9191C214.98 94.1147 215.337 94.4095 215.623 94.7814C215.908 95.1532 216.114 95.5923 216.224 96.0656L222.099 121.009C222.28 121.773 222.203 122.585 221.884 123.292C221.564 123.998 221.024 124.55 220.365 124.843V124.843Z" fill="#FFB9B9"/>
<path d="M222.398 91.3008C214.759 94.623 208.682 100.293 203.92 107.937L188.996 83.7749L199.656 61.1973L222.398 91.3008Z" fill="#EC0000"/>
<path d="M181.16 44.5818C174.164 47.8253 166.83 47.6936 159.195 44.5818C161.416 40.3549 158.095 37.0443 156.391 32.7773L184.899 31.833C182.718 35.5398 179.502 39.9194 181.16 44.5818Z" fill="white"/>
<path d="M184.597 32.5383L184.266 32.17L184.733 31.649L187.525 28.017L187.88 28.3556L185.076 32.0022L184.597 32.5383Z" fill="white"/>
<path d="M154.437 30.3305L154.138 30.7309L156.942 33.3356L157.241 32.9352L154.437 30.3305Z" fill="white"/>
<path d="M185.402 35.601L180.494 44.1957L180.888 44.4755L185.797 35.8808L185.402 35.601Z" fill="white"/>
<path d="M154.952 35.6003L154.558 35.8801L159.465 44.4757L159.859 44.1959L154.952 35.6003Z" fill="white"/>
<path d="M186.301 131.185V140.623L183.353 141.932C183.259 141.972 183.165 142.007 183.066 142.042L173.191 145.281C171.929 145.694 170.181 143.798 169.159 142.49C168.652 141.859 168.366 141.047 168.35 140.201C168.335 139.355 168.592 138.531 169.075 137.878C169.212 137.703 169.362 137.542 169.524 137.396C169.904 137.066 170.352 136.846 170.828 136.756L180.693 134.593C181.046 134.516 181.387 134.374 181.699 134.174L186.301 131.185Z" fill="#F1F1F1"/>
<path d="M190.572 97.5221H188.883C188.883 70.8963 183.965 52.3411 179.172 52.3411L178.75 50.4585C183.048 50.4585 185.788 58.181 187.33 64.6596C189.421 73.4425 190.572 85.1132 190.572 97.5221Z" fill="#3F3D56"/>
<path d="M151.729 90.9333H150.04C150.04 66.5482 154.992 51.3998 162.284 51.3998L161.862 53.2824C156.818 53.2824 151.729 64.9244 151.729 90.9333Z" fill="#3F3D56"/>
<path d="M189.728 102.699C192.06 102.699 193.95 100.592 193.95 97.9927C193.95 95.3935 192.06 93.2864 189.728 93.2864C187.396 93.2864 185.506 95.3935 185.506 97.9927C185.506 100.592 187.396 102.699 189.728 102.699Z" fill="#3F3D56"/>
<path d="M144.974 102.228H143.285C143.285 95.4812 146.694 89.9919 150.885 89.9919V91.8745C147.626 91.8745 144.974 96.5193 144.974 102.228Z" fill="#3F3D56"/>
<path d="M158.485 102.228H156.796C156.796 96.5193 154.144 91.8745 150.885 91.8745V89.9919C155.075 89.9919 158.485 95.4812 158.485 102.228Z" fill="#3F3D56"/>
<path d="M157.64 104.582C158.573 104.582 159.329 103.739 159.329 102.699C159.329 101.659 158.573 100.817 157.64 100.817C156.707 100.817 155.951 101.659 155.951 102.699C155.951 103.739 156.707 104.582 157.64 104.582Z" fill="#3F3D56"/>
<path d="M144.129 104.582C145.062 104.582 145.818 103.739 145.818 102.699C145.818 101.659 145.062 100.817 144.129 100.817C143.197 100.817 142.44 101.659 142.44 102.699C142.44 103.739 143.197 104.582 144.129 104.582Z" fill="#3F3D56"/>
<path d="M70.6054 39.4343L40.945 45.0332C40.2123 45.1725 39.4593 45.004 38.8317 44.5601C38.204 44.1162 37.7464 43.4286 37.5474 42.6303C35.4045 34.0089 30.9243 22.762 35.2741 17.1161C35.4957 14.7409 36.5306 12.5524 38.1633 11.0064C39.796 9.46029 41.9007 8.6757 44.0393 8.81592C49.3379 -0.429485 58.1635 0.958655 64.1285 6.73282C70.1317 9.04183 72.395 13.1439 71.6035 18.7107C74.1969 21.2411 75.5566 24.0914 75.8433 27.2197C75.9792 28.9606 75.7805 30.7138 75.2604 32.3623C74.7403 34.0108 73.9108 35.5167 72.8272 36.7795L70.6054 39.4343Z" fill="#2F2E41"/>
<path d="M65.9934 65.4634L43 63.9557C45.2534 58.1905 46.1535 52.6388 45.2543 47.3711H62.3866C62.3478 51.4156 64.1534 58.412 65.9934 65.4634Z" fill="#9F616A"/>
<path d="M38.3154 302.299L37.3723 316.671C37.3296 317.322 37.4122 317.975 37.6145 318.587C37.8168 319.199 38.1342 319.755 38.5454 320.22C38.9565 320.684 39.452 321.044 39.9985 321.278C40.5449 321.511 41.1298 321.611 41.7139 321.571L48.3362 321.124C48.6431 321.104 48.9421 321.008 49.2119 320.844C49.4818 320.68 49.7159 320.451 49.8977 320.175C50.0794 319.898 50.2043 319.581 50.2636 319.245C50.3228 318.908 50.3148 318.562 50.2403 318.229L46.5643 301.839L38.3154 302.299Z" fill="#F1F1F1"/>
<path d="M59.755 301.839L56.0791 318.229C56.0045 318.562 55.9966 318.908 56.0558 319.245C56.115 319.581 56.2399 319.898 56.4217 320.175C56.6034 320.451 56.8376 320.679 57.1074 320.844C57.3773 321.008 57.6763 321.104 57.9831 321.124L64.6054 321.571C65.1895 321.611 65.7744 321.511 66.3209 321.278C66.8674 321.044 67.3628 320.684 67.774 320.22C68.1851 319.755 68.5025 319.199 68.7049 318.587C68.9072 317.975 68.9898 317.322 68.9471 316.671L68.004 302.299L59.755 301.839Z" fill="#F1F1F1"/>
<path d="M68.4309 304.295L59.4944 303.295L50.5971 197.283L47.2346 302.953L38.4546 302.603L23.6562 156.255H80.1939L68.4309 304.295Z" fill="#EC0000"/>
<path d="M54.2724 53.4719C63.7028 53.4719 71.3476 44.9503 71.3476 34.4382C71.3476 23.9262 63.7028 15.4046 54.2724 15.4046C44.8421 15.4046 37.1973 23.9262 37.1973 34.4382C37.1973 44.9503 44.8421 53.4719 54.2724 53.4719Z" fill="#9F616A"/>
<path d="M73.5172 25.3456C66.5869 24.0002 59.7732 23.8155 53.1497 25.522C48.9304 27.0616 43.8635 26.9198 38.2285 25.6512V12.8157L68.6498 13.4269L73.5172 25.3456Z" fill="#2F2E41"/>
<path d="M65.636 49.7103C58.1661 53.1739 50.3336 53.0333 42.1808 49.7103C44.5531 45.1966 41.007 41.6615 39.1865 37.105L69.6284 36.0966C67.3004 40.0549 63.8654 44.7316 65.636 49.7103Z" fill="white"/>
<path d="M37.0904 34.5057L36.791 34.9061L39.7852 37.6874L40.0845 37.287L37.0904 34.5057Z" fill="white"/>
<path d="M70.1807 40.1292L64.9395 49.3072L65.3338 49.587L70.575 40.409L70.1807 40.1292Z" fill="white"/>
<path d="M37.6365 40.1288L37.2422 40.4086L42.4822 49.5874L42.8766 49.3077L37.6365 40.1288Z" fill="white"/>
<path d="M21.8101 121.248L8.73535 112.202L19.8858 75.7988C21.1294 72.0424 23.5114 68.8885 26.62 66.8823L30.3762 64.4583L30.7028 101.182L21.8101 121.248Z" fill="#EC0000"/>
<path d="M78.3246 138.928L76.3902 120.459C76.2869 110.711 77.7747 101.286 81.3224 92.6019L83.1258 65.4634L63.2883 56.4172C63.2274 56.8679 63.1757 57.3182 63.1177 57.7687L53.8204 62.9506L44.7532 60.6535L44.8034 57.4224L26.7693 66.4686C32.7332 97.3753 29.4803 129.471 19.2246 167.381L42.9828 174.622L43.1804 161.905L64.3541 160.22C64.5722 164.345 64.7475 168.398 64.8492 172.36C76.7969 177.264 77.2073 177.182 88.0932 170.162C83.758 160.002 80.3255 149.43 78.3246 138.928Z" fill="#EC0000"/>
<path d="M108.825 116.725L96.652 112.202L77.1807 86.9345L83.1262 65.4637L110.177 107.679L108.825 116.725Z" fill="#EC0000"/>
<path d="M70.6742 136.286C70.8734 137.261 71.4111 138.107 72.1693 138.64C72.9276 139.173 73.8445 139.35 74.7191 139.13L85.0524 136.522L83.559 129.17L73.2255 131.778C72.3508 131.998 71.5907 132.598 71.1123 133.443C70.6339 134.289 70.4763 135.311 70.6742 136.286V136.286Z" fill="#F1F1F1"/>
<path d="M79.9697 127.781L85.8308 139.843C95.689 136.778 104.233 127.116 112.431 115.72L110.177 107.679L96.2004 111.699L79.9697 127.781Z" fill="#EC0000"/>
<path d="M3.55078 89.9471L14.8025 92.1866L40.5208 132.949L26.8581 129.366L3.55078 89.9471Z" fill="#E6E6E6"/>
<path d="M1.55491 89.4481C1.38345 89.451 1.21584 89.5052 1.06959 89.605C0.923349 89.7048 0.803849 89.8466 0.723592 90.0155C0.643335 90.1844 0.60527 90.3743 0.613374 90.5652C0.621479 90.7561 0.67546 90.9411 0.769666 91.1008L24.8095 131.759C24.9436 131.986 25.1508 132.147 25.3884 132.21L36.5734 135.143C36.762 135.192 36.9596 135.177 37.1401 135.098C37.3205 135.02 37.4753 134.882 37.5838 134.703C37.6923 134.524 37.7495 134.312 37.7477 134.096C37.7459 133.881 37.6852 133.67 37.5738 133.494L11.1795 91.6598C11.108 91.5459 11.0169 91.4487 10.9117 91.374C10.8064 91.2993 10.6889 91.2484 10.566 91.2243L1.73521 89.4663C1.6757 89.4544 1.61537 89.4483 1.55491 89.4481Z" fill="#3F3D56"/>
<path d="M16.5508 118.518L17.2189 126.02L27.762 124.853C28.6544 124.754 29.4751 124.265 30.0435 123.491C30.6119 122.718 30.8815 121.725 30.7929 120.73C30.7044 119.735 30.2649 118.82 29.5712 118.187C28.8776 117.553 27.9865 117.253 27.0941 117.352L16.5508 118.518Z" fill="#F1F1F1"/>
<path d="M7.38281 117.649C7.39813 120.207 8.31975 122.655 9.94686 124.458C11.574 126.262 13.7747 127.276 16.0694 127.279H17.803L19.0651 115.555L8.61517 111.361L7.38281 117.649Z" fill="#EC0000"/>
<path d="M68.7953 37.3935L68.4648 37.0252L68.964 36.4688L71.9461 32.5894L72.3008 32.928L69.3065 36.822L68.7953 37.3935Z" fill="white"/>
</svg>
