<svg width="18" height="11" viewBox="0 0 18 11" fill="none" xmlns="http://www.w3.org/2000/svg">
<path fill-rule="evenodd" clip-rule="evenodd" d="M9.00033 0C12.6135 0 15.7712 2.04753 17.293 5.23724C17.3472 5.35073 17.3472 5.4826 17.293 5.59609C15.7712 8.7858 12.6135 10.8333 9.00033 10.8333C5.38717 10.8333 2.22947 8.7858 0.707603 5.59609C0.653455 5.4826 0.653455 5.35073 0.707603 5.23724C2.22947 2.04753 5.38717 0 9.00033 0ZM9.00033 0.833333C5.78073 0.833333 2.96419 2.61632 1.54787 5.41667C2.96419 8.21702 5.78073 10 9.00033 10C12.2199 10 15.0365 8.21702 16.4528 5.41667C15.0365 2.61632 12.2199 0.833333 9.00033 0.833333ZM9.00033 2.08583C10.8413 2.08583 12.3337 3.57822 12.3337 5.41917C12.3337 7.26012 10.8413 8.7525 9.00033 8.7525C7.15937 8.7525 5.66699 7.26012 5.66699 5.41917C5.66699 3.57822 7.15937 2.08583 9.00033 2.08583ZM9.00033 2.91917C7.61961 2.91917 6.50033 4.03845 6.50033 5.41917C6.50033 6.79988 7.61961 7.91917 9.00033 7.91917C10.381 7.91917 11.5003 6.79988 11.5003 5.41917C11.5003 4.03845 10.381 2.91917 9.00033 2.91917Z" fill="#6F7779"/>
</svg>
