<svg width="32" height="32" viewBox="0 0 32 32" fill="none" xmlns="http://www.w3.org/2000/svg">
<path fill-rule="evenodd" clip-rule="evenodd" d="M17.7982 14.957C19.15 14.7758 19.9973 15.2248 20.4695 15.6328C20.5817 15.7296 20.6756 15.8421 20.7693 15.9545C21.1833 15.7727 21.6679 15.6725 22.2518 15.6725C22.302 15.6725 22.3522 15.6777 22.4011 15.6888C23.0417 15.8315 23.8427 15.9534 24.0798 15.9834C24.2884 15.9814 25.0941 15.8296 25.7201 15.6888C25.7697 15.6784 25.8199 15.6725 25.8701 15.6725C28.0533 15.6725 28.8279 16.9466 28.8279 18.0382V18.2519C28.8279 21.0413 28.2303 23.6946 27.0637 26.3409C27.6428 26.4543 28.2015 26.5504 28.8021 26.681C29.1673 26.7605 29.3978 27.1163 29.3172 27.476C29.2479 27.7875 28.9679 28 28.6575 28C28.6093 28 28.5604 27.9948 28.5116 27.9844C23.7932 26.9586 19.7972 26.4809 15.9353 26.4809C12.1414 26.4809 8.18576 26.9508 3.48716 27.9596C3.11933 28.0371 2.76206 27.8091 2.68216 27.4493C2.60291 27.0889 2.83471 26.7338 3.19924 26.6549C3.81677 26.5224 4.3904 26.4243 4.98441 26.3098C3.7561 23.6857 3.12725 21.04 3.12725 18.2441V18.0382C3.12725 16.9466 3.90188 15.6725 6.08575 15.6725C6.13594 15.6725 6.18613 15.6784 6.235 15.6888C6.86236 15.8296 7.66736 15.9814 7.87538 15.9834C8.09925 15.9834 8.91746 15.8309 9.55407 15.6888C9.60293 15.6777 9.65312 15.6725 9.70331 15.6725C10.2945 15.6725 10.7839 15.7753 11.201 15.9612C11.2998 15.8384 11.4022 15.7179 11.5227 15.6139C11.9816 15.2176 12.8078 14.783 14.1404 14.957C14.3563 14.9856 14.6515 15.056 14.9632 15.1329C15.3284 15.2235 15.8197 15.361 16.0126 15.3336C16.2265 15.3317 16.6446 15.2248 16.98 15.1381C17.2878 15.0586 17.581 14.9856 17.7982 14.957ZM25.942 17.0078C25.5319 17.0984 24.5097 17.3148 24.0903 17.3181C23.6347 17.3656 22.5985 17.0997 22.1792 17.0078C21.7902 17.0143 21.5345 17.0738 21.3508 17.1486C21.3874 17.3282 21.4099 17.5118 21.4099 17.6986C21.4099 21.7843 20.7273 24.2271 20.3031 25.3625C22.033 25.5133 23.8189 25.7407 25.7131 26.0768C26.8854 23.5118 27.4754 20.9478 27.4754 18.2519V18.0382C27.4754 17.1512 26.4558 17.0183 25.942 17.0078ZM9.77595 17.0078C9.35727 17.0997 8.32774 17.3708 7.86482 17.3181C7.44614 17.3148 6.42387 17.0984 6.01377 17.0078C5.5 17.0183 4.47971 17.1512 4.47971 18.0382V18.2441C4.47971 20.9467 5.10278 23.5032 6.34223 26.0474C8.22134 25.7193 9.98604 25.4992 11.6935 25.3531C11.2692 24.2137 10.5902 21.7738 10.5902 17.6986C10.5902 17.5177 10.6131 17.3409 10.6458 17.1673C10.4591 17.0834 10.1951 17.0146 9.77595 17.0078ZM19.5793 16.6377C19.2035 16.3131 18.6481 16.1887 17.9792 16.2799C17.8042 16.3034 17.5691 16.3659 17.3214 16.4298C16.8711 16.5458 16.4055 16.6651 16.0231 16.6683C15.6163 16.6716 15.1191 16.5478 14.635 16.4278C14.3795 16.3646 14.1391 16.3034 13.9614 16.2799C13.3037 16.1965 12.7695 16.3112 12.4135 16.6181C12.1144 16.8769 11.9427 17.2705 11.9427 17.6986C11.9427 22.141 12.7884 24.5139 13.0963 25.2336C14.0563 25.1773 15.0011 25.1462 15.9353 25.1462C16.9135 25.1462 17.8998 25.1771 18.9024 25.2376C19.207 24.5265 20.0574 22.1525 20.0574 17.6986C20.0574 17.2868 19.8831 16.8997 19.5793 16.6377ZM7.87274 6.67521C8.87454 6.67521 9.87963 7.12097 10.4964 7.83914C11.0049 8.43153 11.2162 9.16664 11.0914 9.90827L10.7764 12.3398C10.546 13.7969 9.38039 14.7641 7.87274 14.7641C6.36708 14.7641 5.20349 13.7969 4.97566 12.358L4.65405 9.88351C4.53254 9.16599 4.74386 8.43088 5.25236 7.83784C5.86783 7.12097 6.87227 6.67521 7.87274 6.67521ZM24.0824 6.67521C25.0829 6.67521 26.0873 7.12097 26.7028 7.83784C27.2113 8.43088 27.4226 9.16599 27.2971 9.90827L26.9828 12.3398C26.7517 13.7969 25.5874 14.7641 24.0824 14.7641C22.5748 14.7641 21.4092 13.7969 21.1814 12.358L20.8598 9.88351C20.7389 9.16664 20.9502 8.43153 21.4587 7.83914C22.0755 7.12097 23.0806 6.67521 24.0824 6.67521ZM7.87274 8.00988C7.26783 8.00988 6.64443 8.28099 6.28453 8.70003C6.02962 8.9972 5.93122 9.33022 5.99198 9.68865L6.31491 12.1703C6.43642 12.94 7.03472 13.4294 7.87274 13.4294C8.70086 13.4294 9.31501 12.9282 9.43718 12.1521L9.7535 9.71407C9.81756 9.33087 9.71916 8.99851 9.46425 8.70199C9.10369 8.28164 8.47897 8.00988 7.87274 8.00988ZM24.0824 8.00988C23.4762 8.00988 22.8515 8.28164 22.4909 8.70199C22.236 8.99851 22.1376 9.33087 22.1977 9.6893L22.5206 12.1703C22.6401 12.9282 23.2543 13.4294 24.0824 13.4294C24.9204 13.4294 25.5187 12.94 25.6435 12.1521L25.9592 9.71407C26.0239 9.33022 25.9255 8.9972 25.6706 8.70003C25.3107 8.28099 24.6873 8.00988 24.0824 8.00988ZM16.0165 4C17.1663 4 18.3186 4.51093 19.0246 5.33337C19.6024 6.00657 19.8421 6.84009 19.7001 7.68013L19.3277 10.5593C19.0648 12.2179 17.7355 13.3199 16.0165 13.3199C14.3009 13.3199 12.9735 12.2179 12.7133 10.5776L12.3343 7.65536C12.1956 6.83879 12.4353 6.00462 13.0131 5.33141C13.7178 4.51028 14.8688 4 16.0165 4ZM16.0165 5.33467C15.267 5.33467 14.493 5.67225 14.0453 6.19426C13.8214 6.45494 13.5751 6.88636 13.6722 7.4605L14.0526 10.3899C14.2051 11.3518 14.9771 11.9852 16.0165 11.9852C17.0593 11.9852 17.8332 11.3518 17.9884 10.3716L18.3622 7.48592C18.4626 6.88766 18.2163 6.45689 17.9924 6.19621C17.5433 5.6729 16.768 5.33467 16.0165 5.33467Z" fill="#EC0000"/>
</svg>
