<svg width="49" height="48" viewBox="0 0 49 48" fill="none" xmlns="http://www.w3.org/2000/svg">
<rect x="0.5" width="48" height="48" rx="24" fill="#1BB3BC"/>
<path fill-rule="evenodd" clip-rule="evenodd" d="M26.2043 23.2455C27.3971 23.0972 28.1447 23.4648 28.5613 23.7988C28.6604 23.8781 28.7432 23.9702 28.8258 24.0622C29.1912 23.9134 29.6187 23.8314 30.134 23.8314C30.1783 23.8314 30.2225 23.8356 30.2657 23.8447C30.8309 23.9615 31.5377 24.0613 31.7469 24.0859C31.931 24.0843 32.6419 23.9599 33.1943 23.8447C33.238 23.8362 33.2822 23.8314 33.3265 23.8314C35.2529 23.8314 35.9364 24.8744 35.9364 25.7681V25.9432C35.9364 28.2268 35.4091 30.3991 34.3797 32.5657C34.8908 32.6585 35.3837 32.7372 35.9137 32.8441C36.2359 32.9092 36.4392 33.2005 36.3682 33.4951C36.307 33.7501 36.0599 33.924 35.7861 33.924C35.7435 33.924 35.7004 33.9198 35.6573 33.9112C31.494 33.0714 27.9681 32.6803 24.5606 32.6803C21.213 32.6803 17.7227 33.065 13.5769 33.8909C13.2524 33.9544 12.9371 33.7677 12.8666 33.4732C12.7967 33.1781 13.0012 32.8873 13.3229 32.8228C13.8677 32.7143 14.3739 32.634 14.898 32.5403C13.8142 30.3918 13.2593 28.2258 13.2593 25.9368V25.7681C13.2593 24.8744 13.9428 23.8314 15.8698 23.8314C15.9141 23.8314 15.9584 23.8362 16.0015 23.8447C16.555 23.9599 17.2653 24.0843 17.4489 24.0859C17.6464 24.0859 18.3683 23.961 18.9301 23.8447C18.9732 23.8356 19.0175 23.8314 19.0617 23.8314C19.5834 23.8314 20.0152 23.9155 20.3832 24.0677C20.4704 23.9671 20.5608 23.8685 20.6671 23.7833C21.072 23.4589 21.801 23.1031 22.9768 23.2455C23.1674 23.269 23.4278 23.3266 23.7029 23.3896C24.0251 23.4637 24.4586 23.5763 24.6287 23.5539C24.8175 23.5523 25.1864 23.4648 25.4824 23.3938C25.7539 23.3287 26.0126 23.269 26.2043 23.2455ZM33.39 24.9246C33.0282 24.9988 32.1262 25.1759 31.7562 25.1786C31.3541 25.2175 30.4399 24.9998 30.0699 24.9246C29.7266 24.9299 29.501 24.9786 29.339 25.0399C29.3712 25.1868 29.3911 25.3372 29.3911 25.4902C29.3911 28.8351 28.7888 30.8351 28.4145 31.7647C29.9409 31.8881 31.5167 32.0743 33.1881 32.3495C34.2224 30.2495 34.743 28.1503 34.743 25.9432V25.7681C34.743 25.042 33.8434 24.9331 33.39 24.9246ZM19.1258 24.9246C18.7564 24.9998 17.848 25.2218 17.4395 25.1786C17.0701 25.1759 16.1681 24.9988 15.8063 24.9246C15.3529 24.9331 14.4527 25.042 14.4527 25.7681V25.9368C14.4527 28.1494 15.0025 30.2424 16.0961 32.3254C17.7541 32.0568 19.3112 31.8766 20.8178 31.757C20.4434 30.8242 19.8443 28.8265 19.8443 25.4902C19.8443 25.342 19.8645 25.1972 19.8933 25.0552C19.7286 24.9865 19.4957 24.9301 19.1258 24.9246ZM27.7758 24.6215C27.4443 24.3558 26.9543 24.2539 26.364 24.3286C26.2096 24.3478 26.0021 24.3991 25.7836 24.4513C25.3862 24.5463 24.9754 24.644 24.6381 24.6466C24.2791 24.6493 23.8404 24.5479 23.4133 24.4497C23.1878 24.398 22.9757 24.3478 22.8189 24.3286C22.2386 24.2603 21.7672 24.3542 21.4531 24.6055C21.1891 24.8174 21.0376 25.1396 21.0376 25.4902C21.0376 29.1272 21.7839 31.0699 22.0555 31.6591C22.9026 31.6131 23.7363 31.5876 24.5606 31.5876C25.4237 31.5876 26.2939 31.6129 27.1786 31.6624C27.4474 31.0803 28.1977 29.1366 28.1977 25.4902C28.1977 25.153 28.0439 24.836 27.7758 24.6215ZM17.4465 16.4651C18.3305 16.4651 19.2173 16.8301 19.7616 17.4181C20.2102 17.9031 20.3967 18.5049 20.2866 19.1121L20.0086 21.1028C19.8053 22.2958 18.7768 23.0876 17.4465 23.0876C16.118 23.0876 15.0913 22.2958 14.8903 21.1177L14.6065 19.0918C14.4993 18.5044 14.6858 17.9025 15.1344 17.417C15.6775 16.8301 16.5638 16.4651 17.4465 16.4651ZM31.7492 16.4651C32.632 16.4651 33.5182 16.8301 34.0613 17.417C34.51 17.9025 34.6964 18.5044 34.5857 19.1121L34.3084 21.1028C34.1044 22.2958 33.0771 23.0876 31.7492 23.0876C30.4189 23.0876 29.3905 22.2958 29.1894 21.1177L28.9057 19.0918C28.799 18.5049 28.9855 17.9031 29.4342 17.4181C29.9784 16.8301 30.8653 16.4651 31.7492 16.4651ZM17.4465 17.5578C16.9128 17.5578 16.3627 17.7798 16.0452 18.1229C15.8203 18.3662 15.7334 18.6388 15.787 18.9323L16.072 20.964C16.1792 21.5942 16.7071 21.9949 17.4465 21.9949C18.1772 21.9949 18.7191 21.5846 18.8269 20.9491L19.106 18.9531C19.1626 18.6394 19.0757 18.3672 18.8508 18.1245C18.5327 17.7803 17.9814 17.5578 17.4465 17.5578ZM31.7492 17.5578C31.2143 17.5578 30.6631 17.7803 30.3449 18.1245C30.12 18.3672 30.0332 18.6394 30.0862 18.9328L30.3711 20.964C30.4766 21.5846 31.0185 21.9949 31.7492 21.9949C32.4886 21.9949 33.0165 21.5942 33.1267 20.9491L33.4052 18.9531C33.4623 18.6388 33.3755 18.3662 33.1506 18.1229C32.833 17.7798 32.2829 17.5578 31.7492 17.5578ZM24.6322 14.2749C25.6467 14.2749 26.6635 14.6932 27.2864 15.3666C27.7962 15.9177 28.0078 16.6001 27.8825 17.2879L27.5538 19.6451C27.3219 21.003 26.149 21.9052 24.6322 21.9052C23.1184 21.9052 21.9472 21.003 21.7176 19.66L21.3832 17.2676C21.2608 16.5991 21.4723 15.9161 21.9822 15.3649C22.6039 14.6927 23.6195 14.2749 24.6322 14.2749ZM24.6322 15.3676C23.9709 15.3676 23.288 15.644 22.8929 16.0714C22.6954 16.2848 22.478 16.638 22.5637 17.1081L22.8993 19.5064C23.0339 20.2939 23.7151 20.8125 24.6322 20.8125C25.5523 20.8125 26.2352 20.2939 26.3721 19.4914L26.702 17.1289C26.7905 16.6391 26.5732 16.2864 26.3756 16.073C25.9794 15.6445 25.2953 15.3676 24.6322 15.3676Z" fill="white"/>
</svg>
