<svg width="32" height="32" viewBox="0 0 32 32" fill="none" xmlns="http://www.w3.org/2000/svg">
<path fill-rule="evenodd" clip-rule="evenodd" d="M23.9648 5.3335C26.1901 5.3335 28 7.14339 28 9.36865V18.6291C28 20.8556 26.1888 22.6668 23.9622 22.6668H12.9427L9.13802 26.4715C9.01042 26.5991 8.83984 26.6668 8.66667 26.6668C8.58073 26.6668 8.49349 26.6499 8.41146 26.616C8.16276 26.5132 8 26.2697 8 26.0002V22.6668C5.79036 22.646 4 20.8426 4 18.6291V9.37126C4 7.14469 5.8112 5.3335 8.03776 5.3335H23.9648ZM23.9648 6.66683H8.03776C6.54688 6.66683 5.33333 7.88037 5.33333 9.37126V18.6291C5.33333 20.12 6.54688 21.3335 8.03776 21.3335H8.66667C9.03516 21.3335 9.33333 21.6317 9.33333 22.0002V24.3908L12.1953 21.5288C12.3203 21.4038 12.4896 21.3335 12.6667 21.3335H23.9622C25.4531 21.3335 26.6667 20.12 26.6667 18.6291V9.36865C26.6667 7.87907 25.4544 6.66683 23.9648 6.66683ZM20.8982 10.4362C21.5453 10.4362 22.096 10.5796 22.5504 10.8639C23.0059 11.1493 23.3498 11.5541 23.5833 12.0794C23.818 12.6047 23.9347 13.2227 23.9347 13.9346C23.9347 14.498 23.8637 14.9992 23.7228 15.4382C23.582 15.8773 23.3777 16.2465 23.1086 16.5485L24.1365 17.7007C23.7964 17.9963 23.4919 18.226 23.2229 18.3935L22.1951 17.1919C21.8296 17.3517 21.4045 17.4316 20.9172 17.4316C20.2764 17.4316 19.7283 17.2909 19.274 17.0091C18.8185 16.7275 18.4733 16.3239 18.2361 15.7986C17.9988 15.2733 17.8808 14.6515 17.8808 13.9346C17.8808 13.21 18.0013 12.587 18.2411 12.0655C18.481 11.5427 18.8274 11.1417 19.2791 10.8587C19.7308 10.5771 20.2701 10.4362 20.8982 10.4362ZM12.1733 10.61C12.1733 10.7699 12.1643 10.9501 12.1453 11.1519C12.1263 11.3536 12.0996 11.5287 12.0679 11.6759H9.53133V13.3966H11.9334C11.9334 13.5501 11.9246 13.7315 11.9042 13.9396C11.8852 14.1478 11.8598 14.3254 11.8281 14.4726H9.53133V17.2591H8.28149V10.61H12.1733ZM15.6907 10.5517L17.7843 17.2591H16.4685L16.084 15.876H13.701L13.2974 17.2591H12.0679L14.1235 10.7052C14.2961 10.6545 14.527 10.6164 14.8151 10.5898C15.1044 10.5644 15.395 10.5517 15.6907 10.5517ZM20.8982 11.5224C20.3336 11.5224 19.9084 11.7279 19.6204 12.1378C19.3311 12.5477 19.1877 13.1466 19.1877 13.9346C19.1877 14.7162 19.335 15.3114 19.6293 15.7212C19.9237 16.131 20.3538 16.3366 20.9172 16.3366C21.487 16.3366 21.9172 16.1348 22.2052 15.7314C22.4932 15.3278 22.6366 14.7289 22.6366 13.9346C22.6366 13.1529 22.4882 12.5553 22.1899 12.1416C21.8931 11.7292 21.4616 11.5224 20.8982 11.5224ZM14.9217 11.7241L14.0081 14.8381H15.796L14.9217 11.7241Z" fill="black"/>
</svg>
