<svg width="24" height="24" viewBox="0 0 24 24" fill="none" xmlns="http://www.w3.org/2000/svg">
<path fill-rule="evenodd" clip-rule="evenodd" d="M12.9161 13.5752V19.5C12.9161 19.7764 13.1377 20 13.4115 20C13.6853 20 13.9068 19.7764 13.9068 19.5V13.7285L19.9147 4.78027C20.0681 4.55176 20.0091 4.24121 19.7822 4.08594C19.6681 4.0083 19.5334 3.98541 19.4078 4.01062C19.3898 4.00861 19.3741 4 19.3555 4H4.49534C4.48004 4 4.4671 4.00745 4.45217 4.00879C4.41867 4.01166 4.38717 4.01874 4.35445 4.02869C4.32192 4.03864 4.29193 4.05023 4.26261 4.06635C4.24948 4.07349 4.23473 4.07452 4.22203 4.08301C4.20831 4.09216 4.20099 4.10651 4.18847 4.11676C4.16138 4.13886 4.13798 4.16241 4.1161 4.1897C4.09656 4.21411 4.07994 4.2384 4.06542 4.26556C4.05025 4.29382 4.03888 4.32245 4.02927 4.35358C4.01917 4.38611 4.01294 4.41785 4.00961 4.45178C4.00798 4.46844 4 4.48291 4 4.5C4 4.51562 4.00738 4.52875 4.00877 4.54401C4.01161 4.57727 4.01856 4.60864 4.02824 4.6413C4.03815 4.67456 4.04976 4.7052 4.06591 4.73517C4.07298 4.74835 4.07389 4.76312 4.08223 4.77588L9.94408 13.7256V19.5C9.94408 19.7764 10.1656 20 10.4394 20C10.7132 20 10.9348 19.7764 10.9348 19.5V13.5752C10.9348 13.4771 10.9062 13.3813 10.8525 13.2993L5.4166 5H18.5704L13.0013 13.2949C12.9456 13.3774 12.9161 13.4751 12.9161 13.5752Z" fill="#404040"/>
</svg>
