<svg width="109" height="28" viewBox="0 0 109 28" fill="none" xmlns="http://www.w3.org/2000/svg">
<path fill-rule="evenodd" clip-rule="evenodd" d="M40.5699 1.76837C40.5699 1.24298 40.1342 0.820112 39.6088 0.820112C39.0835 0.832926 38.6606 1.2558 38.6606 1.76837V1.78118C38.6606 2.30656 39.0963 2.72944 39.6217 2.72944C40.147 2.72944 40.5699 2.29375 40.5699 1.76837ZM41.4157 1.80681C41.4028 2.78069 40.5955 3.57518 39.6088 3.56236C38.635 3.57518 37.8277 2.79351 37.802 1.80681C37.802 0.807298 38.6093 0 39.6088 0C40.6084 0 41.4157 0.807298 41.4157 1.80681ZM34.2269 7.90644L36.0209 10.1874L34.2525 12.4299L29.7931 6.74034L31.9203 4.03654C32.1894 3.70337 32.5995 3.52397 33.0223 3.54959H35.4314C35.9183 3.51115 36.3797 3.74181 36.6488 4.13905L38.6862 6.74034L36.9307 8.99565L35.4442 7.11196C35.4314 7.07351 35.4186 7.04788 35.393 7.02226C35.1495 6.7019 34.6882 6.63783 34.3678 6.8813C34.0475 7.12477 33.9834 7.58608 34.2269 7.90644ZM36.9434 15.4285C36.6999 15.4413 36.4564 15.3131 36.3283 15.1081L35.1878 13.6217L42.6585 4.04941C42.9276 3.74187 43.3249 3.54965 43.7477 3.54965H46.4259C46.7847 3.60091 47.1179 3.78031 47.3613 4.06222L47.6945 4.49791L49.4501 6.76603L44.9907 12.4427L43.5811 10.6487C43.3377 10.3796 43.3505 9.9824 43.6068 9.72612L45.0035 7.93213C45.2214 7.61177 45.1701 7.1889 44.8754 6.93261C44.555 6.67633 44.0937 6.72759 43.8374 7.03513L37.5584 15.0697C37.4175 15.2747 37.1996 15.4156 36.9434 15.4285ZM42.9021 12.148C42.7611 11.9558 42.5433 11.8404 42.2998 11.8404C42.0692 11.8404 41.8513 11.9429 41.7232 12.1223L35.3801 20.2722C35.111 20.5926 34.6369 20.6438 34.3166 20.3875C34.0218 20.1312 33.9834 19.6956 34.2269 19.388L35.6492 17.5556C35.7774 17.4274 35.8415 17.2609 35.8415 17.0815C35.8415 16.9149 35.7774 16.7611 35.6749 16.6458L34.2653 14.8518L29.7931 20.5669L32.2919 23.7192H36.2003L44.081 13.6472L42.9021 12.148ZM45.0293 19.3752L43.2353 17.0558L45.0037 14.8005L49.463 20.5157L46.977 23.7064H43.0943L40.5443 20.4772L42.2998 18.2219L43.8119 20.1313C43.8183 20.1441 43.8279 20.1569 43.8376 20.1697C43.8472 20.1825 43.8568 20.1953 43.8632 20.2081C44.1067 20.5541 44.5808 20.631 44.9268 20.3747C45.2215 20.1313 45.2728 19.6828 45.0293 19.3752ZM49.4248 14.6083C48.8994 14.6083 48.4637 14.1854 48.4637 13.6601C48.4637 13.1347 48.8866 12.699 49.412 12.699C49.9373 12.699 50.373 13.109 50.373 13.6344C50.373 14.1598 49.9501 14.5955 49.4248 14.5955V14.6083ZM49.4248 11.8404C48.4381 11.8532 47.6436 12.6605 47.6564 13.6472C47.6692 14.6339 48.4765 15.4284 49.4632 15.4156C50.4371 15.4028 51.2316 14.6083 51.2316 13.6344C51.2059 12.6477 50.4115 11.8661 49.4248 11.8789V11.8404ZM39.6088 24.5777C40.1342 24.5777 40.5699 25.0006 40.5699 25.5259C40.5699 26.0513 40.147 26.487 39.6217 26.487C39.0963 26.487 38.6606 26.0641 38.6606 25.5388V25.5259C38.6606 25.0134 39.0835 24.5905 39.6088 24.5777ZM39.6088 27.3199C40.5955 27.3071 41.39 26.4998 41.3772 25.5131C41.3644 24.5264 40.5571 23.7319 39.5704 23.7448C38.5965 23.7576 37.802 24.5521 37.802 25.5259C37.8149 26.5254 38.6222 27.3327 39.6088 27.3199ZM29.7932 12.6991C29.2678 12.6863 28.8321 13.1092 28.8321 13.6346C28.8321 14.1599 29.255 14.5828 29.7804 14.5956C30.3057 14.5956 30.7286 14.1856 30.7286 13.6602C30.7414 13.1348 30.3185 12.6991 29.7932 12.6991ZM29.806 11.8021C30.8055 11.8149 31.6 12.635 31.5872 13.6346C31.5872 14.6213 30.7799 15.4286 29.7804 15.4157H29.7547C28.7552 15.4029 27.9607 14.5828 27.9735 13.5833C27.9864 12.5838 28.8065 11.7893 29.806 11.8021Z" fill="white"/>
<path fill-rule="evenodd" clip-rule="evenodd" d="M20.7591 1.75562H0V15.6078C0 23.2067 10.3667 25.5004 10.3667 25.5004C10.3667 25.5004 20.7335 23.2067 20.7335 15.6078L20.7591 1.75562ZM20.2465 2.281V15.6206C20.2465 17.2224 19.7211 18.7857 18.7344 20.0544C17.799 21.2333 16.6457 22.22 15.3258 22.9632C13.7753 23.8602 12.1095 24.5393 10.3667 24.9878C8.6368 24.5393 6.98376 23.8602 5.43324 22.976C4.11337 22.2328 2.94728 21.2461 2.01184 20.0672C1.02514 18.7986 0.486941 17.2352 0.499756 15.6206V2.281H20.2465ZM12.8909 6.2023V4.93369H11.571V6.12541H11.0713V4.93369H9.72578V6.12541H9.23884V4.93369H7.91897V6.2023L8.57249 7.31714C8.59812 7.35558 8.61094 7.40684 8.59812 7.44528V13.2629H9.22602V11.1742C9.31572 10.6104 9.82829 10.2003 10.4049 10.2388C10.9816 10.2003 11.4813 10.6104 11.5838 11.1742V13.2629H12.2246V9.12395V7.45809C12.2246 7.40684 12.2374 7.36839 12.263 7.32995L12.8909 6.2023ZM8.06029 11.4815V13.4037L7.54772 13.3909C7.65024 13.0321 7.53491 12.6476 7.25299 12.4042L7.17611 12.3657C7.24018 12.3273 7.27862 12.2504 7.27862 12.1735V11.4303L7.56054 11.6097C7.63742 11.6609 7.75275 11.6609 7.82964 11.6097L8.06029 11.4815ZM10.3731 10.7509C9.97937 10.7539 9.71316 11.0336 9.71316 11.1866V13.2753H11.033V11.1866C11.033 11.0336 10.7668 10.7539 10.3731 10.7509ZM10.3731 10.7509L10.3667 10.7509H10.3795L10.3731 10.7509ZM2.42183 12.8143C2.46027 13.0193 2.51152 13.2115 2.58841 13.4037H1.66578V3.53674H19.106V13.3653H18.1705C18.2602 13.1731 18.3115 12.9808 18.3371 12.7758C18.3756 12.5195 18.3884 12.2632 18.3884 11.9941C18.3884 11.8788 18.3115 11.7891 18.209 11.7507L17.6451 11.5841L18.273 11.1484C18.3371 11.11 18.3756 11.0203 18.3756 10.9434V10.2386C18.3756 10.1489 18.3243 10.0592 18.2346 10.0208L17.9911 9.89261V9.64914L18.2218 9.55944C18.3115 9.521 18.3756 9.4313 18.3756 9.32878V8.47023C18.3756 8.32927 18.2602 8.21394 18.1193 8.21394H17.3376C17.3504 7.97047 17.3376 7.727 17.2992 7.48353C17.2223 7.20162 17.1198 6.91971 16.966 6.66342L17.0044 6.36869C17.0173 6.29181 17.0044 6.21492 16.9532 6.16367C16.9019 6.09959 16.8379 6.07397 16.761 6.07397H16.3253C16.274 6.07397 16.2228 6.08678 16.1843 6.11241L15.1464 6.76593H14.6722C14.6082 6.76593 14.5441 6.79156 14.4928 6.84282C14.4544 6.89408 14.4288 6.97096 14.4288 7.03503L14.4672 7.86796C14.48 7.93203 14.5057 7.9961 14.5569 8.04736H14.2366C14.1597 8.04736 14.0956 8.07299 14.0443 8.13706L13.9034 8.29083L13.7881 8.20113L13.6087 7.80389C13.5702 7.727 13.4805 7.66293 13.378 7.66293H12.7117V7.52198L13.3652 6.40714C13.3908 6.36869 13.4036 6.33025 13.4036 6.27899V4.67721C13.4036 4.53626 13.2883 4.42093 13.1473 4.42093H7.65004C7.50908 4.42093 7.39375 4.53626 7.39375 4.67721V6.27899C7.39744 6.29374 7.40007 6.30743 7.40255 6.32037C7.40869 6.35238 7.41394 6.37976 7.4322 6.40714L8.08572 7.52198V7.67575H7.40657C7.30405 7.67575 7.21435 7.727 7.17591 7.8167L6.99651 8.20113L6.86837 8.29083L6.72741 8.13706C6.68897 8.0858 6.61208 8.06017 6.54801 8.06017H6.22766C6.27891 8.00892 6.31736 7.94485 6.31736 7.88077L6.3558 7.06066C6.3558 6.99659 6.33017 6.91971 6.27891 6.86845C6.24047 6.81719 6.16359 6.79156 6.09951 6.79156H5.62539L4.57462 6.13804C4.52336 6.11241 4.48492 6.09959 4.43366 6.09959H3.99798C3.92109 6.09959 3.85702 6.13804 3.80576 6.18929C3.76732 6.24055 3.74169 6.31744 3.75451 6.39432L3.79295 6.68905C3.65199 6.94533 3.53666 7.21443 3.45978 7.50916C3.42134 7.73982 3.40852 7.98329 3.40852 8.22676H2.62685C2.4859 8.22676 2.37057 8.34209 2.37057 8.48304V9.35441C2.37057 9.45693 2.43464 9.54663 2.53715 9.58507L2.755 9.67477V9.90543L2.51152 10.0336C2.42183 10.072 2.37057 10.1617 2.37057 10.2514V10.9818C2.38338 11.0587 2.42183 11.1356 2.4859 11.1868L3.12661 11.6225L2.56278 11.7891C2.46027 11.8276 2.38338 11.9173 2.38338 12.0326C2.37057 12.2889 2.3962 12.558 2.42183 12.8143ZM13.5188 12.417L13.5957 12.3785C13.5316 12.3273 13.506 12.2632 13.4932 12.1863V11.4431V11.4303L13.1857 11.6097C13.096 11.6609 12.9934 11.6609 12.9037 11.6097L12.6859 11.4815V13.4037H13.1857C13.0831 13.0449 13.1985 12.6604 13.4804 12.417H13.5188ZM16.6454 18.4269C16.6454 18.5679 16.7607 18.6832 16.9017 18.6832V18.6704H18.2985C17.1708 20.6438 15.0949 21.9124 13.3393 22.6941L12.0964 16.3382C12.2117 16.2229 12.3655 16.1588 12.532 16.1588C12.7243 16.146 12.9165 16.2229 13.0574 16.3638C13.1728 16.4664 13.2368 16.6073 13.2496 16.7611V18.4269C13.2496 18.5679 13.365 18.6832 13.5059 18.6832H15.018C15.159 18.6832 15.2743 18.5679 15.2743 18.4269V16.7739C15.2999 16.4279 15.5818 16.1716 15.9278 16.1588C16.12 16.146 16.3123 16.2229 16.4532 16.3638C16.5685 16.4664 16.6326 16.6073 16.6454 16.7611V18.4269ZM12.8525 22.8608L11.097 13.9165H9.68743L7.93188 22.8608V22.8993C8.73917 23.2324 9.5721 23.5144 10.405 23.745C11.238 23.5144 12.0709 23.2324 12.8782 22.9121V22.8736L12.8525 22.8608ZM8.23942 16.159C8.3932 16.159 8.55978 16.2231 8.67511 16.3256L7.43213 22.6943C5.67657 21.9254 3.60067 20.6696 2.48583 18.6834H3.86977H3.88258C4.02354 18.6834 4.12605 18.5681 4.12605 18.4271V16.7613C4.13886 16.6075 4.20294 16.4666 4.31826 16.364C4.45922 16.2359 4.63862 16.159 4.83083 16.159C5.17682 16.159 5.47155 16.4281 5.49717 16.7741V18.4271C5.49717 18.4912 5.5228 18.5553 5.57406 18.6065C5.62532 18.6578 5.68939 18.6834 5.75346 18.6834H7.27836H7.29117C7.43213 18.6834 7.53464 18.5681 7.53464 18.4271V16.7613C7.54745 16.6075 7.61153 16.4666 7.72685 16.364C7.86781 16.2359 8.04721 16.159 8.23942 16.159ZM19.0932 13.9163H11.6225L11.9813 15.7872C12.4554 15.5437 13.032 15.6206 13.4165 15.9922C13.6215 16.1844 13.7496 16.4663 13.7624 16.7482V18.1578H14.7748V16.7226C14.826 16.1203 15.3258 15.6462 15.9409 15.6334C16.274 15.6334 16.5816 15.7615 16.825 15.9794C17.0301 16.1844 17.1454 16.4535 17.1582 16.7354V18.145H18.5678C18.9394 17.3249 19.1316 16.4407 19.1316 15.5565V13.8907L19.0932 13.9163ZM3.61355 16.7611V18.1706V18.1835H2.22961C1.84518 17.3633 1.66578 16.4792 1.66578 15.5822V13.9291H9.14931L8.79051 15.8C8.32919 15.5565 7.75255 15.6462 7.38094 16.0178C7.1631 16.2101 7.04777 16.492 7.03495 16.7739V18.1578H5.997V16.7483C5.94574 16.1332 5.43317 15.6719 4.8309 15.659C4.49773 15.6462 4.17738 15.7744 3.94672 16.005C3.74169 16.1972 3.62636 16.4792 3.61355 16.7611ZM4.21575 12.8782H4.63862C4.66425 12.9295 4.68988 12.9935 4.68988 13.0448V13.1473C4.68988 13.237 4.67707 13.3139 4.65144 13.4036H3.21624C3.01121 13.2626 2.89589 12.6988 2.89589 12.2247L3.52378 12.0325C3.6263 12.0068 3.70318 11.9043 3.70318 11.789V11.5455C3.70318 11.4686 3.66474 11.3918 3.60067 11.3405L2.88307 10.8279V10.4179L3.12654 10.2897C3.21624 10.2513 3.2675 10.1616 3.2675 10.0591V9.49525C3.2675 9.39274 3.20343 9.30304 3.11373 9.25178L2.88307 9.16208V8.7264H3.56223L3.88258 9.25178V9.98219L3.65193 10.6742C3.6263 10.751 3.63911 10.8279 3.69037 10.9048C3.74163 10.9689 3.81851 11.0073 3.8954 11.0073H4.08761C4.21575 11.0073 4.31827 10.9176 4.3439 10.7895C4.36952 10.5973 4.42078 10.3922 4.48485 10.2C4.58737 10.0206 4.70269 9.85405 4.84365 9.70028C4.92054 9.59776 4.92054 9.45681 4.84365 9.36711L3.95947 8.34197C3.92103 8.08568 3.92103 7.8294 3.95947 7.57311C4.03635 7.31683 4.13887 7.06054 4.27982 6.82989C4.30545 6.79144 4.31827 6.74019 4.31827 6.67612V6.58642H4.35671L5.39466 7.23994C5.43311 7.26557 5.48436 7.27839 5.53562 7.27839H5.81753V7.66281L5.48436 7.79096C5.36904 7.81658 5.30496 7.9191 5.30496 8.03443V8.30353C5.30496 8.44448 5.42029 8.55981 5.56125 8.55981H6.44543L6.66327 8.77765C6.76579 8.86735 6.90675 8.86735 6.99645 8.77765L7.41931 8.43167L7.56027 8.12413H8.07284V9.09801C8.07284 9.09801 7.1374 9.41837 7.06052 9.45681C6.98363 9.49525 6.97082 9.77716 6.97082 9.84124C6.97273 9.8508 6.97407 9.85979 6.97535 9.86838C6.98266 9.91735 6.98803 9.95331 7.08614 10.0078C7.20147 10.0975 7.3168 10.1872 7.43213 10.2513L7.70123 9.99501L8.07284 10.0206V10.9048L7.73967 11.1098L6.63765 10.3538C6.52232 10.2769 6.38136 10.3025 6.29166 10.4051L6.12508 10.6229C6.03538 10.7382 6.04819 10.892 6.1507 10.9817L6.76579 11.5583V12.0197L6.1507 12.3016C6.06101 12.34 5.99693 12.4297 5.99693 12.5322V12.6347C5.99693 12.7757 6.11226 12.891 6.25322 12.891H6.99645C7.08614 13.0448 7.09896 13.2242 7.03489 13.3908H5.30496C5.24089 13.3139 5.20245 13.2114 5.20245 13.1089V13.0064C5.20245 12.8526 5.21526 12.7116 5.24089 12.5707L5.63813 12.0581C5.66376 12.0197 5.68939 11.9684 5.68939 11.9171V11.6865C5.68939 11.5455 5.58688 11.4174 5.43311 11.4174C5.39466 11.4174 5.36904 11.4174 5.33059 11.4302L4.68988 11.6993C4.613 11.7249 4.56174 11.8018 4.54892 11.8915L4.51048 12.1478L4.13887 12.2631C4.03635 12.2888 3.95947 12.3913 3.95947 12.5066V12.6091C3.95947 12.7501 4.0748 12.8654 4.21575 12.8654V12.8782ZM16.1329 12.8783H16.5429C16.6839 12.8783 16.7992 12.763 16.812 12.6348V12.5323C16.812 12.417 16.7351 12.3145 16.6326 12.2888L16.261 12.1735L16.2226 11.9172C16.2097 11.8404 16.1457 11.7635 16.0688 11.725L15.4281 11.4559C15.3512 11.4175 15.2487 11.4303 15.1846 11.4816C15.1077 11.5328 15.0693 11.6097 15.0693 11.6994V11.9429C15.0693 11.9941 15.0821 12.0454 15.1205 12.0838L15.5178 12.5964C15.5434 12.7373 15.5562 12.8783 15.5562 13.0321V13.1346C15.5562 13.2371 15.5178 13.3396 15.4537 13.4165H13.7494C13.6725 13.2499 13.6725 13.0449 13.775 12.8911H14.5055C14.6464 12.8911 14.7617 12.7758 14.7617 12.6348V12.5323C14.7617 12.4298 14.6977 12.3401 14.608 12.3017L14.0057 12.0326V11.5713L14.6208 10.9946C14.7105 10.9049 14.7233 10.7511 14.6464 10.6486L14.4798 10.4308C14.3901 10.3283 14.2492 10.3026 14.1338 10.3795L13.0574 11.1099L12.7115 10.9049V10.0207L13.0831 9.9951L13.3522 10.2514C13.4803 10.1873 13.5956 10.0976 13.711 10.0079C13.7966 9.95437 13.8018 9.91872 13.8086 9.87105C13.81 9.86169 13.8114 9.85185 13.8135 9.84133C13.8263 9.77726 13.8007 9.49534 13.7238 9.4569C13.6469 9.41846 12.7115 9.0981 12.7115 9.0981V8.13703H13.1984L13.3394 8.44458C13.4675 8.5599 13.6085 8.67523 13.7494 8.79056C13.8519 8.88026 13.9929 8.88026 14.0954 8.79056L14.3004 8.58553H15.1846C15.3256 8.58553 15.4409 8.4702 15.4409 8.32925V8.06015C15.4409 7.94482 15.3768 7.85512 15.2743 7.81668L14.9411 7.68853V7.30411H15.2487C15.2999 7.30411 15.3512 7.29129 15.4025 7.25285L16.4148 6.59932H16.466V6.67621C16.466 6.72747 16.4788 6.79154 16.5045 6.84279C16.6454 7.07345 16.7479 7.32974 16.8248 7.58602C16.8633 7.84231 16.8633 8.09859 16.8248 8.35488L15.9406 9.3672C15.8638 9.4569 15.8638 9.59786 15.9406 9.70037C16.0688 9.85414 16.1841 10.0207 16.2738 10.2001C16.3379 10.3923 16.3891 10.5846 16.4276 10.7896C16.4532 10.9177 16.5557 11.0074 16.6839 11.0074H16.8761C16.9017 11.0074 16.9273 11.0074 16.953 10.9946C17.0939 10.9562 17.158 10.8024 17.1196 10.6743L16.9017 9.98228V9.25187L17.2221 8.72649H17.8884V9.16217L17.6578 9.25187C17.5681 9.30313 17.504 9.39283 17.504 9.49534V10.0592C17.504 10.1617 17.5552 10.2514 17.6449 10.2898L17.8884 10.418V10.8408L17.1836 11.3406C17.1067 11.379 17.0683 11.4687 17.0683 11.5456V11.7891C17.0683 11.9044 17.1452 11.9941 17.2477 12.0326L17.8884 12.2248C17.8756 12.6989 17.7731 13.2627 17.5681 13.4037H16.12C16.0944 13.314 16.0816 13.2371 16.0816 13.1474V13.0449C16.0816 12.9936 16.1072 12.9296 16.1329 12.8783Z" fill="white"/>
<path fill-rule="evenodd" clip-rule="evenodd" d="M88.3034 10.6101C88.329 9.82844 87.7268 9.17492 86.9451 9.14929H86.8938C86.125 9.14929 85.5099 9.77718 85.5099 10.546V10.5973C85.4843 11.3662 86.0865 12.0197 86.8554 12.0581H86.9066C87.6755 12.0581 88.2906 11.4302 88.2906 10.6614C88.3034 10.6486 88.3034 10.6357 88.3034 10.6101ZM85.1126 10.6101C85.0614 9.6106 85.8303 8.76486 86.8298 8.7136C87.8293 8.66235 88.675 9.4312 88.7263 10.4307V10.6101C88.7775 11.6096 88.0087 12.4554 87.0092 12.5066C86.0096 12.5579 85.1639 11.789 85.1126 10.7895V10.6101ZM64.4047 10.6101C64.4303 9.84126 63.828 9.18773 63.0592 9.14929H63.0079C62.2391 9.14929 61.624 9.77718 61.624 10.546V10.6101C61.5984 11.3918 62.2006 12.0453 62.9823 12.0709H63.0207C63.7896 12.0709 64.4047 11.443 64.4047 10.6742V10.6101ZM61.2139 10.6101C61.1627 9.6106 61.9315 8.76486 62.931 8.7136C63.9306 8.66235 64.7763 9.4312 64.8276 10.4307V10.6101C64.8532 11.5968 64.0587 12.4169 63.072 12.4425H63.0207C62.0469 12.4682 61.2396 11.6993 61.2268 10.7254C61.2139 10.687 61.2139 10.6614 61.2139 10.6101V10.6101ZM56.6905 10.6102C56.6521 9.63633 57.4209 8.82904 58.382 8.79059H58.4717C58.9458 8.76497 59.42 8.91874 59.7916 9.22628L59.5353 9.53382C59.2406 9.26472 58.8561 9.11095 58.4589 9.12376C57.7028 9.13658 57.0878 9.77729 57.1134 10.5333V10.5718C57.0493 11.3278 57.6131 11.9813 58.3692 12.0326H58.5101C58.8818 12.0326 59.2406 11.9045 59.5353 11.6866V10.8152H58.4589V10.4564H59.9197V11.866C59.5225 12.2248 59.0099 12.4298 58.4717 12.4298C57.5106 12.4683 56.7162 11.7251 56.6777 10.764V10.6102H56.6905ZM66.647 10.7638H67.7619C68.3898 10.7766 68.7101 10.9945 68.7229 11.3789C68.7229 11.7633 68.3769 12.0068 67.8387 12.0068H66.647V10.7638ZM67.7362 9.20048C68.236 9.20048 68.5179 9.43113 68.5179 9.77712V9.78993C68.5179 10.2 68.1847 10.4178 67.7106 10.4178H66.6598V9.20048H67.7362ZM67.7619 8.84168H66.2626L66.2498 12.3528H67.8259C68.5948 12.3528 69.1074 11.994 69.1074 11.3917C69.1074 10.9048 68.7742 10.6613 68.3513 10.5332C68.6973 10.4178 68.928 10.0847 68.9151 9.71305C68.9151 9.50802 68.8383 9.30299 68.6845 9.14922C68.4282 8.93138 68.095 8.81605 67.7619 8.84168ZM70.9272 8.84158H70.5299V12.3783H70.9272V8.84158ZM75.1046 8.84158H72.5546V12.3783H75.1303V12.0067H72.9518V10.7765H74.874V10.4049H72.9518V9.20038H75.1046V8.84158ZM77.9363 10.6357C78.4745 10.6357 78.8461 10.3666 78.8461 9.90533C78.8461 9.46965 78.513 9.21336 77.9363 9.21336H76.8471V10.6357H77.9363ZM76.4627 8.84175H77.9748C78.3464 8.82893 78.7052 8.94426 78.9871 9.18773C79.1665 9.37995 79.269 9.62342 79.2562 9.89252C79.2562 10.4307 78.8333 10.8792 78.2951 10.9177L79.3843 12.3657H78.8974L77.8722 10.9945H76.8599V12.3657H76.4627V8.84175ZM81.0631 8.84158H80.6915V12.3783H81.076V9.46947L83.3697 12.3783H83.6773V8.84158H83.2928V11.6735L81.0631 8.84158ZM92.3911 11.9941V9.2006V9.18779H93.1984H93.3266C94.0954 9.2006 94.6849 9.84131 94.672 10.5974V10.7255C94.6208 11.4815 93.9673 12.0454 93.2112 11.9941H92.3911ZM93.2112 8.8418H91.9939L91.9682 12.3785H93.1984H93.3266C94.3004 12.3657 95.0821 11.584 95.0821 10.6102V10.482C95.018 9.50814 94.1851 8.77773 93.2112 8.8418ZM96.3632 8.84158H98.9261V9.20038H96.7605V10.4049H98.6954V10.7765H96.7605V12.0067H98.9517V12.3783H96.3632V8.84158ZM102.527 8.84158H102.13V12.3783H104.513V12.0067H102.527V8.84158ZM107.948 11.0717L107.14 9.27768L106.333 11.0717H107.948ZM106.961 8.79074H107.332L108.947 12.3531H108.511L108.076 11.4177H106.154L105.718 12.3531H105.308L106.961 8.79074ZM95.0176 14.0186L94.3513 13.7239L93.7746 14.6209H94.3641L95.0176 14.0186ZM95.5302 14.9028H92.8648V18.4395H95.5558V17.7476H93.6337V17.0043H95.2995V16.3124H93.6337V15.5948H95.5302V14.9028ZM56.6134 16.6715C56.5878 15.6848 57.3694 14.8518 58.3561 14.839H58.4715C58.984 14.8262 59.4838 15.0184 59.8426 15.39L59.3428 15.9539C59.0994 15.7104 58.779 15.5694 58.433 15.5566C57.8564 15.5694 57.3951 16.0436 57.4079 16.6202V16.6587C57.3694 17.2353 57.8051 17.735 58.3818 17.7735H58.4587C58.8175 17.7735 59.1506 17.6197 59.3813 17.3634L59.881 17.8632C59.5222 18.2861 58.984 18.5167 58.433 18.4911C57.4463 18.5039 56.639 17.7222 56.6262 16.7355V16.6715H56.6134ZM61.3034 14.9027H60.5218V18.4394H61.3034V14.9027ZM76.3858 16.7866C76.3601 17.3505 75.8732 17.7733 75.3222 17.7349H74.7456V15.6077H75.3222H75.4247C75.9757 15.6333 76.4114 16.1075 76.3858 16.6713V16.7866ZM75.3094 14.9029H73.9383V18.4268H75.3094H75.4375C76.4114 18.414 77.1931 17.6324 77.1931 16.6585V16.5303C77.1162 15.5693 76.2833 14.8389 75.3094 14.9029ZM80.8324 17.7349C81.3834 17.7733 81.8703 17.3505 81.8959 16.7866V16.6713C81.9216 16.1075 81.4859 15.6333 80.9349 15.6077H80.8324H80.2301V17.7349H80.8324ZM79.4612 14.9029H80.8324C81.8062 14.8389 82.6392 15.5693 82.7161 16.5303V16.6585C82.7161 17.6324 81.9344 18.414 80.9605 18.4268H80.8324H79.4612V14.9029ZM86.1246 14.9027H83.4592V18.4394H86.1502V17.7475H84.2281V17.0042H85.8939V16.3123H84.2281V15.5947H86.1246V14.9027ZM88.4056 14.9027H89.2513L90.1739 16.3892L91.1094 14.9027H91.9423V18.4394H91.1734V16.1329L90.1739 17.645H90.1611L89.1744 16.1457V18.4394H88.4056V14.9027ZM97.2988 16.6326L96.1199 14.9027H97.0297L97.7729 16.0432L98.5161 14.9027H99.4003L98.2214 16.6326L99.4516 18.4394H98.5417L97.7473 17.2221L96.9528 18.4394H96.0686L97.2988 16.6326ZM100.041 14.9027H100.823V18.4394H100.041V14.9027ZM101.566 16.6713C101.553 15.6846 102.335 14.8645 103.334 14.8389H103.411C103.937 14.8132 104.449 15.0054 104.821 15.3771L104.321 15.9537C104.077 15.7102 103.757 15.5693 103.424 15.5565C102.847 15.5693 102.386 16.0434 102.399 16.6328V16.6713C102.373 17.2479 102.809 17.7477 103.398 17.7861H103.437C103.796 17.7861 104.129 17.6324 104.359 17.3761L104.859 17.8758C104.5 18.2987 103.962 18.5294 103.411 18.5037C102.424 18.5294 101.604 17.7477 101.579 16.761C101.566 16.7226 101.566 16.6969 101.566 16.6713V16.6713ZM107.114 15.5563C107.717 15.582 108.178 16.0817 108.152 16.6712C108.165 16.6968 108.165 16.7096 108.152 16.7096C108.152 17.2991 107.678 17.7732 107.089 17.7732H107.05C106.448 17.7476 105.987 17.2478 106.012 16.6584V16.6071C106.012 16.0305 106.486 15.5563 107.076 15.5563H107.114ZM107.05 14.8387C106.038 14.8387 105.218 15.6588 105.218 16.6712C105.256 17.6322 106.038 18.4139 107.012 18.4524C108.05 18.5036 108.934 17.6963 108.985 16.6584V16.5815C108.947 15.582 108.114 14.8003 107.114 14.8387H107.05ZM71.4908 15.8257L71.9649 16.9534L71.0167 16.979L71.4908 15.8257ZM71.8624 14.8775H71.1448L69.6199 18.4398H70.4144L70.7348 17.6453H72.2212L72.5416 18.4398H73.3745L71.8624 14.8775ZM67.5438 17.7349C68.0948 17.7734 68.5817 17.3505 68.6074 16.7867V16.6713C68.633 16.1075 68.1973 15.6334 67.6463 15.6078H67.5438H66.9415V17.7349H67.5438ZM66.1599 14.903H67.5438C68.5177 14.8389 69.3506 15.5693 69.4275 16.5304V16.6585C69.4275 17.6324 68.6458 18.4141 67.6719 18.4269H67.5438H66.1599V14.903ZM62.2006 16.9146V14.9027H62.9822V16.9018C62.9822 17.4784 63.277 17.7859 63.7511 17.7859C64.2252 17.7859 64.5071 17.4912 64.5071 16.9402V14.9027H65.2888V16.9018C65.2888 17.9653 64.6865 18.5035 63.7383 18.5035C62.79 18.5035 62.2006 17.9653 62.2006 16.9146Z" fill="white"/>
</svg>
