<svg width="10" height="16" viewBox="0 0 10 16" fill="none" xmlns="http://www.w3.org/2000/svg">
<path fill-rule="evenodd" clip-rule="evenodd" d="M8.24526 15.8878C7.95772 15.8894 7.68135 15.7764 7.4772 15.5736L0.98661 9.07361C0.781818 8.87019 0.666626 8.5933 0.666626 8.30444C0.666626 8.01558 0.781818 7.73869 0.98661 7.53527L7.4772 1.03527C7.90139 0.610475 8.58912 0.610475 9.01331 1.03527C9.43749 1.46007 9.43749 2.14881 9.01331 2.57361L3.27995 8.30444L9.01331 14.0353C9.2181 14.2387 9.33329 14.5156 9.33329 14.8044C9.33329 15.0933 9.2181 15.3702 9.01331 15.5736C8.80916 15.7764 8.53279 15.8894 8.24526 15.8878Z" fill="#EC0000"/>
</svg>
