<svg width="110" height="28" viewBox="0 0 110 28" fill="none" xmlns="http://www.w3.org/2000/svg">
<path fill-rule="evenodd" clip-rule="evenodd" d="M41.4817 1.76837C41.4817 1.24298 41.046 0.820112 40.5206 0.820112C39.9952 0.832926 39.5723 1.2558 39.5723 1.76837V1.78118C39.5723 2.30656 40.008 2.72944 40.5334 2.72944C41.0588 2.72944 41.4817 2.29375 41.4817 1.76837ZM42.3274 1.80681C42.3146 2.78069 41.5073 3.57518 40.5206 3.56236C39.5467 3.57518 38.7394 2.79351 38.7138 1.80681C38.7138 0.807298 39.5211 0 40.5206 0C41.5201 0 42.3274 0.807298 42.3274 1.80681ZM35.1386 7.90644L36.9326 10.1874L35.1642 12.4299L30.7049 6.74034L32.832 4.03654C33.1011 3.70337 33.5112 3.52397 33.9341 3.54959H36.3431C36.8301 3.51115 37.2914 3.74181 37.5605 4.13905L39.598 6.74034L37.8424 8.99565L36.356 7.11196C36.3431 7.07351 36.3303 7.04788 36.3047 7.02226C36.0612 6.7019 35.5999 6.63783 35.2796 6.8813C34.9592 7.12477 34.8951 7.58608 35.1386 7.90644ZM37.8551 15.4285C37.6116 15.4413 37.3682 15.3131 37.24 15.1081L36.0996 13.6217L43.5703 4.04941C43.8394 3.74187 44.2366 3.54965 44.6595 3.54965H47.3376C47.6964 3.60091 48.0296 3.78031 48.2731 4.06222L48.6063 4.49791L50.3618 6.76603L45.9025 12.4427L44.4929 10.6487C44.2494 10.3796 44.2622 9.9824 44.5185 9.72612L45.9153 7.93213C46.1331 7.61177 46.0819 7.1889 45.7871 6.93261C45.4668 6.67633 45.0055 6.72759 44.7492 7.03513L38.4702 15.0697C38.3292 15.2747 38.1114 15.4156 37.8551 15.4285ZM43.8138 12.148C43.6729 11.9558 43.455 11.8404 43.2116 11.8404C42.9809 11.8404 42.7631 11.9429 42.6349 12.1223L36.2919 20.2722C36.0228 20.5926 35.5487 20.6438 35.2283 20.3875C34.9336 20.1312 34.8951 19.6956 35.1386 19.388L36.561 17.5556C36.6891 17.4274 36.7532 17.2609 36.7532 17.0815C36.7532 16.9149 36.6891 16.7611 36.5866 16.6458L35.177 14.8518L30.7049 20.5669L33.2037 23.7192H37.112L44.9928 13.6472L43.8138 12.148ZM45.941 19.3752L44.147 17.0558L45.9154 14.8005L50.3748 20.5157L47.8888 23.7064H44.0061L41.456 20.4772L43.2116 18.2219L44.7237 20.1313C44.7301 20.1441 44.7397 20.1569 44.7493 20.1697C44.7589 20.1825 44.7685 20.1953 44.7749 20.2081C45.0184 20.5541 45.4925 20.631 45.8385 20.3747C46.1332 20.1313 46.1845 19.6828 45.941 19.3752ZM50.3365 14.6083C49.8111 14.6083 49.3754 14.1854 49.3754 13.6601C49.3754 13.1347 49.7983 12.699 50.3237 12.699C50.8491 12.699 51.2848 13.109 51.2848 13.6344C51.2848 14.1598 50.8619 14.5955 50.3365 14.5955V14.6083ZM50.3365 11.8404C49.3498 11.8532 48.5553 12.6605 48.5681 13.6472C48.581 14.6339 49.3883 15.4284 50.3749 15.4156C51.3488 15.4028 52.1433 14.6083 52.1433 13.6344C52.1177 12.6477 51.3232 11.8661 50.3365 11.8789V11.8404ZM40.5206 24.5777C41.046 24.5777 41.4817 25.0006 41.4817 25.5259C41.4817 26.0513 41.0588 26.487 40.5334 26.487C40.008 26.487 39.5723 26.0641 39.5723 25.5388V25.5259C39.5723 25.0134 39.9952 24.5905 40.5206 24.5777ZM40.5206 27.3199C41.5073 27.3071 42.3018 26.4998 42.289 25.5131C42.2761 24.5264 41.4688 23.7319 40.4821 23.7448C39.5083 23.7576 38.7138 24.5521 38.7138 25.5259C38.7266 26.5254 39.5339 27.3327 40.5206 27.3199ZM30.7049 12.6991C30.1795 12.6863 29.7438 13.1092 29.7438 13.6346C29.7438 14.1599 30.1667 14.5828 30.6921 14.5956C31.2175 14.5956 31.6403 14.1856 31.6403 13.6602C31.6532 13.1348 31.2303 12.6991 30.7049 12.6991ZM30.7177 11.8021C31.7172 11.8149 32.5117 12.635 32.4989 13.6346C32.4989 14.6213 31.6916 15.4286 30.6921 15.4157H30.6665C29.667 15.4029 28.8725 14.5828 28.8853 13.5833C28.8981 12.5838 29.7182 11.7893 30.7177 11.8021Z" fill="white"/>
<path fill-rule="evenodd" clip-rule="evenodd" d="M21.6707 1.75562H0.911621V15.6078C0.911621 23.2067 11.2783 25.5004 11.2783 25.5004C11.2783 25.5004 21.6451 23.2067 21.6451 15.6078L21.6707 1.75562ZM21.1581 2.281V15.6206C21.1581 17.2224 20.6327 18.7857 19.6461 20.0544C18.7106 21.2333 17.5573 22.22 16.2375 22.9632C14.6869 23.8602 13.0211 24.5393 11.2783 24.9878C9.54842 24.5393 7.89539 23.8602 6.34486 22.976C5.02499 22.2328 3.8589 21.2461 2.92346 20.0672C1.93676 18.7986 1.39856 17.2352 1.41138 15.6206V2.281H21.1581ZM13.8025 6.2023V4.93369H12.4826V6.12541H11.9829V4.93369H10.6374V6.12541H10.1505V4.93369H8.83059V6.2023L9.48412 7.31714C9.50974 7.35558 9.52256 7.40684 9.50974 7.44528V13.2629H10.1376V11.1742C10.2273 10.6104 10.7399 10.2003 11.3166 10.2388C11.8932 10.2003 12.3929 10.6104 12.4955 11.1742V13.2629H13.1362V9.12395V7.45809C13.1362 7.40684 13.149 7.36839 13.1746 7.32995L13.8025 6.2023ZM8.97191 11.4815V13.4037L8.45934 13.3909C8.56186 13.0321 8.44653 12.6476 8.16462 12.4042L8.08773 12.3657C8.1518 12.3273 8.19024 12.2504 8.19024 12.1735V11.4303L8.47216 11.6097C8.54904 11.6609 8.66437 11.6609 8.74126 11.6097L8.97191 11.4815ZM11.2847 10.7509C10.891 10.7539 10.6248 11.0336 10.6248 11.1866V13.2753H11.9446V11.1866C11.9446 11.0336 11.6784 10.7539 11.2847 10.7509ZM11.2847 10.7509L11.2783 10.7509H11.2911L11.2847 10.7509ZM3.33345 12.8143C3.37189 13.0193 3.42315 13.2115 3.50003 13.4037H2.57741V3.53674H20.0176V13.3653H19.0822C19.1719 13.1731 19.2231 12.9808 19.2487 12.7758C19.2872 12.5195 19.3 12.2632 19.3 11.9941C19.3 11.8788 19.2231 11.7891 19.1206 11.7507L18.5568 11.5841L19.1847 11.1484C19.2487 11.11 19.2872 11.0203 19.2872 10.9434V10.2386C19.2872 10.1489 19.2359 10.0592 19.1462 10.0208L18.9028 9.89261V9.64914L19.1334 9.55944C19.2231 9.521 19.2872 9.4313 19.2872 9.32878V8.47023C19.2872 8.32927 19.1719 8.21394 19.0309 8.21394H18.2492C18.262 7.97047 18.2492 7.727 18.2108 7.48353C18.1339 7.20162 18.0314 6.91971 17.8776 6.66342L17.9161 6.36869C17.9289 6.29181 17.9161 6.21492 17.8648 6.16367C17.8135 6.09959 17.7495 6.07397 17.6726 6.07397H17.2369C17.1856 6.07397 17.1344 6.08678 17.0959 6.11241L16.058 6.76593H15.5839C15.5198 6.76593 15.4557 6.79156 15.4045 6.84282C15.366 6.89408 15.3404 6.97096 15.3404 7.03503L15.3788 7.86796C15.3917 7.93203 15.4173 7.9961 15.4685 8.04736H15.1482C15.0713 8.04736 15.0072 8.07299 14.956 8.13706L14.815 8.29083L14.6997 8.20113L14.5203 7.80389C14.4818 7.727 14.3921 7.66293 14.2896 7.66293H13.6233V7.52198L14.2768 6.40714C14.3024 6.36869 14.3153 6.33025 14.3153 6.27899V4.67721C14.3153 4.53626 14.1999 4.42093 14.059 4.42093H8.56166C8.4207 4.42093 8.30537 4.53626 8.30537 4.67721V6.27899C8.30906 6.29374 8.31169 6.30743 8.31417 6.32037C8.32031 6.35238 8.32556 6.37976 8.34382 6.40714L8.99734 7.52198V7.67575H8.31819C8.21567 7.67575 8.12597 7.727 8.08753 7.8167L7.90813 8.20113L7.77999 8.29083L7.63903 8.13706C7.60059 8.0858 7.52371 8.06017 7.45963 8.06017H7.13928C7.19053 8.00892 7.22898 7.94485 7.22898 7.88077L7.26742 7.06066C7.26742 6.99659 7.24179 6.91971 7.19053 6.86845C7.15209 6.81719 7.07521 6.79156 7.01114 6.79156H6.53701L5.48624 6.13804C5.43498 6.11241 5.39654 6.09959 5.34528 6.09959H4.9096C4.83271 6.09959 4.76864 6.13804 4.71738 6.18929C4.67894 6.24055 4.65331 6.31744 4.66613 6.39432L4.70457 6.68905C4.56361 6.94533 4.44829 7.21443 4.3714 7.50916C4.33296 7.73982 4.32014 7.98329 4.32014 8.22676H3.53847C3.39752 8.22676 3.28219 8.34209 3.28219 8.48304V9.35441C3.28219 9.45693 3.34626 9.54663 3.44877 9.58507L3.66662 9.67477V9.90543L3.42315 10.0336C3.33345 10.072 3.28219 10.1617 3.28219 10.2514V10.9818C3.295 11.0587 3.33345 11.1356 3.39752 11.1868L4.03823 11.6225L3.4744 11.7891C3.37189 11.8276 3.295 11.9173 3.295 12.0326C3.28219 12.2889 3.30782 12.558 3.33345 12.8143ZM14.4305 12.417L14.5073 12.3785C14.4433 12.3273 14.4176 12.2632 14.4048 12.1863V11.4431V11.4303L14.0973 11.6097C14.0076 11.6609 13.9051 11.6609 13.8154 11.6097L13.5975 11.4815V13.4037H14.0973C13.9948 13.0449 14.1101 12.6604 14.392 12.417H14.4305ZM17.557 18.4269C17.557 18.5679 17.6724 18.6832 17.8133 18.6832V18.6704H19.2101C18.0824 20.6438 16.0065 21.9124 14.251 22.6941L13.008 16.3382C13.1233 16.2229 13.2771 16.1588 13.4437 16.1588C13.6359 16.146 13.8281 16.2229 13.9691 16.3638C14.0844 16.4664 14.1485 16.6073 14.1613 16.7611V18.4269C14.1613 18.5679 14.2766 18.6832 14.4176 18.6832H15.9296C16.0706 18.6832 16.1859 18.5679 16.1859 18.4269V16.7739C16.2115 16.4279 16.4935 16.1716 16.8394 16.1588C17.0317 16.146 17.2239 16.2229 17.3648 16.3638C17.4802 16.4664 17.5442 16.6073 17.557 16.7611V18.4269ZM13.7642 22.8608L12.0086 13.9165H10.599L8.8435 22.8608V22.8993C9.65079 23.2324 10.4837 23.5144 11.3166 23.745C12.1496 23.5144 12.9825 23.2324 13.7898 22.9121V22.8736L13.7642 22.8608ZM9.15104 16.159C9.30482 16.159 9.4714 16.2231 9.58673 16.3256L8.34375 22.6943C6.5882 21.9254 4.51229 20.6696 3.39745 18.6834H4.78139H4.7942C4.93516 18.6834 5.03767 18.5681 5.03767 18.4271V16.7613C5.05049 16.6075 5.11456 16.4666 5.22989 16.364C5.37084 16.2359 5.55024 16.159 5.74246 16.159C6.08844 16.159 6.38317 16.4281 6.4088 16.7741V18.4271C6.4088 18.4912 6.43442 18.5553 6.48568 18.6065C6.53694 18.6578 6.60101 18.6834 6.66508 18.6834H8.18998H8.20279C8.34375 18.6834 8.44626 18.5681 8.44626 18.4271V16.7613C8.45908 16.6075 8.52315 16.4666 8.63848 16.364C8.77943 16.2359 8.95883 16.159 9.15104 16.159ZM20.0048 13.9163H12.5341L12.8929 15.7872C13.367 15.5437 13.9436 15.6206 14.3281 15.9922C14.5331 16.1844 14.6612 16.4663 14.6741 16.7482V18.1578H15.6864V16.7226C15.7376 16.1203 16.2374 15.6462 16.8525 15.6334C17.1857 15.6334 17.4932 15.7615 17.7367 15.9794C17.9417 16.1844 18.057 16.4535 18.0698 16.7354V18.145H19.4794C19.851 17.3249 20.0432 16.4407 20.0432 15.5565V13.8907L20.0048 13.9163ZM4.52517 16.7611V18.1706V18.1835H3.14123C2.75681 17.3633 2.57741 16.4792 2.57741 15.5822V13.9291H10.0609L9.70213 15.8C9.24082 15.5565 8.66417 15.6462 8.29256 16.0178C8.07472 16.2101 7.95939 16.492 7.94657 16.7739V18.1578H6.90862V16.7483C6.85736 16.1332 6.34479 15.6719 5.74252 15.659C5.40935 15.6462 5.089 15.7744 4.85834 16.005C4.65331 16.1972 4.53799 16.4792 4.52517 16.7611ZM5.12737 12.8782H5.55024C5.57587 12.9295 5.6015 12.9935 5.6015 13.0448V13.1473C5.6015 13.237 5.58869 13.3139 5.56306 13.4036H4.12786C3.92283 13.2626 3.80751 12.6988 3.80751 12.2247L4.4354 12.0325C4.53792 12.0068 4.6148 11.9043 4.6148 11.789V11.5455C4.6148 11.4686 4.57636 11.3918 4.51229 11.3405L3.79469 10.8279V10.4179L4.03816 10.2897C4.12786 10.2513 4.17912 10.1616 4.17912 10.0591V9.49525C4.17912 9.39274 4.11505 9.30304 4.02535 9.25178L3.79469 9.16208V8.7264H4.47385L4.7942 9.25178V9.98219L4.56355 10.6742C4.53792 10.751 4.55073 10.8279 4.60199 10.9048C4.65325 10.9689 4.73013 11.0073 4.80702 11.0073H4.99923C5.12737 11.0073 5.22989 10.9176 5.25552 10.7895C5.28115 10.5973 5.3324 10.3922 5.39647 10.2C5.49899 10.0206 5.61432 9.85405 5.75527 9.70028C5.83216 9.59776 5.83216 9.45681 5.75527 9.36711L4.87109 8.34197C4.83265 8.08568 4.83265 7.8294 4.87109 7.57311C4.94797 7.31683 5.05049 7.06054 5.19145 6.82989C5.21707 6.79144 5.22989 6.74019 5.22989 6.67612V6.58642H5.26833L6.30628 7.23994C6.34473 7.26557 6.39599 7.27839 6.44724 7.27839H6.72916V7.66281L6.39599 7.79096C6.28066 7.81658 6.21659 7.9191 6.21659 8.03443V8.30353C6.21659 8.44448 6.33191 8.55981 6.47287 8.55981H7.35705L7.5749 8.77765C7.67741 8.86735 7.81837 8.86735 7.90807 8.77765L8.33094 8.43167L8.47189 8.12413H8.98446V9.09801C8.98446 9.09801 8.04902 9.41837 7.97214 9.45681C7.89525 9.49525 7.88244 9.77716 7.88244 9.84124C7.88435 9.8508 7.88569 9.85979 7.88697 9.86838C7.89428 9.91735 7.89965 9.95331 7.99777 10.0078C8.11309 10.0975 8.22842 10.1872 8.34375 10.2513L8.61285 9.99501L8.98446 10.0206V10.9048L8.65129 11.1098L7.54927 10.3538C7.43394 10.2769 7.29298 10.3025 7.20328 10.4051L7.0367 10.6229C6.947 10.7382 6.95981 10.892 7.06233 10.9817L7.67741 11.5583V12.0197L7.06233 12.3016C6.97263 12.34 6.90855 12.4297 6.90855 12.5322V12.6347C6.90855 12.7757 7.02388 12.891 7.16484 12.891H7.90807C7.99777 13.0448 8.01058 13.2242 7.94651 13.3908H6.21659C6.15251 13.3139 6.11407 13.2114 6.11407 13.1089V13.0064C6.11407 12.8526 6.12689 12.7116 6.15251 12.5707L6.54976 12.0581C6.57538 12.0197 6.60101 11.9684 6.60101 11.9171V11.6865C6.60101 11.5455 6.4985 11.4174 6.34473 11.4174C6.30628 11.4174 6.28066 11.4174 6.24221 11.4302L5.6015 11.6993C5.52462 11.7249 5.47336 11.8018 5.46054 11.8915L5.4221 12.1478L5.05049 12.2631C4.94797 12.2888 4.87109 12.3913 4.87109 12.5066V12.6091C4.87109 12.7501 4.98642 12.8654 5.12737 12.8654V12.8782ZM17.0445 12.8783H17.4545C17.5955 12.8783 17.7108 12.763 17.7236 12.6348V12.5323C17.7236 12.417 17.6468 12.3145 17.5442 12.2888L17.1726 12.1735L17.1342 11.9172C17.1214 11.8404 17.0573 11.7635 16.9804 11.725L16.3397 11.4559C16.2628 11.4175 16.1603 11.4303 16.0962 11.4816C16.0193 11.5328 15.9809 11.6097 15.9809 11.6994V11.9429C15.9809 11.9941 15.9937 12.0454 16.0322 12.0838L16.4294 12.5964C16.455 12.7373 16.4678 12.8783 16.4678 13.0321V13.1346C16.4678 13.2371 16.4294 13.3396 16.3653 13.4165H14.661C14.5841 13.2499 14.5841 13.0449 14.6867 12.8911H15.4171C15.558 12.8911 15.6734 12.7758 15.6734 12.6348V12.5323C15.6734 12.4298 15.6093 12.3401 15.5196 12.3017L14.9173 12.0326V11.5713L15.5324 10.9946C15.6221 10.9049 15.6349 10.7511 15.558 10.6486L15.3914 10.4308C15.3017 10.3283 15.1608 10.3026 15.0455 10.3795L13.9691 11.1099L13.6231 10.9049V10.0207L13.9947 9.9951L14.2638 10.2514C14.3919 10.1873 14.5073 10.0976 14.6226 10.0079C14.7083 9.95437 14.7134 9.91872 14.7202 9.87105C14.7216 9.86169 14.723 9.85185 14.7251 9.84133C14.7379 9.77726 14.7123 9.49534 14.6354 9.4569C14.5585 9.41846 13.6231 9.0981 13.6231 9.0981V8.13703H14.11L14.251 8.44458C14.3791 8.5599 14.5201 8.67523 14.661 8.79056C14.7635 8.88026 14.9045 8.88026 15.007 8.79056L15.212 8.58553H16.0962C16.2372 8.58553 16.3525 8.4702 16.3525 8.32925V8.06015C16.3525 7.94482 16.2884 7.85512 16.1859 7.81668L15.8528 7.68853V7.30411H16.1603C16.2116 7.30411 16.2628 7.29129 16.3141 7.25285L17.3264 6.59932H17.3777V6.67621C17.3777 6.72747 17.3905 6.79154 17.4161 6.84279C17.5571 7.07345 17.6596 7.32974 17.7365 7.58602C17.7749 7.84231 17.7749 8.09859 17.7365 8.35488L16.8523 9.3672C16.7754 9.4569 16.7754 9.59786 16.8523 9.70037C16.9804 9.85414 17.0957 10.0207 17.1854 10.2001C17.2495 10.3923 17.3008 10.5846 17.3392 10.7896C17.3648 10.9177 17.4674 11.0074 17.5955 11.0074H17.7877C17.8133 11.0074 17.839 11.0074 17.8646 10.9946C18.0056 10.9562 18.0696 10.8024 18.0312 10.6743L17.8133 9.98228V9.25187L18.1337 8.72649H18.8V9.16217L18.5694 9.25187C18.4797 9.30313 18.4156 9.39283 18.4156 9.49534V10.0592C18.4156 10.1617 18.4669 10.2514 18.5566 10.2898L18.8 10.418V10.8408L18.0953 11.3406C18.0184 11.379 17.9799 11.4687 17.9799 11.5456V11.7891C17.9799 11.9044 18.0568 11.9941 18.1593 12.0326L18.8 12.2248C18.7872 12.6989 18.6847 13.2627 18.4797 13.4037H17.0317C17.006 13.314 16.9932 13.2371 16.9932 13.1474V13.0449C16.9932 12.9936 17.0189 12.9296 17.0445 12.8783Z" fill="white"/>
<path fill-rule="evenodd" clip-rule="evenodd" d="M89.2149 10.6102C89.2405 9.82848 88.6383 9.17496 87.8566 9.14933H87.8053C87.0365 9.14933 86.4214 9.77723 86.4214 10.5461V10.5973C86.3958 11.3662 86.998 12.0197 87.7669 12.0582H87.8182C88.587 12.0582 89.2021 11.4303 89.2021 10.6614C89.2149 10.6486 89.2149 10.6358 89.2149 10.6102ZM86.0242 10.6102C85.9729 9.61064 86.7418 8.7649 87.7413 8.71364C88.7408 8.66239 89.5865 9.43124 89.6378 10.4308V10.6102C89.689 11.6097 88.9202 12.4554 87.9207 12.5067C86.9212 12.5579 86.0754 11.7891 86.0242 10.7896V10.6102ZM65.3162 10.6102C65.3418 9.8413 64.7396 9.18777 63.9707 9.14933H63.9194C63.1506 9.14933 62.5355 9.77723 62.5355 10.5461V10.6102C62.5099 11.3918 63.1121 12.0453 63.8938 12.071H63.9323C64.7011 12.071 65.3162 11.4431 65.3162 10.6742V10.6102ZM62.1254 10.6102C62.0742 9.61064 62.843 8.7649 63.8426 8.71364C64.8421 8.66239 65.6878 9.43124 65.7391 10.4308V10.6102C65.7647 11.5968 64.9702 12.417 63.9835 12.4426H63.9323C62.9584 12.4682 62.1511 11.6994 62.1383 10.7255C62.1254 10.687 62.1254 10.6614 62.1254 10.6102V10.6102ZM57.602 10.6103C57.5636 9.63637 58.3324 8.82908 59.2935 8.79064H59.3832C59.8573 8.76501 60.3315 8.91878 60.7031 9.22632L60.4468 9.53386C60.1521 9.26476 59.7676 9.11099 59.3704 9.12381C58.6144 9.13662 57.9993 9.77733 58.0249 10.5334V10.5718C57.9608 11.3279 58.5247 11.9814 59.2807 12.0326H59.4217C59.7933 12.0326 60.1521 11.9045 60.4468 11.6867V10.8153H59.3704V10.4565H60.8312V11.8661C60.434 12.2249 59.9214 12.4299 59.3832 12.4299C58.4221 12.4683 57.6277 11.7251 57.5892 10.764V10.6103H57.602ZM67.5585 10.7639H68.6734C69.3013 10.7767 69.6216 10.9945 69.6344 11.3789C69.6344 11.7634 69.2885 12.0068 68.7503 12.0068H67.5585V10.7639ZM68.6477 9.20052C69.1475 9.20052 69.4294 9.43117 69.4294 9.77716V9.78997C69.4294 10.2 69.0962 10.4179 68.6221 10.4179H67.5713V9.20052H68.6477ZM68.6734 8.84172H67.1741L67.1613 12.3528H68.7374C69.5063 12.3528 70.0189 11.994 70.0189 11.3918C70.0189 10.9048 69.6857 10.6613 69.2628 10.5332C69.6088 10.4179 69.8395 10.0847 69.8267 9.71309C69.8267 9.50806 69.7498 9.30303 69.596 9.14926C69.3397 8.93142 69.0065 8.81609 68.6734 8.84172ZM71.8387 8.84162H71.4414V12.3784H71.8387V8.84162ZM76.0161 8.84162H73.4661V12.3784H76.0418V12.0067H73.8634V10.7766H75.7855V10.405H73.8634V9.20042H76.0161V8.84162ZM78.8478 10.6358C79.386 10.6358 79.7576 10.3667 79.7576 9.90537C79.7576 9.46969 79.4245 9.2134 78.8478 9.2134H77.7586V10.6358H78.8478ZM77.3742 8.84179H78.8863C79.2579 8.82898 79.6167 8.9443 79.8986 9.18777C80.078 9.37999 80.1805 9.62346 80.1677 9.89256C80.1677 10.4308 79.7448 10.8793 79.2066 10.9177L80.2958 12.3657H79.8089L78.7838 10.9946H77.7714V12.3657H77.3742V8.84179ZM81.9747 8.84162H81.603V12.3784H81.9875V9.46952L84.2812 12.3784H84.5888V8.84162H84.2043V11.6736L81.9747 8.84162ZM93.3026 11.9941V9.20064V9.18783H94.1099H94.2381C95.0069 9.20064 95.5964 9.84135 95.5835 10.5974V10.7255C95.5323 11.4816 94.8788 12.0454 94.1227 11.9941H93.3026ZM94.1227 8.84184H92.9054L92.8797 12.3786H94.1099H94.2381C95.2119 12.3658 95.9936 11.5841 95.9936 10.6102V10.4821C95.9295 9.50818 95.0966 8.77777 94.1227 8.84184ZM97.2747 8.84162H99.8376V9.20042H97.672V10.405H99.6069V10.7766H97.672V12.0067H99.8632V12.3784H97.2747V8.84162ZM103.438 8.84162H103.041V12.3784H105.425V12.0067H103.438V8.84162ZM108.859 11.0717L108.052 9.27772L107.244 11.0717H108.859ZM107.872 8.79078H108.244L109.859 12.3531H109.423L108.987 11.4177H107.065L106.629 12.3531H106.219L107.872 8.79078ZM95.9291 14.0187L95.2628 13.724L94.6861 14.621H95.2756L95.9291 14.0187ZM96.4417 14.9029H93.7763V18.4396H96.4673V17.7476H94.5452V17.0044H96.211V16.3124H94.5452V15.5948H96.4417V14.9029ZM57.5249 16.6715C57.4993 15.6849 58.281 14.8519 59.2677 14.8391H59.383C59.8956 14.8263 60.3953 15.0185 60.7541 15.3901L60.2544 15.9539C60.0109 15.7105 59.6905 15.5695 59.3445 15.5567C58.7679 15.5695 58.3066 16.0437 58.3194 16.6203V16.6587C58.281 17.2354 58.7166 17.7351 59.2933 17.7736H59.3702C59.729 17.7736 60.0621 17.6198 60.2928 17.3635L60.7926 17.8633C60.4338 18.2861 59.8956 18.5168 59.3445 18.4912C58.3578 18.504 57.5505 17.7223 57.5377 16.7356V16.6715H57.5249ZM62.2149 14.9028H61.4333V18.4395H62.2149V14.9028ZM77.2973 16.7867C77.2717 17.3505 76.7847 17.7734 76.2337 17.735H75.6571V15.6078H76.2337H76.3362C76.8872 15.6334 77.3229 16.1075 77.2973 16.6714V16.7867ZM76.2209 14.903H74.8498V18.4269H76.2209H76.349C77.3229 18.4141 78.1046 17.6324 78.1046 16.6586V16.5304C78.0277 15.5694 77.1948 14.8389 76.2209 14.903ZM81.7439 17.735C82.2949 17.7734 82.7818 17.3505 82.8075 16.7867V16.6714C82.8331 16.1075 82.3974 15.6334 81.8464 15.6078H81.7439H81.1416V17.735H81.7439ZM80.3727 14.903H81.7439C82.7178 14.8389 83.5507 15.5694 83.6276 16.5304V16.6586C83.6276 17.6324 82.8459 18.4141 81.872 18.4269H81.7439H80.3727V14.903ZM87.0361 14.9028H84.3707V18.4395H87.0617V17.7475H85.1396V17.0043H86.8055V16.3124H85.1396V15.5948H87.0361V14.9028ZM89.3171 14.9028H90.1628L91.0854 16.3892L92.0209 14.9028H92.8538V18.4395H92.085V16.133L91.0854 17.645H91.0726L90.0859 16.1458V18.4395H89.3171V14.9028ZM98.2103 16.6327L97.0314 14.9028H97.9412L98.6844 16.0433L99.4276 14.9028H100.312L99.1329 16.6327L100.363 18.4395H99.4533L98.6588 17.2222L97.8643 18.4395H96.9801L98.2103 16.6327ZM100.953 14.9028H101.734V18.4395H100.953V14.9028ZM102.477 16.6714C102.465 15.6847 103.246 14.8646 104.246 14.8389H104.323C104.848 14.8133 105.361 15.0055 105.732 15.3771L105.232 15.9538C104.989 15.7103 104.669 15.5693 104.335 15.5565C103.759 15.5693 103.298 16.0435 103.31 16.6329V16.6714C103.285 17.248 103.72 17.7478 104.31 17.7862H104.348C104.707 17.7862 105.04 17.6324 105.271 17.3762L105.771 17.8759C105.412 18.2988 104.874 18.5294 104.323 18.5038C103.336 18.5294 102.516 17.7478 102.49 16.7611C102.477 16.7227 102.477 16.697 102.477 16.6714V16.6714ZM108.026 15.5564C108.628 15.582 109.089 16.0818 109.064 16.6713C109.077 16.6969 109.077 16.7097 109.064 16.7097C109.064 17.2992 108.59 17.7733 108 17.7733H107.962C107.36 17.7476 106.898 17.2479 106.924 16.6584V16.6072C106.924 16.0305 107.398 15.5564 107.987 15.5564H108.026ZM107.962 14.8388C106.949 14.8388 106.129 15.6589 106.129 16.6713C106.168 17.6323 106.95 18.414 107.923 18.4524C108.961 18.5037 109.846 17.6964 109.897 16.6584V16.5816C109.858 15.582 109.025 14.8004 108.026 14.8388H107.962ZM72.4023 15.8258L72.8765 16.9534L71.9282 16.979L72.4023 15.8258ZM72.7739 14.8775H72.0563L70.5314 18.4399H71.3259L71.6463 17.6454H73.1327L73.4531 18.4399H74.286L72.7739 14.8775ZM68.4553 17.735C69.0063 17.7734 69.4933 17.3505 69.5189 16.7867V16.6714C69.5445 16.1075 69.1088 15.6334 68.5578 15.6078H68.4553H67.853V17.735H68.4553ZM67.0714 14.903H68.4553C69.4292 14.8389 70.2621 15.5694 70.339 16.5304V16.6586C70.339 17.6324 69.5573 18.4141 68.5834 18.4269H68.4553H67.0714V14.903ZM63.1121 16.9146V14.9028H63.8938V16.9018C63.8938 17.4784 64.1885 17.786 64.6626 17.786C65.1367 17.786 65.4186 17.4913 65.4186 16.9403V14.9028H66.2003V16.9018C66.2003 17.9654 65.598 18.5036 64.6498 18.5036C63.7015 18.5036 63.1121 17.9654 63.1121 16.9146Z" fill="white"/>
</svg>
