<svg width="41" height="40" viewBox="0 0 41 40" fill="none" xmlns="http://www.w3.org/2000/svg">
<rect x="0.5" width="40" height="40" rx="20" fill="#CB2833"/>
<path fill-rule="evenodd" clip-rule="evenodd" d="M24.3889 11C24.696 11 24.9444 11.2516 24.9444 11.5625V14.375H29.9444C30.2515 14.375 30.5 14.6266 30.5 14.9375V25.603C30.5 27.4762 28.995 29 27.145 29H13.855C12.005 29 10.5 27.4762 10.5 25.603V14.9375C10.5 14.6266 10.7485 14.375 11.0556 14.375H16.0556V11.5625C16.0556 11.2516 16.304 11 16.6111 11H24.3889ZM29.3889 15.5H11.6111V25.603C11.6111 26.856 12.6175 27.875 13.855 27.875H27.145C28.3825 27.875 29.3889 26.856 29.3889 25.603V15.5ZM20.5 17.7516C20.8071 17.7516 21.0556 18.0032 21.0556 18.3141V21.125H23.8317C24.1388 21.125 24.3873 21.3766 24.3873 21.6875C24.3873 21.9984 24.1388 22.25 23.8317 22.25H21.0556V25.0609C21.0556 25.3718 20.8071 25.6234 20.5 25.6234C20.1929 25.6234 19.9444 25.3718 19.9444 25.0609V22.25H17.1683C16.8612 22.25 16.6127 21.9984 16.6127 21.6875C16.6127 21.3766 16.8612 21.125 17.1683 21.125H19.9444V18.3141C19.9444 18.0032 20.1929 17.7516 20.5 17.7516ZM23.8333 12.125H17.1667V14.375H23.8333V12.125Z" fill="white"/>
</svg>
