<svg width="40" height="40" viewBox="0 0 40 40" fill="none" xmlns="http://www.w3.org/2000/svg">
<rect width="40" height="40" rx="20" fill="#F2F2F2"/>
<path fill-rule="evenodd" clip-rule="evenodd" d="M23.8889 11C24.196 11 24.4444 11.2516 24.4444 11.5625V14.375H29.4444C29.7515 14.375 30 14.6266 30 14.9375V25.603C30 27.4762 28.495 29 26.645 29H13.355C11.505 29 10 27.4762 10 25.603V14.9375C10 14.6266 10.2485 14.375 10.5556 14.375H15.5556V11.5625C15.5556 11.2516 15.804 11 16.1111 11H23.8889ZM28.8889 15.5H11.1111V25.603C11.1111 26.856 12.1175 27.875 13.355 27.875H26.645C27.8825 27.875 28.8889 26.856 28.8889 25.603V15.5ZM20 17.7516C20.3071 17.7516 20.5556 18.0032 20.5556 18.3141V21.125H23.3317C23.6388 21.125 23.8873 21.3766 23.8873 21.6875C23.8873 21.9984 23.6388 22.25 23.3317 22.25H20.5556V25.0609C20.5556 25.3718 20.3071 25.6234 20 25.6234C19.6929 25.6234 19.4444 25.3718 19.4444 25.0609V22.25H16.6683C16.3612 22.25 16.1127 21.9984 16.1127 21.6875C16.1127 21.3766 16.3612 21.125 16.6683 21.125H19.4444V18.3141C19.4444 18.0032 19.6929 17.7516 20 17.7516ZM23.3333 12.125H16.6667V14.375H23.3333V12.125Z" fill="black"/>
</svg>
