<svg width="32" height="32" viewBox="0 0 32 32" fill="none" xmlns="http://www.w3.org/2000/svg">
<path fill-rule="evenodd" clip-rule="evenodd" d="M16 2.6665C23.3522 2.6665 29.3333 8.64762 29.3333 15.9998C29.3333 23.3521 23.3522 29.3332 16 29.3332C8.64775 29.3332 2.66663 23.3521 2.66663 15.9998C2.66663 8.64762 8.64775 2.6665 16 2.6665ZM16 3.99984C9.38342 3.99984 3.99996 9.3833 3.99996 15.9998C3.99996 22.6164 9.38342 27.9998 16 27.9998C22.6165 27.9998 28 22.6164 28 15.9998C28 9.3833 22.6165 3.99984 16 3.99984ZM16 21.3332C16.3684 21.3332 16.6666 21.6313 16.6666 21.9998V23.3332C16.6666 23.7017 16.3684 23.9998 16 23.9998C15.6315 23.9998 15.3333 23.7017 15.3333 23.3332V21.9998C15.3333 21.6313 15.6315 21.3332 16 21.3332ZM13.0006 9.00374C14.0592 8.11442 15.4583 7.74398 16.8405 7.98617C18.7194 8.31559 20.2623 9.85856 20.5931 11.7388C20.9414 13.7231 19.9993 15.7043 18.2493 16.6685C17.2584 17.2147 16.6666 18.1353 16.6666 19.13V19.464C16.6666 19.8325 16.3684 20.1307 16 20.1307C15.6315 20.1307 15.3333 19.8325 15.3333 19.464V19.13C15.3333 17.6418 16.1829 16.285 17.6061 15.5005C18.8763 14.8006 19.5332 13.4146 19.2793 11.9692C19.0449 10.632 17.9472 9.53369 16.61 9.29997C15.6054 9.12354 14.6263 9.38135 13.858 10.0252C13.1009 10.6606 12.6666 11.5916 12.6666 12.5793C12.6666 12.9478 12.3684 13.2459 12 13.2459C11.6315 13.2459 11.3333 12.9478 11.3333 12.5793C11.3333 11.1971 11.9407 9.89372 13.0006 9.00374Z" fill="#63B468"/>
</svg>
