<svg width="40" height="40" viewBox="0 0 40 40" fill="none" xmlns="http://www.w3.org/2000/svg">
<path fill-rule="evenodd" clip-rule="evenodd" d="M24.63 0.000488281C26.8654 0.000488281 28.7 1.74153 28.7 3.91346L28.7055 14.755H34.59C37.9985 14.755 40.5778 17.7511 39.8879 20.9821L36.7098 35.8288C36.1913 38.2484 33.9759 39.9703 31.416 39.9727L26.756 39.9745C26.6761 39.9745 26.601 39.9745 26.5302 39.9745L25.56 39.9747C22.2882 39.9747 19.1441 39.321 16.2359 38.2323C15.4247 37.9286 14.6774 37.6072 14.0008 37.2816L14 39.0011C14 39.5531 13.5523 40.0005 13 40.0005H5.458C2.44372 40.0005 0 37.5583 0 34.546V14.0172C0 13.4653 0.447715 13.0179 1 13.0179H13C13.5523 13.0179 14 13.4653 14 14.0172L14.0004 15.5786C14.501 15.1941 16.5028 13.6958 17.3281 12.9423C19.3946 11.0555 20.5606 9.12585 20.5606 7.08792L20.56 3.93249V3.91396C20.56 1.84027 22.2316 0.159656 24.3278 0.011157L24.63 0.000488281ZM12 15.0166H2V34.546C2 36.4545 3.54829 38.0018 5.458 38.0018H12V15.0166ZM24.63 1.9992C23.4767 1.9992 22.56 2.86915 22.56 3.91396L22.558 3.89849L22.5606 3.91396V7.08792C22.5606 9.80171 21.1177 12.1895 18.6771 14.4179C17.6399 15.3649 15.2339 17.1463 15.2648 17.1169C14.4902 17.8514 14.0586 18.8424 14.0586 19.8737C14.0586 19.9912 14.0383 20.104 14.001 20.2088L13.9986 35.0377C14.1173 35.1018 14.2538 35.1737 14.4076 35.2523C15.1454 35.6291 15.9936 36.0072 16.9376 36.3606C19.635 37.3705 22.5475 37.976 25.56 37.976L29.3514 37.9746C29.4652 37.9745 29.5727 37.9745 29.6745 37.9745L31.415 37.974C33.0473 37.9724 34.4365 36.8928 34.7541 35.4105L37.932 20.5645C38.35 18.6072 36.7543 16.7537 34.59 16.7537H27.706C27.1539 16.7537 26.7063 16.3066 26.706 15.7548L26.7 3.91396C26.7 2.86915 25.7833 1.9992 24.63 1.9992Z" fill="#284940"/>
</svg>
