<svg width="21" height="20" viewBox="0 0 21 20" fill="none" xmlns="http://www.w3.org/2000/svg">
<path fill-rule="evenodd" clip-rule="evenodd" d="M5.63213 0C5.97766 0 6.25725 0.279592 6.25725 0.625114C6.25725 0.970637 5.97766 1.25023 5.63213 1.25023H4.96673C2.91801 1.25023 1.25023 2.91801 1.25023 4.96673V15.0333C1.25023 17.082 2.91801 18.7498 4.96673 18.7498H15.0369C17.0856 18.7498 18.7534 17.082 18.7534 15.0333V14.374C18.7534 14.0284 19.033 13.7489 19.3785 13.7489C19.7241 13.7489 20.0037 14.0284 20.0037 14.374V15.0333C20.0037 17.7718 17.7755 20 15.0369 20H4.96673C2.22819 20 0 17.7718 0 15.0333V4.96673C0 2.22819 2.22819 0 4.96673 0H5.63213ZM19.3468 0.031744C19.4281 0.031744 19.5091 0.0482265 19.5855 0.079818C19.7386 0.143154 19.8605 0.265094 19.9238 0.418167C19.9554 0.494552 19.9719 0.575514 19.9719 0.656858V7.21079C19.9719 7.55631 19.6923 7.83591 19.3468 7.83591C19.0013 7.83591 18.7217 7.55631 18.7217 7.21079V2.16592L10.4694 10.4182C10.3474 10.5403 10.1874 10.6013 10.0275 10.6013C9.86753 10.6013 9.70759 10.5403 9.5855 10.4182C9.34131 10.174 9.34131 9.7784 9.5855 9.53422L17.8377 1.28197H12.7929C12.4473 1.28197 12.1678 1.00238 12.1678 0.656858C12.1678 0.311336 12.4473 0.031744 12.7929 0.031744H19.3468Z" fill="#61A64C"/>
</svg>
