<svg width="40" height="40" viewBox="0 0 40 40" fill="none" xmlns="http://www.w3.org/2000/svg">
<mask id="mask0" mask-type="alpha" maskUnits="userSpaceOnUse" x="0" y="0" width="40" height="40">
<rect width="40" height="40" rx="20" fill="white"/>
</mask>
<g mask="url(#mask0)">
<rect width="40" height="40" fill="#D9D9D9"/>
</g>
<path fill-rule="evenodd" clip-rule="evenodd" d="M19.5 10.5C19.5 10.2236 19.7236 10 20 10C25.5142 10 30 14.4858 30 20C30 25.5142 25.5142 30 20 30C19.7236 30 19.5 29.7764 19.5 29.5C19.5 29.2236 19.7236 29 20 29C24.9624 29 29 24.9624 29 20C29 15.0376 24.9624 11 20 11C19.7236 11 19.5 10.7764 19.5 10.5ZM14.5 12H17.5C17.7764 12 18 12.2236 18 12.5C18 12.7764 17.7764 13 17.5 13H14.5C14.2236 13 14 12.7764 14 12.5C14 12.2236 14.2236 12 14.5 12ZM17.5 27H14.5C14.2236 27 14 27.2236 14 27.5C14 27.7764 14.2236 28 14.5 28H17.5C17.7764 28 18 27.7764 18 27.5C18 27.2236 17.7764 27 17.5 27ZM11.5 15H17.5C17.7764 15 18 15.2236 18 15.5C18 15.7764 17.7764 16 17.5 16H11.5C11.2236 16 11 15.7764 11 15.5C11 15.2236 11.2236 15 11.5 15ZM17.5 18H10.5C10.2236 18 10 18.2236 10 18.5C10 18.7764 10.2236 19 10.5 19H17.5C17.7764 19 18 18.7764 18 18.5C18 18.2236 17.7764 18 17.5 18ZM10.5 21H17.5C17.7764 21 18 21.2236 18 21.5C18 21.7764 17.7764 22 17.5 22H10.5C10.2236 22 10 21.7764 10 21.5C10 21.2236 10.2236 21 10.5 21ZM17.5 24H11.5C11.2236 24 11 24.2236 11 24.5C11 24.7764 11.2236 25 11.5 25H17.5C17.7764 25 18 24.7764 18 24.5C18 24.2236 17.7764 24 17.5 24ZM20 14.5C20 14.2236 20.2236 14 20.5 14C20.7764 14 21 14.2236 21 14.5V20H26.5C26.7764 20 27 20.2236 27 20.5C27 20.7764 26.7764 21 26.5 21H20.5C20.2236 21 20 20.7764 20 20.5V14.5Z" fill="#444444"/>
</svg>
