<svg width="32" height="32" viewBox="0 0 32 32" fill="none" xmlns="http://www.w3.org/2000/svg">
<path fill-rule="evenodd" clip-rule="evenodd" d="M18 2.6665C19.1055 2.6665 20 3.56098 20 4.6665V13.3332H27.3333C28.3738 13.3332 29.2273 14.1255 29.3241 15.1404L29.3333 15.3332V27.3332C29.3333 28.4387 28.4388 29.3332 27.3333 29.3332H4.66663C3.5611 29.3332 2.66663 28.4387 2.66663 27.3332V4.6665C2.66663 3.56098 3.5611 2.6665 4.66663 2.6665H18ZM27.3333 14.6665H20V27.9998H27.3333C27.6614 27.9998 27.933 27.7648 27.9893 27.4533L28 27.3332V15.3332C28 14.964 27.7024 14.6665 27.3333 14.6665ZM18 3.99984H4.66663C4.29748 3.99984 3.99996 4.29736 3.99996 4.6665V27.3332C3.99996 27.7023 4.29748 27.9998 4.66663 27.9998H6.66663V21.9998C6.66663 21.6726 6.90246 21.4004 7.21346 21.3439L7.33329 21.3332H15.3333C15.7015 21.3332 16 21.6316 16 21.9998V27.9998H18.6666V4.6665C18.6666 4.29736 18.3691 3.99984 18 3.99984ZM14.6666 22.6665H7.99996V27.9998H14.6666V22.6665ZM25.9973 21.3332C26.3655 21.3332 26.664 21.7063 26.664 22.1665C26.664 22.6267 26.3655 22.9998 25.9973 22.9998H22.0026C21.6344 22.9998 21.336 22.6267 21.336 22.1665C21.336 21.7063 21.6344 21.3332 22.0026 21.3332H25.9973ZM15.3333 17.337C15.7015 17.337 16 17.7101 16 18.1704C16 18.6306 15.7015 19.0037 15.3333 19.0037H7.33329C6.9651 19.0037 6.66663 18.6306 6.66663 18.1704C6.66663 17.7101 6.9651 17.337 7.33329 17.337H15.3333ZM25.9973 17.337C26.3655 17.337 26.664 17.7101 26.664 18.1704C26.664 18.6306 26.3655 19.0037 25.9973 19.0037H22.0026C21.6344 19.0037 21.336 18.6306 21.336 18.1704C21.336 17.7101 21.6344 17.337 22.0026 17.337H25.9973ZM12.9333 5.3329C13.3015 5.3329 13.6 5.63138 13.6 5.99957V7.7329H15.3333C15.7015 7.7329 16 8.03138 16 8.39957V11.5996C16 11.9678 15.7015 12.2662 15.3333 12.2662H13.6V13.9996C13.6 14.3678 13.3015 14.6662 12.9333 14.6662H9.73329C9.3651 14.6662 9.06663 14.3678 9.06663 13.9996V12.2662H7.33329C6.9651 12.2662 6.66663 11.9678 6.66663 11.5996V8.39957C6.66663 8.03138 6.9651 7.7329 7.33329 7.7329H9.06663V5.99957C9.06663 5.63138 9.3651 5.3329 9.73329 5.3329H12.9333ZM12.2666 6.66624H10.4V8.39957C10.4 8.76776 10.1015 9.06624 9.73329 9.06624H7.99996V10.9329H9.73329C10.1015 10.9329 10.4 11.2314 10.4 11.5996V13.3329H12.2666V11.5996C12.2666 11.2314 12.5651 10.9329 12.9333 10.9329H14.6666V9.06624H12.9333C12.5651 9.06624 12.2666 8.76776 12.2666 8.39957V6.66624Z" fill="black"/>
</svg>
