<svg width="381" height="243" viewBox="0 0 381 243" fill="none" xmlns="http://www.w3.org/2000/svg">
<path d="M277.551 39.5458C257.292 20.1279 226.104 5.63192 196.461 1.85252C166.816 -1.91962 139.502 5.12433 125.448 20.1758C107.848 39.03 111.037 67.8787 93.5546 86.8024C83.5148 97.6739 67.3746 104.44 51.556 111.013C35.7374 117.586 19.6086 124.356 9.56881 135.228C-0.471019 146.099 -3.40395 162.047 7.60691 177.069C15.8564 188.323 30.7712 197.556 46.2602 203.923C76.3741 216.312 108.638 219.146 138.868 220.023C169.099 220.9 199.27 220.205 230.595 226.728C254.038 231.612 277.741 240.474 300.747 242.324C330.612 244.72 355.536 234.415 368.12 218.134C386.023 194.984 387.129 148.11 350.804 119.562C336.867 108.611 322.166 103.065 312.552 89.4359C300.638 72.5466 294.254 55.5669 277.551 39.5458Z" fill="url(#paint0_linear)"/>
<defs>
<linearGradient id="paint0_linear" x1="282.02" y1="108.269" x2="119.756" y2="298.082" gradientUnits="userSpaceOnUse">
<stop stop-color="#D8D8D8" stop-opacity="0"/>
<stop offset="0.637482" stop-color="#D8D8D8" stop-opacity="0.52"/>
</linearGradient>
</defs>
</svg>
