<svg width="21" height="24" viewBox="0 0 21 24" fill="none" xmlns="http://www.w3.org/2000/svg">
<path fill-rule="evenodd" clip-rule="evenodd" d="M10.3893 0.333496C10.3937 0.333496 10.3977 0.335988 10.4021 0.33606C10.4065 0.335917 10.41 0.333496 10.4167 0.333496C10.6149 0.333496 10.7815 0.438599 10.887 0.58963L16.6355 6.33816C16.7553 6.44539 16.834 6.59692 16.8333 6.7701C16.8333 6.78555 16.8256 6.79851 16.8244 6.81368L16.8333 9.08122C16.8345 9.40365 16.5747 9.66569 16.2523 9.66683C15.9811 9.66455 15.6678 9.4082 15.6667 9.08578L15.66 7.34987L10.4417 7.3335C10.1216 7.33236 9.86182 7.07316 9.86068 6.75301L9.83604 1.50016H1.66667V22.5002H9.25C9.57243 22.5002 9.83333 22.7611 9.83333 23.0835C9.83333 23.4059 9.57243 23.6668 9.25 23.6668H1.08333C0.760905 23.6668 0.5 23.4059 0.5 23.0835V0.916829C0.5 0.594401 0.760905 0.333496 1.08333 0.333496H10.3893ZM15.0833 12.0002C17.9784 12.0002 20.3333 14.3551 20.3333 17.2502C20.3333 20.1452 17.9784 22.5002 15.0833 22.5002C12.1883 22.5002 9.83333 20.1452 9.83333 17.2502C9.83333 14.3551 12.1883 12.0002 15.0833 12.0002ZM15.0833 13.1668C12.832 13.1668 11 14.9989 11 17.2502C11 19.5015 12.832 21.3335 15.0833 21.3335C17.3346 21.3335 19.1667 19.5015 19.1667 17.2502C19.1667 14.9989 17.3346 13.1668 15.0833 13.1668ZM16.5189 15.4227C16.7034 15.1584 17.068 15.0929 17.3301 15.2774C17.5955 15.4614 17.6605 15.8249 17.4759 16.0892L14.9956 19.653C14.8874 19.8097 14.7085 19.9031 14.5171 19.9031C14.3257 19.9031 14.1468 19.8097 14.0386 19.6524L12.6657 17.6763C12.4811 17.4119 12.5472 17.0485 12.8115 16.8645C13.0747 16.6805 13.4393 16.746 13.6227 17.0109L14.5171 18.2978L16.5189 15.4227ZM11.0069 2.35928L11.0251 6.16854L14.8282 6.18057L11.0069 2.35928Z" fill="#284940"/>
</svg>
