<svg width="32" height="32" viewBox="0 0 32 32" fill="none" xmlns="http://www.w3.org/2000/svg">
<path fill-rule="evenodd" clip-rule="evenodd" d="M15.3021 2.66675C15.3071 2.66675 15.3117 2.6696 15.3167 2.66968C15.3217 2.66951 15.3258 2.66675 15.3333 2.66675C15.5599 2.66675 15.7503 2.78687 15.8708 2.95947L22.4406 9.52922C22.5775 9.65177 22.6674 9.82495 22.6667 10.0229C22.6667 10.0405 22.6579 10.0553 22.6565 10.0727L22.6667 12.6641C22.668 13.0326 22.3711 13.3321 22.0026 13.3334C21.6927 13.3308 21.3346 13.0378 21.3333 12.6694L21.3257 10.6855L15.362 10.6667C14.9961 10.6654 14.6992 10.3692 14.6979 10.0033L14.6698 4.00008H5.33333V28.0001H14C14.3685 28.0001 14.6667 28.2983 14.6667 28.6667C14.6667 29.0352 14.3685 29.3334 14 29.3334H4.66667C4.29818 29.3334 4 29.0352 4 28.6667V3.33341C4 2.96493 4.29818 2.66675 4.66667 2.66675H15.3021ZM20.6667 16.0001C23.9753 16.0001 26.6667 18.6915 26.6667 22.0001C26.6667 25.3087 23.9753 28.0001 20.6667 28.0001C17.3581 28.0001 14.6667 25.3087 14.6667 22.0001C14.6667 18.6915 17.3581 16.0001 20.6667 16.0001ZM20.6667 17.3334C18.0937 17.3334 16 19.4272 16 22.0001C16 24.573 18.0937 26.6667 20.6667 26.6667C23.2396 26.6667 25.3333 24.573 25.3333 22.0001C25.3333 19.4272 23.2396 17.3334 20.6667 17.3334ZM22.3073 19.9115C22.5182 19.6095 22.9349 19.5346 23.2344 19.7455C23.5378 19.9558 23.612 20.3712 23.401 20.6733L20.5664 24.7462C20.4427 24.9252 20.2383 25.032 20.0195 25.032C19.8008 25.032 19.5964 24.9252 19.4727 24.7455L17.9036 22.4871C17.6927 22.185 17.7682 21.7696 18.0703 21.5593C18.3711 21.349 18.7878 21.4239 18.9974 21.7266L20.0195 23.1973L22.3073 19.9115ZM16.0079 4.98193L16.0286 9.33537L20.3751 9.34912L16.0079 4.98193Z" fill="black"/>
</svg>
