<svg width="32" height="32" viewBox="0 0 32 32" fill="none" xmlns="http://www.w3.org/2000/svg">
<path fill-rule="evenodd" clip-rule="evenodd" d="M16 2.66626C21.161 2.66626 25.3333 7.02258 25.3333 12.3809C25.3333 15.4492 24.1933 17.8304 21.7291 21.0459C21.5833 21.2362 21.4344 21.4282 21.2379 21.6801C20.9958 21.99 20.8665 22.1555 20.7595 22.2931C20.383 22.7772 20.119 23.1256 19.8771 23.4621C19.2776 24.2959 18.8846 24.9686 18.6498 25.5948C18.4831 26.0396 18.4 26.4553 18.4 26.8569C18.4 28.2187 17.3322 29.3329 16 29.3329C14.6677 29.3329 13.6 28.2187 13.6 26.8569C13.6 26.4553 13.5168 26.0396 13.3501 25.5948C13.1153 24.9686 12.7223 24.2959 12.1228 23.4621C11.8809 23.1256 11.6169 22.7772 11.2404 22.2931C11.1334 22.1555 11.0041 21.99 10.762 21.6801C10.5655 21.4282 10.4166 21.2362 10.2708 21.0459C7.80657 17.8304 6.66663 15.4492 6.66663 12.3809C6.66663 7.02258 10.8389 2.66626 16 2.66626ZM16 3.99959C11.5885 3.99959 7.99996 7.74639 7.99996 12.3809C7.99996 15.085 9.02771 17.2318 11.3291 20.2349C11.4722 20.4216 11.6189 20.6108 11.8132 20.8599C12.0545 21.1687 12.1849 21.3356 12.2929 21.4745C12.6788 21.9707 12.9517 22.3309 13.2054 22.6838C13.8677 23.6049 14.3152 24.3709 14.5986 25.1268C14.8189 25.7144 14.9333 26.2866 14.9333 26.8569C14.9333 27.4947 15.4171 27.9996 16 27.9996C16.5828 27.9996 17.0666 27.4947 17.0666 26.8569C17.0666 26.2866 17.181 25.7144 17.4013 25.1268C17.6847 24.3709 18.1323 23.6049 18.7945 22.6838C19.0482 22.3309 19.3211 21.9707 19.707 21.4745C19.815 21.3356 19.9454 21.1687 20.1867 20.8599C20.3811 20.6108 20.5277 20.4216 20.6708 20.2349C22.9722 17.2318 24 15.085 24 12.3809C24 7.74639 20.4114 3.99959 16 3.99959ZM16.0002 8.66679C17.8404 8.66679 19.3336 10.1599 19.3336 12.0001C19.3336 13.8403 17.8404 15.3335 16.0002 15.3335C14.16 15.3335 12.6669 13.8403 12.6669 12.0001C12.6669 10.1599 14.16 8.66679 16.0002 8.66679ZM16.0002 10.0001C14.8964 10.0001 14.0002 10.8963 14.0002 12.0001C14.0002 13.1039 14.8964 14.0001 16.0002 14.0001C17.104 14.0001 18.0002 13.1039 18.0002 12.0001C18.0002 10.8963 17.104 10.0001 16.0002 10.0001Z" fill="black"/>
</svg>
