<svg width="40" height="36" viewBox="0 0 40 36" fill="none" xmlns="http://www.w3.org/2000/svg">
<path fill-rule="evenodd" clip-rule="evenodd" d="M30.5556 26.6167C31.0026 26.1916 31.7057 26.2102 32.1267 26.6606C32.5477 27.1109 32.5282 27.821 32.0833 28.2473C26.7491 33.3471 20.6662 35.8181 20.4102 35.9211C20.2778 35.9737 20.1389 36 20 36C19.8611 36 19.7222 35.9737 19.5898 35.9211C19.3338 35.8181 13.2509 33.3471 7.91667 28.2473C7.47179 27.821 7.45226 27.1109 7.87326 26.6606C8.29644 26.2102 8.9974 26.1916 9.44444 26.6167C13.7044 30.6887 18.5742 33.026 20 33.6583C21.4258 33.0238 26.3064 30.6788 30.5556 26.6167ZM14.4661 10.1919C14.9262 10.2007 15.3364 10.4977 15.4905 10.9371L20.2626 24.4285L25.7595 15.3016C25.9679 14.9532 26.3411 14.7132 26.7535 14.7636C27.1571 14.78 27.5217 15.0178 27.7018 15.3827L30.6858 21.4128H38.8889C39.503 21.4128 40 21.9147 40 22.5349C40 23.1551 39.503 23.657 38.8889 23.657H30C29.579 23.657 29.1949 23.417 29.0061 23.0368L26.6124 18.2022L20.9484 27.6062C20.7465 27.9427 20.3863 28.1454 20 28.1454C19.9631 28.1454 19.924 28.1432 19.8872 28.1399C19.4618 28.0961 19.0972 27.8079 18.954 27.4002L14.3859 14.4842L11.0308 22.9513C10.8637 23.3776 10.4536 23.657 10 23.657H1.11111C0.496962 23.657 0 23.1551 0 22.5349C0 21.9147 0.496962 21.4128 1.11111 21.4128H9.24696L13.4136 10.8976C13.5807 10.4703 13.9909 10.1919 14.4444 10.1919H14.4661ZM29.388 0C35.178 0 39.8893 4.75683 39.8893 10.6029C39.8893 13.3095 39.362 15.9591 38.3203 18.475C38.1424 18.9057 37.73 19.1654 37.296 19.1654C37.1528 19.1654 37.0074 19.138 36.8685 19.0788C36.3021 18.8399 36.0352 18.1824 36.2717 17.6115C37.1962 15.3696 37.6671 13.0114 37.6671 10.6029C37.6671 5.99397 33.954 2.24418 29.388 2.24418C24.8242 2.24418 21.1111 5.99397 21.1111 10.6029C21.1111 11.2231 20.6141 11.725 20 11.725C19.3859 11.725 18.8889 11.2231 18.8889 10.6029C18.8889 5.99397 15.1758 2.24418 10.612 2.24418C6.04601 2.24418 2.3329 5.99397 2.3329 10.6029C2.3329 13.0103 2.80382 15.3685 3.7283 17.6104C3.96484 18.1814 3.69792 18.8388 3.13151 19.0777C2.99262 19.1369 2.84722 19.1643 2.70399 19.1643C2.26997 19.1643 1.85764 18.9046 1.67969 18.4739C0.638021 15.958 0.110677 13.3095 0.110677 10.6029C0.110677 4.75683 4.82205 0 10.612 0C14.7418 0 18.2865 2.44128 20 5.95055C21.7135 2.44128 25.2582 0 29.388 0Z" fill="#284940"/>
</svg>
