<svg width="32" height="32" viewBox="0 0 32 32" fill="none" xmlns="http://www.w3.org/2000/svg">
<path fill-rule="evenodd" clip-rule="evenodd" d="M22 5.33325C22.3685 5.33325 22.6667 5.63143 22.6667 5.99992V10.6666H28.668C29.0365 10.6666 29.3347 10.9648 29.3347 11.3333V22.6659C29.3347 24.8717 27.5404 26.6666 25.3347 26.6666H6.66799C4.46226 26.6666 2.66669 24.8717 2.66669 22.6659V5.99992C2.66669 5.63143 2.96486 5.33325 3.33335 5.33325H22ZM21.3334 6.66659H4.00002V22.6659C4.00002 24.1366 5.19663 25.3333 6.66799 25.3333H22.3555C21.7201 24.6249 21.3334 23.69 21.3334 22.6659V6.66659ZM28.0013 11.9999H22.6667V22.6659C22.6667 24.1366 23.8633 25.3333 25.3347 25.3333C26.8047 25.3333 28.0013 24.1366 28.0013 22.6659V11.9999ZM18 21.3333C18.3685 21.3333 18.6667 21.6314 18.6667 21.9999C18.6667 22.3684 18.3685 22.6666 18 22.6666H7.33335C6.96486 22.6666 6.66669 22.3684 6.66669 21.9999C6.66669 21.6314 6.96486 21.3333 7.33335 21.3333H18ZM18 17.3333C18.3685 17.3333 18.6667 17.6314 18.6667 17.9999C18.6667 18.3684 18.3685 18.6666 18 18.6666H7.33335C6.96486 18.6666 6.66669 18.3684 6.66669 17.9999C6.66669 17.6314 6.96486 17.3333 7.33335 17.3333H18ZM18 9.33325C18.3685 9.33325 18.6667 9.63143 18.6667 9.99992V13.9999C18.6667 14.3684 18.3685 14.6666 18 14.6666H7.33335C6.96486 14.6666 6.66669 14.3684 6.66669 13.9999V9.99992C6.66669 9.63143 6.96486 9.33325 7.33335 9.33325H18ZM17.3334 10.6666H8.00002V13.3333H17.3334V10.6666Z" fill="black"/>
</svg>
