<svg width="22" height="15" viewBox="0 0 22 15" fill="none" xmlns="http://www.w3.org/2000/svg">
<path fill-rule="evenodd" clip-rule="evenodd" d="M17.6868 0C18.824 0 19.8585 0.42891 20.6292 1.12967C20.6686 1.1527 20.7052 1.18232 20.7381 1.21716C20.7603 1.24066 20.7799 1.26559 20.797 1.29159C21.542 2.046 21.9999 3.07156 21.9999 4.20107V10.8311C21.9999 13.1337 20.0838 15 17.7198 15H4.27998C1.91592 15 -0.00012207 13.1337 -0.00012207 10.8311V4.20107C-0.00012207 1.88128 1.93132 0 4.31298 0H17.6868ZM13.7719 8.18786L12.4602 9.36533C11.628 10.0873 10.3729 10.0873 9.53389 9.35934L8.22788 8.18786L2.19569 13.1707C2.7099 13.6057 3.36897 13.8825 4.0931 13.9233L4.27998 13.9286H17.7198C18.5177 13.9286 19.2469 13.6425 19.8052 13.1698L13.7719 8.18786ZM1.7219 2.35031C1.33088 2.86872 1.09988 3.50869 1.09988 4.20107V10.8311C1.09988 11.378 1.24535 11.8918 1.50066 12.3377L7.41278 7.45607L1.7219 2.35031ZM20.2811 2.35465L14.5881 7.45714L20.4997 12.3367C20.7261 11.9408 20.866 11.4915 20.8945 11.0131L20.8999 10.8311V4.20107C20.8999 3.51062 20.6702 2.87229 20.2811 2.35465ZM17.6868 1.07143H4.31298C3.64696 1.07143 3.02818 1.26895 2.51503 1.60711L10.2723 8.56524C10.6875 8.92542 11.3134 8.92542 11.7219 8.57109L19.488 1.60929C18.9742 1.2698 18.3542 1.07143 17.6868 1.07143Z" fill="#EC0000"/>
</svg>
