<svg width="40" height="40" viewBox="0 0 40 40" fill="none" xmlns="http://www.w3.org/2000/svg">
<mask id="mask0" mask-type="alpha" maskUnits="userSpaceOnUse" x="0" y="0" width="40" height="40">
<rect width="40" height="40" rx="20" fill="white"/>
</mask>
<g mask="url(#mask0)">
<rect width="40" height="40" fill="#D9D9D9"/>
</g>
<path fill-rule="evenodd" clip-rule="evenodd" d="M11 13.4274C11 22.014 17.986 29 26.5726 29C27.9112 29 29 27.9112 29 26.5726V23.6989C29 22.8258 28.4503 22.0348 27.6316 21.7301L25.788 21.0446C24.729 20.6515 23.5572 21.1591 23.1193 22.1994L22.3448 24.0419C20.008 22.7305 17.2812 20.0016 15.9592 17.6547L17.8006 16.8807C18.8414 16.4434 19.3485 15.271 18.9554 14.212L18.2699 12.3684C17.9652 11.5497 17.1742 11 16.3011 11H13.4274C12.0888 11 11 12.0888 11 13.4274ZM17.2155 12.6654L17.9089 14.5302C18.1002 15.0447 17.854 15.6148 17.3475 15.8276L14.931 16.8432C14.7915 16.9019 14.6821 17.0156 14.6288 17.1573C14.5754 17.299 14.5824 17.4564 14.6487 17.5927C16.0377 20.4574 19.4952 23.9267 22.3551 25.326L22.4057 25.3508C22.5426 25.4176 22.6994 25.4235 22.8421 25.3718C22.9838 25.3184 23.0981 25.2091 23.1568 25.069L24.1724 22.6525C24.3847 22.146 24.9558 21.8976 25.4698 22.0911L27.3346 22.7845C27.7328 22.9321 28 23.3168 28 23.7414V26.6482C28 27.3933 27.3933 28 26.6482 28C18.5711 28 12 21.4289 12 13.3518C12 12.6067 12.6067 12 13.3518 12H16.2586C16.6832 12 17.0679 12.2672 17.2155 12.6654Z" fill="#444444"/>
</svg>
