<svg width="36" height="40" version="1.1" id="Capa_1" xmlns="http://www.w3.org/2000/svg" xmlns:xlink="http://www.w3.org/1999/xlink" x="0px" y="0px"
	 viewBox="0 0 36 40" style="enable-background:new 0 0 36 40;" xml:space="preserve">
<style type="text/css">
	.st0{fill-rule:evenodd;clip-rule:evenodd;fill:#EC0000;}
	.st1{fill:#FFFFFF;}
</style>
<path class="st0" d="M21,33.3c8-1.4,14-8,14-16C35,8.3,27.4,1,18,1C8.6,1,1,8.3,1,17.3c0,8,6,14.7,14,16l3,4.3L21,33.3z"/>
<path class="st1" d="M21,33.3l-0.2-1l-0.4,0.1l-0.2,0.3L21,33.3z M15,33.3l0.8-0.6l-0.2-0.3l-0.4-0.1L15,33.3z M18,37.6l-0.8,0.6
	l0.8,1.2l0.8-1.2L18,37.6z M21.2,34.3c8.4-1.4,14.8-8.5,14.8-17h-2c0,7.5-5.6,13.8-13.2,15L21.2,34.3z M36,17.3C36,7.7,27.9,0,18,0
	v2c8.9,0,16,6.9,16,15.3H36z M18,0C8.1,0,0,7.7,0,17.3h2C2,8.9,9.1,2,18,2V0z M0,17.3c0,8.5,6.4,15.6,14.8,17l0.3-2
	C7.6,31,2,24.8,2,17.3H0z M14.2,33.9l3,4.3l1.6-1.1l-3-4.3L14.2,33.9z M18.8,38.2l3-4.3l-1.6-1.1l-3,4.3L18.8,38.2z"/>
<g>
	<path class="st1" d="M17.3,24v-9.1h-3.5v-2.1c0.5,0,1,0,1.4-0.1c0.5-0.1,0.9-0.2,1.2-0.5c0.4-0.2,0.7-0.5,0.9-0.9
		c0.3-0.4,0.4-0.8,0.5-1.3h2.3v14H17.3z"/>
</g>
</svg>
