<svg width="36" height="40"  version="1.1" id="Capa_1" xmlns="http://www.w3.org/2000/svg" xmlns:xlink="http://www.w3.org/1999/xlink" x="0px" y="0px"
	 viewBox="0 0 36 40" style="enable-background:new 0 0 36 40;" xml:space="preserve">
<style type="text/css">
	.st0{fill-rule:evenodd;clip-rule:evenodd;fill:#EC0000;}
	.st1{fill:#FFFFFF;}
</style>
<path class="st0" d="M21,33.3c8-1.4,14-8,14-16C35,8.3,27.4,1,18,1S1,8.3,1,17.3c0,8,6,14.7,14,16l3,4.3L21,33.3z"/>
<path class="st1" d="M21,33.3l-0.2-1l-0.4,0.1l-0.2,0.3L21,33.3z M15,33.3l0.8-0.6l-0.2-0.3l-0.4-0.1L15,33.3z M18,37.6l-0.8,0.6
	l0.8,1.2l0.8-1.2L18,37.6z M21.2,34.3c8.4-1.4,14.8-8.5,14.8-17h-2c0,7.5-5.6,13.8-13.2,15L21.2,34.3z M36,17.3C36,7.7,27.9,0,18,0
	v2c8.9,0,16,6.9,16,15.3H36z M18,0C8.1,0,0,7.7,0,17.3h2C2,8.9,9.1,2,18,2V0z M0,17.3c0,8.5,6.4,15.6,14.8,17l0.3-2
	C7.6,31,2,24.8,2,17.3H0z M14.2,33.9l3,4.3l1.6-1.1l-3-4.3L14.2,33.9z M18.8,38.2l3-4.3l-1.6-1.1l-3,4.3L18.8,38.2z"/>
<g>
	<path class="st1" d="M13.7,13.1c0.2-0.7,0.5-1.3,1-1.8c0.4-0.5,1-0.9,1.6-1.2c0.6-0.3,1.4-0.4,2.2-0.4c0.6,0,1.2,0.1,1.8,0.3
		s1.1,0.5,1.5,0.9c0.4,0.4,0.8,0.8,1.1,1.4c0.3,0.5,0.4,1.2,0.4,1.8c0,0.7-0.1,1.3-0.3,1.8c-0.2,0.5-0.5,1-0.9,1.4
		c-0.4,0.4-0.8,0.8-1.3,1.1c-0.5,0.3-1,0.6-1.4,1c-0.5,0.3-0.9,0.6-1.4,1c-0.5,0.4-0.9,0.8-1.2,1.3h6.6V24H13.1
		c0-0.8,0.1-1.5,0.3-2.1c0.2-0.6,0.6-1.1,1-1.6c0.4-0.5,0.9-0.9,1.4-1.3s1.1-0.8,1.7-1.2c0.3-0.2,0.6-0.4,1-0.7
		c0.3-0.2,0.7-0.5,0.9-0.7c0.3-0.3,0.5-0.6,0.7-0.9c0.2-0.3,0.3-0.7,0.3-1.1c0-0.7-0.2-1.2-0.6-1.6c-0.4-0.4-0.9-0.6-1.5-0.6
		c-0.4,0-0.8,0.1-1,0.3s-0.5,0.4-0.7,0.8c-0.2,0.3-0.3,0.7-0.4,1c-0.1,0.4-0.1,0.8-0.1,1.1h-2.7C13.4,14.6,13.4,13.8,13.7,13.1z"/>
</g>
</svg>
