<svg width="48" height="54" version="1.1" id="Capa_1" xmlns="http://www.w3.org/2000/svg" xmlns:xlink="http://www.w3.org/1999/xlink" x="0px" y="0px"
	 viewBox="0 0 36 40" style="enable-background:new 0 0 36 40;" xml:space="preserve">
<style type="text/css">
	.st0{fill:#FFFFFF;}
	.st1{fill:#EC0000;}
</style>
<g>
	<g>
		<path class="st0" d="M35.1,20c-0.4-0.5-1-0.8-1.7-0.8c-0.6,0-1.3,0.2-1.7,0.5c-0.9-0.1-1.7-0.3-2.4-0.7c0-0.2,0.1-0.6,0.1-0.9
			c0.2-0.1,0.5-0.1,0.7-0.1c0.4-0.1,0.7-0.1,1.1-0.2l0,0c0.4,0.7,1.1,1,1.8,1s1.4-0.5,1.7-1.2c0.4-0.9,0.4-1.8,0-2.7
			c-0.4-0.8-1.2-1.3-2-1.3h-0.2c-0.8,0.2-1.4,0.6-1.6,1.3l0,0C30.5,15,30,15.1,29.6,15v-1.1c0.6-0.7,1.1-1.2,1.8-1.6l0.1-0.1
			c0,0,0,0,0.2,0c0.7,0.3,1.4,0.4,2.1,0.1c0.7-0.3,1.2-1,1.3-1.8v-0.1c0.1-1.7-1.2-3.4-2.8-3.6c-0.6,0-1.3,0.2-1.8,0.7
			c-0.5,0.4-0.8,1-0.8,1.7c0,0.1,0,0.2,0,0.3v0.3v0.1c-0.1,0.1-0.2,0.2-0.3,0.3c0.2-0.3,0.2-0.7,0.1-1.1C29.4,8.8,29.1,8,28,7.7
			c-0.2,0-0.3,0-0.5,0c0-0.4-0.1-0.7-0.2-1C27,6,26.4,5.5,25.7,5.4c-0.7-0.3-1.4-0.2-1.9,0.1c-0.1-0.2-0.3-0.5-0.5-0.7l-0.2-0.2
			l-0.4-0.1c-0.7-0.1-1.3-0.2-1.9,0C21,4.1,21,3.8,21,3.5c0-0.9-0.5-1.6-1.4-2c-0.6-0.4-1.3-0.4-2.2-0.3c-1,0.3-1.7,1-1.9,1.9
			c-0.1,0.5,0,0.9,0.2,1.2c-0.6-0.1-1.3,0-1.9,0.5L13.7,5c-0.1,0.1-0.2,0.3-0.3,0.4c-0.3-0.4-0.7-0.7-1.3-0.8
			c-0.7-0.1-1.5,0.1-2.2,0.6s-1,1.4-0.7,2.3C8.9,7.4,8.7,7.4,8.4,7.4C7.8,7.4,7.3,7.7,6.9,8L6.7,8.1L6.6,8.4c-0.4,0.7-0.2,1.3,0,1.7
			c0,0.1,0.1,0.2,0.1,0.3C6.3,10.1,6,9.9,5.6,9.7c0.1-1.4-0.8-2.6-2.1-2.8H3.4c-0.3,0-0.8,0-1.3,0.2C0.8,7.6,0,9,0.3,10.4
			c0.1,0.7,0.5,1.4,1.1,1.8c0.7,0.4,1.5,0.4,2.3,0.1l0.1-0.1l0,0c1.2,0.6,2.1,1.2,2.8,2.1v1L5.5,15c-0.2-0.7-0.7-1.1-1.4-1.3
			l-0.2-0.1l-0.2,0.1c-0.7,0.2-1.1,0.5-1.4,0.8l-0.1,0.1C1.9,15,1.5,15.8,1.7,17c0.1,0.6,0.4,1,0.7,1.2c-0.7,0.1-1.4,0.6-1.7,1.3
			c-0.6,1.1-0.3,2.7,0.7,3.7c0.3,0.2,0.6,0.4,0.9,0.5c-0.1,0-0.1,0-0.2,0.1c-0.7,0.2-1.3,0.9-1.5,1.7c-0.3,1.3,0.2,2.5,1.3,3.4
			c0.3,0.2,1.2,0.9,2.3,0.4c0.2-0.1,0.5-0.2,0.6-0.4c0.1,0.5,0.3,1.1,1.1,1.7s1.6,0.7,2.3,0.2c0.2-0.1,0.3-0.3,0.4-0.4
			c0,0.2,0,0.5,0,0.7v0.1c0.3,0.9,1.2,1.4,2.1,1.4c0.2,0,0.5,0,0.7-0.1c-0.1,0.1-0.1,0.3-0.2,0.4V33c0,0,0,0-0.1,0
			c-0.7,0-1.4,0.4-1.7,1c-0.4,0.7-0.3,1.6,0.1,2.3c0.6,0.8,1.5,1.3,2.6,1.3c0.7,0,1.3-0.2,1.7-0.6c0.1,0.4,0.3,0.7,0.7,1
			c0.6,0.5,1.4,0.6,2.2,0.5c1.4-0.3,1.5-1.3,1.5-1.6c0-0.5-0.2-0.9-0.4-1.2l-0.1-0.2l0.1-1c0.4,0,0.8-0.1,1.1-0.3
			c0.3-0.1,0.5-0.3,0.8-0.4c0,0.3,0,0.6,0,0.9c-0.5,0.4-0.8,1-0.8,1.6c0,0.7,0.4,1.4,1.2,1.9c0.4,0.2,0.9,0.3,1.4,0.3
			c0.4,0,0.9-0.1,1.3-0.3c0.9-0.4,1.4-1.1,1.4-2c0-0.5-0.2-1.3-1.2-1.8c-0.2-0.7-0.3-1.5-0.3-2.4l0,0c0.2-0.2,0.4-0.4,0.6-0.6
			c0,0,0,0,0.1-0.1c0.1,0.1,0.2,0.3,0.3,0.5c-0.3,0.6-0.4,1.2-0.1,1.8s0.9,1,1.6,1c0.8,0,1.5-0.3,2.1-0.9l0.1-0.1
			c0.2-0.2,0.6-0.8,0.6-1.5c0.8,0.7,1.8,0.5,2.1,0.4h0.2c1.1-0.4,1.9-1.3,2.2-2.3c0.2-0.7,0.1-1.3-0.2-1.7c-0.5-1.1-1.7-1.5-3-1.1
			c-0.6-0.4-1.2-0.9-1.7-1.6c-0.1-0.1-0.1-0.2-0.1-0.2c0.1-0.1,0.1-0.2,0.2-0.3c0.1,0.1,0.3,0.1,0.4,0.2c0.1,0.4,0.3,1.2,1.2,1.4
			c0.4,0.2,0.9,0.2,1.3,0c0.5-0.2,0.8-0.5,1.1-0.8c0.3-0.5,0.4-1.1,0.3-1.7c0.9,0.3,1.7,0.1,2.4-0.5c0.6-0.5,1-1.2,1.1-2
			C35.8,21.2,35.6,20.5,35.1,20z M10.3,8.8c0.2,0.1,0.4,0.1,0.6,0.2c0.3,0.5,0.5,0.9,0.7,1.3c-0.3,0.1-0.7,0.2-1,0.4
			c-0.2-0.2-0.3-0.5-0.4-0.7C10.3,9.5,10.4,9.1,10.3,8.8z M30.7,22.9c-0.4-0.1-0.9,0-1.3,0.2h-0.1c-0.3-0.1-0.5-0.2-0.7-0.3
			c0-0.1,0.1-0.2,0.1-0.3c0-0.1,0-0.2,0.1-0.3c0.3,0.1,0.5,0.1,0.8,0.2c0.4,0.1,0.8,0.2,1.1,0.3C30.7,22.7,30.7,22.8,30.7,22.9z
			 M28.1,11.2L28.1,11.2L28.1,11.2L28.1,11.2C28.2,11.2,28.1,11.2,28.1,11.2z M25.1,10.1C25.1,10,25.1,10,25.1,10.1
			c0.1-0.2,0.2-0.4,0.4-0.6c0.2,0,0.4,0,0.6,0c0,0.1,0,0.2,0,0.2s0,0,0,0.1c-0.1,0.1-0.2,0.3-0.3,0.4c0,0.1-0.1,0.1-0.1,0.2
			L25.1,10.1z M16.8,7.2c0,0.1-0.1,0.3-0.1,0.4V7.4C16.8,7.4,16.8,7.3,16.8,7.2z M8,11.2L8,11.2c0.1,0,0.1,0.1,0.1,0.1l0,0
			C8.1,11.3,8.1,11.2,8,11.2L8,11.2z M4.6,19.1C4.5,19.1,4.5,19.1,4.6,19.1c-0.2-0.2-0.4-0.4-0.6-0.5c0.4-0.1,0.8-0.4,1-0.6
			c0.6,0.1,1.3,0.2,1.8,0.2c0,0.1,0,0.2,0,0.4C5.9,18.9,5.2,19,4.6,19.1z M4.9,22.6l0.2-0.3L5,22c0.8-0.3,1.5-0.4,2.3-0.3
			c0.1,0.3,0.2,0.6,0.2,0.9c-0.8,0.6-1.7,1.1-2.8,1.6H4.6c-0.1,0-0.3,0.1-0.3,0.1s0,0-0.2-0.2c-0.2-0.2-0.4-0.3-0.7-0.4
			C4.1,23.6,4.6,23.2,4.9,22.6z M8.3,25.9c-0.3,0.2-0.6,0.5-0.9,0.7c-0.2-0.1-0.5-0.2-0.7-0.2C7.3,26.2,7.8,26,8.3,25.9z M23.2,7.9
			C23.1,8.1,23,8.2,23,8.4c-0.1,0.1-0.1,0.2-0.2,0.3c0-0.3,0.1-0.6,0.1-0.9c0.1,0,0.1-0.1,0.2-0.1C23.1,7.8,23.2,7.9,23.2,7.9z
			 M13.5,7.5c0.2,0.2,0.4,0.3,0.6,0.4l0,0l0.1,0.2c0.1,0.3,0.1,0.6,0.1,0.7v0.1c0,0,0,0-0.1,0c-0.1-0.1-0.1-0.2-0.2-0.3
			C14,8.4,13.7,8,13.5,7.5C13.5,7.6,13.5,7.5,13.5,7.5z M13.4,7.7C13.4,7.7,13.4,7.8,13.4,7.7l-0.9-0.4l0,0L13.4,7.7z M8.9,29.6
			C9,29.3,9,29.1,9,28.9c0.2-0.3,0.6-0.5,1-0.7c0.1,0.1,0.2,0.3,0.4,0.4c0,0,0,0.1-0.1,0.2L10,29C9.6,29.1,9.2,29.3,8.9,29.6z
			 M14.5,35.3c-0.1-0.5-0.3-0.8-0.5-1.1c0-0.1,0-0.2,0-0.2c0.1-0.5,0.2-0.9,0.4-1.3c0.1,0.1,0.2,0.1,0.3,0.2
			c0.2,0.1,0.4,0.3,0.6,0.4L15,35l0,0C14.8,35.1,14.7,35.2,14.5,35.3z M27.4,30.8c-0.3-0.2-0.7-0.3-1.3-0.4
			c-0.3-0.3-0.5-0.7-0.6-1.1c0.1-0.2,0.2-0.3,0.4-0.5c0.1-0.1,0.1-0.2,0.2-0.2c0.2,0.2,0.4,0.3,0.6,0.5c0.3,0.2,0.6,0.5,0.9,0.7
			C27.4,30.1,27.3,30.4,27.4,30.8z"/>
		<path class="st1" d="M34.4,20.6c-0.5-0.6-1.6-0.6-2.2,0c-0.1,0.1-0.3,0.2-0.5,0.1c-1.1-0.1-2.2-0.4-3.2-1
			c-0.1-0.1-0.2-0.3-0.2-0.5c0-0.5,0.1-1.1,0.2-1.6c0-0.1,0.2-0.3,0.3-0.4c0.8-0.2,1.5-0.3,2.3-0.5c0.4-0.1,0.7,0.1,1,0.5
			c0.5,0.8,1.4,0.7,1.8-0.1c0.3-0.6,0.3-1.2,0-1.8c-0.2-0.4-0.6-0.7-1.1-0.7c-0.5,0.1-0.8,0.4-0.9,0.8c-0.1,0.1-0.2,0.3-0.3,0.4
			c-0.8,0.3-1.7,0.4-2.6,0.2c-0.3-0.1-0.4-0.2-0.3-0.4c0-0.6,0-1.2,0-1.7c0-0.1,0-0.3,0.1-0.4c0.6-0.8,1.3-1.5,2.2-2
			c0.4-0.3,0.7-0.3,1.2-0.1c0.9,0.5,1.8,0,2-1c0.1-1.1-0.9-2.4-1.9-2.5c-0.8-0.1-1.5,0.4-1.5,1.3c0,0.2,0.1,0.4,0,0.6
			c0,0.2,0,0.5-0.1,0.6c-0.6,0.7-1.3,1.3-2.1,1.7c-0.3,0.2-0.6,0.2-0.9,0.1c-1.3-0.4-1.3-0.5-0.4-1.6c0.2-0.2,0.3-0.4,0.7-0.4
			c0.4,0,0.7-0.4,0.6-0.8c-0.1-0.4-0.4-0.6-0.8-0.7C27.3,8.6,27,9,27.1,9.5c0,0.2,0.1,0.4,0,0.5c-0.3,0.4-0.5,0.8-0.8,1.2
			c-0.2,0.2-0.4,0.3-0.7,0.1c-0.5-0.2-1-0.4-1.5-0.6c-0.3-0.1-0.3-0.2-0.2-0.5c0.3-0.5,0.5-0.9,0.8-1.4c0.2-0.3,0.4-0.4,0.8-0.4
			c0.8,0.1,1.3-0.6,0.9-1.3c-0.2-0.4-0.6-0.7-1-0.8c-0.5-0.2-1-0.1-1.2,0.2c-0.3,0.4-0.2,0.8,0,1.2c0.1,0.1,0.1,0.4,0,0.5
			c-0.2,0.4-0.5,0.9-0.7,1.3c-0.5,0.6-0.5,0.6-1.2,0.3c-0.1-0.1-0.2-0.1-0.3-0.1c-0.2-0.1-0.4-0.3-0.3-0.5c0.1-0.6,0.2-1.1,0.2-1.7
			c0-0.3,0.2-0.5,0.5-0.6C23,6.7,23.2,6,22.7,5.6c-0.7-0.1-1.2-0.2-1.7,0c-0.6,0.2-0.8,0.8-0.3,1.3C21,7.1,21,7.4,20.9,7.7
			c0,0.2-0.1,0.4-0.1,0.7c-0.3,1-0.3,1-1.1,0.5c-0.4-0.2-0.7-0.5-0.7-1c-0.1-0.8-0.1-1.7-0.2-2.5c0-0.4,0.1-0.6,0.5-0.7
			C19.7,4.5,20,4.2,20,3.6c0-0.5-0.3-0.9-0.8-1.1c-0.5-0.3-1-0.3-1.5-0.2c-0.7,0.2-1.1,0.6-1.2,1.1c-0.1,0.7,0.4,1,0.9,1.3
			c0.1,0.1,0.2,0.2,0.3,0.3c0.3,1.1,0.3,2,0,3c-0.1,0.2-0.2,0.4-0.4,0.5c-0.3,0.2-0.6,0.4-0.9,0.6C16.1,9.2,16,9.2,16,8.9
			c-0.1-0.5-0.2-1-0.3-1.5c-0.1-0.3,0-0.5,0.2-0.6c0.5-0.4,0.3-1.1-0.2-1.3c-0.4-0.2-0.9-0.1-1.3,0.2C14,6.1,14,6.8,14.6,7
			c0.4,0.2,0.6,0.4,0.6,0.8c0.1,0.3,0.2,0.7,0.2,1c0.1,0.7,0.1,0.7-0.5,1c-0.2,0.1-0.3,0.1-0.5,0.2c-0.3,0.2-0.5,0.1-0.7-0.2
			C13.4,9.3,13,8.7,12.6,8c-0.2-0.3-0.2-0.5,0-0.8c0.4-0.7,0.1-1.4-0.7-1.6c-0.5-0.1-1,0.1-1.4,0.4S10,6.8,10.2,7.3s0.6,0.6,1,0.7
			c0.2,0,0.3,0.1,0.4,0.2c0.5,0.7,0.9,1.4,1.1,2.3c0.1,0.3,0,0.4-0.3,0.5c-0.6,0.2-1.2,0.4-1.8,0.7c-0.2,0.1-0.4,0-0.6-0.2
			c-0.3-0.4-0.6-0.9-0.8-1.3C9,10,9,9.7,9.2,9.5c0.4-0.6,0-1.2-0.7-1.1c-0.3,0-0.7,0.2-1,0.4C7.4,9,7.3,9.3,7.5,9.7
			c0.1,0.3,0.4,0.4,0.8,0.5c0.2,0,0.4,0.1,0.5,0.2c0.2,0.3,0.5,0.6,0.6,1c0.4,0.7,0.3,0.8-0.4,0.9c-0.1,0-0.3,0.1-0.4,0.1
			c-0.2,0-0.4,0-0.5,0c-1.1-0.7-2.1-1.3-3.2-2C4.6,10.2,4.5,10,4.6,9.6C4.7,8.7,4.2,8,3.4,7.9c-0.3,0-0.6,0-0.9,0.1
			c-0.8,0.3-1.4,1.3-1.2,2.2c0.1,1,1.1,1.5,2,1.1c0.2-0.1,0.5-0.3,0.8-0.2c1.3,0.6,2.5,1.4,3.4,2.5c0.1,0.1,0.2,0.3,0.2,0.5
			c0,0.6,0,1.3,0,1.9c0,0.3-0.1,0.4-0.4,0.3c-0.7-0.1-1.4-0.2-2.1-0.3c-0.4,0-0.6-0.2-0.6-0.6c-0.1-0.3-0.3-0.6-0.7-0.7
			C3.5,14.8,3.2,15,3,15.2c-0.3,0.4-0.4,0.9-0.3,1.5c0.1,0.4,0.3,0.8,0.7,0.9s0.7-0.2,1-0.5c0.1-0.1,0.3-0.3,0.5-0.2
			c0.8,0.1,1.6,0.2,2.3,0.3c0.4,0.1,0.6,0.3,0.6,0.7c0,0.3,0,0.6,0.1,0.9c0,0.3-0.1,0.4-0.3,0.5c-1,0.4-2,0.7-3,0.8
			c-0.4,0-0.7-0.1-0.9-0.4C3.1,18.8,2,19,1.6,19.9c-0.4,0.8-0.1,1.9,0.5,2.5C2.8,23,3.6,22.9,4,22.1c-0.1-0.3,0-0.5,0-0.6
			c0.1-0.1,0.1-0.2,0.2-0.3c1.1-0.5,2.3-0.7,3.6-0.5c0.1,0,0.3,0.2,0.4,0.4c0.2,0.5,0.3,1,0.4,1.5c0.1,0.3,0,0.5-0.2,0.6
			c-1,0.8-2.1,1.4-3.3,1.9c-0.6,0.2-1,0.4-1.6-0.2c-0.7-0.6-1.7-0.2-1.9,0.7c-0.2,1,0.2,1.8,0.9,2.4c0.4,0.3,0.8,0.5,1.3,0.3
			s0.7-0.7,0.7-1.2c0-0.1,0-0.1,0-0.2c0.1-0.2,0.1-0.4,0.3-0.5c1.1-0.7,2.3-1.3,3.6-1.5c1-0.2,0.8-0.2,1.3,0.7
			c0.1,0.3,0.1,0.4-0.1,0.6C9.1,26.6,8.5,27,8,27.5c-0.3,0.2-0.5,0.3-0.9,0.1c-0.7-0.4-1.4,0.1-1.3,0.9c0,0.5,0.3,0.9,0.7,1.2
			c0.4,0.3,0.8,0.4,1.1,0.2C8,29.6,8,29.2,8,28.8c0-0.2,0.1-0.4,0.2-0.5c0.5-0.6,1.2-1,2-1.3c0.1,0,0.3,0.1,0.4,0.2
			c0.2,0.2,0.2,0.5,0.4,0.7c0.5,0.5,0.4,1,0,1.5c0,0.1-0.1,0.1-0.1,0.2c-0.1,0.3-0.4,0.4-0.7,0.4c-0.5,0-0.7,0.4-0.6,0.8
			c0.2,0.5,0.7,0.8,1.2,0.8s0.7-0.4,0.5-0.9c-0.2-0.6-0.1-1.2,0.5-1.6c0.4,0.4,0.7,0.8,1.1,1.2c0.1,0.1,0.1,0.3,0.1,0.4
			c-0.1,1-0.4,1.9-0.9,2.7c-0.2,0.4-0.4,0.5-0.8,0.6c-1,0-1.4,1-0.9,1.8c0.4,0.6,1.1,0.9,1.8,0.9c0.5,0,1-0.2,1.3-0.7
			c0.2-0.5,0-0.9-0.3-1.4C13.1,34.4,13,34.2,13,34c0.1-0.9,0.4-1.7,0.9-2.4c0.1-0.2,0.2-0.2,0.5-0.1c0.5,0.4,1.1,0.7,1.6,1.1
			c0.1,0.1,0.3,0.3,0.3,0.5c-0.1,0.7-0.2,1.4-0.3,2.1c0,0.4-0.2,0.6-0.6,0.7c-0.7,0.3-0.7,1-0.2,1.4c0.4,0.3,0.9,0.4,1.4,0.3
			c0.4-0.1,0.7-0.3,0.7-0.6s-0.2-0.6-0.3-0.8c-0.1-0.1-0.2-0.3-0.2-0.4c0.1-0.7,0.2-1.4,0.3-2.1c0-0.3,0.2-0.4,0.5-0.2s0.7,0.2,1,0
			c0.6-0.3,1.2-0.6,1.7-0.9c0.3-0.1,0.4-0.1,0.4,0.2c0.1,0.7,0.2,1.4,0.2,2.1c0,0.3-0.1,0.5-0.3,0.7c-0.8,0.5-0.7,1.4,0.1,1.9
			c0.6,0.3,1.2,0.3,1.8,0c0.5-0.2,0.8-0.6,0.8-1.1s-0.3-0.8-0.8-1c-0.1-0.1-0.3-0.2-0.3-0.3c-0.4-1-0.5-2.1-0.4-3.2
			c0-0.2,0.1-0.3,0.3-0.5c0.4-0.4,0.9-0.8,1.3-1.2c0.2-0.2,0.3-0.2,0.4,0c0.3,0.4,0.5,0.7,0.8,1.1s0.3,0.7,0.1,1.1
			c-0.4,0.6,0,1.3,0.7,1.3c0.6,0,1-0.2,1.4-0.6c0.3-0.4,0.5-0.8,0.3-1.2c-0.2-0.4-0.6-0.5-1-0.5c-0.2,0-0.4,0-0.5-0.1
			c-0.5-0.5-0.9-1.2-1.1-1.9c0-0.1,0-0.3,0.1-0.5c0.3-0.5,0.7-0.9,1-1.4c0.2-0.3,0.3-0.3,0.6-0.1c0.7,0.6,1.4,1.1,2.1,1.7
			c0.3,0.2,0.3,0.5,0.2,0.8c-0.2,0.5-0.2,1,0.2,1.4c0.4,0.4,0.9,0.4,1.4,0.3c0.8-0.3,1.4-0.9,1.6-1.7c0.1-0.3,0.1-0.6-0.1-0.9
			c-0.3-0.7-1-0.9-1.8-0.6c-0.2,0.1-0.5,0.1-0.6,0c-0.9-0.5-1.6-1.2-2.2-2.1c-0.2-0.4-0.3-0.7-0.1-1.2c0.2-0.3,0.3-0.6,0.3-0.9
			c0.1-0.3,0.2-0.3,0.5-0.2c0.5,0.2,1,0.4,1.4,0.7c0.1,0.1,0.2,0.3,0.2,0.4c0.1,0.4,0.2,0.7,0.6,0.8c0.4,0.2,1,0,1.2-0.4
			c0.3-0.4,0.3-1,0-1.4c-0.3-0.3-0.8-0.4-1.3-0.1c-0.1,0.1-0.4,0.2-0.5,0.1c-0.5-0.2-1.1-0.4-1.6-0.7c-0.1-0.1-0.2-0.3-0.2-0.4
			c0.1-0.6,0.3-1.1,0.4-1.7c0.1-0.2,0.2-0.4,0.4-0.3c1,0.3,2,0.5,3,0.8c0.1,0,0.3,0.3,0.3,0.4c0.1,0.5,0.4,1,0.9,1.2
			c0.6,0.2,1.1,0.1,1.5-0.3C34.9,22.4,35,21.3,34.4,20.6z M27.6,16c0,3.1-0.5,6-1.7,8.8c-1.5,3.5-4,6.1-7.5,7.8
			c-0.1,0.1-0.4,0.1-0.5,0c-2.5-1.2-4.6-2.9-6.2-5.3c-1.3-2-2.1-4.2-2.6-6.5c-0.4-2-0.5-3.9-0.5-5.9c0-0.4,0-0.7,0.1-1.1
			c0-0.1,0.2-0.3,0.3-0.4c2.9-0.8,5.7-2,8.2-3.6c0.7-0.5,1.2-0.3,1.8,0.1c2.3,1.5,4.9,2.5,7.5,3.3c1.1,0.3,0.9,0,1,1.2
			C27.6,15,27.6,15.5,27.6,16z"/>
		<path class="st1" d="M26.3,14.2c-1.3-0.5-2.7-0.9-3.9-1.5c-1.3-0.6-2.6-1.3-3.8-1.9c-0.3-0.1-0.4-0.1-0.7,0
			c-1.5,0.8-3,1.6-4.5,2.3c-1,0.5-2.1,0.8-3.2,1.1c-0.3,0.1-0.4,0.2-0.4,0.5c0,0.4,0,0.8,0,1.2c0,3.2,0.5,6.3,2,9.2
			c1.3,2.8,3.4,4.8,6.1,6.3c0.3,0.1,0.5,0.1,0.7,0c1.3-0.7,2.5-1.5,3.6-2.6c1.8-1.9,3-4.2,3.7-6.7c0.6-1.9,0.7-3.9,0.7-5.9
			c0-0.5,0-1,0-1.5C26.6,14.4,26.5,14.3,26.3,14.2z"/>
	</g>
</g>
<g>
	<path class="st0" d="M17.1,27.1v-7.8h-3v-1.8c0.4,0,0.9,0,1.2-0.1c0.4-0.1,0.8-0.2,1-0.4c0.3-0.2,0.6-0.4,0.8-0.8
		c0.3-0.3,0.3-0.7,0.4-1.1h2v12H17.1z"/>
</g>
</svg>
