<svg width="36" height="40" version="1.1" id="Capa_1" xmlns="http://www.w3.org/2000/svg" xmlns:xlink="http://www.w3.org/1999/xlink" x="0px" y="0px"
	 viewBox="0 0 36 40" style="enable-background:new 0 0 36 40;" xml:space="preserve">
<style type="text/css">
	.st0{fill-rule:evenodd;clip-rule:evenodd;fill:#EC0000;}
	.st1{fill:#FFFFFF;}
</style>
<path class="st0" d="M21,33.3c8-1.4,14-8,14-16C35,8.3,27.4,1,18,1S1,8.3,1,17.3c0,8,6,14.7,14,16l3,4.3L21,33.3z"/>
<path class="st1" d="M21,33.3l-0.2-1l-0.4,0.1l-0.2,0.3L21,33.3z M15,33.3l0.8-0.6l-0.2-0.3l-0.4-0.1L15,33.3z M18,37.6l-0.8,0.6
	l0.8,1.2l0.8-1.2L18,37.6z M21.2,34.3c8.4-1.4,14.8-8.5,14.8-17h-2c0,7.5-5.6,13.8-13.2,15L21.2,34.3z M36,17.3C36,7.7,27.9,0,18,0
	v2c8.9,0,16,6.9,16,15.3H36z M18,0C8.1,0,0,7.7,0,17.3h2C2,8.9,9.1,2,18,2V0z M0,17.3c0,8.5,6.4,15.6,14.8,17l0.3-2
	C7.6,31,2,24.8,2,17.3H0z M14.2,33.9l3,4.3l1.6-1.1l-3-4.3L14.2,33.9z M18.8,38.2l3-4.3l-1.6-1.1l-3,4.3L18.8,38.2z"/>
<g>
	<path class="st1" d="M17.6,15.4c0.3,0,0.7-0.1,1-0.2c0.3-0.1,0.5-0.3,0.7-0.6c0.2-0.2,0.3-0.6,0.3-1c0-0.6-0.2-1.1-0.6-1.4
		c-0.4-0.3-0.9-0.5-1.4-0.5c-0.7,0-1.3,0.2-1.6,0.7c-0.4,0.5-0.5,1.1-0.5,1.8h-2.7c0-0.7,0.2-1.4,0.4-2c0.2-0.6,0.6-1.1,1-1.5
		s0.9-0.8,1.5-1c0.6-0.2,1.2-0.3,2-0.3c0.6,0,1.1,0.1,1.7,0.2c0.6,0.2,1.1,0.4,1.5,0.8c0.4,0.3,0.8,0.7,1.1,1.2
		c0.3,0.5,0.4,1,0.4,1.7c0,0.7-0.2,1.3-0.5,1.8c-0.3,0.5-0.8,0.9-1.5,1.1v0c0.8,0.2,1.4,0.5,1.8,1.1c0.4,0.6,0.7,1.3,0.7,2.1
		c0,0.7-0.1,1.4-0.4,2c-0.3,0.6-0.7,1.1-1.2,1.4c-0.5,0.4-1,0.7-1.7,0.9c-0.6,0.2-1.3,0.3-2,0.3c-0.8,0-1.5-0.1-2.1-0.3
		c-0.6-0.2-1.2-0.6-1.7-1c-0.5-0.4-0.8-1-1-1.6c-0.2-0.6-0.4-1.3-0.3-2.2h2.7c0,0.4,0.1,0.7,0.2,1.1c0.1,0.3,0.3,0.6,0.5,0.9
		c0.2,0.2,0.5,0.4,0.8,0.6c0.3,0.1,0.7,0.2,1.1,0.2c0.6,0,1.2-0.2,1.6-0.6c0.4-0.4,0.7-0.9,0.7-1.6c0-0.5-0.1-0.9-0.3-1.2
		c-0.2-0.3-0.5-0.5-0.8-0.6c-0.3-0.1-0.7-0.2-1-0.2c-0.4,0-0.7,0-1.1,0v-2C16.9,15.4,17.3,15.4,17.6,15.4z"/>
</g>
</svg>
