<svg width="36" height="40" viewBox="0 0 36 40" fill="none" xmlns="http://www.w3.org/2000/svg">
<path fill-rule="evenodd" clip-rule="evenodd" d="M21.0105 33.3169C28.9633 31.9554 35 25.2959 35 17.2857C35 8.29136 27.3888 1 18 1C8.61116 1 1 8.29136 1 17.2857C1 25.2959 7.03666 31.9554 14.9895 33.3169L18 37.6429L21.0105 33.3169Z" fill="#007AFF"/>
<path d="M21.0105 33.3169L20.8418 32.3312L20.4289 32.4019L20.1897 32.7457L21.0105 33.3169ZM14.9895 33.3169L15.8103 32.7457L15.5711 32.4019L15.1582 32.3312L14.9895 33.3169ZM18 37.6429L17.1792 38.2141L18 39.3935L18.8208 38.2141L18 37.6429ZM21.1792 34.3025C29.5731 32.8656 36 25.8218 36 17.2857H34C34 24.77 28.3536 31.0452 20.8418 32.3312L21.1792 34.3025ZM36 17.2857C36 7.69906 27.9002 0 18 0V2C26.8774 2 34 8.88367 34 17.2857H36ZM18 0C8.09976 0 0 7.69906 0 17.2857H2C2 8.88367 9.12255 2 18 2V0ZM0 17.2857C0 25.8218 6.42689 32.8656 14.8208 34.3025L15.1582 32.3312C7.64643 31.0452 2 24.77 2 17.2857H0ZM14.1687 33.8881L17.1792 38.2141L18.8208 37.0717L15.8103 32.7457L14.1687 33.8881ZM18.8208 38.2141L21.8313 33.8881L20.1897 32.7457L17.1792 37.0717L18.8208 38.2141Z" fill="white"/>
<path fill-rule="evenodd" clip-rule="evenodd" d="M19.25 8.6665C19.9409 8.6665 20.5 9.22555 20.5 9.9165V15.3332H25.0833C25.7336 15.3332 26.2671 15.8284 26.3276 16.4627L26.3333 16.5832V24.0832C26.3333 24.7741 25.7742 25.3332 25.0833 25.3332H10.9166C10.2257 25.3332 9.66663 24.7741 9.66663 24.0832V9.9165C9.66663 9.22555 10.2257 8.6665 10.9166 8.6665H19.25ZM25.0833 16.1665H20.5V24.4998H25.0833C25.2884 24.4998 25.4581 24.3529 25.4933 24.1582L25.5 24.0832V16.5832C25.5 16.3525 25.314 16.1665 25.0833 16.1665ZM19.25 9.49984H10.9166C10.6859 9.49984 10.5 9.68579 10.5 9.9165V24.0832C10.5 24.3139 10.6859 24.4998 10.9166 24.4998H12.1666V20.7498C12.1666 20.5453 12.314 20.3752 12.5084 20.3399L12.5833 20.3332H17.5833C17.8134 20.3332 18 20.5197 18 20.7498V24.4998H19.6666V9.9165C19.6666 9.68579 19.4807 9.49984 19.25 9.49984ZM17.1666 21.1665H13V24.4998H17.1666V21.1665ZM24.2483 20.3332C24.4784 20.3332 24.665 20.5664 24.665 20.854C24.665 21.1417 24.4784 21.3748 24.2483 21.3748H21.7516C21.5215 21.3748 21.335 21.1417 21.335 20.854C21.335 20.5664 21.5215 20.3332 21.7516 20.3332H24.2483ZM17.5833 17.8356C17.8134 17.8356 18 18.0688 18 18.3564C18 18.6441 17.8134 18.8773 17.5833 18.8773H12.5833C12.3532 18.8773 12.1666 18.6441 12.1666 18.3564C12.1666 18.0688 12.3532 17.8356 12.5833 17.8356H17.5833ZM24.2483 17.8356C24.4784 17.8356 24.665 18.0688 24.665 18.3564C24.665 18.6441 24.4784 18.8773 24.2483 18.8773H21.7516C21.5215 18.8773 21.335 18.6441 21.335 18.3564C21.335 18.0688 21.5215 17.8356 21.7516 17.8356H24.2483ZM16.0833 10.333C16.3134 10.333 16.5 10.5196 16.5 10.7497V11.833H17.5833C17.8134 11.833 18 12.0196 18 12.2497V14.2497C18 14.4798 17.8134 14.6663 17.5833 14.6663H16.5V15.7497C16.5 15.9798 16.3134 16.1663 16.0833 16.1663H14.0833C13.8532 16.1663 13.6666 15.9798 13.6666 15.7497V14.6663H12.5833C12.3532 14.6663 12.1666 14.4798 12.1666 14.2497V12.2497C12.1666 12.0196 12.3532 11.833 12.5833 11.833H13.6666V10.7497C13.6666 10.5196 13.8532 10.333 14.0833 10.333H16.0833ZM15.6666 11.1663H14.5V12.2497C14.5 12.4798 14.3134 12.6663 14.0833 12.6663H13V13.833H14.0833C14.3134 13.833 14.5 14.0196 14.5 14.2497V15.333H15.6666V14.2497C15.6666 14.0196 15.8532 13.833 16.0833 13.833H17.1666V12.6663H16.0833C15.8532 12.6663 15.6666 12.4798 15.6666 12.2497V11.1663Z" fill="white"/>
</svg>
