<svg width="91" height="81" viewBox="0 0 91 81" fill="none" xmlns="http://www.w3.org/2000/svg">
<path d="M84.8025 69.187L85.3701 66.8802C86.3764 66.4407 87.406 66.06 88.4539 65.74L88.5256 66.8121L88.8161 65.631C90.1158 65.2485 90.9999 65.0801 90.9999 65.0801C90.9999 65.0801 89.8056 69.7601 87.3008 73.338L84.3821 73.8664L86.6495 74.2033C86.3343 74.594 85.9956 74.964 85.6353 75.311C81.9914 78.7965 77.9329 80.3957 76.5702 78.8828C75.2076 77.37 77.0569 73.318 80.7007 69.8324C81.8303 68.7519 83.2494 67.8848 84.6699 67.2023L84.8025 69.187Z" fill="#E6E6E6"/>
<path d="M79.4048 66.6822L78.7336 64.4051C79.3746 63.4928 80.065 62.6185 80.8016 61.7864L81.4007 62.6659L81.057 61.5001C81.9777 60.4804 82.65 59.8652 82.65 59.8652C82.65 59.8652 83.9751 64.5077 83.6255 68.9049L81.392 70.9119L83.502 69.9925C83.4282 70.4949 83.3238 70.992 83.1894 71.481C81.8184 76.4058 79.1462 79.9367 77.2209 79.3675C75.2956 78.7983 74.8462 74.3445 76.2172 69.4197C76.6422 67.8929 77.4221 66.3947 78.2957 65.0539L79.4048 66.6822Z" fill="#E6E6E6"/>
<path d="M69.0698 80.9998C81.1815 80.9998 91 80.196 91 79.2045C91 78.213 81.1815 77.4092 69.0698 77.4092C56.9581 77.4092 47.1396 78.213 47.1396 79.2045C47.1396 80.196 56.9581 80.9998 69.0698 80.9998Z" fill="#E6E6E6"/>
<path d="M22.8525 3.59082V18.6925H1.74212V3.59082H0V20.4878H24.5946V3.59082H22.8525Z" fill="#E6E6E6"/>
<path d="M22.8525 27.9854V43.087H1.74212V27.9854H0V44.8823H24.5946V27.9854H22.8525Z" fill="#E6E6E6"/>
<path d="M22.8525 52.3809V67.4826H1.74212V52.3809H0V69.2779H24.5946V52.3809H22.8525Z" fill="#E6E6E6"/>
<path d="M20.0781 14.6582L20.213 14.4994L18.9577 12.4943C18.9577 12.4943 16.7609 8.74279 16.3843 7.64322C16.1917 7.08081 15.8679 6.80643 15.5973 6.67221L15.597 6.67115C15.5679 6.59127 15.5138 6.52365 15.4433 6.47894C14.9524 6.17585 13.9656 5.76293 13.5567 5.59608L13.5564 5.59599L13.6541 5.5411L13.9679 5.34706V5.60578L15.5998 5.41174C15.5998 5.41174 16.0391 5.34706 15.0977 4.24749C15.0977 4.24749 14.8491 3.82049 14.9578 3.45221C15.0472 3.17232 15.0707 2.87454 15.0264 2.58345C14.8154 1.3709 13.9879 -1.0398 10.7669 0.49601C10.7669 0.49601 9.85256 0.81011 9.80613 2.05054C9.80168 2.23246 9.81972 2.41421 9.85982 2.59143L9.36143 4.29443C9.16889 4.61386 8.98734 4.94005 8.8241 5.27648L8.82124 5.28237L9.82547 5.41174L11.008 5.61485C10.9824 5.66388 10.9541 5.71084 10.9244 5.75664C10.8627 5.76013 9.21638 5.84568 8.53835 6.54336C8.52025 6.56181 8.50347 6.58157 8.48813 6.6025L8.48782 6.60296C8.17509 6.70602 7.72946 6.97155 7.28351 7.64322C6.46757 8.87215 4.33358 10.8126 5.33782 11.7828C6.34205 12.753 9.04091 13.3998 9.04091 13.3998L9.06944 13.3469C9.18524 13.7589 9.37317 14.2288 9.65648 14.416L9.65637 14.4163C9.40325 15.1207 9.04766 16.0553 8.71051 17.0026C8.49325 17.6151 8.28318 18.234 8.11511 18.7979H16.9005C16.9002 18.1983 16.8708 17.5992 16.8124 17.0026C16.6289 15.1725 16.1043 13.1195 14.7526 12.1067V10.4888C14.7526 10.4888 15.0393 10.2312 15.0712 9.6043L16.8865 12.6883L19.3343 15.5343L19.6223 15.1951C20.0065 16.2834 21.3089 17.0917 21.531 16.6338C21.7341 16.2154 20.5418 15.0782 20.0781 14.6582ZM9.5103 12.5291L9.66856 12.2355L6.96969 10.8773L8.69104 9.54682C8.71359 9.61229 8.7269 9.64819 8.7269 9.64819C8.7269 9.64819 10.2333 12.2355 9.98225 13.3993C9.97713 13.4204 9.972 13.4437 9.96585 13.469L9.96581 13.4692C9.83175 13.147 9.67965 12.8331 9.5103 12.5291Z" fill="#E6E6E6"/>
<path d="M10.7916 27.7389L10.3324 28.3516L7.92413 30.19C7.92413 30.19 7.47814 31.0173 7.47814 31.1092C7.47814 31.2011 7.29975 35.981 7.29975 35.981C7.29975 35.981 6.98755 40.8068 7.52274 41.726L7.577 41.6658L7.57712 41.6662C7.68213 42.0515 7.82855 42.4234 8.01367 42.7751V43.1933H15.4166V42.0937C15.7172 41.9081 15.9881 41.6755 16.2195 41.4043C15.6843 39.7497 15.7735 37.3598 15.7735 37.3598L15.9981 35.0968L17.825 40.1174L18.4664 41.7148H18.9142C19.046 42.1625 19.7688 44.4302 20.6948 43.7223C21.3222 43.2426 21.0239 42.3285 20.6978 41.6905C20.7451 40.7796 18.5386 34.8779 18.5386 34.8779C18.5386 34.8779 17.2898 31.2011 17.2006 30.3738C17.1114 29.5465 16.5763 29.2708 16.5763 29.2708L13.7219 27.9839L13.2343 27.4384L13.3209 26.9476C13.7474 26.6774 14.0575 26.2495 14.1879 25.7514C14.2064 25.7913 14.2182 25.8166 14.2182 25.8166C14.378 25.6844 14.4817 25.4934 14.5075 25.2839C14.5325 25.0745 14.527 24.8624 14.4912 24.6546L15.0919 24.7228L14.5067 24.3434L14.6739 23.964H14.2732C14.0154 23.4 13.6017 22.8993 13.2441 22.4734C12.564 21.6631 11.8158 21.9718 11.8158 21.9718L12.1219 22.319C11.0336 22.2419 10.2514 23.1293 10.2514 23.1293L10.6255 23.2836C9.6393 23.8624 10.3327 25.8465 10.3327 25.8465C10.3327 25.8465 10.3597 25.8044 10.3972 25.7337C10.478 26.0552 10.6347 26.3511 10.8533 26.5951L10.7916 27.7389ZM10.7784 27.9839L10.7748 27.9915L10.7916 27.739L10.7784 27.9839Z" fill="#E6E6E6"/>
<path d="M17.9095 61.6565L17.7022 58.8254L17.7922 58.8151C17.7922 58.8151 17.6749 56.6387 17.6749 56.0946C17.6749 55.5505 16.9709 55.2482 16.9709 55.2482L16.7851 55.1954L15.3885 54.7991C15.0753 54.3799 15.0242 53.7153 15.0612 53.1175C15.8137 52.997 16.5554 52.8133 17.2788 52.5681L17.1274 51.1637C17.5059 51.3197 17.6574 52.412 17.6574 52.412L18.2631 52.256C18.2631 52.256 17.2031 50.5395 16.5217 48.979C15.8403 47.4186 14.7804 47.8087 14.7804 47.8087C13.5311 47.1888 12.706 47.7637 12.2532 48.3045C11.9975 48.6172 11.8396 49.0023 11.8 49.4092C11.7472 49.8965 11.5935 50.6759 11.1462 51.0856C10.4648 51.7098 10.2377 52.1779 10.2377 52.1779L10.4648 52.412C10.4648 51.9439 10.7677 51.8659 10.7677 51.8659L10.692 52.412C11.3075 52.9523 12.1495 53.1811 13.0258 53.2374C12.7855 53.6151 12.4487 53.9171 12.0526 54.1104L10.6187 54.427C10.3253 54.4059 9.89362 54.4929 9.46181 55.0064C8.69917 55.9132 7.93652 56.82 7.93652 56.82L8.03171 56.9279C7.45728 57.4689 6.27935 58.6485 6.05925 59.4196C5.76592 60.4474 7.17388 60.5683 7.17388 60.5683L10.2244 60.8706C10.2244 60.8706 10.2831 62.3215 10.8111 62.5029C10.9025 62.5343 10.9649 62.4816 11.0065 62.3753C11.0017 62.4976 10.9966 62.5938 10.9928 62.6575C10.5095 63.1165 10.1726 64.3366 9.93912 65.7931C9.84689 66.3655 9.77003 66.9738 9.70752 67.5884H18.3187C18.3197 67.5441 18.3197 67.5018 18.3197 67.4606C18.3197 67.2716 18.3125 67.0836 18.2992 66.8988C18.2707 66.527 18.2176 66.1575 18.1404 65.7931C17.8537 64.5131 17.3445 63.2972 16.6374 62.2042L20.0772 65.0612C20.0772 65.0612 20.0185 67.4794 21.0158 67.419C22.0131 67.3585 21.0077 64.6314 21.0077 64.6314L17.9095 61.6565ZM7.93652 59.2383L9.03127 58.061L9.10982 58.1501L10.1168 57.522C10.2818 58.0836 10.4744 58.6363 10.6938 59.1778C10.802 59.4768 10.8774 59.7873 10.9183 60.1036L7.93652 59.2383ZM16.5571 62.0821C16.5356 62.0494 16.5151 62.0198 16.4977 61.9934L16.4963 61.9915C16.4712 61.8643 16.3557 61.3322 16.1496 61.1729C15.9149 60.9915 16.1496 61.1729 16.3256 60.8706C16.5016 60.5683 16.2083 60.6892 16.0909 60.6288C15.9736 60.5683 15.8563 60.2056 16.3256 59.5406C16.3638 59.483 16.3956 59.4211 16.4205 59.3563L16.5571 62.0821Z" fill="#E6E6E6"/>
<path d="M28.7107 64.5254H20.5979V74.03H29.8209V65.6694L28.7107 64.5254Z" fill="#EC0000"/>
<path d="M25.2094 71.4951C24.7838 71.4951 24.3677 71.365 24.0138 71.1213C23.6599 70.8776 23.3841 70.5312 23.2212 70.126C23.0583 69.7208 23.0157 69.2749 23.0987 68.8447C23.1818 68.4145 23.3867 68.0193 23.6877 67.7091C23.9887 67.399 24.3721 67.1878 24.7896 67.1022C25.207 67.0166 25.6397 67.0605 26.033 67.2284C26.4262 67.3962 26.7623 67.6805 26.9988 68.0452C27.2352 68.4099 27.3615 68.8387 27.3615 69.2773C27.3608 69.8653 27.1339 70.429 26.7304 70.8447C26.327 71.2605 25.78 71.4944 25.2094 71.4951ZM25.2094 67.2708C24.8243 67.2708 24.4479 67.3885 24.1277 67.6089C23.8075 67.8294 23.5579 68.1428 23.4105 68.5094C23.2632 68.8761 23.2246 69.2795 23.2997 69.6688C23.3749 70.058 23.5603 70.4155 23.8326 70.6961C24.1049 70.9768 24.4519 71.1679 24.8296 71.2453C25.2073 71.3227 25.5987 71.283 25.9545 71.1311C26.3103 70.9792 26.6144 70.7221 26.8284 70.3921C27.0423 70.0621 27.1565 69.6742 27.1565 69.2773C27.1559 68.7453 26.9506 68.2353 26.5856 67.8592C26.2205 67.483 25.7256 67.2714 25.2094 67.2708Z" fill="white"/>
<path d="M28.7107 39.708H20.5979V49.2126H29.8209V40.852L28.7107 39.708Z" fill="#EC0000"/>
<path d="M25.2094 46.6777C24.7838 46.6777 24.3677 46.5476 24.0138 46.3039C23.6599 46.0602 23.3841 45.7138 23.2212 45.3086C23.0583 44.9034 23.0157 44.4575 23.0987 44.0273C23.1818 43.5971 23.3867 43.2019 23.6877 42.8917C23.9887 42.5816 24.3721 42.3704 24.7896 42.2848C25.207 42.1992 25.6397 42.2431 26.033 42.411C26.4262 42.5789 26.7623 42.8631 26.9988 43.2278C27.2352 43.5925 27.3615 44.0213 27.3615 44.4599C27.3608 45.0479 27.1339 45.6116 26.7304 46.0273C26.327 46.4431 25.78 46.677 25.2094 46.6777ZM25.2094 42.4534C24.8243 42.4534 24.4479 42.5711 24.1277 42.7916C23.8075 43.012 23.5579 43.3254 23.4105 43.6921C23.2632 44.0587 23.2246 44.4621 23.2997 44.8514C23.3749 45.2406 23.5603 45.5981 23.8326 45.8787C24.1049 46.1594 24.4519 46.3505 24.8296 46.4279C25.2073 46.5053 25.5987 46.4656 25.9545 46.3137C26.3103 46.1618 26.6144 45.9047 26.8284 45.5747C27.0423 45.2447 27.1565 44.8568 27.1565 44.4599C27.1559 43.9279 26.9506 43.4179 26.5856 43.0418C26.2205 42.6656 25.7256 42.454 25.2094 42.4534Z" fill="white"/>
<path d="M28.7107 15.7354H20.5979V25.2399H29.8209V16.8794L28.7107 15.7354Z" fill="#EC0000"/>
<path d="M25.2094 22.705C24.7838 22.705 24.3677 22.5749 24.0138 22.3312C23.6599 22.0876 23.3841 21.7412 23.2212 21.336C23.0583 20.9307 23.0157 20.4848 23.0987 20.0546C23.1818 19.6244 23.3867 19.2292 23.6877 18.9191C23.9887 18.6089 24.3721 18.3977 24.7896 18.3121C25.207 18.2266 25.6397 18.2705 26.033 18.4383C26.4262 18.6062 26.7623 18.8905 26.9988 19.2552C27.2352 19.6199 27.3615 20.0486 27.3615 20.4873C27.3608 21.0752 27.1339 21.6389 26.7304 22.0547C26.327 22.4705 25.78 22.7043 25.2094 22.705ZM25.2094 18.4807C24.8243 18.4807 24.4479 18.5984 24.1277 18.8189C23.8075 19.0394 23.5579 19.3528 23.4105 19.7194C23.2632 20.086 23.2246 20.4895 23.2997 20.8787C23.3749 21.2679 23.5603 21.6255 23.8326 21.9061C24.1049 22.1867 24.4519 22.3778 24.8296 22.4552C25.2073 22.5327 25.5987 22.4929 25.9545 22.341C26.3103 22.1892 26.6144 21.932 26.8284 21.602C27.0423 21.2721 27.1565 20.8841 27.1565 20.4873C27.1559 19.9553 26.9506 19.4453 26.5856 19.0691C26.2205 18.6929 25.7256 18.4813 25.2094 18.4807Z" fill="white"/>
<path d="M66.2117 65.5533C66.2117 65.5533 66.2117 72.7617 64.6063 74.6524C64.6063 74.6524 64.2623 75.5978 64.1477 75.9523C64.0836 76.1541 64.0069 76.3514 63.9183 76.5431V77.0158C63.9183 77.0158 60.8223 76.6613 60.4783 75.8341L61.0516 75.1251C61.0516 75.1251 61.1663 75.0069 61.0516 74.6524C61.032 74.6138 61.0228 74.5705 61.025 74.5269C61.0272 74.4834 61.0408 74.4413 61.0643 74.4051C61.0877 74.3688 61.1202 74.3397 61.1583 74.3209C61.1965 74.302 61.2388 74.2941 61.281 74.2979L62.0836 72.4072L61.969 64.608L62.5423 53.8545L67.473 53.6182L66.2117 65.5533Z" fill="#2F2E41"/>
<path d="M63.6891 76.3067C63.6891 76.3067 64.4918 78.7882 63.6891 78.9064C62.8864 79.0246 55.8916 79.1427 56.0063 78.1974C56.1209 77.252 58.4143 77.3702 58.4143 77.3702L60.8224 75.834L63.6891 76.3067Z" fill="#2F2E41"/>
<path d="M70.7984 53.8545C70.7984 53.8545 71.0277 55.3907 70.1104 57.0451C69.193 58.6995 69.7664 64.2535 69.7664 64.2535L77.9079 71.58C77.9079 71.58 76.3025 74.4161 75.7292 74.2979C75.1558 74.1797 66.097 66.6169 66.097 66.6169L62.5422 54.3272L70.7984 53.8545Z" fill="#2F2E41"/>
<path d="M77.796 71.2666C77.796 71.2666 80.2597 71.8964 79.9268 72.6584C79.594 73.4203 75.9462 79.572 75.2327 78.9661C74.5193 78.3602 75.8439 76.4272 75.8439 76.4272L75.8739 73.5088L77.796 71.2666Z" fill="#2F2E41"/>
<path d="M66.3264 34.5921C67.7829 34.5921 68.9637 33.3752 68.9637 31.8742C68.9637 30.3731 67.7829 29.1562 66.3264 29.1562C64.8698 29.1562 63.689 30.3731 63.689 31.8742C63.689 33.3752 64.8698 34.5921 66.3264 34.5921Z" fill="#A0616A"/>
<path d="M68.4014 32.834L68.2847 36.3314L66.0656 37.235C66.0656 37.235 65.848 33.6539 65.5408 33.4553C65.2336 33.2568 68.4014 32.834 68.4014 32.834Z" fill="#A0616A"/>
<path d="M65.5237 37.6655C65.5237 37.6655 68.6198 34.4749 69.4225 34.593C70.2251 34.7112 70.2251 35.0657 70.2251 35.3021C70.2251 35.5384 69.9958 35.6566 70.2251 35.7747C70.4545 35.8929 70.6838 35.7747 70.6838 36.1293C70.6838 36.4838 72.7479 40.0289 72.0598 43.9285C71.3718 47.8281 70.5691 49.7188 70.9132 51.8459C71.2572 53.9729 71.0278 54.4456 71.0278 54.4456C71.0278 54.4456 62.4277 55.1546 62.313 54.3274C62.1983 53.5002 62.657 53.9729 62.0836 53.3821C61.5103 52.7912 61.7396 52.7912 61.7396 52.4367C61.7396 52.0822 64.2623 37.6655 65.5237 37.6655Z" fill="#575A89"/>
<path d="M67.1292 53.7364C67.1292 53.7364 65.7531 57.1633 64.7211 56.3361C63.6891 55.5089 65.1798 52.6729 65.1798 52.6729L67.1292 53.7364Z" fill="#A0616A"/>
<path d="M70.4545 37.9014C70.4545 37.9014 73.1487 38.2193 72.1456 43.3189C71.1426 48.4186 67.2438 54.3271 67.2438 54.3271L64.6064 53.0272L68.0465 46.0552L67.2438 41.6829C67.2438 41.6829 66.7852 37.5469 70.4545 37.9014Z" fill="#575A89"/>
<path opacity="0.2" d="M68.1035 46.1143L64.3196 52.6136L64.6635 52.9681L68.1035 46.1143Z" fill="black"/>
<path opacity="0.2" d="M70.1068 49.1426L67.0718 54.2675H68.1037L70.1068 49.1426Z" fill="black"/>
<path d="M67.5201 33.5082C67.3065 33.3918 67.0585 33.3678 66.8274 33.2955C66.0006 33.0368 65.4467 32.0736 65.6235 31.202C65.6562 31.0902 65.6709 30.9736 65.667 30.8569C65.6361 30.5988 65.3797 30.4322 65.1339 30.3731C64.8882 30.3139 64.6266 30.3225 64.3917 30.2274C64.029 30.0806 63.788 29.6964 63.7358 29.2984C63.6983 28.8955 63.7854 28.4907 63.9846 28.1418L64.0733 28.4051C64.2087 28.287 64.3093 28.1321 64.3634 27.958C64.4643 27.9755 64.5592 28.0193 64.6389 28.0854C64.7186 28.1515 64.7806 28.2375 64.8188 28.3354C64.9613 28.4219 64.9818 28.0663 65.1392 28.0138C65.2085 28.0049 65.2785 28.0227 65.3357 28.0638C65.6529 28.2162 66.0214 28.0859 66.3617 28.0014C66.9509 27.8557 67.565 27.855 68.1546 27.9992C68.5462 28.0955 68.9339 28.2631 69.2141 28.561C69.4333 28.8175 69.6017 29.1157 69.7098 29.4388C70.0104 30.2183 70.209 31.0619 70.1097 31.8945C70.0271 32.5758 69.7505 33.2167 69.3148 33.7362C69.0879 34.0057 68.3474 34.9458 67.9414 34.7855C67.4313 34.5841 68.1212 33.8357 67.5201 33.5082Z" fill="#2F2E41"/>
<path opacity="0.2" d="M63.2508 58.4567L63.0984 58.5166L66.1159 66.6698L66.2683 66.6099L63.2508 58.4567Z" fill="black"/>
<path d="M65.5401 38.3138C65.6302 38.3138 65.7032 38.2385 65.7032 38.1456C65.7032 38.0528 65.6302 37.9775 65.5401 37.9775C65.45 37.9775 65.377 38.0528 65.377 38.1456C65.377 38.2385 65.45 38.3138 65.5401 38.3138Z" fill="#D0CDE1"/>
<path d="M64.1533 42.8525C64.1707 42.8525 64.1877 42.8468 64.2017 42.8361C64.2157 42.8254 64.2261 42.8104 64.2312 42.7932L65.6177 38.1704C65.6241 38.1491 65.622 38.1261 65.6119 38.1063C65.6018 38.0866 65.5846 38.0719 65.5639 38.0653C65.5537 38.062 65.5429 38.0609 65.5323 38.0619C65.5216 38.0629 65.5112 38.0661 65.5018 38.0712C65.4826 38.0816 65.4683 38.0994 65.4619 38.1207L64.0754 42.7437C64.0716 42.7562 64.0708 42.7695 64.0729 42.7825C64.0751 42.7955 64.0801 42.8077 64.0877 42.8183C64.0953 42.8289 64.1052 42.8375 64.1166 42.8434C64.1279 42.8494 64.1405 42.8525 64.1533 42.8525V42.8525Z" fill="#D0CDE1"/>
</svg>
