<svg width="32" height="40" viewBox="0 0 32 40" fill="none" xmlns="http://www.w3.org/2000/svg">
<path d="M27.7565 17.0108V10.6763C27.7754 7.81005 26.5051 5.05406 24.2376 3.04431C22.0453 1.07696 19.1755 0 16.1364 0C16.0894 0 16.0329 0 15.9859 0C9.50309 0.00847997 4.23405 4.79118 4.23405 10.6763V17.0108C1.78771 17.2737 0 19.1223 0 21.361V35.5904C0 38.0072 2.14525 40 4.82682 40H27.1732C29.8547 40 32 38.0072 32 35.5904V21.361C31.9906 19.1308 30.2029 17.2737 27.7565 17.0108ZM6.10644 10.6763H6.11585C6.11585 5.72398 10.5475 1.67055 15.9953 1.67055H16.0047C18.5922 1.66207 21.0762 2.58639 22.9109 4.2315C24.8209 5.93598 25.8842 8.25949 25.8653 10.6763V17.0193H23.7954V10.6763C23.8142 8.75133 22.9674 6.90269 21.4525 5.5459C20.0223 4.25694 18.0841 3.52767 16.0612 3.52767H16.0047C11.6766 3.52767 8.17642 6.73309 8.17642 10.6678V17.0193H6.10644V10.6763ZM21.923 10.6763V17.0193H10.0676V10.6763C10.0676 7.67437 12.721 5.23214 16.0141 5.23214H16.0706C17.5948 5.23214 19.0626 5.78334 20.1447 6.75853C21.2926 7.79309 21.9418 9.20924 21.923 10.6763ZM30.2029 35.6159C30.2029 37.0999 28.8668 38.304 27.2202 38.304H4.86445C3.21788 38.304 1.8818 37.0999 1.8818 35.6159V21.4034C1.8818 19.9194 3.21788 18.7153 4.86445 18.7153H27.2202C28.8668 18.7153 30.2029 19.9194 30.2029 21.4034V35.6159Z" fill="#284940"/>
<path d="M19.251 27.9828C18.837 26.6684 17.5104 25.7695 15.9955 25.7695C14.1231 25.7695 12.5989 27.1348 12.5989 28.8308C12.5989 30.1961 13.5962 31.3917 15.0546 31.7649V34.1393C15.0546 34.6057 15.478 34.9873 15.9955 34.9873C16.513 34.9873 16.9364 34.6057 16.9364 34.1393V31.7649C18.7335 31.2985 19.7779 29.6025 19.251 27.9828ZM15.9955 30.1876C15.1581 30.1876 14.4807 29.577 14.4807 28.8223C14.4807 28.0676 15.1581 27.457 15.9955 27.457C16.8329 27.457 17.5104 28.0676 17.5104 28.8223C17.5104 29.577 16.8329 30.1876 15.9955 30.1876Z" fill="#284940"/>
</svg>
