<svg width="106" height="76" viewBox="0 0 106 76" fill="none" xmlns="http://www.w3.org/2000/svg">
<g clip-path="url(#clip0)">
<path d="M106 75.9997C100.538 75.2024 95.2854 74.5152 90.2418 73.9379L92.2361 70.7217C91.5638 70.5238 88.6097 72.3572 88.6097 72.3572L91.2277 63.0067C87.8462 63.3314 86.1255 72.8832 86.1255 72.8832L82.3481 69.6337L84.1766 73.2759C68.7402 71.688 55.4087 71.0642 44.1953 70.9922L45.9023 68.2395C45.23 68.0415 42.2758 69.875 42.2758 69.875L44.8938 60.5245C41.5123 60.8491 39.7917 70.401 39.7917 70.401L36.0142 67.1515L37.9508 71.0091C28.5502 71.1227 20.8841 71.6227 14.9669 72.2057C16.6937 67.9131 22.558 63.85 22.558 63.85C18.0798 64.9406 15.7305 66.7918 14.5028 68.5222C14.409 63.2118 15.0403 53.3699 19.7306 42.4922C19.7306 42.4922 10.4721 59.2546 11.6515 70.5404L11.7924 72.5441C3.94528 73.4454 0 74.4025 0 74.4025L106 75.9997Z" fill="#3F3D56"/>
<path d="M56.364 3.04404V70.7799C56.3632 71.5868 56.041 72.3603 55.4683 72.9307C54.8956 73.5011 54.1192 73.8216 53.3095 73.8218H25.7161C25.315 73.8225 24.9176 73.7443 24.5469 73.5917C24.1761 73.4391 23.8392 73.2151 23.5554 72.9325C23.2717 72.65 23.0467 72.3144 22.8933 71.945C22.7399 71.5756 22.6612 71.1796 22.6616 70.7799V3.04404C22.6616 2.64428 22.7406 2.24843 22.8941 1.87909C23.0476 1.50976 23.2725 1.17417 23.5562 0.891501C23.8398 0.608829 24.1766 0.384608 24.5472 0.231643C24.9178 0.0786781 25.315 -3.44443e-05 25.7161 1.42815e-07H29.8454V0.527716C29.8454 1.19244 30.1102 1.82997 30.5818 2.3001C31.0533 2.77022 31.6929 3.03444 32.3599 3.03463H46.3941C46.931 3.03577 47.4539 2.86426 47.8852 2.54558C47.9724 2.48238 48.0551 2.41325 48.1327 2.33867C48.3783 2.10491 48.5737 1.82386 48.7071 1.51256C48.8405 1.20126 48.9091 0.866207 48.9086 0.527716V1.42815e-07H53.3095C53.7106 -0.000122332 54.1079 0.0785306 54.4785 0.231464C54.8492 0.384398 55.186 0.608615 55.4696 0.891305C55.7533 1.17399 55.9783 1.50961 56.1317 1.87899C56.2852 2.24836 56.3641 2.64425 56.364 3.04404Z" fill="#3F3D56"/>
<path d="M30.3488 12.0177C30.7541 12.0177 31.0828 11.6902 31.0828 11.2862C31.0828 10.8822 30.7541 10.5547 30.3488 10.5547C29.9434 10.5547 29.6147 10.8822 29.6147 11.2862C29.6147 11.6902 29.9434 12.0177 30.3488 12.0177Z" fill="#F2F2F2"/>
<path d="M48.1325 2.33887C48.0549 2.41344 47.9722 2.48258 47.885 2.54577C48.784 4.12232 50.0019 5.4955 51.4614 6.57825C52.921 7.66099 54.5904 8.42967 56.3638 8.83553V8.50949C54.6383 8.10384 53.016 7.34605 51.5992 6.28396C50.1824 5.22187 49.002 3.87857 48.1325 2.33887Z" fill="#EC0000"/>
<path d="M41.861 3.03418H41.5171C42.7381 6.12587 44.7519 8.84407 47.3572 10.9171C49.9626 12.9902 53.0683 14.3456 56.3639 14.8477V14.5238C53.1541 14.027 50.1292 12.7065 47.5864 10.6921C45.0437 8.67764 43.0706 6.03856 41.861 3.03418Z" fill="#EC0000"/>
<path d="M35.5254 3.03418H35.1941C37.9655 12.6209 46.3279 19.757 56.3639 20.9159V20.5972C46.502 19.4436 38.2832 12.4432 35.5254 3.03418Z" fill="#EC0000"/>
<path d="M27.9368 16.7011H27.7457V16.5107H27.7085V16.7011H27.5173V16.7383H27.7085V16.9287H27.7457V16.7383H27.9368V16.7011Z" fill="#F2F2F2"/>
<path d="M40.8345 7.19137H40.6434V7.00098H40.6062V7.19137H40.415V7.22857H40.6062V7.41897H40.6434V7.22857H40.8345V7.19137Z" fill="#F2F2F2"/>
<path d="M29.8242 24.2246H29.6332V24.0342H29.5959V24.2246H29.4048V24.2618H29.5959V24.4522H29.6332V24.2618H29.8242V24.2246Z" fill="#F2F2F2"/>
<path d="M38.6323 18.6865H38.4413V18.4961H38.4041V18.6865H38.2129V18.7237H38.4041V18.9141H38.4413V18.7237H38.6323V18.6865Z" fill="#F2F2F2"/>
<path d="M51.2153 22.1347H51.0243V21.9443H50.9871V22.1347H50.7959V22.1719H50.9871V22.3623H51.0243V22.1719H51.2153V22.1347Z" fill="#F2F2F2"/>
<path d="M49.0134 13.4805C49.2451 13.4805 49.4329 13.2934 49.4329 13.0625C49.4329 12.8317 49.2451 12.6445 49.0134 12.6445C48.7818 12.6445 48.594 12.8317 48.594 13.0625C48.594 13.2934 48.7818 13.4805 49.0134 13.4805Z" fill="#FF6584"/>
<path d="M33.9873 22.8643L33.7493 22.9008C33.8237 23.3753 33.8824 23.8601 33.9254 24.3398L34.1655 24.3189C34.1225 23.833 34.0628 23.3439 33.9873 22.8643Z" fill="#E6E6E6"/>
<path d="M33.3362 20.0078L33.1055 20.0778C33.2449 20.5376 33.3697 21.0089 33.4756 21.4781L33.7115 21.4248C33.6035 20.9504 33.4767 20.4739 33.3362 20.0078Z" fill="#E6E6E6"/>
<path d="M32.297 17.2666L32.0779 17.3669C32.2792 17.8048 32.468 18.2541 32.6389 18.7035L32.8643 18.6188C32.6913 18.1642 32.5015 17.7086 32.297 17.2666Z" fill="#E6E6E6"/>
<path d="M30.8919 14.6982L30.6885 14.8268C30.9475 15.2322 31.196 15.6523 31.4267 16.0734L31.6385 15.9585C31.4057 15.5321 31.154 15.1079 30.8919 14.6982Z" fill="#E6E6E6"/>
<path d="M29.1449 12.3447L28.9614 12.5004C29.2739 12.8662 29.578 13.2486 29.8653 13.6353L30.0582 13.4921C29.7688 13.1013 29.4616 12.7146 29.1449 12.3447Z" fill="#E6E6E6"/>
<path d="M27.0918 10.248L26.9314 10.4267C27.2921 10.7476 27.6455 11.0851 27.9821 11.4289L28.1551 11.2606C27.8143 10.9127 27.4567 10.572 27.0918 10.248Z" fill="#E6E6E6"/>
<path d="M24.7722 8.44922L24.637 8.64777C25.0375 8.91633 25.4339 9.20265 25.8145 9.49838L25.9634 9.30924C25.5775 9.01038 25.177 8.72092 24.7722 8.44922Z" fill="#E6E6E6"/>
<path d="M22.6614 7.19922V7.47091C22.912 7.60154 23.1605 7.73843 23.4038 7.87846L23.5244 7.67051C23.2412 7.50748 22.9536 7.35039 22.6614 7.19922Z" fill="#E6E6E6"/>
<path d="M33.9326 45.4366C33.9717 45.2029 34.0075 44.9643 34.039 44.7275L34.278 44.7591C34.2462 44.9986 34.21 45.2397 34.1705 45.4761L33.9326 45.4366Z" fill="#E6E6E6"/>
<path d="M33.2607 48.2553L33.4912 48.3268C33.6357 47.8624 33.7666 47.3867 33.8799 46.9128L33.6451 46.8574C33.5328 47.3262 33.4043 47.796 33.2607 48.2553Z" fill="#E6E6E6"/>
<path d="M32.2078 50.9547L32.4265 51.0569C32.6345 50.6172 32.8292 50.1641 33.0058 49.7105L32.7808 49.623C32.6063 50.0717 32.4137 50.5199 32.2078 50.9547Z" fill="#E6E6E6"/>
<path d="M30.791 53.4868L30.9932 53.6176C31.2599 53.2102 31.5157 52.7877 31.7539 52.3627L31.5436 52.2451C31.3086 52.6654 31.0548 53.083 30.791 53.4868Z" fill="#E6E6E6"/>
<path d="M29.0381 55.801L29.2208 55.9588C29.5416 55.5901 29.8526 55.2066 30.1474 54.8187L29.9543 54.6748C29.6637 55.0582 29.3558 55.437 29.0381 55.801Z" fill="#E6E6E6"/>
<path d="M26.9854 57.8533L27.1441 58.0339C27.5128 57.7134 27.8734 57.3752 28.2179 57.0316L28.0474 56.8613C27.7068 57.2015 27.3493 57.535 26.9854 57.8533Z" fill="#E6E6E6"/>
<path d="M24.6731 59.608L24.8063 59.8091C25.2134 59.5412 25.6177 59.2556 26.0057 58.9614L25.8599 58.7695C25.4757 59.0613 25.0763 59.3436 24.6731 59.608Z" fill="#E6E6E6"/>
<path d="M23.5516 60.5722C23.2601 60.7363 22.9623 60.8951 22.6614 61.0456V60.776C22.9214 60.6443 23.1794 60.5053 23.4321 60.3643L23.5516 60.5722Z" fill="#E6E6E6"/>
<path d="M34.0034 25.8217L34.2444 25.8174C34.2489 26.0599 34.2492 26.3038 34.2454 26.5422L34.0044 26.5384C34.0081 26.3027 34.0078 26.0616 34.0034 25.8217Z" fill="#E6E6E6"/>
<path d="M23.7207 31.5205H48.3844C50.2198 31.5205 51.9801 32.2471 53.278 33.5406C54.5758 34.834 55.305 36.5882 55.305 38.4174V39.3303H30.6413C28.8059 39.3303 27.0456 38.6037 25.7477 37.3103C24.4498 36.0169 23.7207 34.2626 23.7207 32.4334V31.5205Z" fill="white"/>
<path d="M40.0889 73.7257C40.0649 73.6865 39.4975 72.7423 39.3007 70.7818C39.1203 68.9831 39.2363 65.9512 40.8141 61.722C43.8032 53.71 40.1253 47.2455 40.0877 47.1811L40.2691 47.0762C40.2787 47.0925 41.2277 48.7407 41.7884 51.3652C42.5291 54.8447 42.2594 58.4626 41.0107 61.7948C38.0268 69.7931 40.2452 73.5795 40.2679 73.6168L40.0889 73.7257Z" fill="#F2F2F2"/>
<path d="M38.9203 46.7111C39.6731 46.7111 40.2834 46.1029 40.2834 45.3526C40.2834 44.6024 39.6731 43.9941 38.9203 43.9941C38.1674 43.9941 37.5571 44.6024 37.5571 45.3526C37.5571 46.1029 38.1674 46.7111 38.9203 46.7111Z" fill="#EC0000"/>
<path d="M43.2194 51.7267C43.9722 51.7267 44.5825 51.1185 44.5825 50.3682C44.5825 49.618 43.9722 49.0098 43.2194 49.0098C42.4665 49.0098 41.8562 49.618 41.8562 50.3682C41.8562 51.1185 42.4665 51.7267 43.2194 51.7267Z" fill="#F2F2F2"/>
<path d="M40.2833 55.0705C41.0362 55.0705 41.6465 54.4623 41.6465 53.712C41.6465 52.9617 41.0362 52.3535 40.2833 52.3535C39.5305 52.3535 38.9202 52.9617 38.9202 53.712C38.9202 54.4623 39.5305 55.0705 40.2833 55.0705Z" fill="#EC0000"/>
<path d="M43.8485 57.8918C44.6014 57.8918 45.2117 57.2836 45.2117 56.5333C45.2117 55.783 44.6014 55.1748 43.8485 55.1748C43.0957 55.1748 42.4854 55.783 42.4854 56.5333C42.4854 57.2836 43.0957 57.8918 43.8485 57.8918Z" fill="#EC0000"/>
<path d="M39.2347 62.2814C39.9876 62.2814 40.5979 61.6732 40.5979 60.9229C40.5979 60.1727 39.9876 59.5645 39.2347 59.5645C38.4819 59.5645 37.8716 60.1727 37.8716 60.9229C37.8716 61.6732 38.4819 62.2814 39.2347 62.2814Z" fill="#F2F2F2"/>
<path d="M40.9124 73.7757C40.9124 73.7757 39.5493 70.4318 43.6387 67.9238L40.9124 73.7757Z" fill="#F2F2F2"/>
<path d="M39.236 73.7152C39.236 73.7152 38.6156 70.1592 33.814 70.1896L39.236 73.7152Z" fill="#F2F2F2"/>
<path opacity="0.2" d="M33.809 43.7842C38.442 43.7842 42.1977 40.0413 42.1977 35.4243C42.1977 30.8073 38.442 27.0645 33.809 27.0645C29.1761 27.0645 25.4204 30.8073 25.4204 35.4243C25.4204 40.0413 29.1761 43.7842 33.809 43.7842Z" fill="#EC0000"/>
<path opacity="0.2" d="M33.8091 41.3125C37.0717 41.3125 39.7166 38.6767 39.7166 35.4253C39.7166 32.1739 37.0717 29.5381 33.8091 29.5381C30.5465 29.5381 27.9016 32.1739 27.9016 35.4253C27.9016 38.6767 30.5465 41.3125 33.8091 41.3125Z" fill="#EC0000"/>
<path d="M33.8089 39.3102C35.9622 39.3102 37.7078 37.5706 37.7078 35.4246C37.7078 33.2787 35.9622 31.5391 33.8089 31.5391C31.6555 31.5391 29.9099 33.2787 29.9099 35.4246C29.9099 37.5706 31.6555 39.3102 33.8089 39.3102Z" fill="#EC0000"/>
<path d="M34.5179 34.5875C34.5179 34.4683 34.4877 34.351 34.43 34.2466C34.3723 34.1421 34.289 34.0539 34.1879 33.9902C34.0867 33.9265 33.9711 33.8893 33.8517 33.8821C33.7323 33.875 33.613 33.898 33.5049 33.9492C33.3968 34.0003 33.3035 34.0779 33.2336 34.1747C33.1637 34.2714 33.1196 34.3843 33.1052 34.5026C33.0909 34.621 33.1068 34.741 33.1516 34.8516C33.1963 34.9622 33.2684 35.0597 33.3612 35.135L33.1001 36.9563H34.5179L34.2568 35.135C34.3385 35.0688 34.4043 34.9854 34.4494 34.8906C34.4946 34.7959 34.518 34.6924 34.5179 34.5875Z" fill="white"/>
<path d="M72.9923 5.56947C72.9923 5.56947 70.6537 3.48004 67.5088 7.41782C64.3639 11.3556 59.4449 13.2843 58.3159 14.8112C58.3159 14.8112 62.993 12.8825 64.6058 12.0789C66.2186 11.2752 66.1379 11.436 66.1379 11.436C66.1379 11.436 63.9607 12.9628 63.5575 14.4897C63.1543 16.0166 63.4768 17.3024 62.7511 18.8293C62.0253 20.3562 76.621 19.874 76.621 19.874C76.621 19.874 78.0725 17.3828 77.6693 14.8112C77.2661 12.2396 77.508 5.89093 72.9923 5.56947Z" fill="#2F2E41"/>
<path d="M68.5691 12.1426C68.5691 12.1426 69.0776 15.69 66.8983 16.4863C64.7189 17.2827 65.518 18.3686 65.518 18.3686L68.787 19.9613L72.274 18.8754L73.4363 17.1379C73.4363 17.1379 71.5475 16.7035 72.0561 15.4004C72.5646 14.0973 72.7099 13.6629 72.7099 13.6629L68.5691 12.1426Z" fill="#FFB9B9"/>
<path opacity="0.1" d="M68.5691 12.1426C68.5691 12.1426 69.0776 15.69 66.8983 16.4863C64.7189 17.2827 65.518 18.3686 65.518 18.3686L68.787 19.9613L72.274 18.8754L73.4363 17.1379C73.4363 17.1379 71.5475 16.7035 72.0561 15.4004C72.5646 14.0973 72.7099 13.6629 72.7099 13.6629L68.5691 12.1426Z" fill="black"/>
<path d="M77.7223 22.2783C77.7223 22.2783 77.2138 28.9387 77.3591 29.2283C77.5044 29.5179 77.3591 39.5809 77.3591 39.5809C77.3591 39.5809 78.3761 45.0105 77.0685 45.3001C75.7609 45.5897 76.0515 39.2189 76.0515 39.2189L74.7439 30.821L74.8892 22.4955L77.7223 22.2783Z" fill="#FFB9B9"/>
<path opacity="0.1" d="M77.7223 22.2783C77.7223 22.2783 77.2138 28.9387 77.3591 29.2283C77.5044 29.5179 77.3591 39.5809 77.3591 39.5809C77.3591 39.5809 78.3761 45.0105 77.0685 45.3001C75.7609 45.5897 76.0515 39.2189 76.0515 39.2189L74.7439 30.821L74.8892 22.4955L77.7223 22.2783Z" fill="black"/>
<path d="M63.5567 42.332C63.5567 42.332 61.1594 51.3815 61.2321 55.7976C61.3047 60.2137 62.2491 66.3673 62.2491 66.3673C62.2491 66.3673 62.3944 69.046 62.1765 69.3356C61.9585 69.6251 63.2661 70.8559 63.2661 70.8559L64.6464 70.0595L65.1549 69.4804V68.9736C65.1549 68.9736 64.3558 66.5121 65.0096 64.5575C65.6634 62.6028 66.0266 57.6799 65.3728 56.1596L69.8768 42.8388L63.5567 42.332Z" fill="#FFB9B9"/>
<path d="M63.4115 69.698C63.4115 69.698 62.5398 68.6121 61.9586 68.9741C61.3775 69.3361 60.4331 71.7975 60.4331 71.7975C60.4331 71.7975 57.1641 74.9105 59.4887 75.0553C61.8133 75.2001 62.8304 74.4038 63.1209 73.8246C63.4115 73.2454 66.0994 71.7251 66.0994 71.7251C66.0994 71.7251 65.8088 68.9741 65.3729 68.9017C64.9371 68.8293 64.2833 69.9876 64.2833 69.9876L63.4115 69.698Z" fill="#2F2E41"/>
<path d="M71.475 42.9111V51.8882C71.4835 52.9774 71.5562 54.0652 71.693 55.146C71.9109 56.7387 70.458 68.6115 70.458 68.6115L70.6033 70.711L72.4194 70.5662L72.6373 68.7563L75.2526 60.7928C75.2526 60.7928 76.1243 55.9423 75.6884 54.1324C75.2526 52.3225 77.9404 40.7393 77.9404 40.7393L71.475 42.9111Z" fill="#FFB9B9"/>
<path d="M70.0223 70.2043L70.5603 70.0877C70.5603 70.0877 70.9666 69.1908 71.4752 69.4079C71.833 69.5724 72.172 69.7748 72.4863 70.0117L72.7101 70.4215C72.7101 70.4215 73.2186 71.5074 73.8724 72.2314C74.5262 72.9553 75.2527 74.548 74.163 74.6928C73.0733 74.8376 71.6204 74.91 71.1846 74.548C70.7487 74.186 71.0393 73.6069 70.6034 73.4621C70.1676 73.3173 69.8043 72.8829 69.877 72.7381C69.9496 72.5933 70.0223 70.2043 70.0223 70.2043Z" fill="#2F2E41"/>
<path d="M71.4749 14.6362C73.258 14.6362 74.7035 13.1957 74.7035 11.4187C74.7035 9.64171 73.258 8.20117 71.4749 8.20117C69.6918 8.20117 68.2463 9.64171 68.2463 11.4187C68.2463 13.1957 69.6918 14.6362 71.4749 14.6362Z" fill="#FFB9B9"/>
<path d="M65.3728 17.0653L66.3324 16.7314C66.3324 16.7314 65.954 17.3549 67.988 17.7169C70.0221 18.0788 72.1286 18.207 73.073 17.0208C73.073 17.0208 73.4364 16.8481 73.9449 17.3549C74.4534 17.8617 74.744 17.7169 74.744 17.7169L74.3807 19.5992L73.6543 23.0741L72.7099 25.6804L70.0221 25.1012L67.1163 23.0017L66.0266 20.1783V17.5721L65.3728 17.0653Z" fill="#EC0000"/>
<path d="M74.2354 18.0797L74.9618 17.573C74.9618 17.573 77.4317 18.0073 77.577 19.1657L75.6883 22.7854C76.0735 23.7926 76.0474 24.9102 75.6156 25.8984C74.8892 27.5635 74.9618 27.9255 74.9618 27.9255L74.4533 30.0974L65.2274 30.8213C65.2274 30.8213 64.8642 29.9526 64.7189 29.8078C64.5736 29.663 64.5736 29.1562 64.7189 29.1562C64.8642 29.1562 64.7189 28.9391 64.5736 28.7219C64.4283 28.5047 64.3557 28.4323 64.5736 28.1427C64.7916 27.8531 64.2104 25.2469 64.2104 25.2469V22.4235L61.7405 19.1657C61.7405 19.1657 62.6122 17.8625 63.0481 17.7178C63.484 17.573 65.5574 17.002 65.5574 17.002L66.0265 17.6904L66.6803 22.9302L67.6247 26.1156L71.601 25.4423L73.1457 22.8578L74.1627 19.8172L74.2354 18.0797Z" fill="#EC0000"/>
<path d="M76.9959 18.7305L77.577 19.1648C77.577 19.1648 78.0855 23.219 77.9403 23.5086C77.795 23.7981 75.2524 24.0877 75.1798 23.9429C75.1071 23.7982 76.9959 18.7305 76.9959 18.7305Z" fill="#EC0000"/>
<path d="M65.0096 16.7036L65.7361 21.4818C65.7361 21.4818 65.0823 28.5765 65.2276 30.0244L65.3728 30.4588C65.3728 30.4588 65.0823 30.314 65.0096 30.6036C64.937 30.8932 65.0096 31.8343 65.0096 31.8343C65.0096 31.8343 64.5737 32.2687 64.4285 34.6577C64.2832 37.0468 62.5397 42.766 63.1935 42.9832C63.8473 43.2004 67.7701 44.2864 69.8768 44.0692C71.9835 43.852 79.5386 41.3181 79.4659 40.6666C79.3933 40.015 75.761 30.8208 75.761 30.8208C75.761 30.8208 75.1072 29.7348 75.1072 29.5901C75.1072 29.4453 75.979 28.8661 75.761 28.2869C75.5431 27.7078 74.3808 21.6265 74.3808 21.6265L75.1799 17.2828L74.0902 16.9932L73.2911 21.1922C73.2911 21.1922 70.1674 22.7125 66.8984 21.337L66.1719 16.4141L65.0096 16.7036Z" fill="#2F2E41"/>
<path d="M68.5049 9.11002C68.5049 9.11002 73.8806 12.8022 75.3335 11.1371C76.7864 9.472 72.7909 8.02409 72.7909 8.02409L69.4493 7.66211L68.5049 9.11002Z" fill="#2F2E41"/>
<path d="M60.1523 48.3867C60.7057 48.7972 61.3902 48.9925 62.0776 48.936C62.7651 48.8794 63.4082 48.575 63.8866 48.0797C64.3649 47.5844 64.6455 46.9323 64.6759 46.2455C64.7063 45.5588 64.4843 44.8846 64.0515 44.3493C63.6187 43.814 63.0049 43.4543 62.3251 43.3378C61.6453 43.2212 60.9462 43.3557 60.3588 43.7161C59.7714 44.0765 59.3361 44.638 59.1344 45.2954C58.9327 45.9528 58.9786 46.6609 59.2633 47.287L51.8491 53.439L50.8619 52.2714L50.4184 52.5671L49.9248 51.9833L50.3304 51.6427L49.8368 51.0589L49.2059 51.5886L49.5097 51.9479L48.8337 52.5155L48.53 52.1562L47.5386 52.9887L47.9942 53.5276L48.3547 53.2249L48.8483 53.8087L48.3977 54.1871L49.3089 55.2649L48.2274 56.173L49.3285 57.4753L60.1523 48.3867ZM62.0035 44.2599C62.373 44.2913 62.7249 44.4313 63.0145 44.662C63.3042 44.8928 63.5188 45.2039 63.631 45.5562C63.7432 45.9084 63.7481 46.2859 63.6451 46.6409C63.542 46.9959 63.3357 47.3125 63.0521 47.5507C62.7685 47.7888 62.4204 47.9378 62.0518 47.9787C61.6833 48.0197 61.3108 47.9509 60.9815 47.7809C60.6522 47.6109 60.3809 47.3474 60.2019 47.0238C60.0228 46.7001 59.9441 46.3308 59.9757 45.9626C60.018 45.4688 60.2555 45.012 60.6357 44.6927C61.016 44.3734 61.508 44.2177 62.0035 44.2599V44.2599Z" fill="#EC0000"/>
<path d="M61.2321 23.1475C61.2321 23.1475 61.7406 29.8079 61.5953 30.0974C61.45 30.387 61.5953 40.45 61.5953 40.45C61.5953 40.45 60.5783 45.8797 61.8859 46.1693C63.1935 46.4588 62.9029 40.088 62.9029 40.088L64.2105 31.6901L64.0652 23.3646L61.2321 23.1475Z" fill="#FFB9B9"/>
<path d="M62.3218 18.9482L61.7407 19.1654C61.7407 19.1654 60.651 23.7263 60.9416 23.7263C61.2322 23.7263 64.7191 24.1607 64.7191 24.0159C64.7191 23.8711 64.0653 20.3238 64.0653 20.3238L62.3218 18.9482Z" fill="#EC0000"/>
</g>
<defs>
<clipPath id="clip0">
<rect width="106" height="76" fill="white"/>
</clipPath>
</defs>
</svg>
