<svg width="99" height="88" viewBox="0 0 99 88" fill="none" xmlns="http://www.w3.org/2000/svg">
<path d="M49.6958 1.23145L18.627 20.2543C18.627 20.2543 18.627 59.4888 49.6958 80.8895C80.7646 59.4888 80.7645 20.2543 80.7645 20.2543L49.6958 1.23145Z" fill="#3F3D56"/>
<path opacity="0.04" d="M49.8814 1.23145L49.3503 1.55662V80.5184C49.5267 80.6424 49.703 80.7665 49.8814 80.8894C80.9502 59.4888 80.9502 20.2542 80.9502 20.2542L49.8814 1.23145Z" fill="#EC0000"/>
<g opacity="0.7">
<path opacity="0.7" d="M42.1743 39.7797L48.0313 45.1215L55.2919 34.7002L58.2204 37.1283L48.0313 49.9778L39.7339 40.751L42.1743 39.7797Z" fill="url(#paint0_linear)"/>
</g>
<path d="M43.5566 40.1L48.3076 44.4332L55.0383 34.585L57.4139 36.5546L48.3076 48.3725L41.5769 40.8879L43.5566 40.1Z" fill="#3AD29F"/>
<path opacity="0.5" d="M19.0407 5.49654C18.9454 5.45527 18.8688 5.3806 18.8253 5.28674C18.7818 5.19288 18.7745 5.08638 18.8048 4.98753C18.8097 4.97237 18.8128 4.95669 18.814 4.94082C18.8168 4.89552 18.8048 4.85055 18.7799 4.81255C18.755 4.77455 18.7184 4.74555 18.6756 4.72985C18.6328 4.71414 18.5861 4.71257 18.5423 4.72536C18.4986 4.73815 18.4601 4.76462 18.4327 4.80085C18.4232 4.8137 18.4153 4.82762 18.4092 4.84232C18.3677 4.93707 18.2927 5.01335 18.1983 5.05662C18.104 5.09989 17.9969 5.10714 17.8976 5.07699C17.8824 5.07211 17.8666 5.06904 17.8506 5.06783C17.8051 5.06508 17.7599 5.07698 17.7217 5.10178C17.6835 5.12659 17.6544 5.16297 17.6386 5.20554C17.6228 5.24811 17.6212 5.29461 17.6341 5.33815C17.6469 5.38168 17.6736 5.41995 17.71 5.44726C17.7229 5.45666 17.7369 5.4645 17.7516 5.47063C17.8469 5.5119 17.9235 5.58657 17.967 5.68043C18.0105 5.77429 18.0178 5.88078 17.9875 5.97964C17.9826 5.9948 17.9795 6.01047 17.9783 6.02635C17.9755 6.07164 17.9875 6.11662 18.0124 6.15462C18.0374 6.19262 18.0739 6.22162 18.1167 6.23732C18.1595 6.25302 18.2062 6.2546 18.25 6.24181C18.2937 6.22902 18.3322 6.20255 18.3597 6.16632C18.3691 6.15346 18.377 6.13954 18.3831 6.12485C18.4246 6.03009 18.4997 5.95382 18.594 5.91055C18.6883 5.86727 18.7954 5.86002 18.8947 5.89018C18.91 5.89506 18.9257 5.89813 18.9417 5.89933C18.9872 5.90209 19.0324 5.89019 19.0706 5.86538C19.1088 5.84058 19.1379 5.8042 19.1537 5.76163C19.1695 5.71906 19.1711 5.67256 19.1582 5.62902C19.1454 5.58548 19.1188 5.54722 19.0824 5.51991C19.0694 5.51051 19.0555 5.50267 19.0407 5.49654Z" fill="#4D8AF0"/>
<path opacity="0.5" d="M2.22208 42.7465C2.12684 42.7053 2.05018 42.6306 2.00669 42.5367C1.9632 42.4429 1.95591 42.3364 1.98621 42.2375C1.99112 42.2224 1.99421 42.2067 1.99542 42.1908C1.99819 42.1455 1.98623 42.1005 1.9613 42.0626C1.93637 42.0246 1.8998 41.9956 1.85701 41.9798C1.81423 41.9641 1.76749 41.9626 1.72373 41.9754C1.67998 41.9881 1.64152 42.0146 1.61407 42.0509C1.60462 42.0637 1.59674 42.0776 1.59058 42.0923C1.5491 42.1871 1.47405 42.2634 1.37971 42.3066C1.28538 42.3499 1.17835 42.3571 1.07899 42.327C1.06375 42.3221 1.048 42.319 1.03204 42.3178C0.986519 42.3151 0.941314 42.327 0.903123 42.3518C0.864933 42.3766 0.835786 42.413 0.820002 42.4555C0.804218 42.4981 0.802635 42.5446 0.815488 42.5882C0.828341 42.6317 0.854947 42.6699 0.891364 42.6973C0.904284 42.7067 0.918274 42.7145 0.933042 42.7206C1.02828 42.7619 1.10494 42.8366 1.14843 42.9304C1.19193 43.0243 1.19921 43.1308 1.1689 43.2296C1.164 43.2448 1.16091 43.2605 1.1597 43.2764C1.15693 43.3216 1.16889 43.3666 1.19382 43.4046C1.21875 43.4426 1.25532 43.4716 1.29811 43.4873C1.34089 43.503 1.38763 43.5046 1.43139 43.4918C1.47514 43.479 1.5136 43.4526 1.54105 43.4163C1.5505 43.4035 1.55838 43.3895 1.56454 43.3749C1.60602 43.2801 1.68107 43.2038 1.7754 43.1606C1.86974 43.1173 1.97677 43.11 2.07613 43.1402C2.09136 43.1451 2.10712 43.1481 2.12308 43.1493C2.1686 43.1521 2.2138 43.1402 2.252 43.1154C2.29019 43.0906 2.31933 43.0542 2.33511 43.0116C2.3509 42.9691 2.35248 42.9226 2.33963 42.879C2.32678 42.8355 2.30017 42.7972 2.26375 42.7699C2.25083 42.7605 2.23684 42.7527 2.22208 42.7465Z" fill="#4D8AF0"/>
<path opacity="0.5" d="M86.2132 29.8002C86.5949 29.8002 86.9043 29.4923 86.9043 29.1125C86.9043 28.7327 86.5949 28.4248 86.2132 28.4248C85.8314 28.4248 85.522 28.7327 85.522 29.1125C85.522 29.4923 85.8314 29.8002 86.2132 29.8002Z" fill="#F55F44"/>
<path opacity="0.5" d="M13.9849 78.9701C14.3666 78.9701 14.6761 78.6622 14.6761 78.2824C14.6761 77.9026 14.3666 77.5947 13.9849 77.5947C13.6032 77.5947 13.2937 77.9026 13.2937 78.2824C13.2937 78.6622 13.6032 78.9701 13.9849 78.9701Z" fill="#F55F44"/>
<path opacity="0.5" d="M97.9632 56.2758C98.3449 56.2758 98.6543 55.9679 98.6543 55.5881C98.6543 55.2083 98.3449 54.9004 97.9632 54.9004C97.5814 54.9004 97.272 55.2083 97.272 55.5881C97.272 55.9679 97.5814 56.2758 97.9632 56.2758Z" fill="#F55F44"/>
<path opacity="0.5" d="M81.1317 8.82076C81.0365 8.77949 80.9598 8.70482 80.9163 8.61096C80.8729 8.5171 80.8656 8.4106 80.8959 8.31175C80.9008 8.29659 80.9039 8.28091 80.9051 8.26504C80.9078 8.21974 80.8959 8.17477 80.871 8.13677C80.846 8.09877 80.8095 8.06977 80.7667 8.05407C80.7239 8.03836 80.6771 8.03679 80.6334 8.04958C80.5896 8.06236 80.5512 8.08884 80.5237 8.12507C80.5143 8.13792 80.5064 8.15184 80.5002 8.16654C80.4588 8.26129 80.3837 8.33757 80.2894 8.38084C80.195 8.42411 80.088 8.43136 79.9887 8.40121C79.9734 8.39633 79.9577 8.39326 79.9417 8.39205C79.8962 8.38929 79.851 8.4012 79.8128 8.426C79.7746 8.4508 79.7455 8.48719 79.7297 8.52976C79.7139 8.57233 79.7123 8.61883 79.7252 8.66237C79.738 8.7059 79.7646 8.74417 79.801 8.77148C79.8139 8.78088 79.8279 8.78872 79.8427 8.79485C79.9379 8.83612 80.0146 8.91079 80.0581 9.00465C80.1016 9.09851 80.1089 9.205 80.0786 9.30386C80.0737 9.31902 80.0706 9.3347 80.0694 9.35057C80.0666 9.39586 80.0786 9.44084 80.1035 9.47884C80.1284 9.51684 80.165 9.54584 80.2078 9.56154C80.2506 9.57725 80.2973 9.57882 80.3411 9.56603C80.3848 9.55324 80.4233 9.52677 80.4507 9.49054C80.4602 9.47768 80.468 9.46376 80.4742 9.44907C80.5157 9.35431 80.5907 9.27804 80.6851 9.23477C80.7794 9.19149 80.8864 9.18424 80.9858 9.2144C81.001 9.21928 81.0168 9.22235 81.0327 9.22355C81.0783 9.22631 81.1235 9.21441 81.1617 9.1896C81.1998 9.1648 81.229 9.12842 81.2448 9.08585C81.2606 9.04328 81.2621 8.99678 81.2493 8.95324C81.2364 8.9097 81.2098 8.87144 81.1734 8.84413C81.1605 8.83473 81.1465 8.82689 81.1317 8.82076Z" fill="#4D8AF0"/>
<path opacity="0.5" d="M92.6515 80.7993C92.5563 80.758 92.4796 80.6833 92.4361 80.5895C92.3926 80.4956 92.3854 80.3891 92.4157 80.2903C92.4206 80.2751 92.4237 80.2594 92.4249 80.2435C92.4276 80.1983 92.4157 80.1533 92.3907 80.1153C92.3658 80.0773 92.3292 80.0483 92.2865 80.0326C92.2437 80.0169 92.1969 80.0153 92.1532 80.0281C92.1094 80.0409 92.071 80.0673 92.0435 80.1036C92.0341 80.1164 92.0262 80.1304 92.02 80.1451C91.9785 80.2398 91.9035 80.3161 91.8092 80.3594C91.7148 80.4026 91.6078 80.4099 91.5084 80.3797C91.4932 80.3748 91.4774 80.3718 91.4615 80.3706C91.416 80.3678 91.3708 80.3797 91.3326 80.4045C91.2944 80.4293 91.2652 80.4657 91.2494 80.5083C91.2337 80.5508 91.2321 80.5973 91.2449 80.6409C91.2578 80.6844 91.2844 80.7227 91.3208 80.75C91.3337 80.7594 91.3477 80.7672 91.3625 80.7734C91.4577 80.8146 91.5344 80.8893 91.5779 80.9832C91.6214 81.077 91.6287 81.1835 91.5983 81.2824C91.5934 81.2975 91.5904 81.3132 91.5891 81.3291C91.5864 81.3744 91.5983 81.4193 91.6233 81.4573C91.6482 81.4953 91.6848 81.5243 91.7276 81.54C91.7703 81.5558 91.8171 81.5573 91.8608 81.5445C91.9046 81.5318 91.943 81.5053 91.9705 81.469C91.9799 81.4562 91.9878 81.4423 91.994 81.4276C92.0355 81.3328 92.1105 81.2565 92.2048 81.2133C92.2992 81.17 92.4062 81.1627 92.5056 81.1929C92.5208 81.1978 92.5366 81.2009 92.5525 81.2021C92.598 81.2048 92.6433 81.1929 92.6814 81.1681C92.7196 81.1433 92.7488 81.1069 92.7646 81.0644C92.7803 81.0218 92.7819 80.9753 92.7691 80.9318C92.7562 80.8882 92.7296 80.85 92.6932 80.8226C92.6803 80.8132 92.6663 80.8054 92.6515 80.7993Z" fill="#4D8AF0"/>
<path opacity="0.5" d="M1.41568 20.9692C1.32044 20.9279 1.24378 20.8533 1.20029 20.7594C1.1568 20.6655 1.14951 20.559 1.17982 20.4602C1.18472 20.445 1.18781 20.4293 1.18902 20.4135C1.19179 20.3682 1.17983 20.3232 1.1549 20.2852C1.12997 20.2472 1.09341 20.2182 1.05062 20.2025C1.00783 20.1868 0.961095 20.1852 0.917337 20.198C0.873579 20.2108 0.835125 20.2373 0.80767 20.2735C0.798229 20.2864 0.790344 20.3003 0.784181 20.315C0.742703 20.4097 0.667653 20.486 0.573318 20.5293C0.478983 20.5726 0.37195 20.5798 0.272591 20.5496C0.257359 20.5448 0.241601 20.5417 0.225645 20.5405C0.180122 20.5377 0.134918 20.5496 0.0967269 20.5744C0.0585362 20.5992 0.0293899 20.6356 0.0136058 20.6782C-0.00217826 20.7208 -0.00376116 20.7673 0.0090919 20.8108C0.021945 20.8543 0.0485508 20.8926 0.0849675 20.9199C0.0978879 20.9293 0.111877 20.9372 0.126646 20.9433C0.221883 20.9846 0.298545 21.0592 0.342037 21.1531C0.385529 21.2469 0.392814 21.3534 0.362508 21.4523C0.357604 21.4675 0.354515 21.4831 0.353304 21.499C0.350533 21.5443 0.362497 21.5893 0.387426 21.6273C0.412354 21.6653 0.44892 21.6943 0.491709 21.71C0.534497 21.7257 0.581231 21.7273 0.624989 21.7145C0.668747 21.7017 0.707203 21.6752 0.734658 21.639C0.744099 21.6261 0.751983 21.6122 0.758147 21.5975C0.799625 21.5027 0.874673 21.4265 0.969008 21.3832C1.06334 21.3399 1.17038 21.3327 1.26973 21.3628C1.28497 21.3677 1.30072 21.3708 1.31668 21.372C1.3622 21.3747 1.40741 21.3628 1.4456 21.338C1.48379 21.3132 1.51293 21.2769 1.52872 21.2343C1.5445 21.1917 1.54609 21.1452 1.53323 21.1017C1.52038 21.0581 1.49377 21.0199 1.45736 20.9926C1.44444 20.9832 1.43045 20.9753 1.41568 20.9692Z" fill="#4D8AF0"/>
<path opacity="0.5" d="M9.1465 33.2387C9.52823 33.2387 9.83768 32.9308 9.83768 32.551C9.83768 32.1712 9.52823 31.8633 9.1465 31.8633C8.76477 31.8633 8.45532 32.1712 8.45532 32.551C8.45532 32.9308 8.76477 33.2387 9.1465 33.2387Z" fill="#47E6B1"/>
<path opacity="0.5" d="M98.3088 38.7406C98.6906 38.7406 99 38.4327 99 38.0529C99 37.6731 98.6906 37.3652 98.3088 37.3652C97.9271 37.3652 97.6177 37.6731 97.6177 38.0529C97.6177 38.4327 97.9271 38.7406 98.3088 38.7406Z" fill="#47E6B1"/>
<g opacity="0.5">
<path opacity="0.5" d="M67.5514 0H67.2058V1.94847H67.5514V0Z" fill="#47E6B1"/>
<path opacity="0.5" d="M68.3577 1.14658V0.802734L66.3993 0.802734V1.14658H68.3577Z" fill="#47E6B1"/>
</g>
<g opacity="0.5">
<path opacity="0.5" d="M68.8185 76.334H68.4729V78.2825H68.8185V76.334Z" fill="#47E6B1"/>
<path opacity="0.5" d="M69.6248 77.4806V77.1367H67.6664V77.4806H69.6248Z" fill="#47E6B1"/>
</g>
<g opacity="0.5">
<path opacity="0.5" d="M3.38661 80.46H3.04102V82.4084H3.38661V80.46Z" fill="#47E6B1"/>
<path opacity="0.5" d="M4.19287 81.6066V81.2627H2.23453V81.6066H4.19287Z" fill="#47E6B1"/>
</g>
<g opacity="0.5">
<path opacity="0.5" d="M82.066 45.3877H81.7205V47.3362H82.066V45.3877Z" fill="#47E6B1"/>
<path opacity="0.5" d="M82.8723 46.5343V46.1904H80.914V46.5343H82.8723Z" fill="#47E6B1"/>
</g>
<path opacity="0.5" d="M91.6513 14.1L92.3936 14.7769L93.4451 13.2383L93.8163 13.546L92.3936 15.3924L91.342 14.2231L91.6513 14.1Z" fill="#47E6B1"/>
<path d="M70.4622 27.4247L67.9019 27.5234L68.0295 30.7987L70.5898 30.6999L70.4622 27.4247Z" fill="#EC0000"/>
<path d="M58.9127 38.8944C58.9127 38.8944 55.367 37.2089 55.4238 38.6646C55.4805 40.1202 58.9978 41.0779 58.9978 41.0779L58.9127 38.8944Z" fill="#FFB9B9"/>
<path d="M60.8581 51.2117C60.8581 51.2117 59.1853 55.2854 58.5672 58.2249C57.9492 61.1644 57.0079 65.2098 58.2187 68.0788C59.4294 70.9478 62.8717 79.3798 62.9071 80.2896C62.9426 81.1994 62.6123 82.1233 63.3438 82.0951C64.0753 82.0669 68.0561 80.8199 68.2177 80.267C68.3793 79.714 66.8596 78.3148 66.8596 78.3148L63.1068 66.6146L67.0223 58.9921L69.8465 70.3637L70.3996 84.5563C70.3996 84.5563 73.1145 83.7227 73.5086 84.4364C73.5086 84.4364 74.7249 82.7494 74.8794 82.0145C75.0339 81.2796 74.305 67.2759 74.305 67.2759C74.305 67.2759 76.797 51.3257 74.7853 51.4033C72.7736 51.4809 64.8941 46.6825 60.8581 51.2117Z" fill="#EC0000"/>
<path d="M63.3153 81.3673C63.3153 81.3673 61.4596 85.448 61.2839 85.637C61.1081 85.826 59.8988 87.695 60.8132 87.6597C61.7276 87.6244 63.8867 86.6299 65.4759 85.1108C67.0651 83.5916 69.1604 80.9596 68.9704 80.7847C68.7804 80.6098 67.479 80.1133 67.479 80.1133L63.3153 81.3673Z" fill="#575A89"/>
<path d="M70.73 83.6317C70.73 83.6317 70.618 85.4584 70.2806 86.2003C69.9432 86.9422 69.9858 88.034 70.9002 87.9987C71.8146 87.9634 74.1778 87.5078 74.1778 87.5078C74.1778 87.5078 74.3182 86.409 74.1282 86.2341C73.9382 86.0592 73.1287 84.0859 73.4732 83.5259C73.8177 82.9659 70.73 83.6317 70.73 83.6317Z" fill="#575A89"/>
<path d="M72.0827 24.3545C72.0827 24.3545 74.032 27.3772 74.7919 28.0768C75.5518 28.7764 73.414 30.3167 73.414 30.3167L69.5877 30.8288C69.5877 30.8288 69.6358 27.3646 69.4388 27.0077C69.2417 26.6509 72.0827 24.3545 72.0827 24.3545Z" fill="#FFB9B9"/>
<path d="M68.7569 28.3103C68.7569 28.3103 69.5452 29.7377 70.2767 29.7095C71.0082 29.6812 74.792 28.0774 74.9536 27.5245C75.1152 26.9716 76.2069 31.4852 76.2069 31.4852L66.9483 47.6965L64.6899 46.1436L65.7842 36.6253L66.6829 31.4882L68.7569 28.3103Z" fill="#EC0000"/>
<path d="M75.2951 42.8191C74.9258 43.5878 74.6951 44.3894 74.7271 45.21C74.7285 45.2464 74.73 45.2828 74.7332 45.3191C74.8208 47.0032 75.4444 48.9509 75.6681 50.3673C75.8304 51.3833 75.7842 52.125 75.1866 52.2993C73.7377 52.7196 75.3978 53.0201 69.7924 54.8764C64.1869 56.7328 63.2087 55.1304 63.1945 54.7665C63.1803 54.4026 63.9883 51.6379 63.7984 51.463C63.6084 51.2881 61.1403 53.7524 60.3946 53.4167C59.6489 53.081 60.3095 51.2332 60.3095 51.2332C60.3095 51.2332 61.9894 47.3415 61.9539 46.4317C61.9184 45.522 64.4985 41.2311 64.4985 41.2311L66.2534 29.8651C66.2534 29.8651 66.9282 28.3812 67.8355 28.1639C68.7428 27.9467 69.4956 28.4644 69.4956 28.4644L67.9773 31.8031L66.3754 37.6963L66.6434 39.8727C66.6434 39.8727 68.5062 35.974 69.7296 34.469C70.953 32.9639 73.5615 29.4009 73.5615 29.4009C73.5615 29.4009 74.1705 27.3564 73.7108 26.7455C73.251 26.1327 75.6284 26.041 76.6421 28.5531C77.1793 29.8845 78.0516 31.87 78.598 33.7186C79.085 35.3563 79.315 36.8873 78.8326 37.7624C78.0953 39.0992 76.2406 40.8564 75.2951 42.8191Z" fill="#575A89"/>
<path opacity="0.1" d="M78.8325 37.7616C78.0953 39.0985 76.2406 40.8557 75.2951 42.8183C75.0481 41.9331 74.7469 41.0172 74.7469 41.0172C74.7469 41.0172 73.5914 34.8659 77.0093 33.2762C77.5757 33.2217 78.1421 33.3792 78.598 33.7179C79.0849 35.3555 79.3149 36.8865 78.8325 37.7616Z" fill="black"/>
<path d="M65.2639 37.374L62.3662 38.2147L58.3429 38.37L57.929 41.8483L64.541 42.3221C64.541 42.3221 66.1925 37.7027 65.2639 37.374Z" fill="#575A89"/>
<path d="M69.9891 49.0693C69.9891 49.0693 66.1125 49.7092 66.9973 50.8699C67.8821 52.0306 71.3162 50.8103 71.3162 50.8103L69.9891 49.0693Z" fill="#FFB9B9"/>
<path opacity="0.1" d="M74.7332 45.3184C74.8209 47.0024 75.4444 48.9501 75.6681 50.3665C74.4332 51.5294 73.2588 52.5551 72.8163 52.5722C71.9019 52.6075 70.4317 52.482 69.8902 52.6851C69.3486 52.8882 69.031 49.4381 69.031 49.4381C69.031 49.4381 69.3542 48.3323 70.796 47.7299C71.7691 47.3225 73.6345 46.2172 74.7332 45.3184Z" fill="black"/>
<path d="M76.9666 32.1851C76.9666 32.1851 80.0614 31.7013 79.8942 36.8102C79.727 41.9191 80.2204 45.1802 78.9757 46.1394C77.731 47.0986 73.6879 51.4459 72.7735 51.4812C71.8591 51.5164 70.389 51.3909 69.8475 51.5941C69.3059 51.7972 68.9883 48.347 68.9883 48.347C68.9883 48.347 69.3115 47.2412 70.7533 46.6389C72.195 46.0366 75.5917 43.901 75.5634 43.1731C75.535 42.4453 74.7042 39.9261 74.7042 39.9261C74.7042 39.9261 73.5487 33.7748 76.9666 32.1851Z" fill="#575A89"/>
<path d="M69.3535 28.8305C71.5772 28.8305 73.3799 27.0369 73.3799 24.8244C73.3799 22.6119 71.5772 20.8184 69.3535 20.8184C67.1298 20.8184 65.3271 22.6119 65.3271 24.8244C65.3271 27.0369 67.1298 28.8305 69.3535 28.8305Z" fill="#FFB9B9"/>
<path d="M66.6427 19.0825C66.5456 19.1657 66.4293 19.2238 66.3041 19.2515C66.2413 19.2627 66.1766 19.2486 66.1242 19.2125C66.0717 19.1763 66.0358 19.121 66.0242 19.0586C65.9321 19.2487 65.8281 19.4512 65.64 19.5488C65.452 19.6463 65.1611 19.5645 65.134 19.3552C65.1066 19.5141 65.0359 19.6625 64.9297 19.7843C64.813 19.895 64.6014 19.923 64.4995 19.7987C64.5819 20.2465 64.531 20.7071 64.5569 21.1616C64.5828 21.6162 64.7046 22.0981 65.0498 22.397C65.5532 22.8329 66.3101 22.7253 66.9723 22.6428C67.0725 22.6219 67.1764 22.6275 67.2736 22.6592C67.5215 22.7643 67.5103 23.1077 67.5136 23.3758C67.5339 23.8462 67.721 24.2943 68.0418 24.6405C68.3626 24.9867 68.7964 25.2085 69.266 25.2667C69.5289 25.307 69.7971 25.2419 70.0116 25.0856C70.1997 24.9271 70.2957 24.6686 70.5111 24.5495C70.8616 24.3558 71.2866 24.6383 71.5428 24.9451C71.799 25.2519 72.0515 25.6293 72.4484 25.6855C72.9734 25.7597 73.3732 25.2275 73.5693 24.7373C73.84 24.0504 73.9696 23.3165 73.9507 22.5789C73.9317 21.8413 73.7645 21.115 73.4589 20.4427C72.3629 18.0655 68.6186 17.6895 66.6427 19.0825Z" fill="#2F2E41"/>
<defs>
<linearGradient id="paint0_linear" x1="39.7339" y1="42.339" x2="58.2205" y2="42.339" gradientUnits="userSpaceOnUse">
<stop stop-color="#808080" stop-opacity="0.25"/>
<stop offset="0.53514" stop-color="#808080" stop-opacity="0.12"/>
<stop offset="1" stop-color="#808080" stop-opacity="0.1"/>
</linearGradient>
</defs>
</svg>
