<svg width="108" height="83" viewBox="0 0 108 83" fill="none" xmlns="http://www.w3.org/2000/svg">
<g clip-path="url(#clip0)">
<path d="M108 82.7852H0V82.9858H108V82.7852Z" fill="#2F2E41"/>
<path d="M99.4844 19.7242H99.0275V7.2311C99.0275 6.28154 98.8403 5.34127 98.4764 4.46397C98.1125 3.58667 97.5792 2.78952 96.9068 2.11805C96.2345 1.44658 95.4362 0.913929 94.5577 0.550513C93.6792 0.187097 92.7376 3.23866e-05 91.7867 0H65.2805C63.3601 0 61.5183 0.761807 60.1604 2.11783C58.8024 3.47386 58.0396 5.31303 58.0396 7.23074V75.7696C58.0396 77.6873 58.8024 79.5265 60.1604 80.8825C61.5183 82.2386 63.3601 83.0004 65.2805 83.0004H91.7867C93.7071 83.0004 95.5489 82.2386 96.9069 80.8825C98.2648 79.5265 99.0277 77.6873 99.0277 75.7696V28.6171H99.4846L99.4844 19.7242Z" fill="#3F3D56"/>
<path d="M97.4862 7.28149V75.7193C97.4862 77.1514 96.9164 78.5249 95.9023 79.5376C94.8882 80.5503 93.5127 81.1192 92.0785 81.1193H65.4453C64.0111 81.1192 62.6356 80.5503 61.6215 79.5376C60.6074 78.5249 60.0376 77.1514 60.0376 75.7193V7.28149C60.0377 5.84941 60.6075 4.47602 61.6216 3.46341C62.6357 2.4508 64.011 1.8819 65.4452 1.88184H68.6762C68.5175 2.27142 68.457 2.69399 68.5002 3.11238C68.5433 3.53078 68.6888 3.93217 68.9238 4.28124C69.1587 4.63032 69.476 4.91639 69.8477 5.11428C70.2194 5.31218 70.634 5.41583 71.0552 5.41612H86.2402C86.6614 5.41581 87.0761 5.31214 87.4477 5.11424C87.8194 4.91634 88.1367 4.63027 88.3716 4.28119C88.6066 3.93212 88.752 3.53074 88.7952 3.11235C88.8383 2.69397 88.7779 2.27141 88.6191 1.88184H92.0785C93.5127 1.88187 94.8882 2.45081 95.9023 3.4635C96.9164 4.4762 97.4862 5.84969 97.4862 7.28186V7.28149Z" fill="white"/>
<path d="M74.3896 17.953C74.3896 17.953 74.1528 17.1021 73.7969 16.8887V17.953C73.7969 17.953 72.3758 17.7402 71.3691 18.8039L72.3165 19.0167C72.3165 19.0167 70.9249 19.4779 70.6289 21.4646L71.2216 21.181L72.8204 24.5868L73.8271 22.742L75.84 24.7996L75.3663 23.6644L76.1361 24.0191L75.6031 23.0968L77.9718 24.1611L77.7941 23.5938L78.6619 25.046C78.6619 25.046 81.6431 21.9619 78.3862 18.6981C78.3865 18.6981 76.9062 17.137 74.3896 17.953Z" fill="#2F2E41"/>
<path d="M74.1162 25.5305C74.1162 25.5305 74.9989 28.8801 74.7337 29.3209C74.4684 29.7616 77.2936 32.1417 77.2936 32.1417L80.0301 31.6128L80.2067 27.8224C80.2067 27.8224 77.7349 25.7068 78.2647 24.1201L74.1162 25.5305Z" fill="#FFB9B9"/>
<path opacity="0.1" d="M74.1162 25.5305C74.1162 25.5305 74.9989 28.8801 74.7337 29.3209C74.4684 29.7616 77.2936 32.1417 77.2936 32.1417L80.0301 31.6128L80.2067 27.8224C80.2067 27.8224 77.7349 25.7068 78.2647 24.1201L74.1162 25.5305Z" fill="black"/>
<path d="M71.8211 46.6875C71.8211 46.6875 71.1148 51.095 71.6445 54.709C72.1741 58.3231 72.439 60.9676 72.1741 61.4965C71.9092 62.0254 71.6445 61.9372 71.8211 62.5543C71.9977 63.1713 72.3507 62.9068 71.9977 63.5239C71.6446 64.1409 71.7329 65.1987 71.7329 65.4631C71.7329 65.7275 71.2915 71.4572 71.7329 72.0743C72.1742 72.6914 72.3503 72.6032 72.3503 72.6032L72.88 75.7766L75.7048 75.3358L75.2634 72.4269C75.2634 72.4269 76.3227 71.898 75.8809 71.5454C75.439 71.1929 75.1746 71.1929 75.4395 71.1929C75.7044 71.1929 76.1457 71.1047 75.7926 70.9284C75.4394 70.752 75.7043 65.992 75.7043 65.992C75.7043 65.992 76.3217 57.2652 78.7938 57.5297C81.2659 57.7942 83.208 62.9069 83.208 62.9069L83.9143 65.1988C83.9143 65.1988 84.179 69.5181 84.3556 69.8707C84.5322 70.2232 84.4439 70.3114 84.3556 70.4873C84.2673 70.6631 83.6494 70.2228 84.2673 70.928C84.8853 71.6332 84.8848 71.8976 84.8848 71.8976L85.282 76.5254L88.1518 74.7194V71.9868C88.1518 71.9868 88.6814 71.1053 88.5048 70.4001C88.3282 69.6948 88.3282 66.3452 88.5048 65.7282C88.6814 65.1113 88.5931 64.9348 88.4165 64.6704C88.2399 64.4061 87.7991 64.5823 88.1516 63.9652C88.5042 63.3481 88.7691 61.7615 88.2399 60.6155C87.7108 59.4696 84.7972 48.1865 83.5615 47.5689C82.3257 46.9514 71.8211 46.6875 71.8211 46.6875Z" fill="#2F2E41"/>
<path d="M75.7051 73.8358C75.7051 73.8358 73.6748 73.4833 73.5865 74.0122C73.538 74.4515 73.538 74.8949 73.5865 75.3343C73.5865 75.3343 72.8803 75.4225 72.9691 76.0395C73.0579 76.6566 73.1457 78.3314 73.1457 78.3314C73.1457 78.3314 72.0423 80.9319 72.6601 81.5489C72.6663 81.5551 73.879 81.5049 74.5761 81.5049H77.1179C77.1179 81.5049 77.471 80.2708 77.1179 80.0946C76.7649 79.9184 75.9703 78.3312 76.0586 77.979C76.1469 77.6268 76.0586 75.0701 76.0586 75.0701L75.6688 75.092L75.7051 73.8358Z" fill="#3F3D56"/>
<path d="M86.033 75.4231L84.9737 76.2165C84.9737 76.2165 85.4151 77.715 85.1503 77.9799C84.8855 78.2447 84.3117 81.2855 84.8416 81.4618C85.3715 81.638 88.6374 81.3736 88.6374 81.3736C88.6374 81.3736 92.3008 81.5058 92.3889 81.3296C92.4771 81.1533 92.6538 80.0954 91.5945 79.7429C90.5352 79.3903 89.9173 79.4785 89.5643 78.4206C89.2112 77.3627 88.4167 75.7761 88.4167 75.7761L88.2401 73.8369C88.2401 73.8369 87.1808 74.0133 87.0042 74.0133C86.8276 74.0133 85.9449 74.454 86.0332 74.8067C86.0869 75.0086 86.0868 75.2211 86.033 75.4231Z" fill="#3F3D56"/>
<path d="M75.6168 26.6328C77.64 26.6328 79.2802 24.995 79.2802 22.9746C79.2802 20.9542 77.64 19.3164 75.6168 19.3164C73.5935 19.3164 71.9534 20.9542 71.9534 22.9746C71.9534 24.995 73.5935 26.6328 75.6168 26.6328Z" fill="#FFB9B9"/>
<path d="M78.0002 29.2337L79.3243 26.9226C79.3243 26.9226 82.4139 26.7655 82.5905 27.1181C82.7671 27.4708 84.2677 44.9246 84.2677 44.9246C84.2677 44.9246 84.9739 45.8942 84.5325 46.5113L84.0911 47.1279V48.362C84.0911 48.362 81.8843 50.1254 78.883 49.7723C75.8817 49.4193 72.0859 47.8331 72.0859 47.8331L72.8805 42.8967L72.7922 28.3521L74.5704 27.4865C74.5704 27.4865 76.5876 28.881 76.9406 29.3218C77.2937 29.7625 78.0002 29.2337 78.0002 29.2337Z" fill="#EC0000"/>
<path d="M74.9104 29.2334L74.5132 26.8975L69.0842 30.7325L72.085 39.5475C72.085 39.5475 70.2312 42.8971 70.5844 44.1313C70.9375 45.3654 71.114 47.2164 71.114 47.2164C71.114 47.2164 75.8807 48.4506 75.7925 47.833C75.7043 47.2155 75.7925 44.4833 75.7925 44.4833C75.7925 44.4833 77.3361 33.0677 76.5642 31.3269C75.7922 29.5861 74.9104 29.2334 74.9104 29.2334Z" fill="#E6E6E6"/>
<path d="M79.7656 28.0872L78.927 26.4564C78.927 26.4053 84.8852 27.2283 85.1508 27.7345L84.4442 41.3096C84.4442 41.3096 84.5325 43.2488 84.9739 43.7777C85.4152 44.3066 85.3269 45.1881 85.1505 45.2762C84.974 45.3644 82.0609 46.2459 82.0609 46.2459C82.0609 46.2459 79.2361 41.3977 79.501 35.5792C79.7659 29.7608 79.7656 28.0872 79.7656 28.0872Z" fill="#E6E6E6"/>
<path d="M84.0911 27.8228L85.0261 27.624C85.392 27.8296 85.6829 28.1462 85.8566 28.5279C86.1215 29.1445 89.2111 35.7562 89.2111 36.1969C89.2111 36.6376 89.2994 39.8991 87.3573 39.8991C85.4152 39.8991 83.9146 31.6131 83.9146 31.6131L84.0911 27.8228Z" fill="#E6E6E6"/>
<path d="M70.8501 50.6533L72.439 53.0332L73.3217 50.0367L72.7043 49.1553L70.8501 50.6533Z" fill="#FFB9B9"/>
<path d="M69.8788 30.8205L69.0844 30.7324L67.1423 41.1339L70.4968 51.5355L73.4099 49.3318L71.3796 42.368L72.0857 36.991L69.8788 30.8205Z" fill="#E6E6E6"/>
<path d="M79.4413 21.9419C78.9563 20.1763 77.4394 18.8877 75.642 18.8877C75.0152 18.8941 74.3994 19.0525 73.8475 19.3493C73.2957 19.646 72.8243 20.0722 72.4739 20.5911L73.3803 22.3257L74.2841 20.8378L76.0916 22.4973L75.6663 21.5817L76.3578 21.8678L75.8793 21.1239L78.0058 21.9822L77.8462 21.5244L78.8564 22.8406C79.0912 22.5689 79.288 22.2665 79.4413 21.9419Z" fill="#2F2E41"/>
<path opacity="0.1" d="M83.5173 32.0979L85.8958 34.1687L84.6649 31.4805L83.5173 32.0979Z" fill="black"/>
<path d="M82.5021 31.79C82.5021 31.79 81.3545 28.264 79.9422 28.8811C78.5299 29.4981 80.4718 33.2004 80.4718 33.2004L81.7077 33.9938L82.5021 31.79Z" fill="#FFB9B9"/>
<path d="M88.5931 36.2857L82.4139 31.4375L80.207 34.6991C80.207 34.6991 86.0331 40.8696 87.357 39.6355C88.6809 38.4014 88.5931 36.2857 88.5931 36.2857Z" fill="#E6E6E6"/>
<path d="M23.2603 22.0273H17.3921V23.438H23.2603V22.0273Z" fill="#EC0000"/>
<path d="M43.5813 22.0273H41.5166V23.438H43.5813V22.0273Z" fill="#EC0000"/>
<path d="M47.7107 22.0273H45.646V23.438H47.7107V22.0273Z" fill="#EC0000"/>
<path d="M39.3434 22.0273H25.325V23.438H39.3434V22.0273Z" fill="#EC0000"/>
<path d="M15.8706 31.1426H10.0024V32.5533H15.8706V31.1426Z" fill="#EC0000"/>
<path d="M36.1919 31.1426H34.1272V32.5533H36.1919V31.1426Z" fill="#EC0000"/>
<path d="M40.3213 31.1426H38.2566V32.5533H40.3213V31.1426Z" fill="#EC0000"/>
<path d="M31.9537 31.1426H17.9353V32.5533H31.9537V31.1426Z" fill="#EC0000"/>
<path d="M40.104 25.1748H34.2358V26.5855H40.104V25.1748Z" fill="#EC0000"/>
<path d="M48.0369 25.1748H42.1687V26.5855H48.0369V25.1748Z" fill="#EC0000"/>
<path d="M12.0672 25.1748H10.0024V26.5855H12.0672V25.1748Z" fill="#EC0000"/>
<path d="M16.1966 25.1748H14.1318V26.5855H16.1966V25.1748Z" fill="#EC0000"/>
<path d="M32.2796 25.1748H18.2612V26.5855H32.2796V25.1748Z" fill="#EC0000"/>
<path d="M22.0649 29.624H27.9331V28.2133H22.0649V29.624Z" fill="#EC0000"/>
<path d="M14.1321 29.624H20.0002V28.2133H14.1321V29.624Z" fill="#EC0000"/>
<path d="M10.0024 29.624H12.0671V28.2133H10.0024V29.624Z" fill="#EC0000"/>
<path d="M45.9721 29.624H48.0369V28.2133H45.9721V29.624Z" fill="#EC0000"/>
<path d="M29.8891 29.624H43.9075V28.2133H29.8891V29.624Z" fill="#EC0000"/>
<path d="M7.74085 82.8022L7.62477 82.7588C7.59921 82.7492 5.06028 81.7778 3.87072 79.5752C2.68115 77.3726 3.26365 74.7204 3.2697 74.694L3.29711 74.5732L3.41319 74.6166C3.43876 74.6263 5.97768 75.5976 7.16724 77.8002C8.35681 80.0029 7.77431 82.6551 7.76826 82.6815L7.74085 82.8022ZM4.06089 79.4727C5.06646 81.3348 7.0729 82.2897 7.58118 82.5076C7.67787 81.9636 7.98091 79.7633 6.97608 77.9028C5.97126 76.0424 3.96432 75.0864 3.4558 74.868C3.3596 75.4123 3.05668 77.6122 4.06126 79.4726L4.06089 79.4727Z" fill="#3F3D56"/>
<path d="M4.77999 78.8023C6.91745 80.0864 7.74062 82.6373 7.74062 82.6373C7.74062 82.6373 5.09797 83.1059 2.96088 81.8218C0.823789 80.5378 0.000244141 77.9868 0.000244141 77.9868C0.000244141 77.9868 2.64253 77.5181 4.77999 78.8023Z" fill="#EC0000"/>
<path d="M64.8186 80.2413L67.5353 76.425L64.8127 80.6593L64.8067 81.0966C64.6158 81.0931 64.4267 81.0848 64.2397 81.0719C64.2397 80.9727 64.5222 75.5122 64.5136 75.4133C64.5268 75.4097 64.5394 74.8969 64.5448 74.8744L61.7886 70.6468L64.5517 74.477L64.559 74.5895L64.7677 70.3475L62.4059 65.9772L64.7943 69.6019C64.7958 69.5442 64.9969 60.8311 64.9986 60.7773C64.9986 60.806 64.9821 67.7126 64.9821 67.7417L67.3105 64.9849L64.9738 68.3391L64.9244 72.1371L67.0967 68.4857C64.3787 73.8158 64.9872 71.9472 64.8903 74.8081L68.0426 69.7245L64.8802 75.5449L64.8186 80.2413Z" fill="#D0CDE1"/>
<path d="M93.1864 80.5079L95.0565 77.8813L93.1827 80.7956L93.1786 81.0965C93.0469 81.0941 92.9168 81.0885 92.7884 81.0797C92.7884 81.0114 92.9829 77.2533 92.977 77.1852C92.9861 77.1827 92.9948 76.8298 92.9985 76.8144L91.1016 73.9042L93.0033 76.5403L93.0082 76.6177L93.1518 73.6979L91.5262 70.6901L93.17 73.1848C93.171 73.1451 93.3095 67.1483 93.3106 67.1113C93.3106 67.1309 93.2992 71.8846 93.2993 71.9045L94.9018 70.0071L93.2936 72.3155L93.2593 74.9298L94.7535 72.4164C92.8829 76.0849 93.3016 74.7987 93.2346 76.7678L95.4041 73.269L93.229 77.2755L93.1864 80.5079Z" fill="#D0CDE1"/>
<path d="M63.7553 8.70708C63.9038 8.70708 64.0242 8.58683 64.0242 8.4385C64.0242 8.29017 63.9038 8.16992 63.7553 8.16992C63.6067 8.16992 63.4863 8.29017 63.4863 8.4385C63.4863 8.58683 63.6067 8.70708 63.7553 8.70708Z" fill="#3F3D56"/>
<path d="M64.7411 8.70708C64.8897 8.70708 65.0101 8.58683 65.0101 8.4385C65.0101 8.29017 64.8897 8.16992 64.7411 8.16992C64.5926 8.16992 64.4722 8.29017 64.4722 8.4385C64.4722 8.58683 64.5926 8.70708 64.7411 8.70708Z" fill="#3F3D56"/>
<path d="M65.7275 8.70708C65.876 8.70708 65.9964 8.58683 65.9964 8.4385C65.9964 8.29017 65.876 8.16992 65.7275 8.16992C65.5789 8.16992 65.4585 8.29017 65.4585 8.4385C65.4585 8.58683 65.5789 8.70708 65.7275 8.70708Z" fill="#3F3D56"/>
<path d="M93.8813 7.72168H91.1018V8.07978H93.8813V7.72168Z" fill="#3F3D56"/>
<path d="M93.8813 8.25879H91.1018V8.61689H93.8813V8.25879Z" fill="#3F3D56"/>
<path d="M93.8813 8.7959H91.1018V9.154H93.8813V8.7959Z" fill="#3F3D56"/>
</g>
<defs>
<clipPath id="clip0">
<rect width="108" height="83" fill="white"/>
</clipPath>
</defs>
</svg>
