<svg width="10" height="16" viewBox="0 0 10 16" fill="none" xmlns="http://www.w3.org/2000/svg">
<path fill-rule="evenodd" clip-rule="evenodd" d="M8.24532 15.8878C7.95778 15.8894 7.68141 15.7764 7.47726 15.5736L0.986671 9.07361C0.781879 8.87019 0.666687 8.5933 0.666687 8.30444C0.666687 8.01558 0.781879 7.73869 0.986671 7.53527L7.47726 1.03527C7.90145 0.610475 8.58919 0.610475 9.01337 1.03527C9.43755 1.46007 9.43755 2.14881 9.01337 2.57361L3.28001 8.30444L9.01337 14.0353C9.21816 14.2387 9.33335 14.5156 9.33335 14.8044C9.33335 15.0933 9.21816 15.3702 9.01337 15.5736C8.80922 15.7764 8.53285 15.8894 8.24532 15.8878Z" fill="#63B468"/>
</svg>
