<svg width="100" height="18" viewBox="0 0 100 18" fill="none" xmlns="http://www.w3.org/2000/svg">
<g clip-path="url(#clip0)">
<path fill-rule="evenodd" clip-rule="evenodd" d="M99.1097 8.14922C99.1097 8.71165 99.042 9.39332 98.94 9.75132C98.4985 9.69997 98.0569 9.68305 97.5304 9.68305C97.072 9.68305 96.6135 9.71724 96.1549 9.78527V17.0794H94.2869V8.5582C95.0851 8.28551 96.4266 8.0812 97.4795 8.0812C98.0569 8.0812 98.7022 8.09812 99.1097 8.14922ZM86.5767 11.8645H90.7884C90.7884 10.4669 90.0412 9.64898 88.7504 9.64898C87.4259 9.64898 86.7296 10.4158 86.5767 11.8645ZM92.5713 13.4324H86.6108C86.8484 14.9491 87.7314 15.682 89.3956 15.682C90.4146 15.682 91.4506 15.4604 92.3845 15.0342C92.3166 15.5285 92.2148 16.1761 92.0958 16.7384C91.2467 17.1305 90.3467 17.2838 89.3448 17.2838C86.2201 17.2838 84.7088 15.5456 84.7088 12.6313C84.7088 10.092 85.8806 8.0812 88.8523 8.0812C91.5184 8.0812 92.6732 9.83638 92.6732 11.9837C92.6732 12.5121 92.6393 12.9381 92.5713 13.4324ZM81.3291 15.1024V9.85353C80.8366 9.75132 80.3271 9.68305 79.8345 9.68305C77.9835 9.68305 77.1005 10.842 77.1005 12.7848C77.1005 14.523 77.7969 15.7501 79.4611 15.7501C80.2082 15.7501 80.8196 15.4944 81.3291 15.1024ZM83.18 5.14983V17.0794H81.4648L81.3631 15.9887C80.8875 16.7898 80.1572 17.2838 78.9346 17.2838C76.6931 17.2838 75.1986 15.6478 75.1986 12.7848C75.1986 9.78527 76.7948 8.0812 79.9365 8.0812C80.4289 8.0812 80.8875 8.13219 81.3291 8.21749V5.40549C81.9064 5.20094 82.5686 5.14983 83.18 5.14983ZM73.7037 11.3533V17.0794H71.8358V11.677C71.8358 10.3308 71.3942 9.68305 69.5262 9.68305C69.0847 9.68305 68.5582 9.73416 68.0488 9.81934V17.0794H66.1808V8.5582C67.3694 8.26859 68.6771 8.0812 69.5771 8.0812C72.7018 8.0812 73.7037 9.29099 73.7037 11.3533ZM62.2745 15.1366V9.78527C61.884 9.71724 61.4593 9.68305 60.933 9.68305C58.997 9.68305 58.097 10.876 58.097 12.7848C58.097 14.523 58.7934 15.7501 60.4575 15.7501C61.1877 15.7501 61.7822 15.5116 62.2745 15.1366ZM64.1426 8.5582V17.0794H62.4274L62.3256 16.0569C61.8501 16.8067 61.1198 17.2838 59.9311 17.2838C57.6895 17.2838 56.1952 15.6478 56.1952 12.7848C56.1952 9.78527 57.7913 8.0812 60.933 8.0812C62.1557 8.0812 63.1577 8.21749 64.1426 8.5582ZM54.1228 15.682C54.6663 15.682 55.1758 15.5796 55.5833 15.4263C55.5324 15.9375 55.4644 16.5171 55.3625 17.0111C54.853 17.2157 54.3097 17.2838 53.7833 17.2838C51.9662 17.2838 50.8114 16.4487 50.8114 14.3696V5.42252C51.3888 5.23501 52.102 5.14983 52.6795 5.14983V8.37081H55.6342C55.6003 8.95027 55.5495 9.47862 55.4644 9.97266H52.6795V14.1481C52.6795 15.2558 53.2229 15.682 54.1228 15.682ZM48.943 11.3533V17.0794H47.0749V11.677C47.0749 10.3308 46.6333 9.68305 44.7654 9.68305C44.3238 9.68305 43.7975 9.73416 43.2879 9.81934V17.0794H41.42V8.5582C42.6087 8.26859 43.9163 8.0812 44.8163 8.0812C47.9411 8.0812 48.943 9.29099 48.943 11.3533ZM37.5137 15.1366V9.78527C37.1232 9.71724 36.6987 9.68305 36.1722 9.68305C34.2362 9.68305 33.3363 10.876 33.3363 12.7848C33.3363 14.523 34.0325 15.7501 35.6967 15.7501C36.4269 15.7501 37.0213 15.5116 37.5137 15.1366ZM39.3818 8.5582V17.0794H37.6666L37.5648 16.0569C37.0892 16.8067 36.359 17.2838 35.1704 17.2838C32.9286 17.2838 31.4343 15.6478 31.4343 12.7848C31.4343 9.78527 33.0306 8.0812 36.1722 8.0812C37.3949 8.0812 38.3968 8.21749 39.3818 8.5582ZM22.4165 16.7045C22.4505 16.0056 22.5524 15.5285 22.7392 14.9832C23.6902 15.4263 24.9128 15.6478 25.8469 15.6478C27.4261 15.6478 28.3092 15.1366 28.3092 14.1311C28.3092 13.1427 27.6639 12.6824 26.0676 11.9837L25.2015 11.6089C23.6052 10.9101 22.5184 10.0069 22.5184 8.20033C22.5184 6.25764 23.8601 5.01342 26.6111 5.01342C27.7149 5.01342 28.7507 5.16699 29.7187 5.5077C29.6678 6.18938 29.5489 6.71773 29.3791 7.21201C28.462 6.87105 27.3752 6.71773 26.594 6.71773C25.1166 6.71773 24.4374 7.29719 24.4374 8.20033C24.4374 9.08656 25.0997 9.59787 26.2884 10.1092L27.2055 10.501C29.3621 11.4214 30.262 12.3928 30.262 14.0459C30.262 16.0056 28.7847 17.3521 25.8977 17.3521C24.5053 17.3521 23.3675 17.1476 22.4165 16.7045ZM13.8809 8.30255C13.854 7.68044 13.6805 7.06328 13.3595 6.50545L10.5286 1.58463C10.3127 1.20948 10.1636 0.807263 10.0809 0.39502L9.96251 0.600537C9.26181 1.81854 9.26181 3.31902 9.96239 4.53702L12.2272 8.47363C12.9278 9.69163 12.9278 11.1922 12.2272 12.4101L12.1089 12.6158C12.0261 12.2034 11.8769 11.8013 11.661 11.4261L9.58772 7.82216L8.26386 5.52111C8.048 5.14596 7.89895 4.74375 7.816 4.33151L7.69777 4.53714C6.99949 5.75092 6.99732 7.24548 7.69091 8.46118L7.69067 8.46131L9.96251 12.4101C10.6632 13.6281 10.6632 15.1287 9.96251 16.3467L9.84416 16.5524C9.76133 16.14 9.61216 15.7379 9.39629 15.3626L6.56547 10.4419C6.18574 9.78189 6.01226 9.03895 6.04404 8.30303C3.01348 9.09755 0.921753 10.7847 0.921753 12.7381C0.921753 15.4558 4.9694 17.6588 9.96251 17.6588C14.9555 17.6588 19.0031 15.4558 19.0031 12.7381C19.0031 10.7847 16.9117 9.09707 13.8809 8.30255Z" fill="white"/>
</g>
<defs>
<clipPath id="clip0">
<path d="M0.921753 0.39502H99.1097V17.6588H0.921753V0.39502Z" fill="white"/>
</clipPath>
</defs>
</svg>
