<svg width="20" height="20" viewBox="0 0 20 20" fill="none" xmlns="http://www.w3.org/2000/svg">
<path fill-rule="evenodd" clip-rule="evenodd" d="M7.68514 1.66675C4.36664 1.66675 1.66663 4.36676 1.66663 7.68527C1.66663 11.0038 4.36664 13.7038 7.68514 13.7038C8.67058 13.7038 9.59882 13.4611 10.4206 13.0394L15.1486 17.7683C15.5094 18.1291 15.9841 18.309 16.4579 18.309C16.9326 18.309 17.4074 18.1291 17.7682 17.7683C18.4897 17.0458 18.4897 15.8712 17.7682 15.1487L13.0393 10.4208C13.4609 9.59895 13.7037 8.6707 13.7037 7.68527C13.7037 4.36676 11.0036 1.66675 7.68514 1.66675ZM2.59255 7.68527C2.59255 4.87765 4.87708 2.59267 7.68514 2.59267C10.4932 2.59267 12.7777 4.87765 12.7777 7.68527C12.7777 10.4929 10.4932 12.7779 7.68514 12.7779C4.87708 12.7779 2.59255 10.4929 2.59255 7.68527ZM17.1135 15.8034C17.4743 16.1642 17.4743 16.7528 17.1135 17.1136C16.7527 17.4726 16.1659 17.4744 15.8033 17.1136L11.2292 12.5387C11.7303 12.1717 12.1716 11.7304 12.5386 11.2293L17.1135 15.8034Z" fill="#595959"/>
</svg>
