<svg width="40" height="44" viewBox="0 0 40 44" fill="none" xmlns="http://www.w3.org/2000/svg">
<path d="M20 38.3193C31.0457 38.3193 40 29.7413 40 19.1597C40 8.57807 31.0457 0 20 0C8.9543 0 0 8.57807 0 19.1597C0 29.7413 8.9543 38.3193 20 38.3193Z" fill="#007AFF"/>
<path fill-rule="evenodd" clip-rule="evenodd" d="M21.4706 9.01953C22.2834 9.01953 22.9411 9.67723 22.9411 10.4901V16.8627H28.3333C29.0984 16.8627 29.726 17.4453 29.7972 18.1915L29.8039 18.3333V27.1568C29.8039 27.9697 29.1462 28.6274 28.3333 28.6274H11.6666C10.8537 28.6274 10.196 27.9697 10.196 27.1568V10.4901C10.196 9.67723 10.8537 9.01953 11.6666 9.01953H21.4706ZM28.3333 17.8431H22.9411V27.647H28.3333C28.5746 27.647 28.7742 27.4741 28.8156 27.2451L28.8235 27.1568V18.3333C28.8235 18.0618 28.6047 17.8431 28.3333 17.8431ZM21.4706 9.99992H11.6666C11.3952 9.99992 11.1764 10.2187 11.1764 10.4901V27.1568C11.1764 27.4282 11.3952 27.647 11.6666 27.647H13.1372V23.2352C13.1372 22.9946 13.3106 22.7944 13.5393 22.7529L13.6274 22.745H19.5098C19.7805 22.745 20 22.9645 20 23.2352V27.647H21.9608V10.4901C21.9608 10.2187 21.742 9.99992 21.4706 9.99992ZM19.0196 23.7254H14.1176V27.647H19.0196V23.7254ZM27.3509 22.745C27.6217 22.745 27.8411 23.0194 27.8411 23.3578C27.8411 23.6962 27.6217 23.9705 27.3509 23.9705H24.4137C24.143 23.9705 23.9235 23.6962 23.9235 23.3578C23.9235 23.0194 24.143 22.745 24.4137 22.745H27.3509ZM19.5098 19.8067C19.7805 19.8067 20 20.081 20 20.4194C20 20.7578 19.7805 21.0322 19.5098 21.0322H13.6274C13.3567 21.0322 13.1372 20.7578 13.1372 20.4194C13.1372 20.081 13.3567 19.8067 13.6274 19.8067H19.5098ZM27.3509 19.8067C27.6217 19.8067 27.8411 20.081 27.8411 20.4194C27.8411 20.7578 27.6217 21.0322 27.3509 21.0322H24.4137C24.143 21.0322 23.9235 20.7578 23.9235 20.4194C23.9235 20.081 24.143 19.8067 24.4137 19.8067H27.3509ZM17.7451 10.9801C18.0158 10.9801 18.2353 11.1996 18.2353 11.4703V12.7448H19.5098C19.7805 12.7448 20 12.9643 20 13.235V15.588C20 15.8587 19.7805 16.0782 19.5098 16.0782H18.2353V17.3527C18.2353 17.6234 18.0158 17.8429 17.7451 17.8429H15.3921C15.1214 17.8429 14.9019 17.6234 14.9019 17.3527V16.0782H13.6274C13.3567 16.0782 13.1372 15.8587 13.1372 15.588V13.235C13.1372 12.9643 13.3567 12.7448 13.6274 12.7448H14.9019V11.4703C14.9019 11.1996 15.1214 10.9801 15.3921 10.9801H17.7451ZM17.2549 11.9605H15.8823V13.235C15.8823 13.5057 15.6629 13.7252 15.3921 13.7252H14.1176V15.0978H15.3921C15.6629 15.0978 15.8823 15.3172 15.8823 15.588V16.8625H17.2549V15.588C17.2549 15.3172 17.4743 15.0978 17.7451 15.0978H19.0196V13.7252H17.7451C17.4743 13.7252 17.2549 13.5057 17.2549 13.235V11.9605Z" fill="white"/>
</svg>
