<svg width="20" height="20" viewBox="0 0 20 20" fill="none" xmlns="http://www.w3.org/2000/svg">
<path fill-rule="evenodd" clip-rule="evenodd" d="M1.66666 16.9453C1.66666 17.4363 1.91803 17.8811 2.3385 18.1352C2.56184 18.27 2.8105 18.3369 3.05735 18.3369C3.27708 18.3369 3.495 18.2844 3.69483 18.1786L17.6235 11.2306C18.0801 10.9891 18.3641 10.518 18.3641 10.0017C18.3641 9.48541 18.0801 9.01431 17.6145 8.76836L3.70387 1.82934C3.26985 1.59967 2.76077 1.61323 2.3385 1.86823C1.91803 2.12231 1.66666 2.56719 1.66666 3.05819C1.66666 3.11696 1.67751 3.17573 1.70011 3.22999L4.40917 10.0017L1.70011 16.7735C1.67751 16.8277 1.66666 16.8865 1.66666 16.9453ZM5.22354 10.4569C5.23682 10.4581 5.24823 10.4647 5.26185 10.4647H11.8672C12.1231 10.4647 12.3302 10.2576 12.3302 10.0017C12.3302 9.74583 12.1231 9.53876 11.8672 9.53876H5.26185C5.24823 9.53876 5.23682 9.54537 5.22354 9.54651L2.59801 2.98313C2.62694 2.79596 2.75715 2.6974 2.81683 2.66123C2.88465 2.62054 3.06278 2.53826 3.2807 2.65309L17.1913 9.59211C17.4137 9.70966 17.4381 9.91763 17.4381 10.0017C17.4381 10.0858 17.4137 10.2938 17.2003 10.4068L3.27166 17.3549C3.06187 17.4652 2.88374 17.382 2.81683 17.3422C2.75715 17.3061 2.62694 17.2075 2.59801 17.0203L5.22354 10.4569Z" fill="#333333"/>
</svg>
