<svg width="40" height="40" viewBox="0 0 40 40" fill="none" xmlns="http://www.w3.org/2000/svg">
<mask id="mask0" mask-type="alpha" maskUnits="userSpaceOnUse" x="0" y="0" width="40" height="40">
<rect width="40" height="40" rx="20" fill="white"/>
</mask>
<g mask="url(#mask0)">
<rect width="40" height="40" fill="#D9D9D9"/>
</g>
<path fill-rule="evenodd" clip-rule="evenodd" d="M17.9746 10H22.0254C23.1143 10 24 10.8857 24 11.9746V12H26.5C26.7764 12 27 12.2236 27 12.5V28.5C27 28.7764 26.7764 29 26.5 29H13.5C13.2236 29 13 28.7764 13 28.5V12.5C13 12.2236 13.2236 12 13.5 12H16V11.9746C16 10.8857 16.8857 10 17.9746 10ZM17.9746 11C17.437 11 17 11.4375 17 11.9746V13H23V11.9746C23 11.4375 22.563 11 22.0254 11H17.9746ZM26 13V28H14V13H16V13.5C16 13.7764 16.2236 14 16.5 14H23.5C23.7764 14 24 13.7764 24 13.5V13H26ZM16.5 16H23.5C23.7764 16 24 16.2236 24 16.5C24 16.7764 23.7764 17 23.5 17H16.5C16.2236 17 16 16.7764 16 16.5C16 16.2236 16.2236 16 16.5 16ZM16.5 19H23.5C23.7764 19 24 19.2236 24 19.5C24 19.7764 23.7764 20 23.5 20H16.5C16.2236 20 16 19.7764 16 19.5C16 19.2236 16.2236 19 16.5 19ZM23.5 22H16.5C16.2236 22 16 22.2236 16 22.5C16 22.7764 16.2236 23 16.5 23H23.5C23.7764 23 24 22.7764 24 22.5C24 22.2236 23.7764 22 23.5 22Z" fill="#444444"/>
</svg>
