<svg width="30" height="30" xmlns="http://www.w3.org/2000/svg">

 <g>
  <title>background</title>
  <rect fill="none" id="canvas_background" height="402" width="582" y="-1" x="-1"/>
 </g>
 <g>
  <title>Layer 1</title>
  <path fill="#EC0000" id="svg_1" d="m8.612,22.397c0.072,1.537 -0.143,3.65 -2.29,4.637l0.178,0.956c2.897,0 6.099,-1.922 7.332,-5.158l-5.22,-0.435z"/>
  <circle fill="#EC0000" id="svg_2" r="0.5" cy="27.5" cx="6.5"/>
  <path fill="#EC0000" id="svg_3" d="m24,4l-18,0c-2.209,0 -4,1.791 -4,4l0,12c0,2.209 1.791,4 4,4l18,0c2.209,0 4,-1.791 4,-4l0,-12c0,-2.209 -1.791,-4 -4,-4zm-9,12c-1.105,0 -2,-0.895 -2,-2c0,-1.105 0.895,-2 2,-2s2,0.895 2,2c0,1.105 -0.895,2 -2,2zm6,0c-1.105,0 -2,-0.895 -2,-2c0,-1.105 0.895,-2 2,-2s2,0.895 2,2c0,1.105 -0.895,2 -2,2zm-12,0c-1.105,0 -2,-0.895 -2,-2c0,-1.105 0.895,-2 2,-2s2,0.895 2,2c0,1.105 -0.895,2 -2,2z"/>
 </g>
</svg>