<svg width="64" height="64" xmlns="http://www.w3.org/2000/svg">

 <g>
  <title>background</title>
  <rect fill="none" id="canvas_background" height="402" width="582" y="-1" x="-1"/>
 </g>
 <g>
  <title>Layer 1</title>
  <path fill="#EC0000" stroke="null" id="svg_1" d="m48,39.26c-2.377,0 -4.515,1 -6.033,2.596l-17.737,-8.684c0.061,-0.408 0.103,-0.821 0.103,-1.246c0,-0.414 -0.04,-0.818 -0.098,-1.215l17.711,-8.589c1.519,1.609 3.667,2.619 6.054,2.619c4.602,0 8.333,-3.731 8.333,-8.333c0,-4.603 -3.731,-8.333 -8.333,-8.333s-8.333,3.73 -8.333,8.333c0,0.414 0.04,0.817 0.098,1.215l-17.711,8.589c-1.519,-1.609 -3.666,-2.619 -6.054,-2.619c-4.603,0 -8.333,3.731 -8.333,8.333c0,4.603 3.73,8.333 8.333,8.333c2.377,0 4.515,-1 6.033,-2.596l17.737,8.684c-0.061,0.407 -0.103,0.821 -0.103,1.246c0,4.603 3.731,8.333 8.333,8.333s8.333,-3.73 8.333,-8.333c0,-4.603 -3.731,-8.333 -8.333,-8.333z"/>
 </g>
</svg>