<svg width="14" height="18" viewBox="0 0 14 18" fill="none" xmlns="http://www.w3.org/2000/svg">
<path fill-rule="evenodd" clip-rule="evenodd" d="M7.00004 0.640137C10.6777 0.640137 13.6667 3.55592 13.6667 7.1513V9.02824C13.6667 11.4484 12.3937 13.5888 10.3334 14.7041V16.8699C10.3334 17.0992 10.1468 17.2851 9.9167 17.2851H4.08337C3.85325 17.2851 3.66671 17.0992 3.66671 16.8699V14.7041C1.60642 13.5888 0.333374 11.4484 0.333374 9.02824V7.1513C0.333374 3.55592 3.32239 0.640137 7.00004 0.640137ZM7.00004 1.47064C3.77868 1.47064 1.16671 4.01862 1.16671 7.1513V9.02824C1.16671 10.9828 2.11048 12.7191 3.66675 13.7372L3.66671 13.5464C3.66671 13.317 3.85325 13.1311 4.08337 13.1311C4.31349 13.1311 4.50004 13.317 4.50004 13.5464V14.3769C4.50004 14.3893 4.49949 14.4017 4.49841 14.4138C4.49944 14.4257 4.50004 14.4385 4.50004 14.4514V16.4546H5.74754L5.74762 13.9616C5.74762 13.7578 5.89502 13.5882 6.08939 13.5531L6.16429 13.5464C6.39441 13.5464 6.58096 13.7323 6.58096 13.9616L6.58087 16.4546H7.40921L7.40937 13.9616C7.40937 13.7578 7.55677 13.5882 7.75114 13.5531L7.82604 13.5464C8.05616 13.5464 8.24271 13.7323 8.24271 13.9616L8.24254 16.4546H9.50004V14.4514L9.50337 14.4132L9.50004 14.3769V13.5464C9.50004 13.317 9.68659 13.1311 9.9167 13.1311C10.1468 13.1311 10.3334 13.317 10.3334 13.5464L10.3342 13.7366C11.8899 12.7185 12.8334 10.9825 12.8334 9.02824V7.1513C12.8334 4.01862 10.2214 1.47064 7.00004 1.47064ZM6.70541 10.7612C6.86813 10.599 7.13195 10.599 7.29467 10.7612L8.128 11.5917C8.29072 11.7539 8.29072 12.0168 8.128 12.179C7.96528 12.3411 7.70146 12.3411 7.53874 12.179L7.00004 11.6421L6.46133 12.179C6.29861 12.3411 6.0348 12.3411 5.87208 12.179C5.70936 12.0168 5.70936 11.7539 5.87208 11.5917L6.70541 10.7612ZM9.9167 6.48706C11.0668 6.48706 12 7.41711 12 8.56333C12 9.70954 11.0668 10.6396 9.9167 10.6396C8.76659 10.6396 7.83337 9.70954 7.83337 8.56333C7.83337 7.41711 8.76659 6.48706 9.9167 6.48706ZM4.08337 6.48706C5.23349 6.48706 6.16671 7.41711 6.16671 8.56333C6.16671 9.70954 5.23349 10.6396 4.08337 10.6396C2.93325 10.6396 2.00004 9.70954 2.00004 8.56333C2.00004 7.41711 2.93325 6.48706 4.08337 6.48706ZM9.9167 7.31757C9.22682 7.31757 8.66671 7.87579 8.66671 8.56333C8.66671 9.25087 9.22682 9.80908 9.9167 9.80908C10.6066 9.80908 11.1667 9.25087 11.1667 8.56333C11.1667 7.87579 10.6066 7.31757 9.9167 7.31757ZM4.08337 7.31757C3.39349 7.31757 2.83337 7.87579 2.83337 8.56333C2.83337 9.25087 3.39349 9.80908 4.08337 9.80908C4.77325 9.80908 5.33337 9.25087 5.33337 8.56333C5.33337 7.87579 4.77325 7.31757 4.08337 7.31757Z" fill="black"/>
</svg>
