<svg width="14" height="18" viewBox="0 0 14 18" fill="none" xmlns="http://www.w3.org/2000/svg">
<path fill-rule="evenodd" clip-rule="evenodd" d="M6.99967 0.666504C10.6773 0.666504 13.6663 3.59222 13.6663 7.19984V9.08317C13.6663 11.5116 12.3933 13.6592 10.333 14.7783V16.9515C10.333 17.1816 10.1465 17.3682 9.91634 17.3682H4.08301C3.85289 17.3682 3.66634 17.1816 3.66634 16.9515V14.7783C1.60606 13.6592 0.333008 11.5116 0.333008 9.08317V7.19984C0.333008 3.59222 3.32202 0.666504 6.99967 0.666504ZM6.99967 1.49984C3.77831 1.49984 1.16634 4.05649 1.16634 7.19984V9.08317C1.16634 11.0444 2.11011 12.7866 3.66638 13.8081L3.66634 13.6167C3.66634 13.3866 3.85289 13.2 4.08301 13.2C4.31313 13.2 4.49967 13.3866 4.49967 13.6167V14.45C4.49967 14.4625 4.49912 14.4749 4.49805 14.4871C4.49907 14.499 4.49967 14.5119 4.49967 14.5248V16.5348H5.74717L5.74726 14.0333C5.74726 13.8288 5.89465 13.6587 6.08903 13.6234L6.16392 13.6167C6.39404 13.6167 6.58059 13.8032 6.58059 14.0333L6.58051 16.5348H7.40884L7.40901 14.0333C7.40901 13.8288 7.5564 13.6587 7.75078 13.6234L7.82567 13.6167C8.05579 13.6167 8.24234 13.8032 8.24234 14.0333L8.24217 16.5348H9.49967V14.5248L9.50301 14.4865L9.49967 14.45V13.6167C9.49967 13.3866 9.68622 13.2 9.91634 13.2C10.1465 13.2 10.333 13.3866 10.333 13.6167L10.3338 13.8076C11.8896 12.786 12.833 11.044 12.833 9.08317V7.19984C12.833 4.05649 10.221 1.49984 6.99967 1.49984ZM6.70505 10.822C6.86776 10.6593 7.13158 10.6593 7.2943 10.822L8.12764 11.6554C8.29035 11.8181 8.29035 12.0819 8.12764 12.2446C7.96492 12.4074 7.7011 12.4074 7.53838 12.2446L6.99967 11.7059L6.46097 12.2446C6.29825 12.4074 6.03443 12.4074 5.87171 12.2446C5.70899 12.0819 5.70899 11.8181 5.87171 11.6554L6.70505 10.822ZM9.91634 6.53334C11.0665 6.53334 11.9997 7.46655 11.9997 8.61667C11.9997 9.76679 11.0665 10.7 9.91634 10.7C8.76622 10.7 7.83301 9.76679 7.83301 8.61667C7.83301 7.46655 8.76622 6.53334 9.91634 6.53334ZM4.08301 6.53334C5.23313 6.53334 6.16634 7.46655 6.16634 8.61667C6.16634 9.76679 5.23313 10.7 4.08301 10.7C2.93289 10.7 1.99967 9.76679 1.99967 8.61667C1.99967 7.46655 2.93289 6.53334 4.08301 6.53334ZM9.91634 7.36667C9.22646 7.36667 8.66634 7.92679 8.66634 8.61667C8.66634 9.30655 9.22646 9.86667 9.91634 9.86667C10.6062 9.86667 11.1663 9.30655 11.1663 8.61667C11.1663 7.92679 10.6062 7.36667 9.91634 7.36667ZM4.08301 7.36667C3.39313 7.36667 2.83301 7.92679 2.83301 8.61667C2.83301 9.30655 3.39313 9.86667 4.08301 9.86667C4.77289 9.86667 5.33301 9.30655 5.33301 8.61667C5.33301 7.92679 4.77289 7.36667 4.08301 7.36667Z" fill="#6F7779"/>
</svg>
