<svg width="375" height="768" viewBox="0 0 375 768" fill="none" xmlns="http://www.w3.org/2000/svg">
<path opacity="0.5" d="M47.9858 1604.18C52.57 1608.83 53.344 1606.03 64.8422 1606.97C49.498 1636.89 7.35492 1669.57 -2.61133 1706C-7.97742 1699.49 -7.21539 1688.26 -12.5854 1681.71C-7.21539 1650.89 24.2192 1630.35 47.9858 1604.18ZM-2.61133 1598.58C2.74689 1610.72 5.81488 1611.63 15.793 1612.57C-7.97748 1633.14 -54.7405 1660.23 -59.3406 1701.34C-64.7027 1694.8 -65.4688 1683.57 -71.597 1677.02C-65.4688 1647.14 -27.1359 1624.71 -2.61133 1598.58ZM111.609 1682.66C109.315 1690.15 93.967 1682.66 97.801 1695.75C68.6763 1690.15 71.7324 1667.72 40.3137 1670.52C43.3817 1661.17 51.0499 1662.09 53.344 1653.69C78.6385 1648.09 82.4687 1665.83 111.609 1682.66ZM162.21 1651.83C160.67 1659.32 144.564 1653.69 148.398 1666.77C120.051 1661.17 100.873 1629.4 70.2123 1632.2C72.5064 1622.86 74.8164 1620.06 77.0986 1611.63C102.405 1606.03 133.066 1635 162.21 1651.83ZM-181.983 1484.58L-144.429 1537.83L-135.213 1514.49L-116.066 1519.15L-93.8473 1538.78C-74.665 1528.49 -37.1141 1520.09 -14.1057 1517.29C-13.3317 1524.78 -12.5854 1525.69 -11.8234 1533.18C-34.8041 1532.23 -83.1071 1565.86 -96.1295 1581.74C-96.4097 1581.06 -98.5763 1576.29 -101.506 1570.08L-101.702 1569.66L-96.8876 1580.8L-150.545 1642.45L-165.889 1644.35L-152.097 1594.83L-170.485 1598.58L-206.512 1648.09L-231.819 1646.2L-235.637 1629.4L-209.584 1592.03L-232.581 1597.64L-268.596 1625.66L-296.974 1623.81L-270.905 1583.6L-307.698 1586.43L-311.536 1595.78L-361.352 1592.03L-356.751 1571.49L-317.665 1545.32L-324.563 1529.44L-302.32 1518.24L-249.433 1541.58L-272.414 1501.41L-240.245 1499.55L-196.55 1538.78L-205.754 1485.52L-181.983 1484.58ZM-93.8473 1620.06C-81.5552 1605.12 -75.439 1606.03 -68.5408 1610.72C-67.0009 1618.18 -68.5408 1619.11 -67.0009 1627.55C-79.2612 1626.6 -80.0391 1629.4 -90.7594 1635C-89.9973 1623.81 -93.0693 1626.6 -93.8473 1620.06ZM-188.124 1511.69L-179.685 1558.41L-196.55 1559.32L-248.671 1517.29L-231.045 1556.52L-254.041 1558.41L-306.936 1532.23L-291.604 1557.46L-337.597 1574.29L-250.965 1569.61L-273.962 1613.52L-233.343 1579.9L-189.648 1578L-216.486 1632.2L-172.017 1578L-138.285 1576.15L-149.025 1621.91L-113.768 1566.81L-104.802 1563.16L-104.844 1563.07C-109.347 1553.73 -114.522 1543.45 -117.586 1538.78L-123.73 1557.46L-149.783 1556.52L-188.124 1511.69ZM364.563 1536.92C370.707 1537.83 375.299 1542.52 379.903 1547.18C336.197 1553.72 292.517 1595.78 267.973 1599.52C258.785 1601.37 266.433 1604.18 266.433 1606.03C285.611 1618.18 362.265 1547.18 395.24 1554.66C399.066 1556.52 402.888 1558.41 406.734 1560.26C352.315 1574.29 295.573 1639.65 239.626 1620.06C234.252 1618.18 230.418 1617.26 221.996 1612.57C214.316 1606.03 209.72 1605.12 210.486 1598.58C215.09 1598.58 228.882 1598.58 239.626 1597.64C249.584 1596.72 258.785 1589.23 261.857 1589.23C326.234 1570.55 335.434 1543.46 364.563 1536.92ZM164.493 1605.12C164.493 1609.77 161.432 1607.92 162.968 1618.18C152.99 1613.52 152.232 1611.63 141.512 1613.52C142.27 1606.97 141.512 1605.12 142.27 1598.58C147.64 1593.89 152.99 1592.98 164.493 1605.12ZM-73.1449 1600.43C-44.7664 1579.9 -35.5662 1559.32 -10.2715 1562.15C-7.21539 1570.55 -11.8234 1574.29 -7.97748 1582.69C-39.4121 1583.6 -32.5099 1603.23 -60.8726 1611.63C-57.8165 1598.58 -70.819 1607.92 -73.1449 1600.43ZM145.342 1589.23C143.79 1596.72 131.53 1588.29 135.368 1601.37C106.239 1596.72 109.315 1578 78.6385 1580.8C80.9485 1571.49 84.7787 1568.66 87.0767 1559.32C112.371 1554.66 116.205 1572.4 145.342 1589.23ZM16.567 1512.6C13.4831 1538.78 17.3171 1566.81 23.4612 1593.89C18.0753 1593.89 10.415 1592.03 5.81488 1592.98C-0.329163 1567.75 -2.61133 1541.58 -2.61133 1513.55C4.29877 1512.6 9.63708 1512.6 16.567 1512.6ZM49.498 1512.6C56.416 1512.6 62.5442 1512.6 69.4543 1513.55C69.4543 1541.58 67.1522 1567.75 61.0121 1592.98C55.6381 1592.03 47.9858 1593.89 42.6077 1593.89C49.498 1566.81 52.57 1538.78 49.498 1512.6ZM369.933 1471.49L370.354 1472.51L370.396 1472.46C371.188 1471.86 377.11 1474.65 378.371 1476.18C322.404 1479.92 291.74 1529.44 208.962 1552.77C204.353 1560.26 210.486 1557.46 212.78 1560.26C274.875 1571.49 305.536 1521 369.933 1490.18C371.481 1490.18 379.903 1484.58 391.406 1489.27C363.801 1521 281.003 1584.54 215.09 1585.49C192.855 1584.54 111.609 1538.78 77.8805 1536.92C77.8805 1530.38 77.8804 1529.44 79.3966 1518.24C103.167 1517.29 151.474 1535.03 172.169 1546.23C201.277 1556.52 267.973 1478.98 369.933 1471.49ZM-390.484 1509.8C-375.914 1528.49 -357.514 1519.15 -349.095 1533.18C-362.9 1534.09 -378.986 1535.98 -382.05 1553.72C-384.356 1557.46 -386.646 1560.26 -392.79 1559.32C-397.39 1549.07 -401.99 1540.63 -401.99 1521C-401.99 1512.6 -396.616 1505.15 -390.484 1509.8ZM-406.579 1535.98C-402.76 1542.52 -405.055 1550.91 -410.417 1555.61C-416.561 1559.32 -423.447 1556.52 -426.507 1549.98C-430.349 1543.46 -428.051 1534.09 -422.689 1530.38C-416.561 1526.64 -409.647 1528.49 -406.579 1535.98ZM317.046 1432.27C323.178 1432.27 332.366 1434.12 336.197 1438.81C317.046 1437.86 283.313 1463.09 260.317 1467.78C241.142 1471.49 239.626 1482.73 215.09 1500.46C215.848 1501.41 214.316 1502.32 214.316 1503.26C296.336 1460.29 329.306 1448.15 335.434 1454.7C339.269 1455.6 343.103 1457.49 346.937 1459.35C292.517 1473.38 243.452 1496.72 189.025 1535.03C181.357 1541.58 169.859 1538.78 161.432 1533.18C160.67 1531.29 152.99 1527.54 152.99 1521C162.21 1521 169.097 1522.89 177.527 1522.89C208.961 1495.81 223.516 1466.84 255.713 1457.49C274.875 1451.9 294.815 1436.96 317.046 1432.27ZM-497.045 1286.53L-474.81 1304.27L-471.738 1363.12L-456.41 1387.41L-452.588 1332.3L-421.915 1361.27L-418.089 1416.38L-409.647 1431.32L-404.273 1408.89L-388.956 1412.63L-384.356 1464.95L-332.993 1511.69L-339.891 1522.89L-394.318 1475.24L-397.39 1437.86L-409.647 1464.95L-428.805 1445.35L-431.877 1385.55L-442.621 1364.98L-446.459 1427.57L-481.708 1381.81L-485.538 1322.01L-492.452 1366.87L-515.433 1328.56L-514.671 1351.89L-534.588 1355.63L-492.452 1378.07L-488.61 1407.04H-526.931L-481.708 1414.53L-452.588 1445.35L-463.312 1459.35L-499.343 1468.69L-490.139 1476.18L-430.349 1466.84V1486.43L-386.646 1483.63L-369.794 1497.66L-444.149 1506.1L-445.677 1483.63L-500.871 1492.98L-534.588 1462.15L-479.414 1447.21L-486.308 1432.27L-546.876 1417.32L-566.034 1391.15L-513.913 1393.01L-543.804 1364.07L-567.562 1357.53L-559.12 1343.49L-525.403 1338.84L-530.003 1329.5L-538.43 1304.27L-527.697 1290.24L-500.871 1327.64L-497.045 1286.53ZM419.752 1470.58C426.647 1472.44 432.791 1475.24 438.157 1479.92C440.451 1477.12 445.821 1476.18 449.655 1476.18C456.561 1476.18 463.447 1484.58 463.447 1493.92C463.447 1504.21 456.561 1510.75 448.877 1511.69C441.229 1511.69 431.251 1506.1 432.029 1496.72C425.896 1494.86 420.53 1492.98 415.16 1488.32C415.16 1481.77 416.696 1475.24 419.752 1470.58ZM-326.083 1446.27C-322.273 1452.81 -323.027 1456.55 -324.563 1460.29C-335.295 1472.44 -329.163 1490.18 -322.273 1506.1C-336.831 1504.21 -339.891 1479.92 -359.827 1473.38C-365.968 1469.64 -363.658 1460.29 -358.295 1455.6C-343.729 1446.27 -336.053 1447.21 -326.083 1446.27ZM134.606 1449.06C133.828 1452.81 149.16 1452.81 146.1 1462.15C116.205 1494.86 -60.8727 1495.81 -73.1449 1475.24C-72.3709 1471.49 -67.7787 1455.6 -67.0009 1451.9C-16.3997 1488.32 110.831 1464.04 134.606 1449.06ZM-221.082 1416.38C-201.904 1423.87 -201.904 1450.01 -214.954 1461.2C-235.637 1480.87 -248.671 1483.63 -279.332 1467.78C-266.313 1460.29 -244.825 1450.01 -232.581 1440.66C-233.343 1442.55 -225.674 1450.01 -228.747 1457.49C-225.674 1456.55 -221.082 1457.49 -220.304 1449.06C-218.784 1407.04 -259.407 1440.66 -279.332 1452.81C-280.094 1451.9 -280.094 1440.66 -280.094 1438.81C-260.943 1422.92 -246.373 1414.53 -221.082 1416.38ZM-135.99 1288.39C-132.918 1267.81 -117.586 1264.1 -105.33 1265.05C-93.8473 1265.96 -84.6312 1277.16 -86.1514 1293.98C-86.1514 1298.67 -96.8876 1299.58 -96.8876 1294.92C-95.3674 1284.64 -101.48 1284.64 -106.85 1281.84C-112.994 1279.04 -122.182 1282.79 -122.956 1294.92C-123.73 1306.12 -116.066 1318.3 -109.176 1320.15C-123.73 1348.18 -111.458 1400.5 -100.734 1417.32C-106.104 1421.98 -112.994 1432.27 -110.696 1444.41C-107.628 1456.55 -98.4395 1457.49 -92.2954 1452.81C-86.9254 1449.06 -82.3331 1443.5 -85.4052 1434.12C-87.6993 1425.73 -76.967 1421.98 -74.665 1430.37C-70.819 1446.27 -76.2169 1464.95 -88.4772 1469.64C-99.9596 1474.32 -114.53 1474.32 -122.956 1453.75C-126.786 1443.5 -124.476 1429.46 -122.182 1421.98C-119.896 1414.53 -123.73 1421.07 -119.896 1415.44C-134.466 1379.96 -135.212 1364.07 -129.084 1320.15C-132.918 1314.56 -137.538 1297.73 -135.99 1288.39ZM574.596 1236.99C576.148 1257.56 568.468 1261.3 566.944 1264.1C540.117 1307.07 521.717 1291.18 461.153 1394.9C460.391 1405.15 465.003 1398.64 468.055 1399.55C526.305 1341.64 566.182 1299.58 586.868 1249.13C591.476 1264.1 589.936 1280.9 573.072 1306.12C546.241 1346.33 518.641 1370.61 480.312 1408.89C461.927 1431.32 404.424 1439.75 406.734 1470.58C399.832 1469.64 399.066 1465.89 392.164 1459.35C402.126 1433.21 411.326 1425.73 435.863 1415.44C497.954 1307.98 529.377 1301.47 574.596 1236.99ZM-40.9521 1309.87C7.35492 1371.52 -12.5855 1406.13 34.1815 1457.49C30.3514 1457.49 24.9774 1456.55 21.9252 1458.44C-28.6759 1399.55 -15.6575 1355.63 -61.6506 1305.21C-57.8165 1303.33 -44.0043 1300.53 -40.9521 1309.87ZM-0.329102 1303.33C42.6078 1361.27 27.2794 1403.29 73.2645 1455.6C69.4542 1455.6 63.3062 1460.29 57.178 1450.01C10.415 1389.29 24.2193 1351.89 -21.0117 1301.47C-17.1935 1299.58 -9.51343 1299.58 -0.329102 1303.33ZM-141.357 1437.86C-140.583 1441.61 -142.119 1451.9 -142.119 1454.7C-160.523 1440.66 -174.315 1437.86 -195.014 1444.41C-195.788 1441.61 -196.55 1434.12 -197.312 1431.32C-181.221 1419.18 -159.757 1419.18 -141.357 1437.86ZM56.416 1343.49C74.0424 1356.58 66.3783 1407.04 109.315 1450.95C106.239 1450.95 102.405 1453.75 97.801 1447.21C58.7141 1407.99 70.2123 1390.21 41.8457 1342.55C44.9058 1341.64 50.2878 1340.7 56.416 1343.49ZM179.063 1273.44C181.357 1282.79 179.063 1303.33 172.169 1306.12C184.429 1346.33 185.191 1357.53 175.241 1393.01C180.583 1397.7 178.297 1393.01 181.357 1398.64C184.429 1405.15 189.025 1418.27 185.949 1428.53C181.357 1449.06 166.803 1451.9 154.53 1450.01C142.27 1448.15 133.828 1432.27 135.368 1416.38C136.904 1407.99 147.64 1408.89 146.862 1417.32C145.342 1426.63 150.696 1428.53 156.824 1431.32C162.968 1434.12 169.097 1430.37 169.859 1418.27C170.637 1406.13 164.493 1396.75 158.36 1393.95C166.802 1376.21 172.919 1333.21 155.288 1309.87C161.432 1306.12 166.029 1290.24 164.493 1279.99C162.21 1268.75 152.232 1267.81 146.862 1270.61C141.512 1274.38 136.904 1279.99 139.198 1288.39C140.722 1296.78 126.18 1299.58 123.866 1291.18C120.051 1276.24 131.53 1258.5 143.032 1255.67C154.53 1251.96 173.689 1255.67 179.063 1273.44ZM599.843 1300.96L599.493 1301.78C597.174 1307.67 595.755 1320.66 593.774 1323.9C568.468 1366.87 563.114 1379.96 516.347 1417.32C504.864 1426.63 516.347 1429.46 522.475 1425.73C550.075 1396.75 585.332 1378.07 616.767 1314.56C617.529 1322.95 615.227 1339.79 614.457 1340.7C599.903 1367.82 583.038 1390.21 564.634 1409.83C540.891 1434.12 519.419 1452.81 498.704 1445.35C492.588 1446.27 490.278 1447.21 481.078 1446.27C471.89 1443.5 460.391 1446.27 458.859 1440.66C463.448 1437.86 484.908 1431.32 492.588 1423.87C497.954 1420.12 498.704 1416.38 501.776 1414.53C512.509 1406.13 571.54 1349.13 600.665 1299.58L599.843 1300.96ZM-349.095 1414.53C-342.963 1414.53 -337.597 1421.07 -337.597 1429.46C-337.597 1436.96 -342.963 1443.5 -349.095 1443.5C-355.982 1443.5 -361.352 1436.96 -361.352 1429.46C-361.352 1421.07 -355.982 1414.53 -349.095 1414.53ZM380.669 1371.52C388.33 1366.87 396.772 1372.47 399.832 1379.96C403.666 1388.36 403.666 1401.44 396.772 1405.15C398.296 1412.63 399.832 1419.18 398.296 1426.63C395.24 1428.53 389.87 1437.86 387.556 1437.86C385.262 1437.86 385.262 1430.37 382.952 1429.46C381.428 1421.07 380.669 1413.58 382.19 1405.15C378.371 1404.24 376.061 1398.64 374.541 1394.9C370.707 1387.41 373.759 1376.21 380.669 1371.52ZM-198.086 1420.12C-199.497 1422.71 -204.869 1410.1 -206.864 1410.44L-206.901 1410.45L-205.965 1409.64C-164.304 1372.13 -275.054 1355.66 -306.174 1358.47C-305.392 1355.63 -306.936 1350.07 -306.936 1347.24C-262.479 1337.9 -142.119 1364.07 -198.086 1420.12ZM202.059 1399.55C221.996 1387.41 245.75 1380.9 261.857 1381.81V1393.01C244.214 1397.7 224.29 1407.04 205.889 1419.18C205.127 1416.38 202.829 1402.38 202.059 1399.55ZM270.283 1364.98C274.117 1342.55 287.147 1338.84 300.182 1341.64C313.962 1343.49 321.646 1357.53 320.106 1378.07C317.808 1403.29 309.386 1409.83 292.517 1409.83L291.71 1409.66C277.487 1406.28 265.772 1386.07 270.283 1364.98ZM514.819 1220.19C514.819 1222.99 515.585 1242.62 508.678 1250.07C496.422 1265.05 493.366 1273.44 471.127 1294.92C468.818 1297.73 448.119 1301.47 443.527 1349.13C435.101 1365.92 445.821 1354.73 446.599 1356.58C447.357 1347.24 454.263 1349.13 510.214 1263.16C518.641 1256.61 510.214 1288.39 504.864 1294.92C471.127 1337.9 479.558 1318.3 445.821 1378.07C432.791 1384.61 438.157 1393.95 428.973 1400.5C438.931 1359.38 421.292 1321.1 460.391 1286.53C469.58 1279.04 494.124 1261.3 514.819 1220.19ZM298.634 1358.47C292.517 1354.73 283.313 1358.47 283.313 1370.61C282.543 1383.7 287.921 1391.15 294.038 1393.95L293.958 1393.91L294.038 1393.01C301.443 1393.01 305.258 1388.68 307.582 1379.15L307.834 1378.07C310.144 1366.87 305.536 1361.27 298.634 1358.47ZM-372.084 1343.49C-367.496 1322.01 -354.453 1318.3 -341.427 1320.15C-327.619 1322.95 -319.971 1336.95 -321.499 1357.53C-323.797 1382.76 -332.223 1389.29 -349.095 1389.29L-349.902 1389.12C-364.106 1385.7 -375.843 1365.51 -372.084 1343.49ZM-342.963 1337.9C-349.095 1334.15 -358.295 1337.9 -358.295 1350.07C-359.057 1363.12 -353.687 1370.61 -347.567 1372.47L-346.759 1372.45C-339.619 1372.13 -335.971 1367.45 -333.763 1357.53C-331.461 1346.33 -336.053 1340.7 -342.963 1337.9ZM302.48 1299.58C303.238 1302.42 304.778 1305.21 306.31 1307.98C276.411 1320.15 228.124 1348.18 261.857 1352.84L261.428 1352.77C260.886 1354.73 262.189 1367.27 260.539 1366.14L260.317 1365.92C192.093 1354.73 261.083 1309.87 302.48 1299.58ZM-608.951 1300.53C-598.989 1322.95 -579.065 1321.1 -574.46 1337.9C-588.253 1333.21 -604.363 1329.5 -611.253 1345.38C-614.321 1348.18 -617.385 1349.13 -622.767 1346.33C-625.046 1335.09 -627.364 1325.75 -622.767 1306.12C-619.688 1298.67 -612.785 1293.98 -608.951 1300.53ZM-629.658 1319.21C-628.884 1326.7 -632.722 1334.15 -638.842 1336.04C-645.756 1337.9 -651.884 1333.21 -653.412 1324.81C-654.182 1317.36 -650.344 1309.87 -644.228 1307.98C-637.322 1306.12 -631.178 1310.82 -629.658 1319.21ZM-677.961 1077.22L-664.145 1083.76V1142.65L-654.96 1149.19L-639.612 1095.9L-615.853 1102.48L-618.929 1196.81L-600.533 1166.93L-589.023 1181.87L-594.397 1265.05L-562.2 1313.62L-547.63 1315.47L-545.332 1332.3L-569.864 1327.64L-593.635 1300.53L-594.647 1298.55L-656.488 1269.7L-685.605 1251.96L-686.371 1239.82L-654.182 1238.88L-666.451 1227.67L-698.659 1221.14L-728.554 1209L-734.67 1180.93L-684.843 1182.82L-698.659 1170.67L-746.938 1157.59L-761.497 1132.36L-723.95 1127.67L-743.866 1098.73L-716.278 1095.9L-721.648 1085.65L-710.904 1081.9L-687.915 1114.59L-677.961 1077.22ZM-370.568 1262.21C-329.163 1272.5 -272.414 1311.72 -312.306 1331.36C-313.826 1334.15 -316.899 1315.47 -318.427 1318.3C-310.762 1301.47 -340.669 1283.69 -375.914 1271.55C-374.39 1268.75 -372.084 1265.05 -370.568 1262.21ZM253.415 1105.28C253.415 1107.13 254.188 1108.08 254.954 1108.99C259.547 1131.42 254.955 1165.04 231.18 1184.67C227.35 1188.42 207.425 1199.61 209.719 1210.85C212.033 1219.25 221.996 1225.78 223.516 1229.53C224.29 1229.53 182.131 1228.59 172.919 1225.78C127.7 1241.67 100.873 1240.73 103.167 1321.1C77.8805 1323.9 44.1556 1325.75 25.7552 1324.81C17.3171 1271.55 11.189 1216.44 24.9774 1173.48L41.0876 1192.16C21.9252 1231.39 36.4756 1259.41 36.4756 1303.33C36.4756 1305.21 87.8387 1307.07 87.8387 1305.21C90.1328 1271.55 89.3906 1249.13 114.665 1232.33C125.406 1224.84 172.919 1207.1 188.259 1194.96C236.566 1156.64 239.626 1146.36 233.494 1114.59C239.626 1109.93 248.048 1108.99 253.415 1105.28ZM-208.048 1259.41C-193.494 1272.5 -169.723 1296.78 -150.545 1307.07C-152.097 1308.92 -147.489 1318.3 -149.783 1320.15C-174.315 1317.36 -208.806 1289.33 -212.644 1266.9C-210.346 1265.05 -210.346 1261.3 -208.048 1259.41ZM295.573 1277.16C295.573 1280.9 295.574 1283.69 296.336 1286.53C265.687 1299.58 228.124 1308.92 195.149 1313.62C195.149 1309.87 195.915 1303.33 195.915 1299.58C228.882 1296.78 264.917 1288.39 295.573 1277.16ZM318.57 1259.41C341.583 1248.21 357.661 1250.07 379.903 1256.61C380.669 1257.56 382.952 1267.81 382.952 1268.75C360.729 1265.96 313.962 1252.87 326.234 1289.33C328.548 1295.87 332.366 1293.04 336.197 1293.98C330.842 1287.45 336.197 1278.1 335.434 1277.16C349.219 1280.9 371.481 1280.9 386.036 1282.79C361.507 1308.92 348.469 1310.82 323.178 1302.42C308.608 1296.78 301.718 1274.38 318.57 1259.41ZM-575.234 1243.56C-559.12 1239.82 -551.448 1243.56 -542.26 1246.36C-540.732 1253.81 -542.26 1257.56 -544.574 1261.3C-558.374 1267.81 -556.83 1287.45 -554.52 1304.27C-567.562 1297.73 -563.728 1273.44 -581.351 1259.41C-585.955 1253.81 -581.351 1245.42 -575.234 1243.56ZM-367.496 1236.99C-345.269 1231.39 -230.267 1301.47 -234.101 1273.44C-234.101 1277.16 -222.602 1273.44 -222.602 1277.16C-224.142 1329.5 -325.325 1251.96 -367.496 1248.21C-367.496 1245.42 -369.794 1240.73 -367.496 1236.99ZM-707.832 1103.39L-703.247 1120.22L-720.878 1110.88L-698.659 1147.3L-734.67 1144.5L-686.371 1159.45L-659.544 1195.87L-712.44 1196.81L-648.062 1218.3L-630.412 1248.21L-654.96 1251.96L-608.189 1273.44L-597.374 1293.23L-608.951 1270.61L-602.823 1198.71L-626.59 1224.84L-631.94 1197.76L-629.658 1116.48L-646.518 1181.87L-674.889 1154.79L-675.643 1108.08L-687.149 1133.3L-707.832 1103.39ZM4.29877 1267.81C4.29877 1271.55 5.05682 1283.69 5.05682 1287.45C-21.0117 1283.69 -50.1483 1287.45 -75.439 1293.04C-74.665 1289.33 -78.4872 1282.79 -76.2169 1273.44C-50.9303 1266.9 -21.7857 1265.96 4.29877 1267.81ZM-387.42 1225.78C-373.64 1244.47 -384.356 1265.05 -399.68 1265.96C-426.507 1267.81 -438.009 1261.3 -457.168 1229.53C-443.387 1231.39 -421.161 1237.92 -406.579 1237.92C-408.111 1238.88 -405.055 1249.13 -410.417 1253.82C-407.345 1254.76 -403.507 1258.5 -400.447 1252.87C-381.284 1220.19 -429.571 1220.19 -451.806 1216.44C-451.806 1215.5 -447.206 1207.1 -446.459 1206.16C-423.447 1205.25 -407.345 1208.04 -387.42 1225.78ZM74.8164 1219.25L76.3405 1249.13C76.3405 1257.56 61.7861 1275.3 57.178 1251.96C58.7141 1242.62 68.6763 1232.33 74.8164 1219.25ZM-257.871 1214.56C-253.267 1193.08 -241.007 1189.36 -227.214 1191.22C-214.192 1194.01 -205.754 1208.04 -208.048 1228.59C-209.584 1253.81 -218.784 1260.36 -235.637 1260.36L-236.402 1260.18C-249.882 1256.8 -261.634 1236.57 -257.871 1214.56ZM657.406 1220.19C664.296 1215.5 673.496 1220.19 676.552 1228.59C679.624 1237.92 675.79 1248.21 668.892 1251.96C661.986 1255.67 651.262 1255.67 648.979 1247.27C642.835 1249.13 637.469 1250.07 630.563 1248.21C628.265 1241.67 628.265 1235.13 629.027 1229.53C635.929 1227.67 642.835 1226.73 648.979 1228.59C650.484 1224.84 654.334 1221.14 657.406 1220.19ZM447.357 1132.36C452.711 1135.16 452.711 1151.96 447.357 1157.59L471.127 1160.39C460.391 1165.99 450.433 1166.93 439.693 1172.53C427.421 1181.87 427.421 1189.36 400.606 1202.41L418.983 1221.14C407.496 1218.3 390.616 1214.56 383.726 1213.64C368.564 1234.89 297.185 1219.59 296.337 1221.96L296.336 1249.13C296.336 1253.82 284.837 1222.04 270.283 1216.44C257.675 1210.47 238.688 1208.4 234.325 1212.35L234.113 1212.56L244.214 1194.96C300.182 1199.61 326.234 1220.19 385.262 1193.08C411.326 1180.93 434.323 1151.96 434.323 1137.96C435.101 1135.16 443.527 1136.08 447.357 1132.36ZM703.399 945.512C712.587 955.762 716.413 983.791 709.527 1013.71C698.033 1064.16 692.663 1119.27 658.156 1152.9C648.19 1182.82 597.608 1218.3 609.865 1245.42C602.963 1247.27 600.665 1244.47 593.012 1241.67C593.774 1212.7 599.902 1201.5 619.065 1180.93C631.325 1047.34 678.092 975.398 687.292 975.398C655.096 1036.1 684.99 1008.08 638.99 1126.77C631.325 1156.64 646.654 1142.65 648.979 1141.71C673.496 1106.19 689.591 1016.51 703.399 945.512ZM-228.747 1208.04C-234.875 1205.25 -244.079 1209 -244.825 1221.14C-244.825 1233.24 -239.483 1241.67 -233.343 1243.56L-232.506 1243.54C-225.394 1243.21 -221.77 1238.5 -219.534 1228.59C-217.236 1217.39 -222.602 1211.75 -228.747 1208.04ZM-152.097 1018.36C-140.583 1020.25 -119.138 1030.54 -116.84 1045.48C-106.85 1044.54 -86.9254 1052.94 -76.2169 1056.68C-76.2169 1045.48 -76.967 1034.25 -76.967 1023.05C-52.4305 1040.82 -58.5786 1066.97 -52.4305 1069.76C-47.0803 1072.56 -41.7102 1080.05 -25.6198 1094.05L-29.4499 1114.59C-49.3625 1096.84 -94.5935 1065.08 -118.36 1064.16C-155.915 1062.27 -162.833 1074.41 -172.779 1090.31C-178.907 1099.64 -194.256 1164.13 -172.779 1179.99C-162.059 1187.47 -127.548 1195.87 -116.84 1196.81C-67.7788 1202.41 -44.7664 1208.04 13.483 1174.38C17.3171 1186.56 13.483 1193.08 14.2411 1199.61C14.2411 1199.61 -7.21545 1205.25 -8.75146 1206.16C-5.67944 1225.78 -13.3317 1227.67 -26.3779 1238.88C-27.902 1240.73 -21.7856 1212.7 -28.6759 1216.44C-41.7102 1223.93 -61.6506 1226.73 -70.0768 1222.04C-73.1448 1234.18 -83.8652 1239.82 -97.6616 1241.67C-93.8474 1231.39 -90.7594 1230.44 -92.2954 1220.19C-103.778 1217.39 -126.028 1218.3 -141.357 1215.5C-152.855 1226.73 -162.833 1229.53 -174.315 1226.73C-165.127 1221.14 -168.175 1223.93 -161.281 1213.64C-216.486 1205.25 -205.754 1101.54 -183.516 1074.41L-200.384 1047.34C-178.149 1042.64 -178.907 1048.28 -165.889 1053.88C-161.281 1052.94 -152.855 1045.48 -147.489 1044.54C-142.881 1043.59 -152.097 1018.36 -152.097 1018.36ZM-571.392 1217.39C-569.102 1209.9 -562.2 1205.25 -556.052 1208.04C-549.936 1210.85 -546.876 1219.25 -549.15 1226.73C-550.694 1234.18 -557.592 1237.92 -563.728 1235.13C-569.864 1233.24 -573.698 1224.84 -571.392 1217.39ZM550.075 1154.79C555.445 1147.3 564.634 1147.3 570.762 1152.9C576.906 1158.5 581.514 1170.67 576.148 1177.18C579.978 1182.82 583.038 1188.42 585.332 1195.87C583.038 1199.61 581.514 1209.9 578.442 1211.75C576.906 1212.7 573.838 1205.25 572.298 1206.16C566.944 1199.61 563.872 1193.08 562.336 1184.67C559.268 1184.67 554.683 1181.87 552.373 1179.07C546.241 1173.48 545.471 1162.25 550.075 1154.79ZM-369.794 1006.22C-349.857 1006.22 -349.095 1008.08 -344.491 1022.11C-332.993 1022.11 -325.325 1023.05 -318.427 1020.25C-316.136 1019.31 -319.971 1038.93 -319.971 1038.93C-318.427 1043.59 -345.269 1037.09 -355.231 1048.28C-362.13 1053.88 -376.684 1109.93 -371.318 1121.13C-366.73 1132.36 -339.891 1155.7 -316.136 1157.59C-257.113 1162.25 -270.905 1161.34 -216.486 1142.65C-214.192 1153.84 -216.486 1157.59 -214.954 1161.34C-211.882 1167.84 -287.004 1187.47 -296.204 1179.07C-296.204 1187.47 -309.234 1197.76 -325.325 1198.71C-320.725 1190.27 -317.665 1181.87 -313.826 1174.38C-342.197 1170.67 -355.982 1161.34 -369.02 1155.7C-379.756 1166.93 -389.718 1180.93 -402.76 1164.13C-390.484 1166.93 -385.118 1154.79 -382.812 1140.76C-393.556 1139.81 -385.888 1044.54 -358.295 1029.6C-362.13 1022.11 -363.658 1013.71 -369.794 1006.22ZM132.304 1157.59L120.051 1184.67C116.205 1192.16 96.2769 1197.76 102.405 1173.48C107.779 1167.84 121.568 1165.04 132.304 1157.59ZM741.712 1005.27C720.247 1037.09 722.541 1080.05 692.663 1137.96C674.254 1173.48 677.33 1161.34 701.847 1142.65C707.975 1136.08 733.282 1081.9 750.908 1009.02C757.052 1044.54 721.783 1128.62 701.847 1162.25C696.493 1165.99 679.624 1178.17 671.202 1182.82C661.986 1184.67 652.04 1193.08 648.979 1188.42C658.156 1176.27 670.424 1153.84 678.866 1143.55C721.783 1064.16 703.399 1028.64 741.712 1005.27ZM322.404 1168.79C329.306 1165.99 340.805 1170.67 351.529 1170.67L333.14 1185.62C327.774 1190.27 310.144 1184.67 322.404 1168.79ZM155.288 1159.45C162.968 1156.64 176.749 1163.19 189.783 1163.19L167.565 1180.93C160.67 1185.62 139.198 1177.18 155.288 1159.45ZM53.344 1103.39C57.178 1117.42 62.5441 1126.77 70.9704 1137.96C61.7861 1145.45 49.498 1172.53 69.4543 1178.17C68.6763 1178.17 58.7141 1179.99 58.7141 1179.99C44.9058 1183.73 28.0494 1167.84 31.1095 1139.81C31.8874 1131.42 47.9858 1105.28 53.344 1103.39ZM369.933 1165.04C375.299 1163.19 384.5 1166.93 393.7 1166.93L378.371 1179.07C373.759 1182.82 359.209 1178.17 369.933 1165.04ZM-91.5493 1157.59C-76.2169 1168.79 -92.2954 1179.07 -98.4395 1177.18L-119.138 1167.84C-108.402 1165.04 -97.6616 1156.64 -91.5493 1157.59ZM376.835 1036.1V1062.27C382.19 1060.42 409.016 1064.16 409.016 1069.76C406.734 1069.76 404.424 1083.76 401.368 1080.96C390.616 1074.41 361.507 1078.16 345.401 1092.19C343.861 1094.05 340.805 1099.64 340.805 1099.64C308.608 1124.88 331.604 1190.27 261.857 1171.62L262.619 1159.45C277.935 1165.99 300.182 1166.93 310.144 1138.91C312.454 1131.42 322.404 1106.19 322.404 1093.14L324.714 1062.27L333.14 1085.65L354.613 1067.91L359.971 1055.73L376.835 1036.1ZM633.635 969.791C629.027 1020.25 602.197 1043.59 599.902 1106.19C596.068 1124.88 606.047 1103.39 606.805 1104.34C622.125 1057.63 637.469 1011.82 652.794 978.194C655.096 974.45 634.409 1061.36 611.389 1125.82C612.933 1147.3 616.009 1153.84 609.103 1163.19C566.182 1097.79 603.733 1030.54 633.635 969.791ZM-0.329102 1133.3C15.0191 1146.36 -1.8493 1157.59 -7.97748 1154.79L-30.2 1143.55C-18.7256 1140.76 -7.21539 1133.3 -0.329102 1133.3ZM393.7 1118.33L388.33 1144.5C386.802 1151.05 370.707 1161.34 371.481 1139.81C374.541 1133.3 385.262 1127.67 393.7 1118.33ZM-50.1483 1130.47C-38.6382 1147.3 -57.0425 1151.96 -62.4087 1147.3L-80.7971 1130.47C-69.2989 1131.42 -57.0425 1127.67 -50.1483 1130.47ZM357.661 1110.88L354.613 1137.96C353.823 1145.45 338.51 1157.59 336.974 1135.16C340.031 1127.67 350.763 1121.13 357.661 1110.88ZM-288.532 1132.36C-278.566 1146.36 -293.914 1149.19 -297.752 1145.45L-312.306 1131.42C-303.102 1132.36 -293.132 1129.56 -288.532 1132.36ZM276.411 1066.02C281.781 1067.91 300.182 1092.19 300.944 1100.59C303.238 1127.67 287.147 1144.5 273.355 1140.76C273.355 1140.76 263.377 1138.91 262.619 1138.91C281.781 1133.3 269.509 1104.34 260.317 1097.79C263.377 1082.85 267.211 1076.3 276.411 1066.02ZM181.357 1003.42C187.489 1003.42 195.915 1004.35 195.915 1004.35C202.059 1023.05 213.554 1031.45 242.694 1028.64C251.12 1031.45 258.023 1037.99 263.377 1045.48C266.433 1055.73 273.355 1054.82 258.785 1075.36C248.048 1105.28 248.048 1094.99 212.033 1100.59C190.557 1097.79 185.949 1088.45 185.949 1080.05C181.357 1079.11 182.893 1065.08 166.802 1062.27C158.36 1059.48 148.398 1060.42 146.1 1065.08C139.198 1065.08 113.907 1107.13 106.239 1110.88C97.0389 1134.22 81.7067 1133.3 76.3405 1130.47C69.4543 1120.22 61.0121 1105.28 61.0121 1094.05C61.0121 1090.31 71.7325 1080.96 74.8164 1080.96C86.2908 1080.96 103.167 1052.02 113.907 1042.64C110.073 1040.82 103.929 1040.82 101.647 1040.82C101.647 1037.99 91.6689 1048.28 82.4687 1048.28C77.0986 1048.28 61.7861 1049.22 61.7861 1052.02C57.178 1052.02 57.178 1081.9 53.344 1081.9C50.2878 1088.45 45.6758 1085.65 41.0876 1087.5C30.3514 1092.19 35.7175 1039.85 35.7175 1040.82C41.8457 1035.19 51.808 1035.19 57.9401 1034.25C64.0643 1041.74 96.2769 1025.85 114.665 1025.85C119.258 1025.85 122.318 1027.71 123.866 1031.45C125.406 1035.19 126.18 1037.99 124.644 1044.54C120.809 1049.22 92.4468 1083.76 86.2908 1091.25C80.9485 1094.99 85.5248 1098.73 94.7449 1099.64C103.167 1091.25 139.198 1038.93 146.1 1038.93C159.9 1040.82 167.565 1022.11 167.565 1022.11C168.327 1026.8 195.149 1049.22 198.983 1053.88C203.587 1058.53 205.127 1073.47 219.682 1072.56C221.218 1072.56 228.882 1069.76 233.494 1049.22C231.18 1037.09 212.78 1039.85 208.962 1035.19C194.391 1029.6 189.783 1020.25 181.357 1003.42ZM197.463 1105.28L177.527 1127.67C172.169 1134.22 149.16 1131.42 162.21 1108.99C169.859 1105.28 184.429 1108.08 197.463 1105.28ZM145.342 1096.84L136.138 1123.02C133.066 1130.47 116.205 1137.96 120.051 1114.59C124.644 1108.08 136.138 1104.34 145.342 1096.84ZM-219.534 1109.93C-205.754 1123.96 -223.376 1132.36 -228.747 1128.62L-248.671 1116.48C-237.935 1115.53 -226.452 1108.99 -219.534 1109.93ZM-484.78 890.369C-467.15 902.506 -459.482 914.668 -461.006 929.611C-434.949 948.308 -415.787 967.924 -405.055 987.535C-399.68 979.137 -395.084 971.649 -389.718 963.251C-381.284 992.203 -397.39 1005.27 -394.318 1011.82C-392.02 1018.36 -391.262 1026.8 -386.646 1047.34L-398.934 1058.53C-404.273 1033.34 -424.217 982.862 -441.859 968.848C-461.776 952.966 -473.274 940.824 -487.066 945.512C-496.287 947.369 -530.003 987.535 -530.003 1000.63C-530.003 1012.76 -516.207 1047.34 -494.743 1064.16C-444.911 1105.28 -460.24 1087.5 -403.507 1098.73C-405.817 1109.93 -403.507 1111.79 -405.817 1117.42C-405.817 1117.42 -451.056 1109.93 -453.35 1109.93C-459.482 1124.88 -468.678 1129.56 -483.236 1127.67C-486.308 1126.77 -463.312 1107.13 -469.444 1104.34C-481.708 1100.59 -493.977 1093.14 -497.815 1084.7C-505.459 1091.25 -523.113 1090.31 -533.06 1081.9C-526.169 1078.16 -518.505 1073.47 -511.599 1068.82C-535.373 1049.22 -534.588 1041.74 -544.574 1028.64C-557.592 1033.34 -563.728 1027.71 -568.336 1006.22C-559.89 1006.22 -556.83 1012.76 -547.63 1010.88C-556.83 1003.42 -512.361 924.009 -482.47 926.825L-484.78 890.369ZM-114.53 1106.19C-98.4395 1119.27 -116.066 1130.47 -122.956 1126.77L-145.195 1115.53C-133.696 1112.73 -121.42 1105.28 -114.53 1106.19ZM430.477 1060.42C445.047 1048.28 464.225 1046.39 472.648 1056.68L473.101 1057.5C480.088 1070.86 474.602 1097.11 457.331 1109.93C440.451 1123.96 419.752 1122.07 412.866 1109.93C405.198 1096.84 413.62 1074.41 430.477 1060.42ZM24.2193 1044.54C22.6833 1058.53 24.2192 1074.41 27.2794 1090.31C21.9252 1090.31 15.793 1089.39 9.63708 1091.25C2.74689 1094.05 -4.9054 1106.19 3.50494 1117.42L0.448792 1114.59C-13.3317 1109.93 -22.5477 1087.5 -7.97748 1063.22C-4.14337 1054.82 18.8531 1042.64 24.2193 1044.54ZM-100.734 1084.7C-89.9973 1090.31 -76.967 1091.25 -71.597 1096.84C-64.7028 1119.27 -83.8652 1115.53 -87.6993 1108.99L-100.734 1084.7ZM472.644 1056.68L460.391 1067.91C455.783 1062.27 444.301 1063.22 435.101 1070.67C425.122 1078.16 418.982 1091.25 422.824 1099.64C427.421 1107.13 441.229 1107.13 451.187 1098.73C461.153 1091.25 465.003 1075.36 461.153 1067.91L472.644 1056.68ZM-318.427 1082.85C-304.63 1096.84 -321.499 1104.34 -326.853 1101.54L-346.023 1089.39C-335.295 1087.5 -324.563 1081.9 -318.427 1082.85ZM-241.007 1053.88C-230.267 1058.53 -201.158 1080.96 -201.158 1091.25C-202.682 1094.05 -205.754 1100.59 -209.584 1100.59C-218.01 1088.45 -229.509 1076.3 -244.079 1071.65L-241.007 1053.88ZM-307.698 1042.64C-308.464 1014.62 -297.752 1003.42 -280.86 1007.17L-282.404 1019.31L-280.094 1007.17C-259.407 1009.97 -244.825 1019.31 -252.505 1055.73C-260.153 1093.14 -277.03 1099.64 -290.838 1091.25C-303.864 1082.85 -306.936 1069.76 -307.698 1042.64ZM153.768 1070.67C157.586 1068.82 165.266 1071.65 172.169 1070.67L159.9 1081.9C156.824 1084.7 145.342 1081.9 153.768 1070.67ZM513.275 1056.68C517.879 1063.22 518.641 1070.67 514.819 1080.05C507.146 1080.96 500.252 1080.05 494.124 1074.41V1066.97C499.478 1060.42 505.61 1056.68 513.275 1056.68ZM-444.911 1054.82C-434.179 1058.53 -422.689 1056.68 -416.561 1061.36C-407.345 1080.05 -425.757 1080.96 -430.349 1075.36L-444.911 1054.82ZM-282.404 1019.31L-282.999 1019.43C-288.971 1020.92 -295.472 1030.96 -296.974 1043.59C-299.272 1057.63 -296.204 1072.56 -289.302 1074.41C-282.404 1076.3 -273.962 1063.22 -271.668 1049.22C-269.369 1035.19 -275.506 1021.17 -282.404 1019.31ZM-753.837 1022.11C-753.078 1047.34 -733.9 1055.73 -736.198 1073.47C-746.938 1062.27 -759.969 1050.13 -772.233 1061.36C-776.075 1061.36 -779.131 1061.36 -782.957 1054.82C-780.667 1043.59 -779.131 1034.25 -767.641 1019.31C-763.037 1013.71 -754.599 1013.71 -753.837 1022.11ZM-720.112 780.127L-713.206 810.957L-731.61 835.256L-736.198 852.071L-697.111 827.786L-700.183 858.611L-733.9 897.853L-742.338 913.744L-704.771 896.909L-705.549 932.426L-736.198 965.128L-721.648 962.312L-720.878 977.246L-730.848 1002.49L-710.149 1071.65H-720.878L-742.338 1017.42V998.753L-743.108 1017.42L-776.841 987.535L-773.769 971.649L-795.23 952.966L-815.928 944.568L-819 911.867L-782.957 923.08L-809.788 865.137L-800.604 828.71L-775.309 861.426L-774.543 800.687L-755.365 784.8L-750.01 806.284L-733.126 785.749L-720.112 780.127ZM-696.349 992.203C-680.251 995.952 -674.889 1003.42 -667.213 1009.97C-667.213 1017.42 -669.519 1020.25 -672.583 1023.05C-687.915 1023.05 -692.507 1041.74 -695.587 1058.53C-705.549 1046.39 -694.821 1025.85 -707.077 1004.35C-710.149 996.876 -703.247 992.203 -696.349 992.203ZM490.278 1024.9C497.18 1025.85 501.776 1031.45 504.864 1040.82C499.478 1048.28 493.366 1052.94 485.682 1053.88C484.908 1052.02 483.388 1050.13 481.078 1048.28C482.61 1038.93 484.908 1030.54 490.278 1024.9ZM-490.909 1025.85C-482.47 1030.54 -472.496 1032.39 -468.678 1037.09C-464.078 1053.88 -478.648 1050.13 -480.938 1045.48L-490.909 1025.85ZM-788.339 1009.97C-782.203 1011.82 -777.599 1019.31 -779.131 1027.71C-780.667 1035.19 -787.557 1039.85 -793.701 1037.99C-799.834 1036.1 -803.664 1028.64 -802.136 1020.25C-800.604 1012.76 -794.467 1008.08 -788.339 1009.97ZM468.055 1004.35C474.962 1004.35 480.312 1009.02 484.162 1016.51C479.558 1025.85 474.962 1031.45 468.055 1034.25C465.757 1032.39 464.225 1031.45 462.689 1029.6C461.927 1021.17 463.447 1011.82 468.055 1004.35ZM-442.621 989.407C-437.239 1001.57 -428.051 1010.88 -427.285 1019.31C-432.635 1040.82 -444.911 1023.96 -444.911 1016.51L-442.621 989.407ZM120.809 909.995C141.512 948.308 152.232 973.54 154.53 1006.22C155.288 1018.36 152.232 1042.64 126.942 1018.36C103.929 995.952 91.6689 965.128 69.4543 934.279C62.5933 924.259 83.97 938.908 86.326 940.1L86.4258 940.148L87.4451 941.961C105.989 975.161 109.609 986.448 130.245 1000.69L131.53 1001.57C137.662 1006.22 142.27 998.753 141.512 995.952C126.18 958.597 113.907 926.825 113.907 926.825C117.457 919.017 120.351 911.239 120.76 910.13L120.809 909.995ZM521.717 984.734C524.769 976.322 533.977 973.54 540.891 978.194C548.547 982.862 550.075 994.08 546.241 1002.49C543.169 1009.97 533.977 1018.36 527.845 1012.76C524.011 1019.31 520.177 1023.96 514.049 1027.71C508.678 1023.96 505.61 1019.31 503.308 1013.71C507.92 1006.22 513.275 1001.57 519.419 998.753C518.641 994.08 520.177 988.483 521.717 984.734ZM181.587 914.94L183.721 917.493C260.857 1009.63 249.845 993.343 275.649 1011.82C277.169 1013.71 277.935 1023.05 258.785 1016.51C254.954 1014.62 216.626 984.734 185.191 933.35C182.376 929.056 182.795 917.636 181.685 915.114L181.587 914.94ZM49.6687 954.22L50.2623 955.32C58.8767 970.935 74.1553 989.627 77.8805 996.876C81.7067 1001.57 92.4468 995.019 92.4468 995.019C95.5149 995.952 97.039 997.824 97.801 1004.35C98.575 1008.08 86.2909 1021.17 80.1905 1015.56C69.4543 1004.35 55.6381 982.862 44.9059 967.924C39.6633 960.713 48.4789 955.568 49.65 954.244L49.6687 954.22ZM173.183 872.95L173.403 873.216C190.198 893.382 285.734 995.084 297.884 1001.57C308.608 1006.22 323.94 1002.49 323.94 1002.49C325.472 1004.35 333.914 1007.17 337.744 1011.82C343.861 1018.36 301.718 1017.42 295.573 1015.56C276.411 1009.02 191.319 907.199 168.327 884.767C158.875 874.917 171.99 873.734 173.183 872.95ZM-480.164 973.54C-474.81 983.791 -464.84 993.156 -463.312 1000.63C-466.368 1021.17 -480.164 1007.17 -480.164 999.697V973.54ZM-230.267 989.407C-234.875 998.753 -240.245 1005.27 -247.897 1009.02C-249.433 1007.17 -251.731 1005.27 -254.041 1003.42C-254.803 994.08 -252.505 984.734 -248.671 976.322C-241.007 975.398 -234.875 980.066 -230.267 989.407ZM191.573 841.081L191.911 841.471C215.816 868.633 326.602 975.566 344.643 983.791C358.694 991.502 383.694 982.723 384.813 980.494L384.849 980.381L385.265 980.556C388.408 981.882 391.95 983.799 394.129 986.237L394.446 986.606C411.326 1008.08 357.661 1006.22 348.469 1003.42C321.646 994.08 217.388 883.843 187.489 852.995C183.812 849.276 190.921 843.736 191.56 841.186L191.573 841.081ZM-290.076 968.848C-286.238 979.137 -285.46 988.483 -288.532 997.824C-290.838 997.824 -293.132 998.753 -295.422 999.697C-302.32 995.019 -306.936 986.606 -309.234 977.246C-304.63 969.791 -297.752 966.995 -290.076 968.848ZM-762.263 806.284L-767.641 892.256L-796.769 859.54L-766.871 920.284L-766.097 943.62L-798.298 936.151L-757.671 966.052L-764.569 982.862L-742.338 998.753L-730.848 980.066H-744.636L-748.478 956.706L-719.338 924.933L-751.527 931.483L-756.909 907.199L-720.878 859.54L-752.308 879.165L-751.527 846.454L-728.554 808.156L-753.837 826.843L-762.263 806.284ZM-256.335 967.924C-256.335 979.137 -258.633 987.535 -264.003 995.019C-266.313 994.08 -268.596 994.08 -271.668 994.08C-276.276 985.682 -277.804 976.322 -277.804 966.052C-270.906 961.384 -264.003 962.312 -256.335 967.924ZM-684.843 969.791C-681.017 964.18 -673.361 963.251 -668.745 967.924C-663.379 973.54 -662.616 981.933 -667.213 988.483C-671.059 995.019 -678.711 995.019 -683.315 990.336C-688.673 985.682 -689.443 976.322 -684.843 969.791ZM159.134 887.583C170.637 919.341 178.297 927.739 185.191 977.246C186.723 988.483 185.949 1002.49 172.169 982.862C157.586 962.312 138.436 922.137 131.53 903.459C129.236 898.782 140.722 905.307 139.198 902.506L139.202 902.512L140.161 904.67C152.722 933.007 154.108 941.015 169.459 963.42L170.637 965.128C175.241 971.649 175.241 959.511 175.241 959.511C162.329 909.714 152.784 896.688 151.598 895.207L151.474 895.057C155.288 889.455 159.134 887.583 159.134 887.583ZM182.425 858.128L182.505 858.251C195.827 877.583 303.322 983.838 311.668 988.483C314.736 990.336 302.48 987.535 300.182 989.407C296.336 993.156 193.645 890.369 179.837 867.957C175.309 860.855 181.691 859.084 182.416 858.152L182.425 858.128ZM55.6381 948.308C56.416 942.696 55.6381 935.222 61.0121 938.967C65.6162 942.696 84.0166 971.649 85.5248 981.933C83.4565 985.307 78.9193 985.645 78.0325 985.679L77.8805 985.682C73.2645 970.72 58.7141 948.308 55.6381 948.308ZM97.801 938.023C93.2049 932.426 104.703 931.483 110.073 936.151C115.431 939.9 129.236 970.72 130.772 980.066C128.462 984.734 123.866 983.791 123.866 983.791C119.258 968.848 102.405 938.967 97.801 938.023ZM197.463 733.436C234.252 753.976 463.447 925.881 471.89 934.279C497.954 956.706 428.973 982.862 415.16 979.137C382.19 969.791 239.626 840.852 201.277 807.227C198.226 804.236 201.535 794.061 200.236 789.636L200.194 789.528L200.942 790.241C233.797 821.465 388.057 946.88 412.156 958.278L412.866 958.597C432.791 966.995 453.489 947.369 458.081 944.568C464.225 940.824 218.158 763.312 202.829 750.232C196.685 745.554 203.587 739.033 197.463 733.436ZM198.709 820.899C216.392 842.327 356.244 961.44 366.873 966.995C370.707 968.848 351.529 964.18 353.077 968.848C353.823 970.72 220.456 856.739 198.983 835.256C190.448 827.249 198.23 822.672 198.706 820.933L198.709 820.899ZM441.991 452.184C448.119 462.468 451.187 452.184 451.953 464.336C458.081 556.838 495.66 565.246 514.819 603.549C517.105 608.213 524.011 621.298 523.249 636.251C520.951 669.891 542.415 787.596 543.947 810.957C544.709 822.17 551.615 829.644 551.615 817.502C548.547 741.834 550.857 684.834 549.301 624.109C549.301 620.374 550.075 608.213 550.075 602.616C550.075 580.194 538.581 558.701 521.717 486.758L541.649 491.431C543.947 511.995 554.683 542.824 562.336 568.98C566.182 580.194 570.762 598.871 570.016 606.36C556.985 730.601 569.238 941.772 546.241 959.511C546.241 952.966 543.947 945.512 543.947 938.967C547.007 838.056 512.509 742.758 505.61 645.587C504.864 638.128 503.308 625.032 500.252 619.426C484.908 585.8 452.711 587.663 431.251 463.412C435.101 463.412 440.451 449.388 441.991 452.184ZM-76.2169 871.682C-74.665 867.957 -76.2169 882.914 -76.2169 883.843C-89.9974 892.256 -100.734 898.781 -111.458 909.995C-112.994 912.791 -119.896 915.597 -121.42 928.682C-122.182 929.611 -119.896 934.279 -119.896 936.151C-112.232 938.967 -72.3709 920.284 -67.7787 920.284C-66.2546 925.881 -63.9288 929.611 -63.9288 932.426C-76.967 936.151 -130.62 957.654 -132.918 949.222C-142.881 948.308 -139.836 930.535 -135.99 924.009C-124.476 905.307 -117.586 900.654 -99.1856 884.767C-97.6615 883.843 -84.6312 872.63 -76.2169 871.682ZM197.959 760.174C216.854 782.29 417.55 934.316 426.647 938.023C429.731 939.9 411.326 940.824 412.092 945.512C412.092 946.416 221.218 801.611 203.587 781.056C190.53 766.749 197.504 761.912 197.958 760.207L197.959 760.174ZM-523.113 875.426C-512.361 898.782 -509.289 911.867 -517.743 928.682C-526.931 945.512 -545.332 952.023 -568.336 926.825C-591.325 900.654 -582.121 881.971 -564.502 864.227L-563.482 865.467L-563.728 865.137C-549.936 850.198 -534.588 851.123 -523.113 875.426ZM-14.8835 825.914C-11.8235 817.502 -3.38531 821.241 -3.38531 821.241C31.1095 874.478 44.9058 899.71 49.498 923.08C51.808 932.426 47.9858 952.966 30.3514 938.023C3.50494 915.597 -32.5099 856.739 -60.8726 828.71C-65.124 824.397 -46.4287 828.862 -46.0193 827.339L-46.0285 827.212L-43.6199 830.472C-18.587 864.19 6.29327 893.759 26.6517 916.888L28.8154 919.341C33.4195 924.009 35.7175 909.995 35.7175 909.995C7.35492 836.204 -14.8835 825.914 -14.8835 825.914ZM-539.966 579.255C-515.433 589.535 -509.289 610.085 -507.003 619.426C-497.815 659.601 -531.539 698.862 -522.347 729.692C-511.599 763.312 -486.308 769.857 -447.98 808.156C-418.089 838.056 -453.35 937.085 -352.159 915.597C-349.095 920.284 -341.427 927.739 -339.125 933.35C-436.477 972.597 -444.911 868.881 -455.648 821.241C-483.236 790.397 -513.913 789.473 -534.588 742.758C-544.574 677.36 -514.671 669.891 -516.961 632.502C-515.433 607.293 -532.297 591.407 -539.204 591.407C-543.038 591.407 -540.732 582.056 -539.966 579.255ZM748.614 903.459C753.98 897.853 763.168 897.853 768.55 905.307C773.905 911.867 773.158 923.08 767.792 929.611C762.406 936.151 751.682 940.824 747.094 932.426C741.712 937.085 736.354 939.9 730.214 940.824C725.617 936.151 724.081 929.611 724.081 924.009C730.214 919.341 735.584 916.54 742.482 915.597C742.482 911.867 745.538 906.255 748.614 903.459ZM-69.2989 835.542L-69.1229 836.075C-67.6664 840.209 -62.2518 850.198 -61.6506 850.198C-59.3406 867.957 -55.5065 885.715 -48.6044 901.602C-46.3024 904.398 -44.0043 917.449 -34.046 924.009C-33.2681 924.009 -31.7361 923.08 -30.974 924.009C-25.6198 913.744 -30.2 890.369 -28.6759 885.715C-24.8418 887.583 -22.5477 891.317 -20.2338 892.256C-21.0117 909.051 -17.9517 939.9 -25.6198 940.824C-36.3401 940.824 -38.6382 939.9 -43.2462 933.35C-54.7405 913.744 -56.2646 902.506 -63.9288 876.369C-64.7028 872.63 -69.2989 861.426 -69.2989 834.317V835.542ZM731.761 656.805C754.742 664.274 745.538 813.777 730.984 838.056C729.451 867.023 704.161 878.227 703.399 931.483C697.251 936.151 699.549 935.222 691.123 936.151C699.549 903.459 697.251 894.113 704.161 870.772C682.696 753.976 709.527 660.53 718.715 657.729C729.451 718.459 696.493 752.104 709.527 811.9C709.527 839.909 721.783 830.582 726.379 823.094C723.307 668.004 737.894 761.445 731.761 656.805ZM-329.937 916.54C-326.083 915.597 -320.725 916.54 -319.971 918.393C-318.427 923.08 -310.762 922.137 -309.234 923.08C-309.992 924.933 -315.37 931.483 -320.725 929.611C-323.027 927.739 -323.797 927.739 -327.619 924.009C-329.937 923.08 -336.831 920.284 -329.937 916.54ZM638.99 884.767C642.062 875.426 650.484 871.682 658.156 874.478C665.054 877.298 672.726 887.583 668.892 895.057C675.02 899.71 679.624 903.459 682.696 909.995C681.922 913.744 682.696 924.933 681.164 927.739C679.624 928.682 675.02 924.009 673.496 924.933C666.594 920.284 661.986 915.597 658.926 908.123C655.096 909.995 650.484 908.123 647.427 907.199C640.525 904.398 636.695 893.165 638.99 884.767ZM-204.976 896.909C-195.014 890.369 -190.422 890.369 -176.613 891.317C-170.485 891.317 -143.655 895.985 -129.858 897.853L-130.061 897.82L-130.255 897.925C-132.025 898.981 -139.146 905.714 -139.79 907.046L-139.836 907.199C-154.379 898.781 -178.907 896.909 -187.35 896.909C-188.898 897.853 -191.942 898.781 -192.72 900.654C-193.494 907.199 -189.648 906.255 -188.898 906.255C-182.742 907.199 -151.319 913.744 -149.783 916.54C-151.319 919.341 -150.545 922.137 -150.545 924.009C-166.651 917.449 -204.202 919.341 -206.512 911.867C-216.486 905.307 -208.806 899.71 -204.976 896.909ZM-87.6993 904.398C-82.3331 899.71 -77.7252 898.781 -71.597 899.71C-70.819 903.459 -70.819 903.459 -70.0768 909.052C-76.967 909.995 -98.4395 918.393 -104.556 922.137C-105.33 921.194 -98.4395 911.867 -95.3674 910.938C-95.3674 909.25 -89.2287 905.347 -87.9363 904.544L-87.6993 904.398ZM57.9401 779.203C79.3967 819.369 86.2909 822.17 103.167 901.602C105.481 911.867 99.3529 934.279 77.0986 913.744C52.57 892.256 26.5134 843.653 4.29877 811.9C-0.048645 805.752 13.2321 804.534 12.9429 802.099L12.9036 801.979L14.4403 804.846C34.5272 842.336 50.865 870.724 76.4248 894.003L78.6385 895.985C87.0767 903.459 90.1329 891.317 90.1329 891.317C78.6385 815.63 47.2158 789.473 47.2158 789.473C51.0499 781.056 57.9401 779.203 57.9401 779.203ZM-311.536 904.398C-306.936 904.398 -300.792 905.307 -300.03 907.199C-297.752 912.791 -289.302 910.938 -287.004 912.791C-287.774 914.668 -293.914 922.137 -300.03 920.284C-303.102 918.393 -304.63 917.449 -308.464 913.744C-311.536 911.867 -319.208 909.052 -311.536 904.398ZM-556.83 874.478L-557.191 873.985L-557.351 874.175C-562.867 881.078 -561.209 897.212 -553.766 907.199C-545.332 917.449 -531.539 922.137 -526.169 915.597C-520.803 909.051 -524.641 894.113 -532.298 883.843C-539.966 874.478 -550.694 869.829 -556.83 874.478ZM375.299 473.682C383.726 540.952 429.731 558.701 450.433 593.27C452.711 596.08 454.263 620.374 455.009 633.45C458.081 666.146 481.078 742.758 483.388 765.17C484.162 774.53 492.588 779.203 491.056 767.061C492.588 690.431 480.312 671.743 468.818 613.829C466.523 599.815 489.516 624.109 490.278 633.45C505.61 759.568 516.347 787.596 505.61 913.744C504.086 909.052 500.252 903.459 500.252 895.057C498.704 806.284 455.783 737.141 442.761 643.715C441.991 639.985 445.047 621.298 433.549 604.492C415.922 575.521 398.296 571.786 354.613 481.161C359.971 476.492 372.989 447.516 375.299 473.682ZM-361.352 860.488C-361.352 855.795 -358.295 840.852 -353.687 843.653C-351.385 844.602 -349.857 849.27 -345.269 858.611C-344.491 884.767 -339.125 890.369 -334.533 899.71C-331.461 906.255 -333.763 909.995 -332.993 911.867C-336.831 911.867 -336.831 911.867 -341.427 909.052C-345.269 904.398 -357.514 894.113 -352.159 895.057C-333.763 898.782 -355.982 866.085 -361.352 860.488ZM-294.68 892.256C-288.532 890.369 -280.094 891.317 -278.566 893.165C-274.74 900.654 -263.225 896.909 -260.943 899.71C-260.943 902.506 -269.37 912.791 -277.804 910.938C-282.404 909.995 -283.932 908.123 -290.076 904.398C-293.914 902.506 -304.63 899.71 -294.68 892.256ZM-37.8762 825.914C-47.0803 799.743 -50.9302 796.943 -28.6759 822.17C-21.7856 829.644 11.959 870.772 26.5134 901.602C24.2193 908.123 24.9774 904.398 24.9774 904.398C4.29871 872.63 -29.4499 835.256 -37.8762 825.914ZM-190.422 790.397C-185.825 791.341 -175.835 801.611 -173.557 807.227C-172.779 816.573 -171.243 819.369 -172.779 827.786C-178.907 866.085 -213.418 877.298 -218.784 895.985C-230.267 909.052 -238.713 903.459 -242.543 903.459C-253.267 900.654 -272.414 884.767 -277.03 877.298C-280.094 877.298 -283.932 861.426 -280.094 854.886C-275.506 846.454 -264.777 838.98 -258.633 836.204C-249.433 837.113 -240.245 839.909 -238.713 845.53L-237.173 861.426C-245.615 861.426 -254.803 851.122 -263.225 858.611C-263.225 859.54 -264.777 862.341 -264.777 863.284C-262.479 875.426 -252.505 876.369 -244.079 882.914C-241.781 882.914 -234.875 886.62 -231.819 881.971C-209.584 852.071 -190.422 841.796 -185.826 824.047C-185.826 810.028 -189.648 809.085 -195.788 804.397L-190.422 790.397ZM-347.567 834.317C-347.567 828.71 -340.669 810.957 -335.295 813.777C-332.223 815.63 -332.993 822.17 -326.853 833.364C-332.993 869.829 -321.499 882.914 -311.536 892.256C-310.762 893.165 -311.536 898.781 -310.762 900.654C-315.37 899.71 -319.971 903.459 -324.563 900.654C-333.763 885.715 -336.053 879.165 -336.053 879.165C-338.363 851.122 -340.669 840.853 -347.567 834.317ZM-49.3625 860.488C-47.0803 863.284 -44.0043 867.957 -40.9521 870.772C-40.9521 878.227 -40.9521 888.512 -38.6382 895.985C-39.4122 896.909 -45.5284 887.583 -46.3024 883.843C-47.8503 883.843 -49.3625 873.573 -49.3625 873.573V860.488ZM776.977 688.578C790.773 717.53 793.845 809.085 773.158 846.454C768.55 850.198 755.52 855.796 747.832 862.341C738.652 867.957 730.984 881.971 725.617 895.057C721.783 877.298 742.482 839.909 746.32 836.204C760.874 754.919 752.448 729.692 765.478 690.431C768.55 724.075 775.445 768.914 758.588 827.786C756.343 835.967 747.606 848.537 764.689 827.802L766.24 825.914C770.844 818.426 783.883 790.397 776.977 688.578ZM-149.025 838.98C-147.489 838.056 -135.212 837.113 -129.084 838.056C-128.326 836.204 -126.786 848.346 -126.786 849.27C-144.429 849.27 -143.655 851.122 -152.097 851.122C-153.617 852.995 -155.915 855.796 -155.915 857.692C-156.689 867.023 -158.209 862.341 -155.153 868.881C-149.025 871.682 -119.138 879.165 -117.586 882.914C-119.138 887.583 -122.182 887.583 -122.182 890.369C-138.284 880.094 -167.425 883.843 -169.723 871.682C-170.485 852.071 -165.127 848.346 -162.059 845.53C-155.153 838.98 -160.523 845.53 -149.025 838.98ZM112.371 707.26C129.994 740.886 158.36 796.943 148.398 869.829C146.862 881.971 139.96 901.602 120.809 875.426C100.095 848.346 87.8387 809.085 70.9704 770.786C67.534 764.06 77.7513 761.875 78.1452 758.775L78.1464 758.514L78.8231 760.598C92.5419 802.683 101.747 827.345 123.877 856.608L125.406 858.611C131.941 867.465 137.094 857.016 137.618 855.892L137.662 855.795C145.931 783.48 105.596 721.911 103.979 719.477L103.929 719.402C108.153 713.403 111.727 708.2 112.293 707.374L112.371 707.26ZM-296.974 782.928C-300.792 792.27 -316.899 820.298 -292.374 851.122C-291.604 852.071 -293.132 863.284 -290.838 885.715C-295.422 883.843 -297.752 886.62 -300.792 884.767C-306.174 882.915 -311.536 877.298 -313.064 875.426C-325.325 852.995 -306.936 844.602 -327.619 810.957C-327.619 797.871 -325.325 799.743 -322.273 795.085C-317.665 790.397 -302.32 789.474 -296.974 782.928ZM-521.577 554.028C-497.045 564.307 -476.338 595.132 -474.81 606.36C-467.15 647.464 -494.743 689.502 -483.994 721.26C-472.496 755.829 -442.621 744.63 -416.561 787.596C-392.02 825.914 -418.859 840.853 -372.084 867.023C-369.794 870.772 -366.73 876.369 -364.416 881.971C-406.579 881.971 -414.251 848.346 -424.217 800.687C-434.949 761.445 -477.1 773.582 -497.045 726.857C-500.871 681.089 -481.708 655.862 -483.994 618.497C-482.47 592.346 -521.577 565.246 -528.475 564.307C-532.297 564.307 -522.347 557.772 -521.577 554.028ZM304.778 499.838C341.583 567.113 354.613 559.634 375.299 592.346C376.835 594.208 384.5 598.871 390.616 608.213C410.564 639.037 408.254 704.464 427.421 742.758C431.251 750.232 437.399 756.772 435.863 744.63C427.421 667.075 418.982 681.089 405.96 602.616C403.666 590.473 420.53 606.36 421.292 613.829C440.451 707.26 461.153 753.976 455.009 880.094C453.489 875.426 449.655 883.843 448.119 862.341C444.301 788.525 400.606 745.554 384.5 633.45C382.19 620.374 376.061 625.971 369.155 615.696C341.583 570.843 336.974 599.815 290.981 511.042C295.574 506.393 293.264 479.288 304.778 499.838ZM-606.645 846.454C-598.989 850.198 -592.853 856.739 -589.023 866.085C-589.805 868.881 -590.563 871.682 -591.325 874.478C-598.989 876.369 -606.645 875.426 -615.095 869.829C-615.853 859.54 -612.785 852.071 -606.645 846.454ZM-563.482 865.467L-557.191 873.985L-556.83 873.573L-563.482 865.467ZM-123.73 861.426C-123.697 861.764 -122.998 865.307 -107.628 868.881C-103.778 869.829 -106.104 871.682 -106.85 872.63C-138.284 877.298 -136.748 862.341 -142.881 861.426C-142.881 857.692 -144.429 859.54 -143.655 855.795C-137.538 854.886 -129.084 861.426 -123.73 861.426ZM17.3171 794.142C9.63708 782.928 18.8531 778.255 28.0494 785.749C36.4756 792.27 69.4542 848.346 71.7324 863.284C69.4542 869.829 65.6161 868.881 65.6161 868.881C57.9401 844.602 24.2193 794.142 17.3171 794.142ZM-135.986 772.156L-135.873 772.358C-134.109 775.221 -122.859 786.673 -122.182 786.673C-119.896 799.743 -114.53 823.094 -107.628 834.317C-106.104 836.204 -103.778 843.653 -95.3674 848.346C-87.6993 852.995 -91.5493 845.53 -89.9974 846.454C-89.2194 832.459 -92.2954 820.298 -90.7594 817.502C-86.1514 819.369 -83.8652 823.094 -81.5552 824.047C-81.5552 836.204 -76.967 862.341 -83.8652 863.284C-94.5934 863.284 -97.6615 862.341 -102.258 856.739C-112.994 842.725 -116.84 838.056 -124.476 820.298C-125.25 817.502 -135.99 791.341 -135.99 771.715L-135.986 772.156ZM-592.091 835.256C-587.491 826.843 -581.351 822.17 -573.698 823.094C-569.864 831.516 -568.336 840.853 -569.102 851.122C-571.392 852.071 -572.924 853.938 -575.234 855.795C-582.883 852.071 -588.253 845.53 -592.091 835.256ZM652.794 671.743C667.364 737.141 648.979 750.232 665.816 803.488C665.816 821.241 672.726 808.156 673.496 809.085C669.666 761.445 678.092 745.554 671.944 711.004C687.292 723.147 674.254 770.786 684.22 817.502C689.591 836.204 693.421 845.53 688.825 854.886C634.409 779.203 650.484 797.871 652.794 671.743ZM146.862 618.497C167.565 643.715 201.277 768.914 179.063 838.98C175.241 852.071 165.266 859.54 160.67 824.047C156.824 791.341 134.606 721.26 116.979 688.578C112.371 679.232 122.318 675.488 120.051 671.743C134.606 698.862 156.824 766.113 168.327 804.397C173.689 819.369 175.987 807.227 175.987 807.227C188.259 714.729 138.436 626.905 138.436 626.905C144.074 620.896 146.47 618.827 146.817 618.534L146.862 618.497ZM-559.89 815.63C-552.23 810.028 -545.332 809.085 -539.204 813.777C-537.66 824.047 -539.966 833.364 -544.574 841.796C-546.876 841.796 -549.15 841.796 -551.448 842.725C-557.592 835.255 -559.89 826.843 -559.89 815.63ZM-271.668 779.203C-270.132 783.857 -275.506 793.198 -272.414 810.028C-271.668 815.63 -262.479 815.63 -266.313 825.914C-277.804 838.98 -290.838 838.98 -291.604 831.516C-293.914 820.298 -293.132 816.573 -293.132 809.085C-292.374 794.142 -274.74 778.255 -271.668 779.203ZM-385.118 642.772C-383.59 636.251 -382.05 681.089 -359.827 695.118C-315.37 710.061 -264.777 682.033 -234.101 706.317C-206.512 726.857 -198.864 772.658 -211.882 798.815C-216.486 806.284 -217.236 809.085 -217.236 810.028C-218.784 812.829 -232.581 835.256 -234.101 834.317C-235.637 831.516 -252.505 823.094 -247.897 822.17C-247.897 822.17 -235.637 803.488 -227.214 791.341C-224.901 786.673 -223.376 778.255 -223.376 778.255C-221.856 692.322 -270.132 724.999 -342.963 713.805C-348.341 713.805 -401.216 706.317 -385.118 642.772ZM84.0166 743.687C78.6385 739.033 84.0166 724.075 92.4468 730.601C101.647 737.141 123.866 804.397 127.7 819.369C124.644 825.914 121.568 828.71 121.568 828.71C116.979 803.488 92.4468 746.487 84.0166 743.687ZM-145.949 783.857C-146.727 784.8 -144.429 788.525 -145.195 792.27C-146.727 794.142 -149.783 791.341 -154.379 790.397C-164.353 787.596 -160.523 788.525 -158.209 797.871C-157.447 797.871 -153.617 802.539 -152.855 804.397C-148.259 808.156 -147.489 807.227 -136.748 813.777C-136.748 814.565 -136.192 822.226 -135.542 823.817L-135.482 823.932L-135.62 823.875C-140.899 821.572 -159.757 810.957 -159.757 810.957C-165.889 804.397 -164.353 807.227 -166.651 801.611C-167.425 798.815 -175.835 782.004 -174.315 777.312C-165.127 768.914 -158.987 783.857 -145.949 783.857ZM-110.696 797.871C-107.628 798.815 -104.556 802.539 -102.258 804.397C-102.258 810.957 -101.48 817.502 -99.1856 823.094C-100.734 824.047 -106.85 817.502 -107.628 813.777C-109.176 813.777 -110.696 807.227 -110.696 807.227V797.871ZM-595.925 774.53C-595.163 779.203 -594.397 784.8 -596.691 788.525C-590.563 793.198 -587.491 799.743 -584.423 808.156C-587.491 812.829 -591.325 816.573 -596.691 818.426C-602.069 813.777 -605.109 807.227 -607.423 800.687C-615.095 803.488 -621.993 793.198 -623.529 784.8C-625.046 775.459 -621.223 765.17 -613.551 762.374C-606.645 760.516 -598.235 766.113 -595.925 774.53ZM-191.942 678.288C-191.942 678.288 -184.293 679.232 -173.557 680.161C-173.557 680.161 -93.0694 783.857 -83.1071 785.749C-83.1071 785.749 -69.2988 801.611 -81.5552 782.004C-96.8562 759.798 -116.302 730.865 -134.651 708.019L-136.792 705.379L-136.616 705.424C-134.159 705.625 -128.663 695.89 -126.028 700.715C-99.1856 739.033 -88.4772 757.701 -69.2989 782.928C-48.6044 810.028 -60.1146 813.777 -71.597 809.085C-119.896 792.27 -172.017 697.919 -191.942 678.288ZM-60.8726 666.146C-32.5099 704.464 -7.21539 732.488 0.448792 774.53C2.74689 789.473 -1.09119 801.611 -13.3317 804.397C-35.5662 807.227 -97.6615 722.203 -109.176 696.976C-109.922 694.175 -109.922 693.232 -96.8876 686.706C-96.8876 686.706 -34.8041 783.857 -24.8419 784.8C-24.8419 784.8 -5.67938 786.673 -14.1057 762.374C-24.5436 735.124 -48.0109 699.936 -66.2303 676.522L-67.3978 675.029C-65.9537 675.099 -64.3546 660.196 -60.8726 666.146ZM-323.117 424.116L-323.027 424.16C-318.427 436.302 -323.797 444.72 -322.273 442.848C-367.496 522.26 -379.756 505.445 -421.915 577.383C-439.549 608.213 -449.508 648.407 -419.617 709.113C-398.934 750.232 -349.095 754.919 -263.225 741.834C-257.113 740.886 -240.245 750.232 -250.195 781.056C-250.965 782.004 -258.633 799.743 -263.225 802.54C-263.225 792.27 -254.041 763.312 -268.596 762.374C-318.427 762.374 -416.561 787.596 -439.549 726.857C-459.482 675.488 -458.704 619.426 -441.077 568.98C-416.561 499.838 -361.352 485.834 -332.993 441.909C-327.619 437.251 -323.797 423.227 -323.027 424.16L-323.117 424.116ZM240.384 540.952C261.083 585.8 264.151 573.658 284.079 591.407C285.611 591.407 305.536 598.871 310.906 602.616C331.604 612.89 354.613 664.274 361.507 691.374C361.507 691.374 371.481 696.047 366.099 679.232C347.695 625.032 364.563 653.061 340.805 605.412C337.744 599.815 359.971 615.696 360.729 620.374C379.118 687.634 379.903 687.634 388.33 781.056C377.593 777.312 376.835 775.459 376.061 768.914C364.563 704.464 349.219 699.772 330.072 651.208C328.548 648.407 312.454 632.502 307.834 628.767C280.245 606.36 271.045 616.63 228.124 558.701C230.418 554.966 232.728 525.999 240.384 540.952ZM7.35486 615.696C30.3514 663.345 56.416 697.919 63.3062 740.886C66.3782 756.772 54.8799 773.582 41.8457 775.459C19.6271 778.255 -32.51 688.578 -44.7664 663.345C-47.0803 659.601 -45.5284 660.53 -33.2681 653.061C-32.5099 652.118 20.3892 749.284 30.3514 751.175C30.3514 751.175 54.1021 753.028 48.7518 728.744C41.9866 698.548 15.3593 653.108 -2.29388 629.298L-3.03998 628.294L-2.95874 628.311C-1.04492 628.003 5.96393 612.319 7.35486 615.696ZM-181.983 708.189C-181.983 708.189 -174.315 720.331 -172.017 724.075C-171.243 724.999 -172.017 746.487 -165.127 753.028C-165.127 753.028 -164.353 753.976 -162.059 749.284C-161.096 746.948 -160.664 745.547 -160.508 744.746L-160.507 744.723L-160.432 744.735C-160.266 744.746 -160.045 744.716 -159.757 744.63C-158.987 747.431 -155.153 751.175 -151.319 755.829C-150.545 757.701 -146.727 752.104 -154.379 766.113C-156.689 768.914 -158.987 769.857 -163.595 769.857C-173.557 769.857 -184.293 729.692 -181.983 708.189ZM-80.7971 678.288C-72.3709 685.777 -37.1141 741.834 -28.6759 753.976C-31.736 760.516 -36.3401 762.374 -36.3401 762.374C-47.8503 746.487 -80.0391 684.834 -88.4772 682.033L-80.7971 678.288ZM129.994 635.317C138.436 643.715 167.565 723.147 170.637 744.63C168.327 751.175 166.802 755.829 166.802 755.829C157.586 712.857 134.606 653.061 126.18 650.265C126.18 649.409 129.385 637.562 129.919 635.593L129.994 635.317ZM183.651 580.194C204.354 611.957 213.554 602.616 230.418 612.89C231.18 612.89 240.384 614.753 244.214 615.696C264.917 621.298 284.837 666.146 297.884 682.961C297.884 682.961 305.536 683.89 300.182 671.743C279.487 632.502 298.634 664.274 275.649 631.582C272.577 627.838 287.921 625.971 289.445 628.767C312.454 676.416 313.962 674.544 330.842 745.554C322.404 744.63 321.646 741.834 320.106 739.033C290.207 692.322 284.079 693.232 266.433 656.805C265.687 654.933 254.954 642.772 251.12 640.919C227.35 627.838 207.425 631.582 167.565 594.208C169.859 590.473 176.749 569.914 183.651 580.194ZM-12.5854 637.184C-4.14337 645.587 24.2193 704.464 32.6455 716.606C29.5894 723.147 27.2794 728.744 27.2794 728.744C15.019 711.914 -14.1057 649.331 -22.5477 646.516L-12.5854 637.184ZM-346.023 367.179C-344.491 370.914 -339.125 370.914 -337.597 370.914C-316.136 373.715 -293.132 412.957 -288.532 461.53C-286.238 503.577 -372.866 596.08 -400.447 641.862C-412.719 679.232 -387.42 724.075 -394.318 719.402C-454.104 676.416 -409.647 606.36 -404.273 599.815C-338.363 507.317 -276.276 465.274 -328.393 399.871C-328.393 399.871 -343.729 393.326 -347.567 389.596C-350.623 385.857 -350.623 377.459 -348.341 372.776C-347.567 369.976 -346.797 366.231 -346.023 367.179ZM38.0156 543.758C63.3062 581.118 93.9669 625.032 105.481 668.004C108.537 678.288 103.167 715.658 87.8387 716.606C66.3782 716.606 24.9774 642.772 16.567 615.696C14.2411 610.085 24.2192 602.616 25.7552 601.677C27.2794 600.739 73.2645 692.322 84.7786 695.118C85.5248 695.118 97.801 677.36 92.4468 661.473C83.4189 632.205 54.5801 585.897 36.1082 562.063L35.3405 561.077C36.192 559.812 35.2849 539.6 38.0156 543.758ZM-186.576 519.459C-184.762 511.288 -177.115 516.706 -175.208 516.918L-175.169 516.915L-175.245 517.926C-178.198 557.157 -180.789 609.654 -163.815 642.807L-162.833 644.663C-155.614 657.836 -132.146 658.627 -129.356 658.674L-129.084 658.677C-120.658 614.753 -142.119 604.492 -139.836 568.98C-139.062 565.246 -139.062 530.672 -136.748 527.862C-135.99 526.938 -126.028 515.72 -122.956 525.999C-120.658 535.336 -122.956 572.715 -122.956 571.786L-122.577 573.854C-114.942 615.23 -104.719 657.05 -114.53 671.743C-128.326 692.322 -161.281 677.36 -168.175 665.203C-189.648 624.109 -197.312 564.307 -186.576 519.459ZM-241.007 508.255C-226.452 474.611 -223.376 498.909 -227.973 502.649C-260.943 569.914 -211.882 610.085 -212.644 640.919C-212.644 657.729 -203.44 651.208 -203.44 651.208C-198.086 607.293 -220.304 590.473 -218.784 554.966C-218.01 552.156 -212.644 508.255 -211.12 506.393C-210.346 505.445 -201.158 501.71 -199.61 511.042C-197.394 520.073 -204.441 562.948 -204.948 564.329L-204.968 564.357L-204.69 566.578C-198.992 609.538 -179.036 642.015 -188.379 664.053L-188.898 665.203C-201.158 689.502 -220.304 667.075 -221.082 653.061C-223.376 602.615 -264.003 559.634 -241.007 508.255ZM31.1095 571.786C40.3137 581.118 71.7324 641.862 79.3966 654.009C77.0986 660.53 74.8164 666.146 74.8164 666.146C62.5442 649.331 38.0156 595.132 29.5894 592.346L31.1095 571.786ZM-61.6506 502.649C-60.8726 500.772 -53.1926 495.165 -50.1483 503.577C-47.1899 510.775 -49.937 556.216 -50.137 557.783L-50.1444 557.797L-49.7098 560.113C-42.46 598.644 -38.1786 612.818 -44.3815 636.684L-44.7664 638.128C-48.6044 656.805 -80.7972 660.53 -86.9254 648.407C-109.176 609.156 -116.84 552.156 -106.104 509.179C-104.255 501.016 -96.6208 506.423 -94.7208 506.638L-94.6887 506.636L-94.7631 507.588C-97.6837 545.003 -99.5613 595.649 -83.292 626.981L-82.3332 628.767C-74.665 642.772 -56.2646 629.705 -56.2646 629.705C-57.0425 607.293 -67.0008 576.469 -63.1826 547.492C-61.6506 535.336 -63.1826 504.511 -61.6506 502.649ZM-147.489 509.179C-158.987 523.203 -148.259 618.497 -138.285 639.037C-138.285 639.985 -149.025 638.128 -158.987 626.905C-165.889 545.62 -163.595 542.824 -162.059 509.179C-162.059 509.179 -155.915 510.118 -147.489 509.179ZM59.488 485.834C64.0643 484.885 114.665 591.407 112.371 593.27C119.258 607.293 118.5 626.905 113.907 635.317C110.073 644.663 68.6763 566.17 47.2158 529.743C45.9611 528.21 50.3058 517.392 51.1357 512.922L51.1716 512.692C53.4607 529.567 87.3627 579.793 95.5148 595.132C97.0389 597.947 101.647 593.27 101.647 593.27C106.239 578.322 65.6162 520.407 58.7141 504.511C54.1021 495.165 57.178 485.834 59.488 485.834ZM-11.8234 475.554C-11.0534 474.611 -6.44147 466.213 -3.38531 471.81C-0.329163 478.35 15.019 534.417 15.019 533.473C22.6832 565.246 21.9252 571.786 14.2411 591.407C9.63702 605.412 -14.8835 621.298 -21.0117 611.957C-43.2462 578.322 -50.9302 528.8 -40.1742 492.369C-37.7091 485.6 -29.7709 489.737 -27.97 490.137L-27.9655 490.135L-28.2146 492.373C-31.2766 522.317 -25.6633 553.015 -15.8187 582.141L-14.8835 584.867C-11.0535 596.08 2.74689 579.255 4.29877 575.521C8.11298 554.966 3.50494 545.62 -1.09119 521.331C-2.61133 512.924 -13.3317 477.416 -11.8234 475.554ZM-69.2989 502.649C-80.7971 515.72 -74.665 578.322 -66.2546 598.871C-66.2546 598.871 -68.5408 622.236 -78.4872 611.957C-88.4772 534.417 -85.4052 535.336 -83.1071 503.577L-82.7034 503.574C-81.3069 503.554 -76.3769 503.429 -69.2989 502.649ZM124.644 523.203C140.722 529.744 154.53 550.293 162.968 564.307C162.968 573.658 154.53 581.118 145.342 590.473C122.318 635.317 130.772 599.815 130.772 587.663C133.066 582.056 141.512 564.307 144.564 561.497C139.198 550.293 127.7 541.886 117.741 533.473C120.051 529.744 122.318 525.999 124.644 523.203ZM-533.06 546.549C-541.502 558.701 -553.766 568.042 -549.15 594.208C-548.404 595.132 -545.332 606.36 -545.332 608.213C-549.15 608.213 -558.374 605.412 -562.962 603.549C-563.728 576.469 -572.924 567.113 -549.936 541.886C-540.732 538.141 -537.66 542.824 -533.06 546.549ZM-559.12 536.289C-566.792 548.416 -579.819 557.772 -574.46 583.919C-574.46 584.867 -570.634 596.08 -570.634 598.871C-575.234 598.871 -583.653 595.132 -588.253 593.27C-589.023 566.17 -598.989 556.838 -575.996 531.606C-566.792 527.862 -563.728 533.473 -559.12 536.289ZM211.256 563.379C212.78 571.786 218.924 580.194 231.18 595.132C221.996 593.269 201.277 582.056 196.685 568.98C196.685 568.042 209.72 562.445 211.256 563.379ZM-585.181 529.743C-593.635 541.886 -606.645 551.232 -601.295 576.469C-601.295 577.383 -597.469 588.601 -597.469 591.407C-602.823 597.014 -610.479 588.601 -615.095 585.8C-620.457 568.042 -628.114 561.497 -626.59 550.293C-625.824 543.758 -611.253 534.417 -602.069 524.132C-593.635 521.331 -589.805 525.999 -585.181 529.743ZM274.875 525.075C277.169 540.013 289.445 555.9 310.906 582.99C295.574 581.118 264.917 549.364 255.713 525.999C257.249 525.075 271.803 522.26 274.875 525.075ZM107.001 538.141C116.205 548.416 118.499 553.084 126.942 565.246C123.866 571.786 120.809 577.383 120.809 577.383C109.315 561.497 107.779 552.156 99.3529 549.364L107.001 538.141ZM342.329 488.625C349.219 505.445 364.563 535.336 377.594 568.98C358.431 562.445 335.435 519.459 323.178 491.431C320.88 491.431 339.269 485.834 342.329 488.625ZM-14.8835 481.161C-22.5478 490.497 -10.2715 519.459 -5.67938 554.966C-3.38531 565.246 -5.67938 568.042 -15.6575 557.772C-23.3098 503.577 -23.3098 506.393 -23.3098 483.966C-23.3098 483.966 -20.2338 482.094 -14.8835 481.161ZM468.071 470.088L468.132 470.129C470.723 471.573 498.704 481.252 498.704 493.303C503.308 511.995 516.347 547.492 516.347 560.573C504.252 558.726 472.756 504.154 468.226 471.281L468.071 470.088ZM389.878 464.4L390.029 464.428C392.573 464.847 408.648 466.691 411.326 469.942C415.922 488.625 423.586 526.938 438.931 558.701C427.568 557.784 394.561 498.575 390.031 465.607L389.878 464.4ZM171.395 454.051C199.761 468.075 219.682 511.042 220.456 524.132C221.218 551.232 184.429 558.701 173.689 549.364C136.138 512.924 158.36 529.743 133.066 515.72C136.904 506.393 138.436 511.042 140.722 501.71C143.032 493.303 174.471 526.938 180.583 533.473C180.583 533.473 200.535 538.141 203.587 518.53C205.099 509.349 180.001 477.673 164.573 466.795L164.06 466.436L164.134 466.353C165.173 464.73 167.436 452.441 171.395 454.051ZM27.2794 425.099C32.6455 425.099 48.7518 477.416 45.6758 479.288C51.0499 493.303 45.6758 502.649 40.3137 511.042C37.2535 516.658 28.8154 521.331 24.9774 517.592C10.415 501.71 6.5769 473.682 6.5769 456.871C6.5769 454.315 9.07898 455.245 10.1818 455.503L10.3436 455.532L10.2456 456.291C8.68677 470.52 17.0837 487.015 26.4276 497.932L27.2794 498.909C30.3514 502.649 33.4194 497.961 34.1815 496.104C37.2535 487.696 38.0156 484.885 34.9435 473.682C34.1815 469.942 25.7552 440.975 25.7552 440.047C22.6832 428.833 24.2192 425.099 27.2794 425.099ZM101.647 436.302C126.942 454.051 132.304 469.018 133.066 471.81C137.662 482.094 107.779 517.592 105.481 518.53C93.2049 521.331 88.6008 507.317 71.7324 484.885C71.1228 483.395 74.9229 477.714 75.2988 475.983L75.2967 475.976L75.8574 476.47C87.8302 487.246 93.875 500.878 102.428 499.953L103.167 499.838C110.073 497.961 122.318 473.682 122.318 473.682C119.009 459.113 101.303 451.549 96.6407 450.409L96.4992 450.376C98.4075 447.035 101.889 438.837 101.687 436.541L101.647 436.302ZM153.768 472.743C166.802 476.492 178.297 499.838 186.723 511.995C191.319 519.459 178.297 516.658 178.297 516.658C161.432 499.838 157.586 491.431 149.16 488.625L153.768 472.743ZM206.663 376.521C235.788 384.928 288.683 465.274 288.683 479.288C289.445 506.393 257.249 518.53 245.75 507.317C207.425 469.942 201.277 464.336 175.987 450.336C180.583 440.975 181.357 442.848 183.651 430.705C184.429 422.298 240.384 483.023 247.286 489.568C247.286 489.568 272.577 493.303 271.803 471.81C271.055 461.667 218.809 402.415 202.693 391.865L202.341 391.639L202.408 391.537C203.25 389.634 204.661 375.703 206.663 376.521ZM-77.7251 377.459C-78.4872 399.871 -70.819 458.734 -89.9974 491.431C-95.3675 501.71 -135.212 515.72 -144.429 496.104C-149.783 485.834 -135.213 434.44 -130.62 402.667C-129.858 408.284 -120.658 390.525 -122.182 400.805C-126.028 425.099 -134.466 464.336 -129.858 483.023C-129.858 484.885 -105.33 488.625 -98.4395 473.682C-90.9229 455.402 -87.8316 410.259 -90.5724 378.568L-90.684 377.329C-88.9773 378.217 -77.7251 371.707 -77.7251 377.459ZM-168.961 388.668C-168.961 393.326 -161.281 396.127 -168.175 408.284C-174.315 419.497 -190.422 463.412 -186.576 479.288C-186.576 480.227 -171.243 489.568 -165.127 477.416C-157.666 462.896 -150.221 435.145 -149.801 409.598L-149.791 408.062L-149.668 408.044C-147.942 407.706 -141.941 404.701 -141.357 408.284C-139.062 426.042 -142.119 469.942 -159.757 495.165C-165.127 502.649 -188.897 506.393 -198.086 489.568C-204.976 477.416 -183.516 414.819 -168.961 388.668ZM-208.806 408.284C-201.904 399.871 -201.158 412.957 -201.904 411.075C-212.644 426.042 -228.747 455.933 -224.901 468.075C-222.602 477.416 -206.512 480.227 -206.512 480.227C-204.976 483.023 -204.976 481.161 -204.202 489.568C-203.44 498.909 -231.045 493.303 -236.411 477.416C-242.543 458.734 -225.674 428.833 -208.806 408.284ZM87.8387 459.677C97.801 467.127 99.3529 469.018 104.703 474.611C103.929 479.288 97.801 487.696 98.575 485.834C98.575 485.834 101.647 483.966 82.4687 469.942C82.4687 469.018 87.8387 459.677 87.8387 459.677ZM-282.404 483.023C-270.132 442.848 -281.634 369.976 -323.027 357.829C-282.404 340.08 -247.151 439.113 -282.404 483.023ZM-19.4757 334.468C-5.67938 373.715 -11.8234 426.042 -21.7857 455.004C-26.3779 467.127 -53.1926 499.838 -63.9288 469.018C-67.7787 458.734 -68.5408 401.739 -64.7028 366.231C-63.9288 371.843 -55.5065 354.094 -55.5065 364.369C-53.9666 384.928 -56.2646 462.468 -49.3625 459.677L-48.6229 459.378C-43.6319 457.37 -32.9998 453.024 -27.902 433.502C-22.6667 413.413 -24.7437 369.202 -28.4227 337.545L-28.6323 335.79L-28.5993 335.756C-27.3223 334.17 -21.9333 326.245 -19.4757 334.468ZM15.793 441.909C21.1353 449.388 20.3892 449.388 28.8154 471.81C25.7553 480.227 24.9774 480.227 22.6832 475.554C17.3171 460.596 17.3171 444.72 11.189 445.653C14.2411 442.848 15.793 441.909 15.793 441.909ZM235.014 292.43C264.151 301.772 356.895 427.905 356.895 441.909C356.895 469.018 325.472 481.161 313.962 469.942C274.875 431.639 239.626 384.928 215.09 369.976C216.626 356.895 212.78 386.791 216.626 346.62C217.388 336.34 308.608 445.653 314.736 452.184C314.736 452.184 343.861 459.677 343.103 437.251C343.103 426.961 246.512 318.587 229.644 306.435C229.644 309.255 222.758 288.686 235.014 292.43ZM307.834 118.648C474.962 243.848 503.308 425.099 560.042 466.213C584.57 483.023 492.588 469.018 470.338 448.464C412.712 394.846 331.815 236.056 248.441 185.644L246.782 184.667C246.711 181.622 238.338 160.691 239.626 160.691C360.729 213.937 445.047 412.018 478.018 435.383C478.018 435.383 517.105 455.933 510.992 438.175C483.664 358.632 356.404 160.051 292.886 137.951L291.997 137.665L292.033 137.646C295.342 135.207 305.225 117.05 307.834 118.648ZM191.319 401.739C205.127 404.549 244.988 455.933 252.656 468.075C258.023 475.554 244.988 472.743 244.988 472.743C228.124 455.933 196.685 423.227 187.489 420.431C188.259 420.431 191.319 401.739 191.319 401.739ZM46.4577 405.468C61.0121 413.881 71.7324 426.042 81.7066 439.113C80.9485 448.464 73.2645 460.596 64.0643 469.942C61.0121 464.336 58.7141 455.933 55.6381 450.336C57.9401 445.653 61.7861 445.653 64.8422 442.848C59.488 430.705 50.2878 423.227 39.5357 414.819C41.8457 412.018 44.1557 409.212 46.4577 405.468ZM-100.734 383.046C-102.258 405.468 -103.032 427.905 -106.104 463.412C-106.85 463.412 -116.84 468.075 -116.84 467.127C-116.84 448.464 -109.922 403.611 -109.922 391.464C-106.104 391.464 -100.734 383.046 -100.734 383.046ZM-162.059 407.35C-159.328 408.18 -154.782 408.272 -153.805 408.282L-153.617 408.284C-158.209 423.227 -163.595 442.848 -169.723 467.127L-177.387 466.213C-175.077 452.184 -162.059 416.691 -162.059 407.35ZM-195.788 406.416C-193.043 408.087 -187.835 408.263 -186.769 408.281L-186.576 408.284C-192.72 422.298 -200.384 441.909 -208.048 465.274C-208.048 465.274 -215.716 463.412 -215.716 462.468C-211.882 448.464 -195.788 415.753 -195.788 406.416ZM133.828 370.914C161.432 378.388 171.395 398.014 173.689 402.667C179.837 412.018 155.288 454.051 151.474 454.051C138.436 455.933 125.406 449.388 107.001 426.042C105.753 423.729 111.727 417.01 112.206 414.684L112.236 414.419L112.825 414.932C124.91 425.436 135.008 435.569 144.405 434.577L145.342 434.44C152.99 433.502 158.36 409.212 158.36 409.212C155.288 391.464 131.53 383.99 130.772 385.857C128.462 392.388 134.606 373.715 133.828 370.914ZM245.75 206.473C282.543 218.615 419.752 393.326 423.586 416.691C429.73 445.653 404.424 468.075 385.262 442.848C339.774 382.785 271.039 295.311 238.399 274.41L238.273 274.33L238.358 274.274C239.739 272.787 235.715 254.766 240.384 246.644C246.512 235.44 381.427 413.881 391.406 424.16C391.406 424.16 406.734 429.757 403.666 415.753C400.606 398.942 264.151 242.914 243.452 227.961C244.214 231.696 230.418 200.871 245.75 206.473ZM-2.61133 312.042C6.57697 351.293 22.6833 423.227 1.22675 444.72C-6.44141 452.184 -12.5855 456.871 -10.2715 449.388C-6.44147 439.113 -7.97742 432.578 -7.21539 431.639C-7.21539 431.639 -10.2715 434.44 -4.14337 424.16C5.05682 409.212 -4.90546 350.35 -9.51349 321.402C-11.8235 325.132 -7.21539 295.231 -2.61133 312.042ZM-37.8762 343.814C-38.6382 370.914 -36.3401 397.07 -35.5662 439.113C-36.3401 439.113 -44.7664 443.781 -44.7664 441.909C-42.4881 419.497 -42.4881 369.042 -45.5284 354.094C-42.4881 354.094 -37.8762 343.814 -37.8762 343.814ZM220.456 327.004C238.086 326.066 312.454 412.957 317.808 430.705C322.404 437.251 309.386 434.44 309.386 434.44C296.336 407.35 227.35 334.468 214.316 339.141L220.456 327.004ZM-364.416 297.104C-269.369 312.042 -277.03 301.772 -264.003 300.838C-254.803 300.838 -234.875 301.772 -221.856 326.066C-215.716 337.274 -259.407 368.099 -283.932 371.843C-262.479 349.411 -239.483 335.407 -246.373 327.004C-254.041 323.26 -268.596 319.516 -277.804 326.066C-277.804 331.663 -300.792 343.814 -300.792 346.62C-355.231 339.141 -382.812 383.046 -334.533 426.961C-392.79 440.047 -419.617 388.668 -401.216 347.549C-398.156 341.013 -389.718 328.867 -382.05 325.132C-363.398 328.629 -356.821 327.219 -356.058 314.743C-359.574 314 -363.199 313.32 -366.73 312.99L-367.409 312.988C-371.592 312.955 -366.622 312.251 -364.416 297.104ZM77.8805 355.023C89.3907 363.435 100.873 370.914 113.129 376.521C115.431 376.521 117.741 376.521 119.258 375.577C110.831 397.07 100.095 412.018 87.0767 427.905C75.5785 417.625 65.6162 409.212 54.88 397.07C57.1781 393.326 57.9401 389.596 61.0121 385.857C66.3783 396.127 77.0986 403.611 85.5248 409.212C89.3907 402.667 92.4468 395.208 96.2769 388.668C85.5248 382.118 79.3967 371.843 72.5064 364.369C75.5784 360.639 74.8164 358.762 77.8805 355.023ZM126.942 392.388C136.904 399.871 139.96 405.468 146.1 407.35C145.531 410.851 141.933 416.458 140.813 418.255L140.67 418.477C140.294 417.993 137.939 415.618 122.631 404.39L121.568 403.611C121.568 402.667 126.942 392.388 126.942 392.388ZM268.743 141.07C307.076 139.208 479.558 374.653 489.516 411.075C487.984 413.881 476.486 417.625 476.486 417.625C449.655 360.639 285.611 143.881 258.785 153.222C258.785 152.283 268.743 141.07 268.743 141.07ZM-459.482 216.753C-452.588 214.885 -451.806 223.298 -451.806 231.696C-459.482 220.487 -484.78 244.771 -483.236 256.933C-477.882 259.734 -462.538 249.454 -453.35 238.236L-477.1 290.558C-480.164 320.454 -480.164 378.388 -455.648 386.791C-447.206 392.388 -428.051 382.118 -420.379 382.118C-420.379 386.791 -415.787 398.014 -417.323 400.805C-428.805 409.212 -460.24 413.881 -469.444 409.212C-491.667 395.208 -507.769 330.739 -507.769 280.279C-507.769 258.795 -478.648 224.222 -459.482 216.753ZM-340.509 317.603L-353.687 334.468C-355.982 337.274 -369.794 338.203 -378.212 338.203C-383.59 338.203 -388.956 349.411 -391.262 357.829C-403.507 405.468 -365.186 409.212 -365.968 407.35C-395.084 360.639 -345.269 334.468 -312.306 333.544C-308.415 333.544 -316.018 324.21 -315.697 321.306L-315.37 321.402C-322.273 319.516 -329.937 317.648 -339.125 317.648C-339.571 317.648 -340.033 317.633 -340.509 317.603ZM254.954 79.4065C263.377 85.018 287.921 95.288 309.386 93.4304C314.736 93.4304 277.169 131.729 253.415 139.208C245.75 141.07 219.682 154.146 198.225 135.473C198.225 135.473 192.093 113.98 192.855 108.369C193.966 103.644 205.502 107.226 209.769 108.505L209.811 108.515L209.724 108.587C207.9 110.631 210.103 124.255 213.554 124.255C226.572 125.193 258.023 114.914 258.023 114.914C142.27 6.53935 -70.819 16.819 -72.3709 24.2881C-77.7251 42.9754 -83.1071 56.9848 -73.891 67.2789C-65.4688 77.5441 31.8874 72.8711 61.7861 203.667C70.9704 201.805 81.7066 284.961 80.9485 312.99C80.1904 321.402 44.9058 395.208 24.9774 407.35C24.2192 407.35 23.4612 377.459 24.9774 376.521C42.6077 367.179 61.0121 324.189 61.0121 310.179C60.2501 252.25 54.1021 244.771 41.8457 207.402C4.29871 86.8853 -84.6312 100.9 -93.0693 78.4826C-104.556 46.7196 -93.8474 29.8996 -86.9254 11.2027C-83.8652 4.66724 94.7448 -32.7121 254.954 79.4065ZM-168.175 327.004C-163.595 334.468 -160.523 369.976 -185.826 396.127C-189.648 400.805 -210.346 403.611 -213.418 390.525C-215.716 381.184 -210.346 365.307 -195.014 345.677C-195.788 349.411 -181.983 330.739 -185.826 339.141C-191.942 351.293 -195.014 362.497 -198.864 378.388C-199.61 382.118 -195.014 388.668 -187.35 374.653C-178.907 358.762 -179.685 361.563 -177.387 338.203C-178.907 340.08 -171.243 323.26 -168.175 327.004ZM-112.994 271.876C-109.176 290.558 -101.48 351.293 -117.586 379.322C-122.956 387.719 -152.097 395.208 -159.757 378.388C-164.353 369.042 -157.447 341.013 -153.617 314.852C-153.617 319.516 -140.583 304.573 -143.655 312.99C-148.259 327.928 -151.319 348.483 -146.727 364.369C-145.949 366.231 -131.394 372.776 -126.028 358.762C-119.138 341.952 -120.658 311.118 -122.956 284.961C-124.476 287.757 -114.53 266.264 -112.994 271.876ZM146.1 278.416C172.919 287.757 195.149 311.118 201.277 326.066C203.587 331.663 199.761 380.246 189.025 372.776C166.029 356.895 160.67 367.179 141.512 345.677C140.722 337.274 142.27 339.141 142.27 326.066C143.032 321.402 176.749 359.691 185.191 355.023C185.191 355.023 192.093 338.203 187.489 327.928C183.005 316.082 160.282 300.672 145.646 292.125L144.731 291.59L144.735 291.434C144.721 289.182 143.543 277.638 146.1 278.416ZM31.8874 284.961C40.3137 287.757 43.3817 297.104 44.1556 302.71C45.6758 321.402 45.6758 320.454 40.3137 331.663C34.3929 344.292 27.7545 359.546 19.7194 363.94L19.0912 364.249C19.5419 362.339 15.4141 346.909 19.6271 340.08C26.5134 328.866 30.3514 322.321 30.3514 318.587C34.1815 304.573 26.5134 298.956 22.6832 298.037C14.5052 296.382 10.5578 296.198 4.94232 296.83L4.04871 296.935L4.08667 296.797C4.8103 293.646 4.72516 284.961 5.81488 284.961C15.793 282.151 28.0494 284.013 31.8874 284.961ZM-83.8652 220.487C-64.7028 256.933 -41.7102 308.317 -50.1483 335.407C-53.1926 345.677 -82.3331 375.577 -93.8473 356.895C-99.1856 346.62 -103.032 299.9 -104.556 263.468C-103.032 270.009 -102.258 247.592 -99.9596 258.795C-95.3674 280.279 -90.7594 315.786 -83.8652 334.468C-83.1071 335.407 -65.4688 330.739 -61.6506 313.923C-58.5786 292.43 -75.439 257.852 -88.4772 233.568C-89.2194 237.302 -89.2194 210.208 -83.8652 220.487ZM88.6008 277.483C102.405 279.355 111.609 291.497 124.644 288.686C126.18 286.824 127.7 284.013 128.462 281.227C130.772 311.118 130.772 348.483 124.644 355.961C110.073 357.829 99.3529 354.094 85.5248 345.677C86.2908 339.141 89.3906 329.8 90.1329 324.189C99.3529 330.739 104.703 333.544 114.665 333.544C115.431 324.189 114.665 312.99 116.205 303.634C103.929 303.634 98.575 296.175 89.3906 293.364C90.9108 286.824 87.8387 284.013 88.6008 277.483ZM-458.704 335.407C-441.859 345.677 -418.859 347.549 -405.055 337.274C-404.273 358.762 -455.648 366.231 -458.704 335.407ZM-129.858 295.231C-132.144 311.118 -130.62 326.066 -131.394 351.293C-131.394 351.293 -139.836 353.156 -139.836 351.293C-136.748 339.141 -135.99 309.255 -138.285 300.838C-135.213 300.838 -129.858 295.231 -129.858 295.231ZM146.862 306.435C156.066 316.715 176.749 328.866 182.893 330.739C182.315 334.28 179.526 341.045 178.883 343.292L178.844 343.433L178.784 343.359C176.846 341.008 164.969 330.877 148.077 317.664L146.862 316.715C146.862 316.715 145.342 306.435 146.862 306.435ZM-198.086 284.961C-191.942 286.824 -172.779 317.648 -181.221 326.066C-181.221 326.066 -191.942 340.08 -201.158 341.013C-207.274 341.952 -210.346 316.715 -216.486 305.506C-214.954 308.317 -208.806 287.757 -208.048 296.175C-205.754 308.317 -203.44 306.435 -198.086 320.454C-196.55 324.189 -195.014 319.516 -195.014 314.852C-194.256 299.9 -193.494 303.634 -202.682 290.558C-203.44 292.43 -201.904 284.013 -198.086 284.961ZM-419.617 209.279C-439.549 234.501 -431.877 242.914 -429.571 241.98C-424.217 238.236 -430.349 269.065 -446.459 284.013C-449.508 285.881 -452.588 298.956 -448.75 304.573C-431.123 300.838 -401.99 285.881 -393.556 269.065C-382.05 286.824 -459.482 344.743 -467.15 322.321C-470.21 312.042 -456.41 261.596 -446.459 238.236C-439.549 222.355 -444.911 211.141 -447.98 210.208C-455.648 208.34 -436.477 190.587 -435.707 190.587C-418.089 177.506 -414.251 202.734 -419.617 209.279ZM19.6271 308.317L21.9252 319.516C18.0752 319.516 19.6271 327.928 14.2411 326.066L8.11298 311.118L19.6271 308.317ZM-73.891 188.729C-47.0803 213.013 -4.90546 260.658 -5.67938 291.497C-6.44147 305.506 -37.8761 335.407 -39.4121 323.26C-41.7102 309.255 -40.9521 312.99 -40.1742 307.378C-40.1742 307.378 -22.5477 298.956 -22.5477 282.151C-23.3098 262.53 -56.2646 219.563 -74.665 200.871C-74.665 204.601 -85.4052 177.506 -73.891 188.729ZM-90.7594 240.113C-86.1514 260.658 -79.2611 279.355 -70.0768 312.042C-70.819 312.042 -77.7251 318.587 -78.4872 316.715C-80.7971 298.956 -90.7594 261.596 -96.1295 251.317C-93.0694 250.388 -90.7594 240.113 -90.7594 240.113ZM-110.696 240.113C-110.696 240.113 -117.586 255.985 -126.028 268.137C-132.099 275.931 -142.84 271.696 -154.856 263.501C-147.009 270.799 -141.973 278.356 -144.429 284.013C-144.429 284.013 -152.855 305.506 -163.595 312.042C-171.243 316.715 -182.742 284.961 -194.256 274.672C-191.184 276.544 -195.788 252.25 -191.184 262.53C-185.055 276.544 -173.557 287.757 -167.425 290.558C-162.833 293.364 -156.689 281.227 -158.209 280.279C-169.723 268.137 -182.742 255.985 -199.61 246.644C-198.864 249.454 -201.904 241.042 -197.312 239.184C-194.073 238.389 -182.896 243.437 -171.589 250.73C-182.646 241.755 -193.503 232.527 -201.794 228.669L-202.622 228.291L-202.576 228.221C-202.178 226.963 -205.718 218.779 -201.904 219.563C-182.742 221.426 -139.836 250.388 -132.918 254.122C-126.786 255.985 -122.182 240.113 -124.476 237.302C-135.781 222.626 -171.45 198.941 -192.348 198.085L-193.216 198.062L-193.208 197.986C-193.06 196.055 -192.962 189.43 -188.898 188.729C-180.459 185.928 -104.556 224.222 -110.696 240.113ZM-229.509 248.516C-226.452 244.771 -207.274 247.592 -205.754 248.516C-188.124 269.065 -214.192 285.881 -235.637 295.231C-241.352 296.781 -242.868 288.082 -243.652 286.63L-243.71 286.544L-242.767 285.849C-224.203 272.189 -216.072 271.685 -215.016 263.139L-214.954 262.53C-214.192 243.848 -269.37 298.037 -292.374 300.838C-309.234 302.71 -290.838 290.558 -293.132 292.43C-270.132 275.601 -238.713 260.658 -229.509 248.516ZM125.406 184.98C166.029 195.274 212.78 231.696 222.758 246.644C226.572 253.189 228.882 298.037 211.256 295.231C203.587 294.293 162.968 284.013 141.512 262.53C146.1 265.341 139.96 258.795 139.198 242.914C138.436 237.302 191.319 278.416 204.353 273.738C204.353 273.738 214.316 255.985 208.199 245.71C199.761 232.629 150.696 206.473 128.462 198.061C129.994 201.805 120.051 184.056 125.406 184.98ZM-301.566 232.629C-287.774 250.388 -283.932 277.483 -318.427 292.43C-300.792 271.876 -296.974 255.046 -307.698 245.71C-304.63 246.644 -306.174 227.961 -301.566 232.629ZM-314.592 164.435C-302.32 187.781 -300.792 212.085 -305.392 225.16C-305.392 226.099 -309.992 228.9 -310.762 232.629C-315.37 246.644 -320.725 275.601 -323.027 275.601L-322.963 275.582L-322.273 284.961C-334.202 289.494 -346.134 293.161 -359.471 282.176L-360.586 281.227C-360.586 240.113 -338.363 244.771 -328.393 227.028C-318.427 218.615 -314.592 175.649 -314.592 164.435ZM-77.7251 205.539C-67.7787 225.16 -51.6724 248.516 -34.8041 278.416C-34.8041 278.416 -40.9521 287.757 -41.7102 285.881C-48.6044 269.065 -72.3709 222.355 -80.7971 213.937C-77.7251 212.085 -77.7251 205.539 -77.7251 205.539ZM-221.082 184.98C-220.304 184.98 -219.534 190.587 -217.236 192.464C-199.61 207.402 -257.113 273.738 -281.634 275.601C-290.076 276.544 -283.166 259.734 -283.166 263.468C-263.225 254.122 -220.304 209.279 -227.214 205.539C-234.101 200.871 -263.225 244.771 -281.634 251.317C-285.745 252.988 -283.736 242.743 -284.891 242.522L-284.992 242.533L-284.305 241.99C-263.435 224.959 -237.835 186.415 -221.954 185.019L-221.082 184.98ZM-323.027 274.672C-325.038 274.748 -326.926 274.812 -328.691 274.856L-329.369 274.866L-329.094 274.913C-324.549 275.601 -324.416 275.601 -323.027 275.601L-322.963 275.582L-323.027 274.672ZM-315.37 222.355C-326.853 248.516 -344.491 254.122 -343.729 259.734C-352.708 273.203 -348.616 275.283 -329.736 274.881L-329.369 274.866L-329.849 274.799L-330.683 274.672C-329.937 272.805 -316.136 235.44 -315.37 222.355ZM24.9774 210.208C26.5134 218.615 40.3137 258.795 33.4194 268.137C25.2119 279.043 9.0434 270.512 0.393494 271.746L0.067749 271.8L0.088623 271.715C0.17627 270.211 -5.60626 261.257 0.448792 258.795C10.415 255.985 22.6833 258.795 24.2193 255.046C26.5134 248.516 19.6271 223.298 15.793 221.426C7.85126 217.028 2.63776 215.942 -4.34778 215.829L-5.2666 215.82L-5.27185 215.691C-5.5069 212.808 -6.78339 204.601 -5.67938 204.601C5.81488 205.539 15.793 204.601 18.8531 202.734C20.3892 201.805 23.4612 205.539 24.9774 210.208ZM110.831 185.928C117.741 214.885 126.942 251.317 126.942 270.938C112.371 276.544 97.801 266.264 81.7066 261.596C81.7066 255.046 84.0166 245.71 83.2268 240.113C93.2049 243.848 99.3529 245.71 109.315 242.914C107.779 233.568 106.239 216.753 105.481 207.402C93.9669 211.141 87.0767 204.601 77.8805 203.667C77.8805 197.127 73.2645 195.274 73.2645 188.729C86.2908 190.587 95.5148 198.061 107.779 192.464C109.315 190.587 109.315 188.729 110.831 185.928ZM-415.017 216.753C-407.345 232.629 -405.817 251.317 -416.561 270.938C-415.017 253.189 -415.787 241.98 -421.161 226.099C-418.089 225.16 -416.561 214.885 -415.017 216.753ZM129.78 210.155L129.994 210.208C145.342 223.298 182.131 244.771 194.391 248.516C192.855 252.25 198.225 261.596 198.225 261.596C179.063 248.516 159.134 239.184 126.942 220.487C127.7 220.487 128.462 209.279 129.994 210.208L129.78 210.155ZM-116.066 56.0511C-121.42 52.3166 -137.538 53.2502 -139.836 62.5914C-142.881 78.4826 -148.259 95.288 -142.119 108.369C-135.212 121.459 -34.8041 100.9 -5.67938 243.848C-6.44147 241.98 -4.9054 253.189 -7.21539 255.985C-9.51343 258.795 -15.6575 255.046 -18.7256 243.848C-46.3024 112.108 -157.447 148.539 -157.447 117.724C-157.447 86.8853 -158.987 69.1414 -151.319 50.4445C-149.025 42.9754 -129.084 41.0984 -113.768 39.2311C-93.8474 37.359 -112.994 57.9232 -116.066 56.0511ZM-1.8493 225.16L11.189 226.099L15.019 245.71C11.189 246.644 5.81494 246.644 1.22675 244.771L-1.8493 225.16ZM-199.61 203.667C-181.221 208.34 -155.153 216.753 -140.583 233.568C-140.583 234.501 -140.583 241.98 -142.881 240.113C-157.447 227.961 -192.72 213.013 -204.202 211.141C-202.682 207.402 -200.384 203.667 -199.61 203.667ZM-256.335 109.307C-224.901 167.236 -247.897 202.734 -290.076 234.501C-293.914 237.302 -298.494 225.16 -300.792 224.222C-253.267 189.653 -251.731 164.435 -256.335 109.307ZM100.095 111.179C134.606 119.587 216.626 151.35 225.814 171.904C228.882 179.378 232.728 223.298 214.316 219.563C204.353 217.682 137.662 179.378 116.205 158.824C120.809 161.625 109.315 141.07 116.205 145.753C130.772 154.146 192.855 194.326 207.426 198.999C207.426 198.999 210.486 179.378 203.587 168.17C195.915 153.222 134.606 131.729 111.609 125.193C113.129 127.999 91.6689 108.369 100.095 111.179ZM-178.907 147.615C-162.059 147.615 -122.956 174.705 -103.032 170.032C-97.6616 169.099 -86.1514 174.705 -86.1514 182.184C-85.4052 184.056 -96.8876 213.013 -99.1856 213.013C-116.507 214.85 -157.405 189.706 -182.109 180.807L-182.948 180.511L-182.907 180.51C-181.813 180.12 -187.529 170.98 -181.983 170.98C-163.595 172.843 -114.53 201.805 -107.628 197.127C-106.85 197.127 -102.258 196.198 -104.556 194.326C-115.288 183.122 -160.523 161.625 -177.387 160.691C-176.613 163.502 -185.825 148.539 -178.907 147.615ZM-291.604 132.672C-292.374 127.056 -267.075 148.539 -265.551 170.032C-265.551 173.627 -270.988 177.221 -272.439 179.541L-272.529 179.694L-272.614 178.752C-274.01 165.779 -280.452 158.504 -280.841 160.479L-280.86 160.691C-280.86 173.767 -278.566 181.25 -283.932 195.274C-285.854 199.938 -292.036 201.364 -293.601 203.871L-293.608 203.876L-293.361 202.554C-288.766 176.829 -289.333 155.049 -291.363 134.98L-291.604 132.672ZM-6.44147 141.07C-4.90546 140.141 -3.38525 142.013 -0.329102 144.805C-0.329102 145.753 17.3171 179.378 15.019 184.98C10.5504 194.971 -3.29565 189.1 -12.5074 191.298L-13.0181 191.429C-13.1343 190.08 -21.5468 180.312 -19.4757 180.312C-7.97748 179.378 3.50494 182.184 3.50494 176.582C3.50494 174.705 -3.38531 154.146 -6.44147 152.283C-17.1935 148.539 -23.3098 152.283 -30.974 153.222C-28.676 156.956 -37.8761 147.615 -37.1141 143.881C-36.3401 133.601 -9.51349 142.952 -6.44147 141.07ZM-231.686 154.007C-214.593 132.582 -226.21 102.803 -211.882 104.644C-195.014 106.506 -171.243 138.269 -203.44 186.857C-206.512 190.587 -212.644 170.98 -211.12 173.767C-200.384 149.487 -208.048 132.672 -209.584 134.535C-214.954 146.677 -215.716 155.089 -226.452 164.435C-230.253 167.526 -231.438 156.539 -232.166 154.778L-232.227 154.66L-231.686 154.007ZM83.2268 111.179C97.801 131.729 104.703 157.895 104.703 172.843C91.6689 178.449 84.0166 173.767 68.6763 171.904C67.1522 167.236 65.6162 160.691 64.0643 156.028C74.8164 157.895 80.9485 157.895 89.3906 154.146C87.0767 147.615 84.0166 139.208 81.7066 132.672C71.7324 133.601 65.6162 133.601 56.416 134.535C54.88 129.866 47.2158 125.193 46.4577 120.511C59.488 117.724 65.6162 121.459 80.1905 118.648C80.9485 116.776 82.4687 113.046 83.2268 111.179ZM-11.8234 160.691L-7.21539 171.904C-11.8234 171.904 -15.6575 172.843 -21.0117 171.904L-24.8419 160.691H-11.8234ZM-61.6506 105.563C-59.3406 106.506 -34.8041 121.459 -34.8041 127.056C-34.8041 134.535 -43.2462 136.397 -56.2646 137.336C-53.1926 138.269 -67.7787 136.397 -69.2989 131.729C-70.819 123.312 -44.0043 133.601 -47.8503 127.999C-47.8503 127.999 -60.8726 114.914 -69.2989 115.852C-76.2169 115.852 -94.5935 113.046 -96.8876 118.648C-92.2954 121.459 -113.768 110.241 -113.768 107.435C-112.994 100.9 -73.8911 112.108 -78.4872 100.9C-80.0391 98.0938 -71.5969 99.0323 -61.6506 105.563ZM138.436 63.525C140.58 62.8743 146.069 67.2171 148.157 68.9622L148.398 69.1665L148.422 70.9346C148.661 79.8145 150.688 87.4681 154.502 97.0823L155.288 99.0323C156.824 101.838 168.327 103.7 170.637 103.7C175.241 102.772 172.919 92.4823 171.395 78.4826C170.689 76.7306 183.913 84.7153 185.129 84.3219L185.183 84.2692L185.136 85.1224C184.71 95.9488 188.541 111.31 182.021 118.026L181.357 118.648C176.749 122.393 149.938 107.435 149.938 107.435C146.862 104.644 142.27 101.838 143.032 99.9756C143.79 96.2265 129.994 66.3308 138.436 63.525ZM22.6832 35.5063C43.3817 52.3166 67.9023 86.8853 78.6385 101.838C70.9704 119.587 52.57 104.644 36.4756 108.369C30.3514 98.0938 30.3514 99.9756 27.2794 95.288C37.2535 90.6199 45.6758 98.0938 54.1021 93.4304C46.4577 87.8238 28.8154 68.1932 26.5134 58.8472C18.0753 56.9848 -35.5661 54.1887 -44.7664 56.9848C-48.6044 51.3829 -53.1926 50.4445 -57.0425 44.8426C-45.5284 36.4302 -1.8493 42.0369 11.189 41.0984C11.189 37.359 19.6271 42.0369 22.6832 35.5063ZM-103.032 75.672C-103.032 75.672 -99.1857 91.5583 -103.032 99.9756C-105.33 105.563 -121.42 99.0323 -130.62 99.0323C-128.326 99.0323 -138.284 84.0892 -132.918 86.8853C-124.476 90.6199 -124.476 87.8238 -114.53 88.7526C-110.696 88.7526 -112.994 85.9517 -116.066 83.1411C-124.236 76.7877 -121.585 77.4963 -133.387 80.1096L-134.181 80.2782L-134.233 80.1606C-134.725 79.1603 -136.985 75.9339 -135.213 73.7999C-132.144 69.1414 -104.556 64.4684 -103.032 75.672ZM55.6381 47.6484C58.7141 45.7714 76.3405 52.3166 73.2645 51.3829C75.5784 60.7241 86.2908 70.0653 93.2049 79.4065C94.7449 81.2835 107.001 80.345 108.537 79.4065C113.129 77.5441 110.831 70.0653 106.239 57.9232C105.533 55.3065 118.772 60.7953 119.989 60.8152L120.059 60.7976L120.2 61.667C122.136 72.4465 132.291 86.3257 127.412 95.4353L126.942 96.2265C123.866 100.9 90.9108 91.5583 90.9108 91.5583C87.0767 90.6199 84.7786 87.8238 84.7786 86.8853C85.5248 83.1411 48.7518 52.3166 55.6381 47.6484ZM15.793 70.999L28.8154 81.2835C21.1354 81.2835 16.567 82.2171 7.35486 81.2835L-5.67938 71.9375L15.793 70.999Z" fill="url(#paint0_linear)"/>
<defs>
<linearGradient id="paint0_linear" x1="-237.728" y1="57.6142" x2="730.865" y2="579.59" gradientUnits="userSpaceOnUse">
<stop stop-color="#EC0000"/>
<stop offset="1" stop-color="#712133"/>
</linearGradient>
</defs>
</svg>
