<svg width="40" height="40" viewBox="0 0 40 40" fill="none" xmlns="http://www.w3.org/2000/svg">
<rect width="40" height="40" rx="20" fill="#F2F2F2"/>
<path fill-rule="evenodd" clip-rule="evenodd" d="M20 10C25.5231 10 30 14.4769 30 20C30 25.5231 25.5231 30 20 30C14.4769 30 10 25.5231 10 20C10 17.2384 11.1192 14.7384 12.9288 12.9288C14.7384 11.1192 17.2384 10 20 10ZM20 11C17.5146 11 15.2646 12.0073 13.6359 13.6359C12.0073 15.2646 11 17.5146 11 20C11 24.9709 15.0291 29 20 29C24.9709 29 29 24.9709 29 20C29 17.5146 27.9927 15.2646 26.3641 13.6359C24.7354 12.0073 22.4854 11 20 11ZM20.5 14.5C20.7761 14.5 21 14.7239 21 15V20.501C21 20.7771 20.7761 21.001 20.5 21.001H15C14.7239 21.001 14.5 20.7771 14.5 20.501C14.5 20.2249 14.7239 20.001 15 20.001H20V15C20 14.7239 20.2239 14.5 20.5 14.5Z" fill="black"/>
</svg>
