<svg width="24" height="24" viewBox="0 0 24 24" fill="none" xmlns="http://www.w3.org/2000/svg">
<path fill-rule="evenodd" clip-rule="evenodd" d="M12 2C17.5231 2 22 6.47686 22 12C22 17.5231 17.5231 22 12 22C6.47686 22 2 17.5231 2 12C2 9.23843 3.11921 6.73843 4.92882 4.92882C6.73843 3.11921 9.23843 2 12 2ZM12 3C9.51457 3 7.26457 4.00729 5.63593 5.63593C4.00729 7.26457 3 9.51457 3 12C3 16.9709 7.02914 21 12 21C16.9709 21 21 16.9709 21 12C21 9.51457 19.9927 7.26457 18.3641 5.63593C16.7354 4.00729 14.4854 3 12 3ZM12.5 6.5C12.7761 6.5 13 6.72386 13 7V12.501C13 12.7771 12.7761 13.001 12.5 13.001H7C6.72386 13.001 6.5 12.7771 6.5 12.501C6.5 12.2249 6.72386 12.001 7 12.001H12V7C12 6.72386 12.2239 6.5 12.5 6.5Z" fill="white"/>
</svg>
