<svg width="40" height="40" viewBox="0 0 40 40" fill="none" xmlns="http://www.w3.org/2000/svg">
<path fill-rule="evenodd" clip-rule="evenodd" d="M20 0C31.0463 0 40 8.95372 40 20C40 31.0463 31.0463 40 20 40C8.95372 40 0 31.0463 0 20C0 14.4769 2.23843 9.47686 5.85764 5.85764C9.47686 2.23843 14.4769 0 20 0ZM20 2C15.0291 2 10.5291 4.01457 7.27186 7.27186C4.01457 10.5291 2 15.0291 2 20C2 29.9417 10.0583 38 20 38C29.9417 38 38 29.9417 38 20C38 15.0291 35.9854 10.5291 32.7281 7.27186C29.4709 4.01457 24.9709 2 20 2ZM21 9C21.5523 9 22 9.44772 22 10V21.002C22 21.5543 21.5523 22.002 21 22.002H10C9.44772 22.002 9 21.5543 9 21.002C9 20.4497 9.44772 20.002 10 20.002H20V10C20 9.44772 20.4477 9 21 9Z" fill="#284940"/>
</svg>
