<svg width="12" height="14" viewBox="0 0 12 14" fill="none" xmlns="http://www.w3.org/2000/svg">
<path fill-rule="evenodd" clip-rule="evenodd" d="M7.50183 0.333252C8.328 0.333252 9 0.997061 9 1.81317V2.55584H10.8641C10.868 2.5557 10.8711 2.55367 10.875 2.55367C10.8789 2.55367 10.882 2.5557 10.8859 2.55584H11.625C11.8323 2.55584 12 2.72152 12 2.92627C12 3.13102 11.8323 3.2967 11.625 3.2967H11.25V10.7234C11.25 12.3462 9.91333 13.6666 8.27014 13.6666H3.72986C2.08667 13.6666 0.75 12.3462 0.75 10.7234V3.2967H0.375C0.167725 3.2967 0 3.13102 0 2.92627C0 2.72152 0.167725 2.55584 0.375 2.55584H1.11411C1.11795 2.5557 1.12111 2.55367 1.125 2.55367C1.12889 2.55367 1.13205 2.5557 1.13589 2.55584H3V1.81317C3 0.997061 3.672 0.333252 4.49817 0.333252H7.50183ZM10.5 3.2967H1.5V10.7234C1.5 11.9378 2.50049 12.9257 3.72986 12.9257H8.27014C9.49951 12.9257 10.5 11.9378 10.5 10.7234V3.2967ZM3.375 4.77842C3.58228 4.77842 3.75 4.9441 3.75 5.14885V11.0757C3.75 11.2805 3.58228 11.4462 3.375 11.4462C3.16772 11.4462 3 11.2805 3 11.0757V5.14885C3 4.9441 3.16772 4.77842 3.375 4.77842ZM6 4.77842C6.20728 4.77842 6.375 4.9441 6.375 5.14885V11.0757C6.375 11.2805 6.20728 11.4462 6 11.4462C5.79272 11.4462 5.625 11.2805 5.625 11.0757V5.14885C5.625 4.9441 5.79272 4.77842 6 4.77842ZM8.625 4.77842C8.83228 4.77842 9 4.9441 9 5.14885V11.0757C9 11.2805 8.83228 11.4462 8.625 11.4462C8.41772 11.4462 8.25 11.2805 8.25 11.0757V5.14885C8.25 4.9441 8.41772 4.77842 8.625 4.77842ZM7.50183 1.07411H4.49817C4.08545 1.07411 3.75 1.40548 3.75 1.81317V2.55584H8.25V1.81317C8.25 1.40548 7.91455 1.07411 7.50183 1.07411Z" fill="#EC0000"/>
</svg>
