<svg width="197" height="140" viewBox="0 0 197 140" fill="none" xmlns="http://www.w3.org/2000/svg">
<g clip-path="url(#clip0)">
<path opacity="0.1" d="M65.4944 139.464C75.0882 139.464 82.8655 138.215 82.8655 136.674C82.8655 135.133 75.0882 133.884 65.4944 133.884C55.9007 133.884 48.1234 135.133 48.1234 136.674C48.1234 138.215 55.9007 139.464 65.4944 139.464Z" fill="#00B140"/>
<path opacity="0.1" d="M159.921 139.542C171.892 139.542 181.597 138.293 181.597 136.752C181.597 135.211 171.892 133.962 159.921 133.962C147.949 133.962 138.245 135.211 138.245 136.752C138.245 138.293 147.949 139.542 159.921 139.542Z" fill="#00B140"/>
<path opacity="0.1" d="M2.46725 60.2923H20.5603V84.953H3.79182C3.74725 85.2061 3.70447 85.461 3.65812 85.716H20.5603V105.604C20.53 105.595 20.5032 105.585 20.4747 105.574C19.9969 105.385 19.5227 105.185 19.0485 104.971L18.7455 104.834C18.2701 104.609 17.7947 104.372 17.3193 104.121C17.1535 104.034 16.9877 103.943 16.8237 103.85C14.1845 102.372 11.7869 100.498 9.71409 98.295C9.65347 98.2362 9.59643 98.1738 9.53581 98.1167C9.24701 97.803 8.96355 97.4856 8.68901 97.1612L8.38594 96.8046C8.06149 96.4071 7.74772 95.9988 7.44287 95.5852C7.39831 95.5246 7.35552 95.464 7.30917 95.4069C6.06936 93.6879 5.03992 91.8265 4.24286 89.8626C4.2179 89.8038 4.1965 89.7396 4.17333 89.6844C3.9285 89.0545 3.7116 88.4186 3.52263 87.7768C3.44062 87.5076 3.36218 87.242 3.29444 86.9621C3.26948 86.8801 3.24809 86.7999 3.22848 86.7197C2.21588 82.7673 2.09644 78.6617 2.09644 74.5845C2.09644 74.1085 2.09644 73.6308 2.09644 73.1583C2.09644 71.5093 2.11605 69.8496 2.14457 68.1916C2.14457 67.762 2.1624 67.3341 2.17131 66.9027C2.19627 65.8081 2.23192 64.7135 2.27828 63.6189C2.28897 63.314 2.30323 63.011 2.31928 62.7079C2.31928 62.5332 2.32819 62.3585 2.34602 62.1838C2.38881 61.5491 2.42446 60.9198 2.46725 60.2923Z" fill="#00B140"/>
<path opacity="0.1" d="M20.5604 32.8345H10.6359C12.2491 30.3094 14.0119 27.8829 15.9146 25.5681C17.3889 23.7568 18.9452 21.9919 20.5604 20.2911V32.8345Z" fill="#00B140"/>
<path opacity="0.1" d="M20.5604 33.5975V59.5293H2.52441C2.52441 59.4544 2.53689 59.3778 2.54224 59.3029C2.55829 59.0979 2.57433 58.8928 2.59216 58.6896C2.61177 58.4507 2.63316 58.2101 2.65634 57.9765C2.67951 57.743 2.70447 57.4577 2.73121 57.1992C2.75795 56.9407 2.78291 56.6787 2.81322 56.4202C2.84352 56.1617 2.87027 55.9032 2.90235 55.6465C2.93444 55.3898 2.96297 55.1295 2.99684 54.8728C3.02358 54.6588 3.0521 54.4467 3.08063 54.2328C3.12163 53.9315 3.16442 53.6284 3.21077 53.3289C3.21077 53.2843 3.22325 53.238 3.23038 53.1952C3.55576 51.0027 3.99912 48.8294 4.55852 46.6846C5.14408 44.4348 5.89181 42.2303 6.79586 40.0885C7.7567 37.8479 8.88169 35.6813 10.1617 33.6064L20.5604 33.5975Z" fill="#00B140"/>
<path opacity="0.1" d="M24.8799 60.2905V84.9529H63.5244V60.2905H24.8799ZM24.8799 85.7142V106.893C25.1009 106.939 25.3202 106.984 25.5377 107.022C25.8336 107.079 26.1278 107.13 26.4291 107.175C26.4861 107.184 26.545 107.193 26.6074 107.198C26.725 107.218 26.8462 107.234 26.9639 107.25C27.2616 107.291 27.5576 107.325 27.8553 107.351C27.9961 107.366 28.1387 107.378 28.2814 107.389L28.6254 107.415C28.8126 107.43 28.998 107.44 29.1816 107.446C29.2957 107.446 29.4098 107.456 29.5275 107.46C29.6166 107.46 29.7058 107.46 29.7985 107.46C29.8912 107.46 30.0231 107.46 30.1354 107.46C30.2887 107.46 30.442 107.46 30.5936 107.46H30.7986C30.9519 107.46 31.1052 107.46 31.2567 107.446H31.2674C31.3726 107.446 31.4796 107.446 31.5866 107.432C31.6162 107.433 31.646 107.433 31.6757 107.432C31.7648 107.432 31.854 107.432 31.9395 107.419H32.0019L32.5992 107.373C32.7953 107.355 32.9931 107.332 33.1928 107.31L33.5993 107.262C35.2529 107.03 36.8882 106.683 38.4929 106.221C42.0976 105.216 45.6239 103.809 49.2268 102.779C53.8851 101.45 59.0319 100.798 63.5333 102.422V85.7142H24.8799ZM63.5244 32.8345V0.00178632C59.2935 -0.0440522 55.074 0.450802 50.9685 1.47433C41.1831 3.93273 32.4031 9.26491 24.8799 16.075V32.8327H26.8195V33.594H24.8799V59.5293H63.5244V33.5958H34.783V32.8345H63.5244ZM113.161 21.7441C110.74 21.6585 108.334 20.8919 106.157 19.7082C101.994 17.4441 98.6693 13.9482 94.9541 10.9977C87.2348 4.85262 77.6615 1.14452 67.8404 0.224629V32.8345H123.007L123.145 32.6901L113.161 21.7441ZM118.187 20.8527L123.515 26.7001V19.3196C121.731 19.5406 120.167 20.0665 118.194 20.8456L118.187 20.8527ZM123.515 112.152V85.7142H112.161C112.131 85.6019 112.101 85.4878 112.065 85.3737C112.099 85.4878 112.127 85.6019 112.159 85.7142H67.8475V104.834C68.2682 105.146 68.6836 105.474 69.0954 105.807C69.5393 106.164 69.9779 106.54 70.4182 106.909L70.8621 107.276C71.0743 107.455 71.2882 107.633 71.5039 107.801C71.9318 108.148 72.3638 108.49 72.8 108.827C73.0157 109.006 73.2367 109.166 73.456 109.334C76.9372 111.995 80.6095 114.397 84.4431 116.52C85.3023 116.995 86.1693 117.459 87.0441 117.912C87.627 118.21 88.2136 118.506 88.8019 118.793C89.6861 119.224 90.5775 119.64 91.476 120.041C99.7597 123.759 108.519 126.311 117.504 127.623C119.499 127.918 121.503 128.149 123.514 128.318V112.15H123.692L123.515 112.152ZM67.8475 33.5958V59.5293H123.523V33.5958H67.8475ZM67.8475 60.2905V84.9529H123.523V60.2905H67.8475ZM127.844 19.2875V27.5202L134.645 20.0576C132.392 19.6939 130.125 19.4343 127.844 19.2786V19.2875ZM127.844 60.2994V84.9529H181.995V60.2905L127.844 60.2994ZM181.797 114.11L181.988 85.7142H127.844V128.602C131.332 128.748 134.825 128.706 138.309 128.477H138.369C140.033 128.372 141.689 128.22 143.338 128.02H143.375C152.17 126.997 160.769 124.702 168.904 121.209L181.797 114.11ZM192.436 64.3516C192.233 63.872 192.021 63.3961 191.805 62.9254C191.402 62.034 190.976 61.1676 190.538 60.3012H186.312V84.9529H196.995C196.989 77.9717 195.223 70.8408 192.442 64.3427L192.436 64.3516ZM186.312 85.7231V110.147C189.322 107.262 191.864 103.962 193.695 100.19C195.896 95.6476 196.904 90.729 196.986 85.7195L186.312 85.7231ZM186.312 53.1132V59.5311H190.142C188.983 57.3218 187.707 55.1764 186.318 53.1043L186.312 53.1132ZM149.588 24.1258C149.306 24.0189 149.025 23.9101 148.741 23.8049C145.752 22.7009 142.697 21.7829 139.594 21.056L129.186 32.478L128.987 32.6901L129.12 32.8363H166.162C161.003 29.2852 155.441 26.3583 149.593 24.1169L149.588 24.1258ZM167.248 33.6047H128.603L127.844 34.2999V59.5293H134.501H134.511H182.002V47.3086C177.706 42.1129 172.747 37.5027 167.253 33.5958L167.248 33.6047Z" fill="#00B140"/>
<path opacity="0.1" d="M20.5604 46.6775V59.5293H2.52441C2.52441 59.4544 2.53689 59.3777 2.54224 59.3029C2.55829 59.0978 2.57433 58.8928 2.59216 58.6896C2.61177 58.4507 2.63316 58.21 2.65634 57.9765C2.67951 57.743 2.70447 57.4577 2.73121 57.1992C2.75795 56.9407 2.78291 56.6787 2.81322 56.4202C2.84352 56.1617 2.87027 55.9032 2.90235 55.6465C2.93444 55.3897 2.96297 55.1295 2.99684 54.8727C3.02358 54.6588 3.0521 54.4467 3.08063 54.2327C3.12163 53.9315 3.16442 53.6284 3.21077 53.3289C3.21077 53.2843 3.22325 53.238 3.23038 53.1952C3.55576 51.0027 3.99912 48.8294 4.55852 46.6846L20.5604 46.6775Z" fill="#00B140"/>
<path opacity="0.1" d="M2.46725 60.2923H20.5603V84.953H3.79182C3.74725 85.2061 3.70447 85.461 3.65812 85.716H20.5603V105.604C20.53 105.595 20.5032 105.585 20.4747 105.574C19.9969 105.385 19.5227 105.185 19.0485 104.971L18.7455 104.834C18.2701 104.609 17.7947 104.372 17.3193 104.121C17.1535 104.034 16.9877 103.943 16.8237 103.85C14.1845 102.372 11.7869 100.498 9.71409 98.295C9.65347 98.2362 9.59643 98.1738 9.53581 98.1167C9.24701 97.803 8.96355 97.4856 8.68901 97.1612L8.38594 96.8046C8.06149 96.4071 7.74772 95.9988 7.44287 95.5852C7.39831 95.5246 7.35552 95.464 7.30917 95.4069C6.06936 93.6879 5.03992 91.8265 4.24286 89.8626C4.2179 89.8038 4.1965 89.7396 4.17333 89.6844C3.9285 89.0545 3.7116 88.4186 3.52263 87.7768C3.44062 87.5076 3.36218 87.242 3.29444 86.9621C3.26948 86.8801 3.24809 86.7999 3.22848 86.7197C2.21588 82.7673 2.09644 78.6617 2.09644 74.5845C2.09644 74.1085 2.09644 73.6308 2.09644 73.1583C2.09644 71.5093 2.11605 69.8496 2.14457 68.1916C2.14457 67.762 2.1624 67.3341 2.17131 66.9027C2.19627 65.8081 2.23192 64.7135 2.27828 63.6189C2.28897 63.314 2.30323 63.011 2.31928 62.7079C2.31928 62.5332 2.32819 62.3585 2.34602 62.1838C2.38881 61.5491 2.42446 60.9198 2.46725 60.2923Z" fill="#00B140"/>
<path opacity="0.1" d="M38.484 37.3092V59.5293H24.8799V37.3092H26.8195V29.786H34.7812V37.3092H38.484Z" fill="#00B140"/>
<path opacity="0.1" d="M38.484 60.2905H24.8817V84.9512H38.484V60.2905Z" fill="#00B140"/>
<path opacity="0.1" d="M24.8799 85.7159H38.484V106.217C36.8792 106.679 35.244 107.026 33.5904 107.257L33.1839 107.307C32.9842 107.33 32.7863 107.35 32.5902 107.369C32.3941 107.389 32.1909 107.403 31.993 107.415H31.9306C31.8451 107.415 31.7523 107.426 31.6686 107.428H31.5776C31.4707 107.428 31.3637 107.439 31.2567 107.442C31.1052 107.451 30.9537 107.453 30.7986 107.455C30.7326 107.455 30.6702 107.455 30.6043 107.455C30.4509 107.455 30.2994 107.455 30.1461 107.455H29.8092C29.7182 107.455 29.6309 107.455 29.5364 107.455L29.1923 107.442C29.0141 107.442 28.8215 107.423 28.6361 107.41L28.2938 107.385L27.8678 107.346C27.5683 107.319 27.2705 107.285 26.9764 107.244L26.6198 107.194L26.4416 107.169C26.1438 107.123 25.8497 107.073 25.5502 107.016C25.3309 106.979 25.1134 106.932 24.8924 106.888L24.8799 85.7159Z" fill="#00B140"/>
<path opacity="0.1" d="M123.523 34.685H112.306V59.5275H123.523V34.685Z" fill="#00B140"/>
<path opacity="0.1" d="M123.524 60.2905V84.953H67.8474V74.3153H97.5033V80.5906H112.305V60.2905H123.524Z" fill="#00B140"/>
<path opacity="0.1" d="M123.701 112.158H123.523V128.336C121.514 128.166 119.511 127.935 117.515 127.642C108.525 126.326 99.7623 123.769 91.476 120.044C89.0835 118.968 86.7398 117.792 84.4448 116.518C80.6113 114.394 76.9385 111.993 73.456 109.332C72.5813 108.662 71.7179 107.976 70.8657 107.275C70.2756 106.788 69.6891 106.289 69.0955 105.804C68.6836 105.471 68.2683 105.142 67.8475 104.829V85.716H112.158C112.127 85.6019 112.097 85.4878 112.065 85.3755C112.099 85.4878 112.131 85.6019 112.161 85.716H123.523V112.147C123.583 112.149 123.642 112.154 123.701 112.158Z" fill="#00B140"/>
<path opacity="0.1" d="M152.777 32.8345H145.468V30.5633H148.745V23.7978C149.029 23.9012 149.312 24.0076 149.593 24.1169V30.5633H152.777V32.8345Z" fill="#00B140"/>
<path opacity="0.1" d="M170.387 59.5293H134.504C134.504 59.5293 134.504 59.5293 134.517 59.5382L134.501 59.5293H127.844V34.6868H129.73V53.049H138.349V42.1743H145.47V33.5975H152.779V42.1814H159.899V53.0562H170.387V59.5293Z" fill="#00B140"/>
<path opacity="0.1" d="M127.844 60.2905V84.953H170.387V60.2905H127.844ZM181.936 113.983L181.994 94.4621H170.387V85.7267H127.844V128.602C131.332 128.748 134.825 128.706 138.308 128.477H138.369C140.033 128.372 141.689 128.22 143.338 128.02H143.375C152.169 126.997 160.769 124.702 168.904 121.209" fill="#00B140"/>
<path opacity="0.1" d="M187.068 85.7159H196.993C196.905 90.7237 195.9 95.6422 193.7 100.185C191.869 103.959 189.325 107.259 186.32 110.141V94.4532H187.068V85.7159Z" fill="#00B140"/>
<path opacity="0.1" d="M196.998 84.9529H187.068V64.3427H192.442C195.223 70.8408 196.989 77.9717 196.998 84.9529Z" fill="#00B140"/>
<path opacity="0.1" d="M123.524 41.5913H117.515V49.3801H123.524V41.5913Z" fill="#00B140"/>
<path opacity="0.1" d="M123.524 57.7358H117.515V59.5293H123.524V57.7358Z" fill="#00B140"/>
<path opacity="0.1" d="M123.524 60.2905H117.515V65.5229H123.524V60.2905Z" fill="#00B140"/>
<path opacity="0.1" d="M123.524 73.8803H117.515V81.6691H123.524V73.8803Z" fill="#00B140"/>
<path opacity="0.1" d="M123.524 90.0248H117.515V97.8136H123.524V90.0248Z" fill="#00B140"/>
<path opacity="0.1" d="M123.523 112.147C123.583 112.147 123.642 112.147 123.701 112.158H123.523V113.967H117.515V106.169H123.523V112.147Z" fill="#00B140"/>
<path opacity="0.1" d="M123.523 122.31V128.327C121.514 128.157 119.511 127.926 117.515 127.634V122.31H123.523Z" fill="#00B140"/>
<path opacity="0.1" d="M93.6026 84.3807H67.8474V84.9529H93.6026V84.3807Z" fill="#00B140"/>
<path opacity="0.1" d="M93.6026 85.7142H67.8474V87.9069H93.6026V85.7142Z" fill="#00B140"/>
<path opacity="0.1" d="M93.6026 95.095H67.8474V98.6212H93.6026V95.095Z" fill="#00B140"/>
<path opacity="0.1" d="M93.601 105.809V109.335H73.456C72.5813 108.668 71.7172 107.982 70.8639 107.278C70.2738 106.792 69.6891 106.292 69.0936 105.809H93.601Z" fill="#00B140"/>
<path opacity="0.1" d="M93.6011 116.522V120.044H91.4743C89.0842 118.966 86.7411 117.79 84.4449 116.516L93.6011 116.522Z" fill="#00B140"/>
<path opacity="0.1" d="M143.38 62.6812H138.31V67.7513H143.38V62.6812Z" fill="#00B140"/>
<path opacity="0.1" d="M33.6028 39.058H28.5327V44.1282H33.6028V39.058Z" fill="#00B140"/>
<path opacity="0.1" d="M33.6028 50.8348H28.5327V55.905H33.6028V50.8348Z" fill="#00B140"/>
<path opacity="0.1" d="M33.6028 62.6116H28.5327V67.6818H33.6028V62.6116Z" fill="#00B140"/>
<path opacity="0.1" d="M33.6028 74.3867H28.5327V79.4567H33.6028V74.3867Z" fill="#00B140"/>
<path opacity="0.1" d="M33.6028 86.1634H28.5327V91.2335H33.6028V86.1634Z" fill="#00B140"/>
<path opacity="0.1" d="M33.6028 97.9402H28.5327V103.01H33.6028V97.9402Z" fill="#00B140"/>
<path opacity="0.1" d="M162.736 62.6812H157.666V67.7513H162.736V62.6812Z" fill="#00B140"/>
<path opacity="0.1" d="M143.38 75.1871H138.31V80.2572H143.38V75.1871Z" fill="#00B140"/>
<path opacity="0.1" d="M162.736 75.1871H157.666V80.2572H162.736V75.1871Z" fill="#00B140"/>
<path opacity="0.1" d="M143.38 87.6912H138.31V92.7613H143.38V87.6912Z" fill="#00B140"/>
<path opacity="0.1" d="M162.736 87.6912H157.666V92.7613H162.736V87.6912Z" fill="#00B140"/>
<path opacity="0.1" d="M143.38 100.197H138.31V105.267H143.38V100.197Z" fill="#00B140"/>
<path opacity="0.1" d="M162.736 100.197H157.666V105.267H162.736V100.197Z" fill="#00B140"/>
<path opacity="0.1" d="M143.38 112.703H138.31V117.773H143.38V112.703Z" fill="#00B140"/>
<path opacity="0.1" d="M162.736 112.703H157.666V117.773H162.736V112.703Z" fill="#00B140"/>
<path opacity="0.1" d="M138.31 128.477V125.207H143.379V128.011L138.31 128.477Z" fill="#00B140"/>
<path opacity="0.1" d="M3.20898 53.1917V56.0922H20.5604V53.1917H3.20898ZM4.93824 55.9103H3.52275V53.3699H4.94894L4.93824 55.9103ZM6.66572 55.9103H5.23953V53.3699H6.66572V55.9103ZM8.38963 55.9103H6.96344V53.3699H8.38963V55.9103ZM10.1171 55.9103H8.69269V53.3699H10.1189L10.1171 55.9103ZM11.8428 55.9103H10.4166V53.3699H11.8428V55.9103ZM13.5703 55.9103H12.1441V53.3699H13.5703V55.9103ZM15.2977 55.9103H13.8716V53.3699H15.2977V55.9103ZM17.0234 55.9103H15.5972V53.3699H17.0234V55.9103ZM18.7491 55.9103H17.3229V53.3699H18.7491V55.9103ZM20.4748 55.9103H19.0486V53.3699H20.4748V55.9103Z" fill="#00B140"/>
<path opacity="0.1" d="M3.20898 61.6311V64.5317H20.5604V61.6311H3.20898ZM4.93824 64.348H3.52275V61.8148H4.94894L4.93824 64.348ZM6.66572 64.348H5.23953V61.8148H6.66572V64.348ZM8.38963 64.348H6.96344V61.8148H8.38963V64.348ZM10.1171 64.348H8.69269V61.8148H10.1189L10.1171 64.348ZM11.8428 64.348H10.4166V61.8148H11.8428V64.348ZM13.5703 64.348H12.1441V61.8148H13.5703V64.348ZM15.2977 64.348H13.8716V61.8148H15.2977V64.348ZM17.0234 64.348H15.5972V61.8148H17.0234V64.348ZM18.7491 64.348H17.3229V61.8148H18.7491V64.348ZM20.4748 64.348H19.0486V61.8148H20.4748V64.348Z" fill="#00B140"/>
<path opacity="0.1" d="M3.20898 70.0742V72.98H20.5604V70.0742H3.20898ZM4.93824 72.7911H3.52275V70.256H4.94894L4.93824 72.7911ZM6.66572 72.7911H5.23953V70.256H6.66572V72.7911ZM8.38963 72.7911H6.96344V70.256H8.38963V72.7911ZM10.1171 72.7911H8.69269V70.256H10.1189L10.1171 72.7911ZM11.8428 72.7911H10.4166V70.256H11.8428V72.7911ZM13.5703 72.7911H12.1441V70.256H13.5703V72.7911ZM15.2977 72.7911H13.8716V70.256H15.2977V72.7911ZM17.0234 72.7911H15.5972V70.256H17.0234V72.7911ZM18.7491 72.7911H17.3229V70.256H18.7491V72.7911ZM20.4748 72.7911H19.0486V70.256H20.4748V72.7911Z" fill="#00B140"/>
<path opacity="0.1" d="M3.20898 78.5172V81.4142H20.5604V78.5172H3.20898ZM4.93824 81.2341H3.52275V78.6973H4.94894L4.93824 81.2341ZM6.66572 81.2341H5.23953V78.6973H6.66572V81.2341ZM8.38963 81.2341H6.96344V78.6973H8.38963V81.2341ZM10.1171 81.2341H8.69269V78.6973H10.1189L10.1171 81.2341ZM11.8428 81.2341H10.4166V78.6973H11.8428V81.2341ZM13.5703 81.2341H12.1441V78.6973H13.5703V81.2341ZM15.2977 81.2341H13.8716V78.6973H15.2977V81.2341ZM17.0234 81.2341H15.5972V78.6973H17.0234V81.2341ZM18.7491 81.2341H17.3229V78.6973H18.7491V81.2341ZM20.4748 81.2341H19.0486V78.6973H20.4748V81.2341Z" fill="#00B140"/>
<path opacity="0.1" d="M3.28394 86.9585C3.35346 87.2313 3.4319 87.504 3.51391 87.7732V87.1404H4.9401V89.6754H4.17709C4.20026 89.7343 4.22344 89.7984 4.24661 89.8537H20.5605V86.9585H3.28394ZM6.67114 89.6754H5.24495V87.1404H6.67114V89.6754ZM8.39505 89.6754H6.96886V87.1404H8.39505V89.6754ZM10.1225 89.6754H8.69277V87.1404H10.119L10.1225 89.6754ZM11.8482 89.6754H10.422V87.1404H11.8482V89.6754ZM13.5757 89.6754H12.1495V87.1404H13.5757V89.6754ZM15.3032 89.6754H13.877V87.1404H15.3032V89.6754ZM17.0289 89.6754H15.6027V87.1404H17.0289V89.6754ZM18.7546 89.6754H17.3284V87.1404H18.7546V89.6754ZM20.4803 89.6754H19.0541V87.1404H20.4803V89.6754Z" fill="#00B140"/>
<path opacity="0.1" d="M7.31274 95.4016C7.35731 95.4587 7.4001 95.5228 7.44645 95.5799H8.38952V96.7975C8.49114 96.9187 8.59097 97.0399 8.69437 97.154V95.5727H10.1206V98.1167H9.54295C9.6 98.1755 9.65526 98.2379 9.72123 98.295H20.5656V95.4016H7.31274ZM11.8427 98.1167H10.4165V95.5834H11.8427V98.1167ZM13.5702 98.1167H12.144V95.5834H13.5702V98.1167ZM15.2976 98.1167H13.8714V95.5834H15.2976V98.1167ZM17.0233 98.1167H15.5971V95.5834H17.0233V98.1167ZM18.749 98.1167H17.3228V95.5834H18.749V98.1167ZM20.4747 98.1167H19.0485V95.5834H20.4747V98.1167Z" fill="#00B140"/>
<path opacity="0.1" d="M16.8309 103.843C16.9932 103.936 17.159 104.021 17.3265 104.114V104.025H18.7527V104.827L19.0558 104.968V104.025H20.482V105.567C20.5093 105.58 20.538 105.591 20.5676 105.599V103.843H16.8309Z" fill="#00B140"/>
<path opacity="0.1" d="M134.504 59.5293H134.515H134.504ZM123.523 112.145H123.701H123.523ZM112.065 85.3737C112.099 85.4878 112.127 85.6019 112.159 85.7142C112.131 85.6019 112.1 85.4878 112.065 85.3737ZM134.504 59.5239H134.515H134.504ZM26.8267 32.8292V33.5904H34.7902V32.8292H26.8267ZM123.523 112.145H123.701H123.523ZM112.065 85.3737C112.099 85.4878 112.127 85.6019 112.159 85.7142C112.131 85.6019 112.1 85.4878 112.065 85.3737ZM134.504 59.5239H134.515H134.504ZM123.523 112.14H123.701H123.523ZM112.065 85.3737C112.099 85.4878 112.127 85.6019 112.159 85.7142C112.131 85.6019 112.1 85.4878 112.065 85.3737Z" fill="#00B140"/>
<path d="M82.2914 67.6853C82.2914 67.6853 81.589 67.5873 81.589 66.564C81.589 65.5407 81.0862 63.6296 81.0862 63.6296C81.0862 63.6207 80.6513 60.3012 80.0505 59.7735C79.4497 59.2458 78.6778 56.1474 78.6778 56.1474C78.6778 56.1474 78.5458 54.4663 78.2766 54.1044C78.0075 53.7425 77.6438 52.8565 77.1072 51.5925C76.5706 50.3286 74.3332 49.4532 74.3332 49.4532C74.3332 49.4532 70.2882 47.1072 69.1419 46.3424C69.0377 46.2795 68.9403 46.206 68.8513 46.1231C68.6516 45.861 67.7817 45.8557 67.7817 45.8557C67.6907 45.2816 67.6034 44.622 67.5749 44.0248C67.5749 43.9606 67.5749 43.8964 67.5659 43.8323C68.8441 43.0767 69.8069 41.8854 70.2775 40.4771C70.2989 40.4094 70.3167 40.3381 70.3363 40.2703C70.4129 40.2451 70.4834 40.2042 70.5432 40.1502C70.6031 40.0961 70.651 40.0302 70.684 39.9566C70.7874 39.7266 70.7891 39.4574 70.9175 39.2435C71.0672 38.9903 71.3525 38.8549 71.5771 38.6641C72.144 38.1828 72.2902 37.3716 72.2635 36.6336C72.2456 36.0363 72.1494 35.4338 72.1868 34.8401L72.1975 34.6904C72.2082 34.6012 72.2207 34.5121 72.2367 34.4265C72.3241 33.9844 72.5148 33.5672 72.6218 33.1287C72.7288 32.6901 72.7395 32.1963 72.4899 31.8184C72.1244 31.2639 71.3632 31.1534 70.6947 31.0964C69.937 31.0322 69.2595 31.116 68.7746 30.4867C68.5477 30.1578 68.2924 29.8493 68.0116 29.565C67.9118 29.4723 66.942 28.8804 66.942 28.8412C65.9954 28.4028 64.9226 28.3205 63.9202 28.6094C63.4175 28.7556 62.9433 28.9945 62.4334 29.114C61.3335 29.3742 60.0677 29.0926 59.1336 29.7219C58.613 30.0784 58.301 30.6453 58.0087 31.198C57.771 31.6532 57.5297 32.1078 57.2849 32.5618C56.8909 33.3087 56.4898 34.0682 56.324 34.8954C56.2891 35.0754 56.2677 35.2577 56.2598 35.4409V35.4498C56.2598 35.5158 56.2598 35.5817 56.2598 35.6477V35.7315C56.2598 35.7939 56.2598 35.8545 56.2705 35.9098C56.2812 35.965 56.2794 35.9829 56.2848 36.0203C56.2901 36.0577 56.299 36.1415 56.3097 36.1986C56.3204 36.2556 56.3418 36.3554 56.3632 36.4339C56.3721 36.4678 56.3846 36.4998 56.3953 36.5319C56.4131 36.5926 56.4345 36.6514 56.4577 36.7102C56.4702 36.7405 56.4826 36.7726 56.4969 36.8029C56.5236 36.8653 56.5557 36.9259 56.5878 36.9812C56.6021 37.0061 56.6128 37.0293 56.627 37.0525C56.6768 37.1354 56.7316 37.2152 56.7911 37.2914C57.1726 37.7674 57.7341 38.0704 58.1495 38.5161C58.1495 38.534 58.1495 38.5518 58.1495 38.5678C58.1495 38.6177 58.1495 38.6659 58.1495 38.7158C58.1715 39.7098 58.4361 40.6833 58.9202 41.5517C59.4042 42.4201 60.0932 43.1571 60.927 43.6986C60.927 43.7663 60.9359 43.8358 60.9395 43.9036C60.9743 44.4328 60.9677 44.9638 60.9199 45.492C60.8473 45.4065 60.7564 45.3384 60.654 45.2927C60.5515 45.2471 60.4401 45.225 60.328 45.2281C60.2514 45.2244 60.1747 45.231 60.0998 45.2478L60.0838 45.2353V45.2513C59.6916 45.3476 59.2085 45.7558 58.7467 46.9164C58.7467 46.9164 57.3419 48.4995 56.2723 48.4335C55.2026 48.3676 52.4947 50.0808 52.4947 50.0808C52.4947 50.0808 49.8526 51.7958 49.2857 53.5429C48.9688 54.5335 48.5889 55.503 48.1483 56.4452L44.8824 63.175L44.2798 68.5143C44.2798 68.5143 44.6132 70.8889 44.5472 71.2508C44.4812 71.6127 45.9181 74.8769 45.9181 74.8769C45.9181 74.8769 50.6656 83.2184 52.6052 83.6462L52.7442 83.5482C52.8272 83.5915 52.9152 83.6244 53.0063 83.6462L53.4056 83.3645C53.4296 83.6785 53.4195 83.9941 53.3753 84.3058C53.1079 85.1295 53.4752 90.5044 53.9422 91.558C54.4093 92.6116 54.2435 106.426 54.2435 106.426L54.1776 107.645C54.1776 107.645 54.1776 107.685 54.1936 107.752L54.1776 108.041L54.2257 108.066C54.2757 108.453 54.2594 108.845 54.1776 109.227C54.01 109.762 53.9422 111.273 53.9422 111.273C53.9422 111.273 52.607 119.809 53.2398 121.524C53.8727 123.239 54.4111 125.118 54.4111 125.118C54.4111 125.118 55.0796 127.257 54.4432 127.623C53.8068 127.988 51.9973 128.602 52.3699 129.493C52.7086 130.317 53.9939 132.524 54.1847 132.846L54.1686 133.016L53.9066 135.856C53.949 136.231 54.0507 136.596 54.2079 136.939C54.4949 137.558 55.0529 138.2 56.1136 138.13C56.2919 138.118 56.4987 138.096 56.6984 138.07C58.6398 137.809 61.0304 136.943 61.0304 136.943C60.9063 136.864 60.7925 136.77 60.6917 136.663C60.5963 136.571 60.5207 136.46 60.4695 136.337C60.4183 136.215 60.3926 136.083 60.394 135.95C60.4225 135.433 59.4545 132.969 59.2138 132.363C59.1764 132.276 59.1568 132.226 59.1568 132.226C59.1568 132.226 61.3638 129.919 60.9965 127.874C60.9965 127.874 58.5542 126.448 59.3582 125.665C60.1622 124.883 61.5991 122.635 61.5991 122.635C61.5991 122.635 61.6651 114.229 61.5991 112.974C61.5303 112.103 61.5716 111.227 61.7221 110.366C61.7489 110.236 61.781 110.109 61.8148 109.984C62.9268 110.15 64.0493 110.236 65.1735 110.239C65.5835 110.239 66.0007 110.239 66.4214 110.214C66.4214 110.333 66.4268 110.462 66.4375 110.599C66.5302 112.682 66.7031 116.333 66.8439 117.689C67.0436 119.634 68.1471 124.876 68.1471 124.876C68.1471 124.876 66.0417 126.227 68.5144 129.557C68.5144 129.557 68.5144 130.764 68.3503 130.939C68.1753 131.51 68.0342 132.091 67.9278 132.679C67.8244 133.306 67.7817 133.941 67.9492 134.271C68.3503 135.059 70.757 134.995 70.757 134.995L70.8159 134.984C71.2702 134.937 71.7294 134.981 72.1667 135.112C72.604 135.244 73.0108 135.462 73.3634 135.752C74.278 136.487 77.749 136.164 79.628 135.93C80.3642 135.838 80.8563 135.752 80.8563 135.752C80.8801 135.669 80.8886 135.582 80.8812 135.495C80.8616 135.034 80.4997 134.021 78.0467 133.117C78.0467 133.117 75.7398 131.566 75.7719 130.215H75.7238H75.4563C75.6507 130.204 75.7755 130.215 75.7755 130.215C75.7755 130.215 74.8716 126.917 75.2406 126.649C75.6097 126.382 74.5044 122.727 74.5044 122.727C74.5044 122.727 73.8715 116.595 73.8376 116.165C73.839 115.797 73.8949 115.43 74.0034 115.078L73.8376 111.715C73.8376 111.715 73.8055 110.598 73.8376 110.234C73.8322 109.918 73.8066 109.603 73.761 109.291C73.7449 109.166 73.7289 109.036 73.711 108.908C74.5757 108.688 75.1372 108.485 75.1372 108.485L75.0374 96.7814C75.7719 95.3553 75.9074 92.2265 75.9038 90.007C75.9038 88.5808 75.8396 87.5255 75.8396 87.5255L76.8433 85.8871C76.8433 85.8871 77.0751 83.9261 76.7078 83.4965C76.5456 83.3021 76.6187 83.1007 76.7524 82.9349C76.8218 82.8798 76.8951 82.8298 76.9717 82.7852C76.9717 82.7852 76.961 82.7691 76.9485 82.7459C77.0186 82.6874 77.0931 82.6343 77.1713 82.5873C77.1713 82.5873 76.8148 82.0346 77.1339 81.8011C77.4334 82.0043 77.7008 82.1576 77.9041 82.2824C77.8898 82.4126 77.8755 82.4874 77.8755 82.4874L77.9611 82.3092C78.1572 82.4197 78.2766 82.4874 78.2766 82.4874C78.2766 82.4874 79.849 79.3552 79.8152 78.8934C79.7813 78.4317 80.8848 76.4867 80.8848 76.4867C80.8848 76.4867 81.0185 75.4652 81.6211 75.0374C82.2236 74.6095 82.0881 71.5093 82.0881 71.5093C82.0881 71.5093 82.2557 69.8942 82.6568 69.2345C83.058 68.5749 82.2914 67.6853 82.2914 67.6853ZM52.2058 66.3108L52.2362 67.0578C52.0579 66.7708 51.9295 66.564 51.9295 66.564L52.2058 66.3108Z" fill="url(#paint0_linear)"/>
<path d="M78.3621 81.1343L77.9771 82.7744C77.9771 82.7744 74.8929 81.2003 74.3367 79.2C73.7805 77.1998 75.2673 76.4404 75.2673 76.4404L78.1411 77.658L78.3621 81.1343Z" fill="white"/>
<path opacity="0.1" d="M78.3621 81.1343L77.9771 82.7744C77.9771 82.7744 74.8929 81.2003 74.3367 79.2C73.7805 77.1998 75.2673 76.4404 75.2673 76.4404L78.1411 77.658L78.3621 81.1343Z" fill="black"/>
<path d="M61.0535 136.954C61.0535 136.954 58.2011 138.002 56.2401 138.134C55.1989 138.203 54.6516 137.565 54.37 136.95C54.2161 136.608 54.1168 136.244 54.0758 135.872L54.3307 133.046L54.4662 131.541L58.6325 130.459L59.2226 132.263L59.2778 132.401C59.5149 133.003 60.4651 135.454 60.4366 135.966C60.4355 136.097 60.4608 136.227 60.511 136.348C60.5612 136.469 60.6354 136.579 60.729 136.67C60.8247 136.778 60.9337 136.873 61.0535 136.954Z" fill="white"/>
<path d="M80.5371 135.517C80.5442 135.603 80.5357 135.689 80.5121 135.772C80.5121 135.772 74.4116 136.79 73.1636 135.772C72.8118 135.474 72.4017 135.254 71.9596 135.124C71.5175 134.995 71.0532 134.959 70.5965 135.019C70.5965 135.019 68.2361 135.084 67.8421 134.306C67.6781 133.98 67.7209 133.347 67.8225 132.723C67.9262 132.139 68.0643 131.561 68.2361 130.992L68.3306 130.917L68.8922 130.466L75.4669 130.272H75.5168C75.4848 131.616 77.7488 133.158 77.7488 133.158C80.1538 134.05 80.5085 135.057 80.5371 135.517Z" fill="white"/>
<path opacity="0.1" d="M80.5372 135.517C80.5435 135.603 80.5344 135.689 80.5105 135.772C80.5105 135.772 74.4117 136.79 73.1638 135.772C72.8122 135.475 72.4023 135.254 71.9606 135.125C71.5188 134.995 71.0548 134.959 70.5984 135.019C70.5984 135.019 68.2363 135.084 67.8441 134.306C67.6801 133.978 67.7211 133.347 67.8227 132.723C68.7319 132.814 70.167 133.041 70.7303 133.581C71.5825 134.403 73.0265 135.223 73.9125 135.287C74.606 135.331 78.7545 135.463 80.5372 135.517Z" fill="black"/>
<path opacity="0.1" d="M61.0535 136.954C61.0535 136.954 58.2011 138.002 56.2401 138.134C55.199 138.203 54.6517 137.565 54.3718 136.948C55.0974 137.193 56.1047 137.449 56.6341 137.214C57.2616 136.936 59.4865 136.756 60.7344 136.679C60.8294 136.783 60.9365 136.875 61.0535 136.954Z" fill="black"/>
<path d="M65.2857 52.4785C62.9325 51.564 59.9054 48.5423 60.6613 47.1303C60.8291 46.774 60.9289 46.3895 60.9554 45.9965C61.004 45.463 61.0112 44.9266 60.9768 44.392C60.9238 43.5165 60.8184 42.645 60.6613 41.7821C60.6613 41.7821 68.008 41.9479 67.5801 43.03C67.4553 43.3473 67.4357 43.8982 67.4696 44.515C67.5034 45.1319 67.5926 45.8289 67.6853 46.419C67.8136 47.2284 67.942 47.8452 67.942 47.8452C67.942 47.8452 67.4927 48.4745 67.2289 48.5084C66.965 48.5423 68.6622 53.7817 65.2857 52.4785Z" fill="#CF6F80"/>
<path opacity="0.1" d="M59.2725 132.401L59.2173 132.461C57.0209 129.805 54.3647 133.115 54.3647 133.115L54.3254 133.046L54.4609 131.541L58.6272 130.459L59.2173 132.263L59.2725 132.401Z" fill="black"/>
<path opacity="0.1" d="M75.5187 130.459C75.5187 130.459 73.9142 130.425 73.0585 131.181C72.2028 131.937 68.0668 131.345 68.2451 131.181C68.2979 131.1 68.3298 131.007 68.3378 130.91L68.8994 130.459L75.4741 130.265C75.4991 130.384 75.5187 130.459 75.5187 130.459Z" fill="black"/>
<path d="M62.0056 109.599C61.8861 109.895 61.7953 110.201 61.7346 110.514C61.5859 111.371 61.5446 112.243 61.6116 113.11C61.6776 114.357 61.6116 122.72 61.6116 122.72C61.6116 122.72 60.2015 124.951 59.4153 125.737C58.6291 126.523 61.0197 127.935 61.0197 127.935C61.3763 129.967 59.2156 132.263 59.2156 132.263C57.0193 129.607 54.363 132.919 54.363 132.919C54.363 132.919 52.919 130.424 52.5588 129.532C52.1987 128.641 53.969 128.024 54.5912 127.662C55.2133 127.3 54.5609 125.166 54.5609 125.166C54.5609 125.166 54.035 123.296 53.411 121.59C52.787 119.884 54.0991 111.391 54.0991 111.391C54.0991 111.391 54.1669 109.883 54.3291 109.357C54.411 108.977 54.4272 108.587 54.3772 108.202C54.3665 108.072 54.3541 107.963 54.3451 107.89C54.3362 107.817 54.3291 107.783 54.3291 107.783L54.3541 107.74L55.2454 106.078C55.2454 106.078 62.4334 108.553 62.0056 109.599Z" fill="#EC0000"/>
<path d="M75.5187 130.263C75.5187 130.263 73.9142 130.229 73.0585 130.976C72.2028 131.723 68.0668 131.14 68.2451 130.976C68.4234 130.812 68.4091 129.598 68.4091 129.598C65.9828 126.286 68.0526 124.942 68.0526 124.942C68.0526 124.942 66.9687 119.727 66.7726 117.793C66.6353 116.442 66.4659 112.81 66.375 110.737C66.3358 109.845 66.3126 109.232 66.3126 109.232L68.295 108.833L68.55 108.781L73.3312 107.822C73.3312 107.822 73.4632 108.713 73.5523 109.442C73.5968 109.754 73.6218 110.068 73.6272 110.382C73.5951 110.739 73.6272 111.855 73.6272 111.855L73.7894 115.201C73.6834 115.552 73.6288 115.916 73.6272 116.283C73.6593 116.709 74.2815 122.809 74.2815 122.809C74.2815 122.809 75.3636 126.45 74.9945 126.712C74.6255 126.974 75.5187 130.263 75.5187 130.263Z" fill="#EC0000"/>
<path opacity="0.1" d="M67.5802 43.03C67.4554 43.3473 67.4358 43.8982 67.4697 44.515C66.4856 45.1076 65.3543 45.4106 64.2058 45.3891C63.0573 45.3677 61.9382 45.0227 60.9769 44.3938C60.924 43.5177 60.8186 42.6456 60.6614 41.7821C60.6614 41.7821 68.0081 41.9443 67.5802 43.03Z" fill="black"/>
<path d="M70.4201 39.0902C70.4215 39.7326 70.3204 40.3711 70.1206 40.9817C69.6739 42.3497 68.7581 43.5157 67.5348 44.2738C66.3116 45.0318 64.8597 45.333 63.4359 45.1242C62.0121 44.9153 60.7079 44.2098 59.7539 43.1324C58.7999 42.055 58.2575 40.675 58.2226 39.2364C58.2226 39.1864 58.2226 39.1401 58.2226 39.0902C58.2087 38.2804 58.3563 37.4759 58.6566 36.7238C58.9569 35.9716 59.404 35.2867 59.9718 34.7092C60.5396 34.1316 61.2167 33.6729 61.9636 33.3597C62.7105 33.0466 63.5123 32.8853 64.3222 32.8853C65.1321 32.8853 65.9339 33.0466 66.6809 33.3597C67.4278 33.6729 68.1049 34.1316 68.6727 34.7092C69.2404 35.2867 69.6875 35.9716 69.9878 36.7238C70.2882 37.4759 70.4357 38.2804 70.4219 39.0902H70.4201Z" fill="#CF6F80"/>
<path opacity="0.1" d="M65.2857 52.4786C62.9325 51.564 59.9054 48.5422 60.6613 47.1303C60.8291 46.774 60.9289 46.3895 60.9554 45.9965L64.1768 48.6439L66.1699 50.2786L67.6853 46.4208C67.8136 47.2301 67.942 47.847 67.942 47.847C67.942 47.847 67.4927 48.4763 67.2289 48.5102C66.965 48.544 68.6622 53.7817 65.2857 52.4786Z" fill="black"/>
<path d="M73.6166 64.1787L70.9264 109.371L67.418 109.601L58.3331 83.3966L59.8235 52.286L60.1373 45.713L64.177 49.0307L66.1718 50.6655L67.7317 46.6953L70.6323 49.2233L73.6166 64.1787Z" fill="#EC0000"/>
<path opacity="0.1" d="M62.0055 109.599C61.886 109.895 61.7953 110.201 61.7345 110.514C59.1816 110.12 56.7022 109.345 54.3789 108.216L54.3308 108.191L54.3469 107.904L54.3558 107.754L55.2471 106.093C55.2471 106.093 62.4334 108.553 62.0055 109.599Z" fill="black"/>
<path opacity="0.1" d="M68.3361 110.521C67.6835 110.632 67.0252 110.707 66.3644 110.746C66.3252 109.854 66.302 109.241 66.302 109.241L68.2844 108.842L68.3361 110.521Z" fill="black"/>
<path opacity="0.1" d="M73.5417 109.451C72.2742 109.781 70.3167 110.152 68.5643 109.92L68.5393 108.79L73.3206 107.831C73.3206 107.831 73.4525 108.713 73.5417 109.451Z" fill="black"/>
<path opacity="0.1" d="M68.5321 110.127C61.2229 111.375 54.5287 107.797 54.5287 107.797L54.5929 106.585C54.5929 106.585 54.7587 92.8416 54.2987 91.788C53.8388 90.7344 53.4805 85.3915 53.7407 84.5714C54.001 83.7514 52.7905 71.454 52.7905 71.454L52.5944 66.4624L45.4171 63.5547L48.626 56.8659C49.0595 55.9281 49.4322 54.9634 49.742 53.9778C50.3 52.2414 52.8904 50.5354 52.8904 50.5354C52.8904 50.5354 55.5466 48.8311 56.5967 48.8952C57.6467 48.9594 59.023 47.387 59.023 47.387C60.0392 44.7967 60.959 45.9698 60.959 45.9698C60.959 46.0928 60.959 45.9698 60.9091 46.3531C60.5526 49.1965 66.6745 58.1815 66.7619 58.3402L67.3448 72.5415L67.9349 90.5133L68.5321 110.127Z" fill="black"/>
<path d="M68.3361 110.127C61.0268 111.375 54.3309 107.797 54.3309 107.797L54.3968 106.585C54.3968 106.585 54.5626 92.8416 54.1009 91.788C53.6391 90.7344 53.2826 85.3915 53.5447 84.5714C53.8067 83.7514 52.5945 71.454 52.5945 71.454L52.3966 66.4623L45.2157 63.544L48.4246 56.8552C48.8571 55.917 49.2299 54.9524 49.5406 53.9671C50.0968 52.2307 52.689 50.5247 52.689 50.5247C52.689 50.5247 55.3452 48.8203 56.3935 48.8845C57.4417 48.9487 58.8198 47.3763 58.8198 47.3763C59.8377 44.786 60.9591 45.9591 60.9591 45.9591C60.9591 46.0821 60.8521 46.1373 60.9092 46.3423C61.6936 49.1002 66.4785 58.1708 66.5658 58.3295L67.1559 72.5308L67.746 90.5026L68.3361 110.127Z" fill="white"/>
<path opacity="0.1" d="M66.3661 58.7342C65.5799 58.4062 61.4154 53.6516 61.4154 53.6516V52.5695C61.2639 52.2129 60.3636 52.4304 59.6327 52.68L59.9465 46.107L60.303 46.403C61.0838 49.1591 66.2752 58.5755 66.3661 58.7342Z" fill="black"/>
<path d="M66.5639 58.3402C65.776 58.0122 61.6115 53.2576 61.6115 53.2576V52.1755C61.4599 51.8189 60.5597 52.0364 59.8287 52.286L60.1443 45.713L60.5008 46.009C61.2835 48.7651 66.4766 58.1833 66.5639 58.3402Z" fill="white"/>
<path opacity="0.1" d="M54.5286 82.0524C54.6266 82.0524 59.6112 81.5283 59.6112 81.5283C59.6112 81.5283 62.6294 87.4631 62.4315 88.9071C62.2336 90.3511 61.8753 91.6293 60.6612 91.4029C59.4472 91.1765 54.1274 91.5812 54.1274 91.5812L54.5286 82.0524Z" fill="black"/>
<path d="M54.3308 81.6584C54.4289 81.6584 59.4134 81.1343 59.4134 81.1343C59.4134 81.1343 62.4298 87.0709 62.2337 88.5131C62.0376 89.9553 61.6757 91.2353 60.4634 91.0089C59.2512 90.7825 53.9297 91.1872 53.9297 91.1872L54.3308 81.6584Z" fill="white"/>
<path d="M58.087 78.872C58.087 78.872 62.6615 81.3304 62.7596 82.0809C62.8576 82.8315 60.4313 81.7529 59.9072 81.6228C59.5622 81.5397 59.2111 81.4848 58.8572 81.4588L55.3612 81.5533L58.087 78.872Z" fill="#CF6F80"/>
<path opacity="0.1" d="M65.0897 59.0408C65.3556 59.0408 65.5711 58.8253 65.5711 58.5595C65.5711 58.2936 65.3556 58.0781 65.0897 58.0781C64.8239 58.0781 64.6084 58.2936 64.6084 58.5595C64.6084 58.8253 64.8239 59.0408 65.0897 59.0408Z" fill="black"/>
<path d="M65.0897 58.8447C65.3556 58.8447 65.5711 58.6292 65.5711 58.3634C65.5711 58.0975 65.3556 57.882 65.0897 57.882C64.8239 57.882 64.6084 58.0975 64.6084 58.3634C64.6084 58.6292 64.8239 58.8447 65.0897 58.8447Z" fill="#3F3D56"/>
<path opacity="0.1" d="M65.9757 79.8775C66.2416 79.8775 66.4571 79.662 66.4571 79.3961C66.4571 79.1303 66.2416 78.9148 65.9757 78.9148C65.7099 78.9148 65.4944 79.1303 65.4944 79.3961C65.4944 79.662 65.7099 79.8775 65.9757 79.8775Z" fill="black"/>
<path d="M65.9757 79.6796C66.2416 79.6796 66.4571 79.4641 66.4571 79.1983C66.4571 78.9324 66.2416 78.7169 65.9757 78.7169C65.7099 78.7169 65.4944 78.9324 65.4944 79.1983C65.4944 79.4641 65.7099 79.6796 65.9757 79.6796Z" fill="#3F3D56"/>
<path opacity="0.1" d="M65.5691 69.4591C65.835 69.4591 66.0505 69.2436 66.0505 68.9778C66.0505 68.712 65.835 68.4965 65.5691 68.4965C65.3033 68.4965 65.0878 68.712 65.0878 68.9778C65.0878 69.2436 65.3033 69.4591 65.5691 69.4591Z" fill="black"/>
<path d="M65.5691 69.263C65.835 69.263 66.0505 69.0475 66.0505 68.7817C66.0505 68.5159 65.835 68.3004 65.5691 68.3004C65.3033 68.3004 65.0878 68.5159 65.0878 68.7817C65.0878 69.0475 65.3033 69.263 65.5691 69.263Z" fill="#3F3D56"/>
<path d="M76.665 81.3589C76.665 81.3589 76.9931 81.851 76.665 82.081C76.337 82.3109 76.6971 82.8671 76.6971 82.8671C76.6971 82.8671 75.8789 83.3467 76.239 83.7781C76.5991 84.2095 76.3709 86.1581 76.3709 86.1581L75.3868 87.7875C75.3868 87.7875 75.4456 88.8375 75.4492 90.2566C75.4492 92.4708 75.3191 95.5834 74.5988 97.0025L74.6987 108.646C74.6987 108.646 71.2526 109.904 68.3682 109.521L67.9403 90.8378C67.9403 90.8378 68.5643 80.2429 68.7942 78.2106C68.9288 77.1555 68.9836 76.0918 68.9583 75.0284C68.9583 75.0284 68.8602 71.848 68.5304 70.3719C68.5304 70.3719 68.1739 63.9772 68.1382 62.207C68.1222 61.3602 68.1667 58.8893 68.2166 56.5396C68.2719 53.9707 68.3343 51.5479 68.3343 51.5479L67.6836 46.3994C67.6836 46.3994 68.3343 46.3334 68.5304 46.5955C68.6182 46.6776 68.7138 46.751 68.8156 46.8148C69.9388 47.5742 73.9071 49.9096 73.9071 49.9096C73.9071 49.9096 76.1035 50.7832 76.6294 52.0346C77.1553 53.2861 77.5208 54.1739 77.7757 54.5305C78.0306 54.887 78.1697 56.5628 78.1697 56.5628C78.1697 56.5628 78.9256 59.6469 79.5156 60.1693C80.1057 60.6916 80.5372 64.0147 80.5372 64.0147L75.3226 68.115C75.3226 68.115 74.8645 74.9357 74.7664 75.1996C74.6684 75.4634 76.665 81.3589 76.665 81.3589Z" fill="white"/>
<path d="M76.8628 81.3589C76.8628 81.3589 77.1891 81.851 76.8628 82.0809C76.5366 82.3109 76.8931 82.8671 76.8931 82.8671C76.8931 82.8671 76.0802 83.352 76.4368 83.7835C76.7933 84.2149 76.5687 86.1634 76.5687 86.1634L75.5846 87.7928C75.5846 87.7928 75.6434 88.8429 75.6488 90.2619C75.6488 92.4761 75.5186 95.5888 74.7984 97.0078L74.8965 108.651C74.8965 108.651 71.4451 109.91 68.5642 109.526L68.1381 90.8431C68.1381 90.8431 68.7621 80.2483 68.992 78.216C69.1268 77.1609 69.181 76.0971 69.1543 75.0338C69.1543 75.0338 69.0562 71.8534 68.7282 70.3772C68.7282 70.3772 68.3716 63.9826 68.3342 62.2123C68.3182 61.3655 68.3645 58.8946 68.4126 56.545C68.4679 53.976 68.5303 51.5533 68.5303 51.5533L67.671 46.3352C67.671 46.3352 68.5303 46.3352 68.7282 46.6008C68.8152 46.6839 68.9108 46.7574 69.0134 46.8201C70.1366 47.5796 74.1067 49.9149 74.1067 49.9149C74.1067 49.9149 76.3013 50.7885 76.8272 52.04C77.3531 53.2915 77.7186 54.1793 77.9753 54.5358C78.232 54.8924 78.3675 56.5681 78.3675 56.5681C78.3675 56.5681 79.1234 59.6523 79.7134 60.1746C80.3035 60.697 80.7296 64.0129 80.7296 64.0129L75.5151 68.1132C75.5151 68.1132 75.0569 74.9339 74.9571 75.1978C74.8573 75.4616 76.8628 81.3589 76.8628 81.3589Z" fill="white"/>
<path opacity="0.1" d="M70.618 53.0668L71.0887 54.4396L68.6106 56.9354C68.6659 54.3683 68.7283 51.9437 68.7283 51.9437L67.869 46.7256C67.869 46.7256 68.7283 46.7256 68.9262 46.9913C69.013 47.0741 69.1086 47.147 69.2114 47.2088L71.3186 53.2879L70.618 53.0668Z" fill="black"/>
<path d="M70.42 52.6729L70.8924 54.0456L68.4144 56.5414C68.4697 53.9725 68.5321 51.5497 68.5321 51.5497L67.671 46.3317C67.671 46.3317 68.5321 46.3317 68.7282 46.5973C68.8156 46.6798 68.9112 46.7533 69.0134 46.8166L71.1224 52.8939L70.42 52.6729Z" fill="white"/>
<path opacity="0.1" d="M70.4201 39.0902C70.4215 39.7326 70.3204 40.3711 70.1206 40.9817C70.0869 40.9869 70.0525 40.9854 70.0194 40.9771C69.9864 40.9688 69.9553 40.954 69.928 40.9335C69.8817 39.3291 69.0919 37.8226 68.1203 36.5409C67.8476 36.1538 67.5169 35.8111 67.1398 35.5247C66.7587 35.2384 66.2846 35.1043 65.8099 35.1485C65.2751 35.2216 64.8027 35.5853 64.2625 35.6317C63.5494 35.6905 62.9112 35.1967 62.2034 35.1717C61.9157 35.1744 61.6319 35.2385 61.3709 35.3596C61.1099 35.4808 60.8777 35.6561 60.6899 35.8741C60.3181 36.314 60.0418 36.8264 59.8787 37.3787C59.5984 38.2163 59.4458 39.0914 59.4259 39.9744C59.417 40.4736 59.3689 41.0993 58.9054 41.2812C58.9403 40.9141 58.8985 40.5437 58.7828 40.1936C58.6672 39.8434 58.48 39.5211 58.2333 39.2471L58.2226 39.2364C58.2226 39.1864 58.2226 39.1401 58.2226 39.0902C58.2087 38.2804 58.3563 37.4759 58.6566 36.7238C58.9569 35.9716 59.404 35.2867 59.9718 34.7092C60.5396 34.1316 61.2167 33.6729 61.9636 33.3597C62.7105 33.0466 63.5123 32.8853 64.3222 32.8853C65.1321 32.8853 65.9339 33.0466 66.6809 33.3597C67.4278 33.6729 68.1049 34.1316 68.6727 34.7092C69.2404 35.2867 69.6875 35.9716 69.9878 36.7238C70.2882 37.4759 70.4357 38.2804 70.4219 39.0902H70.4201Z" fill="black"/>
<path d="M66.8474 29.4045C65.921 28.9688 64.8673 28.8863 63.8845 29.1728C63.3906 29.319 62.9254 29.5561 62.4244 29.6755C61.3548 29.934 60.1068 29.6541 59.1887 30.2799C58.6789 30.6364 58.3722 31.1997 58.087 31.747L57.3739 33.1055C56.9853 33.8489 56.5931 34.6048 56.4308 35.4231C56.2686 36.2413 56.3666 37.1577 56.8854 37.8155C57.2634 38.295 57.8214 38.5963 58.2314 39.0474C58.477 39.3217 58.6634 39.6438 58.7787 39.9935C58.8941 40.3433 58.9359 40.713 58.9017 41.0797C59.367 40.9014 59.4116 40.2739 59.4223 39.7747C59.4421 38.8917 59.5948 38.0167 59.8751 37.1791C60.0378 36.6265 60.3141 36.114 60.6862 35.6744C60.8742 35.4566 61.1064 35.2814 61.3674 35.1603C61.6283 35.0392 61.9121 34.975 62.1998 34.972C62.9129 34.997 63.5529 35.489 64.2588 35.4302C64.7937 35.3856 65.2679 35.0202 65.8063 34.9488C66.281 34.9039 66.7553 35.0381 67.1362 35.325C67.5131 35.611 67.8433 35.9538 68.1149 36.3412C69.0883 37.623 69.878 39.1258 69.9244 40.7338C70.1259 40.8818 70.4164 40.6893 70.5163 40.4611C70.6161 40.2329 70.6197 39.9655 70.7462 39.748C70.8924 39.4966 71.1723 39.3629 71.3916 39.1739C71.9478 38.6944 72.0869 37.8868 72.0655 37.1541C72.0441 36.4214 71.9015 35.678 72.0405 34.9578C72.1243 34.5156 72.3133 34.102 72.4167 33.6653C72.5201 33.2285 72.5326 32.7383 72.2883 32.3621C71.9318 31.8094 71.1812 31.7007 70.527 31.649C69.7836 31.5848 69.1186 31.6668 68.6444 31.0411C68.4218 30.7145 68.1713 30.408 67.8956 30.1248C67.8012 30.0321 66.8474 29.4438 66.8474 29.4045Z" fill="#512E4E"/>
<path opacity="0.1" d="M47.4709 66.999L45.6079 63.5547L45.0178 68.8691C45.0178 68.8691 45.3458 71.2294 45.2799 71.5913C45.2139 71.9532 46.6241 75.1978 46.6241 75.1978C46.6241 75.1978 51.2824 83.4947 53.1846 83.9225L59.6113 79.3302L57.907 77.1659C57.907 77.1659 57.317 76.936 57.169 77.1659C57.169 77.1659 54.0046 71.7215 53.6766 71.3275C53.3486 70.9335 53.4127 70.1473 53.4127 70.1473C53.4127 70.1473 52.9207 69.6232 53.0847 69.1311C53.2487 68.6391 52.1345 66.933 52.1345 66.933L53.1507 65.9828L47.4709 66.999Z" fill="black"/>
<path d="M45.7059 63.1625L45.2139 63.5547L44.6238 68.8691C44.6238 68.8691 44.9518 71.2294 44.8858 71.5913C44.8199 71.9532 46.2318 75.1978 46.2318 75.1978C46.2318 75.1978 50.8883 83.4947 52.7905 83.9225L59.2191 79.3302L57.513 77.1659C57.513 77.1659 56.9229 76.936 56.7749 77.1659C56.7749 77.1659 53.6106 71.7214 53.2826 71.3275C52.9545 70.9335 53.0205 70.1473 53.0205 70.1473C53.0205 70.1473 52.5285 69.6232 52.6925 69.1311C52.8565 68.6391 51.7405 66.933 51.7405 66.933L52.7566 65.9828L45.7059 63.1625Z" fill="white"/>
<path opacity="0.1" d="M76.2389 83.9813C76.5955 84.4145 76.3708 86.3595 76.3708 86.3595L75.3868 87.9889C75.3868 87.9889 75.4456 89.0407 75.4492 90.458L73.7948 90.975C73.6453 91.0217 73.4868 91.032 73.3325 91.005C73.1782 90.9779 73.0326 90.9144 72.9079 90.8197C72.7831 90.7249 72.6828 90.6017 72.6154 90.4604C72.5479 90.319 72.5153 90.1636 72.5201 90.007L72.8054 80.8063L76.665 82.2824C76.337 82.5106 76.6971 83.0703 76.6971 83.0703C76.6971 83.0703 75.8788 83.5481 76.2389 83.9813Z" fill="black"/>
<path d="M76.4368 83.7835C76.7934 84.2167 76.5688 86.1635 76.5688 86.1635L75.5847 87.7929C75.5847 87.7929 75.6435 88.8429 75.6489 90.262L73.9642 90.7879C73.8178 90.8334 73.6626 90.8433 73.5116 90.8167C73.3606 90.7901 73.2181 90.7278 73.096 90.635C72.9739 90.5422 72.8758 90.4216 72.8097 90.2833C72.7437 90.1449 72.7116 89.9927 72.7163 89.8395L73.0033 80.6102L76.8647 82.0863C76.5349 82.3145 76.895 82.8725 76.895 82.8725C76.895 82.8725 76.0803 83.3521 76.4368 83.7835Z" fill="white"/>
<path d="M77.7149 79.3979C77.7149 79.3979 77.4528 81.0719 76.7968 81.17C76.1407 81.268 75.8466 83.878 75.1923 83.7853C74.5381 83.6926 74.9713 81.359 74.9944 80.9061C75.0176 80.4533 74.2813 78.5779 74.8322 78.1518C75.3831 77.7257 77.1266 78.1518 77.1266 78.1518L77.7149 79.3979Z" fill="#CF6F80"/>
<path opacity="0.1" d="M79.1109 66.5069L80.3481 64.0111C80.3481 64.0111 80.8402 65.9133 80.8402 66.9295C80.8402 67.9456 81.5283 68.0455 81.5283 68.0455C81.5283 68.0455 82.2824 68.9368 81.8848 69.5857C81.4873 70.2347 81.3268 71.8498 81.3268 71.8498C81.3268 71.8498 81.457 74.9322 80.8669 75.3582C80.2768 75.7843 80.1538 76.8023 80.1538 76.8023C80.1538 76.8023 79.0699 78.7365 79.1038 79.1965C79.1376 79.6564 77.5956 82.7709 77.5956 82.7709C77.5956 82.7709 78.3497 78.9006 73.9552 77.2283C73.9552 77.2283 73.9213 75.9145 74.2494 75.5544C74.5774 75.1942 75.089 75.0302 74.7681 73.21C74.4473 71.3899 74.6754 69.2149 74.6754 68.7782C74.6754 68.3414 75.6595 65.6174 75.6595 65.6174L79.1109 66.5069Z" fill="black"/>
<path d="M79.6457 63.6545L80.726 64.0111C80.726 64.0111 81.2198 65.9133 81.2198 66.9294C81.2198 67.9456 81.9079 68.0454 81.9079 68.0454C81.9079 68.0454 82.662 68.9368 82.2645 69.5857C81.8669 70.2346 81.7083 71.8498 81.7083 71.8498C81.7083 71.8498 81.8384 74.9322 81.2483 75.3582C80.6582 75.7843 80.5263 76.8023 80.5263 76.8023C80.5263 76.8023 79.4442 78.7365 79.4781 79.1965C79.512 79.6564 77.9681 82.7709 77.9681 82.7709C77.9681 82.7709 78.724 78.9005 74.3278 77.2283C74.3278 77.2283 74.2957 75.9144 74.6237 75.5543C74.9517 75.1942 75.4634 75.0302 75.1425 73.21C74.8216 71.3899 75.0498 69.2149 75.0498 68.7781C75.0498 68.3414 76.0338 65.6173 76.0338 65.6173L79.6457 63.6545Z" fill="white"/>
<path opacity="0.1" d="M55.7838 128.345C55.7838 128.345 57.5059 127.263 58.6362 128.049C59.7665 128.835 55.7838 128.345 55.7838 128.345Z" fill="black"/>
<path opacity="0.1" d="M69.165 124.999C69.165 124.999 70.6893 124.803 71.9693 126.181C73.2493 127.559 69.165 124.999 69.165 124.999Z" fill="black"/>
<g opacity="0.1">
<path opacity="0.1" d="M71.3953 38.7835C71.176 38.9725 70.8943 39.108 70.7481 39.3594C70.6233 39.5751 70.6198 39.8407 70.5199 40.0724C70.4201 40.3042 70.1295 40.4932 69.9281 40.347C69.8817 38.7425 69.0902 37.2361 68.1186 35.9525C67.8469 35.5652 67.5168 35.2224 67.1399 34.9364C66.7583 34.6495 66.2834 34.5154 65.8082 34.5602C65.2733 34.6333 64.8027 34.997 64.2625 35.0415C63.5494 35.1022 62.9094 34.6083 62.2017 34.5834C61.914 34.5862 61.6304 34.6506 61.3696 34.772C61.1089 34.8935 60.8771 35.0692 60.6899 35.2876C60.3177 35.7265 60.0414 36.2384 59.8787 36.7904C59.5986 37.6281 59.446 38.5031 59.4259 39.3861C59.4152 39.8835 59.3689 40.5039 58.9089 40.6893C58.9196 40.821 58.9196 40.9533 58.9089 41.085C59.3724 40.9068 59.4188 40.2792 59.4295 39.7801C59.4494 38.897 59.602 38.022 59.8823 37.1844C60.045 36.6319 60.3213 36.1194 60.6935 35.6798C60.8811 35.462 61.113 35.2868 61.3737 35.1657C61.6343 35.0445 61.9178 34.9804 62.2052 34.9774C62.9183 35.0023 63.5601 35.4944 64.2661 35.4355C64.8009 35.391 65.2751 35.0255 65.8117 34.9542C66.287 34.9093 66.7619 35.0435 67.1434 35.3304C67.5203 35.6163 67.8505 35.9591 68.1221 36.3465C69.0937 37.6283 69.8853 39.1312 69.9316 40.7392C70.1331 40.8872 70.4237 40.6946 70.5235 40.4664C70.6233 40.2382 70.6269 39.9708 70.7517 39.7533C70.8979 39.502 71.1796 39.3683 71.3988 39.1793C71.955 38.6997 72.0941 37.8922 72.0727 37.1594C72.0727 37.1363 72.0727 37.1131 72.0727 37.0917C72.0388 37.7264 71.8695 38.3735 71.3953 38.7835Z" fill="black"/>
<path opacity="0.1" d="M58.2351 38.657C57.8251 38.2059 57.2653 37.9046 56.8891 37.4269C56.5724 37.0039 56.3915 36.4948 56.3704 35.9668C56.3142 36.6266 56.4985 37.2844 56.8891 37.8191C57.2653 38.2986 57.8251 38.5999 58.2351 39.0509C58.6288 39.4921 58.8651 40.0513 58.9072 40.6411C58.9345 40.2822 58.889 39.9214 58.7735 39.5805C58.6581 39.2395 58.4749 38.9254 58.2351 38.657Z" fill="black"/>
<path opacity="0.1" d="M72.4204 33.2749C72.3152 33.7116 72.128 34.127 72.0424 34.5673C71.9917 34.8616 71.9732 35.1605 71.9872 35.4587C71.9931 35.2888 72.0116 35.1196 72.0424 34.9524C72.128 34.5103 72.3152 34.0967 72.4204 33.6599C72.4817 33.419 72.5016 33.1694 72.4792 32.9219C72.4681 33.0408 72.4485 33.1588 72.4204 33.2749Z" fill="black"/>
</g>
<path opacity="0.1" d="M23.6623 135.593C33.256 135.593 41.0333 134.344 41.0333 132.803C41.0333 131.263 33.256 130.013 23.6623 130.013C14.0685 130.013 6.29126 131.263 6.29126 132.803C6.29126 134.344 14.0685 135.593 23.6623 135.593Z" fill="#00B140"/>
<path d="M24.222 79.357H23.1042V104.524H24.222V79.357Z" fill="#535461"/>
<path d="M31.2461 104.447L31.1765 105.581L31.0767 107.186L31.0357 107.852L30.9377 109.457L30.8949 110.123L30.795 111.728L29.6684 129.924C29.6194 130.707 29.2739 131.442 28.7023 131.979C28.1306 132.516 27.3758 132.816 26.5913 132.816H20.7333C19.949 132.816 19.1944 132.516 18.623 131.979C18.0516 131.442 17.7066 130.707 17.658 129.924L16.5367 111.715L16.4369 110.111L16.3959 109.444L16.296 107.84L16.255 107.173L16.1552 105.569L16.0839 104.435C16.0715 104.217 16.1038 103.998 16.1789 103.793C16.254 103.588 16.3702 103.4 16.5204 103.241C16.6707 103.082 16.8518 102.956 17.0526 102.87C17.2534 102.783 17.4698 102.739 17.6883 102.739H29.6701C29.8879 102.741 30.1029 102.788 30.302 102.876C30.5011 102.964 30.68 103.092 30.8277 103.252C30.9754 103.412 31.0887 103.601 31.1606 103.806C31.2326 104.012 31.2617 104.23 31.2461 104.447Z" fill="#3F3D56"/>
<path d="M31.1765 105.581L31.0766 107.18H16.2478L16.1479 105.581H31.1765Z" fill="#9D9CB5"/>
<path d="M31.0357 107.847L30.9376 109.448H16.3887L16.2888 107.847H31.0357Z" fill="#9D9CB5"/>
<path d="M30.895 110.116L30.7969 111.715H16.5296L16.4298 110.116H30.895Z" fill="#9D9CB5"/>
<path d="M14.442 88.7894C20.9508 93.4994 23.6677 100.866 23.6677 100.866C23.6677 100.866 15.8236 100.597 9.31306 95.8865C2.80249 91.1765 0.0909424 83.812 0.0909424 83.812C0.0909424 83.812 7.93144 84.0794 14.442 88.7894Z" fill="#00B140"/>
<path d="M0.0855713 83.812C0.0855713 83.812 8.22913 88.3313 10.8408 92.0732C13.4526 95.8152 23.6677 100.866 23.6677 100.866" stroke="#535461" stroke-width="2" stroke-miterlimit="10"/>
<path d="M18.6439 79.3017C22.1862 81.8635 23.6676 85.8728 23.6676 85.8728C23.6676 85.8728 19.398 85.7267 15.8539 83.1649C12.3098 80.6031 10.8319 76.5919 10.8319 76.5919C10.8319 76.5919 15.0998 76.7381 18.6439 79.3017Z" fill="#00B140"/>
<path d="M10.8319 76.5919C10.8319 76.5919 15.2638 79.0521 16.6846 81.088C18.1055 83.1239 23.6676 85.8728 23.6676 85.8728" stroke="#535461" stroke-width="2" stroke-miterlimit="10"/>
<path d="M28.8109 85.6696C24.7409 90.1425 23.8799 95.9881 23.8799 95.9881C23.8799 95.9881 29.6185 94.5797 33.685 90.1051C37.7514 85.6304 38.616 79.7865 38.616 79.7865C38.616 79.7865 32.8809 81.1967 28.8109 85.6696Z" fill="#00B140"/>
<path d="M38.6196 79.7883C38.6196 79.7883 33.3177 84.3735 31.97 87.5326C30.6222 90.6916 23.8799 95.9881 23.8799 95.9881" stroke="#535461" stroke-width="2" stroke-miterlimit="10"/>
<path d="M178.215 84.0955C178.215 84.0955 175.272 69.452 176.399 67.6301C176.399 67.6301 176.44 65.9365 176.372 63.7776C176.372 63.6956 176.372 63.6136 176.372 63.5298C176.57 63.6619 176.777 63.781 176.99 63.8863C178.029 64.4196 179.22 64.5735 180.36 64.3213L179.468 63.3283C179.255 63.0912 179.032 62.8345 178.985 62.5207C178.939 62.207 179.067 61.9271 179.178 61.6472C180.025 59.5079 180.069 56.8177 178.438 55.1848C177.06 53.812 176.725 52.04 175.229 50.7867C174.136 49.8686 173.536 48.5227 172.969 47.2213C172.489 46.1213 172.006 45.0124 171.731 43.8465C171.517 42.9355 171.432 41.9925 171.138 41.1029C170.844 40.2133 170.293 39.3487 169.432 38.9511C169.125 38.8103 168.785 38.7301 168.505 38.5429C168.137 38.2951 167.916 37.8922 167.651 37.5392C166.301 35.7564 161.782 36.8065 159.643 37.5303C159.061 37.7125 158.522 38.0109 158.06 38.4074L158.079 38.3753C158.095 38.3486 158.115 38.3218 158.133 38.2951C157.898 38.4844 157.696 38.7101 157.534 38.9636C157.222 39.4574 157.092 40.0332 156.831 40.5681C156.517 41.2009 154.772 42.9676 155.523 43.6789C155.575 43.7267 155.636 43.7653 155.701 43.793C155.983 43.9103 156.293 43.9413 156.592 43.8822L156.56 43.9588C156.304 44.5864 156.173 45.258 156.173 45.9359C156.173 48.8649 158.589 51.2395 161.572 51.2395C162.132 51.2401 162.69 51.1541 163.224 50.9846C163.237 51.0524 163.247 51.1201 163.26 51.1879C163.26 51.2146 163.269 51.2413 163.272 51.2681L163.178 51.4C163.173 51.3919 163.168 51.3841 163.162 51.3768L160.363 55.2882C159.935 55.5894 157.471 57.3722 157.332 58.7092C157.186 60.1729 157.04 61.8861 157.04 61.8861L157.02 62.2533C156.898 62.3555 156.755 62.43 156.601 62.4715C156.447 62.5131 156.286 62.5207 156.129 62.494C155.255 62.3514 155.255 65.7029 155.255 65.7029C155.255 65.7029 154.674 66.2377 154.275 65.7742C153.875 65.3107 152.82 66.8813 152.82 66.8813L146.206 67.1666L146.055 67.1755L145.698 66.072C145.66 65.9556 145.577 65.859 145.468 65.8033C145.359 65.7475 145.232 65.7371 145.115 65.7742C145.087 65.7833 145.061 65.7947 145.035 65.8081L145.01 65.8224L144.964 65.8545L144.94 65.8759C144.928 65.8874 144.916 65.9 144.905 65.9133L144.883 65.9382L144.873 65.9489C144.831 66.0059 144.804 66.0716 144.793 66.141C144.782 66.2103 144.787 66.2813 144.808 66.3483L145.115 67.2949C143.839 67.5516 142.534 68.2754 143.598 70.2685L138.203 69.272L139.949 70.7374L148.959 72.5968C148.839 72.8107 148.918 73.1209 149.29 73.5577C150.895 75.442 153.818 75.9537 154.995 76.0856C155.306 76.7807 155.694 77.4385 156.152 78.0466L156.05 79.9239C156.05 79.9239 153.071 94.2321 152.526 94.9577C152.801 94.6457 153.053 94.3138 153.28 93.9647C152.415 96.9045 151.207 100.928 150.889 101.531C150.379 102.493 149.907 106.389 150.488 106.638C150.667 106.715 151.176 106.677 151.904 106.622V106.945L151.872 119.173C151.872 119.173 152.018 126.673 151.617 127.388C151.216 128.102 151.109 129.602 151.109 129.602C151.109 129.602 149.504 132.559 148.233 133.748C148.224 133.758 148.215 133.766 148.205 133.773L148.165 133.495C148.165 133.495 146.638 135.424 143.257 135.315C143.257 135.315 141.223 136.638 144.24 136.709C147.256 136.781 151.109 136.603 151.109 136.603C151.109 136.603 153.799 132.502 156.052 133.037V136.144H156.742V132.987C157.062 132.776 157.336 132.503 157.547 132.183C157.758 131.864 157.902 131.505 157.97 131.128C158.029 130.739 157.986 130.342 157.845 129.975C157.704 129.609 157.469 129.285 157.165 129.037C157.028 128.913 156.918 128.762 156.842 128.594C156.767 128.426 156.726 128.244 156.724 128.06L156.699 128.081C156.699 128.019 156.683 127.954 156.676 127.888C156.478 126.284 156.23 122.973 157.106 120.524C158.306 117.165 158.669 112.487 157.796 109.703C157.514 108.813 157.282 107.907 157.102 106.991C157.081 106.875 157.061 106.765 157.043 106.661C157.641 106.742 158.232 106.861 158.814 107.018C160.837 107.576 165.264 107.679 169.043 107.649C169.052 107.752 169.063 107.861 169.075 107.97C169.142 108.726 169.283 109.473 169.496 110.202C169.97 111.628 170.188 117.916 170.188 117.916C170.188 117.916 170.799 123.086 170.466 125.189C170.287 126.359 170.109 127.534 170.007 128.714V128.737C170.007 128.737 169.006 131.589 168.273 133.139C168.255 133.178 168.235 133.217 168.218 133.255C168.022 133.272 167.83 133.315 167.645 133.381C167.645 133.381 166.663 135.342 165.684 135.667C164.706 135.991 165.03 137.059 167.246 136.667C169.462 136.275 172.808 135.954 172.808 135.954L172.953 133.953L173.634 133.101L173.455 135.096L174.181 134.953L174.085 132.527L175.199 131.133C175.199 131.133 176.545 129.935 174.545 127.578V127.63C174.523 127.596 174.504 127.56 174.48 127.527V127.516C174.149 127.002 173.885 126.045 174.368 124.346C175.242 121.276 175.75 118.49 175.75 118.49C175.75 118.49 177.7 111.026 175.356 107.494H175.459C175.219 106.997 175.049 106.469 174.955 105.925C174.943 105.861 174.932 105.795 174.922 105.727C176.657 105.627 178.36 105.314 179.748 104.636C179.743 104.629 178.907 86.9158 178.215 84.0955ZM156.193 71.7411V71.7767L155.836 71.7946L156.193 71.7411ZM154.97 71.9104C154.911 71.9234 154.857 71.9496 154.81 71.9871C154.656 72.204 154.56 72.4559 154.53 72.7198L153.973 72.595C153.973 72.595 153.583 72.5112 153.022 72.4167L152.756 72.1493C153.487 72.0887 154.246 71.9996 154.97 71.9104Z" fill="url(#paint1_linear)"/>
<path d="M173.373 132.552L173.161 135.078L173.872 134.936L173.765 132.196L173.373 132.552Z" fill="#1D2366"/>
<path d="M157.145 120.558C156.288 123 156.53 126.296 156.723 127.897C156.794 128.489 156.86 128.849 156.86 128.849C156.86 128.849 155.578 131.769 155.471 131.88C155.364 131.991 151.699 134.228 151.699 134.228L149.137 135.724C149.137 135.724 146.538 134.584 147.784 134.192C148.039 134.09 148.268 133.934 148.456 133.734C149.704 132.549 151.271 129.602 151.271 129.602C151.271 129.602 151.378 128.106 151.77 127.395C152.162 126.683 152.02 119.208 152.02 119.208L152.05 107.023V105.435L156.926 105.471C156.957 106.01 157.027 106.546 157.136 107.075C157.311 107.988 157.538 108.89 157.815 109.778C158.675 112.557 158.318 117.212 157.145 120.558Z" fill="#FFB0B1"/>
<path opacity="0.1" d="M156.86 128.849C156.86 128.849 155.578 131.769 155.471 131.88C155.364 131.991 151.699 134.228 151.699 134.228L149.137 135.724C149.137 135.724 146.538 134.584 147.784 134.192C148.039 134.09 148.268 133.934 148.456 133.734L148.567 134.513L149.42 134.477L156.73 127.901C156.794 128.489 156.86 128.849 156.86 128.849Z" fill="black"/>
<path d="M156.771 128.067L149.42 134.688L148.566 134.724L148.388 133.476C148.388 133.476 146.894 135.397 143.575 135.29C143.575 135.29 141.582 136.608 144.536 136.679C147.49 136.751 151.262 136.572 151.262 136.572C151.262 136.572 153.897 132.472 156.102 133.007V136.103H156.78V132.978C157.094 132.766 157.363 132.493 157.57 132.174C157.776 131.855 157.916 131.498 157.981 131.124C158.04 130.739 157.998 130.345 157.861 129.98C157.723 129.615 157.494 129.292 157.195 129.042C157.061 128.917 156.955 128.766 156.882 128.598C156.809 128.43 156.771 128.25 156.771 128.067Z" fill="#1D2366"/>
<path d="M174.051 124.366C173.576 126.059 173.835 127.013 174.159 127.525V127.535C174.576 128.167 174.865 128.874 175.012 129.616L175.04 129.776L171.696 134.652L169.881 135.365C169.881 135.365 166.963 134.369 167.496 134.083C167.629 134.014 167.838 133.643 168.077 133.132C168.79 131.589 169.774 128.744 169.774 128.744V128.721C169.877 127.546 170.041 126.375 170.223 125.209C170.549 123.111 169.95 117.96 169.95 117.96C169.95 117.96 169.736 111.698 169.273 110.273C169.064 109.549 168.925 108.806 168.858 108.055C168.761 107.164 168.74 106.43 168.74 106.43C168.74 106.43 170.662 103.756 174.184 106.644C174.466 106.874 174.714 107.143 174.921 107.442C177.354 110.904 175.395 118.531 175.395 118.531C175.395 118.531 174.905 121.305 174.051 124.366Z" fill="#FFB0B1"/>
<path opacity="0.1" d="M175.046 129.776L171.701 134.652L169.886 135.365C169.886 135.365 166.968 134.369 167.501 134.083C167.635 134.014 167.843 133.643 168.082 133.132C169.318 133.121 169.958 134.297 169.958 134.297L171.523 134.048C171.523 134.048 173.587 129.99 174.051 129.743C174.514 129.495 174.122 127.89 174.122 127.89V127.482C174.135 127.496 174.145 127.512 174.16 127.527V127.537C174.576 128.169 174.865 128.876 175.012 129.618L175.046 129.776Z" fill="black"/>
<path d="M170.065 134.403C170.065 134.403 169.173 132.766 167.465 133.37C167.465 133.37 166.504 135.331 165.544 135.649C164.583 135.966 164.904 137.036 167.075 136.645C169.246 136.255 172.519 135.932 172.519 135.932L172.662 133.937L174.869 131.126C174.869 131.126 176.185 129.933 174.227 127.585V127.994C174.227 127.994 174.62 129.598 174.156 129.846C173.693 130.094 171.635 134.153 171.635 134.153L170.065 134.403Z" fill="#1D2366"/>
<path opacity="0.1" d="M156.931 105.467C156.962 106.006 157.032 106.542 157.141 107.071C155.134 106.777 153.271 106.923 152.05 107.02V105.431L156.931 105.467Z" fill="black"/>
<path opacity="0.1" d="M175.119 107.886C175.119 107.886 172.266 108.025 168.865 108.054C168.768 107.162 168.747 106.428 168.747 106.428C168.747 106.428 170.669 103.754 174.192 106.642C174.473 106.872 174.721 107.141 174.928 107.44C174.983 107.592 175.047 107.741 175.119 107.886Z" fill="black"/>
<path d="M175.119 107.565C175.119 107.565 162.625 108.17 158.817 107.102C155.009 106.034 151.235 106.959 150.667 106.711C150.098 106.463 150.56 102.582 151.059 101.622C151.558 100.661 154.296 90.9429 154.296 90.9429L156.931 77.2051L159.707 76.4403L159.903 76.3851L164.74 75.0516L168.284 74.0728C168.284 74.0728 175.331 101.586 174.726 103.615C174.507 104.392 174.472 105.209 174.623 106.002C174.715 106.543 174.882 107.069 175.119 107.565Z" fill="#1D2366"/>
<path d="M147.746 67.8101C147.746 67.8101 145.251 70.4842 147.14 71.9746C149.03 73.4649 150.273 72.1172 150.273 72.1172L147.746 67.8101Z" fill="#C7DAF5"/>
<path opacity="0.1" d="M147.746 67.8101C147.746 67.8101 145.251 70.4842 147.14 71.9746C149.03 73.4649 150.273 72.1172 150.273 72.1172L147.746 67.8101Z" fill="black"/>
<path d="M167.911 50.2287C167.911 50.2287 167.619 50.5068 167.178 50.9169C166.551 51.5034 165.622 52.3609 164.798 53.0793C163.657 54.0723 162.716 54.8014 163.053 54.1793C163.39 53.5571 163.326 52.4732 163.158 51.4588C163.146 51.3911 163.135 51.3233 163.123 51.2574C162.984 50.5124 162.8 49.7765 162.572 49.0539C162.572 49.0539 164.415 46.6721 165.435 45.7326C165.815 45.3761 166.08 45.2299 166.096 45.4777C166.114 45.8111 166.364 46.5474 166.674 47.3282C166.683 47.3532 166.692 47.3763 166.702 47.4013C166.909 47.9361 167.143 48.4852 167.348 48.9594C167.662 49.6868 167.911 50.2287 167.911 50.2287Z" fill="#FFB0B1"/>
<path opacity="0.1" d="M166.702 47.4013C166.529 48.333 166.109 49.2011 165.485 49.9149C164.862 50.6286 164.058 51.1619 163.158 51.4588C163.017 50.645 162.821 49.8416 162.572 49.0539C162.572 49.0539 166.043 44.5703 166.096 45.4777C166.109 45.8218 166.38 46.5848 166.702 47.4013Z" fill="black"/>
<path opacity="0.1" d="M162.812 52.6568L163.262 52.024C163.262 52.024 163.559 53.8388 164.654 53.0383C165.748 52.2379 165.802 59.0622 165.802 59.0622L164.627 76.6276L156.138 76.1195L156.378 67.6319L157.339 63.3533L159.716 57.1333L161.129 55.0778L162.812 52.6568Z" fill="black"/>
<path d="M165.802 59.171L164.732 75.0534L164.62 76.7363L159.887 76.4528L159.709 76.4422L156.143 76.2282L156.384 67.7388L157.345 63.4602L159.721 57.2402L161.135 55.1847L162.818 52.7549L163.267 52.1238C163.267 52.1238 163.565 53.9386 164.659 53.1382L164.682 53.1221C165.752 52.4447 165.802 59.171 165.802 59.171Z" fill="#1D2366"/>
<path d="M157.464 61.9734C157.464 61.9734 157.038 62.8648 156.182 62.7204C155.327 62.576 155.328 65.9293 155.328 65.9293C155.328 65.9293 154.76 66.4641 154.367 66.0006C153.975 65.5371 152.941 67.1041 152.941 67.1041L146.463 67.3894C146.463 67.3894 149.345 68.7068 148.78 72.693C148.78 72.693 158.568 72.0869 158.888 71.1617C159.209 70.2364 157.464 61.9734 157.464 61.9734Z" fill="white"/>
<path opacity="0.03" d="M157.464 61.9734C157.464 61.9734 157.038 62.8648 156.182 62.7204C155.327 62.576 155.328 65.9293 155.328 65.9293C155.328 65.9293 154.76 66.4641 154.367 66.0006C153.975 65.5371 152.941 67.1041 152.941 67.1041L146.463 67.3894C146.463 67.3894 149.345 68.7068 148.78 72.693C148.78 72.693 158.568 72.0869 158.888 71.1617C159.209 70.2364 157.464 61.9734 157.464 61.9734Z" fill="black"/>
<path d="M138.637 69.4841L140.345 70.9424L154.403 73.8964L152.66 72.1172L138.637 69.4841Z" fill="white"/>
<path d="M162.839 53.2184C162.605 53.5749 161.937 55.4005 161.379 56.9942C160.914 58.3224 160.525 59.4901 160.525 59.4901C160.525 59.4901 159.618 65.3981 159.154 66.4659C158.691 67.5338 158.942 71.6983 158.942 71.6983L157.214 81.9829C157.214 81.9829 156.432 87.2866 155.223 90.4545C154.031 93.5725 152.702 95.0343 152.661 95.0807C153.196 94.3569 156.111 80.1057 156.111 80.1057L157.074 62.1321C157.074 62.1321 157.214 60.4242 157.357 58.9642C157.5 57.5041 160.388 55.511 160.388 55.511L163.172 51.5515C163.452 51.9259 163.265 52.5784 162.839 53.2184Z" fill="white"/>
<path d="M155.578 76.3173C155.578 76.3173 151.478 76.1391 149.492 73.7538C147.506 71.3685 154.082 72.8018 154.082 72.8018L155.792 73.194L155.578 76.3173Z" fill="#FFB0B1"/>
<path opacity="0.1" d="M174.726 103.616C174.507 104.393 174.471 105.211 174.623 106.004C170.15 106.321 165.365 105.112 165.365 105.112C164.474 105.932 162.126 107.141 162.126 107.141L160.846 91.2745C160.028 89.1352 159.707 77.9272 159.707 77.9272C159.707 77.9272 159.78 77.3406 159.885 76.4617C159.885 76.4404 159.885 76.4172 159.894 76.3958C160.213 73.941 160.846 69.3326 161.156 68.7104C161.584 67.8547 159.84 65.5781 159.84 65.5781L160.634 58.8126L160.73 57.9961C162.402 57.2491 163.684 54.8638 163.684 54.8638L164.668 53.1399C165.738 52.4536 165.793 59.1799 165.793 59.1799L164.723 75.0623L168.267 74.0836C168.267 74.0836 175.331 101.588 174.726 103.616Z" fill="black"/>
<path d="M179.317 104.713C174.441 107.134 165.579 104.891 165.579 104.891C164.688 105.711 162.34 106.92 162.34 106.92L161.058 91.0535C160.242 88.9142 159.921 77.7061 159.921 77.7061C159.921 77.7061 160.951 69.3433 161.379 68.4893C161.504 68.2397 161.443 67.8689 161.295 67.4696C160.568 65.5689 160.3 63.5231 160.514 61.4992L160.857 58.5915L160.951 57.7768C162.625 57.0281 163.907 54.6428 163.907 54.6428L164.798 53.0811L166.438 50.2037L167.216 48.8417L167.348 48.9612L168.355 49.8739C168.355 49.8739 168.783 50.2305 169.424 50.7653C170.82 51.9419 173.232 54.0135 174.477 55.281C175.571 56.397 175.917 60.738 176.017 64.0057C176.083 66.1575 176.044 67.844 176.044 67.844C174.94 69.6606 177.827 84.2452 177.827 84.2452C178.499 87.0637 179.317 104.713 179.317 104.713Z" fill="white"/>
<path opacity="0.03" d="M169.958 54.6071C169.958 54.6071 166.611 60.9769 167 63.3978C167.389 65.8188 168.494 68.5589 167.961 69.1989C167.778 69.4414 167.541 69.6382 167.269 69.7739C166.997 69.9097 166.698 69.9808 166.394 69.9815C165.859 70.0172 164.433 71.0137 164.433 71.1207C164.433 71.2276 163.115 71.2276 161.937 71.7268C160.759 72.226 159.019 72.5094 159.019 72.5094C159.019 72.5094 155.632 72.4025 155.316 72.7234C155 73.0443 154.676 74.9643 155.352 76.4956C156.027 78.027 156.778 79.1698 157.345 79.3783C157.912 79.5869 161.509 78.3818 164.428 78.0966C167.346 77.8113 170.514 75.4991 170.514 75.4991C170.514 75.4991 174.003 74.2512 174.614 72.1529C175.226 70.0546 173.867 58.522 173.867 58.522C173.867 58.522 172.84 53.1471 169.958 54.6071Z" fill="black"/>
<path opacity="0.03" d="M169.53 54.0723C169.53 54.0723 166.183 60.4438 166.576 62.863C166.968 65.2822 168.07 68.024 167.535 68.6658C167.352 68.9086 167.116 69.1056 166.844 69.2414C166.573 69.3772 166.273 69.4481 165.97 69.4484C165.435 69.4841 164.008 70.4806 164.008 70.5876C164.008 70.6946 162.691 70.6946 161.513 71.192C160.334 71.6894 158.594 71.9746 158.594 71.9746C158.594 71.9746 155.207 71.8676 154.893 72.1885C154.58 72.5094 154.252 74.4312 154.929 75.9608C155.606 77.4904 156.355 78.6349 156.922 78.8435C157.489 79.0521 161.087 77.8469 164.005 77.5635C166.923 77.28 170.091 74.9642 170.091 74.9642C170.091 74.9642 173.578 73.7163 174.183 71.6198C174.787 69.5233 173.436 57.9872 173.436 57.9872C173.436 57.9872 172.412 52.614 169.53 54.0723Z" fill="black"/>
<path d="M169.852 54.2862C169.852 54.2862 166.506 60.6578 166.898 63.0769C167.291 65.4961 168.392 68.238 167.859 68.878C167.677 69.1213 167.44 69.3188 167.168 69.455C166.896 69.5911 166.596 69.6621 166.292 69.6624C165.757 69.698 164.331 70.6946 164.331 70.7998C164.331 70.9049 163.016 70.9067 161.835 71.4059C160.655 71.9051 158.917 72.1885 158.917 72.1885C158.917 72.1885 155.53 72.0816 155.214 72.4025C154.899 72.7233 154.574 74.6451 155.25 76.1747C155.926 77.7043 156.676 78.8488 157.243 79.0574C157.81 79.266 161.408 78.0609 164.326 77.7756C167.244 77.4904 170.412 75.1782 170.412 75.1782C170.412 75.1782 173.901 73.9303 174.512 71.832C175.124 69.7337 173.774 58.2011 173.774 58.2011C173.774 58.2011 172.733 52.8351 169.852 54.2862Z" fill="white"/>
<path opacity="0.1" d="M169.779 71.3756C169.779 71.3756 167.105 70.8408 168.036 71.7322C168.966 72.6235 168.961 73.4044 170.1 73.3687C171.239 73.333 169.779 71.3756 169.779 71.3756Z" fill="black"/>
<path opacity="0.1" d="M174.299 90.5543C174.299 90.5543 173.09 91.3726 175.402 93.2587C177.714 95.1448 174.299 90.5543 174.299 90.5543Z" fill="black"/>
<path opacity="0.1" d="M171.992 97.2806C171.992 97.3876 171.564 101.203 173.165 102.156C174.766 103.11 171.992 97.2806 171.992 97.2806Z" fill="black"/>
<path d="M146.573 67.3805C145.283 67.425 142.495 67.819 143.94 70.5163C145.219 72.9034 147.367 71.3078 148.575 70.0974C148.281 68.9688 147.564 67.9963 146.573 67.3805Z" fill="#FFB0B1"/>
<path d="M148.591 70.076L148.645 70.0208L148.591 70.076Z" fill="#FFB0B1"/>
<path opacity="0.1" d="M169.425 50.8741C168.055 51.81 166.907 52.5998 166.683 52.7638C166.069 53.2184 164.9 55.8871 164.146 57.2492C163.545 58.3455 161.593 58.6272 160.857 58.6967L160.951 57.882C162.625 57.1333 163.907 54.748 163.907 54.748L167.216 48.9469L168.355 49.9827C168.355 49.9827 168.783 50.3392 169.425 50.8741Z" fill="black"/>
<path d="M169.425 50.7671C168.055 51.703 166.907 52.4928 166.683 52.6586C166.069 53.1114 164.9 55.7802 164.146 57.1422C163.545 58.2386 161.593 58.5202 160.857 58.5898L160.951 57.7751C162.625 57.0263 163.907 54.641 163.907 54.641L167.216 48.84L168.355 49.8722C168.355 49.8722 168.783 50.2252 169.425 50.7671Z" fill="#DCE7FF"/>
<path d="M166.79 46.2247C166.79 47.2948 166.466 48.34 165.859 49.2215C165.142 50.2637 164.076 51.0145 162.853 51.3377C161.63 51.6609 160.332 51.535 159.194 50.9828C158.056 50.4307 157.154 49.4889 156.651 48.3284C156.148 47.1679 156.077 45.8655 156.452 44.6575C156.827 43.4496 157.623 42.4161 158.695 41.7446C159.767 41.0731 161.044 40.8081 162.295 40.9977C163.545 41.1873 164.686 41.8189 165.511 42.7779C166.336 43.7369 166.789 44.9598 166.79 46.2247Z" fill="#FFB0B1"/>
<path opacity="0.1" d="M176.017 64.0075C175.293 63.5622 174.704 62.9288 174.311 62.1749C174.013 61.5866 173.815 60.9073 173.307 60.4902C172.849 60.1158 172.238 60.0249 171.667 59.8573C169.792 59.3029 168.219 57.5914 168.161 55.6376C168.132 54.7177 168.419 53.7995 168.289 52.8886C168.215 52.373 168.01 51.885 167.694 51.4713C167.536 51.2734 167.364 51.088 167.178 50.9169C166.929 50.6815 166.667 50.4533 166.438 50.2038C166.295 50.0492 166.169 49.8788 166.064 49.6957C165.979 49.5459 165.911 49.3875 165.859 49.2232C165.503 48.1322 165.827 46.8379 165.435 45.7344L165.413 45.6738C165.265 45.2816 164.964 44.8894 164.545 44.8591C164.126 44.8288 163.768 45.1764 163.369 45.3315C162.533 45.656 161.63 45.1033 160.933 44.54C160.236 43.9766 159.45 43.3331 158.564 43.4579C157.978 43.5417 157.514 43.941 156.974 44.1478C156.852 44.195 156.726 44.2314 156.598 44.2565C157.055 43.1165 157.895 42.1712 158.973 41.5832C160.052 40.9951 161.301 40.8009 162.507 41.034C163.713 41.2671 164.8 41.9129 165.582 42.8605C166.363 43.808 166.79 44.9982 166.79 46.2265C166.79 46.5974 166.751 46.9673 166.674 47.33C166.683 47.3549 166.692 47.3781 166.702 47.4031C166.909 47.9379 167.143 48.487 167.348 48.9612L168.355 49.874C168.355 49.874 168.783 50.2305 169.425 50.7653C170.82 51.9419 173.233 54.0135 174.477 55.281C175.571 56.4006 175.914 60.7398 176.017 64.0075Z" fill="black"/>
<path d="M156.912 40.8907C157.167 40.3719 157.293 39.7908 157.598 39.2987C158.045 38.5856 158.826 38.1293 159.629 37.8529C161.723 37.1309 166.15 36.0827 167.473 37.8529C167.733 38.2095 167.949 38.6052 168.309 38.8513C168.583 39.0384 168.915 39.1187 169.216 39.2595C170.059 39.6553 170.598 40.5181 170.885 41.3988C171.172 42.2795 171.257 43.2243 171.468 44.1317C171.737 45.2959 172.209 46.3994 172.68 47.4958C173.234 48.79 173.823 50.1325 174.892 51.047C176.352 52.2949 176.675 54.0616 178.03 55.4308C179.634 57.0566 179.583 59.7396 178.756 61.87C178.647 62.1499 178.524 62.4423 178.567 62.74C178.609 63.0377 178.83 63.3087 179.039 63.5458L179.916 64.5352C177.841 65.0362 175.493 63.9523 174.527 62.0501C174.229 61.4618 174.031 60.7843 173.521 60.3654C173.065 59.991 172.452 59.9019 171.883 59.7343C170.008 59.1781 168.435 57.4649 168.376 55.511C168.348 54.5929 168.635 53.6748 168.505 52.7656C168.432 52.2465 168.227 51.7551 167.908 51.3394C167.417 50.6994 166.677 50.2697 166.278 49.5566C165.602 48.364 166.116 46.8148 165.629 45.5348C165.479 45.1426 165.18 44.7504 164.761 44.72C164.342 44.6897 163.984 45.0374 163.583 45.1925C162.748 45.5169 161.846 44.9661 161.149 44.4009C160.452 43.8358 159.666 43.194 158.778 43.3206C158.192 43.4026 157.73 43.8019 157.19 44.0105C156.79 44.1638 155.981 44.3011 155.632 43.9642C154.894 43.2849 156.603 41.5254 156.912 40.8907Z" fill="#591D4B"/>
<path opacity="0.1" d="M175.022 61.4618C174.723 60.8735 174.527 60.196 174.017 59.7789C173.561 59.4045 172.947 59.3136 172.377 59.146C170.503 58.5916 168.931 56.8783 168.87 54.9245C168.842 54.0063 169.129 53.0865 169 52.1773C168.926 51.6616 168.72 51.1736 168.403 50.76C167.911 50.12 167.171 49.6903 166.774 48.9772C166.098 47.7864 166.611 46.2372 166.123 44.9554C165.975 44.565 165.674 44.1728 165.257 44.1407C164.839 44.1086 164.478 44.4598 164.078 44.6149C163.244 44.9393 162.34 44.3867 161.645 43.8233C160.949 43.26 160.16 42.6164 159.274 42.7412C158.687 42.825 158.224 43.2243 157.685 43.4311C157.286 43.5844 156.475 43.7235 156.125 43.3866C155.391 42.6735 157.101 40.9175 157.407 40.2864C157.662 39.7658 157.789 39.1864 158.095 38.6944C158.111 38.6676 158.129 38.6409 158.147 38.6142C157.918 38.8042 157.72 39.0292 157.56 39.2809C157.256 39.7729 157.129 40.3506 156.874 40.8729C156.566 41.504 154.856 43.2653 155.592 43.9731C155.949 44.3118 156.751 44.1727 157.15 44.0194C157.685 43.8109 158.152 43.4115 158.739 43.3295C159.63 43.2029 160.415 43.8465 161.11 44.4099C161.805 44.9732 162.714 45.5258 163.545 45.2014C163.944 45.0463 164.294 44.6969 164.722 44.729C165.15 44.7611 165.435 45.1515 165.59 45.5437C166.077 46.8237 165.563 48.3729 166.239 49.5655C166.638 50.2662 167.378 50.7047 167.868 51.3483C168.187 51.764 168.393 52.2554 168.466 52.7745C168.596 53.6837 168.309 54.6018 168.337 55.5199C168.396 57.4809 169.968 59.187 171.844 59.7432C172.409 59.9108 173.026 59.9999 173.482 60.3743C173.994 60.7932 174.195 61.4707 174.488 62.059C175.454 63.9612 177.802 65.0451 179.877 64.5441L179.463 64.0771C177.664 64.1038 175.844 63.0805 175.022 61.4618Z" fill="black"/>
<path opacity="0.1" d="M162.732 53.3253C162.499 53.6819 161.83 55.5074 161.272 57.1012C160.75 56.898 160.276 55.6019 160.276 55.6019L163.06 51.6407C163.345 52.0329 163.158 52.6836 162.732 53.3253Z" fill="black"/>
<path d="M162.839 53.2184C162.605 53.5749 161.937 55.4004 161.379 56.9942C160.857 56.7928 160.382 55.4949 160.382 55.4949L163.167 51.5355C163.452 51.9259 163.265 52.5784 162.839 53.2184Z" fill="#DCE7FF"/>
<path d="M146.648 71.4309L145.104 66.5622C145.086 66.5052 145.079 66.4451 145.084 66.3855C145.089 66.3258 145.106 66.2677 145.134 66.2146C145.161 66.1614 145.199 66.1142 145.245 66.0756C145.29 66.0371 145.343 66.0079 145.4 65.9899C145.515 65.954 145.64 65.965 145.747 66.0204C145.853 66.0759 145.934 66.1713 145.971 66.2859L147.515 71.1492L147.361 72.1671L146.648 71.4309Z" fill="#BE8B87"/>
<path opacity="0.1" d="M145.251 66.1343C145.366 66.0979 145.491 66.1086 145.598 66.1641C145.705 66.2195 145.786 66.3153 145.823 66.4303L147.367 71.2936L147.251 72.0566L147.363 72.1743L147.516 71.1563L145.964 66.293C145.927 66.1784 145.846 66.083 145.739 66.0276C145.633 65.9722 145.508 65.9612 145.393 65.9971C145.297 66.0284 145.213 66.0912 145.156 66.1753C145.186 66.1591 145.218 66.1454 145.251 66.1343Z" fill="white"/>
<path d="M146.648 71.4308L147.515 71.1563L147.388 71.9906L147.361 72.1743L147.108 71.9104L146.648 71.4308Z" fill="#EFC8C4"/>
<path d="M147.108 71.9104C147.123 71.8913 147.142 71.8756 147.164 71.8641C147.176 71.8561 147.191 71.8519 147.205 71.8519C147.22 71.8519 147.235 71.8561 147.247 71.8641C147.259 71.8787 147.27 71.8949 147.278 71.9122C147.289 71.9319 147.305 71.9486 147.325 71.9613C147.344 71.9739 147.365 71.9821 147.388 71.9853L147.361 72.1636L147.108 71.9104Z" fill="#727A9C"/>
<path d="M145.095 68.2915C145.095 68.2915 148.192 68.2736 147.463 69.5911C146.734 70.9085 145.595 71.0672 145.595 71.0672L145.095 68.2915Z" fill="#FFB0B1"/>
<path d="M125.837 9.16684H125.703C120.383 9.16684 115.678 11.9818 112.972 16.1356C110.266 11.9818 105.561 9.16684 100.242 9.16684H100.108C96.1157 9.20488 92.2998 10.8169 89.4894 13.6527C86.679 16.4885 85.1013 20.3188 85.0991 24.3112C85.0991 29.269 87.2705 36.3037 91.5045 42.0923C99.5714 53.1221 112.972 62.7721 112.972 62.7721C112.972 62.7721 126.373 53.1239 134.438 42.0923C138.674 36.3037 140.844 29.269 140.844 24.3112C140.841 20.3191 139.264 16.489 136.454 13.6533C133.644 10.8176 129.828 9.20535 125.837 9.16684ZM123.924 42.9409C123.318 42.9386 122.727 42.7531 122.228 42.4089C121.73 42.0646 121.347 41.5777 121.13 41.0119H117.95C117.74 41.0106 117.536 40.944 117.367 40.8212C117.197 40.6985 117.07 40.5259 117.003 40.3274L116.026 37.3841L112.935 48.1857C112.875 48.3936 112.749 48.5764 112.576 48.7066C112.403 48.8368 112.192 48.9074 111.976 48.9077H111.913C111.687 48.8968 111.472 48.8087 111.303 48.6581C111.135 48.5076 111.023 48.3037 110.986 48.0805L107.801 28.9196L105.472 40.2578C105.419 40.4732 105.295 40.6645 105.12 40.8012C104.945 40.9379 104.73 41.0121 104.508 41.0119H100.028C99.8935 41.0176 99.7594 40.9961 99.6337 40.9486C99.5079 40.9011 99.3931 40.8287 99.296 40.7357C99.199 40.6427 99.1218 40.531 99.069 40.4074C99.0163 40.2837 98.9891 40.1507 98.9891 40.0163C98.9891 39.8819 99.0163 39.7488 99.069 39.6252C99.1218 39.5016 99.199 39.3899 99.296 39.2969C99.3931 39.2039 99.5079 39.1314 99.6337 39.084C99.7594 39.0365 99.8935 39.0149 100.028 39.0206H103.723L107.021 23.7764C107.076 23.551 107.206 23.3514 107.391 23.2118C107.576 23.0721 107.804 23.0011 108.036 23.0108C108.267 23.0204 108.488 23.1103 108.661 23.2649C108.834 23.4195 108.947 23.6293 108.982 23.8584L112.236 43.4044L115.006 33.7401C115.064 33.5366 115.186 33.3572 115.354 33.2287C115.522 33.1001 115.727 33.0294 115.939 33.027H115.958C116.168 33.0271 116.372 33.0933 116.542 33.2163C116.711 33.3392 116.838 33.5125 116.903 33.7116L118.67 39.026H121.091C121.263 38.503 121.576 38.0378 121.996 37.6817C122.416 37.3255 122.926 37.0923 123.47 37.0077C124.014 36.9231 124.571 36.9905 125.079 37.2024C125.587 37.4143 126.027 37.7625 126.35 38.2085C126.672 38.6545 126.866 39.181 126.908 39.7299C126.95 40.2789 126.84 40.8288 126.59 41.3191C126.339 41.8094 125.958 42.221 125.489 42.5084C125.019 42.7959 124.48 42.948 123.929 42.948L123.924 42.9409Z" fill="#EC0000"/>
</g>
<defs>
<linearGradient id="paint0_linear" x1="63.5245" y1="138.139" x2="63.5245" y2="28.4401" gradientUnits="userSpaceOnUse">
<stop stop-color="#808080" stop-opacity="0.25"/>
<stop offset="0.54" stop-color="#808080" stop-opacity="0.12"/>
<stop offset="1" stop-color="#808080" stop-opacity="0.1"/>
</linearGradient>
<linearGradient id="paint1_linear" x1="39793.5" y1="82769.5" x2="39793.5" y2="26460" gradientUnits="userSpaceOnUse">
<stop stop-color="#808080" stop-opacity="0.25"/>
<stop offset="0.54" stop-color="#808080" stop-opacity="0.12"/>
<stop offset="1" stop-color="#808080" stop-opacity="0.1"/>
</linearGradient>
<clipPath id="clip0">
<rect width="197" height="139.542" fill="white"/>
</clipPath>
</defs>
</svg>
