<svg width="20" height="20" viewBox="0 0 20 20" fill="none" xmlns="http://www.w3.org/2000/svg">
<path fill-rule="evenodd" clip-rule="evenodd" d="M13.0074 12.0962C13.3956 11.1707 14.4461 10.7164 15.3869 11.0668L17.1124 11.7083C17.8463 11.9805 18.3333 12.6812 18.3333 13.464V16.1548C18.3333 17.3582 17.3577 18.3332 16.1542 18.3332C8.15266 18.3332 1.66666 11.8469 1.66666 3.84567C1.66666 2.64212 2.64164 1.6665 3.84499 1.6665H6.53582C7.31789 1.6665 8.01788 2.15353 8.29131 2.88697L8.93393 4.61314C9.28327 5.55399 8.82903 6.60317 7.904 6.99226L6.08218 7.75831C7.33139 10.0375 9.97183 12.6803 12.2419 13.9184L13.0074 12.0962ZM12.2679 14.8688L12.2211 14.8458C9.58405 13.5561 6.41196 10.3729 5.13012 7.73088C5.02583 7.51594 5.12326 7.25751 5.34349 7.16491L7.58094 6.2241C8.09443 6.00811 8.34666 5.42554 8.15284 4.90354L7.51041 3.17789C7.35849 2.77039 6.96963 2.49984 6.53582 2.49984H3.84499C3.10199 2.49984 2.49999 3.10224 2.49999 3.84567C2.49999 11.3867 8.6129 17.4998 16.1542 17.4998C16.8976 17.4998 17.5 16.8978 17.5 16.1548V13.464C17.5 13.0295 17.2297 12.6406 16.8223 12.4896L15.0962 11.8478C14.5741 11.6533 13.9911 11.9055 13.7758 12.4187L12.8358 14.6562C12.7429 14.8773 12.4831 14.9745 12.2679 14.8688Z" fill="white"/>
</svg>
