<svg width="65" height="123" viewBox="0 0 65 123" fill="none" xmlns="http://www.w3.org/2000/svg">
<path d="M41.7064 75.5713C39.8121 69.1068 36.0092 62.7557 29.6852 59.7787C26.2954 58.1909 23.0052 58.4886 19.3732 57.8507C15.6415 57.1985 11.9953 55.8943 8.94726 53.6119C1.85419 48.324 -0.823511 38.6415 0.216236 29.8946C1.02809 23.0189 3.79125 16.5544 7.02444 10.4869C9.61668 5.61016 14.6872 -2.13022 21.3957 0.549144C24.6289 1.83921 26.3238 5.36916 27.3066 8.70065C29.9131 17.561 29.6282 27.2719 33.6021 35.6077C38.3877 45.6589 48.5858 52.0666 58.9263 56.2912C69.2668 60.5158 80.3052 63.1385 90.1045 68.4831C99.9037 73.8276 108.677 82.773 109.86 93.8449C111.996 113.805 89.3068 127.216 71.6596 121.787C63.598 119.306 56.2486 114.174 51.1211 107.412C48.5004 103.953 46.4493 100.083 45.1247 95.943C43.6007 91.1371 43.5722 86.0478 42.8601 81.0718C42.6322 79.2572 42.2334 77.4001 41.7064 75.5713Z" fill="url(#paint0_linear)" fill-opacity="0.5"/>
<defs>
<linearGradient id="paint0_linear" x1="59.5" y1="126" x2="8.53938" y2="-0.048905" gradientUnits="userSpaceOnUse">
<stop stop-color="#63B468" stop-opacity="0"/>
<stop offset="1" stop-color="#7BD85C"/>
</linearGradient>
</defs>
</svg>
