<svg width="70" height="111" viewBox="0 0 70 111" fill="none" xmlns="http://www.w3.org/2000/svg">
<path d="M6.69835 24.0897C0.76013 33.2143 -0.851206 44.6651 0.392059 55.4853C1.63532 66.3054 5.52052 76.6423 9.89649 86.6106C14.4197 96.9311 20.8814 108.144 31.8826 110.552C39.6612 112.248 47.7261 108.906 54.1796 104.229C60.6249 99.5521 66.0233 93.5564 72.4278 88.8221C77.6053 84.997 83.519 81.9172 87.4451 76.8225C90.8559 72.4076 92.4754 66.6494 91.8783 61.096C90.8395 51.439 83.6908 43.7232 79.4866 34.9672C72.9758 21.4031 68.3544 0.860384 49.5991 0.0249158C34.7127 -0.638544 14.5178 12.0655 6.69835 24.0897Z" fill="url(#paint0_linear)"/>
<defs>
<linearGradient id="paint0_linear" x1="78.2979" y1="14.1544" x2="4.50252" y2="114.354" gradientUnits="userSpaceOnUse">
<stop stop-color="#B9B9B9" stop-opacity="0.37"/>
<stop offset="0.923923" stop-color="#4B4B4B" stop-opacity="0"/>
</linearGradient>
</defs>
</svg>
