<svg width="264" height="72" viewBox="0 0 264 72" fill="none" xmlns="http://www.w3.org/2000/svg">
<circle cx="6" cy="6" r="6" fill="#C4C4C4"/>
<circle cx="6" cy="21" r="6" fill="#C4C4C4"/>
<circle cx="6" cy="36" r="6" fill="#C4C4C4"/>
<circle cx="6" cy="51" r="6" fill="#C4C4C4"/>
<circle cx="6" cy="66" r="6" fill="#C4C4C4"/>
<circle cx="21" cy="6" r="6" fill="#C4C4C4"/>
<circle cx="21" cy="21" r="6" fill="#C4C4C4"/>
<circle cx="21" cy="36" r="6" fill="#C4C4C4"/>
<circle cx="21" cy="51" r="6" fill="#C4C4C4"/>
<circle cx="21" cy="66" r="6" fill="#C4C4C4"/>
<circle cx="36" cy="6" r="6" fill="#C4C4C4"/>
<circle cx="36" cy="21" r="6" fill="#C4C4C4"/>
<circle cx="36" cy="36" r="6" fill="#EC0000" fill-opacity="0.5"/>
<circle cx="36" cy="51" r="6" fill="#C4C4C4"/>
<circle cx="36" cy="66" r="6" fill="#C4C4C4"/>
<circle cx="51" cy="6" r="6" fill="#C4C4C4"/>
<circle cx="51" cy="21" r="6" fill="#C4C4C4"/>
<circle cx="51" cy="36" r="6" fill="#C4C4C4"/>
<circle cx="51" cy="51" r="6" fill="#C4C4C4"/>
<circle cx="51" cy="66" r="6" fill="#C4C4C4"/>
<circle cx="66" cy="6" r="6" fill="#C4C4C4"/>
<circle cx="66" cy="21" r="6" fill="#C4C4C4"/>
<circle cx="66" cy="36" r="6" fill="#C4C4C4"/>
<circle cx="66" cy="51" r="6" fill="#C4C4C4"/>
<circle cx="66" cy="66" r="6" fill="#C4C4C4"/>
<circle cx="102" cy="6" r="6" fill="#C4C4C4"/>
<circle cx="102" cy="21" r="6" fill="#C4C4C4"/>
<circle cx="102" cy="36" r="6" fill="#C4C4C4"/>
<circle cx="102" cy="51" r="6" fill="#C4C4C4"/>
<circle cx="102" cy="66" r="6" fill="#C4C4C4"/>
<circle cx="117" cy="6" r="6" fill="#C4C4C4"/>
<circle cx="117" cy="21" r="6" fill="#C4C4C4"/>
<circle cx="117" cy="36" r="6" fill="#EC0000" fill-opacity="0.5"/>
<circle cx="117" cy="51" r="6" fill="#C4C4C4"/>
<circle cx="117" cy="66" r="6" fill="#C4C4C4"/>
<circle cx="132" cy="6" r="6" fill="#C4C4C4"/>
<circle cx="132" cy="21" r="6" fill="#EC0000" fill-opacity="0.5"/>
<circle cx="132" cy="36" r="6" fill="#EC0000"/>
<circle cx="132" cy="51" r="6" fill="#EC0000" fill-opacity="0.5"/>
<circle cx="132" cy="66" r="6" fill="#C4C4C4"/>
<circle cx="147" cy="6" r="6" fill="#C4C4C4"/>
<circle cx="147" cy="21" r="6" fill="#C4C4C4"/>
<circle cx="147" cy="36" r="6" fill="#EC0000" fill-opacity="0.5"/>
<circle cx="147" cy="51" r="6" fill="#C4C4C4"/>
<circle cx="147" cy="66" r="6" fill="#C4C4C4"/>
<circle cx="162" cy="6" r="6" fill="#C4C4C4"/>
<circle cx="162" cy="21" r="6" fill="#C4C4C4"/>
<circle cx="162" cy="36" r="6" fill="#C4C4C4"/>
<circle cx="162" cy="51" r="6" fill="#C4C4C4"/>
<circle cx="162" cy="66" r="6" fill="#C4C4C4"/>
<circle cx="198" cy="6" r="6" fill="#C4C4C4"/>
<circle cx="198" cy="21" r="6" fill="#EC0000" fill-opacity="0.5"/>
<circle cx="198" cy="36" r="6" fill="#EC0000" fill-opacity="0.5"/>
<circle cx="198" cy="51" r="6" fill="#EC0000" fill-opacity="0.5"/>
<circle cx="198" cy="66" r="6" fill="#C4C4C4"/>
<circle cx="213" cy="6" r="6" fill="#EC0000" fill-opacity="0.5"/>
<circle cx="213" cy="21" r="6" fill="#EC0000" fill-opacity="0.5"/>
<circle cx="213" cy="36" r="6" fill="#EC0000" fill-opacity="0.5"/>
<circle cx="213" cy="51" r="6" fill="#EC0000" fill-opacity="0.5"/>
<circle cx="213" cy="66" r="6" fill="#EC0000" fill-opacity="0.5"/>
<circle cx="228" cy="6" r="6" fill="#EC0000" fill-opacity="0.5"/>
<circle cx="228" cy="21" r="6" fill="#EC0000" fill-opacity="0.5"/>
<circle cx="228" cy="36" r="6" fill="#EC0000"/>
<circle cx="228" cy="51" r="6" fill="#EC0000" fill-opacity="0.5"/>
<circle cx="228" cy="66" r="6" fill="#EC0000" fill-opacity="0.5"/>
<circle cx="243" cy="6" r="6" fill="#EC0000" fill-opacity="0.5"/>
<circle cx="243" cy="21" r="6" fill="#EC0000" fill-opacity="0.5"/>
<circle cx="243" cy="36" r="6" fill="#EC0000" fill-opacity="0.5"/>
<circle cx="243" cy="51" r="6" fill="#EC0000" fill-opacity="0.5"/>
<circle cx="243" cy="66" r="6" fill="#EC0000" fill-opacity="0.5"/>
<circle cx="258" cy="6" r="6" fill="#C4C4C4"/>
<circle cx="258" cy="21" r="6" fill="#EC0000" fill-opacity="0.5"/>
<circle cx="258" cy="36" r="6" fill="#EC0000" fill-opacity="0.5"/>
<circle cx="258" cy="51" r="6" fill="#EC0000" fill-opacity="0.5"/>
<circle cx="258" cy="66" r="6" fill="#C4C4C4"/>
</svg>
