<svg width="24" height="24" viewBox="0 0 24 24" fill="none" xmlns="http://www.w3.org/2000/svg">
<path fill-rule="evenodd" clip-rule="evenodd" d="M12.0002 2C17.5143 2 22.0002 6.48584 22.0002 12C22.0002 14.5731 21.0151 16.9146 19.4128 18.6885C19.3819 18.7363 19.3455 18.7772 19.3007 18.8118C17.4742 20.7681 14.8815 22 12.0002 22C9.1189 22 6.52612 20.7681 4.69965 18.8118C4.65485 18.7772 4.61847 18.7363 4.58759 18.6885C2.98529 16.9146 2.00018 14.5731 2.00018 12C2.00018 6.48584 6.48602 2 12.0002 2ZM15.5002 16.2935C14.9992 16.2935 14.2736 16.4009 13.4567 16.5952L13.1218 16.6807C12.7297 16.7827 12.3244 16.8887 12.0002 16.8887C11.6599 16.8887 11.3517 16.8042 11.0803 16.7295L10.9235 16.6875C10.6149 16.606 10.3029 16.5396 9.98798 16.4888L9.70868 16.4419C9.32098 16.376 8.83905 16.2935 8.50018 16.2935C6.90204 16.2935 5.50018 17.0649 5.50018 17.9443V18.2079C7.14001 19.9242 9.44476 21 12.0002 21C14.5556 21 16.8604 19.9242 18.5002 18.2079V17.9443C18.5002 17.0034 17.2106 16.2935 15.5002 16.2935ZM12.0002 3C7.03778 3 3.00018 7.0376 3.00018 12C3.00018 13.9424 3.62506 15.7381 4.6756 17.2104C5.15942 16.107 6.68134 15.2935 8.50018 15.2935C8.92401 15.2935 9.42987 15.3799 9.87665 15.4561L10.1472 15.5015C10.4943 15.5571 10.8386 15.6304 11.1779 15.7202L11.3444 15.7651C11.5759 15.8286 11.7946 15.8887 12.0002 15.8887C12.196 15.8887 12.5534 15.7954 12.8688 15.7129L13.2243 15.6226C13.8552 15.4722 14.7609 15.2935 15.5002 15.2935C17.4164 15.2935 18.8815 16.0614 19.3375 17.1934C20.3806 15.7243 21.0002 13.9348 21.0002 12C21.0002 7.0376 16.9626 3 12.0002 3ZM11.9977 4.6001C13.11 4.6001 14.2321 5.10693 14.926 5.92236C15.5021 6.59961 15.7433 7.44092 15.6052 8.29102L15.2184 11.3843C14.965 13.0474 13.6716 14.1558 11.9977 14.1558C10.3268 14.1558 9.03534 13.0474 8.78387 11.3975L8.39325 8.27295C8.25702 7.43994 8.49823 6.59766 9.0744 5.91992C9.76678 5.10596 10.8869 4.6001 11.9977 4.6001ZM11.9977 5.6001C11.1721 5.6001 10.3439 5.9707 9.83661 6.56787C9.56512 6.88672 9.26678 7.4165 9.383 8.13037L9.77411 11.2603C9.94891 12.4062 10.8224 13.1558 11.9977 13.1558C13.176 13.1558 14.0515 12.4062 14.2282 11.2471L14.6154 8.14893C14.7341 7.41797 14.4352 6.88867 14.1642 6.57031C13.6555 5.97168 12.8254 5.6001 11.9977 5.6001Z" fill="#1BB3BC"/>
</svg>
